%TF.GenerationSoftware,KiCad,Pcbnew,(6.0.2-0)*%
%TF.CreationDate,2022-02-22T20:10:00+00:00*%
%TF.ProjectId,ASR33,41535233-332e-46b6-9963-61645f706362,1*%
%TF.SameCoordinates,Original*%
%TF.FileFunction,Soldermask,Top*%
%TF.FilePolarity,Negative*%
%FSLAX46Y46*%
G04 Gerber Fmt 4.6, Leading zero omitted, Abs format (unit mm)*
G04 Created by KiCad (PCBNEW (6.0.2-0)) date 2022-02-22 20:10:00*
%MOMM*%
%LPD*%
G01*
G04 APERTURE LIST*
G04 Aperture macros list*
%AMRoundRect*
0 Rectangle with rounded corners*
0 $1 Rounding radius*
0 $2 $3 $4 $5 $6 $7 $8 $9 X,Y pos of 4 corners*
0 Add a 4 corners polygon primitive as box body*
4,1,4,$2,$3,$4,$5,$6,$7,$8,$9,$2,$3,0*
0 Add four circle primitives for the rounded corners*
1,1,$1+$1,$2,$3*
1,1,$1+$1,$4,$5*
1,1,$1+$1,$6,$7*
1,1,$1+$1,$8,$9*
0 Add four rect primitives between the rounded corners*
20,1,$1+$1,$2,$3,$4,$5,0*
20,1,$1+$1,$4,$5,$6,$7,0*
20,1,$1+$1,$6,$7,$8,$9,0*
20,1,$1+$1,$8,$9,$2,$3,0*%
%AMFreePoly0*
4,1,6,1.000000,-1.000000,-1.000000,-1.000000,-1.000000,0.750000,-0.750000,1.000000,1.000000,1.000000,1.000000,-1.000000,1.000000,-1.000000,$1*%
G04 Aperture macros list end*
%ADD10RoundRect,0.062500X-0.287500X-0.062500X0.287500X-0.062500X0.287500X0.062500X-0.287500X0.062500X0*%
%ADD11RoundRect,0.062500X-0.062500X-0.287500X0.062500X-0.287500X0.062500X0.287500X-0.062500X0.287500X0*%
%ADD12FreePoly0,0.000000*%
%ADD13C,0.800000*%
%ADD14C,1.250000*%
%ADD15R,5.490000X5.000000*%
%ADD16C,1.500000*%
%ADD17RoundRect,0.075000X-0.495000X0.075000X-0.495000X-0.075000X0.495000X-0.075000X0.495000X0.075000X0*%
%ADD18R,1.140000X0.600000*%
%ADD19RoundRect,0.200000X0.275000X-0.200000X0.275000X0.200000X-0.275000X0.200000X-0.275000X-0.200000X0*%
%ADD20RoundRect,0.225000X-0.250000X0.225000X-0.250000X-0.225000X0.250000X-0.225000X0.250000X0.225000X0*%
%ADD21RoundRect,0.200000X-0.275000X0.200000X-0.275000X-0.200000X0.275000X-0.200000X0.275000X0.200000X0*%
%ADD22R,0.500000X0.850000*%
%ADD23RoundRect,0.225000X0.225000X0.250000X-0.225000X0.250000X-0.225000X-0.250000X0.225000X-0.250000X0*%
%ADD24RoundRect,0.225000X0.250000X-0.225000X0.250000X0.225000X-0.250000X0.225000X-0.250000X-0.225000X0*%
%ADD25RoundRect,0.137500X0.262500X0.137500X-0.262500X0.137500X-0.262500X-0.137500X0.262500X-0.137500X0*%
%ADD26R,2.000000X0.640000*%
%ADD27R,0.650000X0.400000*%
%ADD28RoundRect,0.150000X-0.150000X0.587500X-0.150000X-0.587500X0.150000X-0.587500X0.150000X0.587500X0*%
%ADD29RoundRect,0.250000X-0.600000X-0.675000X0.600000X-0.675000X0.600000X0.675000X-0.600000X0.675000X0*%
%ADD30O,1.700000X1.850000*%
%ADD31RoundRect,0.247500X0.627500X-0.315000X0.627500X0.315000X-0.627500X0.315000X-0.627500X-0.315000X0*%
%ADD32RoundRect,0.256250X0.443750X-0.256250X0.443750X0.256250X-0.443750X0.256250X-0.443750X-0.256250X0*%
%ADD33RoundRect,0.200000X0.200000X0.275000X-0.200000X0.275000X-0.200000X-0.275000X0.200000X-0.275000X0*%
%ADD34C,2.000000*%
%ADD35RoundRect,0.250000X-0.375000X-0.625000X0.375000X-0.625000X0.375000X0.625000X-0.375000X0.625000X0*%
%ADD36R,5.000000X5.000000*%
%ADD37R,0.900000X2.000000*%
%ADD38R,2.000000X0.900000*%
%ADD39RoundRect,0.200000X-0.200000X-0.275000X0.200000X-0.275000X0.200000X0.275000X-0.200000X0.275000X0*%
%ADD40R,1.100000X0.600000*%
%ADD41R,3.700000X1.425000*%
%ADD42RoundRect,0.250000X-0.250000X-0.475000X0.250000X-0.475000X0.250000X0.475000X-0.250000X0.475000X0*%
%ADD43RoundRect,0.249375X0.625625X-0.463125X0.625625X0.463125X-0.625625X0.463125X-0.625625X-0.463125X0*%
G04 APERTURE END LIST*
D10*
%TO.C,U1*%
X131850000Y-93650000D03*
X131850000Y-94150000D03*
X131850000Y-94650000D03*
X131850000Y-95150000D03*
X131850000Y-95650000D03*
D11*
X132750000Y-96550000D03*
X133250000Y-96550000D03*
X133750000Y-96550000D03*
X134250000Y-96550000D03*
X134750000Y-96550000D03*
D10*
X135650000Y-95650000D03*
X135650000Y-95150000D03*
X135650000Y-94650000D03*
X135650000Y-94150000D03*
X135650000Y-93650000D03*
D11*
X134750000Y-92750000D03*
X134250000Y-92750000D03*
X133750000Y-92750000D03*
X133250000Y-92750000D03*
X132750000Y-92750000D03*
D12*
X133750000Y-94650000D03*
%TD*%
D13*
%TO.C,J1*%
X125790000Y-101510000D03*
D14*
X122110000Y-108720000D03*
D15*
X122745000Y-104400000D03*
D13*
X125790000Y-107290000D03*
D16*
X126280000Y-108720000D03*
X126280000Y-100080000D03*
D14*
X122110000Y-100080000D03*
D17*
X126860000Y-102650000D03*
X126860000Y-103650000D03*
X126860000Y-105150000D03*
X126860000Y-106150000D03*
D18*
X126860000Y-106800000D03*
X126860000Y-107600000D03*
D17*
X126860000Y-105650000D03*
X126860000Y-104650000D03*
X126860000Y-104150000D03*
X126860000Y-103150000D03*
D18*
X126860000Y-102000000D03*
X126860000Y-101200000D03*
%TD*%
D19*
%TO.C,R6*%
X124800000Y-84975000D03*
X124800000Y-83325000D03*
%TD*%
D20*
%TO.C,C1*%
X130100000Y-99975000D03*
X130100000Y-98425000D03*
%TD*%
D19*
%TO.C,R8*%
X129100000Y-107625000D03*
X129100000Y-105975000D03*
%TD*%
%TO.C,R7*%
X129100000Y-102825000D03*
X129100000Y-101175000D03*
%TD*%
%TO.C,R9*%
X134300000Y-100025000D03*
X134300000Y-98375000D03*
%TD*%
D21*
%TO.C,R10*%
X132900000Y-98375000D03*
X132900000Y-100025000D03*
%TD*%
D22*
%TO.C,D1*%
X122600000Y-83275000D03*
X122600000Y-85025000D03*
X121600000Y-85025000D03*
X121600000Y-83275000D03*
%TD*%
D19*
%TO.C,R4*%
X123600000Y-84975000D03*
X123600000Y-83325000D03*
%TD*%
%TO.C,R5*%
X126000000Y-84975000D03*
X126000000Y-83325000D03*
%TD*%
D23*
%TO.C,C4*%
X128300000Y-110800000D03*
X126750000Y-110800000D03*
%TD*%
D24*
%TO.C,C2*%
X135700000Y-99975000D03*
X135700000Y-98425000D03*
%TD*%
%TO.C,C3*%
X131500000Y-99975000D03*
X131500000Y-98425000D03*
%TD*%
D25*
%TO.C,U4*%
X145950000Y-110350000D03*
X145950000Y-109400000D03*
X145950000Y-108450000D03*
X143550000Y-108450000D03*
X143550000Y-109400000D03*
X143550000Y-110350000D03*
%TD*%
%TO.C,U3*%
X135200000Y-110350000D03*
X135200000Y-109400000D03*
X135200000Y-108450000D03*
X132800000Y-108450000D03*
X132800000Y-109400000D03*
X132800000Y-110350000D03*
%TD*%
D19*
%TO.C,R1*%
X129800000Y-91625000D03*
X129800000Y-89975000D03*
%TD*%
D26*
%TO.C,U5*%
X141750000Y-103330000D03*
X141750000Y-105870000D03*
X148050000Y-105870000D03*
X148050000Y-103330000D03*
%TD*%
D27*
%TO.C,D2*%
X160950000Y-110050000D03*
X160950000Y-109400000D03*
X160950000Y-108750000D03*
X159050000Y-108750000D03*
X159050000Y-109400000D03*
X159050000Y-110050000D03*
%TD*%
D28*
%TO.C,Q1*%
X137750000Y-102662500D03*
X135850000Y-102662500D03*
X136800000Y-104537500D03*
%TD*%
D29*
%TO.C,J5*%
X130000000Y-113400000D03*
D30*
X132500000Y-113400000D03*
X135000000Y-113400000D03*
%TD*%
D31*
%TO.C,JP1*%
X131000000Y-110462500D03*
D32*
X131000000Y-109912500D03*
X131000000Y-108087500D03*
D31*
X131000000Y-107537500D03*
%TD*%
%TO.C,JP4*%
X139600000Y-106062500D03*
D32*
X139600000Y-105512500D03*
X139600000Y-103687500D03*
D31*
X139600000Y-103137500D03*
%TD*%
D33*
%TO.C,R12*%
X125325000Y-97250000D03*
X123675000Y-97250000D03*
%TD*%
D34*
%TO.C,SW1*%
X136750000Y-83650000D03*
X130250000Y-83650000D03*
X130250000Y-88150000D03*
X136750000Y-88150000D03*
%TD*%
D27*
%TO.C,D3*%
X150300000Y-108750000D03*
X150300000Y-109400000D03*
X150300000Y-110050000D03*
X152200000Y-110050000D03*
X152200000Y-109400000D03*
X152200000Y-108750000D03*
%TD*%
D21*
%TO.C,R2*%
X136900000Y-90775000D03*
X136900000Y-92425000D03*
%TD*%
D35*
%TO.C,D4*%
X122200000Y-110900000D03*
X125000000Y-110900000D03*
%TD*%
D29*
%TO.C,J6*%
X140000000Y-113400000D03*
D30*
X142500000Y-113400000D03*
X145000000Y-113400000D03*
%TD*%
D29*
%TO.C,J2*%
X122500000Y-113400000D03*
D30*
X125000000Y-113400000D03*
%TD*%
D32*
%TO.C,JP2*%
X141750000Y-109912500D03*
D31*
X141750000Y-110462500D03*
D32*
X141750000Y-108087500D03*
D31*
X141750000Y-107537500D03*
%TD*%
D36*
%TO.C,U2*%
X150005000Y-90750000D03*
D37*
X157505000Y-100250000D03*
X156235000Y-100250000D03*
X154965000Y-100250000D03*
X153695000Y-100250000D03*
X152425000Y-100250000D03*
X151155000Y-100250000D03*
X149885000Y-100250000D03*
X148615000Y-100250000D03*
X147345000Y-100250000D03*
X146075000Y-100250000D03*
X144805000Y-100250000D03*
X143535000Y-100250000D03*
X142265000Y-100250000D03*
X140995000Y-100250000D03*
D38*
X139995000Y-97465000D03*
X139995000Y-96195000D03*
X139995000Y-94925000D03*
X139995000Y-93655000D03*
X139995000Y-92385000D03*
X139995000Y-91115000D03*
X139995000Y-89845000D03*
X139995000Y-88575000D03*
X139995000Y-87305000D03*
X139995000Y-86035000D03*
D37*
X140995000Y-83250000D03*
X142265000Y-83250000D03*
X143535000Y-83250000D03*
X144805000Y-83250000D03*
X146075000Y-83250000D03*
X147345000Y-83250000D03*
X148615000Y-83250000D03*
X149885000Y-83250000D03*
X151155000Y-83250000D03*
X152425000Y-83250000D03*
X153695000Y-83250000D03*
X154965000Y-83250000D03*
X156235000Y-83250000D03*
X157505000Y-83250000D03*
%TD*%
D19*
%TO.C,R3*%
X138100000Y-92425000D03*
X138100000Y-90775000D03*
%TD*%
D39*
%TO.C,R11*%
X120850000Y-97250000D03*
X122500000Y-97250000D03*
%TD*%
D29*
%TO.C,J3*%
X157500000Y-113400000D03*
D30*
X160000000Y-113400000D03*
X162500000Y-113400000D03*
%TD*%
D29*
%TO.C,J4*%
X150000000Y-113400000D03*
D30*
X152500000Y-113400000D03*
%TD*%
D40*
%TO.C,U6*%
X122000000Y-94100000D03*
D41*
X123400000Y-87750000D03*
D42*
X125950000Y-87750000D03*
D43*
X126520000Y-89387500D03*
D42*
X127850000Y-94000000D03*
D40*
X122000000Y-93150000D03*
D42*
X127850000Y-87750000D03*
D40*
X124700000Y-93150000D03*
D42*
X125950000Y-94000000D03*
D40*
X124700000Y-94100000D03*
D41*
X123400000Y-90750000D03*
D43*
X126520000Y-92352500D03*
D40*
X122000000Y-92200000D03*
D23*
X122825000Y-95250000D03*
D40*
X124700000Y-92200000D03*
D23*
X124375000Y-95250000D03*
%TD*%
M02*
