%TF.GenerationSoftware,KiCad,Pcbnew,(6.0.1-0)*%
%TF.CreationDate,2022-01-23T16:01:29+00:00*%
%TF.ProjectId,ASR33,41535233-332e-46b6-9963-61645f706362,6*%
%TF.SameCoordinates,Original*%
%TF.FileFunction,Copper,L2,Bot*%
%TF.FilePolarity,Positive*%
%FSLAX46Y46*%
G04 Gerber Fmt 4.6, Leading zero omitted, Abs format (unit mm)*
G04 Created by KiCad (PCBNEW (6.0.1-0)) date 2022-01-23 16:01:29*
%MOMM*%
%LPD*%
G01*
G04 APERTURE LIST*
G04 Aperture macros list*
%AMRoundRect*
0 Rectangle with rounded corners*
0 $1 Rounding radius*
0 $2 $3 $4 $5 $6 $7 $8 $9 X,Y pos of 4 corners*
0 Add a 4 corners polygon primitive as box body*
4,1,4,$2,$3,$4,$5,$6,$7,$8,$9,$2,$3,0*
0 Add four circle primitives for the rounded corners*
1,1,$1+$1,$2,$3*
1,1,$1+$1,$4,$5*
1,1,$1+$1,$6,$7*
1,1,$1+$1,$8,$9*
0 Add four rect primitives between the rounded corners*
20,1,$1+$1,$2,$3,$4,$5,0*
20,1,$1+$1,$4,$5,$6,$7,0*
20,1,$1+$1,$6,$7,$8,$9,0*
20,1,$1+$1,$8,$9,$2,$3,0*%
G04 Aperture macros list end*
%TA.AperFunction,EtchedComponent*%
%ADD10C,0.250000*%
%TD*%
%TA.AperFunction,EtchedComponent*%
%ADD11C,0.080000*%
%TD*%
%TA.AperFunction,ComponentPad*%
%ADD12C,1.250000*%
%TD*%
%TA.AperFunction,ComponentPad*%
%ADD13C,1.500000*%
%TD*%
%TA.AperFunction,ComponentPad*%
%ADD14C,0.600000*%
%TD*%
%TA.AperFunction,ComponentPad*%
%ADD15C,0.350000*%
%TD*%
%TA.AperFunction,ComponentPad*%
%ADD16RoundRect,0.250000X-0.600000X-0.675000X0.600000X-0.675000X0.600000X0.675000X-0.600000X0.675000X0*%
%TD*%
%TA.AperFunction,ComponentPad*%
%ADD17O,1.700000X1.850000*%
%TD*%
%TA.AperFunction,ViaPad*%
%ADD18C,0.800000*%
%TD*%
%TA.AperFunction,Conductor*%
%ADD19C,0.250000*%
%TD*%
G04 APERTURE END LIST*
D10*
%TO.C,Logo1*%
X150000000Y-111000000D02*
X148200000Y-113100000D01*
X150000000Y-108900000D02*
X150000000Y-113100000D01*
D11*
X151600000Y-108900000D02*
X151500000Y-108900000D01*
X151600000Y-108900000D02*
X151600000Y-109200000D01*
X151600000Y-109060000D02*
X151500000Y-109060000D01*
D10*
X150000000Y-111000000D02*
X151500000Y-111000000D01*
D11*
X151500000Y-109060000D02*
X151400000Y-109200000D01*
D10*
X150000000Y-108900000D02*
X153000000Y-113100000D01*
X148200000Y-109000000D02*
X150000000Y-111000000D01*
X150000000Y-113100000D02*
G75*
G03*
X151500000Y-113100000I750000J0D01*
G01*
D11*
X151500000Y-108900000D02*
G75*
G03*
X151500000Y-109060000I0J-80000D01*
G01*
X151820000Y-109060000D02*
G75*
G03*
X151820000Y-109060000I-300000J0D01*
G01*
%TD*%
D12*
%TO.P,J1,S1,SHIELD*%
%TO.N,GND*%
X127820000Y-140890000D03*
X119180000Y-140890000D03*
D13*
X127820000Y-136720000D03*
D14*
X126390000Y-137210000D03*
D13*
X119180000Y-136720000D03*
D14*
X120610000Y-137210000D03*
%TD*%
D15*
%TO.P,U2,21,GND*%
%TO.N,GND*%
X127200000Y-126300000D03*
%TD*%
D16*
%TO.P,J3,1,Pin_1*%
%TO.N,GND*%
X145105000Y-136400000D03*
D17*
%TO.P,J3,2,Pin_2*%
%TO.N,POWER*%
X147605000Y-136400000D03*
%TO.P,J3,3,Pin_3*%
%TO.N,MOTOR*%
X150105000Y-136400000D03*
%TD*%
D16*
%TO.P,J2,1,Pin_1*%
%TO.N,GND*%
X155050000Y-136400000D03*
D17*
%TO.P,J2,2,Pin_2*%
%TO.N,START*%
X157550000Y-136400000D03*
%TD*%
D16*
%TO.P,J4,1,Pin_1*%
%TO.N,GND*%
X132650000Y-136400000D03*
D17*
%TO.P,J4,2,Pin_2*%
%TO.N,Net-(J4-Pad2)*%
X135150000Y-136400000D03*
%TO.P,J4,3,Pin_3*%
%TO.N,RX20MA*%
X137650000Y-136400000D03*
%TO.P,J4,4,Pin_4*%
%TO.N,Net-(J4-Pad4)*%
X140150000Y-136400000D03*
%TD*%
D18*
%TO.N,GND*%
X148700000Y-134900000D03*
X138700000Y-129600000D03*
X145400000Y-116500000D03*
X119100000Y-113700000D03*
X127000000Y-131100000D03*
X125600000Y-118000000D03*
X141700000Y-129600000D03*
X151700000Y-129900000D03*
X133700000Y-130400000D03*
%TO.N,+3V3*%
X149800000Y-129900000D03*
X151500000Y-116300000D03*
X146700000Y-113400498D03*
X126900000Y-113300000D03*
%TO.N,VBUS*%
X132900000Y-134300000D03*
X138500000Y-133000000D03*
%TO.N,Net-(C1-Pad1)*%
X122000000Y-126900000D03*
X129300000Y-128400000D03*
%TO.N,RX20MA*%
X142300000Y-133500000D03*
X151000000Y-133500000D03*
%TO.N,O*%
X149000000Y-124400000D03*
X124400000Y-125100000D03*
%TO.N,I*%
X128019466Y-123432533D03*
X147800000Y-124300000D03*
%TO.N,EN*%
X126300000Y-123300000D03*
X150300000Y-115000000D03*
%TO.N,GPIO0*%
X128700000Y-122300000D03*
X136979502Y-123100000D03*
%TO.N,CHARGER*%
X131100000Y-127200000D03*
X141400000Y-127700000D03*
%TO.N,USB*%
X140200000Y-127700000D03*
X131600000Y-126000000D03*
%TO.N,R*%
X144000000Y-110700000D03*
X122600000Y-109100000D03*
%TO.N,G*%
X127100000Y-110300000D03*
X141500000Y-112300000D03*
%TO.N,B*%
X128800000Y-109700000D03*
X142800000Y-111600000D03*
%TO.N,Net-(C3-Pad1)*%
X124900000Y-130500000D03*
X123097807Y-130486523D03*
%TD*%
D19*
%TO.N,R*%
X129600000Y-109600000D02*
G75*
G03*
X128975499Y-108975499I-624501J0D01*
G01*
X144000000Y-110700000D02*
G75*
G03*
X143300000Y-110000000I-699999J1D01*
G01*
X130000000Y-110000000D02*
G75*
G02*
X129600000Y-109600000I-1J399999D01*
G01*
X122600000Y-109100000D02*
X122724501Y-108975499D01*
X122724501Y-108975499D02*
X128975499Y-108975499D01*
X130000000Y-110000000D02*
X143300000Y-110000000D01*
%TO.N,B*%
X128800000Y-109700000D02*
X128800000Y-110000000D01*
X142800000Y-111600000D02*
G75*
G03*
X141700000Y-110500000I-1100002J-2D01*
G01*
X129300000Y-110500000D02*
G75*
G02*
X128800000Y-110000000I1J500001D01*
G01*
X129300000Y-110500000D02*
X141700000Y-110500000D01*
%TO.N,G*%
X127800000Y-111000000D02*
G75*
G02*
X127100000Y-110300000I-1J699999D01*
G01*
X141500000Y-111600000D02*
G75*
G03*
X140900000Y-111000000I-600000J0D01*
G01*
X127800000Y-111000000D02*
X140900000Y-111000000D01*
X141500000Y-111600000D02*
X141500000Y-112300000D01*
%TO.N,+3V3*%
X126900000Y-113300000D02*
X146599502Y-113300000D01*
X149800000Y-129900000D02*
X149800000Y-118000000D01*
X146700000Y-113400498D02*
G75*
G03*
X146599502Y-113300000I-100497J1D01*
G01*
X151500000Y-116300000D02*
G75*
G03*
X149800000Y-118000000I-2J-1699998D01*
G01*
%TO.N,VBUS*%
X138500000Y-133000000D02*
X134200000Y-133000000D01*
X132900000Y-134300000D02*
G75*
G02*
X134200000Y-133000000I1299999J1D01*
G01*
%TO.N,Net-(C1-Pad1)*%
X129300000Y-128400000D02*
X123500000Y-128400000D01*
X122000000Y-126900000D02*
G75*
G03*
X123500000Y-128400000I1500001J1D01*
G01*
%TO.N,RX20MA*%
X151000000Y-133500000D02*
X142300000Y-133500000D01*
%TO.N,O*%
X124400000Y-125100000D02*
X148300000Y-125100000D01*
X149000000Y-124400000D02*
G75*
G02*
X148300000Y-125100000I-699999J-1D01*
G01*
%TO.N,I*%
X128019466Y-123432533D02*
X128019466Y-123719466D01*
X128900000Y-124600000D02*
X147500000Y-124600000D01*
X147800000Y-124300000D02*
G75*
G02*
X147500000Y-124600000I-300000J0D01*
G01*
X128900000Y-124600000D02*
G75*
G02*
X128019466Y-123719466I-1J880533D01*
G01*
%TO.N,EN*%
X148700000Y-115000000D02*
X150300000Y-115000000D01*
X126300000Y-123300000D02*
X126300000Y-122500000D01*
X128200000Y-120600000D02*
X143100000Y-120600000D01*
X128200000Y-120600000D02*
G75*
G03*
X126300000Y-122500000I0J-1900000D01*
G01*
X147000000Y-116700000D02*
G75*
G02*
X143100000Y-120600000I-3900002J2D01*
G01*
X148700000Y-115000000D02*
G75*
G03*
X147000000Y-116700000I-2J-1699998D01*
G01*
%TO.N,GPIO0*%
X128700000Y-122300000D02*
X136179502Y-122300000D01*
X136979502Y-123100000D02*
G75*
G03*
X136179502Y-122300000I-800001J-1D01*
G01*
%TO.N,CHARGER*%
X140100000Y-128600000D02*
X140600000Y-128600000D01*
X141400000Y-127800000D02*
X141400000Y-127700000D01*
X131100000Y-127200000D02*
X138700000Y-127200000D01*
X141400000Y-127800000D02*
G75*
G02*
X140600000Y-128600000I-800001J1D01*
G01*
X140100000Y-128600000D02*
G75*
G02*
X139300000Y-127800000I1J800001D01*
G01*
X139300000Y-127800000D02*
G75*
G03*
X138700000Y-127200000I-600000J0D01*
G01*
%TO.N,USB*%
X132300000Y-126700000D02*
X139200000Y-126700000D01*
X140200000Y-127700000D02*
G75*
G03*
X139200000Y-126700000I-999999J1D01*
G01*
X132300000Y-126700000D02*
G75*
G02*
X131600000Y-126000000I-1J699999D01*
G01*
%TO.N,Net-(C3-Pad1)*%
X124900000Y-130500000D02*
X123111284Y-130500000D01*
X123097807Y-130486523D02*
G75*
G03*
X123111284Y-130500000I13476J-1D01*
G01*
%TD*%
%TA.AperFunction,Conductor*%
%TO.N,GND*%
G36*
X122361290Y-108274002D02*
G01*
X122407783Y-108327658D01*
X122417887Y-108397932D01*
X122388393Y-108462512D01*
X122350960Y-108491965D01*
X122229414Y-108554700D01*
X122110039Y-108658838D01*
X122018950Y-108788444D01*
X122005868Y-108821998D01*
X121980343Y-108887467D01*
X121961406Y-108936037D01*
X121960414Y-108943570D01*
X121960414Y-108943571D01*
X121958021Y-108961752D01*
X121940729Y-109093096D01*
X121949421Y-109171825D01*
X121956323Y-109234338D01*
X121958113Y-109250553D01*
X121960723Y-109257684D01*
X121960723Y-109257686D01*
X122001911Y-109370237D01*
X122012553Y-109399319D01*
X122016789Y-109405622D01*
X122016789Y-109405623D01*
X122083892Y-109505482D01*
X122100908Y-109530805D01*
X122106527Y-109535918D01*
X122106528Y-109535919D01*
X122202188Y-109622962D01*
X122218076Y-109637419D01*
X122357293Y-109713008D01*
X122510522Y-109753207D01*
X122594477Y-109754526D01*
X122661319Y-109755576D01*
X122661322Y-109755576D01*
X122668916Y-109755695D01*
X122823332Y-109720329D01*
X122902979Y-109680271D01*
X122958072Y-109652563D01*
X122958075Y-109652561D01*
X122964855Y-109649151D01*
X122970626Y-109644222D01*
X122970629Y-109644220D01*
X123079536Y-109551204D01*
X123079536Y-109551203D01*
X123085314Y-109546269D01*
X123177755Y-109417624D01*
X123177857Y-109417697D01*
X123225592Y-109370237D01*
X123285658Y-109354999D01*
X128047626Y-109354999D01*
X128115747Y-109375001D01*
X128162240Y-109428657D01*
X128172344Y-109498931D01*
X128165021Y-109526764D01*
X128161406Y-109536037D01*
X128160414Y-109543570D01*
X128160414Y-109543571D01*
X128141726Y-109685524D01*
X128140729Y-109693096D01*
X128158113Y-109850553D01*
X128160723Y-109857684D01*
X128160723Y-109857686D01*
X128206299Y-109982228D01*
X128212553Y-109999319D01*
X128216789Y-110005622D01*
X128216789Y-110005623D01*
X128269782Y-110084484D01*
X128300908Y-110130805D01*
X128306527Y-110135918D01*
X128306528Y-110135919D01*
X128337020Y-110163664D01*
X128418076Y-110237419D01*
X128424749Y-110241042D01*
X128427006Y-110242646D01*
X128470946Y-110298411D01*
X128474586Y-110308762D01*
X128483516Y-110338199D01*
X128486432Y-110343654D01*
X128486433Y-110343657D01*
X128535313Y-110435104D01*
X128549785Y-110504610D01*
X128524381Y-110570906D01*
X128467168Y-110612944D01*
X128424191Y-110620500D01*
X127859949Y-110620500D01*
X127791828Y-110600498D01*
X127745335Y-110546842D01*
X127735231Y-110476568D01*
X127736035Y-110472647D01*
X127736842Y-110470641D01*
X127738148Y-110461468D01*
X127758581Y-110317891D01*
X127758581Y-110317888D01*
X127759162Y-110313807D01*
X127759307Y-110300000D01*
X127740276Y-110142733D01*
X127684280Y-109994546D01*
X127594553Y-109863992D01*
X127476275Y-109758611D01*
X127468889Y-109754700D01*
X127383304Y-109709385D01*
X127336274Y-109684484D01*
X127182633Y-109645892D01*
X127175034Y-109645852D01*
X127175033Y-109645852D01*
X127109181Y-109645507D01*
X127024221Y-109645062D01*
X127016841Y-109646834D01*
X127016839Y-109646834D01*
X126877563Y-109680271D01*
X126877560Y-109680272D01*
X126870184Y-109682043D01*
X126729414Y-109754700D01*
X126610039Y-109858838D01*
X126518950Y-109988444D01*
X126511337Y-110007971D01*
X126467464Y-110120500D01*
X126461406Y-110136037D01*
X126460414Y-110143570D01*
X126460414Y-110143571D01*
X126443737Y-110270251D01*
X126440729Y-110293096D01*
X126445055Y-110332279D01*
X126454935Y-110421764D01*
X126458113Y-110450553D01*
X126460723Y-110457684D01*
X126460723Y-110457686D01*
X126497375Y-110557842D01*
X126512553Y-110599319D01*
X126516789Y-110605622D01*
X126516789Y-110605623D01*
X126575569Y-110693096D01*
X126600908Y-110730805D01*
X126606527Y-110735918D01*
X126606528Y-110735919D01*
X126679187Y-110802033D01*
X126718076Y-110837419D01*
X126857293Y-110913008D01*
X126864634Y-110914934D01*
X126864642Y-110914937D01*
X126878864Y-110918668D01*
X126939679Y-110955302D01*
X126950101Y-110968271D01*
X126960992Y-110983824D01*
X126969896Y-110996540D01*
X127103460Y-111130104D01*
X127107968Y-111133261D01*
X127107971Y-111133263D01*
X127126546Y-111146269D01*
X127258188Y-111238446D01*
X127263170Y-111240769D01*
X127263175Y-111240772D01*
X127418086Y-111313008D01*
X127429379Y-111318274D01*
X127434687Y-111319696D01*
X127434689Y-111319697D01*
X127437048Y-111320329D01*
X127611831Y-111367162D01*
X127724723Y-111377038D01*
X127730842Y-111377961D01*
X127733851Y-111379018D01*
X127739416Y-111379500D01*
X127747356Y-111379500D01*
X127758335Y-111379979D01*
X127772375Y-111381207D01*
X127787059Y-111382492D01*
X127788592Y-111382680D01*
X127789211Y-111382680D01*
X127791440Y-111382875D01*
X127800001Y-111384231D01*
X127820079Y-111381051D01*
X127839789Y-111379500D01*
X140860212Y-111379500D01*
X140879923Y-111381051D01*
X140890206Y-111382680D01*
X140890207Y-111382680D01*
X140900000Y-111384231D01*
X140909797Y-111382679D01*
X140910152Y-111382679D01*
X140929868Y-111384231D01*
X140948429Y-111387171D01*
X140985921Y-111399353D01*
X141011829Y-111412554D01*
X141043720Y-111435725D01*
X141064275Y-111456280D01*
X141087446Y-111488171D01*
X141100647Y-111514079D01*
X141112829Y-111551571D01*
X141115769Y-111570132D01*
X141117321Y-111589848D01*
X141117321Y-111590203D01*
X141115769Y-111600000D01*
X141117320Y-111609792D01*
X141117320Y-111609794D01*
X141118949Y-111620077D01*
X141120500Y-111639788D01*
X141120500Y-111705187D01*
X141100498Y-111773308D01*
X141077330Y-111800135D01*
X141010039Y-111858838D01*
X140918950Y-111988444D01*
X140861406Y-112136037D01*
X140860414Y-112143570D01*
X140860414Y-112143571D01*
X140842174Y-112282122D01*
X140840729Y-112293096D01*
X140858113Y-112450553D01*
X140912553Y-112599319D01*
X140916788Y-112605622D01*
X140916792Y-112605629D01*
X140996485Y-112724224D01*
X141017878Y-112791921D01*
X140999274Y-112860437D01*
X140946581Y-112908018D01*
X140891904Y-112920500D01*
X127499682Y-112920500D01*
X127431561Y-112900498D01*
X127405114Y-112874860D01*
X127403878Y-112875949D01*
X127398855Y-112870251D01*
X127394553Y-112863992D01*
X127380774Y-112851715D01*
X127318882Y-112796572D01*
X127276275Y-112758611D01*
X127268889Y-112754700D01*
X127223759Y-112730805D01*
X127136274Y-112684484D01*
X126982633Y-112645892D01*
X126975034Y-112645852D01*
X126975033Y-112645852D01*
X126909181Y-112645507D01*
X126824221Y-112645062D01*
X126816841Y-112646834D01*
X126816839Y-112646834D01*
X126677563Y-112680271D01*
X126677560Y-112680272D01*
X126670184Y-112682043D01*
X126529414Y-112754700D01*
X126410039Y-112858838D01*
X126318950Y-112988444D01*
X126316190Y-112995524D01*
X126269361Y-113115634D01*
X126261406Y-113136037D01*
X126260414Y-113143570D01*
X126260414Y-113143571D01*
X126247294Y-113243231D01*
X126240729Y-113293096D01*
X126246093Y-113341679D01*
X126256669Y-113437473D01*
X126258113Y-113450553D01*
X126260723Y-113457684D01*
X126260723Y-113457686D01*
X126302241Y-113571139D01*
X126312553Y-113599319D01*
X126316789Y-113605622D01*
X126316789Y-113605623D01*
X126360832Y-113671165D01*
X126400908Y-113730805D01*
X126406527Y-113735918D01*
X126406528Y-113735919D01*
X126512460Y-113832309D01*
X126518076Y-113837419D01*
X126657293Y-113913008D01*
X126810522Y-113953207D01*
X126894477Y-113954526D01*
X126961319Y-113955576D01*
X126961322Y-113955576D01*
X126968916Y-113955695D01*
X127123332Y-113920329D01*
X127193742Y-113884917D01*
X127258072Y-113852563D01*
X127258075Y-113852561D01*
X127264855Y-113849151D01*
X127270626Y-113844222D01*
X127270629Y-113844220D01*
X127379542Y-113751199D01*
X127379543Y-113751198D01*
X127385314Y-113746269D01*
X127395586Y-113731974D01*
X127451581Y-113688326D01*
X127497909Y-113679500D01*
X146031764Y-113679500D01*
X146099885Y-113699502D01*
X146136345Y-113735223D01*
X146200908Y-113831303D01*
X146206527Y-113836416D01*
X146206528Y-113836417D01*
X146290701Y-113913008D01*
X146318076Y-113937917D01*
X146457293Y-114013506D01*
X146610522Y-114053705D01*
X146694477Y-114055024D01*
X146761319Y-114056074D01*
X146761322Y-114056074D01*
X146768916Y-114056193D01*
X146923332Y-114020827D01*
X147028034Y-113968168D01*
X147058072Y-113953061D01*
X147058075Y-113953059D01*
X147064855Y-113949649D01*
X147070626Y-113944720D01*
X147070629Y-113944718D01*
X147179536Y-113851702D01*
X147179536Y-113851701D01*
X147185314Y-113846767D01*
X147277755Y-113718122D01*
X147336842Y-113571139D01*
X147351655Y-113467055D01*
X147358581Y-113418389D01*
X147358581Y-113418386D01*
X147359162Y-113414305D01*
X147359307Y-113400498D01*
X147340276Y-113243231D01*
X147284280Y-113095044D01*
X147256704Y-113054920D01*
X147198855Y-112970749D01*
X147198854Y-112970747D01*
X147194553Y-112964490D01*
X147076275Y-112859109D01*
X147068889Y-112855198D01*
X147030565Y-112834907D01*
X146936274Y-112784982D01*
X146782633Y-112746390D01*
X146775034Y-112746350D01*
X146775033Y-112746350D01*
X146709181Y-112746005D01*
X146624221Y-112745560D01*
X146616841Y-112747332D01*
X146616839Y-112747332D01*
X146477563Y-112780769D01*
X146477560Y-112780770D01*
X146470184Y-112782541D01*
X146329414Y-112855198D01*
X146323692Y-112860190D01*
X146323690Y-112860191D01*
X146290151Y-112889449D01*
X146225669Y-112919157D01*
X146207322Y-112920500D01*
X142105812Y-112920500D01*
X142037691Y-112900498D01*
X141991198Y-112846842D01*
X141981094Y-112776568D01*
X142003489Y-112720976D01*
X142077755Y-112617624D01*
X142136842Y-112470641D01*
X142159162Y-112313807D01*
X142159307Y-112300000D01*
X142145881Y-112189053D01*
X142157554Y-112119024D01*
X142205235Y-112066422D01*
X142273787Y-112047949D01*
X142341443Y-112069469D01*
X142355767Y-112080723D01*
X142397860Y-112119024D01*
X142418076Y-112137419D01*
X142557293Y-112213008D01*
X142710522Y-112253207D01*
X142794477Y-112254526D01*
X142861319Y-112255576D01*
X142861322Y-112255576D01*
X142868916Y-112255695D01*
X143023332Y-112220329D01*
X143093742Y-112184917D01*
X143158072Y-112152563D01*
X143158075Y-112152561D01*
X143164855Y-112149151D01*
X143170626Y-112144222D01*
X143170629Y-112144220D01*
X143279536Y-112051204D01*
X143279536Y-112051203D01*
X143285314Y-112046269D01*
X143377755Y-111917624D01*
X143436842Y-111770641D01*
X143446185Y-111704989D01*
X143458581Y-111617891D01*
X143458581Y-111617888D01*
X143459162Y-111613807D01*
X143459307Y-111600000D01*
X143458079Y-111589848D01*
X143453447Y-111551571D01*
X143440276Y-111442733D01*
X143414386Y-111374218D01*
X143409018Y-111303425D01*
X143442775Y-111240967D01*
X143504941Y-111206675D01*
X143575778Y-111211437D01*
X143605255Y-111229330D01*
X143606266Y-111227907D01*
X143612460Y-111232308D01*
X143618076Y-111237419D01*
X143757293Y-111313008D01*
X143910522Y-111353207D01*
X143994477Y-111354526D01*
X144061319Y-111355576D01*
X144061322Y-111355576D01*
X144068916Y-111355695D01*
X144223332Y-111320329D01*
X144325348Y-111269021D01*
X144358072Y-111252563D01*
X144358075Y-111252561D01*
X144364855Y-111249151D01*
X144370626Y-111244222D01*
X144370629Y-111244220D01*
X144479536Y-111151204D01*
X144479536Y-111151203D01*
X144485314Y-111146269D01*
X144577755Y-111017624D01*
X144636842Y-110870641D01*
X144656015Y-110735919D01*
X144658581Y-110717891D01*
X144658581Y-110717888D01*
X144659162Y-110713807D01*
X144659307Y-110700000D01*
X144640276Y-110542733D01*
X144584280Y-110394546D01*
X144561376Y-110361220D01*
X144498855Y-110270251D01*
X144498854Y-110270249D01*
X144494553Y-110263992D01*
X144376275Y-110158611D01*
X144347870Y-110143571D01*
X144242988Y-110088039D01*
X144242989Y-110088039D01*
X144236274Y-110084484D01*
X144228911Y-110082635D01*
X144228902Y-110082631D01*
X144221854Y-110080861D01*
X144160659Y-110044866D01*
X144149338Y-110030929D01*
X144133263Y-110007971D01*
X144133261Y-110007968D01*
X144130104Y-110003460D01*
X143996540Y-109869896D01*
X143992032Y-109866739D01*
X143992029Y-109866737D01*
X143867034Y-109779215D01*
X143841812Y-109761554D01*
X143836830Y-109759231D01*
X143836825Y-109759228D01*
X143675603Y-109684049D01*
X143675601Y-109684048D01*
X143670621Y-109681726D01*
X143665313Y-109680304D01*
X143665311Y-109680303D01*
X143586277Y-109659126D01*
X143488169Y-109632838D01*
X143375277Y-109622962D01*
X143369158Y-109622039D01*
X143366149Y-109620982D01*
X143360584Y-109620500D01*
X143352644Y-109620500D01*
X143341665Y-109620021D01*
X143327625Y-109618793D01*
X143312941Y-109617508D01*
X143311408Y-109617320D01*
X143310789Y-109617320D01*
X143308560Y-109617125D01*
X143299999Y-109615769D01*
X143279922Y-109618949D01*
X143260211Y-109620500D01*
X130100587Y-109620500D01*
X130032466Y-109600498D01*
X129985973Y-109546842D01*
X129975066Y-109505482D01*
X129968503Y-109430470D01*
X129968024Y-109424991D01*
X129922555Y-109255300D01*
X129916821Y-109243003D01*
X129850637Y-109101069D01*
X129850634Y-109101064D01*
X129848311Y-109096082D01*
X129761529Y-108972145D01*
X129750705Y-108956687D01*
X129750703Y-108956685D01*
X129747546Y-108952176D01*
X129623323Y-108827953D01*
X129614819Y-108821998D01*
X129537798Y-108768067D01*
X129479417Y-108727188D01*
X129474435Y-108724865D01*
X129474430Y-108724862D01*
X129325181Y-108655267D01*
X129325180Y-108655267D01*
X129320199Y-108652944D01*
X129314891Y-108651522D01*
X129314889Y-108651521D01*
X129228753Y-108628441D01*
X129150508Y-108607475D01*
X129053042Y-108598948D01*
X129045385Y-108597793D01*
X129041648Y-108596481D01*
X129036083Y-108595999D01*
X129024836Y-108595999D01*
X129013853Y-108595519D01*
X128992516Y-108593652D01*
X128985735Y-108592820D01*
X128985295Y-108592820D01*
X128975499Y-108591268D01*
X128965706Y-108592819D01*
X128965705Y-108592819D01*
X128955422Y-108594448D01*
X128935711Y-108595999D01*
X123066227Y-108595999D01*
X122998106Y-108575997D01*
X122982410Y-108564077D01*
X122981951Y-108563668D01*
X122976275Y-108558611D01*
X122969559Y-108555055D01*
X122969556Y-108555053D01*
X122849249Y-108491354D01*
X122798406Y-108441801D01*
X122782424Y-108372627D01*
X122806378Y-108305793D01*
X122862662Y-108262520D01*
X122908208Y-108254000D01*
X151280214Y-108254000D01*
X151348335Y-108274002D01*
X151394828Y-108327658D01*
X151404932Y-108397932D01*
X151375438Y-108462512D01*
X151328432Y-108496409D01*
X151220437Y-108541142D01*
X151150967Y-108594448D01*
X151112478Y-108623982D01*
X151096354Y-108636354D01*
X151001142Y-108760437D01*
X150941289Y-108904935D01*
X150920874Y-109060000D01*
X150921952Y-109068188D01*
X150921952Y-109068189D01*
X150932019Y-109144656D01*
X150921080Y-109214805D01*
X150873952Y-109267903D01*
X150805598Y-109287093D01*
X150737720Y-109266282D01*
X150704567Y-109234338D01*
X150602593Y-109091574D01*
X150326966Y-108705697D01*
X150318609Y-108692294D01*
X150308556Y-108673663D01*
X150303610Y-108664496D01*
X150289574Y-108651521D01*
X150264606Y-108628441D01*
X150261021Y-108624992D01*
X150230834Y-108594792D01*
X150230830Y-108594789D01*
X150223470Y-108587426D01*
X150216585Y-108584051D01*
X150210957Y-108578849D01*
X150162355Y-108557362D01*
X150157921Y-108555297D01*
X150110174Y-108531893D01*
X150102568Y-108530930D01*
X150095557Y-108527831D01*
X150050519Y-108523930D01*
X150042643Y-108523248D01*
X150037695Y-108522721D01*
X150033904Y-108522241D01*
X149984998Y-108516052D01*
X149977492Y-108517605D01*
X149969853Y-108516943D01*
X149959745Y-108519454D01*
X149959743Y-108519454D01*
X149918298Y-108529749D01*
X149913448Y-108530853D01*
X149861439Y-108541612D01*
X149854840Y-108545513D01*
X149847399Y-108547361D01*
X149828307Y-108559689D01*
X149802772Y-108576177D01*
X149798537Y-108578794D01*
X149761785Y-108600517D01*
X149761783Y-108600519D01*
X149752821Y-108605816D01*
X149747840Y-108611645D01*
X149741401Y-108615803D01*
X149734954Y-108623981D01*
X149734953Y-108623982D01*
X149708521Y-108657512D01*
X149705368Y-108661353D01*
X149670856Y-108701743D01*
X149668032Y-108708871D01*
X149663287Y-108714890D01*
X149659836Y-108724717D01*
X149645693Y-108764991D01*
X149643955Y-108769646D01*
X149624383Y-108819047D01*
X149624020Y-108826708D01*
X149621481Y-108833938D01*
X149621000Y-108839491D01*
X149621000Y-108887467D01*
X149620859Y-108893430D01*
X149618412Y-108945080D01*
X149620570Y-108952512D01*
X149621000Y-108959827D01*
X149621000Y-109683991D01*
X149600998Y-109752112D01*
X149547342Y-109798605D01*
X149477068Y-109808709D01*
X149412488Y-109779215D01*
X149401345Y-109768281D01*
X149389911Y-109755576D01*
X148652325Y-108936037D01*
X148464119Y-108726919D01*
X148464118Y-108726918D01*
X148460644Y-108723058D01*
X148442849Y-108708871D01*
X148395090Y-108670796D01*
X148395088Y-108670795D01*
X148386945Y-108664303D01*
X148268128Y-108621847D01*
X148257716Y-108621708D01*
X148257714Y-108621708D01*
X148205046Y-108621007D01*
X148141964Y-108620168D01*
X148022059Y-108659445D01*
X148013746Y-108665717D01*
X148013747Y-108665717D01*
X147929653Y-108729170D01*
X147929652Y-108729171D01*
X147921340Y-108735443D01*
X147915507Y-108744071D01*
X147858795Y-108827953D01*
X147850670Y-108839970D01*
X147847946Y-108850022D01*
X147847945Y-108850024D01*
X147824636Y-108936037D01*
X147817667Y-108961752D01*
X147825891Y-109087658D01*
X147874456Y-109204112D01*
X147877813Y-109208562D01*
X149421564Y-110923841D01*
X149452266Y-110987854D01*
X149443486Y-111058305D01*
X149423574Y-111090129D01*
X147900164Y-112867442D01*
X147891750Y-112877258D01*
X147842992Y-112957920D01*
X147840783Y-112968091D01*
X147840783Y-112968092D01*
X147829605Y-113019571D01*
X147816218Y-113081221D01*
X147817423Y-113091559D01*
X147817423Y-113091560D01*
X147828501Y-113186591D01*
X147830827Y-113206547D01*
X147837737Y-113221002D01*
X147880752Y-113310990D01*
X147880754Y-113310992D01*
X147885243Y-113320384D01*
X147973599Y-113410458D01*
X148086369Y-113467055D01*
X148211390Y-113484072D01*
X148221610Y-113482058D01*
X148221611Y-113482058D01*
X148324964Y-113461690D01*
X148335184Y-113459676D01*
X148350954Y-113450553D01*
X148437545Y-113400461D01*
X148437547Y-113400459D01*
X148444400Y-113396495D01*
X148448380Y-113392592D01*
X149399335Y-112283145D01*
X149458853Y-112244441D01*
X149529848Y-112244060D01*
X149589780Y-112282122D01*
X149619619Y-112346544D01*
X149621000Y-112365145D01*
X149621000Y-113060256D01*
X149619449Y-113079966D01*
X149616276Y-113100000D01*
X149617194Y-113105797D01*
X149633905Y-113296798D01*
X149661419Y-113399483D01*
X149679807Y-113468107D01*
X149685034Y-113487616D01*
X149687357Y-113492597D01*
X149687357Y-113492598D01*
X149766196Y-113661670D01*
X149766199Y-113661675D01*
X149768522Y-113666657D01*
X149881832Y-113828480D01*
X150021520Y-113968168D01*
X150183344Y-114081478D01*
X150188321Y-114083799D01*
X150188330Y-114083804D01*
X150243377Y-114109473D01*
X150296662Y-114156390D01*
X150316122Y-114224668D01*
X150295580Y-114292627D01*
X150241556Y-114338693D01*
X150219542Y-114346185D01*
X150177741Y-114356221D01*
X150077563Y-114380271D01*
X150077560Y-114380272D01*
X150070184Y-114382043D01*
X149929414Y-114454700D01*
X149810039Y-114558838D01*
X149805672Y-114565051D01*
X149805667Y-114565057D01*
X149804336Y-114566951D01*
X149803013Y-114568005D01*
X149800589Y-114570697D01*
X149800140Y-114570293D01*
X149748802Y-114611183D01*
X149701250Y-114620500D01*
X148739788Y-114620500D01*
X148720077Y-114618949D01*
X148709794Y-114617320D01*
X148709793Y-114617320D01*
X148700000Y-114615769D01*
X148697103Y-114616228D01*
X148611180Y-114621859D01*
X148432103Y-114633596D01*
X148432097Y-114633597D01*
X148427989Y-114633866D01*
X148339293Y-114651509D01*
X148164676Y-114686242D01*
X148164670Y-114686244D01*
X148160631Y-114687047D01*
X148156727Y-114688372D01*
X148156724Y-114688373D01*
X147906408Y-114773344D01*
X147902502Y-114774670D01*
X147786698Y-114831778D01*
X147661723Y-114893408D01*
X147661718Y-114893411D01*
X147658019Y-114895235D01*
X147654586Y-114897529D01*
X147434795Y-115044388D01*
X147434790Y-115044392D01*
X147431364Y-115046681D01*
X147428270Y-115049395D01*
X147428264Y-115049399D01*
X147229505Y-115223707D01*
X147226416Y-115226416D01*
X147223707Y-115229505D01*
X147049399Y-115428264D01*
X147049395Y-115428270D01*
X147046681Y-115431364D01*
X147044392Y-115434790D01*
X147044388Y-115434795D01*
X146971273Y-115544220D01*
X146895235Y-115658019D01*
X146774670Y-115902502D01*
X146773345Y-115906407D01*
X146773344Y-115906408D01*
X146693123Y-116142733D01*
X146687047Y-116160631D01*
X146686244Y-116164670D01*
X146686242Y-116164676D01*
X146634670Y-116423946D01*
X146633866Y-116427989D01*
X146633597Y-116432100D01*
X146633596Y-116432104D01*
X146627415Y-116526416D01*
X146616228Y-116697101D01*
X146615769Y-116700000D01*
X146617320Y-116709792D01*
X146617320Y-116709794D01*
X146617341Y-116709929D01*
X146618740Y-116735820D01*
X146614182Y-116828605D01*
X146607825Y-116958019D01*
X146603852Y-117038886D01*
X146602641Y-117051186D01*
X146579616Y-117206408D01*
X146553763Y-117380690D01*
X146551354Y-117392805D01*
X146470413Y-117715939D01*
X146466823Y-117727771D01*
X146354601Y-118041409D01*
X146349870Y-118052833D01*
X146207449Y-118353957D01*
X146201620Y-118364862D01*
X146030368Y-118650578D01*
X146023498Y-118660859D01*
X145825070Y-118928409D01*
X145817226Y-118937967D01*
X145593526Y-119184782D01*
X145584782Y-119193526D01*
X145337967Y-119417226D01*
X145328409Y-119425070D01*
X145060859Y-119623498D01*
X145050578Y-119630368D01*
X144764862Y-119801620D01*
X144753957Y-119807449D01*
X144452833Y-119949870D01*
X144441409Y-119954601D01*
X144127771Y-120066823D01*
X144115940Y-120070413D01*
X143792805Y-120151354D01*
X143780698Y-120153761D01*
X143451186Y-120202641D01*
X143438891Y-120203851D01*
X143294480Y-120210946D01*
X143135820Y-120218740D01*
X143109929Y-120217341D01*
X143109796Y-120217320D01*
X143109792Y-120217320D01*
X143100000Y-120215769D01*
X143079923Y-120218949D01*
X143060212Y-120220500D01*
X128239788Y-120220500D01*
X128220077Y-120218949D01*
X128200000Y-120215769D01*
X128194229Y-120216683D01*
X128186143Y-120217172D01*
X127928531Y-120232754D01*
X127928526Y-120232755D01*
X127924734Y-120232984D01*
X127653483Y-120282693D01*
X127390201Y-120364735D01*
X127386731Y-120366297D01*
X127386725Y-120366299D01*
X127264464Y-120421325D01*
X127138727Y-120477914D01*
X127135470Y-120479883D01*
X127135466Y-120479885D01*
X126905995Y-120618606D01*
X126902730Y-120620580D01*
X126685649Y-120790651D01*
X126490651Y-120985649D01*
X126320580Y-121202730D01*
X126318608Y-121205992D01*
X126318606Y-121205995D01*
X126309612Y-121220874D01*
X126177914Y-121438727D01*
X126148409Y-121504284D01*
X126068141Y-121682634D01*
X126064735Y-121690201D01*
X126063602Y-121693837D01*
X125993962Y-121917321D01*
X125982693Y-121953483D01*
X125932984Y-122224734D01*
X125932755Y-122228526D01*
X125932754Y-122228531D01*
X125917579Y-122479422D01*
X125916683Y-122494229D01*
X125915769Y-122500000D01*
X125917320Y-122509792D01*
X125918949Y-122520077D01*
X125920500Y-122539788D01*
X125920500Y-122705187D01*
X125900498Y-122773308D01*
X125877330Y-122800135D01*
X125810039Y-122858838D01*
X125718950Y-122988444D01*
X125690178Y-123062241D01*
X125664899Y-123127079D01*
X125661406Y-123136037D01*
X125660414Y-123143570D01*
X125660414Y-123143571D01*
X125642084Y-123282806D01*
X125640729Y-123293096D01*
X125649421Y-123371824D01*
X125656195Y-123433179D01*
X125658113Y-123450553D01*
X125660723Y-123457684D01*
X125660723Y-123457686D01*
X125706613Y-123583086D01*
X125712553Y-123599319D01*
X125716789Y-123605622D01*
X125716789Y-123605623D01*
X125769782Y-123684484D01*
X125800908Y-123730805D01*
X125806527Y-123735918D01*
X125806528Y-123735919D01*
X125859901Y-123784484D01*
X125918076Y-123837419D01*
X126057293Y-123913008D01*
X126210522Y-123953207D01*
X126294477Y-123954526D01*
X126361319Y-123955576D01*
X126361322Y-123955576D01*
X126368916Y-123955695D01*
X126523332Y-123920329D01*
X126626479Y-123868452D01*
X126658072Y-123852563D01*
X126658075Y-123852561D01*
X126664855Y-123849151D01*
X126670626Y-123844222D01*
X126670629Y-123844220D01*
X126779536Y-123751204D01*
X126779536Y-123751203D01*
X126785314Y-123746269D01*
X126877755Y-123617624D01*
X126936842Y-123470641D01*
X126959162Y-123313807D01*
X126959307Y-123300000D01*
X126940276Y-123142733D01*
X126884280Y-122994546D01*
X126794553Y-122863992D01*
X126721681Y-122799065D01*
X126684126Y-122738816D01*
X126679500Y-122704989D01*
X126679500Y-122539788D01*
X126681051Y-122520077D01*
X126682680Y-122509792D01*
X126684231Y-122500000D01*
X126682680Y-122490207D01*
X126682680Y-122480788D01*
X126682003Y-122465003D01*
X126694334Y-122292593D01*
X126696892Y-122274801D01*
X126698558Y-122267145D01*
X126739175Y-122080434D01*
X126744238Y-122063188D01*
X126813757Y-121876802D01*
X126821225Y-121860450D01*
X126916556Y-121685864D01*
X126926276Y-121670740D01*
X127045485Y-121511495D01*
X127057258Y-121497909D01*
X127197909Y-121357258D01*
X127211495Y-121345485D01*
X127370740Y-121226276D01*
X127385864Y-121216556D01*
X127560450Y-121121225D01*
X127576802Y-121113757D01*
X127690233Y-121071449D01*
X127763191Y-121044237D01*
X127780434Y-121039175D01*
X127974805Y-120996891D01*
X127992593Y-120994334D01*
X128165005Y-120982003D01*
X128180788Y-120982680D01*
X128190207Y-120982680D01*
X128200000Y-120984231D01*
X128220078Y-120981051D01*
X128239788Y-120979500D01*
X143060212Y-120979500D01*
X143079922Y-120981051D01*
X143100000Y-120984231D01*
X143101427Y-120984005D01*
X143110305Y-120983595D01*
X143110306Y-120983595D01*
X143492393Y-120965930D01*
X143492400Y-120965929D01*
X143495284Y-120965796D01*
X143624026Y-120947837D01*
X143884308Y-120911529D01*
X143884311Y-120911528D01*
X143887196Y-120911126D01*
X144098221Y-120861494D01*
X144269553Y-120821197D01*
X144269559Y-120821195D01*
X144272392Y-120820529D01*
X144647585Y-120694777D01*
X145009574Y-120534942D01*
X145355272Y-120342390D01*
X145681729Y-120118762D01*
X145683955Y-120116914D01*
X145683965Y-120116906D01*
X145983923Y-119867823D01*
X145983926Y-119867820D01*
X145986159Y-119865966D01*
X146265966Y-119586159D01*
X146402795Y-119421383D01*
X146516906Y-119283965D01*
X146516914Y-119283955D01*
X146518762Y-119281729D01*
X146742390Y-118955272D01*
X146934942Y-118609574D01*
X147094777Y-118247585D01*
X147220529Y-117872392D01*
X147311126Y-117487196D01*
X147314268Y-117464676D01*
X147365396Y-117098151D01*
X147365796Y-117095284D01*
X147367436Y-117059825D01*
X147379611Y-116796473D01*
X147384005Y-116701427D01*
X147384231Y-116700000D01*
X147382680Y-116690208D01*
X147382680Y-116680289D01*
X147382834Y-116680289D01*
X147382240Y-116665176D01*
X147385983Y-116617624D01*
X147394979Y-116503313D01*
X147398072Y-116483785D01*
X147403034Y-116463115D01*
X147441816Y-116301579D01*
X147447924Y-116282780D01*
X147483236Y-116197529D01*
X147519632Y-116109662D01*
X147528602Y-116092057D01*
X147626513Y-115932280D01*
X147638130Y-115916291D01*
X147759826Y-115773804D01*
X147773805Y-115759825D01*
X147773964Y-115759689D01*
X147916291Y-115638130D01*
X147932280Y-115626513D01*
X148092057Y-115528602D01*
X148109662Y-115519632D01*
X148282785Y-115447922D01*
X148301579Y-115441816D01*
X148483786Y-115398072D01*
X148503313Y-115394979D01*
X148665180Y-115382240D01*
X148680290Y-115382834D01*
X148680290Y-115382679D01*
X148690205Y-115382679D01*
X148700000Y-115384231D01*
X148709793Y-115382680D01*
X148709794Y-115382680D01*
X148717535Y-115381454D01*
X148720078Y-115381051D01*
X148739788Y-115379500D01*
X149700141Y-115379500D01*
X149768262Y-115399502D01*
X149795522Y-115423169D01*
X149796672Y-115424501D01*
X149800908Y-115430805D01*
X149918076Y-115537419D01*
X150057293Y-115613008D01*
X150210522Y-115653207D01*
X150294477Y-115654526D01*
X150361319Y-115655576D01*
X150361322Y-115655576D01*
X150368916Y-115655695D01*
X150523332Y-115620329D01*
X150593742Y-115584917D01*
X150658072Y-115552563D01*
X150658075Y-115552561D01*
X150664855Y-115549151D01*
X150670626Y-115544222D01*
X150670629Y-115544220D01*
X150779536Y-115451204D01*
X150779536Y-115451203D01*
X150785314Y-115446269D01*
X150877755Y-115317624D01*
X150936842Y-115170641D01*
X150959162Y-115013807D01*
X150959307Y-115000000D01*
X150940276Y-114842733D01*
X150884280Y-114694546D01*
X150877748Y-114685042D01*
X150798855Y-114570251D01*
X150798854Y-114570249D01*
X150794553Y-114563992D01*
X150676275Y-114458611D01*
X150676664Y-114458175D01*
X150635462Y-114407002D01*
X150627904Y-114336409D01*
X150659710Y-114272936D01*
X150720784Y-114236734D01*
X150748864Y-114233214D01*
X150750000Y-114233313D01*
X150946798Y-114216095D01*
X150952112Y-114214671D01*
X150952113Y-114214671D01*
X151132306Y-114166389D01*
X151132308Y-114166388D01*
X151137616Y-114164966D01*
X151142598Y-114162643D01*
X151311670Y-114083804D01*
X151311675Y-114083801D01*
X151316657Y-114081478D01*
X151418905Y-114009883D01*
X151473969Y-113971327D01*
X151473972Y-113971325D01*
X151478480Y-113968168D01*
X151618168Y-113828480D01*
X151731478Y-113666657D01*
X151733801Y-113661675D01*
X151733804Y-113661670D01*
X151812643Y-113492598D01*
X151812643Y-113492597D01*
X151814966Y-113487616D01*
X151820194Y-113468107D01*
X151838581Y-113399483D01*
X151866095Y-113296798D01*
X151882806Y-113105797D01*
X151883724Y-113100000D01*
X151874999Y-113044915D01*
X151866494Y-112991214D01*
X151866494Y-112991213D01*
X151864943Y-112981423D01*
X151810439Y-112874453D01*
X151725547Y-112789561D01*
X151618577Y-112735057D01*
X151608787Y-112733506D01*
X151608786Y-112733506D01*
X151509792Y-112717827D01*
X151500000Y-112716276D01*
X151490208Y-112717827D01*
X151391214Y-112733506D01*
X151391213Y-112733506D01*
X151381423Y-112735057D01*
X151274453Y-112789561D01*
X151189561Y-112874453D01*
X151135057Y-112981423D01*
X151133506Y-112991213D01*
X151133506Y-112991214D01*
X151125001Y-113044915D01*
X151116276Y-113100000D01*
X151117827Y-113109793D01*
X151117827Y-113113053D01*
X151116545Y-113130984D01*
X151108550Y-113186591D01*
X151098446Y-113221002D01*
X151069631Y-113284099D01*
X151050242Y-113314269D01*
X151004815Y-113366694D01*
X150977713Y-113390177D01*
X150919358Y-113427679D01*
X150886737Y-113442577D01*
X150820181Y-113462120D01*
X150784682Y-113467224D01*
X150715318Y-113467224D01*
X150679819Y-113462120D01*
X150613263Y-113442577D01*
X150580642Y-113427679D01*
X150522287Y-113390177D01*
X150495185Y-113366694D01*
X150449758Y-113314269D01*
X150430369Y-113284099D01*
X150401554Y-113221002D01*
X150391450Y-113186591D01*
X150383455Y-113130984D01*
X150382173Y-113113053D01*
X150382173Y-113109793D01*
X150383724Y-113100000D01*
X150380551Y-113079966D01*
X150379000Y-113060256D01*
X150379000Y-111505000D01*
X150399002Y-111436879D01*
X150452658Y-111390386D01*
X150505000Y-111379000D01*
X151240119Y-111379000D01*
X151308240Y-111399002D01*
X151342648Y-111431763D01*
X151770535Y-112030805D01*
X152696973Y-113327818D01*
X152709897Y-113345912D01*
X152776530Y-113412573D01*
X152889826Y-113468107D01*
X152943402Y-113474887D01*
X153004670Y-113482640D01*
X153004673Y-113482640D01*
X153015002Y-113483947D01*
X153025197Y-113481838D01*
X153025199Y-113481838D01*
X153128368Y-113460497D01*
X153128371Y-113460496D01*
X153138561Y-113458388D01*
X153247179Y-113394184D01*
X153270670Y-113366692D01*
X153288425Y-113345912D01*
X153329144Y-113298256D01*
X153375617Y-113180953D01*
X153381588Y-113054920D01*
X153360486Y-112982228D01*
X153348621Y-112941359D01*
X153348620Y-112941358D01*
X153346411Y-112933747D01*
X153343575Y-112928949D01*
X152509671Y-111761484D01*
X151815628Y-110789823D01*
X151812306Y-110784935D01*
X151789845Y-110750149D01*
X151784197Y-110741401D01*
X151778172Y-110736651D01*
X151773630Y-110731026D01*
X151754422Y-110704134D01*
X151093015Y-109778165D01*
X151069697Y-109711107D01*
X151086335Y-109642087D01*
X151137646Y-109593020D01*
X151207340Y-109579482D01*
X151243763Y-109588520D01*
X151364935Y-109638711D01*
X151520000Y-109659126D01*
X151675065Y-109638711D01*
X151819563Y-109578858D01*
X151943646Y-109483646D01*
X152038858Y-109359563D01*
X152098711Y-109215065D01*
X152119126Y-109060000D01*
X152098711Y-108904935D01*
X152038858Y-108760437D01*
X151943646Y-108636354D01*
X151927523Y-108623982D01*
X151889033Y-108594448D01*
X151819563Y-108541142D01*
X151711568Y-108496409D01*
X151656287Y-108451861D01*
X151633866Y-108384497D01*
X151651424Y-108315706D01*
X151703386Y-108267328D01*
X151759786Y-108254000D01*
X153620000Y-108254000D01*
X153688121Y-108274002D01*
X153734614Y-108327658D01*
X153746000Y-108380000D01*
X153746000Y-131962575D01*
X153743579Y-131987153D01*
X153741024Y-132000000D01*
X153746000Y-132025017D01*
X153760737Y-132099106D01*
X153816876Y-132183124D01*
X153900894Y-132239263D01*
X154000000Y-132258976D01*
X154012847Y-132256421D01*
X154037425Y-132254000D01*
X159620000Y-132254000D01*
X159688121Y-132274002D01*
X159734614Y-132327658D01*
X159746000Y-132380000D01*
X159746000Y-142620000D01*
X159725998Y-142688121D01*
X159672342Y-142734614D01*
X159620000Y-142746000D01*
X118380000Y-142746000D01*
X118311879Y-142725998D01*
X118265386Y-142672342D01*
X118254000Y-142620000D01*
X118254000Y-141867770D01*
X118274002Y-141799649D01*
X118327658Y-141753156D01*
X118397932Y-141743052D01*
X118459292Y-141769847D01*
X118468732Y-141777491D01*
X118632259Y-141886756D01*
X118642371Y-141892247D01*
X118823081Y-141969885D01*
X118834014Y-141973437D01*
X119025844Y-142016845D01*
X119037253Y-142018347D01*
X119233783Y-142026068D01*
X119245265Y-142025466D01*
X119439905Y-141997245D01*
X119451101Y-141994557D01*
X119637343Y-141931336D01*
X119647840Y-141926662D01*
X119766401Y-141860266D01*
X119776264Y-141850189D01*
X119775929Y-141849319D01*
X127225041Y-141849319D01*
X127234923Y-141861809D01*
X127272259Y-141886756D01*
X127282371Y-141892247D01*
X127463081Y-141969885D01*
X127474014Y-141973437D01*
X127665844Y-142016845D01*
X127677253Y-142018347D01*
X127873783Y-142026068D01*
X127885265Y-142025466D01*
X128079905Y-141997245D01*
X128091101Y-141994557D01*
X128277343Y-141931336D01*
X128287840Y-141926662D01*
X128406401Y-141860266D01*
X128416264Y-141850189D01*
X128413309Y-141842519D01*
X127832812Y-141262022D01*
X127818868Y-141254408D01*
X127817035Y-141254539D01*
X127810420Y-141258790D01*
X127231237Y-141837973D01*
X127225041Y-141849319D01*
X119775929Y-141849319D01*
X119773309Y-141842519D01*
X118909885Y-140979095D01*
X118875859Y-140916783D01*
X118877694Y-140891132D01*
X119544408Y-140891132D01*
X119544539Y-140892965D01*
X119548790Y-140899580D01*
X120128603Y-141479393D01*
X120140983Y-141486153D01*
X120147563Y-141481227D01*
X120216662Y-141357840D01*
X120221336Y-141347343D01*
X120284557Y-141161101D01*
X120287245Y-141149905D01*
X120315762Y-140953224D01*
X120316392Y-140945843D01*
X120317757Y-140893704D01*
X120317514Y-140886305D01*
X120315647Y-140865980D01*
X126682914Y-140865980D01*
X126695777Y-141062233D01*
X126697577Y-141073601D01*
X126745991Y-141264228D01*
X126749829Y-141275066D01*
X126832173Y-141453685D01*
X126837922Y-141463642D01*
X126847850Y-141477690D01*
X126858439Y-141486078D01*
X126871740Y-141479050D01*
X127447978Y-140902812D01*
X127454356Y-140891132D01*
X128184408Y-140891132D01*
X128184539Y-140892965D01*
X128188790Y-140899580D01*
X128768603Y-141479393D01*
X128780983Y-141486153D01*
X128787563Y-141481227D01*
X128856662Y-141357840D01*
X128861336Y-141347343D01*
X128924557Y-141161101D01*
X128927245Y-141149905D01*
X128955762Y-140953224D01*
X128956392Y-140945843D01*
X128957757Y-140893704D01*
X128957514Y-140886305D01*
X128939330Y-140688397D01*
X128937233Y-140677083D01*
X128883846Y-140487789D01*
X128879724Y-140477050D01*
X128792736Y-140300656D01*
X128791577Y-140298765D01*
X128782732Y-140292126D01*
X128770312Y-140298898D01*
X128192022Y-140877188D01*
X128184408Y-140891132D01*
X127454356Y-140891132D01*
X127455592Y-140888868D01*
X127455461Y-140887035D01*
X127451210Y-140880420D01*
X126870031Y-140299241D01*
X126857651Y-140292481D01*
X126851685Y-140296947D01*
X126771452Y-140449445D01*
X126767047Y-140460079D01*
X126708724Y-140647910D01*
X126706332Y-140659164D01*
X126683215Y-140854479D01*
X126682914Y-140865980D01*
X120315647Y-140865980D01*
X120299330Y-140688397D01*
X120297233Y-140677083D01*
X120243846Y-140487789D01*
X120239724Y-140477050D01*
X120152736Y-140300656D01*
X120151577Y-140298765D01*
X120142732Y-140292126D01*
X120130312Y-140298898D01*
X119552022Y-140877188D01*
X119544408Y-140891132D01*
X118877694Y-140891132D01*
X118880924Y-140845968D01*
X118909885Y-140800905D01*
X119768407Y-139942383D01*
X119774931Y-139930436D01*
X127224547Y-139930436D01*
X127228033Y-139938823D01*
X127807188Y-140517978D01*
X127821132Y-140525592D01*
X127822965Y-140525461D01*
X127829580Y-140521210D01*
X128408407Y-139942383D01*
X128415167Y-139930003D01*
X128409137Y-139921948D01*
X128341459Y-139879246D01*
X128331211Y-139874025D01*
X128148531Y-139801143D01*
X128137504Y-139797876D01*
X127944605Y-139759506D01*
X127933159Y-139758303D01*
X127736507Y-139755730D01*
X127725027Y-139756633D01*
X127531199Y-139789938D01*
X127520079Y-139792918D01*
X127335557Y-139860992D01*
X127325179Y-139865942D01*
X127234146Y-139920101D01*
X127224547Y-139930436D01*
X119774931Y-139930436D01*
X119775167Y-139930003D01*
X119769137Y-139921948D01*
X119701459Y-139879246D01*
X119691211Y-139874025D01*
X119508531Y-139801143D01*
X119497504Y-139797876D01*
X119304605Y-139759506D01*
X119293159Y-139758303D01*
X119096507Y-139755730D01*
X119085027Y-139756633D01*
X118891199Y-139789938D01*
X118880079Y-139792918D01*
X118695557Y-139860992D01*
X118685179Y-139865942D01*
X118516154Y-139966501D01*
X118506836Y-139973271D01*
X118463078Y-140011646D01*
X118398674Y-140041524D01*
X118328341Y-140031838D01*
X118274410Y-139985666D01*
X118254000Y-139916915D01*
X118254000Y-137849386D01*
X118274002Y-137781265D01*
X118327658Y-137734772D01*
X118397932Y-137724668D01*
X118452270Y-137746173D01*
X118544083Y-137810461D01*
X118553584Y-137815947D01*
X118743113Y-137904326D01*
X118753405Y-137908072D01*
X118955401Y-137962196D01*
X118966196Y-137964099D01*
X119174525Y-137982326D01*
X119185475Y-137982326D01*
X119393804Y-137964099D01*
X119404599Y-137962196D01*
X119606595Y-137908072D01*
X119616887Y-137904326D01*
X119806416Y-137815947D01*
X119815912Y-137810464D01*
X119857148Y-137781590D01*
X119865523Y-137771113D01*
X119865023Y-137770161D01*
X127134393Y-137770161D01*
X127143687Y-137782175D01*
X127184088Y-137810464D01*
X127193584Y-137815947D01*
X127383113Y-137904326D01*
X127393405Y-137908072D01*
X127595401Y-137962196D01*
X127606196Y-137964099D01*
X127814525Y-137982326D01*
X127825475Y-137982326D01*
X128033804Y-137964099D01*
X128044599Y-137962196D01*
X128246595Y-137908072D01*
X128256887Y-137904326D01*
X128446416Y-137815947D01*
X128455912Y-137810464D01*
X128497148Y-137781590D01*
X128505523Y-137771112D01*
X128498457Y-137757668D01*
X127832811Y-137092021D01*
X127818868Y-137084408D01*
X127817034Y-137084539D01*
X127810420Y-137088790D01*
X127140820Y-137758391D01*
X127134393Y-137770161D01*
X119865023Y-137770161D01*
X119858455Y-137757667D01*
X118909884Y-136809095D01*
X118875859Y-136746783D01*
X118877694Y-136721132D01*
X119544408Y-136721132D01*
X119544539Y-136722966D01*
X119548790Y-136729580D01*
X120218391Y-137399180D01*
X120230161Y-137405607D01*
X120242176Y-137396311D01*
X120270466Y-137355907D01*
X120275946Y-137346417D01*
X120364326Y-137156887D01*
X120368072Y-137146595D01*
X120422196Y-136944599D01*
X120424099Y-136933804D01*
X120442326Y-136725475D01*
X126557674Y-136725475D01*
X126575901Y-136933804D01*
X126577804Y-136944599D01*
X126631928Y-137146595D01*
X126635674Y-137156887D01*
X126724054Y-137346417D01*
X126729534Y-137355907D01*
X126758411Y-137397149D01*
X126768887Y-137405523D01*
X126782334Y-137398455D01*
X127447979Y-136732811D01*
X127454356Y-136721132D01*
X128184408Y-136721132D01*
X128184539Y-136722966D01*
X128188790Y-136729580D01*
X128858391Y-137399180D01*
X128870161Y-137405607D01*
X128882176Y-137396311D01*
X128910466Y-137355907D01*
X128915946Y-137346417D01*
X129004326Y-137156887D01*
X129008072Y-137146595D01*
X129014637Y-137122095D01*
X131292001Y-137122095D01*
X131292338Y-137128614D01*
X131302257Y-137224206D01*
X131305149Y-137237600D01*
X131356588Y-137391784D01*
X131362761Y-137404962D01*
X131448063Y-137542807D01*
X131457099Y-137554208D01*
X131571829Y-137668739D01*
X131583240Y-137677751D01*
X131721243Y-137762816D01*
X131734424Y-137768963D01*
X131888710Y-137820138D01*
X131902086Y-137823005D01*
X131996438Y-137832672D01*
X132002854Y-137833000D01*
X132377885Y-137833000D01*
X132393124Y-137828525D01*
X132394329Y-137827135D01*
X132396000Y-137819452D01*
X132396000Y-136672115D01*
X132391525Y-136656876D01*
X132390135Y-136655671D01*
X132382452Y-136654000D01*
X131310116Y-136654000D01*
X131294877Y-136658475D01*
X131293672Y-136659865D01*
X131292001Y-136667548D01*
X131292001Y-137122095D01*
X129014637Y-137122095D01*
X129062196Y-136944599D01*
X129064099Y-136933804D01*
X129082326Y-136725475D01*
X129082326Y-136714525D01*
X129064099Y-136506196D01*
X129062196Y-136495401D01*
X129008072Y-136293405D01*
X129004326Y-136283113D01*
X128931941Y-136127885D01*
X131292000Y-136127885D01*
X131296475Y-136143124D01*
X131297865Y-136144329D01*
X131305548Y-136146000D01*
X132778000Y-136146000D01*
X132846121Y-136166002D01*
X132892614Y-136219658D01*
X132904000Y-136272000D01*
X132904000Y-137814884D01*
X132908475Y-137830123D01*
X132909865Y-137831328D01*
X132917548Y-137832999D01*
X133297095Y-137832999D01*
X133303614Y-137832662D01*
X133399206Y-137822743D01*
X133412600Y-137819851D01*
X133566784Y-137768412D01*
X133579962Y-137762239D01*
X133717807Y-137676937D01*
X133729208Y-137667901D01*
X133843739Y-137553171D01*
X133852751Y-137541760D01*
X133937816Y-137403757D01*
X133943963Y-137390576D01*
X133995138Y-137236290D01*
X133998005Y-137222914D01*
X134004869Y-137155919D01*
X134031710Y-137090192D01*
X134089824Y-137049410D01*
X134160762Y-137046520D01*
X134222001Y-137082442D01*
X134229299Y-137090928D01*
X134346514Y-137240149D01*
X134351044Y-137244080D01*
X134351045Y-137244081D01*
X134501165Y-137374350D01*
X134501170Y-137374354D01*
X134505696Y-137378281D01*
X134688126Y-137483819D01*
X134887222Y-137552957D01*
X134893155Y-137553817D01*
X134893158Y-137553818D01*
X135089860Y-137582338D01*
X135089863Y-137582338D01*
X135095800Y-137583199D01*
X135306333Y-137573455D01*
X135312157Y-137572051D01*
X135312160Y-137572051D01*
X135505393Y-137525482D01*
X135505395Y-137525481D01*
X135511226Y-137524076D01*
X135516684Y-137521594D01*
X135516688Y-137521593D01*
X135631294Y-137469484D01*
X135703084Y-137436843D01*
X135874986Y-137314904D01*
X136020728Y-137162660D01*
X136077710Y-137074410D01*
X136131800Y-136990640D01*
X136131801Y-136990637D01*
X136135052Y-136985603D01*
X136213834Y-136790122D01*
X136254229Y-136583271D01*
X136254500Y-136577730D01*
X136254500Y-136527659D01*
X136545500Y-136527659D01*
X136560493Y-136684806D01*
X136562183Y-136690566D01*
X136562183Y-136690567D01*
X136568007Y-136710420D01*
X136619823Y-136887042D01*
X136622573Y-136892381D01*
X136701960Y-137046520D01*
X136716324Y-137074410D01*
X136727620Y-137088790D01*
X136842808Y-137235432D01*
X136842812Y-137235436D01*
X136846514Y-137240149D01*
X136851044Y-137244080D01*
X136851045Y-137244081D01*
X137001165Y-137374350D01*
X137001170Y-137374354D01*
X137005696Y-137378281D01*
X137188126Y-137483819D01*
X137387222Y-137552957D01*
X137393155Y-137553817D01*
X137393158Y-137553818D01*
X137589860Y-137582338D01*
X137589863Y-137582338D01*
X137595800Y-137583199D01*
X137806333Y-137573455D01*
X137812157Y-137572051D01*
X137812160Y-137572051D01*
X138005393Y-137525482D01*
X138005395Y-137525481D01*
X138011226Y-137524076D01*
X138016684Y-137521594D01*
X138016688Y-137521593D01*
X138131294Y-137469484D01*
X138203084Y-137436843D01*
X138374986Y-137314904D01*
X138520728Y-137162660D01*
X138577710Y-137074410D01*
X138631800Y-136990640D01*
X138631801Y-136990637D01*
X138635052Y-136985603D01*
X138713834Y-136790122D01*
X138754229Y-136583271D01*
X138754500Y-136577730D01*
X138754500Y-136527659D01*
X139045500Y-136527659D01*
X139060493Y-136684806D01*
X139062183Y-136690566D01*
X139062183Y-136690567D01*
X139068007Y-136710420D01*
X139119823Y-136887042D01*
X139122573Y-136892381D01*
X139201960Y-137046520D01*
X139216324Y-137074410D01*
X139227620Y-137088790D01*
X139342808Y-137235432D01*
X139342812Y-137235436D01*
X139346514Y-137240149D01*
X139351044Y-137244080D01*
X139351045Y-137244081D01*
X139501165Y-137374350D01*
X139501170Y-137374354D01*
X139505696Y-137378281D01*
X139688126Y-137483819D01*
X139887222Y-137552957D01*
X139893155Y-137553817D01*
X139893158Y-137553818D01*
X140089860Y-137582338D01*
X140089863Y-137582338D01*
X140095800Y-137583199D01*
X140306333Y-137573455D01*
X140312157Y-137572051D01*
X140312160Y-137572051D01*
X140505393Y-137525482D01*
X140505395Y-137525481D01*
X140511226Y-137524076D01*
X140516684Y-137521594D01*
X140516688Y-137521593D01*
X140631294Y-137469484D01*
X140703084Y-137436843D01*
X140874986Y-137314904D01*
X141020728Y-137162660D01*
X141046920Y-137122095D01*
X143747001Y-137122095D01*
X143747338Y-137128614D01*
X143757257Y-137224206D01*
X143760149Y-137237600D01*
X143811588Y-137391784D01*
X143817761Y-137404962D01*
X143903063Y-137542807D01*
X143912099Y-137554208D01*
X144026829Y-137668739D01*
X144038240Y-137677751D01*
X144176243Y-137762816D01*
X144189424Y-137768963D01*
X144343710Y-137820138D01*
X144357086Y-137823005D01*
X144451438Y-137832672D01*
X144457854Y-137833000D01*
X144832885Y-137833000D01*
X144848124Y-137828525D01*
X144849329Y-137827135D01*
X144851000Y-137819452D01*
X144851000Y-137814884D01*
X145359000Y-137814884D01*
X145363475Y-137830123D01*
X145364865Y-137831328D01*
X145372548Y-137832999D01*
X145752095Y-137832999D01*
X145758614Y-137832662D01*
X145854206Y-137822743D01*
X145867600Y-137819851D01*
X146021784Y-137768412D01*
X146034962Y-137762239D01*
X146172807Y-137676937D01*
X146184208Y-137667901D01*
X146298739Y-137553171D01*
X146307751Y-137541760D01*
X146392816Y-137403757D01*
X146398963Y-137390576D01*
X146450138Y-137236290D01*
X146453005Y-137222914D01*
X146459869Y-137155919D01*
X146486710Y-137090192D01*
X146544824Y-137049410D01*
X146615762Y-137046520D01*
X146677001Y-137082442D01*
X146684299Y-137090928D01*
X146801514Y-137240149D01*
X146806044Y-137244080D01*
X146806045Y-137244081D01*
X146956165Y-137374350D01*
X146956170Y-137374354D01*
X146960696Y-137378281D01*
X147143126Y-137483819D01*
X147342222Y-137552957D01*
X147348155Y-137553817D01*
X147348158Y-137553818D01*
X147544860Y-137582338D01*
X147544863Y-137582338D01*
X147550800Y-137583199D01*
X147761333Y-137573455D01*
X147767157Y-137572051D01*
X147767160Y-137572051D01*
X147960393Y-137525482D01*
X147960395Y-137525481D01*
X147966226Y-137524076D01*
X147971684Y-137521594D01*
X147971688Y-137521593D01*
X148086294Y-137469484D01*
X148158084Y-137436843D01*
X148329986Y-137314904D01*
X148475728Y-137162660D01*
X148532710Y-137074410D01*
X148586800Y-136990640D01*
X148586801Y-136990637D01*
X148590052Y-136985603D01*
X148668834Y-136790122D01*
X148709229Y-136583271D01*
X148709500Y-136577730D01*
X148709500Y-136527659D01*
X149000500Y-136527659D01*
X149015493Y-136684806D01*
X149017183Y-136690566D01*
X149017183Y-136690567D01*
X149023007Y-136710420D01*
X149074823Y-136887042D01*
X149077573Y-136892381D01*
X149156960Y-137046520D01*
X149171324Y-137074410D01*
X149182620Y-137088790D01*
X149297808Y-137235432D01*
X149297812Y-137235436D01*
X149301514Y-137240149D01*
X149306044Y-137244080D01*
X149306045Y-137244081D01*
X149456165Y-137374350D01*
X149456170Y-137374354D01*
X149460696Y-137378281D01*
X149643126Y-137483819D01*
X149842222Y-137552957D01*
X149848155Y-137553817D01*
X149848158Y-137553818D01*
X150044860Y-137582338D01*
X150044863Y-137582338D01*
X150050800Y-137583199D01*
X150261333Y-137573455D01*
X150267157Y-137572051D01*
X150267160Y-137572051D01*
X150460393Y-137525482D01*
X150460395Y-137525481D01*
X150466226Y-137524076D01*
X150471684Y-137521594D01*
X150471688Y-137521593D01*
X150586294Y-137469484D01*
X150658084Y-137436843D01*
X150829986Y-137314904D01*
X150975728Y-137162660D01*
X151001920Y-137122095D01*
X153692001Y-137122095D01*
X153692338Y-137128614D01*
X153702257Y-137224206D01*
X153705149Y-137237600D01*
X153756588Y-137391784D01*
X153762761Y-137404962D01*
X153848063Y-137542807D01*
X153857099Y-137554208D01*
X153971829Y-137668739D01*
X153983240Y-137677751D01*
X154121243Y-137762816D01*
X154134424Y-137768963D01*
X154288710Y-137820138D01*
X154302086Y-137823005D01*
X154396438Y-137832672D01*
X154402854Y-137833000D01*
X154777885Y-137833000D01*
X154793124Y-137828525D01*
X154794329Y-137827135D01*
X154796000Y-137819452D01*
X154796000Y-137814884D01*
X155304000Y-137814884D01*
X155308475Y-137830123D01*
X155309865Y-137831328D01*
X155317548Y-137832999D01*
X155697095Y-137832999D01*
X155703614Y-137832662D01*
X155799206Y-137822743D01*
X155812600Y-137819851D01*
X155966784Y-137768412D01*
X155979962Y-137762239D01*
X156117807Y-137676937D01*
X156129208Y-137667901D01*
X156243739Y-137553171D01*
X156252751Y-137541760D01*
X156337816Y-137403757D01*
X156343963Y-137390576D01*
X156395138Y-137236290D01*
X156398005Y-137222914D01*
X156404869Y-137155919D01*
X156431710Y-137090192D01*
X156489824Y-137049410D01*
X156560762Y-137046520D01*
X156622001Y-137082442D01*
X156629299Y-137090928D01*
X156746514Y-137240149D01*
X156751044Y-137244080D01*
X156751045Y-137244081D01*
X156901165Y-137374350D01*
X156901170Y-137374354D01*
X156905696Y-137378281D01*
X157088126Y-137483819D01*
X157287222Y-137552957D01*
X157293155Y-137553817D01*
X157293158Y-137553818D01*
X157489860Y-137582338D01*
X157489863Y-137582338D01*
X157495800Y-137583199D01*
X157706333Y-137573455D01*
X157712157Y-137572051D01*
X157712160Y-137572051D01*
X157905393Y-137525482D01*
X157905395Y-137525481D01*
X157911226Y-137524076D01*
X157916684Y-137521594D01*
X157916688Y-137521593D01*
X158031294Y-137469484D01*
X158103084Y-137436843D01*
X158274986Y-137314904D01*
X158420728Y-137162660D01*
X158477710Y-137074410D01*
X158531800Y-136990640D01*
X158531801Y-136990637D01*
X158535052Y-136985603D01*
X158613834Y-136790122D01*
X158654229Y-136583271D01*
X158654500Y-136577730D01*
X158654500Y-136272341D01*
X158639507Y-136115194D01*
X158580177Y-135912958D01*
X158529415Y-135814397D01*
X158486422Y-135730921D01*
X158486420Y-135730918D01*
X158483676Y-135725590D01*
X158414355Y-135637340D01*
X158357192Y-135564568D01*
X158357188Y-135564564D01*
X158353486Y-135559851D01*
X158321308Y-135531928D01*
X158198835Y-135425650D01*
X158198830Y-135425646D01*
X158194304Y-135421719D01*
X158011874Y-135316181D01*
X157812778Y-135247043D01*
X157806845Y-135246183D01*
X157806842Y-135246182D01*
X157610140Y-135217662D01*
X157610137Y-135217662D01*
X157604200Y-135216801D01*
X157393667Y-135226545D01*
X157387843Y-135227949D01*
X157387840Y-135227949D01*
X157194607Y-135274518D01*
X157194605Y-135274519D01*
X157188774Y-135275924D01*
X157183316Y-135278406D01*
X157183312Y-135278407D01*
X157104562Y-135314213D01*
X156996916Y-135363157D01*
X156933395Y-135408216D01*
X156837977Y-135475901D01*
X156825014Y-135485096D01*
X156749757Y-135563710D01*
X156691992Y-135624053D01*
X156679272Y-135637340D01*
X156676021Y-135642375D01*
X156636447Y-135703664D01*
X156582692Y-135750042D01*
X156512396Y-135759995D01*
X156447879Y-135730363D01*
X156409623Y-135670555D01*
X156405268Y-135648319D01*
X156397743Y-135575794D01*
X156394851Y-135562400D01*
X156343412Y-135408216D01*
X156337239Y-135395038D01*
X156251937Y-135257193D01*
X156242901Y-135245792D01*
X156128171Y-135131261D01*
X156116760Y-135122249D01*
X155978757Y-135037184D01*
X155965576Y-135031037D01*
X155811290Y-134979862D01*
X155797914Y-134976995D01*
X155703562Y-134967328D01*
X155697145Y-134967000D01*
X155322115Y-134967000D01*
X155306876Y-134971475D01*
X155305671Y-134972865D01*
X155304000Y-134980548D01*
X155304000Y-137814884D01*
X154796000Y-137814884D01*
X154796000Y-136672115D01*
X154791525Y-136656876D01*
X154790135Y-136655671D01*
X154782452Y-136654000D01*
X153710116Y-136654000D01*
X153694877Y-136658475D01*
X153693672Y-136659865D01*
X153692001Y-136667548D01*
X153692001Y-137122095D01*
X151001920Y-137122095D01*
X151032710Y-137074410D01*
X151086800Y-136990640D01*
X151086801Y-136990637D01*
X151090052Y-136985603D01*
X151168834Y-136790122D01*
X151209229Y-136583271D01*
X151209500Y-136577730D01*
X151209500Y-136272341D01*
X151195718Y-136127885D01*
X153692000Y-136127885D01*
X153696475Y-136143124D01*
X153697865Y-136144329D01*
X153705548Y-136146000D01*
X154777885Y-136146000D01*
X154793124Y-136141525D01*
X154794329Y-136140135D01*
X154796000Y-136132452D01*
X154796000Y-134985116D01*
X154791525Y-134969877D01*
X154790135Y-134968672D01*
X154782452Y-134967001D01*
X154402905Y-134967001D01*
X154396386Y-134967338D01*
X154300794Y-134977257D01*
X154287400Y-134980149D01*
X154133216Y-135031588D01*
X154120038Y-135037761D01*
X153982193Y-135123063D01*
X153970792Y-135132099D01*
X153856261Y-135246829D01*
X153847249Y-135258240D01*
X153762184Y-135396243D01*
X153756037Y-135409424D01*
X153704862Y-135563710D01*
X153701995Y-135577086D01*
X153692328Y-135671438D01*
X153692000Y-135677855D01*
X153692000Y-136127885D01*
X151195718Y-136127885D01*
X151194507Y-136115194D01*
X151135177Y-135912958D01*
X151084415Y-135814397D01*
X151041422Y-135730921D01*
X151041420Y-135730918D01*
X151038676Y-135725590D01*
X150969355Y-135637340D01*
X150912192Y-135564568D01*
X150912188Y-135564564D01*
X150908486Y-135559851D01*
X150876308Y-135531928D01*
X150753835Y-135425650D01*
X150753830Y-135425646D01*
X150749304Y-135421719D01*
X150566874Y-135316181D01*
X150367778Y-135247043D01*
X150361845Y-135246183D01*
X150361842Y-135246182D01*
X150165140Y-135217662D01*
X150165137Y-135217662D01*
X150159200Y-135216801D01*
X149948667Y-135226545D01*
X149942843Y-135227949D01*
X149942840Y-135227949D01*
X149749607Y-135274518D01*
X149749605Y-135274519D01*
X149743774Y-135275924D01*
X149738316Y-135278406D01*
X149738312Y-135278407D01*
X149659562Y-135314213D01*
X149551916Y-135363157D01*
X149488395Y-135408216D01*
X149392977Y-135475901D01*
X149380014Y-135485096D01*
X149304757Y-135563710D01*
X149246992Y-135624053D01*
X149234272Y-135637340D01*
X149231021Y-135642375D01*
X149173848Y-135730921D01*
X149119948Y-135814397D01*
X149041166Y-136009878D01*
X149000771Y-136216729D01*
X149000500Y-136222270D01*
X149000500Y-136527659D01*
X148709500Y-136527659D01*
X148709500Y-136272341D01*
X148694507Y-136115194D01*
X148635177Y-135912958D01*
X148584415Y-135814397D01*
X148541422Y-135730921D01*
X148541420Y-135730918D01*
X148538676Y-135725590D01*
X148469355Y-135637340D01*
X148412192Y-135564568D01*
X148412188Y-135564564D01*
X148408486Y-135559851D01*
X148376308Y-135531928D01*
X148253835Y-135425650D01*
X148253830Y-135425646D01*
X148249304Y-135421719D01*
X148066874Y-135316181D01*
X147867778Y-135247043D01*
X147861845Y-135246183D01*
X147861842Y-135246182D01*
X147665140Y-135217662D01*
X147665137Y-135217662D01*
X147659200Y-135216801D01*
X147448667Y-135226545D01*
X147442843Y-135227949D01*
X147442840Y-135227949D01*
X147249607Y-135274518D01*
X147249605Y-135274519D01*
X147243774Y-135275924D01*
X147238316Y-135278406D01*
X147238312Y-135278407D01*
X147159562Y-135314213D01*
X147051916Y-135363157D01*
X146988395Y-135408216D01*
X146892977Y-135475901D01*
X146880014Y-135485096D01*
X146804757Y-135563710D01*
X146746992Y-135624053D01*
X146734272Y-135637340D01*
X146731021Y-135642375D01*
X146691447Y-135703664D01*
X146637692Y-135750042D01*
X146567396Y-135759995D01*
X146502879Y-135730363D01*
X146464623Y-135670555D01*
X146460268Y-135648319D01*
X146452743Y-135575794D01*
X146449851Y-135562400D01*
X146398412Y-135408216D01*
X146392239Y-135395038D01*
X146306937Y-135257193D01*
X146297901Y-135245792D01*
X146183171Y-135131261D01*
X146171760Y-135122249D01*
X146033757Y-135037184D01*
X146020576Y-135031037D01*
X145866290Y-134979862D01*
X145852914Y-134976995D01*
X145758562Y-134967328D01*
X145752145Y-134967000D01*
X145377115Y-134967000D01*
X145361876Y-134971475D01*
X145360671Y-134972865D01*
X145359000Y-134980548D01*
X145359000Y-137814884D01*
X144851000Y-137814884D01*
X144851000Y-136672115D01*
X144846525Y-136656876D01*
X144845135Y-136655671D01*
X144837452Y-136654000D01*
X143765116Y-136654000D01*
X143749877Y-136658475D01*
X143748672Y-136659865D01*
X143747001Y-136667548D01*
X143747001Y-137122095D01*
X141046920Y-137122095D01*
X141077710Y-137074410D01*
X141131800Y-136990640D01*
X141131801Y-136990637D01*
X141135052Y-136985603D01*
X141213834Y-136790122D01*
X141254229Y-136583271D01*
X141254500Y-136577730D01*
X141254500Y-136272341D01*
X141240718Y-136127885D01*
X143747000Y-136127885D01*
X143751475Y-136143124D01*
X143752865Y-136144329D01*
X143760548Y-136146000D01*
X144832885Y-136146000D01*
X144848124Y-136141525D01*
X144849329Y-136140135D01*
X144851000Y-136132452D01*
X144851000Y-134985116D01*
X144846525Y-134969877D01*
X144845135Y-134968672D01*
X144837452Y-134967001D01*
X144457905Y-134967001D01*
X144451386Y-134967338D01*
X144355794Y-134977257D01*
X144342400Y-134980149D01*
X144188216Y-135031588D01*
X144175038Y-135037761D01*
X144037193Y-135123063D01*
X144025792Y-135132099D01*
X143911261Y-135246829D01*
X143902249Y-135258240D01*
X143817184Y-135396243D01*
X143811037Y-135409424D01*
X143759862Y-135563710D01*
X143756995Y-135577086D01*
X143747328Y-135671438D01*
X143747000Y-135677855D01*
X143747000Y-136127885D01*
X141240718Y-136127885D01*
X141239507Y-136115194D01*
X141180177Y-135912958D01*
X141129415Y-135814397D01*
X141086422Y-135730921D01*
X141086420Y-135730918D01*
X141083676Y-135725590D01*
X141014355Y-135637340D01*
X140957192Y-135564568D01*
X140957188Y-135564564D01*
X140953486Y-135559851D01*
X140921308Y-135531928D01*
X140798835Y-135425650D01*
X140798830Y-135425646D01*
X140794304Y-135421719D01*
X140611874Y-135316181D01*
X140412778Y-135247043D01*
X140406845Y-135246183D01*
X140406842Y-135246182D01*
X140210140Y-135217662D01*
X140210137Y-135217662D01*
X140204200Y-135216801D01*
X139993667Y-135226545D01*
X139987843Y-135227949D01*
X139987840Y-135227949D01*
X139794607Y-135274518D01*
X139794605Y-135274519D01*
X139788774Y-135275924D01*
X139783316Y-135278406D01*
X139783312Y-135278407D01*
X139704562Y-135314213D01*
X139596916Y-135363157D01*
X139533395Y-135408216D01*
X139437977Y-135475901D01*
X139425014Y-135485096D01*
X139349757Y-135563710D01*
X139291992Y-135624053D01*
X139279272Y-135637340D01*
X139276021Y-135642375D01*
X139218848Y-135730921D01*
X139164948Y-135814397D01*
X139086166Y-136009878D01*
X139045771Y-136216729D01*
X139045500Y-136222270D01*
X139045500Y-136527659D01*
X138754500Y-136527659D01*
X138754500Y-136272341D01*
X138739507Y-136115194D01*
X138680177Y-135912958D01*
X138629415Y-135814397D01*
X138586422Y-135730921D01*
X138586420Y-135730918D01*
X138583676Y-135725590D01*
X138514355Y-135637340D01*
X138457192Y-135564568D01*
X138457188Y-135564564D01*
X138453486Y-135559851D01*
X138421308Y-135531928D01*
X138298835Y-135425650D01*
X138298830Y-135425646D01*
X138294304Y-135421719D01*
X138111874Y-135316181D01*
X137912778Y-135247043D01*
X137906845Y-135246183D01*
X137906842Y-135246182D01*
X137710140Y-135217662D01*
X137710137Y-135217662D01*
X137704200Y-135216801D01*
X137493667Y-135226545D01*
X137487843Y-135227949D01*
X137487840Y-135227949D01*
X137294607Y-135274518D01*
X137294605Y-135274519D01*
X137288774Y-135275924D01*
X137283316Y-135278406D01*
X137283312Y-135278407D01*
X137204562Y-135314213D01*
X137096916Y-135363157D01*
X137033395Y-135408216D01*
X136937977Y-135475901D01*
X136925014Y-135485096D01*
X136849757Y-135563710D01*
X136791992Y-135624053D01*
X136779272Y-135637340D01*
X136776021Y-135642375D01*
X136718848Y-135730921D01*
X136664948Y-135814397D01*
X136586166Y-136009878D01*
X136545771Y-136216729D01*
X136545500Y-136222270D01*
X136545500Y-136527659D01*
X136254500Y-136527659D01*
X136254500Y-136272341D01*
X136239507Y-136115194D01*
X136180177Y-135912958D01*
X136129415Y-135814397D01*
X136086422Y-135730921D01*
X136086420Y-135730918D01*
X136083676Y-135725590D01*
X136014355Y-135637340D01*
X135957192Y-135564568D01*
X135957188Y-135564564D01*
X135953486Y-135559851D01*
X135921308Y-135531928D01*
X135798835Y-135425650D01*
X135798830Y-135425646D01*
X135794304Y-135421719D01*
X135611874Y-135316181D01*
X135412778Y-135247043D01*
X135406845Y-135246183D01*
X135406842Y-135246182D01*
X135210140Y-135217662D01*
X135210137Y-135217662D01*
X135204200Y-135216801D01*
X134993667Y-135226545D01*
X134987843Y-135227949D01*
X134987840Y-135227949D01*
X134794607Y-135274518D01*
X134794605Y-135274519D01*
X134788774Y-135275924D01*
X134783316Y-135278406D01*
X134783312Y-135278407D01*
X134704562Y-135314213D01*
X134596916Y-135363157D01*
X134533395Y-135408216D01*
X134437977Y-135475901D01*
X134425014Y-135485096D01*
X134349757Y-135563710D01*
X134291992Y-135624053D01*
X134279272Y-135637340D01*
X134276021Y-135642375D01*
X134236447Y-135703664D01*
X134182692Y-135750042D01*
X134112396Y-135759995D01*
X134047879Y-135730363D01*
X134009623Y-135670555D01*
X134005268Y-135648319D01*
X133997743Y-135575794D01*
X133994851Y-135562400D01*
X133943412Y-135408216D01*
X133937239Y-135395038D01*
X133851937Y-135257193D01*
X133842901Y-135245792D01*
X133728171Y-135131261D01*
X133716760Y-135122249D01*
X133578757Y-135037184D01*
X133565576Y-135031037D01*
X133407610Y-134978641D01*
X133349250Y-134938210D01*
X133322014Y-134872645D01*
X133334548Y-134802764D01*
X133365448Y-134763237D01*
X133379532Y-134751208D01*
X133379535Y-134751205D01*
X133385314Y-134746269D01*
X133477755Y-134617624D01*
X133536842Y-134470641D01*
X133559162Y-134313807D01*
X133559307Y-134300000D01*
X133540276Y-134142733D01*
X133484280Y-133994546D01*
X133439749Y-133929753D01*
X133417650Y-133862286D01*
X133435535Y-133793579D01*
X133440377Y-133786117D01*
X133458883Y-133759689D01*
X133488536Y-133717340D01*
X133502654Y-133700516D01*
X133600516Y-133602654D01*
X133617340Y-133588536D01*
X133730719Y-133509147D01*
X133749740Y-133498165D01*
X133875179Y-133439672D01*
X133895817Y-133432161D01*
X134029507Y-133396338D01*
X134051135Y-133392524D01*
X134165350Y-133382531D01*
X134180290Y-133383054D01*
X134180290Y-133382679D01*
X134190204Y-133382679D01*
X134200000Y-133384231D01*
X134209793Y-133382680D01*
X134209794Y-133382680D01*
X134220077Y-133381051D01*
X134239788Y-133379500D01*
X137900141Y-133379500D01*
X137968262Y-133399502D01*
X137995522Y-133423169D01*
X137996672Y-133424501D01*
X138000908Y-133430805D01*
X138006525Y-133435916D01*
X138092127Y-133513807D01*
X138118076Y-133537419D01*
X138257293Y-133613008D01*
X138410522Y-133653207D01*
X138494477Y-133654526D01*
X138561319Y-133655576D01*
X138561322Y-133655576D01*
X138568916Y-133655695D01*
X138723332Y-133620329D01*
X138793742Y-133584917D01*
X138858072Y-133552563D01*
X138858075Y-133552561D01*
X138864855Y-133549151D01*
X138870626Y-133544222D01*
X138870629Y-133544220D01*
X138930487Y-133493096D01*
X141640729Y-133493096D01*
X141658113Y-133650553D01*
X141660723Y-133657684D01*
X141660723Y-133657686D01*
X141707722Y-133786117D01*
X141712553Y-133799319D01*
X141716789Y-133805622D01*
X141716789Y-133805623D01*
X141749194Y-133853846D01*
X141800908Y-133930805D01*
X141806525Y-133935916D01*
X141806528Y-133935919D01*
X141817903Y-133946269D01*
X141918076Y-134037419D01*
X142057293Y-134113008D01*
X142210522Y-134153207D01*
X142294477Y-134154526D01*
X142361319Y-134155576D01*
X142361322Y-134155576D01*
X142368916Y-134155695D01*
X142523332Y-134120329D01*
X142593742Y-134084917D01*
X142658072Y-134052563D01*
X142658075Y-134052561D01*
X142664855Y-134049151D01*
X142670626Y-134044222D01*
X142670629Y-134044220D01*
X142779542Y-133951199D01*
X142779543Y-133951198D01*
X142785314Y-133946269D01*
X142795586Y-133931974D01*
X142851581Y-133888326D01*
X142897909Y-133879500D01*
X150400141Y-133879500D01*
X150468262Y-133899502D01*
X150495522Y-133923169D01*
X150496671Y-133924500D01*
X150500908Y-133930805D01*
X150618076Y-134037419D01*
X150757293Y-134113008D01*
X150910522Y-134153207D01*
X150994477Y-134154526D01*
X151061319Y-134155576D01*
X151061322Y-134155576D01*
X151068916Y-134155695D01*
X151223332Y-134120329D01*
X151293742Y-134084917D01*
X151358072Y-134052563D01*
X151358075Y-134052561D01*
X151364855Y-134049151D01*
X151370626Y-134044222D01*
X151370629Y-134044220D01*
X151479536Y-133951204D01*
X151479536Y-133951203D01*
X151485314Y-133946269D01*
X151577755Y-133817624D01*
X151636842Y-133670641D01*
X151648527Y-133588536D01*
X151658581Y-133517891D01*
X151658581Y-133517888D01*
X151659162Y-133513807D01*
X151659307Y-133500000D01*
X151640276Y-133342733D01*
X151584280Y-133194546D01*
X151533390Y-133120500D01*
X151498855Y-133070251D01*
X151498854Y-133070249D01*
X151494553Y-133063992D01*
X151376275Y-132958611D01*
X151368889Y-132954700D01*
X151242988Y-132888039D01*
X151242989Y-132888039D01*
X151236274Y-132884484D01*
X151082633Y-132845892D01*
X151075034Y-132845852D01*
X151075033Y-132845852D01*
X151009181Y-132845507D01*
X150924221Y-132845062D01*
X150916841Y-132846834D01*
X150916839Y-132846834D01*
X150777563Y-132880271D01*
X150777560Y-132880272D01*
X150770184Y-132882043D01*
X150629414Y-132954700D01*
X150510039Y-133058838D01*
X150505672Y-133065051D01*
X150505667Y-133065057D01*
X150504336Y-133066951D01*
X150503013Y-133068005D01*
X150500589Y-133070697D01*
X150500140Y-133070293D01*
X150448802Y-133111183D01*
X150401250Y-133120500D01*
X142899682Y-133120500D01*
X142831561Y-133100498D01*
X142805114Y-133074860D01*
X142803878Y-133075949D01*
X142798855Y-133070251D01*
X142794553Y-133063992D01*
X142676275Y-132958611D01*
X142668889Y-132954700D01*
X142542988Y-132888039D01*
X142542989Y-132888039D01*
X142536274Y-132884484D01*
X142382633Y-132845892D01*
X142375034Y-132845852D01*
X142375033Y-132845852D01*
X142309181Y-132845507D01*
X142224221Y-132845062D01*
X142216841Y-132846834D01*
X142216839Y-132846834D01*
X142077563Y-132880271D01*
X142077560Y-132880272D01*
X142070184Y-132882043D01*
X141929414Y-132954700D01*
X141810039Y-133058838D01*
X141718950Y-133188444D01*
X141716190Y-133195524D01*
X141666178Y-133323798D01*
X141661406Y-133336037D01*
X141660414Y-133343570D01*
X141660414Y-133343571D01*
X141646894Y-133446269D01*
X141640729Y-133493096D01*
X138930487Y-133493096D01*
X138979536Y-133451204D01*
X138979536Y-133451203D01*
X138985314Y-133446269D01*
X139077755Y-133317624D01*
X139136842Y-133170641D01*
X139145304Y-133111183D01*
X139158581Y-133017891D01*
X139158581Y-133017888D01*
X139159162Y-133013807D01*
X139159307Y-133000000D01*
X139140276Y-132842733D01*
X139084280Y-132694546D01*
X139030138Y-132615769D01*
X138998855Y-132570251D01*
X138998854Y-132570249D01*
X138994553Y-132563992D01*
X138876275Y-132458611D01*
X138868889Y-132454700D01*
X138742988Y-132388039D01*
X138742989Y-132388039D01*
X138736274Y-132384484D01*
X138582633Y-132345892D01*
X138575034Y-132345852D01*
X138575033Y-132345852D01*
X138509181Y-132345507D01*
X138424221Y-132345062D01*
X138416841Y-132346834D01*
X138416839Y-132346834D01*
X138277563Y-132380271D01*
X138277560Y-132380272D01*
X138270184Y-132382043D01*
X138129414Y-132454700D01*
X138010039Y-132558838D01*
X138005672Y-132565051D01*
X138005667Y-132565057D01*
X138004336Y-132566951D01*
X138003013Y-132568005D01*
X138000589Y-132570697D01*
X138000140Y-132570293D01*
X137948802Y-132611183D01*
X137901250Y-132620500D01*
X134239788Y-132620500D01*
X134220077Y-132618949D01*
X134200000Y-132615769D01*
X134194923Y-132616573D01*
X133960372Y-132633348D01*
X133955968Y-132634306D01*
X133730029Y-132683456D01*
X133730025Y-132683457D01*
X133725622Y-132684415D01*
X133721405Y-132685988D01*
X133721401Y-132685989D01*
X133679415Y-132701649D01*
X133500528Y-132768370D01*
X133289674Y-132883505D01*
X133286065Y-132886206D01*
X133286066Y-132886206D01*
X133115612Y-133013807D01*
X133097352Y-133027476D01*
X132927476Y-133197352D01*
X132783505Y-133389674D01*
X132668370Y-133600528D01*
X132647839Y-133655576D01*
X132647297Y-133657028D01*
X132604751Y-133713864D01*
X132587030Y-133724962D01*
X132529414Y-133754700D01*
X132410039Y-133858838D01*
X132318950Y-133988444D01*
X132298443Y-134041042D01*
X132269634Y-134114934D01*
X132261406Y-134136037D01*
X132260414Y-134143570D01*
X132260414Y-134143571D01*
X132259146Y-134153207D01*
X132240729Y-134293096D01*
X132258113Y-134450553D01*
X132312553Y-134599319D01*
X132400908Y-134730805D01*
X132406527Y-134735918D01*
X132406528Y-134735919D01*
X132419593Y-134747807D01*
X132456516Y-134808448D01*
X132454793Y-134879423D01*
X132414971Y-134938200D01*
X132349693Y-134966117D01*
X132334794Y-134967001D01*
X132002905Y-134967001D01*
X131996386Y-134967338D01*
X131900794Y-134977257D01*
X131887400Y-134980149D01*
X131733216Y-135031588D01*
X131720038Y-135037761D01*
X131582193Y-135123063D01*
X131570792Y-135132099D01*
X131456261Y-135246829D01*
X131447249Y-135258240D01*
X131362184Y-135396243D01*
X131356037Y-135409424D01*
X131304862Y-135563710D01*
X131301995Y-135577086D01*
X131292328Y-135671438D01*
X131292000Y-135677855D01*
X131292000Y-136127885D01*
X128931941Y-136127885D01*
X128915946Y-136093583D01*
X128910466Y-136084093D01*
X128881589Y-136042851D01*
X128871113Y-136034477D01*
X128857666Y-136041545D01*
X128192021Y-136707189D01*
X128184408Y-136721132D01*
X127454356Y-136721132D01*
X127455592Y-136718868D01*
X127455461Y-136717034D01*
X127451210Y-136710420D01*
X126781609Y-136040820D01*
X126769839Y-136034393D01*
X126757824Y-136043689D01*
X126729534Y-136084093D01*
X126724054Y-136093583D01*
X126635674Y-136283113D01*
X126631928Y-136293405D01*
X126577804Y-136495401D01*
X126575901Y-136506196D01*
X126557674Y-136714525D01*
X126557674Y-136725475D01*
X120442326Y-136725475D01*
X120442326Y-136714525D01*
X120424099Y-136506196D01*
X120422196Y-136495401D01*
X120368072Y-136293405D01*
X120364326Y-136283113D01*
X120275946Y-136093583D01*
X120270466Y-136084093D01*
X120241589Y-136042851D01*
X120231113Y-136034477D01*
X120217666Y-136041545D01*
X119552021Y-136707189D01*
X119544408Y-136721132D01*
X118877694Y-136721132D01*
X118880924Y-136675967D01*
X118909885Y-136630905D01*
X119180000Y-136360790D01*
X119859176Y-135681613D01*
X119865606Y-135669838D01*
X119864870Y-135668887D01*
X127134477Y-135668887D01*
X127141545Y-135682334D01*
X127807189Y-136347979D01*
X127821132Y-136355592D01*
X127822966Y-136355461D01*
X127829580Y-136351210D01*
X128499180Y-135681609D01*
X128505607Y-135669839D01*
X128496313Y-135657825D01*
X128455912Y-135629536D01*
X128446416Y-135624053D01*
X128256887Y-135535674D01*
X128246595Y-135531928D01*
X128044599Y-135477804D01*
X128033804Y-135475901D01*
X127825475Y-135457674D01*
X127814525Y-135457674D01*
X127606196Y-135475901D01*
X127595401Y-135477804D01*
X127393405Y-135531928D01*
X127383113Y-135535674D01*
X127193583Y-135624054D01*
X127184093Y-135629534D01*
X127142851Y-135658411D01*
X127134477Y-135668887D01*
X119864870Y-135668887D01*
X119856310Y-135657824D01*
X119815912Y-135629536D01*
X119806416Y-135624053D01*
X119616887Y-135535674D01*
X119606595Y-135531928D01*
X119404599Y-135477804D01*
X119393804Y-135475901D01*
X119185475Y-135457674D01*
X119174525Y-135457674D01*
X118966196Y-135475901D01*
X118955401Y-135477804D01*
X118753405Y-135531928D01*
X118743113Y-135535674D01*
X118553579Y-135624056D01*
X118544093Y-135629534D01*
X118452270Y-135693828D01*
X118384996Y-135716516D01*
X118316136Y-135699231D01*
X118267552Y-135647461D01*
X118254000Y-135590615D01*
X118254000Y-130479619D01*
X122438536Y-130479619D01*
X122455920Y-130637076D01*
X122510360Y-130785842D01*
X122514596Y-130792145D01*
X122514596Y-130792146D01*
X122573296Y-130879500D01*
X122598715Y-130917328D01*
X122715883Y-131023942D01*
X122855100Y-131099531D01*
X123008329Y-131139730D01*
X123092284Y-131141049D01*
X123159126Y-131142099D01*
X123159129Y-131142099D01*
X123166723Y-131142218D01*
X123321139Y-131106852D01*
X123435866Y-131049151D01*
X123455879Y-131039086D01*
X123455882Y-131039084D01*
X123462662Y-131035674D01*
X123468433Y-131030745D01*
X123468436Y-131030743D01*
X123577349Y-130937722D01*
X123577350Y-130937721D01*
X123583121Y-130932792D01*
X123587550Y-130926628D01*
X123592696Y-130921032D01*
X123595011Y-130923160D01*
X123639724Y-130888318D01*
X123686032Y-130879500D01*
X124300141Y-130879500D01*
X124368262Y-130899502D01*
X124395522Y-130923169D01*
X124396672Y-130924501D01*
X124400908Y-130930805D01*
X124406525Y-130935916D01*
X124507247Y-131027565D01*
X124518076Y-131037419D01*
X124657293Y-131113008D01*
X124810522Y-131153207D01*
X124894477Y-131154526D01*
X124961319Y-131155576D01*
X124961322Y-131155576D01*
X124968916Y-131155695D01*
X125123332Y-131120329D01*
X125193742Y-131084917D01*
X125258072Y-131052563D01*
X125258075Y-131052561D01*
X125264855Y-131049151D01*
X125270626Y-131044222D01*
X125270629Y-131044220D01*
X125379536Y-130951204D01*
X125379536Y-130951203D01*
X125385314Y-130946269D01*
X125477755Y-130817624D01*
X125536842Y-130670641D01*
X125559162Y-130513807D01*
X125559307Y-130500000D01*
X125540276Y-130342733D01*
X125484280Y-130194546D01*
X125433390Y-130120500D01*
X125398855Y-130070251D01*
X125398854Y-130070249D01*
X125394553Y-130063992D01*
X125373758Y-130045464D01*
X125281946Y-129963664D01*
X125276275Y-129958611D01*
X125268889Y-129954700D01*
X125191655Y-129913807D01*
X125136274Y-129884484D01*
X124982633Y-129845892D01*
X124975034Y-129845852D01*
X124975033Y-129845852D01*
X124909181Y-129845507D01*
X124824221Y-129845062D01*
X124816841Y-129846834D01*
X124816839Y-129846834D01*
X124677563Y-129880271D01*
X124677560Y-129880272D01*
X124670184Y-129882043D01*
X124529414Y-129954700D01*
X124410039Y-130058838D01*
X124405672Y-130065051D01*
X124405667Y-130065057D01*
X124404336Y-130066951D01*
X124403013Y-130068005D01*
X124400589Y-130070697D01*
X124400140Y-130070293D01*
X124348802Y-130111183D01*
X124301250Y-130120500D01*
X123706751Y-130120500D01*
X123638630Y-130100498D01*
X123602911Y-130065867D01*
X123601622Y-130063992D01*
X123592360Y-130050515D01*
X123474082Y-129945134D01*
X123466696Y-129941223D01*
X123361499Y-129885524D01*
X123334081Y-129871007D01*
X123180440Y-129832415D01*
X123172841Y-129832375D01*
X123172840Y-129832375D01*
X123106988Y-129832030D01*
X123022028Y-129831585D01*
X123014648Y-129833357D01*
X123014646Y-129833357D01*
X122875370Y-129866794D01*
X122875367Y-129866795D01*
X122867991Y-129868566D01*
X122727221Y-129941223D01*
X122607846Y-130045361D01*
X122516757Y-130174967D01*
X122459213Y-130322560D01*
X122458221Y-130330093D01*
X122458221Y-130330094D01*
X122443615Y-130441042D01*
X122438536Y-130479619D01*
X118254000Y-130479619D01*
X118254000Y-126893096D01*
X121340729Y-126893096D01*
X121349421Y-126971825D01*
X121355729Y-127028957D01*
X121358113Y-127050553D01*
X121360723Y-127057684D01*
X121360723Y-127057686D01*
X121407520Y-127185565D01*
X121412553Y-127199319D01*
X121416789Y-127205622D01*
X121416789Y-127205623D01*
X121493309Y-127319496D01*
X121500908Y-127330805D01*
X121506527Y-127335918D01*
X121506528Y-127335919D01*
X121602892Y-127423603D01*
X121618076Y-127437419D01*
X121624751Y-127441043D01*
X121624752Y-127441044D01*
X121672224Y-127466820D01*
X121722545Y-127516903D01*
X121731414Y-127537049D01*
X121758517Y-127616893D01*
X121758521Y-127616903D01*
X121759843Y-127620797D01*
X121761664Y-127624490D01*
X121761665Y-127624492D01*
X121857358Y-127818537D01*
X121868813Y-127841766D01*
X122005693Y-128046622D01*
X122168141Y-128231859D01*
X122353378Y-128394307D01*
X122558234Y-128531187D01*
X122561933Y-128533011D01*
X122561938Y-128533014D01*
X122764396Y-128632855D01*
X122779203Y-128640157D01*
X122783101Y-128641480D01*
X122783103Y-128641481D01*
X123008596Y-128718026D01*
X123008600Y-128718027D01*
X123012506Y-128719353D01*
X123016550Y-128720157D01*
X123016556Y-128720159D01*
X123250106Y-128766615D01*
X123250109Y-128766615D01*
X123254149Y-128767419D01*
X123258260Y-128767688D01*
X123258264Y-128767689D01*
X123486714Y-128782662D01*
X123486867Y-128782679D01*
X123486974Y-128782679D01*
X123492482Y-128783040D01*
X123500000Y-128784231D01*
X123509793Y-128782680D01*
X123509794Y-128782680D01*
X123520077Y-128781051D01*
X123539788Y-128779500D01*
X128700141Y-128779500D01*
X128768262Y-128799502D01*
X128795522Y-128823169D01*
X128796672Y-128824501D01*
X128800908Y-128830805D01*
X128806525Y-128835916D01*
X128905960Y-128926394D01*
X128918076Y-128937419D01*
X129057293Y-129013008D01*
X129210522Y-129053207D01*
X129294477Y-129054526D01*
X129361319Y-129055576D01*
X129361322Y-129055576D01*
X129368916Y-129055695D01*
X129523332Y-129020329D01*
X129605471Y-128979018D01*
X129658072Y-128952563D01*
X129658075Y-128952561D01*
X129664855Y-128949151D01*
X129670626Y-128944222D01*
X129670629Y-128944220D01*
X129779536Y-128851204D01*
X129779536Y-128851203D01*
X129785314Y-128846269D01*
X129877755Y-128717624D01*
X129936842Y-128570641D01*
X129959162Y-128413807D01*
X129959307Y-128400000D01*
X129958289Y-128391583D01*
X129955102Y-128365254D01*
X129940276Y-128242733D01*
X129884280Y-128094546D01*
X129848983Y-128043188D01*
X129798855Y-127970251D01*
X129798854Y-127970249D01*
X129794553Y-127963992D01*
X129676275Y-127858611D01*
X129668889Y-127854700D01*
X129583304Y-127809385D01*
X129536274Y-127784484D01*
X129382633Y-127745892D01*
X129375034Y-127745852D01*
X129375033Y-127745852D01*
X129309181Y-127745507D01*
X129224221Y-127745062D01*
X129216841Y-127746834D01*
X129216839Y-127746834D01*
X129077563Y-127780271D01*
X129077560Y-127780272D01*
X129070184Y-127782043D01*
X128929414Y-127854700D01*
X128810039Y-127958838D01*
X128805672Y-127965051D01*
X128805667Y-127965057D01*
X128804336Y-127966951D01*
X128803013Y-127968005D01*
X128800589Y-127970697D01*
X128800140Y-127970293D01*
X128748802Y-128011183D01*
X128701250Y-128020500D01*
X123539788Y-128020500D01*
X123520077Y-128018949D01*
X123509794Y-128017320D01*
X123509793Y-128017320D01*
X123500000Y-128015769D01*
X123490205Y-128017321D01*
X123480289Y-128017321D01*
X123480289Y-128016946D01*
X123465348Y-128017468D01*
X123316409Y-128004437D01*
X123294780Y-128000624D01*
X123181584Y-127970293D01*
X123127413Y-127955778D01*
X123106778Y-127948267D01*
X122949737Y-127875038D01*
X122930717Y-127864056D01*
X122857813Y-127813008D01*
X122788786Y-127764675D01*
X122771962Y-127750558D01*
X122649442Y-127628038D01*
X122635324Y-127611213D01*
X122619299Y-127588326D01*
X122535944Y-127469283D01*
X122524962Y-127450261D01*
X122511129Y-127420595D01*
X122500468Y-127350404D01*
X122523000Y-127293823D01*
X122577755Y-127217624D01*
X122636842Y-127070641D01*
X122659162Y-126913807D01*
X122659307Y-126900000D01*
X122640276Y-126742733D01*
X122584280Y-126594546D01*
X122545018Y-126537419D01*
X122498855Y-126470251D01*
X122498854Y-126470249D01*
X122494553Y-126463992D01*
X122376275Y-126358611D01*
X122368889Y-126354700D01*
X122276210Y-126305629D01*
X122236274Y-126284484D01*
X122082633Y-126245892D01*
X122075034Y-126245852D01*
X122075033Y-126245852D01*
X122009181Y-126245507D01*
X121924221Y-126245062D01*
X121916841Y-126246834D01*
X121916839Y-126246834D01*
X121777563Y-126280271D01*
X121777560Y-126280272D01*
X121770184Y-126282043D01*
X121629414Y-126354700D01*
X121510039Y-126458838D01*
X121418950Y-126588444D01*
X121402398Y-126630897D01*
X121365596Y-126725291D01*
X121361406Y-126736037D01*
X121360414Y-126743570D01*
X121360414Y-126743571D01*
X121342160Y-126882228D01*
X121340729Y-126893096D01*
X118254000Y-126893096D01*
X118254000Y-125093096D01*
X123740729Y-125093096D01*
X123758113Y-125250553D01*
X123760723Y-125257684D01*
X123760723Y-125257686D01*
X123789122Y-125335289D01*
X123812553Y-125399319D01*
X123816789Y-125405622D01*
X123816789Y-125405623D01*
X123869612Y-125484231D01*
X123900908Y-125530805D01*
X123906527Y-125535918D01*
X123906528Y-125535919D01*
X123911770Y-125540689D01*
X124018076Y-125637419D01*
X124157293Y-125713008D01*
X124310522Y-125753207D01*
X124394477Y-125754526D01*
X124461319Y-125755576D01*
X124461322Y-125755576D01*
X124468916Y-125755695D01*
X124623332Y-125720329D01*
X124707588Y-125677953D01*
X124758072Y-125652563D01*
X124758075Y-125652561D01*
X124764855Y-125649151D01*
X124770626Y-125644222D01*
X124770629Y-125644220D01*
X124879542Y-125551199D01*
X124879543Y-125551198D01*
X124885314Y-125546269D01*
X124895586Y-125531974D01*
X124951581Y-125488326D01*
X124997909Y-125479500D01*
X130923238Y-125479500D01*
X130991359Y-125499502D01*
X131037852Y-125553158D01*
X131047956Y-125623432D01*
X131026323Y-125677953D01*
X131023320Y-125682225D01*
X131023317Y-125682230D01*
X131018950Y-125688444D01*
X130961406Y-125836037D01*
X130940729Y-125993096D01*
X130958113Y-126150553D01*
X130960723Y-126157684D01*
X130960723Y-126157686D01*
X131007505Y-126285524D01*
X131012553Y-126299319D01*
X131016788Y-126305622D01*
X131016792Y-126305629D01*
X131055252Y-126362863D01*
X131076645Y-126430560D01*
X131058041Y-126499076D01*
X131005348Y-126546657D01*
X130980085Y-126555658D01*
X130877564Y-126580271D01*
X130877562Y-126580272D01*
X130870184Y-126582043D01*
X130729414Y-126654700D01*
X130610039Y-126758838D01*
X130518950Y-126888444D01*
X130461406Y-127036037D01*
X130460414Y-127043570D01*
X130460414Y-127043571D01*
X130444604Y-127163665D01*
X130440729Y-127193096D01*
X130443437Y-127217624D01*
X130455933Y-127330805D01*
X130458113Y-127350553D01*
X130460723Y-127357684D01*
X130460723Y-127357686D01*
X130509271Y-127490350D01*
X130512553Y-127499319D01*
X130516789Y-127505622D01*
X130516789Y-127505623D01*
X130594731Y-127621612D01*
X130600908Y-127630805D01*
X130606527Y-127635918D01*
X130606528Y-127635919D01*
X130696615Y-127717891D01*
X130718076Y-127737419D01*
X130857293Y-127813008D01*
X131010522Y-127853207D01*
X131094477Y-127854526D01*
X131161319Y-127855576D01*
X131161322Y-127855576D01*
X131168916Y-127855695D01*
X131323332Y-127820329D01*
X131433987Y-127764676D01*
X131458072Y-127752563D01*
X131458075Y-127752561D01*
X131464855Y-127749151D01*
X131470626Y-127744222D01*
X131470629Y-127744220D01*
X131579542Y-127651199D01*
X131579543Y-127651198D01*
X131585314Y-127646269D01*
X131595586Y-127631974D01*
X131651581Y-127588326D01*
X131697909Y-127579500D01*
X138660212Y-127579500D01*
X138679923Y-127581051D01*
X138690206Y-127582680D01*
X138690207Y-127582680D01*
X138700000Y-127584231D01*
X138709797Y-127582679D01*
X138710152Y-127582679D01*
X138729868Y-127584231D01*
X138748429Y-127587171D01*
X138785921Y-127599353D01*
X138811829Y-127612554D01*
X138843720Y-127635725D01*
X138864275Y-127656280D01*
X138887446Y-127688171D01*
X138900647Y-127714079D01*
X138912830Y-127751573D01*
X138915770Y-127770136D01*
X138917321Y-127789846D01*
X138917321Y-127790203D01*
X138915769Y-127800000D01*
X138917321Y-127809795D01*
X138917321Y-127810170D01*
X138918312Y-127818537D01*
X138920884Y-127851219D01*
X138931420Y-127985085D01*
X138932574Y-127989892D01*
X138932575Y-127989898D01*
X138946939Y-128049728D01*
X138974761Y-128165613D01*
X139045809Y-128337137D01*
X139142814Y-128495436D01*
X139146029Y-128499200D01*
X139146031Y-128499203D01*
X139200617Y-128563115D01*
X139263389Y-128636611D01*
X139267145Y-128639819D01*
X139365472Y-128723798D01*
X139404564Y-128757186D01*
X139408787Y-128759774D01*
X139408790Y-128759776D01*
X139421703Y-128767689D01*
X139562863Y-128854191D01*
X139672158Y-128899463D01*
X139729814Y-128923345D01*
X139729816Y-128923346D01*
X139734387Y-128925239D01*
X139797705Y-128940440D01*
X139910102Y-128967425D01*
X139910108Y-128967426D01*
X139914915Y-128968580D01*
X140025012Y-128977245D01*
X140031511Y-128978196D01*
X140033851Y-128979018D01*
X140039416Y-128979500D01*
X140048709Y-128979500D01*
X140058594Y-128979888D01*
X140081466Y-128981688D01*
X140089836Y-128982679D01*
X140090203Y-128982679D01*
X140100000Y-128984231D01*
X140109793Y-128982680D01*
X140109794Y-128982680D01*
X140120077Y-128981051D01*
X140139788Y-128979500D01*
X140560212Y-128979500D01*
X140579923Y-128981051D01*
X140590206Y-128982680D01*
X140590207Y-128982680D01*
X140600000Y-128984231D01*
X140609797Y-128982679D01*
X140610164Y-128982679D01*
X140618531Y-128981688D01*
X140785085Y-128968580D01*
X140789892Y-128967426D01*
X140789898Y-128967425D01*
X140902295Y-128940440D01*
X140965613Y-128925239D01*
X140970184Y-128923346D01*
X140970186Y-128923345D01*
X141027842Y-128899463D01*
X141137137Y-128854191D01*
X141278297Y-128767689D01*
X141291210Y-128759776D01*
X141291213Y-128759774D01*
X141295436Y-128757186D01*
X141334529Y-128723798D01*
X141432855Y-128639819D01*
X141436611Y-128636611D01*
X141499383Y-128563115D01*
X141553969Y-128499203D01*
X141553971Y-128499200D01*
X141557186Y-128495436D01*
X141619158Y-128394307D01*
X141651605Y-128341357D01*
X141651606Y-128341356D01*
X141654191Y-128337137D01*
X141656085Y-128332565D01*
X141657001Y-128330767D01*
X141705749Y-128279153D01*
X141712653Y-128275406D01*
X141758071Y-128252563D01*
X141764855Y-128249151D01*
X141770626Y-128244222D01*
X141770629Y-128244220D01*
X141879536Y-128151204D01*
X141879536Y-128151203D01*
X141885314Y-128146269D01*
X141977755Y-128017624D01*
X142036842Y-127870641D01*
X142046895Y-127800000D01*
X142058581Y-127717891D01*
X142058581Y-127717888D01*
X142059162Y-127713807D01*
X142059307Y-127700000D01*
X142040276Y-127542733D01*
X141984280Y-127394546D01*
X141902627Y-127275740D01*
X141898855Y-127270251D01*
X141898854Y-127270249D01*
X141894553Y-127263992D01*
X141776275Y-127158611D01*
X141768889Y-127154700D01*
X141730565Y-127134409D01*
X141636274Y-127084484D01*
X141482633Y-127045892D01*
X141475034Y-127045852D01*
X141475033Y-127045852D01*
X141409181Y-127045507D01*
X141324221Y-127045062D01*
X141316841Y-127046834D01*
X141316839Y-127046834D01*
X141177563Y-127080271D01*
X141177560Y-127080272D01*
X141170184Y-127082043D01*
X141029414Y-127154700D01*
X140910039Y-127258838D01*
X140905672Y-127265051D01*
X140905668Y-127265056D01*
X140903542Y-127268081D01*
X140901430Y-127269763D01*
X140900589Y-127270697D01*
X140900433Y-127270557D01*
X140848007Y-127312311D01*
X140777375Y-127319496D01*
X140714071Y-127287353D01*
X140704115Y-127275740D01*
X140703878Y-127275949D01*
X140698855Y-127270251D01*
X140694553Y-127263992D01*
X140576275Y-127158611D01*
X140569563Y-127155057D01*
X140569560Y-127155055D01*
X140473330Y-127104104D01*
X140424857Y-127058585D01*
X140415657Y-127043571D01*
X140319491Y-126886643D01*
X140178471Y-126721529D01*
X140013357Y-126580509D01*
X139828217Y-126467055D01*
X139823647Y-126465162D01*
X139823643Y-126465160D01*
X139632180Y-126385854D01*
X139632178Y-126385853D01*
X139627607Y-126383960D01*
X139522021Y-126358611D01*
X139421281Y-126334425D01*
X139421275Y-126334424D01*
X139416468Y-126333270D01*
X139270452Y-126321778D01*
X139266961Y-126321267D01*
X139266149Y-126320982D01*
X139263370Y-126320741D01*
X139263368Y-126320741D01*
X139263311Y-126320736D01*
X139260584Y-126320500D01*
X139257872Y-126320500D01*
X139255143Y-126320382D01*
X139255145Y-126320342D01*
X139249280Y-126320112D01*
X139234500Y-126318949D01*
X139205835Y-126316693D01*
X139200000Y-126315769D01*
X139185062Y-126318135D01*
X139179923Y-126318949D01*
X139160212Y-126320500D01*
X132359949Y-126320500D01*
X132291828Y-126300498D01*
X132245335Y-126246842D01*
X132235231Y-126176568D01*
X132236035Y-126172647D01*
X132236842Y-126170641D01*
X132240776Y-126143003D01*
X132258581Y-126017891D01*
X132258581Y-126017888D01*
X132259162Y-126013807D01*
X132259307Y-126000000D01*
X132240276Y-125842733D01*
X132184280Y-125694546D01*
X132175812Y-125682225D01*
X132172129Y-125676865D01*
X132150030Y-125609396D01*
X132167917Y-125540689D01*
X132220109Y-125492559D01*
X132275970Y-125479500D01*
X148260211Y-125479500D01*
X148279921Y-125481051D01*
X148299999Y-125484231D01*
X148308560Y-125482875D01*
X148310789Y-125482680D01*
X148311407Y-125482680D01*
X148312934Y-125482492D01*
X148488169Y-125467162D01*
X148609069Y-125434767D01*
X148665311Y-125419697D01*
X148665313Y-125419696D01*
X148670621Y-125418274D01*
X148726569Y-125392185D01*
X148836825Y-125340772D01*
X148836830Y-125340769D01*
X148841812Y-125338446D01*
X148967336Y-125250553D01*
X148992029Y-125233263D01*
X148992032Y-125233261D01*
X148996540Y-125230104D01*
X149130104Y-125096540D01*
X149133262Y-125092030D01*
X149133267Y-125092024D01*
X149148039Y-125070927D01*
X149203496Y-125026598D01*
X149208886Y-125024891D01*
X149208781Y-125024598D01*
X149215928Y-125022025D01*
X149223332Y-125020329D01*
X149230627Y-125016660D01*
X149237885Y-125013010D01*
X149307730Y-125000270D01*
X149373374Y-125027314D01*
X149413976Y-125085555D01*
X149420500Y-125125574D01*
X149420500Y-129305187D01*
X149400498Y-129373308D01*
X149377330Y-129400135D01*
X149310039Y-129458838D01*
X149218950Y-129588444D01*
X149161406Y-129736037D01*
X149160414Y-129743570D01*
X149160414Y-129743571D01*
X149141726Y-129885524D01*
X149140729Y-129893096D01*
X149146082Y-129941578D01*
X149156989Y-130040369D01*
X149158113Y-130050553D01*
X149160723Y-130057684D01*
X149160723Y-130057686D01*
X149203642Y-130174967D01*
X149212553Y-130199319D01*
X149216789Y-130205622D01*
X149216789Y-130205623D01*
X149295368Y-130322560D01*
X149300908Y-130330805D01*
X149306527Y-130335918D01*
X149306528Y-130335919D01*
X149314017Y-130342733D01*
X149418076Y-130437419D01*
X149557293Y-130513008D01*
X149710522Y-130553207D01*
X149794477Y-130554526D01*
X149861319Y-130555576D01*
X149861322Y-130555576D01*
X149868916Y-130555695D01*
X150023332Y-130520329D01*
X150104276Y-130479619D01*
X150158072Y-130452563D01*
X150158075Y-130452561D01*
X150164855Y-130449151D01*
X150170626Y-130444222D01*
X150170629Y-130444220D01*
X150279536Y-130351204D01*
X150279536Y-130351203D01*
X150285314Y-130346269D01*
X150377755Y-130217624D01*
X150436842Y-130070641D01*
X150459162Y-129913807D01*
X150459307Y-129900000D01*
X150440276Y-129742733D01*
X150384280Y-129594546D01*
X150294553Y-129463992D01*
X150221681Y-129399065D01*
X150184126Y-129338816D01*
X150179500Y-129304989D01*
X150179500Y-118039788D01*
X150181051Y-118020077D01*
X150182680Y-118009794D01*
X150182680Y-118009793D01*
X150184231Y-118000000D01*
X150182679Y-117990205D01*
X150182679Y-117980290D01*
X150182834Y-117980290D01*
X150182240Y-117965180D01*
X150194979Y-117803313D01*
X150198072Y-117783785D01*
X150211520Y-117727771D01*
X150241816Y-117601579D01*
X150247924Y-117582780D01*
X150319632Y-117409662D01*
X150328602Y-117392057D01*
X150426513Y-117232280D01*
X150438130Y-117216291D01*
X150559826Y-117073804D01*
X150573805Y-117059825D01*
X150591082Y-117045069D01*
X150716291Y-116938130D01*
X150732280Y-116926513D01*
X150892057Y-116828602D01*
X150909662Y-116819632D01*
X150965573Y-116796473D01*
X151036162Y-116788884D01*
X151098590Y-116819689D01*
X151112455Y-116832305D01*
X151112459Y-116832308D01*
X151118076Y-116837419D01*
X151257293Y-116913008D01*
X151410522Y-116953207D01*
X151494477Y-116954526D01*
X151561319Y-116955576D01*
X151561322Y-116955576D01*
X151568916Y-116955695D01*
X151723332Y-116920329D01*
X151793742Y-116884917D01*
X151858072Y-116852563D01*
X151858075Y-116852561D01*
X151864855Y-116849151D01*
X151870626Y-116844222D01*
X151870629Y-116844220D01*
X151979536Y-116751204D01*
X151979536Y-116751203D01*
X151985314Y-116746269D01*
X152077755Y-116617624D01*
X152136842Y-116470641D01*
X152159162Y-116313807D01*
X152159307Y-116300000D01*
X152140276Y-116142733D01*
X152084280Y-115994546D01*
X151994553Y-115863992D01*
X151876275Y-115758611D01*
X151868889Y-115754700D01*
X151742988Y-115688039D01*
X151742989Y-115688039D01*
X151736274Y-115684484D01*
X151582633Y-115645892D01*
X151575034Y-115645852D01*
X151575033Y-115645852D01*
X151509181Y-115645507D01*
X151424221Y-115645062D01*
X151416841Y-115646834D01*
X151416839Y-115646834D01*
X151277563Y-115680271D01*
X151277560Y-115680272D01*
X151270184Y-115682043D01*
X151129414Y-115754700D01*
X151010039Y-115858838D01*
X150958421Y-115932283D01*
X150930825Y-115971548D01*
X150875290Y-116015779D01*
X150868240Y-116018410D01*
X150702502Y-116074670D01*
X150667257Y-116092051D01*
X150461723Y-116193408D01*
X150461718Y-116193411D01*
X150458019Y-116195235D01*
X150454586Y-116197529D01*
X150234795Y-116344388D01*
X150234790Y-116344392D01*
X150231364Y-116346681D01*
X150228270Y-116349395D01*
X150228264Y-116349399D01*
X150052760Y-116503313D01*
X150026416Y-116526416D01*
X150023707Y-116529505D01*
X149849399Y-116728264D01*
X149849395Y-116728270D01*
X149846681Y-116731364D01*
X149844392Y-116734790D01*
X149844388Y-116734795D01*
X149779234Y-116832305D01*
X149695235Y-116958019D01*
X149574670Y-117202502D01*
X149573345Y-117206407D01*
X149573344Y-117206408D01*
X149504347Y-117409668D01*
X149487047Y-117460631D01*
X149433866Y-117727989D01*
X149416228Y-117997103D01*
X149415769Y-118000000D01*
X149417320Y-118009793D01*
X149417320Y-118009794D01*
X149418949Y-118020077D01*
X149420500Y-118039788D01*
X149420500Y-123672849D01*
X149400498Y-123740970D01*
X149346842Y-123787463D01*
X149276568Y-123797567D01*
X149249341Y-123790478D01*
X149242989Y-123788039D01*
X149236274Y-123784484D01*
X149082633Y-123745892D01*
X149075034Y-123745852D01*
X149075033Y-123745852D01*
X149009181Y-123745507D01*
X148924221Y-123745062D01*
X148916841Y-123746834D01*
X148916839Y-123746834D01*
X148777563Y-123780271D01*
X148777560Y-123780272D01*
X148770184Y-123782043D01*
X148629414Y-123854700D01*
X148552240Y-123922024D01*
X148522644Y-123947842D01*
X148458162Y-123977550D01*
X148387854Y-123967681D01*
X148335974Y-123924260D01*
X148298855Y-123870251D01*
X148298854Y-123870249D01*
X148294553Y-123863992D01*
X148288514Y-123858611D01*
X148258260Y-123831656D01*
X148176275Y-123758611D01*
X148168889Y-123754700D01*
X148123759Y-123730805D01*
X148036274Y-123684484D01*
X147882633Y-123645892D01*
X147875034Y-123645852D01*
X147875033Y-123645852D01*
X147809181Y-123645507D01*
X147724221Y-123645062D01*
X147716841Y-123646834D01*
X147716839Y-123646834D01*
X147577563Y-123680271D01*
X147577560Y-123680272D01*
X147570184Y-123682043D01*
X147429414Y-123754700D01*
X147310039Y-123858838D01*
X147218950Y-123988444D01*
X147161406Y-124136037D01*
X147159368Y-124135242D01*
X147128650Y-124186844D01*
X147065116Y-124218531D01*
X147042926Y-124220500D01*
X128939788Y-124220500D01*
X128920077Y-124218949D01*
X128917438Y-124218531D01*
X128900000Y-124215769D01*
X128890206Y-124217320D01*
X128880292Y-124217320D01*
X128880292Y-124216297D01*
X128865590Y-124216622D01*
X128802615Y-124209527D01*
X128775106Y-124203248D01*
X128696010Y-124175571D01*
X128670589Y-124163329D01*
X128599629Y-124118742D01*
X128577570Y-124101150D01*
X128518316Y-124041896D01*
X128500738Y-124019859D01*
X128500435Y-124019377D01*
X128481114Y-123951060D01*
X128504785Y-123878795D01*
X128597221Y-123750157D01*
X128656308Y-123603174D01*
X128663704Y-123551204D01*
X128678047Y-123450424D01*
X128678047Y-123450421D01*
X128678628Y-123446340D01*
X128678773Y-123432533D01*
X128659742Y-123275266D01*
X128603746Y-123127079D01*
X128606485Y-123126044D01*
X128595284Y-123069714D01*
X128621283Y-123003650D01*
X128678872Y-122962128D01*
X128722761Y-122954970D01*
X128724184Y-122954992D01*
X128761319Y-122955576D01*
X128761322Y-122955576D01*
X128768916Y-122955695D01*
X128923332Y-122920329D01*
X129022902Y-122870251D01*
X129058072Y-122852563D01*
X129058075Y-122852561D01*
X129064855Y-122849151D01*
X129070626Y-122844222D01*
X129070629Y-122844220D01*
X129179542Y-122751199D01*
X129179543Y-122751198D01*
X129185314Y-122746269D01*
X129195586Y-122731974D01*
X129251581Y-122688326D01*
X129297909Y-122679500D01*
X136139714Y-122679500D01*
X136159425Y-122681051D01*
X136169708Y-122682680D01*
X136169709Y-122682680D01*
X136179502Y-122684231D01*
X136189298Y-122682679D01*
X136195390Y-122682679D01*
X136211840Y-122683757D01*
X136268846Y-122691262D01*
X136333773Y-122719985D01*
X136372864Y-122779250D01*
X136373709Y-122850241D01*
X136369794Y-122861949D01*
X136340908Y-122936037D01*
X136339916Y-122943570D01*
X136339916Y-122943571D01*
X136332007Y-123003650D01*
X136320231Y-123093096D01*
X136337615Y-123250553D01*
X136340225Y-123257684D01*
X136340225Y-123257686D01*
X136357223Y-123304134D01*
X136392055Y-123399319D01*
X136396291Y-123405622D01*
X136396291Y-123405623D01*
X136444722Y-123477695D01*
X136480410Y-123530805D01*
X136486029Y-123535918D01*
X136486030Y-123535919D01*
X136591962Y-123632309D01*
X136597578Y-123637419D01*
X136736795Y-123713008D01*
X136890024Y-123753207D01*
X136973979Y-123754526D01*
X137040821Y-123755576D01*
X137040824Y-123755576D01*
X137048418Y-123755695D01*
X137202834Y-123720329D01*
X137282481Y-123680271D01*
X137337574Y-123652563D01*
X137337577Y-123652561D01*
X137344357Y-123649151D01*
X137350128Y-123644222D01*
X137350131Y-123644220D01*
X137459038Y-123551204D01*
X137459038Y-123551203D01*
X137464816Y-123546269D01*
X137557257Y-123417624D01*
X137616344Y-123270641D01*
X137634428Y-123143571D01*
X137638083Y-123117891D01*
X137638083Y-123117888D01*
X137638664Y-123113807D01*
X137638809Y-123100000D01*
X137619778Y-122942733D01*
X137563782Y-122794546D01*
X137552702Y-122778425D01*
X137478357Y-122670251D01*
X137478356Y-122670249D01*
X137474055Y-122663992D01*
X137355777Y-122558611D01*
X137215776Y-122484484D01*
X137214858Y-122484253D01*
X137160684Y-122442887D01*
X137154835Y-122434178D01*
X137136688Y-122404564D01*
X137016113Y-122263389D01*
X136874938Y-122142814D01*
X136870715Y-122140226D01*
X136870712Y-122140224D01*
X136773147Y-122080437D01*
X136716639Y-122045809D01*
X136595241Y-121995524D01*
X136549688Y-121976655D01*
X136549686Y-121976654D01*
X136545115Y-121974761D01*
X136456486Y-121953483D01*
X136369400Y-121932575D01*
X136369394Y-121932574D01*
X136364587Y-121931420D01*
X136254490Y-121922755D01*
X136247991Y-121921804D01*
X136245651Y-121920982D01*
X136240086Y-121920500D01*
X136230793Y-121920500D01*
X136220908Y-121920112D01*
X136198036Y-121918312D01*
X136189666Y-121917321D01*
X136189299Y-121917321D01*
X136179502Y-121915769D01*
X136169709Y-121917320D01*
X136169708Y-121917320D01*
X136159425Y-121918949D01*
X136139714Y-121920500D01*
X129299682Y-121920500D01*
X129231561Y-121900498D01*
X129205114Y-121874860D01*
X129203878Y-121875949D01*
X129198855Y-121870251D01*
X129194553Y-121863992D01*
X129076275Y-121758611D01*
X129068889Y-121754700D01*
X129030565Y-121734409D01*
X128936274Y-121684484D01*
X128782633Y-121645892D01*
X128775034Y-121645852D01*
X128775033Y-121645852D01*
X128709181Y-121645507D01*
X128624221Y-121645062D01*
X128616841Y-121646834D01*
X128616839Y-121646834D01*
X128477563Y-121680271D01*
X128477560Y-121680272D01*
X128470184Y-121682043D01*
X128329414Y-121754700D01*
X128210039Y-121858838D01*
X128118950Y-121988444D01*
X128061406Y-122136037D01*
X128060414Y-122143570D01*
X128060414Y-122143571D01*
X128041978Y-122283610D01*
X128040729Y-122293096D01*
X128041563Y-122300646D01*
X128057267Y-122442887D01*
X128058113Y-122450553D01*
X128111591Y-122596690D01*
X128112553Y-122599319D01*
X128112115Y-122599479D01*
X128124318Y-122664454D01*
X128097620Y-122730239D01*
X128039593Y-122771147D01*
X127998287Y-122777881D01*
X127985752Y-122777815D01*
X127943687Y-122777595D01*
X127936307Y-122779367D01*
X127936305Y-122779367D01*
X127797029Y-122812804D01*
X127797026Y-122812805D01*
X127789650Y-122814576D01*
X127648880Y-122887233D01*
X127529505Y-122991371D01*
X127438416Y-123120977D01*
X127429934Y-123142733D01*
X127387897Y-123250553D01*
X127380872Y-123268570D01*
X127379880Y-123276103D01*
X127379880Y-123276104D01*
X127361249Y-123417624D01*
X127360195Y-123425629D01*
X127364334Y-123463115D01*
X127372833Y-123540095D01*
X127377579Y-123583086D01*
X127380189Y-123590217D01*
X127380189Y-123590219D01*
X127429329Y-123724500D01*
X127432019Y-123731852D01*
X127436255Y-123738155D01*
X127436255Y-123738156D01*
X127513996Y-123853846D01*
X127520374Y-123863338D01*
X127525993Y-123868451D01*
X127525994Y-123868452D01*
X127637542Y-123969952D01*
X127636466Y-123971135D01*
X127674916Y-124019931D01*
X127680505Y-124037458D01*
X127687515Y-124066658D01*
X127697931Y-124110042D01*
X127699824Y-124114613D01*
X127699825Y-124114615D01*
X127742870Y-124218533D01*
X127773830Y-124293278D01*
X127877459Y-124462386D01*
X127920407Y-124512671D01*
X127949436Y-124577460D01*
X127938831Y-124647660D01*
X127891955Y-124700982D01*
X127824594Y-124720500D01*
X124999682Y-124720500D01*
X124931561Y-124700498D01*
X124905114Y-124674860D01*
X124903878Y-124675949D01*
X124898855Y-124670251D01*
X124894553Y-124663992D01*
X124776275Y-124558611D01*
X124768889Y-124554700D01*
X124642988Y-124488039D01*
X124642989Y-124488039D01*
X124636274Y-124484484D01*
X124482633Y-124445892D01*
X124475034Y-124445852D01*
X124475033Y-124445852D01*
X124409181Y-124445507D01*
X124324221Y-124445062D01*
X124316841Y-124446834D01*
X124316839Y-124446834D01*
X124177563Y-124480271D01*
X124177560Y-124480272D01*
X124170184Y-124482043D01*
X124029414Y-124554700D01*
X123910039Y-124658838D01*
X123818950Y-124788444D01*
X123761406Y-124936037D01*
X123760414Y-124943570D01*
X123760414Y-124943571D01*
X123741722Y-125085555D01*
X123740729Y-125093096D01*
X118254000Y-125093096D01*
X118254000Y-108380000D01*
X118274002Y-108311879D01*
X118327658Y-108265386D01*
X118380000Y-108254000D01*
X122293169Y-108254000D01*
X122361290Y-108274002D01*
G37*
%TD.AperFunction*%
%TD*%
M02*
