%TF.GenerationSoftware,KiCad,Pcbnew,(6.0.2-0)*%
%TF.CreationDate,2022-02-23T09:01:42+00:00*%
%TF.ProjectId,ASR33,41535233-332e-46b6-9963-61645f706362,1*%
%TF.SameCoordinates,Original*%
%TF.FileFunction,Copper,L2,Bot*%
%TF.FilePolarity,Positive*%
%FSLAX46Y46*%
G04 Gerber Fmt 4.6, Leading zero omitted, Abs format (unit mm)*
G04 Created by KiCad (PCBNEW (6.0.2-0)) date 2022-02-23 09:01:42*
%MOMM*%
%LPD*%
G01*
G04 APERTURE LIST*
G04 Aperture macros list*
%AMRoundRect*
0 Rectangle with rounded corners*
0 $1 Rounding radius*
0 $2 $3 $4 $5 $6 $7 $8 $9 X,Y pos of 4 corners*
0 Add a 4 corners polygon primitive as box body*
4,1,4,$2,$3,$4,$5,$6,$7,$8,$9,$2,$3,0*
0 Add four circle primitives for the rounded corners*
1,1,$1+$1,$2,$3*
1,1,$1+$1,$4,$5*
1,1,$1+$1,$6,$7*
1,1,$1+$1,$8,$9*
0 Add four rect primitives between the rounded corners*
20,1,$1+$1,$2,$3,$4,$5,0*
20,1,$1+$1,$4,$5,$6,$7,0*
20,1,$1+$1,$6,$7,$8,$9,0*
20,1,$1+$1,$8,$9,$2,$3,0*%
G04 Aperture macros list end*
%ADD10C,0.100000*%
%TA.AperFunction,NonConductor*%
%ADD11C,0.100000*%
%TD*%
%TA.AperFunction,EtchedComponent*%
%ADD12C,0.080000*%
%TD*%
%TA.AperFunction,EtchedComponent*%
%ADD13C,0.250000*%
%TD*%
%TA.AperFunction,SMDPad,CuDef*%
%ADD14R,1.400000X0.200000*%
%TD*%
%TA.AperFunction,SMDPad,CuDef*%
%ADD15R,0.200000X0.800000*%
%TD*%
%TA.AperFunction,SMDPad,CuDef*%
%ADD16R,0.200000X0.200000*%
%TD*%
%TA.AperFunction,SMDPad,CuDef*%
%ADD17R,0.200000X1.200000*%
%TD*%
%TA.AperFunction,SMDPad,CuDef*%
%ADD18R,0.200000X0.400000*%
%TD*%
%TA.AperFunction,SMDPad,CuDef*%
%ADD19R,0.600000X0.600000*%
%TD*%
%TA.AperFunction,SMDPad,CuDef*%
%ADD20R,0.400000X0.200000*%
%TD*%
%TA.AperFunction,SMDPad,CuDef*%
%ADD21R,1.000000X0.200000*%
%TD*%
%TA.AperFunction,SMDPad,CuDef*%
%ADD22R,0.200000X1.000000*%
%TD*%
%TA.AperFunction,SMDPad,CuDef*%
%ADD23R,0.800000X0.200000*%
%TD*%
%TA.AperFunction,SMDPad,CuDef*%
%ADD24R,0.200000X0.600000*%
%TD*%
%TA.AperFunction,SMDPad,CuDef*%
%ADD25R,0.400000X0.400000*%
%TD*%
%TA.AperFunction,SMDPad,CuDef*%
%ADD26R,0.600000X0.200000*%
%TD*%
%TA.AperFunction,ComponentPad*%
%ADD27C,2.000000*%
%TD*%
%TA.AperFunction,ComponentPad*%
%ADD28C,0.600000*%
%TD*%
%TA.AperFunction,ComponentPad*%
%ADD29C,1.250000*%
%TD*%
%TA.AperFunction,ComponentPad*%
%ADD30C,1.500000*%
%TD*%
%TA.AperFunction,ComponentPad*%
%ADD31RoundRect,0.250000X-0.600000X-0.675000X0.600000X-0.675000X0.600000X0.675000X-0.600000X0.675000X0*%
%TD*%
%TA.AperFunction,ComponentPad*%
%ADD32O,1.700000X1.850000*%
%TD*%
%TA.AperFunction,ViaPad*%
%ADD33C,0.800000*%
%TD*%
%TA.AperFunction,Conductor*%
%ADD34C,0.250000*%
%TD*%
%TA.AperFunction,Conductor*%
%ADD35C,0.500000*%
%TD*%
G04 APERTURE END LIST*
D10*
D11*
X149880952Y-117023809D02*
X149880952Y-117976190D01*
X150166666Y-117214285D02*
X150166666Y-117785714D01*
X149452380Y-117500000D02*
X149880952Y-117500000D01*
X150452380Y-117595238D02*
X150452380Y-117404761D01*
D10*
D11*
X122380952Y-117023809D02*
X122380952Y-117976190D01*
X122666666Y-117214285D02*
X122666666Y-117785714D01*
X121952380Y-117500000D02*
X122380952Y-117500000D01*
X122952380Y-117595238D02*
X122952380Y-117404761D01*
D10*
D11*
X131952380Y-116119047D02*
X131952380Y-116690476D01*
X132952380Y-116404761D02*
X131952380Y-116404761D01*
X131952380Y-116928571D02*
X132952380Y-117595238D01*
X131952380Y-117595238D02*
X132952380Y-116928571D01*
X132571428Y-118738095D02*
X132571428Y-117976190D01*
X132761904Y-118166666D02*
X132571428Y-117976190D01*
X132380952Y-118166666D01*
D10*
D11*
X162952380Y-116285714D02*
X161952380Y-116285714D01*
X162666666Y-116619047D01*
X161952380Y-116952380D01*
X162952380Y-116952380D01*
X161952380Y-117285714D02*
X161952380Y-117857142D01*
X162952380Y-117571428D02*
X161952380Y-117571428D01*
X162952380Y-118761904D02*
X162476190Y-118428571D01*
X162952380Y-118190476D02*
X161952380Y-118190476D01*
X161952380Y-118571428D01*
X162000000Y-118666666D01*
X162047619Y-118714285D01*
X162142857Y-118761904D01*
X162285714Y-118761904D01*
X162380952Y-118714285D01*
X162428571Y-118666666D01*
X162476190Y-118571428D01*
X162476190Y-118190476D01*
D10*
D11*
X157380952Y-117023809D02*
X157380952Y-117976190D01*
X157666666Y-117214285D02*
X157666666Y-117785714D01*
X156952380Y-117500000D02*
X157380952Y-117500000D01*
X157952380Y-117595238D02*
X157952380Y-117404761D01*
D10*
D11*
X145452380Y-116714285D02*
X144976190Y-116380952D01*
X145452380Y-116142857D02*
X144452380Y-116142857D01*
X144452380Y-116523809D01*
X144500000Y-116619047D01*
X144547619Y-116666666D01*
X144642857Y-116714285D01*
X144785714Y-116714285D01*
X144880952Y-116666666D01*
X144928571Y-116619047D01*
X144976190Y-116523809D01*
X144976190Y-116142857D01*
X144452380Y-117047619D02*
X145452380Y-117714285D01*
X144452380Y-117714285D02*
X145452380Y-117047619D01*
X145071428Y-118095238D02*
X145071428Y-118857142D01*
X145261904Y-118666666D02*
X145071428Y-118857142D01*
X144880952Y-118666666D01*
D10*
D11*
X152952380Y-116761904D02*
X152476190Y-116428571D01*
X152952380Y-116190476D02*
X151952380Y-116190476D01*
X151952380Y-116571428D01*
X152000000Y-116666666D01*
X152047619Y-116714285D01*
X152142857Y-116761904D01*
X152285714Y-116761904D01*
X152380952Y-116714285D01*
X152428571Y-116666666D01*
X152476190Y-116571428D01*
X152476190Y-116190476D01*
X151952380Y-117190476D02*
X152761904Y-117190476D01*
X152857142Y-117238095D01*
X152904761Y-117285714D01*
X152952380Y-117380952D01*
X152952380Y-117571428D01*
X152904761Y-117666666D01*
X152857142Y-117714285D01*
X152761904Y-117761904D01*
X151952380Y-117761904D01*
X152952380Y-118238095D02*
X151952380Y-118238095D01*
X152952380Y-118809523D01*
X151952380Y-118809523D01*
D10*
D11*
X125452380Y-116738095D02*
X124452380Y-116738095D01*
X124452380Y-116976190D01*
X124500000Y-117119047D01*
X124595238Y-117214285D01*
X124690476Y-117261904D01*
X124880952Y-117309523D01*
X125023809Y-117309523D01*
X125214285Y-117261904D01*
X125309523Y-117214285D01*
X125404761Y-117119047D01*
X125452380Y-116976190D01*
X125452380Y-116738095D01*
X125357142Y-118309523D02*
X125404761Y-118261904D01*
X125452380Y-118119047D01*
X125452380Y-118023809D01*
X125404761Y-117880952D01*
X125309523Y-117785714D01*
X125214285Y-117738095D01*
X125023809Y-117690476D01*
X124880952Y-117690476D01*
X124690476Y-117738095D01*
X124595238Y-117785714D01*
X124500000Y-117880952D01*
X124452380Y-118023809D01*
X124452380Y-118119047D01*
X124500000Y-118261904D01*
X124547619Y-118309523D01*
D10*
D11*
X134452380Y-116119047D02*
X134452380Y-116690476D01*
X135452380Y-116404761D02*
X134452380Y-116404761D01*
X134452380Y-116928571D02*
X135452380Y-117595238D01*
X134452380Y-117595238D02*
X135452380Y-116928571D01*
X135071428Y-117976190D02*
X135071428Y-118738095D01*
X135261904Y-118547619D02*
X135071428Y-118738095D01*
X134880952Y-118547619D01*
D10*
D11*
X129452380Y-116119047D02*
X129452380Y-116690476D01*
X130452380Y-116404761D02*
X129452380Y-116404761D01*
X129452380Y-116928571D02*
X130452380Y-117595238D01*
X129452380Y-117595238D02*
X130452380Y-116928571D01*
X129880952Y-117880952D02*
X129880952Y-118833333D01*
X130166666Y-118071428D02*
X130166666Y-118642857D01*
X129452380Y-118357142D02*
X129880952Y-118357142D01*
X130452380Y-118452380D02*
X130452380Y-118261904D01*
D10*
D11*
X160452380Y-116166666D02*
X159452380Y-116166666D01*
X159452380Y-116547619D01*
X159500000Y-116642857D01*
X159547619Y-116690476D01*
X159642857Y-116738095D01*
X159785714Y-116738095D01*
X159880952Y-116690476D01*
X159928571Y-116642857D01*
X159976190Y-116547619D01*
X159976190Y-116166666D01*
X159452380Y-117071428D02*
X160452380Y-117309523D01*
X159738095Y-117500000D01*
X160452380Y-117690476D01*
X159452380Y-117928571D01*
X160452380Y-118880952D02*
X159976190Y-118547619D01*
X160452380Y-118309523D02*
X159452380Y-118309523D01*
X159452380Y-118690476D01*
X159500000Y-118785714D01*
X159547619Y-118833333D01*
X159642857Y-118880952D01*
X159785714Y-118880952D01*
X159880952Y-118833333D01*
X159928571Y-118785714D01*
X159976190Y-118690476D01*
X159976190Y-118309523D01*
D10*
D11*
X140452380Y-116714285D02*
X139976190Y-116380952D01*
X140452380Y-116142857D02*
X139452380Y-116142857D01*
X139452380Y-116523809D01*
X139500000Y-116619047D01*
X139547619Y-116666666D01*
X139642857Y-116714285D01*
X139785714Y-116714285D01*
X139880952Y-116666666D01*
X139928571Y-116619047D01*
X139976190Y-116523809D01*
X139976190Y-116142857D01*
X139452380Y-117047619D02*
X140452380Y-117714285D01*
X139452380Y-117714285D02*
X140452380Y-117047619D01*
X139880952Y-118000000D02*
X139880952Y-118952380D01*
X140166666Y-118190476D02*
X140166666Y-118761904D01*
X139452380Y-118476190D02*
X139880952Y-118476190D01*
X140452380Y-118571428D02*
X140452380Y-118380952D01*
D10*
D11*
X142952380Y-116714285D02*
X142476190Y-116380952D01*
X142952380Y-116142857D02*
X141952380Y-116142857D01*
X141952380Y-116523809D01*
X142000000Y-116619047D01*
X142047619Y-116666666D01*
X142142857Y-116714285D01*
X142285714Y-116714285D01*
X142380952Y-116666666D01*
X142428571Y-116619047D01*
X142476190Y-116523809D01*
X142476190Y-116142857D01*
X141952380Y-117047619D02*
X142952380Y-117714285D01*
X141952380Y-117714285D02*
X142952380Y-117047619D01*
X142571428Y-118857142D02*
X142571428Y-118095238D01*
X142761904Y-118285714D02*
X142571428Y-118095238D01*
X142380952Y-118285714D01*
D10*
%TO.C,U7*%
D11*
X142071428Y-103426190D02*
X142095238Y-103450000D01*
X142142857Y-103473809D01*
X142261904Y-103473809D01*
X142309523Y-103450000D01*
X142333333Y-103426190D01*
X142357142Y-103378571D01*
X142357142Y-103330952D01*
X142333333Y-103259523D01*
X142047619Y-102973809D01*
X142357142Y-102973809D01*
X142666666Y-103473809D02*
X142714285Y-103473809D01*
X142761904Y-103450000D01*
X142785714Y-103426190D01*
X142809523Y-103378571D01*
X142833333Y-103283333D01*
X142833333Y-103164285D01*
X142809523Y-103069047D01*
X142785714Y-103021428D01*
X142761904Y-102997619D01*
X142714285Y-102973809D01*
X142666666Y-102973809D01*
X142619047Y-102997619D01*
X142595238Y-103021428D01*
X142571428Y-103069047D01*
X142547619Y-103164285D01*
X142547619Y-103283333D01*
X142571428Y-103378571D01*
X142595238Y-103426190D01*
X142619047Y-103450000D01*
X142666666Y-103473809D01*
X143023809Y-103426190D02*
X143047619Y-103450000D01*
X143095238Y-103473809D01*
X143214285Y-103473809D01*
X143261904Y-103450000D01*
X143285714Y-103426190D01*
X143309523Y-103378571D01*
X143309523Y-103330952D01*
X143285714Y-103259523D01*
X143000000Y-102973809D01*
X143309523Y-102973809D01*
X143500000Y-103426190D02*
X143523809Y-103450000D01*
X143571428Y-103473809D01*
X143690476Y-103473809D01*
X143738095Y-103450000D01*
X143761904Y-103426190D01*
X143785714Y-103378571D01*
X143785714Y-103330952D01*
X143761904Y-103259523D01*
X143476190Y-102973809D01*
X143785714Y-102973809D01*
X144000000Y-103164285D02*
X144380952Y-103164285D01*
X144714285Y-103473809D02*
X144761904Y-103473809D01*
X144809523Y-103450000D01*
X144833333Y-103426190D01*
X144857142Y-103378571D01*
X144880952Y-103283333D01*
X144880952Y-103164285D01*
X144857142Y-103069047D01*
X144833333Y-103021428D01*
X144809523Y-102997619D01*
X144761904Y-102973809D01*
X144714285Y-102973809D01*
X144666666Y-102997619D01*
X144642857Y-103021428D01*
X144619047Y-103069047D01*
X144595238Y-103164285D01*
X144595238Y-103283333D01*
X144619047Y-103378571D01*
X144642857Y-103426190D01*
X144666666Y-103450000D01*
X144714285Y-103473809D01*
X145071428Y-103426190D02*
X145095238Y-103450000D01*
X145142857Y-103473809D01*
X145261904Y-103473809D01*
X145309523Y-103450000D01*
X145333333Y-103426190D01*
X145357142Y-103378571D01*
X145357142Y-103330952D01*
X145333333Y-103259523D01*
X145047619Y-102973809D01*
X145357142Y-102973809D01*
X145571428Y-103164285D02*
X145952380Y-103164285D01*
X146166666Y-103426190D02*
X146190476Y-103450000D01*
X146238095Y-103473809D01*
X146357142Y-103473809D01*
X146404761Y-103450000D01*
X146428571Y-103426190D01*
X146452380Y-103378571D01*
X146452380Y-103330952D01*
X146428571Y-103259523D01*
X146142857Y-102973809D01*
X146452380Y-102973809D01*
X146642857Y-103426190D02*
X146666666Y-103450000D01*
X146714285Y-103473809D01*
X146833333Y-103473809D01*
X146880952Y-103450000D01*
X146904761Y-103426190D01*
X146928571Y-103378571D01*
X146928571Y-103330952D01*
X146904761Y-103259523D01*
X146619047Y-102973809D01*
X146928571Y-102973809D01*
D12*
%TO.C,Logo1*%
X152750000Y-98515000D02*
X152850000Y-98515000D01*
D13*
X153600000Y-102725000D02*
X153600000Y-98525000D01*
D12*
X152750000Y-98675000D02*
X152750000Y-98375000D01*
D13*
X155400000Y-102625000D02*
X153600000Y-100625000D01*
X153600000Y-100625000D02*
X155400000Y-98525000D01*
D12*
X152850000Y-98515000D02*
X152950000Y-98375000D01*
D13*
X153600000Y-100625000D02*
X152100000Y-100625000D01*
X153600000Y-102725000D02*
X150600000Y-98525000D01*
D12*
X152750000Y-98675000D02*
X152850000Y-98675000D01*
X152850000Y-98675000D02*
G75*
G03*
X152850000Y-98515000I0J80000D01*
G01*
D13*
X153600000Y-98525000D02*
G75*
G03*
X152100000Y-98525000I-750000J0D01*
G01*
D12*
X153130000Y-98515000D02*
G75*
G03*
X153130000Y-98515000I-300000J0D01*
G01*
%TD*%
D14*
%TO.P,U7,*%
%TO.N,*%
X143100000Y-104800000D03*
D15*
X144300000Y-105100000D03*
D16*
X144900000Y-104800000D03*
D14*
X145900000Y-104800000D03*
D17*
X142500000Y-105500000D03*
X143700000Y-105500000D03*
D16*
X144100000Y-105000000D03*
D18*
X144700000Y-105100000D03*
D17*
X145300000Y-105500000D03*
X146500000Y-105500000D03*
D19*
X143100000Y-105400000D03*
X145900000Y-105400000D03*
D16*
X144100000Y-105400000D03*
D15*
X144500000Y-105900000D03*
D20*
X144200000Y-105800000D03*
D16*
X144700000Y-105800000D03*
D21*
X143100000Y-106000000D03*
D16*
X144100000Y-106000000D03*
D22*
X144900000Y-106400000D03*
D21*
X145900000Y-106000000D03*
X142900000Y-106400000D03*
D23*
X144000000Y-106400000D03*
D16*
X145100000Y-106400000D03*
X145500000Y-106400000D03*
X145900000Y-106400000D03*
X146300000Y-106400000D03*
D23*
X143200000Y-106600000D03*
D20*
X144000000Y-106600000D03*
D24*
X144500000Y-106800000D03*
D16*
X145300000Y-106600000D03*
D18*
X146500000Y-106700000D03*
D16*
X143300000Y-106800000D03*
D20*
X143800000Y-106800000D03*
D22*
X144300000Y-107200000D03*
D25*
X145600000Y-106900000D03*
D23*
X142800000Y-107000000D03*
D18*
X143500000Y-107100000D03*
D15*
X144100000Y-107300000D03*
X144700000Y-107300000D03*
D16*
X145100000Y-107000000D03*
D26*
X146100000Y-107000000D03*
D16*
X142700000Y-107200000D03*
X143100000Y-107200000D03*
X143700000Y-107200000D03*
X145700000Y-107200000D03*
X144500000Y-107400000D03*
D23*
X146200000Y-107400000D03*
D14*
X143100000Y-107600000D03*
D18*
X144900000Y-107700000D03*
X145300000Y-107700000D03*
D26*
X145900000Y-107600000D03*
D17*
X142500000Y-108300000D03*
X143700000Y-108300000D03*
D16*
X144500000Y-107800000D03*
X145100000Y-107800000D03*
D23*
X146200000Y-107800000D03*
D19*
X143100000Y-108200000D03*
D20*
X144200000Y-108000000D03*
D16*
X145500000Y-108000000D03*
D18*
X146100000Y-108100000D03*
D16*
X146500000Y-108000000D03*
D15*
X144100000Y-108500000D03*
D23*
X144800000Y-108200000D03*
D16*
X145900000Y-108200000D03*
D26*
X144500000Y-108400000D03*
D16*
X145300000Y-108400000D03*
X145700000Y-108400000D03*
D18*
X144300000Y-108700000D03*
D16*
X145100000Y-108600000D03*
X146100000Y-108600000D03*
X146500000Y-108600000D03*
D21*
X143100000Y-108800000D03*
D20*
X144800000Y-108800000D03*
D16*
X145300000Y-108800000D03*
D20*
X145800000Y-108800000D03*
%TD*%
D27*
%TO.P,SW1,1,1*%
%TO.N,GND*%
X133250000Y-107000000D03*
X133250000Y-100500000D03*
%TO.P,SW1,2,2*%
%TO.N,BUTTON*%
X137750000Y-107000000D03*
X137750000Y-100500000D03*
%TD*%
D28*
%TO.P,J1,S1,SHIELD*%
%TO.N,GND*%
X125790000Y-109890000D03*
D29*
X122110000Y-111320000D03*
D30*
X126280000Y-102680000D03*
X126280000Y-111320000D03*
D28*
X125790000Y-104110000D03*
D29*
X122110000Y-102680000D03*
%TD*%
D31*
%TO.P,J5,1,Pin_1*%
%TO.N,GND*%
X130000000Y-113400000D03*
D32*
%TO.P,J5,2,Pin_2*%
%TO.N,Net-(J5-Pad2)*%
X132500000Y-113400000D03*
%TO.P,J5,3,Pin_3*%
%TO.N,Net-(J5-Pad3)*%
X135000000Y-113400000D03*
%TD*%
D31*
%TO.P,J6,1,Pin_1*%
%TO.N,Net-(J6-Pad1)*%
X140000000Y-113400000D03*
D32*
%TO.P,J6,2,Pin_2*%
%TO.N,Net-(J6-Pad2)*%
X142500000Y-113400000D03*
%TO.P,J6,3,Pin_3*%
%TO.N,Net-(J6-Pad3)*%
X145000000Y-113400000D03*
%TD*%
D31*
%TO.P,J2,1,Pin_1*%
%TO.N,GND*%
X122500000Y-113400000D03*
D32*
%TO.P,J2,2,Pin_2*%
%TO.N,DC*%
X125000000Y-113400000D03*
%TD*%
D31*
%TO.P,J3,1,Pin_1*%
%TO.N,GND*%
X157500000Y-113400000D03*
D32*
%TO.P,J3,2,Pin_2*%
%TO.N,PWR*%
X160000000Y-113400000D03*
%TO.P,J3,3,Pin_3*%
%TO.N,MTR*%
X162500000Y-113400000D03*
%TD*%
D31*
%TO.P,J4,1,Pin_1*%
%TO.N,GND*%
X150000000Y-113400000D03*
D32*
%TO.P,J4,2,Pin_2*%
%TO.N,RUN*%
X152500000Y-113400000D03*
%TD*%
D33*
%TO.N,+3V3*%
X135500000Y-100250000D03*
%TO.N,Net-(R2-Pad2)*%
X139750000Y-100500000D03*
%TO.N,+3V3*%
X155750000Y-110250000D03*
X151250000Y-110250000D03*
%TO.N,GND*%
X151000000Y-108250000D03*
%TO.N,GPIO0*%
X149250000Y-104250000D03*
%TO.N,I*%
X152500000Y-105000000D03*
%TO.N,GND*%
X158000000Y-108250000D03*
X155500000Y-108250000D03*
%TO.N,DC*%
X122250000Y-99750000D03*
%TO.N,TX20MA*%
X129750000Y-111750000D03*
X147000000Y-101000000D03*
%TO.N,GND*%
X138000000Y-96500000D03*
X126500000Y-100250000D03*
%TO.N,+3V3*%
X146750000Y-94250000D03*
X155500000Y-95250000D03*
X129750000Y-94500000D03*
%TO.N,EN*%
X151500000Y-95250000D03*
X141044720Y-95070653D03*
%TO.N,I*%
X140750000Y-98250000D03*
%TO.N,GPIO0*%
X141382745Y-96997539D03*
%TO.N,Net-(R2-Pad2)*%
X139750000Y-98250000D03*
%TO.N,O*%
X139750000Y-94250000D03*
X153750000Y-105000000D03*
%TO.N,Net-(C3-Pad1)*%
X132250000Y-95500000D03*
%TO.N,Net-(C2-Pad1)*%
X131500000Y-94724500D03*
%TO.N,Net-(C3-Pad1)*%
X128500000Y-107675500D03*
%TO.N,Net-(C2-Pad1)*%
X129062701Y-106162701D03*
%TO.N,VBUS*%
X129023574Y-109500000D03*
X129076070Y-104500000D03*
%TD*%
D34*
%TO.N,TX20MA*%
X147000000Y-101000000D02*
X143000000Y-101000000D01*
X140000000Y-104000000D02*
G75*
G02*
X143000000Y-101000000I3000001J-1D01*
G01*
X136000000Y-111750000D02*
X129750000Y-111750000D01*
X140000000Y-104000000D02*
X140000000Y-107750000D01*
X136000000Y-111750000D02*
G75*
G03*
X140000000Y-107750000I0J4000000D01*
G01*
%TO.N,+3V3*%
X134750000Y-94000000D02*
G75*
G02*
X135500000Y-94750000I0J-750000D01*
G01*
X130250000Y-94000000D02*
X134750000Y-94000000D01*
X135500000Y-100250000D02*
X135500000Y-94750000D01*
%TO.N,Net-(R2-Pad2)*%
X139750000Y-100500000D02*
X139750000Y-98250000D01*
%TO.N,+3V3*%
X156500000Y-109500000D02*
G75*
G02*
X155750000Y-110250000I-750000J0D01*
G01*
X156500000Y-109500000D02*
X156500000Y-96250000D01*
X155500000Y-95250000D02*
G75*
G02*
X156500000Y-96250000I1J-999999D01*
G01*
X151250000Y-110250000D02*
X155750000Y-110250000D01*
%TO.N,O*%
X140199511Y-95800489D02*
G75*
G02*
X139750000Y-95350978I1J449512D01*
G01*
X145375000Y-96625000D02*
G75*
G03*
X143384455Y-95800489I-1990548J-1990552D01*
G01*
X139750000Y-94250000D02*
X139750000Y-95350978D01*
X140199511Y-95800489D02*
X143384455Y-95800489D01*
X145375000Y-96625000D02*
X153750000Y-105000000D01*
%TO.N,GPIO0*%
X144750000Y-97500000D02*
G75*
G03*
X143536952Y-96997539I-1213053J-1213059D01*
G01*
X141382745Y-96997539D02*
X143536952Y-96997539D01*
X149249999Y-102707106D02*
G75*
G03*
X148749999Y-101500001I-1707107J-1D01*
G01*
X144750000Y-97500000D02*
X148750000Y-101500000D01*
X149250000Y-102707106D02*
X149250000Y-104250000D01*
%TO.N,I*%
X140500000Y-97646447D02*
G75*
G03*
X140750000Y-98250000I853552J0D01*
G01*
X141250000Y-96250000D02*
G75*
G03*
X140500000Y-97000000I0J-750000D01*
G01*
X152500000Y-105000000D02*
G75*
G03*
X152146446Y-104146446I-1207111J-2D01*
G01*
%TO.N,EN*%
X151500000Y-95250000D02*
X141224067Y-95250000D01*
X141224067Y-95250000D02*
X141044720Y-95070653D01*
%TO.N,I*%
X141250000Y-96250000D02*
X143189340Y-96250000D01*
X145000000Y-97000000D02*
G75*
G03*
X143189340Y-96250000I-1810662J-1810664D01*
G01*
X145000000Y-97000000D02*
X152146446Y-104146446D01*
X140500000Y-97646447D02*
X140500000Y-97000000D01*
D35*
%TO.N,DC*%
X125000000Y-113400000D02*
X125000000Y-102500000D01*
X125000000Y-102500000D02*
X122250000Y-99750000D01*
D34*
%TO.N,+3V3*%
X146750000Y-94250000D02*
X154500000Y-94250000D01*
X154500000Y-94250000D02*
X155500000Y-95250000D01*
%TO.N,Net-(C2-Pad1)*%
X131250000Y-94974500D02*
X131500000Y-94724500D01*
X131250000Y-104500000D02*
X131250000Y-94974500D01*
X129587299Y-106162701D02*
X131250000Y-104500000D01*
X129062701Y-106162701D02*
X129587299Y-106162701D01*
%TO.N,+3V3*%
X129750000Y-94500000D02*
X130250000Y-94000000D01*
%TO.N,Net-(C3-Pad1)*%
X132250000Y-95500000D02*
X131925489Y-95824511D01*
X129324500Y-107675500D02*
X128500000Y-107675500D01*
X131925489Y-95824511D02*
X131925489Y-105074511D01*
X131925489Y-105074511D02*
X129324500Y-107675500D01*
%TO.N,VBUS*%
X129023574Y-109500000D02*
X127200000Y-109500000D01*
X129074993Y-104501077D02*
X129076070Y-104500000D01*
X127152655Y-104501077D02*
X129074993Y-104501077D01*
X127152655Y-104501077D02*
G75*
G03*
X126900000Y-104800000I52952J-300992D01*
G01*
X126900000Y-109200000D02*
X126900000Y-104800000D01*
X126900000Y-109200000D02*
G75*
G03*
X127200000Y-109500000I300000J0D01*
G01*
%TO.N,BUTTON*%
X137750000Y-107000000D02*
X137750000Y-100500000D01*
%TD*%
%TA.AperFunction,Conductor*%
%TO.N,GND*%
G36*
X129341493Y-93774002D02*
G01*
X129387986Y-93827658D01*
X129398090Y-93897932D01*
X129368596Y-93962512D01*
X129356202Y-93974949D01*
X129345124Y-93984613D01*
X129260039Y-94058838D01*
X129168950Y-94188444D01*
X129111406Y-94336037D01*
X129110414Y-94343570D01*
X129110414Y-94343571D01*
X129092331Y-94480929D01*
X129090729Y-94493096D01*
X129094330Y-94525708D01*
X129107248Y-94642714D01*
X129108113Y-94650553D01*
X129110723Y-94657684D01*
X129110723Y-94657686D01*
X129158791Y-94789038D01*
X129162553Y-94799319D01*
X129166789Y-94805622D01*
X129166789Y-94805623D01*
X129219782Y-94884484D01*
X129250908Y-94930805D01*
X129256527Y-94935918D01*
X129256528Y-94935919D01*
X129286848Y-94963508D01*
X129368076Y-95037419D01*
X129507293Y-95113008D01*
X129660522Y-95153207D01*
X129744477Y-95154526D01*
X129811319Y-95155576D01*
X129811322Y-95155576D01*
X129818916Y-95155695D01*
X129973332Y-95120329D01*
X130043742Y-95084917D01*
X130108072Y-95052563D01*
X130108075Y-95052561D01*
X130114855Y-95049151D01*
X130120626Y-95044222D01*
X130120629Y-95044220D01*
X130229536Y-94951204D01*
X130229536Y-94951203D01*
X130235314Y-94946269D01*
X130327755Y-94817624D01*
X130386842Y-94670641D01*
X130403568Y-94553115D01*
X130408581Y-94517891D01*
X130408581Y-94517888D01*
X130409162Y-94513807D01*
X130409263Y-94504179D01*
X130429978Y-94436271D01*
X130484119Y-94390344D01*
X130535256Y-94379500D01*
X130747626Y-94379500D01*
X130815747Y-94399502D01*
X130862240Y-94453158D01*
X130872344Y-94523432D01*
X130865019Y-94551269D01*
X130864167Y-94553454D01*
X130864166Y-94553458D01*
X130861406Y-94560537D01*
X130860414Y-94568070D01*
X130860414Y-94568071D01*
X130841912Y-94708611D01*
X130840729Y-94717596D01*
X130858113Y-94875053D01*
X130860725Y-94882190D01*
X130860725Y-94882191D01*
X130861254Y-94883637D01*
X130861431Y-94885201D01*
X130862458Y-94889580D01*
X130861940Y-94889702D01*
X130866085Y-94926365D01*
X130868287Y-94926278D01*
X130870403Y-94980135D01*
X130870500Y-94985082D01*
X130870500Y-104290616D01*
X130850498Y-104358737D01*
X130833595Y-104379711D01*
X129603091Y-105610215D01*
X129540779Y-105644241D01*
X129469964Y-105639176D01*
X129443453Y-105625301D01*
X129438976Y-105621312D01*
X129431590Y-105617401D01*
X129393266Y-105597110D01*
X129298975Y-105547185D01*
X129145334Y-105508593D01*
X129137735Y-105508553D01*
X129137734Y-105508553D01*
X129071882Y-105508208D01*
X128986922Y-105507763D01*
X128979542Y-105509535D01*
X128979540Y-105509535D01*
X128840264Y-105542972D01*
X128840261Y-105542973D01*
X128832885Y-105544744D01*
X128692115Y-105617401D01*
X128572740Y-105721539D01*
X128481651Y-105851145D01*
X128424107Y-105998738D01*
X128423115Y-106006271D01*
X128423115Y-106006272D01*
X128405652Y-106138920D01*
X128403430Y-106155797D01*
X128420814Y-106313254D01*
X128475254Y-106462020D01*
X128479490Y-106468323D01*
X128479490Y-106468324D01*
X128522394Y-106532171D01*
X128563609Y-106593506D01*
X128680777Y-106700120D01*
X128819994Y-106775709D01*
X128973223Y-106815908D01*
X129057178Y-106817227D01*
X129124020Y-106818277D01*
X129124023Y-106818277D01*
X129131617Y-106818396D01*
X129286033Y-106783030D01*
X129380336Y-106735601D01*
X129450181Y-106722863D01*
X129515825Y-106749907D01*
X129556426Y-106808148D01*
X129559095Y-106879095D01*
X129526045Y-106937261D01*
X129204211Y-107259095D01*
X129141899Y-107293121D01*
X129115116Y-107296000D01*
X129099682Y-107296000D01*
X129031561Y-107275998D01*
X129005114Y-107250360D01*
X129003878Y-107251449D01*
X128998855Y-107245751D01*
X128994553Y-107239492D01*
X128876275Y-107134111D01*
X128868889Y-107130200D01*
X128742988Y-107063539D01*
X128742989Y-107063539D01*
X128736274Y-107059984D01*
X128582633Y-107021392D01*
X128575034Y-107021352D01*
X128575033Y-107021352D01*
X128509181Y-107021007D01*
X128424221Y-107020562D01*
X128416841Y-107022334D01*
X128416839Y-107022334D01*
X128277563Y-107055771D01*
X128277560Y-107055772D01*
X128270184Y-107057543D01*
X128129414Y-107130200D01*
X128010039Y-107234338D01*
X127918950Y-107363944D01*
X127861406Y-107511537D01*
X127860414Y-107519070D01*
X127860414Y-107519071D01*
X127845857Y-107629646D01*
X127840729Y-107668596D01*
X127841563Y-107676146D01*
X127856281Y-107809457D01*
X127858113Y-107826053D01*
X127860723Y-107833184D01*
X127860723Y-107833186D01*
X127899780Y-107939914D01*
X127912553Y-107974819D01*
X127916789Y-107981122D01*
X127916789Y-107981123D01*
X127995790Y-108098688D01*
X128000908Y-108106305D01*
X128006527Y-108111418D01*
X128006528Y-108111419D01*
X128087140Y-108184770D01*
X128118076Y-108212919D01*
X128257293Y-108288508D01*
X128410522Y-108328707D01*
X128494477Y-108330026D01*
X128561319Y-108331076D01*
X128561322Y-108331076D01*
X128568916Y-108331195D01*
X128723332Y-108295829D01*
X128829231Y-108242568D01*
X128848912Y-108232670D01*
X132382160Y-108232670D01*
X132387887Y-108240320D01*
X132559042Y-108345205D01*
X132567837Y-108349687D01*
X132777988Y-108436734D01*
X132787373Y-108439783D01*
X133008554Y-108492885D01*
X133018301Y-108494428D01*
X133245070Y-108512275D01*
X133254930Y-108512275D01*
X133481699Y-108494428D01*
X133491446Y-108492885D01*
X133712627Y-108439783D01*
X133722012Y-108436734D01*
X133932163Y-108349687D01*
X133940958Y-108345205D01*
X134108445Y-108242568D01*
X134117907Y-108232110D01*
X134114124Y-108223334D01*
X133262812Y-107372022D01*
X133248868Y-107364408D01*
X133247035Y-107364539D01*
X133240420Y-107368790D01*
X132388920Y-108220290D01*
X132382160Y-108232670D01*
X128848912Y-108232670D01*
X128858072Y-108228063D01*
X128858075Y-108228061D01*
X128864855Y-108224651D01*
X128870626Y-108219722D01*
X128870629Y-108219720D01*
X128979542Y-108126699D01*
X128979543Y-108126698D01*
X128985314Y-108121769D01*
X128995586Y-108107474D01*
X129051581Y-108063826D01*
X129097909Y-108055000D01*
X129270580Y-108055000D01*
X129294528Y-108057549D01*
X129296193Y-108057628D01*
X129306376Y-108059820D01*
X129316717Y-108058596D01*
X129339723Y-108055873D01*
X129345654Y-108055523D01*
X129345646Y-108055428D01*
X129350824Y-108055000D01*
X129356024Y-108055000D01*
X129361153Y-108054146D01*
X129361156Y-108054146D01*
X129375065Y-108051831D01*
X129380943Y-108050994D01*
X129421501Y-108046194D01*
X129421502Y-108046194D01*
X129431841Y-108044970D01*
X129440093Y-108041007D01*
X129449126Y-108039504D01*
X129458295Y-108034557D01*
X129458297Y-108034556D01*
X129494232Y-108015166D01*
X129499525Y-108012469D01*
X129538582Y-107993715D01*
X129538586Y-107993712D01*
X129545732Y-107990281D01*
X129550008Y-107986686D01*
X129551931Y-107984763D01*
X129553863Y-107982991D01*
X129553942Y-107982948D01*
X129554055Y-107983072D01*
X129554595Y-107982596D01*
X129560314Y-107979510D01*
X129596917Y-107939913D01*
X129600346Y-107936348D01*
X130531764Y-107004930D01*
X131737725Y-107004930D01*
X131755572Y-107231699D01*
X131757115Y-107241446D01*
X131810217Y-107462627D01*
X131813266Y-107472012D01*
X131900313Y-107682163D01*
X131904795Y-107690958D01*
X132007432Y-107858445D01*
X132017890Y-107867907D01*
X132026666Y-107864124D01*
X132877978Y-107012812D01*
X132884356Y-107001132D01*
X133614408Y-107001132D01*
X133614539Y-107002965D01*
X133618790Y-107009580D01*
X134470290Y-107861080D01*
X134482670Y-107867840D01*
X134490320Y-107862113D01*
X134595205Y-107690958D01*
X134599687Y-107682163D01*
X134686734Y-107472012D01*
X134689783Y-107462627D01*
X134742885Y-107241446D01*
X134744428Y-107231699D01*
X134762275Y-107004930D01*
X134762275Y-106995070D01*
X134744428Y-106768301D01*
X134742885Y-106758554D01*
X134689783Y-106537373D01*
X134686734Y-106527988D01*
X134599687Y-106317837D01*
X134595205Y-106309042D01*
X134492568Y-106141555D01*
X134482110Y-106132093D01*
X134473334Y-106135876D01*
X133622022Y-106987188D01*
X133614408Y-107001132D01*
X132884356Y-107001132D01*
X132885592Y-106998868D01*
X132885461Y-106997035D01*
X132881210Y-106990420D01*
X132029710Y-106138920D01*
X132017330Y-106132160D01*
X132009680Y-106137887D01*
X131904795Y-106309042D01*
X131900313Y-106317837D01*
X131813266Y-106527988D01*
X131810217Y-106537373D01*
X131757115Y-106758554D01*
X131755572Y-106768301D01*
X131737725Y-106995070D01*
X131737725Y-107004930D01*
X130531764Y-107004930D01*
X131768804Y-105767890D01*
X132382093Y-105767890D01*
X132385876Y-105776666D01*
X133237188Y-106627978D01*
X133251132Y-106635592D01*
X133252965Y-106635461D01*
X133259580Y-106631210D01*
X134111080Y-105779710D01*
X134117840Y-105767330D01*
X134112113Y-105759680D01*
X133940958Y-105654795D01*
X133932163Y-105650313D01*
X133722012Y-105563266D01*
X133712627Y-105560217D01*
X133491446Y-105507115D01*
X133481699Y-105505572D01*
X133254930Y-105487725D01*
X133245070Y-105487725D01*
X133018301Y-105505572D01*
X133008554Y-105507115D01*
X132787373Y-105560217D01*
X132777988Y-105563266D01*
X132567837Y-105650313D01*
X132559042Y-105654795D01*
X132391555Y-105757432D01*
X132382093Y-105767890D01*
X131768804Y-105767890D01*
X132155705Y-105380989D01*
X132174453Y-105365847D01*
X132175678Y-105364732D01*
X132184429Y-105359082D01*
X132190876Y-105350904D01*
X132190878Y-105350902D01*
X132205218Y-105332711D01*
X132209164Y-105328270D01*
X132209091Y-105328208D01*
X132212450Y-105324244D01*
X132216127Y-105320567D01*
X132227381Y-105304819D01*
X132230887Y-105300149D01*
X132262645Y-105259864D01*
X132265677Y-105251230D01*
X132271003Y-105243777D01*
X132285692Y-105194661D01*
X132287525Y-105189019D01*
X132301879Y-105148144D01*
X132301879Y-105148143D01*
X132304507Y-105140660D01*
X132304989Y-105135095D01*
X132304989Y-105132387D01*
X132305103Y-105129753D01*
X132305132Y-105129655D01*
X132305296Y-105129662D01*
X132305340Y-105128958D01*
X132307202Y-105122733D01*
X132305086Y-105068876D01*
X132304989Y-105063929D01*
X132304989Y-101914510D01*
X132324991Y-101846389D01*
X132378647Y-101799896D01*
X132448921Y-101789792D01*
X132496824Y-101807077D01*
X132559052Y-101845210D01*
X132567837Y-101849687D01*
X132777988Y-101936734D01*
X132787373Y-101939783D01*
X133008554Y-101992885D01*
X133018301Y-101994428D01*
X133245070Y-102012275D01*
X133254930Y-102012275D01*
X133481699Y-101994428D01*
X133491446Y-101992885D01*
X133712627Y-101939783D01*
X133722012Y-101936734D01*
X133932163Y-101849687D01*
X133940958Y-101845205D01*
X134108445Y-101742568D01*
X134117907Y-101732110D01*
X134114124Y-101723334D01*
X132979885Y-100589095D01*
X132945859Y-100526783D01*
X132950924Y-100455968D01*
X132979885Y-100410905D01*
X134111080Y-99279710D01*
X134117840Y-99267330D01*
X134112113Y-99259680D01*
X133940958Y-99154795D01*
X133932163Y-99150313D01*
X133722012Y-99063266D01*
X133712627Y-99060217D01*
X133491446Y-99007115D01*
X133481699Y-99005572D01*
X133254930Y-98987725D01*
X133245070Y-98987725D01*
X133018301Y-99005572D01*
X133008554Y-99007115D01*
X132787373Y-99060217D01*
X132777988Y-99063266D01*
X132567837Y-99150313D01*
X132559052Y-99154790D01*
X132496824Y-99192923D01*
X132428290Y-99211461D01*
X132360613Y-99190005D01*
X132315281Y-99135365D01*
X132304989Y-99085490D01*
X132304989Y-96259289D01*
X132324991Y-96191168D01*
X132378647Y-96144675D01*
X132402858Y-96136470D01*
X132433926Y-96129354D01*
X132465928Y-96122025D01*
X132465930Y-96122024D01*
X132473332Y-96120329D01*
X132543742Y-96084917D01*
X132608072Y-96052563D01*
X132608075Y-96052561D01*
X132614855Y-96049151D01*
X132620626Y-96044222D01*
X132620629Y-96044220D01*
X132729536Y-95951204D01*
X132729536Y-95951203D01*
X132735314Y-95946269D01*
X132827755Y-95817624D01*
X132886842Y-95670641D01*
X132904108Y-95549319D01*
X132908581Y-95517891D01*
X132908581Y-95517888D01*
X132909162Y-95513807D01*
X132909307Y-95500000D01*
X132890276Y-95342733D01*
X132834280Y-95194546D01*
X132804544Y-95151279D01*
X132748855Y-95070251D01*
X132748854Y-95070249D01*
X132744553Y-95063992D01*
X132626275Y-94958611D01*
X132591305Y-94940095D01*
X132541861Y-94913916D01*
X132486274Y-94884484D01*
X132332633Y-94845892D01*
X132325036Y-94845852D01*
X132325034Y-94845852D01*
X132307337Y-94845759D01*
X132284299Y-94845639D01*
X132216285Y-94825281D01*
X132170074Y-94771383D01*
X132159280Y-94727097D01*
X132159307Y-94724500D01*
X132158480Y-94717659D01*
X132143968Y-94597743D01*
X132140276Y-94567233D01*
X132133779Y-94550039D01*
X132128409Y-94479248D01*
X132162165Y-94416790D01*
X132224330Y-94382496D01*
X132251644Y-94379500D01*
X134710212Y-94379500D01*
X134729923Y-94381051D01*
X134740206Y-94382680D01*
X134740207Y-94382680D01*
X134750000Y-94384231D01*
X134759796Y-94382679D01*
X134765890Y-94382679D01*
X134782337Y-94383757D01*
X134822887Y-94389095D01*
X134829447Y-94389959D01*
X134861214Y-94398471D01*
X134919927Y-94422791D01*
X134948407Y-94439235D01*
X134998822Y-94477920D01*
X135022080Y-94501178D01*
X135060765Y-94551593D01*
X135077209Y-94580073D01*
X135101529Y-94638786D01*
X135110041Y-94670553D01*
X135116235Y-94717596D01*
X135116243Y-94717659D01*
X135117321Y-94734110D01*
X135117321Y-94740204D01*
X135115769Y-94750000D01*
X135117320Y-94759791D01*
X135117320Y-94759794D01*
X135118949Y-94770077D01*
X135120500Y-94789788D01*
X135120500Y-99655187D01*
X135100498Y-99723308D01*
X135077330Y-99750135D01*
X135010039Y-99808838D01*
X134918950Y-99938444D01*
X134916191Y-99945520D01*
X134916188Y-99945526D01*
X134902227Y-99981336D01*
X134858847Y-100037538D01*
X134791968Y-100061365D01*
X134722824Y-100045252D01*
X134673368Y-99994315D01*
X134668425Y-99983785D01*
X134599687Y-99817837D01*
X134595205Y-99809042D01*
X134492568Y-99641555D01*
X134482110Y-99632093D01*
X134473334Y-99635876D01*
X133622022Y-100487188D01*
X133614408Y-100501132D01*
X133614539Y-100502965D01*
X133618790Y-100509580D01*
X134470290Y-101361080D01*
X134482670Y-101367840D01*
X134490320Y-101362113D01*
X134595205Y-101190958D01*
X134599687Y-101182163D01*
X134686734Y-100972012D01*
X134689783Y-100962627D01*
X134742885Y-100741446D01*
X134744428Y-100731698D01*
X134746515Y-100705184D01*
X134771800Y-100638842D01*
X134828938Y-100596702D01*
X134899788Y-100592143D01*
X134961856Y-100626611D01*
X134976709Y-100644792D01*
X135000908Y-100680805D01*
X135006527Y-100685918D01*
X135006528Y-100685919D01*
X135042526Y-100718674D01*
X135118076Y-100787419D01*
X135257293Y-100863008D01*
X135410522Y-100903207D01*
X135494477Y-100904526D01*
X135561319Y-100905576D01*
X135561322Y-100905576D01*
X135568916Y-100905695D01*
X135723332Y-100870329D01*
X135793742Y-100834917D01*
X135858072Y-100802563D01*
X135858075Y-100802561D01*
X135864855Y-100799151D01*
X135870626Y-100794222D01*
X135870629Y-100794220D01*
X135979536Y-100701204D01*
X135979536Y-100701203D01*
X135985314Y-100696269D01*
X136077755Y-100567624D01*
X136136842Y-100420641D01*
X136145560Y-100359385D01*
X136158581Y-100267891D01*
X136158581Y-100267888D01*
X136159162Y-100263807D01*
X136159307Y-100250000D01*
X136156779Y-100229105D01*
X136151819Y-100188121D01*
X136140276Y-100092733D01*
X136084280Y-99944546D01*
X136036717Y-99875341D01*
X135998855Y-99820251D01*
X135998854Y-99820249D01*
X135994553Y-99813992D01*
X135921681Y-99749065D01*
X135884126Y-99688816D01*
X135879500Y-99654989D01*
X135879500Y-94789788D01*
X135881051Y-94770077D01*
X135882680Y-94759791D01*
X135884231Y-94750000D01*
X135883302Y-94744133D01*
X135882389Y-94733688D01*
X135870377Y-94596400D01*
X135866590Y-94553115D01*
X135859953Y-94528346D01*
X135816861Y-94367522D01*
X135816860Y-94367520D01*
X135815438Y-94362212D01*
X135806746Y-94343571D01*
X135734239Y-94188080D01*
X135734236Y-94188075D01*
X135731913Y-94183093D01*
X135669229Y-94093571D01*
X135621712Y-94025709D01*
X135621710Y-94025706D01*
X135618553Y-94021198D01*
X135566450Y-93969095D01*
X135532424Y-93906783D01*
X135537489Y-93835968D01*
X135580036Y-93779132D01*
X135646556Y-93754321D01*
X135655545Y-93754000D01*
X139058353Y-93754000D01*
X139126474Y-93774002D01*
X139172967Y-93827658D01*
X139183071Y-93897932D01*
X139170466Y-93936287D01*
X139168950Y-93938444D01*
X139140935Y-94010300D01*
X139119588Y-94065052D01*
X139111406Y-94086037D01*
X139090729Y-94243096D01*
X139099421Y-94321825D01*
X139107017Y-94390623D01*
X139108113Y-94400553D01*
X139110723Y-94407684D01*
X139110723Y-94407686D01*
X139153913Y-94525708D01*
X139162553Y-94549319D01*
X139166789Y-94555622D01*
X139166789Y-94555623D01*
X139241232Y-94666405D01*
X139250908Y-94680805D01*
X139256527Y-94685918D01*
X139256528Y-94685919D01*
X139329299Y-94752135D01*
X139366222Y-94812775D01*
X139370500Y-94845329D01*
X139370500Y-95311191D01*
X139368949Y-95330901D01*
X139365769Y-95350979D01*
X139367320Y-95360772D01*
X139367320Y-95361108D01*
X139368037Y-95366700D01*
X139372074Y-95407686D01*
X139382496Y-95513493D01*
X139429899Y-95669762D01*
X139506879Y-95813780D01*
X139610476Y-95940013D01*
X139736709Y-96043610D01*
X139880727Y-96120590D01*
X139919670Y-96132403D01*
X140031070Y-96166196D01*
X140031076Y-96166197D01*
X140036996Y-96167993D01*
X140080817Y-96172309D01*
X140117600Y-96175932D01*
X140127665Y-96177506D01*
X140133362Y-96179507D01*
X140138927Y-96179989D01*
X140152599Y-96179989D01*
X140164946Y-96180596D01*
X140181391Y-96182215D01*
X140183792Y-96182452D01*
X140189381Y-96183169D01*
X140189717Y-96183169D01*
X140199510Y-96184720D01*
X140203937Y-96184019D01*
X140269163Y-96203171D01*
X140315656Y-96256827D01*
X140325760Y-96327101D01*
X140304255Y-96381439D01*
X140268087Y-96433093D01*
X140265764Y-96438075D01*
X140265761Y-96438080D01*
X140186885Y-96607230D01*
X140184562Y-96612212D01*
X140133410Y-96803115D01*
X140132930Y-96808603D01*
X140122640Y-96926211D01*
X140121870Y-96931323D01*
X140120982Y-96933851D01*
X140120500Y-96939416D01*
X140120500Y-96945169D01*
X140120020Y-96956152D01*
X140117319Y-96987020D01*
X140117319Y-96987035D01*
X140116698Y-96994133D01*
X140115769Y-97000000D01*
X140117320Y-97009791D01*
X140118949Y-97020077D01*
X140120500Y-97039788D01*
X140120500Y-97506636D01*
X140100498Y-97574757D01*
X140046842Y-97621250D01*
X139976568Y-97631354D01*
X139963804Y-97628840D01*
X139840002Y-97597743D01*
X139832633Y-97595892D01*
X139825034Y-97595852D01*
X139825033Y-97595852D01*
X139759181Y-97595507D01*
X139674221Y-97595062D01*
X139666841Y-97596834D01*
X139666839Y-97596834D01*
X139527563Y-97630271D01*
X139527560Y-97630272D01*
X139520184Y-97632043D01*
X139379414Y-97704700D01*
X139260039Y-97808838D01*
X139168950Y-97938444D01*
X139111406Y-98086037D01*
X139110414Y-98093570D01*
X139110414Y-98093571D01*
X139092346Y-98230816D01*
X139090729Y-98243096D01*
X139108113Y-98400553D01*
X139110723Y-98407684D01*
X139110723Y-98407686D01*
X139153654Y-98525000D01*
X139162553Y-98549319D01*
X139166789Y-98555622D01*
X139166789Y-98555623D01*
X139219313Y-98633786D01*
X139250908Y-98680805D01*
X139256527Y-98685918D01*
X139256528Y-98685919D01*
X139329299Y-98752135D01*
X139366222Y-98812775D01*
X139370500Y-98845329D01*
X139370500Y-99905187D01*
X139350498Y-99973308D01*
X139327330Y-100000135D01*
X139260039Y-100058838D01*
X139176509Y-100177689D01*
X139120976Y-100221919D01*
X139050344Y-100229105D01*
X138987039Y-100196964D01*
X138951717Y-100137849D01*
X138934774Y-100074619D01*
X138934770Y-100074608D01*
X138933347Y-100069297D01*
X138856822Y-99905187D01*
X138842905Y-99875341D01*
X138842902Y-99875336D01*
X138840579Y-99870354D01*
X138756759Y-99750646D01*
X138717833Y-99695054D01*
X138717831Y-99695051D01*
X138714674Y-99690543D01*
X138559457Y-99535326D01*
X138554949Y-99532169D01*
X138554946Y-99532167D01*
X138384155Y-99412578D01*
X138384153Y-99412577D01*
X138379646Y-99409421D01*
X138374664Y-99407098D01*
X138374659Y-99407095D01*
X138234749Y-99341855D01*
X138180703Y-99316653D01*
X137968674Y-99259839D01*
X137750000Y-99240708D01*
X137531326Y-99259839D01*
X137319297Y-99316653D01*
X137265251Y-99341855D01*
X137125341Y-99407095D01*
X137125336Y-99407098D01*
X137120354Y-99409421D01*
X137115847Y-99412577D01*
X137115845Y-99412578D01*
X136945054Y-99532167D01*
X136945051Y-99532169D01*
X136940543Y-99535326D01*
X136785326Y-99690543D01*
X136782169Y-99695051D01*
X136782167Y-99695054D01*
X136743241Y-99750646D01*
X136659421Y-99870354D01*
X136657098Y-99875336D01*
X136657095Y-99875341D01*
X136643178Y-99905187D01*
X136566653Y-100069297D01*
X136509839Y-100281326D01*
X136490708Y-100500000D01*
X136509839Y-100718674D01*
X136566653Y-100930703D01*
X136600832Y-101004000D01*
X136657095Y-101124659D01*
X136657098Y-101124664D01*
X136659421Y-101129646D01*
X136662577Y-101134153D01*
X136662578Y-101134155D01*
X136760418Y-101273884D01*
X136785326Y-101309457D01*
X136940543Y-101464674D01*
X136945051Y-101467831D01*
X136945054Y-101467833D01*
X137105157Y-101579938D01*
X137120354Y-101590579D01*
X137125336Y-101592902D01*
X137125341Y-101592905D01*
X137297750Y-101673300D01*
X137351035Y-101720217D01*
X137370500Y-101787495D01*
X137370500Y-105712505D01*
X137350498Y-105780626D01*
X137297750Y-105826700D01*
X137125341Y-105907095D01*
X137125336Y-105907098D01*
X137120354Y-105909421D01*
X137115847Y-105912577D01*
X137115845Y-105912578D01*
X136945054Y-106032167D01*
X136945051Y-106032169D01*
X136940543Y-106035326D01*
X136785326Y-106190543D01*
X136659421Y-106370354D01*
X136657098Y-106375336D01*
X136657095Y-106375341D01*
X136633792Y-106425316D01*
X136566653Y-106569297D01*
X136509839Y-106781326D01*
X136490708Y-107000000D01*
X136509839Y-107218674D01*
X136566653Y-107430703D01*
X136585916Y-107472012D01*
X136657095Y-107624659D01*
X136657098Y-107624664D01*
X136659421Y-107629646D01*
X136662577Y-107634153D01*
X136662578Y-107634155D01*
X136751591Y-107761278D01*
X136785326Y-107809457D01*
X136940543Y-107964674D01*
X136945051Y-107967831D01*
X136945054Y-107967833D01*
X137115845Y-108087422D01*
X137120354Y-108090579D01*
X137125336Y-108092902D01*
X137125341Y-108092905D01*
X137197814Y-108126699D01*
X137319297Y-108183347D01*
X137531326Y-108240161D01*
X137750000Y-108259292D01*
X137968674Y-108240161D01*
X138180703Y-108183347D01*
X138302186Y-108126699D01*
X138374659Y-108092905D01*
X138374664Y-108092902D01*
X138379646Y-108090579D01*
X138384155Y-108087422D01*
X138554946Y-107967833D01*
X138554949Y-107967831D01*
X138559457Y-107964674D01*
X138714674Y-107809457D01*
X138748410Y-107761278D01*
X138837422Y-107634155D01*
X138837423Y-107634153D01*
X138840579Y-107629646D01*
X138842902Y-107624664D01*
X138842905Y-107624659D01*
X138914084Y-107472012D01*
X138933347Y-107430703D01*
X138990161Y-107218674D01*
X139009292Y-107000000D01*
X138990161Y-106781326D01*
X138933347Y-106569297D01*
X138866208Y-106425316D01*
X138842905Y-106375341D01*
X138842902Y-106375336D01*
X138840579Y-106370354D01*
X138714674Y-106190543D01*
X138559457Y-106035326D01*
X138554949Y-106032169D01*
X138554946Y-106032167D01*
X138384155Y-105912578D01*
X138384153Y-105912577D01*
X138379646Y-105909421D01*
X138374664Y-105907098D01*
X138374659Y-105907095D01*
X138202250Y-105826700D01*
X138148965Y-105779783D01*
X138129500Y-105712505D01*
X138129500Y-101787495D01*
X138149502Y-101719374D01*
X138202250Y-101673300D01*
X138374659Y-101592905D01*
X138374664Y-101592902D01*
X138379646Y-101590579D01*
X138394843Y-101579938D01*
X138554946Y-101467833D01*
X138554949Y-101467831D01*
X138559457Y-101464674D01*
X138714674Y-101309457D01*
X138739583Y-101273884D01*
X138837422Y-101134155D01*
X138837423Y-101134153D01*
X138840579Y-101129646D01*
X138842902Y-101124664D01*
X138842905Y-101124659D01*
X138899168Y-101004000D01*
X138933347Y-100930703D01*
X138940503Y-100903999D01*
X138952132Y-100860598D01*
X138989084Y-100799975D01*
X139052945Y-100768954D01*
X139123439Y-100777382D01*
X139178421Y-100822933D01*
X139235877Y-100908436D01*
X139250908Y-100930805D01*
X139256527Y-100935918D01*
X139256528Y-100935919D01*
X139346835Y-101018091D01*
X139368076Y-101037419D01*
X139507293Y-101113008D01*
X139660522Y-101153207D01*
X139744477Y-101154526D01*
X139811319Y-101155576D01*
X139811322Y-101155576D01*
X139818916Y-101155695D01*
X139973332Y-101120329D01*
X140058175Y-101077658D01*
X140108072Y-101052563D01*
X140108075Y-101052561D01*
X140114855Y-101049151D01*
X140120626Y-101044222D01*
X140120629Y-101044220D01*
X140229536Y-100951204D01*
X140229536Y-100951203D01*
X140235314Y-100946269D01*
X140327755Y-100817624D01*
X140386842Y-100670641D01*
X140402507Y-100560571D01*
X140408581Y-100517891D01*
X140408581Y-100517888D01*
X140409162Y-100513807D01*
X140409307Y-100500000D01*
X140408645Y-100494525D01*
X140398793Y-100413115D01*
X140390276Y-100342733D01*
X140334280Y-100194546D01*
X140244553Y-100063992D01*
X140171681Y-99999065D01*
X140134126Y-99938816D01*
X140129500Y-99904989D01*
X140129500Y-98855338D01*
X140149502Y-98787217D01*
X140203158Y-98740724D01*
X140273432Y-98730620D01*
X140340299Y-98762144D01*
X140368076Y-98787419D01*
X140507293Y-98863008D01*
X140660522Y-98903207D01*
X140744477Y-98904526D01*
X140811319Y-98905576D01*
X140811322Y-98905576D01*
X140818916Y-98905695D01*
X140973332Y-98870329D01*
X141056644Y-98828428D01*
X141108072Y-98802563D01*
X141108075Y-98802561D01*
X141114855Y-98799151D01*
X141120626Y-98794222D01*
X141120629Y-98794220D01*
X141229536Y-98701204D01*
X141229536Y-98701203D01*
X141235314Y-98696269D01*
X141327755Y-98567624D01*
X141386842Y-98420641D01*
X141409162Y-98263807D01*
X141409307Y-98250000D01*
X141390276Y-98092733D01*
X141334280Y-97944546D01*
X141268872Y-97849376D01*
X141246772Y-97781906D01*
X141264658Y-97713199D01*
X141316850Y-97665069D01*
X141374691Y-97652025D01*
X141444063Y-97653115D01*
X141444066Y-97653115D01*
X141451661Y-97653234D01*
X141606077Y-97617868D01*
X141676487Y-97582456D01*
X141740817Y-97550102D01*
X141740820Y-97550100D01*
X141747600Y-97546690D01*
X141753371Y-97541761D01*
X141753374Y-97541759D01*
X141862287Y-97448738D01*
X141862288Y-97448737D01*
X141868059Y-97443808D01*
X141878331Y-97429513D01*
X141934326Y-97385865D01*
X141980654Y-97377039D01*
X143497163Y-97377039D01*
X143516873Y-97378590D01*
X143536951Y-97381770D01*
X143546744Y-97380219D01*
X143553045Y-97380219D01*
X143572127Y-97379345D01*
X143703091Y-97387929D01*
X143719431Y-97390080D01*
X143874637Y-97420952D01*
X143890555Y-97425217D01*
X143903210Y-97429513D01*
X144040401Y-97476084D01*
X144055627Y-97482391D01*
X144104792Y-97506636D01*
X144197553Y-97552380D01*
X144211819Y-97560617D01*
X144277219Y-97604316D01*
X144343393Y-97648532D01*
X144356468Y-97658565D01*
X144455153Y-97745109D01*
X144468018Y-97759210D01*
X144472482Y-97763674D01*
X144478308Y-97771693D01*
X144486327Y-97777519D01*
X144486328Y-97777520D01*
X144494757Y-97783644D01*
X144509791Y-97796485D01*
X146873306Y-100160000D01*
X146907332Y-100222312D01*
X146902267Y-100293127D01*
X146859720Y-100349963D01*
X146813624Y-100371614D01*
X146770184Y-100382043D01*
X146629414Y-100454700D01*
X146510039Y-100558838D01*
X146505672Y-100565051D01*
X146505667Y-100565057D01*
X146504336Y-100566951D01*
X146503013Y-100568005D01*
X146500589Y-100570697D01*
X146500140Y-100570293D01*
X146448802Y-100611183D01*
X146401250Y-100620500D01*
X143039788Y-100620500D01*
X143020077Y-100618949D01*
X143019768Y-100618900D01*
X143000000Y-100615769D01*
X142999122Y-100615908D01*
X142989501Y-100616412D01*
X142989500Y-100616412D01*
X142855347Y-100623443D01*
X142646261Y-100634401D01*
X142643021Y-100634914D01*
X142643013Y-100634915D01*
X142482263Y-100660376D01*
X142296398Y-100689814D01*
X141954244Y-100781494D01*
X141951156Y-100782679D01*
X141951154Y-100782680D01*
X141907808Y-100799319D01*
X141623547Y-100908436D01*
X141620607Y-100909934D01*
X141312039Y-101067158D01*
X141307931Y-101069251D01*
X141305187Y-101071033D01*
X141305180Y-101071037D01*
X141181619Y-101151279D01*
X141010854Y-101262175D01*
X140735570Y-101485096D01*
X140485096Y-101735570D01*
X140262175Y-102010854D01*
X140193946Y-102115918D01*
X140071037Y-102305180D01*
X140071033Y-102305187D01*
X140069251Y-102307931D01*
X140067761Y-102310855D01*
X140067760Y-102310857D01*
X139994583Y-102454475D01*
X139908436Y-102623547D01*
X139882802Y-102690326D01*
X139796125Y-102916130D01*
X139781494Y-102954244D01*
X139689814Y-103296398D01*
X139671808Y-103410085D01*
X139635363Y-103640189D01*
X139634401Y-103646261D01*
X139623982Y-103845062D01*
X139617018Y-103977949D01*
X139615908Y-103999122D01*
X139615769Y-104000000D01*
X139618949Y-104020077D01*
X139620500Y-104039788D01*
X139620500Y-107710212D01*
X139618949Y-107729922D01*
X139615769Y-107750000D01*
X139617320Y-107759792D01*
X139617320Y-107759796D01*
X139617341Y-107759929D01*
X139618740Y-107785820D01*
X139611345Y-107936348D01*
X139605083Y-108063826D01*
X139603370Y-108098688D01*
X139602159Y-108110989D01*
X139574740Y-108295829D01*
X139551842Y-108450198D01*
X139549430Y-108462326D01*
X139466106Y-108794970D01*
X139462517Y-108806802D01*
X139346991Y-109129677D01*
X139342259Y-109141101D01*
X139319033Y-109190208D01*
X139239278Y-109358838D01*
X139195642Y-109451098D01*
X139189815Y-109461999D01*
X139130908Y-109560280D01*
X139013516Y-109756136D01*
X139006646Y-109766417D01*
X138963302Y-109824860D01*
X138802367Y-110041855D01*
X138794542Y-110051392D01*
X138572894Y-110295942D01*
X138564237Y-110305494D01*
X138555499Y-110314232D01*
X138301392Y-110544542D01*
X138291855Y-110552367D01*
X138187854Y-110629500D01*
X138016417Y-110756646D01*
X138006136Y-110763516D01*
X137960212Y-110791042D01*
X137748748Y-110917789D01*
X137712003Y-110939813D01*
X137701102Y-110945640D01*
X137603496Y-110991804D01*
X137391101Y-111092259D01*
X137379677Y-111096991D01*
X137056802Y-111212517D01*
X137044970Y-111216106D01*
X136915049Y-111248650D01*
X136712323Y-111299431D01*
X136700201Y-111301841D01*
X136360989Y-111352159D01*
X136348693Y-111353370D01*
X136197028Y-111360820D01*
X136035820Y-111368740D01*
X136009929Y-111367341D01*
X136009796Y-111367320D01*
X136009792Y-111367320D01*
X136000000Y-111365769D01*
X135979923Y-111368949D01*
X135960212Y-111370500D01*
X130349682Y-111370500D01*
X130281561Y-111350498D01*
X130255114Y-111324860D01*
X130253878Y-111325949D01*
X130248855Y-111320251D01*
X130244553Y-111313992D01*
X130236918Y-111307189D01*
X130131946Y-111213664D01*
X130126275Y-111208611D01*
X130118889Y-111204700D01*
X129992988Y-111138039D01*
X129992989Y-111138039D01*
X129986274Y-111134484D01*
X129832633Y-111095892D01*
X129825034Y-111095852D01*
X129825033Y-111095852D01*
X129759181Y-111095507D01*
X129674221Y-111095062D01*
X129666841Y-111096834D01*
X129666839Y-111096834D01*
X129527563Y-111130271D01*
X129527560Y-111130272D01*
X129520184Y-111132043D01*
X129379414Y-111204700D01*
X129260039Y-111308838D01*
X129168950Y-111438444D01*
X129111406Y-111586037D01*
X129110414Y-111593570D01*
X129110414Y-111593571D01*
X129095736Y-111705066D01*
X129090729Y-111743096D01*
X129108113Y-111900553D01*
X129110725Y-111907690D01*
X129111515Y-111911058D01*
X129107597Y-111981947D01*
X129065977Y-112039464D01*
X129055147Y-112046976D01*
X128932193Y-112123063D01*
X128920792Y-112132099D01*
X128806261Y-112246829D01*
X128797249Y-112258240D01*
X128712184Y-112396243D01*
X128706037Y-112409424D01*
X128654862Y-112563710D01*
X128651995Y-112577086D01*
X128642328Y-112671438D01*
X128642000Y-112677855D01*
X128642000Y-113127885D01*
X128646475Y-113143124D01*
X128647865Y-113144329D01*
X128655548Y-113146000D01*
X130128000Y-113146000D01*
X130196121Y-113166002D01*
X130242614Y-113219658D01*
X130254000Y-113272000D01*
X130254000Y-114814884D01*
X130258475Y-114830123D01*
X130259865Y-114831328D01*
X130267548Y-114832999D01*
X130647095Y-114832999D01*
X130653614Y-114832662D01*
X130749206Y-114822743D01*
X130762600Y-114819851D01*
X130916784Y-114768412D01*
X130929962Y-114762239D01*
X131067807Y-114676937D01*
X131079208Y-114667901D01*
X131193739Y-114553171D01*
X131202751Y-114541760D01*
X131287816Y-114403757D01*
X131293963Y-114390576D01*
X131345138Y-114236290D01*
X131348005Y-114222914D01*
X131354869Y-114155919D01*
X131381710Y-114090192D01*
X131439824Y-114049410D01*
X131510762Y-114046520D01*
X131572001Y-114082442D01*
X131579299Y-114090928D01*
X131696514Y-114240149D01*
X131701044Y-114244080D01*
X131701045Y-114244081D01*
X131851165Y-114374350D01*
X131851170Y-114374354D01*
X131855696Y-114378281D01*
X132038126Y-114483819D01*
X132237222Y-114552957D01*
X132243155Y-114553817D01*
X132243158Y-114553818D01*
X132439860Y-114582338D01*
X132439863Y-114582338D01*
X132445800Y-114583199D01*
X132656333Y-114573455D01*
X132662157Y-114572051D01*
X132662160Y-114572051D01*
X132855393Y-114525482D01*
X132855395Y-114525481D01*
X132861226Y-114524076D01*
X132866684Y-114521594D01*
X132866688Y-114521593D01*
X133044414Y-114440785D01*
X133053084Y-114436843D01*
X133224986Y-114314904D01*
X133370728Y-114162660D01*
X133427710Y-114074410D01*
X133481800Y-113990640D01*
X133481801Y-113990637D01*
X133485052Y-113985603D01*
X133563834Y-113790122D01*
X133604229Y-113583271D01*
X133604500Y-113577730D01*
X133604500Y-113272341D01*
X133589507Y-113115194D01*
X133530177Y-112912958D01*
X133479415Y-112814397D01*
X133436422Y-112730921D01*
X133436420Y-112730918D01*
X133433676Y-112725590D01*
X133364355Y-112637340D01*
X133307192Y-112564568D01*
X133307188Y-112564564D01*
X133303486Y-112559851D01*
X133298955Y-112555919D01*
X133148835Y-112425650D01*
X133148830Y-112425646D01*
X133144304Y-112421719D01*
X133045506Y-112364563D01*
X132996559Y-112313139D01*
X132983183Y-112243414D01*
X133009627Y-112177526D01*
X133067495Y-112136394D01*
X133108602Y-112129500D01*
X134382515Y-112129500D01*
X134450636Y-112149502D01*
X134497129Y-112203158D01*
X134507233Y-112273432D01*
X134477739Y-112338012D01*
X134447620Y-112362837D01*
X134446916Y-112363157D01*
X134442028Y-112366624D01*
X134442025Y-112366626D01*
X134281865Y-112480236D01*
X134275014Y-112485096D01*
X134129272Y-112637340D01*
X134126021Y-112642375D01*
X134068848Y-112730921D01*
X134014948Y-112814397D01*
X133936166Y-113009878D01*
X133895771Y-113216729D01*
X133895500Y-113222270D01*
X133895500Y-113527659D01*
X133910493Y-113684806D01*
X133969823Y-113887042D01*
X133972573Y-113892381D01*
X134051960Y-114046520D01*
X134066324Y-114074410D01*
X134078721Y-114090192D01*
X134192808Y-114235432D01*
X134192812Y-114235436D01*
X134196514Y-114240149D01*
X134201044Y-114244080D01*
X134201045Y-114244081D01*
X134351165Y-114374350D01*
X134351170Y-114374354D01*
X134355696Y-114378281D01*
X134538126Y-114483819D01*
X134737222Y-114552957D01*
X134743155Y-114553817D01*
X134743158Y-114553818D01*
X134939860Y-114582338D01*
X134939863Y-114582338D01*
X134945800Y-114583199D01*
X135156333Y-114573455D01*
X135162157Y-114572051D01*
X135162160Y-114572051D01*
X135355393Y-114525482D01*
X135355395Y-114525481D01*
X135361226Y-114524076D01*
X135366684Y-114521594D01*
X135366688Y-114521593D01*
X135544414Y-114440785D01*
X135553084Y-114436843D01*
X135724986Y-114314904D01*
X135870728Y-114162660D01*
X135896494Y-114122756D01*
X138895500Y-114122756D01*
X138902202Y-114184448D01*
X138952929Y-114319764D01*
X138958309Y-114326943D01*
X138958311Y-114326946D01*
X138996785Y-114378281D01*
X139039596Y-114435404D01*
X139046776Y-114440785D01*
X139148054Y-114516689D01*
X139148057Y-114516691D01*
X139155236Y-114522071D01*
X139238196Y-114553171D01*
X139283157Y-114570026D01*
X139283159Y-114570026D01*
X139290552Y-114572798D01*
X139298402Y-114573651D01*
X139298403Y-114573651D01*
X139299149Y-114573732D01*
X139352244Y-114579500D01*
X140647756Y-114579500D01*
X140700851Y-114573732D01*
X140701597Y-114573651D01*
X140701598Y-114573651D01*
X140709448Y-114572798D01*
X140716841Y-114570026D01*
X140716843Y-114570026D01*
X140761804Y-114553171D01*
X140844764Y-114522071D01*
X140851943Y-114516691D01*
X140851946Y-114516689D01*
X140953224Y-114440785D01*
X140960404Y-114435404D01*
X141003215Y-114378281D01*
X141041689Y-114326946D01*
X141041691Y-114326943D01*
X141047071Y-114319764D01*
X141097798Y-114184448D01*
X141104500Y-114122756D01*
X141104500Y-113527659D01*
X141395500Y-113527659D01*
X141410493Y-113684806D01*
X141469823Y-113887042D01*
X141472573Y-113892381D01*
X141551960Y-114046520D01*
X141566324Y-114074410D01*
X141578721Y-114090192D01*
X141692808Y-114235432D01*
X141692812Y-114235436D01*
X141696514Y-114240149D01*
X141701044Y-114244080D01*
X141701045Y-114244081D01*
X141851165Y-114374350D01*
X141851170Y-114374354D01*
X141855696Y-114378281D01*
X142038126Y-114483819D01*
X142237222Y-114552957D01*
X142243155Y-114553817D01*
X142243158Y-114553818D01*
X142439860Y-114582338D01*
X142439863Y-114582338D01*
X142445800Y-114583199D01*
X142656333Y-114573455D01*
X142662157Y-114572051D01*
X142662160Y-114572051D01*
X142855393Y-114525482D01*
X142855395Y-114525481D01*
X142861226Y-114524076D01*
X142866684Y-114521594D01*
X142866688Y-114521593D01*
X143044414Y-114440785D01*
X143053084Y-114436843D01*
X143224986Y-114314904D01*
X143370728Y-114162660D01*
X143427710Y-114074410D01*
X143481800Y-113990640D01*
X143481801Y-113990637D01*
X143485052Y-113985603D01*
X143563834Y-113790122D01*
X143604229Y-113583271D01*
X143604500Y-113577730D01*
X143604500Y-113527659D01*
X143895500Y-113527659D01*
X143910493Y-113684806D01*
X143969823Y-113887042D01*
X143972573Y-113892381D01*
X144051960Y-114046520D01*
X144066324Y-114074410D01*
X144078721Y-114090192D01*
X144192808Y-114235432D01*
X144192812Y-114235436D01*
X144196514Y-114240149D01*
X144201044Y-114244080D01*
X144201045Y-114244081D01*
X144351165Y-114374350D01*
X144351170Y-114374354D01*
X144355696Y-114378281D01*
X144538126Y-114483819D01*
X144737222Y-114552957D01*
X144743155Y-114553817D01*
X144743158Y-114553818D01*
X144939860Y-114582338D01*
X144939863Y-114582338D01*
X144945800Y-114583199D01*
X145156333Y-114573455D01*
X145162157Y-114572051D01*
X145162160Y-114572051D01*
X145355393Y-114525482D01*
X145355395Y-114525481D01*
X145361226Y-114524076D01*
X145366684Y-114521594D01*
X145366688Y-114521593D01*
X145544414Y-114440785D01*
X145553084Y-114436843D01*
X145724986Y-114314904D01*
X145870728Y-114162660D01*
X145896920Y-114122095D01*
X148642001Y-114122095D01*
X148642338Y-114128614D01*
X148652257Y-114224206D01*
X148655149Y-114237600D01*
X148706588Y-114391784D01*
X148712761Y-114404962D01*
X148798063Y-114542807D01*
X148807099Y-114554208D01*
X148921829Y-114668739D01*
X148933240Y-114677751D01*
X149071243Y-114762816D01*
X149084424Y-114768963D01*
X149238710Y-114820138D01*
X149252086Y-114823005D01*
X149346438Y-114832672D01*
X149352854Y-114833000D01*
X149727885Y-114833000D01*
X149743124Y-114828525D01*
X149744329Y-114827135D01*
X149746000Y-114819452D01*
X149746000Y-114814884D01*
X150254000Y-114814884D01*
X150258475Y-114830123D01*
X150259865Y-114831328D01*
X150267548Y-114832999D01*
X150647095Y-114832999D01*
X150653614Y-114832662D01*
X150749206Y-114822743D01*
X150762600Y-114819851D01*
X150916784Y-114768412D01*
X150929962Y-114762239D01*
X151067807Y-114676937D01*
X151079208Y-114667901D01*
X151193739Y-114553171D01*
X151202751Y-114541760D01*
X151287816Y-114403757D01*
X151293963Y-114390576D01*
X151345138Y-114236290D01*
X151348005Y-114222914D01*
X151354869Y-114155919D01*
X151381710Y-114090192D01*
X151439824Y-114049410D01*
X151510762Y-114046520D01*
X151572001Y-114082442D01*
X151579299Y-114090928D01*
X151696514Y-114240149D01*
X151701044Y-114244080D01*
X151701045Y-114244081D01*
X151851165Y-114374350D01*
X151851170Y-114374354D01*
X151855696Y-114378281D01*
X152038126Y-114483819D01*
X152237222Y-114552957D01*
X152243155Y-114553817D01*
X152243158Y-114553818D01*
X152439860Y-114582338D01*
X152439863Y-114582338D01*
X152445800Y-114583199D01*
X152656333Y-114573455D01*
X152662157Y-114572051D01*
X152662160Y-114572051D01*
X152855393Y-114525482D01*
X152855395Y-114525481D01*
X152861226Y-114524076D01*
X152866684Y-114521594D01*
X152866688Y-114521593D01*
X153044414Y-114440785D01*
X153053084Y-114436843D01*
X153224986Y-114314904D01*
X153370728Y-114162660D01*
X153396920Y-114122095D01*
X156142001Y-114122095D01*
X156142338Y-114128614D01*
X156152257Y-114224206D01*
X156155149Y-114237600D01*
X156206588Y-114391784D01*
X156212761Y-114404962D01*
X156298063Y-114542807D01*
X156307099Y-114554208D01*
X156421829Y-114668739D01*
X156433240Y-114677751D01*
X156571243Y-114762816D01*
X156584424Y-114768963D01*
X156738710Y-114820138D01*
X156752086Y-114823005D01*
X156846438Y-114832672D01*
X156852854Y-114833000D01*
X157227885Y-114833000D01*
X157243124Y-114828525D01*
X157244329Y-114827135D01*
X157246000Y-114819452D01*
X157246000Y-113672115D01*
X157241525Y-113656876D01*
X157240135Y-113655671D01*
X157232452Y-113654000D01*
X156160116Y-113654000D01*
X156144877Y-113658475D01*
X156143672Y-113659865D01*
X156142001Y-113667548D01*
X156142001Y-114122095D01*
X153396920Y-114122095D01*
X153427710Y-114074410D01*
X153481800Y-113990640D01*
X153481801Y-113990637D01*
X153485052Y-113985603D01*
X153563834Y-113790122D01*
X153604229Y-113583271D01*
X153604500Y-113577730D01*
X153604500Y-113272341D01*
X153590718Y-113127885D01*
X156142000Y-113127885D01*
X156146475Y-113143124D01*
X156147865Y-113144329D01*
X156155548Y-113146000D01*
X157227885Y-113146000D01*
X157243124Y-113141525D01*
X157244329Y-113140135D01*
X157246000Y-113132452D01*
X157246000Y-111985116D01*
X157241525Y-111969877D01*
X157240135Y-111968672D01*
X157232452Y-111967001D01*
X156852905Y-111967001D01*
X156846386Y-111967338D01*
X156750794Y-111977257D01*
X156737400Y-111980149D01*
X156583216Y-112031588D01*
X156570038Y-112037761D01*
X156432193Y-112123063D01*
X156420792Y-112132099D01*
X156306261Y-112246829D01*
X156297249Y-112258240D01*
X156212184Y-112396243D01*
X156206037Y-112409424D01*
X156154862Y-112563710D01*
X156151995Y-112577086D01*
X156142328Y-112671438D01*
X156142000Y-112677855D01*
X156142000Y-113127885D01*
X153590718Y-113127885D01*
X153589507Y-113115194D01*
X153530177Y-112912958D01*
X153479415Y-112814397D01*
X153436422Y-112730921D01*
X153436420Y-112730918D01*
X153433676Y-112725590D01*
X153364355Y-112637340D01*
X153307192Y-112564568D01*
X153307188Y-112564564D01*
X153303486Y-112559851D01*
X153298955Y-112555919D01*
X153148835Y-112425650D01*
X153148830Y-112425646D01*
X153144304Y-112421719D01*
X152961874Y-112316181D01*
X152762778Y-112247043D01*
X152756845Y-112246183D01*
X152756842Y-112246182D01*
X152560140Y-112217662D01*
X152560137Y-112217662D01*
X152554200Y-112216801D01*
X152343667Y-112226545D01*
X152337843Y-112227949D01*
X152337840Y-112227949D01*
X152144607Y-112274518D01*
X152144605Y-112274519D01*
X152138774Y-112275924D01*
X152133316Y-112278406D01*
X152133312Y-112278407D01*
X152087689Y-112299151D01*
X151946916Y-112363157D01*
X151890456Y-112403207D01*
X151785431Y-112477707D01*
X151775014Y-112485096D01*
X151629272Y-112637340D01*
X151626021Y-112642375D01*
X151586447Y-112703664D01*
X151532692Y-112750042D01*
X151462396Y-112759995D01*
X151397879Y-112730363D01*
X151359623Y-112670555D01*
X151355268Y-112648319D01*
X151347743Y-112575794D01*
X151344851Y-112562400D01*
X151293412Y-112408216D01*
X151287239Y-112395038D01*
X151201937Y-112257193D01*
X151192901Y-112245792D01*
X151078171Y-112131261D01*
X151066760Y-112122249D01*
X150928757Y-112037184D01*
X150915576Y-112031037D01*
X150761290Y-111979862D01*
X150747914Y-111976995D01*
X150653562Y-111967328D01*
X150647145Y-111967000D01*
X150272115Y-111967000D01*
X150256876Y-111971475D01*
X150255671Y-111972865D01*
X150254000Y-111980548D01*
X150254000Y-114814884D01*
X149746000Y-114814884D01*
X149746000Y-113672115D01*
X149741525Y-113656876D01*
X149740135Y-113655671D01*
X149732452Y-113654000D01*
X148660116Y-113654000D01*
X148644877Y-113658475D01*
X148643672Y-113659865D01*
X148642001Y-113667548D01*
X148642001Y-114122095D01*
X145896920Y-114122095D01*
X145927710Y-114074410D01*
X145981800Y-113990640D01*
X145981801Y-113990637D01*
X145985052Y-113985603D01*
X146063834Y-113790122D01*
X146104229Y-113583271D01*
X146104500Y-113577730D01*
X146104500Y-113272341D01*
X146090718Y-113127885D01*
X148642000Y-113127885D01*
X148646475Y-113143124D01*
X148647865Y-113144329D01*
X148655548Y-113146000D01*
X149727885Y-113146000D01*
X149743124Y-113141525D01*
X149744329Y-113140135D01*
X149746000Y-113132452D01*
X149746000Y-111985116D01*
X149741525Y-111969877D01*
X149740135Y-111968672D01*
X149732452Y-111967001D01*
X149352905Y-111967001D01*
X149346386Y-111967338D01*
X149250794Y-111977257D01*
X149237400Y-111980149D01*
X149083216Y-112031588D01*
X149070038Y-112037761D01*
X148932193Y-112123063D01*
X148920792Y-112132099D01*
X148806261Y-112246829D01*
X148797249Y-112258240D01*
X148712184Y-112396243D01*
X148706037Y-112409424D01*
X148654862Y-112563710D01*
X148651995Y-112577086D01*
X148642328Y-112671438D01*
X148642000Y-112677855D01*
X148642000Y-113127885D01*
X146090718Y-113127885D01*
X146089507Y-113115194D01*
X146030177Y-112912958D01*
X145979415Y-112814397D01*
X145936422Y-112730921D01*
X145936420Y-112730918D01*
X145933676Y-112725590D01*
X145864355Y-112637340D01*
X145807192Y-112564568D01*
X145807188Y-112564564D01*
X145803486Y-112559851D01*
X145798955Y-112555919D01*
X145648835Y-112425650D01*
X145648830Y-112425646D01*
X145644304Y-112421719D01*
X145461874Y-112316181D01*
X145262778Y-112247043D01*
X145256845Y-112246183D01*
X145256842Y-112246182D01*
X145060140Y-112217662D01*
X145060137Y-112217662D01*
X145054200Y-112216801D01*
X144843667Y-112226545D01*
X144837843Y-112227949D01*
X144837840Y-112227949D01*
X144644607Y-112274518D01*
X144644605Y-112274519D01*
X144638774Y-112275924D01*
X144633316Y-112278406D01*
X144633312Y-112278407D01*
X144587689Y-112299151D01*
X144446916Y-112363157D01*
X144390456Y-112403207D01*
X144285431Y-112477707D01*
X144275014Y-112485096D01*
X144129272Y-112637340D01*
X144126021Y-112642375D01*
X144068848Y-112730921D01*
X144014948Y-112814397D01*
X143936166Y-113009878D01*
X143895771Y-113216729D01*
X143895500Y-113222270D01*
X143895500Y-113527659D01*
X143604500Y-113527659D01*
X143604500Y-113272341D01*
X143589507Y-113115194D01*
X143530177Y-112912958D01*
X143479415Y-112814397D01*
X143436422Y-112730921D01*
X143436420Y-112730918D01*
X143433676Y-112725590D01*
X143364355Y-112637340D01*
X143307192Y-112564568D01*
X143307188Y-112564564D01*
X143303486Y-112559851D01*
X143298955Y-112555919D01*
X143148835Y-112425650D01*
X143148830Y-112425646D01*
X143144304Y-112421719D01*
X142961874Y-112316181D01*
X142762778Y-112247043D01*
X142756845Y-112246183D01*
X142756842Y-112246182D01*
X142560140Y-112217662D01*
X142560137Y-112217662D01*
X142554200Y-112216801D01*
X142343667Y-112226545D01*
X142337843Y-112227949D01*
X142337840Y-112227949D01*
X142144607Y-112274518D01*
X142144605Y-112274519D01*
X142138774Y-112275924D01*
X142133316Y-112278406D01*
X142133312Y-112278407D01*
X142087689Y-112299151D01*
X141946916Y-112363157D01*
X141890456Y-112403207D01*
X141785431Y-112477707D01*
X141775014Y-112485096D01*
X141629272Y-112637340D01*
X141626021Y-112642375D01*
X141568848Y-112730921D01*
X141514948Y-112814397D01*
X141436166Y-113009878D01*
X141395771Y-113216729D01*
X141395500Y-113222270D01*
X141395500Y-113527659D01*
X141104500Y-113527659D01*
X141104500Y-112677244D01*
X141097798Y-112615552D01*
X141047071Y-112480236D01*
X141041691Y-112473057D01*
X141041689Y-112473054D01*
X140965785Y-112371776D01*
X140960404Y-112364596D01*
X140924933Y-112338012D01*
X140851946Y-112283311D01*
X140851943Y-112283309D01*
X140844764Y-112277929D01*
X140741621Y-112239263D01*
X140716843Y-112229974D01*
X140716841Y-112229974D01*
X140709448Y-112227202D01*
X140701598Y-112226349D01*
X140701597Y-112226349D01*
X140651153Y-112220869D01*
X140651152Y-112220869D01*
X140647756Y-112220500D01*
X139352244Y-112220500D01*
X139348848Y-112220869D01*
X139348847Y-112220869D01*
X139298403Y-112226349D01*
X139298402Y-112226349D01*
X139290552Y-112227202D01*
X139283159Y-112229974D01*
X139283157Y-112229974D01*
X139258379Y-112239263D01*
X139155236Y-112277929D01*
X139148057Y-112283309D01*
X139148054Y-112283311D01*
X139075067Y-112338012D01*
X139039596Y-112364596D01*
X139034215Y-112371776D01*
X138958311Y-112473054D01*
X138958309Y-112473057D01*
X138952929Y-112480236D01*
X138902202Y-112615552D01*
X138895500Y-112677244D01*
X138895500Y-114122756D01*
X135896494Y-114122756D01*
X135927710Y-114074410D01*
X135981800Y-113990640D01*
X135981801Y-113990637D01*
X135985052Y-113985603D01*
X136063834Y-113790122D01*
X136104229Y-113583271D01*
X136104500Y-113577730D01*
X136104500Y-113272341D01*
X136089507Y-113115194D01*
X136030177Y-112912958D01*
X135979415Y-112814397D01*
X135936422Y-112730921D01*
X135936420Y-112730918D01*
X135933676Y-112725590D01*
X135864355Y-112637340D01*
X135807192Y-112564568D01*
X135807188Y-112564564D01*
X135803486Y-112559851D01*
X135798955Y-112555919D01*
X135648835Y-112425650D01*
X135648830Y-112425646D01*
X135644304Y-112421719D01*
X135545506Y-112364563D01*
X135496559Y-112313139D01*
X135483183Y-112243414D01*
X135509627Y-112177526D01*
X135567495Y-112136394D01*
X135608602Y-112129500D01*
X135960212Y-112129500D01*
X135979922Y-112131051D01*
X135982942Y-112131529D01*
X135990200Y-112132679D01*
X135990201Y-112132679D01*
X136000000Y-112134231D01*
X136000473Y-112134156D01*
X136219275Y-112124040D01*
X136401630Y-112115610D01*
X136401637Y-112115609D01*
X136404521Y-112115476D01*
X136538578Y-112096776D01*
X136802703Y-112059932D01*
X136802706Y-112059931D01*
X136805591Y-112059529D01*
X137025155Y-112007888D01*
X137196948Y-111967483D01*
X137196954Y-111967481D01*
X137199787Y-111966815D01*
X137583748Y-111838124D01*
X137954196Y-111674555D01*
X138307972Y-111477503D01*
X138364992Y-111438444D01*
X138639661Y-111250292D01*
X138642058Y-111248650D01*
X138644284Y-111246802D01*
X138644294Y-111246794D01*
X138951366Y-110991804D01*
X138951369Y-110991801D01*
X138953602Y-110989947D01*
X139239947Y-110703602D01*
X139241804Y-110701366D01*
X139496794Y-110394294D01*
X139496802Y-110394284D01*
X139498650Y-110392058D01*
X139564491Y-110295942D01*
X139725855Y-110060378D01*
X139725856Y-110060376D01*
X139727503Y-110057972D01*
X139828941Y-109875856D01*
X139899043Y-109750000D01*
X141550000Y-109750000D01*
X147450000Y-109750000D01*
X147450000Y-102450000D01*
X141550000Y-102450000D01*
X141550000Y-109750000D01*
X139899043Y-109750000D01*
X139923131Y-109706753D01*
X139923133Y-109706749D01*
X139924555Y-109704196D01*
X140088124Y-109333748D01*
X140216815Y-108949787D01*
X140309529Y-108555591D01*
X140365476Y-108154521D01*
X140366763Y-108126699D01*
X140378730Y-107867840D01*
X140384156Y-107750473D01*
X140384231Y-107750000D01*
X140381051Y-107729922D01*
X140379500Y-107710212D01*
X140379500Y-104039788D01*
X140381051Y-104020077D01*
X140382680Y-104009794D01*
X140382680Y-104009790D01*
X140384231Y-104000000D01*
X140382679Y-103990203D01*
X140382679Y-103987945D01*
X140381494Y-103964490D01*
X140388154Y-103845892D01*
X140395580Y-103713658D01*
X140397162Y-103699621D01*
X140404746Y-103654989D01*
X140444017Y-103423860D01*
X140447161Y-103410085D01*
X140524596Y-103141302D01*
X140529263Y-103127965D01*
X140613027Y-102925738D01*
X140636305Y-102869541D01*
X140642434Y-102856814D01*
X140677340Y-102793658D01*
X140736849Y-102685984D01*
X140777738Y-102612002D01*
X140785255Y-102600039D01*
X140947114Y-102371919D01*
X140955924Y-102360871D01*
X141107149Y-102191651D01*
X141142313Y-102152302D01*
X141152303Y-102142312D01*
X141210106Y-102090656D01*
X141360872Y-101955923D01*
X141371919Y-101947114D01*
X141600039Y-101785255D01*
X141612002Y-101777738D01*
X141715681Y-101720436D01*
X141856818Y-101642432D01*
X141869541Y-101636305D01*
X141987555Y-101587422D01*
X142127965Y-101529263D01*
X142141302Y-101524596D01*
X142410085Y-101447161D01*
X142423860Y-101444017D01*
X142561740Y-101420590D01*
X142699626Y-101397161D01*
X142713658Y-101395580D01*
X142866669Y-101386987D01*
X142964490Y-101381494D01*
X142987945Y-101382679D01*
X142990203Y-101382679D01*
X143000000Y-101384231D01*
X143009793Y-101382680D01*
X143009794Y-101382680D01*
X143020077Y-101381051D01*
X143039788Y-101379500D01*
X146400141Y-101379500D01*
X146468262Y-101399502D01*
X146495522Y-101423169D01*
X146496672Y-101424501D01*
X146500908Y-101430805D01*
X146506525Y-101435916D01*
X146609113Y-101529263D01*
X146618076Y-101537419D01*
X146757293Y-101613008D01*
X146910522Y-101653207D01*
X146994477Y-101654526D01*
X147061319Y-101655576D01*
X147061322Y-101655576D01*
X147068916Y-101655695D01*
X147223332Y-101620329D01*
X147293742Y-101584917D01*
X147358072Y-101552563D01*
X147358075Y-101552561D01*
X147364855Y-101549151D01*
X147370626Y-101544222D01*
X147370629Y-101544220D01*
X147479536Y-101451204D01*
X147479536Y-101451203D01*
X147485314Y-101446269D01*
X147577755Y-101317624D01*
X147616034Y-101222402D01*
X147636557Y-101171351D01*
X147680524Y-101115607D01*
X147747649Y-101092482D01*
X147816620Y-101109319D01*
X147842559Y-101129253D01*
X148453519Y-101740213D01*
X148466359Y-101755246D01*
X148478308Y-101771692D01*
X148486328Y-101777519D01*
X148490801Y-101781992D01*
X148504888Y-101794844D01*
X148590709Y-101892703D01*
X148600741Y-101905777D01*
X148624283Y-101941010D01*
X148688045Y-102036438D01*
X148696285Y-102050710D01*
X148765790Y-102191651D01*
X148772096Y-102206877D01*
X148822609Y-102355682D01*
X148826873Y-102371595D01*
X148857530Y-102525721D01*
X148859681Y-102542061D01*
X148868194Y-102671935D01*
X148867321Y-102690972D01*
X148867321Y-102697310D01*
X148865769Y-102707106D01*
X148867320Y-102716898D01*
X148867320Y-102716900D01*
X148868949Y-102727183D01*
X148870500Y-102746894D01*
X148870500Y-103655187D01*
X148850498Y-103723308D01*
X148827330Y-103750135D01*
X148760039Y-103808838D01*
X148668950Y-103938444D01*
X148649557Y-103988184D01*
X148617387Y-104070697D01*
X148611406Y-104086037D01*
X148610414Y-104093570D01*
X148610414Y-104093571D01*
X148592870Y-104226837D01*
X148590729Y-104243096D01*
X148597438Y-104303859D01*
X148606579Y-104386655D01*
X148608113Y-104400553D01*
X148610723Y-104407684D01*
X148610723Y-104407686D01*
X148649558Y-104513807D01*
X148662553Y-104549319D01*
X148666789Y-104555622D01*
X148666789Y-104555623D01*
X148734062Y-104655735D01*
X148750908Y-104680805D01*
X148756527Y-104685918D01*
X148756528Y-104685919D01*
X148862460Y-104782309D01*
X148868076Y-104787419D01*
X149007293Y-104863008D01*
X149160522Y-104903207D01*
X149244477Y-104904526D01*
X149311319Y-104905576D01*
X149311322Y-104905576D01*
X149318916Y-104905695D01*
X149473332Y-104870329D01*
X149555592Y-104828957D01*
X149608072Y-104802563D01*
X149608075Y-104802561D01*
X149614855Y-104799151D01*
X149620626Y-104794222D01*
X149620629Y-104794220D01*
X149729536Y-104701204D01*
X149729536Y-104701203D01*
X149735314Y-104696269D01*
X149827755Y-104567624D01*
X149886842Y-104420641D01*
X149896428Y-104353283D01*
X149908581Y-104267891D01*
X149908581Y-104267888D01*
X149909162Y-104263807D01*
X149909307Y-104250000D01*
X149890276Y-104092733D01*
X149834280Y-103944546D01*
X149795444Y-103888039D01*
X149748855Y-103820251D01*
X149748854Y-103820249D01*
X149744553Y-103813992D01*
X149671681Y-103749065D01*
X149634126Y-103688816D01*
X149629500Y-103654989D01*
X149629500Y-102746894D01*
X149631051Y-102727183D01*
X149632680Y-102716898D01*
X149634231Y-102707106D01*
X149632680Y-102697313D01*
X149632680Y-102696376D01*
X149631637Y-102686627D01*
X149631432Y-102682966D01*
X149619646Y-102473112D01*
X149619634Y-102473040D01*
X149631761Y-102403786D01*
X149679872Y-102351576D01*
X149748572Y-102333665D01*
X149816050Y-102355739D01*
X149833817Y-102370511D01*
X151849961Y-104386655D01*
X151862803Y-104401690D01*
X151874753Y-104418138D01*
X151882772Y-104423964D01*
X151889788Y-104430980D01*
X151889679Y-104431089D01*
X151900783Y-104441353D01*
X151942541Y-104490246D01*
X151971571Y-104555036D01*
X151960966Y-104625236D01*
X151949815Y-104644528D01*
X151926505Y-104677695D01*
X151918950Y-104688444D01*
X151898020Y-104742127D01*
X151866178Y-104823798D01*
X151861406Y-104836037D01*
X151860414Y-104843570D01*
X151860414Y-104843571D01*
X151846894Y-104946269D01*
X151840729Y-104993096D01*
X151848549Y-105063929D01*
X151857021Y-105140660D01*
X151858113Y-105150553D01*
X151860723Y-105157684D01*
X151860723Y-105157686D01*
X151901108Y-105268043D01*
X151912553Y-105299319D01*
X151916789Y-105305622D01*
X151916789Y-105305623D01*
X151947531Y-105351371D01*
X152000908Y-105430805D01*
X152006527Y-105435918D01*
X152006528Y-105435919D01*
X152083076Y-105505572D01*
X152118076Y-105537419D01*
X152257293Y-105613008D01*
X152410522Y-105653207D01*
X152494477Y-105654526D01*
X152561319Y-105655576D01*
X152561322Y-105655576D01*
X152568916Y-105655695D01*
X152723332Y-105620329D01*
X152793742Y-105584917D01*
X152858072Y-105552563D01*
X152858075Y-105552561D01*
X152864855Y-105549151D01*
X152870626Y-105544222D01*
X152870629Y-105544220D01*
X152979536Y-105451204D01*
X152979536Y-105451203D01*
X152985314Y-105446269D01*
X153022141Y-105395019D01*
X153078135Y-105351371D01*
X153148839Y-105344925D01*
X153211803Y-105377728D01*
X153229045Y-105398270D01*
X153250908Y-105430805D01*
X153256527Y-105435918D01*
X153256528Y-105435919D01*
X153333076Y-105505572D01*
X153368076Y-105537419D01*
X153507293Y-105613008D01*
X153660522Y-105653207D01*
X153744477Y-105654526D01*
X153811319Y-105655576D01*
X153811322Y-105655576D01*
X153818916Y-105655695D01*
X153973332Y-105620329D01*
X154043742Y-105584917D01*
X154108072Y-105552563D01*
X154108075Y-105552561D01*
X154114855Y-105549151D01*
X154120626Y-105544222D01*
X154120629Y-105544220D01*
X154229536Y-105451204D01*
X154229536Y-105451203D01*
X154235314Y-105446269D01*
X154327755Y-105317624D01*
X154386842Y-105170641D01*
X154402029Y-105063929D01*
X154408581Y-105017891D01*
X154408581Y-105017888D01*
X154409162Y-105013807D01*
X154409307Y-105000000D01*
X154390276Y-104842733D01*
X154334280Y-104694546D01*
X154286645Y-104625236D01*
X154248855Y-104570251D01*
X154248854Y-104570249D01*
X154244553Y-104563992D01*
X154126275Y-104458611D01*
X153986274Y-104384484D01*
X153832633Y-104345892D01*
X153825034Y-104345852D01*
X153825033Y-104345852D01*
X153764626Y-104345536D01*
X153683335Y-104345110D01*
X153615321Y-104324752D01*
X153594901Y-104308207D01*
X147856774Y-98570080D01*
X150218412Y-98570080D01*
X150221316Y-98580082D01*
X150221316Y-98580085D01*
X150249160Y-98675997D01*
X150253589Y-98691253D01*
X150256425Y-98696051D01*
X150969999Y-99695054D01*
X151784372Y-100835177D01*
X151787687Y-100840055D01*
X151815803Y-100883599D01*
X151821828Y-100888349D01*
X151826369Y-100893972D01*
X153270768Y-102916130D01*
X153273032Y-102919300D01*
X153281391Y-102932706D01*
X153291317Y-102951101D01*
X153296390Y-102960504D01*
X153304037Y-102967573D01*
X153304038Y-102967574D01*
X153335387Y-102996552D01*
X153338973Y-103000001D01*
X153369164Y-103030205D01*
X153369168Y-103030208D01*
X153376530Y-103037573D01*
X153383413Y-103040947D01*
X153389043Y-103046151D01*
X153398566Y-103050361D01*
X153437625Y-103067629D01*
X153442134Y-103069730D01*
X153489826Y-103093107D01*
X153497432Y-103094069D01*
X153504443Y-103097169D01*
X153514815Y-103098067D01*
X153514817Y-103098068D01*
X153541439Y-103100374D01*
X153557396Y-103101756D01*
X153562310Y-103102280D01*
X153615002Y-103108947D01*
X153622505Y-103107395D01*
X153630147Y-103108057D01*
X153646091Y-103104096D01*
X153681722Y-103095246D01*
X153686573Y-103094142D01*
X153728362Y-103085498D01*
X153728364Y-103085497D01*
X153738561Y-103083388D01*
X153745160Y-103079487D01*
X153752601Y-103077639D01*
X153797228Y-103048823D01*
X153801463Y-103046206D01*
X153838215Y-103024483D01*
X153838217Y-103024481D01*
X153847179Y-103019184D01*
X153852160Y-103013355D01*
X153858599Y-103009197D01*
X153891482Y-102967484D01*
X153894638Y-102963640D01*
X153922382Y-102931170D01*
X153929144Y-102923256D01*
X153931967Y-102916130D01*
X153936713Y-102910110D01*
X153940163Y-102900286D01*
X153940165Y-102900282D01*
X153954308Y-102860006D01*
X153956040Y-102855367D01*
X153975617Y-102805953D01*
X153975980Y-102798292D01*
X153978519Y-102791062D01*
X153979000Y-102785509D01*
X153979000Y-102737533D01*
X153979141Y-102731570D01*
X153981095Y-102690326D01*
X153981588Y-102679920D01*
X153979430Y-102672488D01*
X153979000Y-102665173D01*
X153979000Y-101941010D01*
X153999002Y-101872889D01*
X154052658Y-101826396D01*
X154122932Y-101816292D01*
X154187512Y-101845786D01*
X154198655Y-101856720D01*
X155128209Y-102889557D01*
X155139356Y-102901943D01*
X155213055Y-102960697D01*
X155331872Y-103003153D01*
X155342285Y-103003292D01*
X155342287Y-103003292D01*
X155391804Y-103003951D01*
X155458036Y-103004833D01*
X155577941Y-102965555D01*
X155678660Y-102889557D01*
X155749331Y-102785030D01*
X155775197Y-102689580D01*
X155779610Y-102673297D01*
X155779610Y-102673296D01*
X155782333Y-102663248D01*
X155774109Y-102537342D01*
X155725544Y-102420888D01*
X155722187Y-102416438D01*
X154178436Y-100701160D01*
X154147734Y-100637147D01*
X154156514Y-100566696D01*
X154176426Y-100534872D01*
X155704868Y-98751689D01*
X155704870Y-98751687D01*
X155708250Y-98747743D01*
X155738154Y-98698271D01*
X155751618Y-98675997D01*
X155751619Y-98675995D01*
X155757007Y-98667081D01*
X155783782Y-98543779D01*
X155780918Y-98519203D01*
X155772156Y-98444047D01*
X155769173Y-98418453D01*
X155714756Y-98304616D01*
X155626401Y-98214542D01*
X155617095Y-98209872D01*
X155617093Y-98209870D01*
X155541456Y-98171910D01*
X155513631Y-98157945D01*
X155388610Y-98140928D01*
X155378390Y-98142942D01*
X155378389Y-98142942D01*
X155275038Y-98163309D01*
X155275035Y-98163310D01*
X155264816Y-98165324D01*
X155255799Y-98170540D01*
X155255797Y-98170541D01*
X155253431Y-98171910D01*
X155155599Y-98228505D01*
X155151620Y-98232408D01*
X155149844Y-98234480D01*
X154200666Y-99341855D01*
X154141147Y-99380559D01*
X154070152Y-99380940D01*
X154010220Y-99342878D01*
X153980381Y-99278456D01*
X153979000Y-99259855D01*
X153979000Y-98564744D01*
X153980551Y-98545033D01*
X153982173Y-98534792D01*
X153983724Y-98525000D01*
X153982806Y-98519203D01*
X153966095Y-98328202D01*
X153922798Y-98166612D01*
X153916389Y-98142694D01*
X153916388Y-98142692D01*
X153914966Y-98137384D01*
X153894145Y-98092733D01*
X153833801Y-97963325D01*
X153833799Y-97963322D01*
X153831478Y-97958344D01*
X153718168Y-97796520D01*
X153578480Y-97656832D01*
X153573972Y-97653675D01*
X153573969Y-97653673D01*
X153490321Y-97595102D01*
X153416657Y-97543522D01*
X153411675Y-97541199D01*
X153411670Y-97541196D01*
X153242598Y-97462357D01*
X153242597Y-97462357D01*
X153237616Y-97460034D01*
X153232308Y-97458612D01*
X153232306Y-97458611D01*
X153052113Y-97410329D01*
X153052112Y-97410329D01*
X153046798Y-97408905D01*
X152850000Y-97391687D01*
X152653202Y-97408905D01*
X152647888Y-97410329D01*
X152647887Y-97410329D01*
X152467694Y-97458611D01*
X152467692Y-97458612D01*
X152462384Y-97460034D01*
X152457403Y-97462356D01*
X152457402Y-97462357D01*
X152288325Y-97541199D01*
X152288322Y-97541201D01*
X152283344Y-97543522D01*
X152121520Y-97656832D01*
X151981832Y-97796520D01*
X151868522Y-97958344D01*
X151866201Y-97963322D01*
X151866199Y-97963325D01*
X151805855Y-98092733D01*
X151785034Y-98137384D01*
X151783612Y-98142692D01*
X151783611Y-98142694D01*
X151777202Y-98166612D01*
X151733905Y-98328202D01*
X151717194Y-98519203D01*
X151716276Y-98525000D01*
X151735057Y-98643577D01*
X151789561Y-98750547D01*
X151874453Y-98835439D01*
X151981423Y-98889943D01*
X151991213Y-98891494D01*
X151991214Y-98891494D01*
X152090208Y-98907173D01*
X152100000Y-98908724D01*
X152109792Y-98907173D01*
X152208786Y-98891494D01*
X152208787Y-98891494D01*
X152218577Y-98889943D01*
X152233334Y-98882424D01*
X152303109Y-98869319D01*
X152368894Y-98896017D01*
X152390500Y-98917986D01*
X152401327Y-98932096D01*
X152401331Y-98932100D01*
X152406354Y-98938646D01*
X152530437Y-99033858D01*
X152674935Y-99093711D01*
X152830000Y-99114126D01*
X152985065Y-99093711D01*
X153046782Y-99068147D01*
X153117372Y-99060558D01*
X153180859Y-99092337D01*
X153217086Y-99153395D01*
X153221000Y-99184556D01*
X153221000Y-100120000D01*
X153200998Y-100188121D01*
X153147342Y-100234614D01*
X153095000Y-100246000D01*
X152359881Y-100246000D01*
X152291760Y-100225998D01*
X152257351Y-100193236D01*
X152253929Y-100188444D01*
X151338735Y-98907173D01*
X150893127Y-98283321D01*
X150893124Y-98283318D01*
X150890103Y-98279088D01*
X150823470Y-98212426D01*
X150710174Y-98156893D01*
X150699843Y-98155586D01*
X150699841Y-98155585D01*
X150595330Y-98142359D01*
X150595327Y-98142359D01*
X150584998Y-98141052D01*
X150574803Y-98143161D01*
X150574801Y-98143161D01*
X150471633Y-98164503D01*
X150471632Y-98164503D01*
X150461439Y-98166612D01*
X150352821Y-98230816D01*
X150270856Y-98326743D01*
X150224383Y-98444047D01*
X150218412Y-98570080D01*
X147856774Y-98570080D01*
X145671484Y-96384790D01*
X145658643Y-96369756D01*
X145652523Y-96361333D01*
X145646692Y-96353307D01*
X145640108Y-96348524D01*
X145635890Y-96344701D01*
X145635547Y-96344358D01*
X145635534Y-96344334D01*
X145635065Y-96343953D01*
X145415804Y-96145225D01*
X145415797Y-96145219D01*
X145413504Y-96143141D01*
X145385033Y-96122025D01*
X145163880Y-95958008D01*
X145161395Y-95956165D01*
X145006914Y-95863573D01*
X144958769Y-95811397D01*
X144946475Y-95741473D01*
X144973937Y-95676002D01*
X145032435Y-95635772D01*
X145071692Y-95629500D01*
X150900141Y-95629500D01*
X150968262Y-95649502D01*
X150995522Y-95673169D01*
X150996671Y-95674500D01*
X151000908Y-95680805D01*
X151118076Y-95787419D01*
X151257293Y-95863008D01*
X151410522Y-95903207D01*
X151494477Y-95904526D01*
X151561319Y-95905576D01*
X151561322Y-95905576D01*
X151568916Y-95905695D01*
X151723332Y-95870329D01*
X151793742Y-95834917D01*
X151858072Y-95802563D01*
X151858075Y-95802561D01*
X151864855Y-95799151D01*
X151870626Y-95794222D01*
X151870629Y-95794220D01*
X151979536Y-95701204D01*
X151979536Y-95701203D01*
X151985314Y-95696269D01*
X152077755Y-95567624D01*
X152136842Y-95420641D01*
X152146756Y-95350977D01*
X152158581Y-95267891D01*
X152158581Y-95267888D01*
X152159162Y-95263807D01*
X152159307Y-95250000D01*
X152157561Y-95235567D01*
X152147895Y-95155695D01*
X152140276Y-95092733D01*
X152084280Y-94944546D01*
X152045444Y-94888039D01*
X152003402Y-94826867D01*
X151981302Y-94759397D01*
X151999188Y-94690691D01*
X152051380Y-94642560D01*
X152107242Y-94629500D01*
X154290616Y-94629500D01*
X154358737Y-94649502D01*
X154379711Y-94666405D01*
X154810249Y-95096943D01*
X154844275Y-95159255D01*
X154846076Y-95202482D01*
X154840729Y-95243096D01*
X154846458Y-95294989D01*
X154854737Y-95369972D01*
X154858113Y-95400553D01*
X154860723Y-95407684D01*
X154860723Y-95407686D01*
X154899558Y-95513807D01*
X154912553Y-95549319D01*
X154916789Y-95555622D01*
X154916789Y-95555623D01*
X154989511Y-95663844D01*
X155000908Y-95680805D01*
X155006525Y-95685916D01*
X155006528Y-95685919D01*
X155102468Y-95773217D01*
X155118076Y-95787419D01*
X155257293Y-95863008D01*
X155410522Y-95903207D01*
X155494477Y-95904526D01*
X155561319Y-95905576D01*
X155561322Y-95905576D01*
X155568916Y-95905695D01*
X155723332Y-95870329D01*
X155820981Y-95821217D01*
X155890826Y-95808479D01*
X155956469Y-95835523D01*
X155966690Y-95844687D01*
X155975086Y-95853083D01*
X155992679Y-95875143D01*
X156051499Y-95968756D01*
X156063740Y-95994176D01*
X156100253Y-96098524D01*
X156106532Y-96126032D01*
X156116622Y-96215589D01*
X156116297Y-96230292D01*
X156117320Y-96230292D01*
X156117320Y-96240206D01*
X156115769Y-96250000D01*
X156117320Y-96259792D01*
X156118949Y-96270077D01*
X156120500Y-96289788D01*
X156120500Y-109460212D01*
X156118949Y-109479922D01*
X156115769Y-109500000D01*
X156116913Y-109507222D01*
X156097322Y-109573954D01*
X156043668Y-109620449D01*
X155973394Y-109630555D01*
X155960626Y-109628041D01*
X155840004Y-109597743D01*
X155840000Y-109597743D01*
X155832633Y-109595892D01*
X155825034Y-109595852D01*
X155825033Y-109595852D01*
X155759181Y-109595507D01*
X155674221Y-109595062D01*
X155666841Y-109596834D01*
X155666839Y-109596834D01*
X155527563Y-109630271D01*
X155527560Y-109630272D01*
X155520184Y-109632043D01*
X155379414Y-109704700D01*
X155260039Y-109808838D01*
X155255672Y-109815051D01*
X155255667Y-109815057D01*
X155254336Y-109816951D01*
X155253013Y-109818005D01*
X155250589Y-109820697D01*
X155250140Y-109820293D01*
X155198802Y-109861183D01*
X155151250Y-109870500D01*
X151849682Y-109870500D01*
X151781561Y-109850498D01*
X151755114Y-109824860D01*
X151753878Y-109825949D01*
X151748855Y-109820251D01*
X151744553Y-109813992D01*
X151626275Y-109708611D01*
X151618889Y-109704700D01*
X151492988Y-109638039D01*
X151492989Y-109638039D01*
X151486274Y-109634484D01*
X151332633Y-109595892D01*
X151325034Y-109595852D01*
X151325033Y-109595852D01*
X151259181Y-109595507D01*
X151174221Y-109595062D01*
X151166841Y-109596834D01*
X151166839Y-109596834D01*
X151027563Y-109630271D01*
X151027560Y-109630272D01*
X151020184Y-109632043D01*
X150879414Y-109704700D01*
X150760039Y-109808838D01*
X150668950Y-109938444D01*
X150663975Y-109951204D01*
X150615358Y-110075901D01*
X150611406Y-110086037D01*
X150610414Y-110093570D01*
X150610414Y-110093571D01*
X150592098Y-110232699D01*
X150590729Y-110243096D01*
X150608113Y-110400553D01*
X150662553Y-110549319D01*
X150750908Y-110680805D01*
X150756525Y-110685916D01*
X150756528Y-110685919D01*
X150803762Y-110728898D01*
X150868076Y-110787419D01*
X151007293Y-110863008D01*
X151160522Y-110903207D01*
X151244477Y-110904526D01*
X151311319Y-110905576D01*
X151311322Y-110905576D01*
X151318916Y-110905695D01*
X151473332Y-110870329D01*
X151543742Y-110834917D01*
X151608072Y-110802563D01*
X151608075Y-110802561D01*
X151614855Y-110799151D01*
X151620626Y-110794222D01*
X151620629Y-110794220D01*
X151729542Y-110701199D01*
X151729543Y-110701198D01*
X151735314Y-110696269D01*
X151745586Y-110681974D01*
X151801581Y-110638326D01*
X151847909Y-110629500D01*
X155150141Y-110629500D01*
X155218262Y-110649502D01*
X155245522Y-110673169D01*
X155246671Y-110674500D01*
X155250908Y-110680805D01*
X155368076Y-110787419D01*
X155507293Y-110863008D01*
X155660522Y-110903207D01*
X155744477Y-110904526D01*
X155811319Y-110905576D01*
X155811322Y-110905576D01*
X155818916Y-110905695D01*
X155973332Y-110870329D01*
X156043742Y-110834917D01*
X156108072Y-110802563D01*
X156108075Y-110802561D01*
X156114855Y-110799151D01*
X156120626Y-110794222D01*
X156120629Y-110794220D01*
X156229536Y-110701204D01*
X156229536Y-110701203D01*
X156235314Y-110696269D01*
X156327755Y-110567624D01*
X156365994Y-110472502D01*
X156410629Y-110416288D01*
X156442040Y-110394294D01*
X156478802Y-110368553D01*
X156618553Y-110228802D01*
X156621879Y-110224053D01*
X156696897Y-110116916D01*
X156731913Y-110066908D01*
X156734236Y-110061926D01*
X156734239Y-110061921D01*
X156813115Y-109892770D01*
X156813116Y-109892769D01*
X156815438Y-109887788D01*
X156819180Y-109873825D01*
X156852806Y-109748329D01*
X156866590Y-109696885D01*
X156877360Y-109573789D01*
X156878130Y-109568677D01*
X156879018Y-109566149D01*
X156879500Y-109560584D01*
X156879500Y-109554831D01*
X156879980Y-109543848D01*
X156882681Y-109512980D01*
X156882681Y-109512965D01*
X156883302Y-109505867D01*
X156884231Y-109500000D01*
X156881051Y-109479922D01*
X156879500Y-109460212D01*
X156879500Y-96289788D01*
X156881051Y-96270077D01*
X156882680Y-96259792D01*
X156884231Y-96250000D01*
X156883307Y-96244165D01*
X156866730Y-96033532D01*
X156857282Y-95994176D01*
X156817195Y-95827205D01*
X156816040Y-95822393D01*
X156814065Y-95817624D01*
X156734840Y-95626357D01*
X156734838Y-95626353D01*
X156732945Y-95621783D01*
X156619491Y-95436643D01*
X156478471Y-95271529D01*
X156313357Y-95130509D01*
X156143476Y-95026406D01*
X156095846Y-94973759D01*
X156091445Y-94963508D01*
X156086965Y-94951651D01*
X156086964Y-94951649D01*
X156084280Y-94944546D01*
X156045444Y-94888039D01*
X155998855Y-94820251D01*
X155998854Y-94820249D01*
X155994553Y-94813992D01*
X155876275Y-94708611D01*
X155868889Y-94704700D01*
X155811851Y-94674500D01*
X155736274Y-94634484D01*
X155582633Y-94595892D01*
X155575034Y-94595852D01*
X155575033Y-94595852D01*
X155514626Y-94595536D01*
X155433335Y-94595110D01*
X155365321Y-94574752D01*
X155344901Y-94558207D01*
X154806478Y-94019784D01*
X154791336Y-94001036D01*
X154790222Y-93999811D01*
X154784571Y-93991060D01*
X154769209Y-93978950D01*
X154728096Y-93921071D01*
X154724801Y-93850151D01*
X154760371Y-93788708D01*
X154823513Y-93756249D01*
X154847214Y-93754000D01*
X158370000Y-93754000D01*
X158438121Y-93774002D01*
X158484614Y-93827658D01*
X158496000Y-93880000D01*
X158496000Y-111883170D01*
X158475998Y-111951291D01*
X158422342Y-111997784D01*
X158352068Y-112007888D01*
X158330332Y-112002763D01*
X158261290Y-111979862D01*
X158247914Y-111976995D01*
X158153562Y-111967328D01*
X158147145Y-111967000D01*
X157772115Y-111967000D01*
X157756876Y-111971475D01*
X157755671Y-111972865D01*
X157754000Y-111980548D01*
X157754000Y-114814884D01*
X157758475Y-114830123D01*
X157759865Y-114831328D01*
X157767548Y-114832999D01*
X158147095Y-114832999D01*
X158153614Y-114832662D01*
X158249206Y-114822743D01*
X158262600Y-114819851D01*
X158416784Y-114768412D01*
X158429962Y-114762239D01*
X158567807Y-114676937D01*
X158579208Y-114667901D01*
X158693739Y-114553171D01*
X158702751Y-114541760D01*
X158787816Y-114403757D01*
X158793963Y-114390576D01*
X158845138Y-114236290D01*
X158848005Y-114222914D01*
X158854869Y-114155919D01*
X158881710Y-114090192D01*
X158939824Y-114049410D01*
X159010762Y-114046520D01*
X159072001Y-114082442D01*
X159079299Y-114090928D01*
X159196514Y-114240149D01*
X159201044Y-114244080D01*
X159201045Y-114244081D01*
X159351165Y-114374350D01*
X159351170Y-114374354D01*
X159355696Y-114378281D01*
X159538126Y-114483819D01*
X159737222Y-114552957D01*
X159743155Y-114553817D01*
X159743158Y-114553818D01*
X159939860Y-114582338D01*
X159939863Y-114582338D01*
X159945800Y-114583199D01*
X160156333Y-114573455D01*
X160162157Y-114572051D01*
X160162160Y-114572051D01*
X160355393Y-114525482D01*
X160355395Y-114525481D01*
X160361226Y-114524076D01*
X160366684Y-114521594D01*
X160366688Y-114521593D01*
X160544414Y-114440785D01*
X160553084Y-114436843D01*
X160724986Y-114314904D01*
X160870728Y-114162660D01*
X160927710Y-114074410D01*
X160981800Y-113990640D01*
X160981801Y-113990637D01*
X160985052Y-113985603D01*
X161063834Y-113790122D01*
X161104229Y-113583271D01*
X161104500Y-113577730D01*
X161104500Y-113272341D01*
X161089507Y-113115194D01*
X161030177Y-112912958D01*
X160979415Y-112814397D01*
X160936422Y-112730921D01*
X160936420Y-112730918D01*
X160933676Y-112725590D01*
X160864355Y-112637340D01*
X160807192Y-112564568D01*
X160807188Y-112564564D01*
X160803486Y-112559851D01*
X160798955Y-112555919D01*
X160705895Y-112475165D01*
X160667554Y-112415411D01*
X160667605Y-112344415D01*
X160706032Y-112284716D01*
X160770634Y-112255270D01*
X160788476Y-112254000D01*
X161705393Y-112254000D01*
X161773514Y-112274002D01*
X161820007Y-112327658D01*
X161830111Y-112397932D01*
X161800617Y-112462512D01*
X161784193Y-112477416D01*
X161784445Y-112477707D01*
X161779900Y-112481630D01*
X161775014Y-112485096D01*
X161629272Y-112637340D01*
X161626021Y-112642375D01*
X161568848Y-112730921D01*
X161514948Y-112814397D01*
X161436166Y-113009878D01*
X161395771Y-113216729D01*
X161395500Y-113222270D01*
X161395500Y-113527659D01*
X161410493Y-113684806D01*
X161469823Y-113887042D01*
X161472573Y-113892381D01*
X161551960Y-114046520D01*
X161566324Y-114074410D01*
X161578721Y-114090192D01*
X161692808Y-114235432D01*
X161692812Y-114235436D01*
X161696514Y-114240149D01*
X161701044Y-114244080D01*
X161701045Y-114244081D01*
X161851165Y-114374350D01*
X161851170Y-114374354D01*
X161855696Y-114378281D01*
X162038126Y-114483819D01*
X162237222Y-114552957D01*
X162243155Y-114553817D01*
X162243158Y-114553818D01*
X162439860Y-114582338D01*
X162439863Y-114582338D01*
X162445800Y-114583199D01*
X162656333Y-114573455D01*
X162662157Y-114572051D01*
X162662160Y-114572051D01*
X162855393Y-114525482D01*
X162855395Y-114525481D01*
X162861226Y-114524076D01*
X162866684Y-114521594D01*
X162866688Y-114521593D01*
X163044414Y-114440785D01*
X163053084Y-114436843D01*
X163224986Y-114314904D01*
X163370728Y-114162660D01*
X163427710Y-114074410D01*
X163481800Y-113990640D01*
X163481801Y-113990637D01*
X163485052Y-113985603D01*
X163563834Y-113790122D01*
X163604229Y-113583271D01*
X163604500Y-113577730D01*
X163604500Y-113272341D01*
X163589507Y-113115194D01*
X163530177Y-112912958D01*
X163479415Y-112814397D01*
X163436422Y-112730921D01*
X163436420Y-112730918D01*
X163433676Y-112725590D01*
X163364355Y-112637340D01*
X163307192Y-112564568D01*
X163307188Y-112564564D01*
X163303486Y-112559851D01*
X163298955Y-112555919D01*
X163205895Y-112475165D01*
X163167554Y-112415411D01*
X163167605Y-112344415D01*
X163206032Y-112284716D01*
X163270634Y-112255270D01*
X163288476Y-112254000D01*
X164620000Y-112254000D01*
X164688121Y-112274002D01*
X164734614Y-112327658D01*
X164746000Y-112380000D01*
X164746000Y-115274000D01*
X164725998Y-115342121D01*
X164672342Y-115388614D01*
X164620000Y-115400000D01*
X120380000Y-115400000D01*
X120311879Y-115379998D01*
X120265386Y-115326342D01*
X120254000Y-115274000D01*
X120254000Y-114122095D01*
X121142001Y-114122095D01*
X121142338Y-114128614D01*
X121152257Y-114224206D01*
X121155149Y-114237600D01*
X121206588Y-114391784D01*
X121212761Y-114404962D01*
X121298063Y-114542807D01*
X121307099Y-114554208D01*
X121421829Y-114668739D01*
X121433240Y-114677751D01*
X121571243Y-114762816D01*
X121584424Y-114768963D01*
X121738710Y-114820138D01*
X121752086Y-114823005D01*
X121846438Y-114832672D01*
X121852854Y-114833000D01*
X122227885Y-114833000D01*
X122243124Y-114828525D01*
X122244329Y-114827135D01*
X122246000Y-114819452D01*
X122246000Y-113672115D01*
X122241525Y-113656876D01*
X122240135Y-113655671D01*
X122232452Y-113654000D01*
X121160116Y-113654000D01*
X121144877Y-113658475D01*
X121143672Y-113659865D01*
X121142001Y-113667548D01*
X121142001Y-114122095D01*
X120254000Y-114122095D01*
X120254000Y-113127885D01*
X121142000Y-113127885D01*
X121146475Y-113143124D01*
X121147865Y-113144329D01*
X121155548Y-113146000D01*
X122227885Y-113146000D01*
X122243124Y-113141525D01*
X122244329Y-113140135D01*
X122246000Y-113132452D01*
X122246000Y-112053000D01*
X122266002Y-111984879D01*
X122319658Y-111938386D01*
X122372000Y-111927000D01*
X122628000Y-111927000D01*
X122696121Y-111947002D01*
X122742614Y-112000658D01*
X122754000Y-112053000D01*
X122754000Y-114814884D01*
X122758475Y-114830123D01*
X122759865Y-114831328D01*
X122767548Y-114832999D01*
X123147095Y-114832999D01*
X123153614Y-114832662D01*
X123249206Y-114822743D01*
X123262600Y-114819851D01*
X123416784Y-114768412D01*
X123429962Y-114762239D01*
X123567807Y-114676937D01*
X123579208Y-114667901D01*
X123693739Y-114553171D01*
X123702751Y-114541760D01*
X123787816Y-114403757D01*
X123793963Y-114390576D01*
X123845138Y-114236290D01*
X123848005Y-114222914D01*
X123854869Y-114155919D01*
X123881710Y-114090192D01*
X123939824Y-114049410D01*
X124010762Y-114046520D01*
X124072001Y-114082442D01*
X124079299Y-114090928D01*
X124196514Y-114240149D01*
X124201044Y-114244080D01*
X124201045Y-114244081D01*
X124351165Y-114374350D01*
X124351170Y-114374354D01*
X124355696Y-114378281D01*
X124538126Y-114483819D01*
X124737222Y-114552957D01*
X124743155Y-114553817D01*
X124743158Y-114553818D01*
X124939860Y-114582338D01*
X124939863Y-114582338D01*
X124945800Y-114583199D01*
X125156333Y-114573455D01*
X125162157Y-114572051D01*
X125162160Y-114572051D01*
X125355393Y-114525482D01*
X125355395Y-114525481D01*
X125361226Y-114524076D01*
X125366684Y-114521594D01*
X125366688Y-114521593D01*
X125544414Y-114440785D01*
X125553084Y-114436843D01*
X125724986Y-114314904D01*
X125870728Y-114162660D01*
X125896920Y-114122095D01*
X128642001Y-114122095D01*
X128642338Y-114128614D01*
X128652257Y-114224206D01*
X128655149Y-114237600D01*
X128706588Y-114391784D01*
X128712761Y-114404962D01*
X128798063Y-114542807D01*
X128807099Y-114554208D01*
X128921829Y-114668739D01*
X128933240Y-114677751D01*
X129071243Y-114762816D01*
X129084424Y-114768963D01*
X129238710Y-114820138D01*
X129252086Y-114823005D01*
X129346438Y-114832672D01*
X129352854Y-114833000D01*
X129727885Y-114833000D01*
X129743124Y-114828525D01*
X129744329Y-114827135D01*
X129746000Y-114819452D01*
X129746000Y-113672115D01*
X129741525Y-113656876D01*
X129740135Y-113655671D01*
X129732452Y-113654000D01*
X128660116Y-113654000D01*
X128644877Y-113658475D01*
X128643672Y-113659865D01*
X128642001Y-113667548D01*
X128642001Y-114122095D01*
X125896920Y-114122095D01*
X125927710Y-114074410D01*
X125981800Y-113990640D01*
X125981801Y-113990637D01*
X125985052Y-113985603D01*
X126063834Y-113790122D01*
X126104229Y-113583271D01*
X126104500Y-113577730D01*
X126104500Y-113272341D01*
X126089507Y-113115194D01*
X126030177Y-112912958D01*
X125944942Y-112747464D01*
X125931533Y-112677746D01*
X125957946Y-112611846D01*
X126015794Y-112570687D01*
X126067940Y-112564252D01*
X126274525Y-112582326D01*
X126285475Y-112582326D01*
X126493804Y-112564099D01*
X126504599Y-112562196D01*
X126706595Y-112508072D01*
X126716887Y-112504326D01*
X126906416Y-112415947D01*
X126915912Y-112410464D01*
X126957148Y-112381590D01*
X126965523Y-112371113D01*
X126958455Y-112357667D01*
X126009884Y-111409095D01*
X125975859Y-111346783D01*
X125977694Y-111321132D01*
X126644408Y-111321132D01*
X126644539Y-111322966D01*
X126648790Y-111329580D01*
X127318391Y-111999180D01*
X127330161Y-112005607D01*
X127342176Y-111996311D01*
X127370466Y-111955907D01*
X127375946Y-111946417D01*
X127464326Y-111756887D01*
X127468072Y-111746595D01*
X127522196Y-111544599D01*
X127524099Y-111533804D01*
X127542326Y-111325475D01*
X127542326Y-111314525D01*
X127524099Y-111106196D01*
X127522196Y-111095401D01*
X127468072Y-110893405D01*
X127464326Y-110883113D01*
X127375946Y-110693583D01*
X127370466Y-110684093D01*
X127341589Y-110642851D01*
X127331113Y-110634477D01*
X127317666Y-110641545D01*
X126652021Y-111307189D01*
X126644408Y-111321132D01*
X125977694Y-111321132D01*
X125980924Y-111275967D01*
X126009885Y-111230905D01*
X126280000Y-110960790D01*
X126959176Y-110281613D01*
X126965606Y-110269838D01*
X126956310Y-110257824D01*
X126915912Y-110229536D01*
X126906416Y-110224053D01*
X126716887Y-110135674D01*
X126706595Y-110131928D01*
X126504599Y-110077804D01*
X126493804Y-110075901D01*
X126285475Y-110057674D01*
X126274525Y-110057674D01*
X126066196Y-110075901D01*
X126055401Y-110077804D01*
X125853405Y-110131928D01*
X125843113Y-110135674D01*
X125683750Y-110209987D01*
X125613559Y-110220648D01*
X125548746Y-110191668D01*
X125509889Y-110132249D01*
X125504500Y-110095792D01*
X125504500Y-109200000D01*
X126515769Y-109200000D01*
X126517262Y-109209428D01*
X126517320Y-109209943D01*
X126517320Y-109210325D01*
X126517576Y-109212211D01*
X126533344Y-109352160D01*
X126583917Y-109496690D01*
X126587679Y-109502678D01*
X126587680Y-109502679D01*
X126647414Y-109597743D01*
X126665384Y-109626342D01*
X126773658Y-109734616D01*
X126779647Y-109738379D01*
X126779648Y-109738380D01*
X126891944Y-109808941D01*
X126903310Y-109816083D01*
X127047840Y-109866656D01*
X127054867Y-109867448D01*
X127054868Y-109867448D01*
X127081958Y-109870500D01*
X127111474Y-109873825D01*
X127123887Y-109875856D01*
X127126371Y-109876391D01*
X127133851Y-109879018D01*
X127139416Y-109879500D01*
X127154755Y-109879500D01*
X127168862Y-109880292D01*
X127176153Y-109881113D01*
X127187775Y-109882423D01*
X127189671Y-109882680D01*
X127190057Y-109882680D01*
X127190572Y-109882738D01*
X127200000Y-109884231D01*
X127220078Y-109881051D01*
X127239788Y-109879500D01*
X128423715Y-109879500D01*
X128491836Y-109899502D01*
X128519096Y-109923169D01*
X128520246Y-109924501D01*
X128524482Y-109930805D01*
X128641650Y-110037419D01*
X128780867Y-110113008D01*
X128934096Y-110153207D01*
X129018051Y-110154526D01*
X129084893Y-110155576D01*
X129084896Y-110155576D01*
X129092490Y-110155695D01*
X129246906Y-110120329D01*
X129329166Y-110078957D01*
X129381646Y-110052563D01*
X129381649Y-110052561D01*
X129388429Y-110049151D01*
X129394200Y-110044222D01*
X129394203Y-110044220D01*
X129503110Y-109951204D01*
X129503110Y-109951203D01*
X129508888Y-109946269D01*
X129601329Y-109817624D01*
X129660416Y-109670641D01*
X129676898Y-109554831D01*
X129682155Y-109517891D01*
X129682155Y-109517888D01*
X129682736Y-109513807D01*
X129682805Y-109507265D01*
X129682838Y-109504134D01*
X129682838Y-109504128D01*
X129682881Y-109500000D01*
X129680452Y-109479923D01*
X129676963Y-109451098D01*
X129663850Y-109342733D01*
X129607854Y-109194546D01*
X129584257Y-109160212D01*
X129522429Y-109070251D01*
X129522428Y-109070249D01*
X129518127Y-109063992D01*
X129399849Y-108958611D01*
X129392463Y-108954700D01*
X129266562Y-108888039D01*
X129266563Y-108888039D01*
X129259848Y-108884484D01*
X129106207Y-108845892D01*
X129098608Y-108845852D01*
X129098607Y-108845852D01*
X129032755Y-108845507D01*
X128947795Y-108845062D01*
X128940415Y-108846834D01*
X128940413Y-108846834D01*
X128801137Y-108880271D01*
X128801134Y-108880272D01*
X128793758Y-108882043D01*
X128652988Y-108954700D01*
X128533613Y-109058838D01*
X128529246Y-109065051D01*
X128529241Y-109065057D01*
X128527910Y-109066951D01*
X128526587Y-109068005D01*
X128524163Y-109070697D01*
X128523714Y-109070293D01*
X128472376Y-109111183D01*
X128424824Y-109120500D01*
X127405500Y-109120500D01*
X127337379Y-109100498D01*
X127290886Y-109046842D01*
X127279500Y-108994500D01*
X127279500Y-105006577D01*
X127299502Y-104938456D01*
X127353158Y-104891963D01*
X127405500Y-104880577D01*
X128477141Y-104880577D01*
X128545262Y-104900579D01*
X128572523Y-104924247D01*
X128572741Y-104924499D01*
X128576978Y-104930805D01*
X128582596Y-104935917D01*
X128668197Y-105013807D01*
X128694146Y-105037419D01*
X128833363Y-105113008D01*
X128986592Y-105153207D01*
X129070547Y-105154526D01*
X129137389Y-105155576D01*
X129137392Y-105155576D01*
X129144986Y-105155695D01*
X129299402Y-105120329D01*
X129401706Y-105068876D01*
X129434142Y-105052563D01*
X129434145Y-105052561D01*
X129440925Y-105049151D01*
X129446696Y-105044222D01*
X129446699Y-105044220D01*
X129555606Y-104951204D01*
X129555606Y-104951203D01*
X129561384Y-104946269D01*
X129653825Y-104817624D01*
X129712912Y-104670641D01*
X129729281Y-104555623D01*
X129734651Y-104517891D01*
X129734651Y-104517888D01*
X129735232Y-104513807D01*
X129735377Y-104500000D01*
X129716346Y-104342733D01*
X129660350Y-104194546D01*
X129620850Y-104137073D01*
X129574925Y-104070251D01*
X129574924Y-104070249D01*
X129570623Y-104063992D01*
X129452345Y-103958611D01*
X129444959Y-103954700D01*
X129319058Y-103888039D01*
X129319059Y-103888039D01*
X129312344Y-103884484D01*
X129158703Y-103845892D01*
X129151104Y-103845852D01*
X129151103Y-103845852D01*
X129085251Y-103845507D01*
X129000291Y-103845062D01*
X128992911Y-103846834D01*
X128992909Y-103846834D01*
X128853633Y-103880271D01*
X128853630Y-103880272D01*
X128846254Y-103882043D01*
X128705484Y-103954700D01*
X128586109Y-104058838D01*
X128581741Y-104065053D01*
X128581740Y-104065054D01*
X128579649Y-104068029D01*
X128577571Y-104069684D01*
X128576659Y-104070697D01*
X128576490Y-104070545D01*
X128524114Y-104112260D01*
X128476563Y-104121577D01*
X127210882Y-104121577D01*
X127209019Y-104121446D01*
X127206278Y-104120607D01*
X127151117Y-104121548D01*
X127150460Y-104121559D01*
X127148311Y-104121577D01*
X127121131Y-104121577D01*
X127118377Y-104122035D01*
X127116216Y-104122143D01*
X127086082Y-104122657D01*
X127076707Y-104125881D01*
X127076702Y-104125882D01*
X127069223Y-104128454D01*
X127048937Y-104133593D01*
X127028029Y-104137073D01*
X127018864Y-104142018D01*
X127009011Y-104145391D01*
X127008844Y-104144902D01*
X127001701Y-104147785D01*
X126954930Y-104160902D01*
X126949353Y-104163749D01*
X126949350Y-104163750D01*
X126892329Y-104192857D01*
X126833383Y-104222946D01*
X126726463Y-104307746D01*
X126722423Y-104312526D01*
X126653838Y-104393671D01*
X126638370Y-104411971D01*
X126572567Y-104531524D01*
X126570689Y-104537498D01*
X126570688Y-104537500D01*
X126537040Y-104644528D01*
X126531639Y-104661709D01*
X126530976Y-104667936D01*
X126530976Y-104667937D01*
X126526586Y-104709179D01*
X126524472Y-104722360D01*
X126523608Y-104726373D01*
X126520982Y-104733851D01*
X126520500Y-104739416D01*
X126520500Y-104758495D01*
X126518812Y-104779050D01*
X126515778Y-104797399D01*
X126517263Y-104807204D01*
X126517263Y-104807205D01*
X126519079Y-104819194D01*
X126520500Y-104838062D01*
X126520500Y-109160212D01*
X126518949Y-109179922D01*
X126515769Y-109200000D01*
X125504500Y-109200000D01*
X125504500Y-103904208D01*
X125524502Y-103836087D01*
X125578158Y-103789594D01*
X125648432Y-103779490D01*
X125683750Y-103790013D01*
X125843113Y-103864326D01*
X125853405Y-103868072D01*
X126055401Y-103922196D01*
X126066196Y-103924099D01*
X126274525Y-103942326D01*
X126285475Y-103942326D01*
X126493804Y-103924099D01*
X126504599Y-103922196D01*
X126706595Y-103868072D01*
X126716887Y-103864326D01*
X126906416Y-103775947D01*
X126915912Y-103770464D01*
X126957148Y-103741590D01*
X126965523Y-103731113D01*
X126958454Y-103717665D01*
X125921922Y-102681132D01*
X126644408Y-102681132D01*
X126644539Y-102682966D01*
X126648790Y-102689580D01*
X127318391Y-103359180D01*
X127330161Y-103365607D01*
X127342176Y-103356311D01*
X127370466Y-103315907D01*
X127375946Y-103306417D01*
X127464326Y-103116887D01*
X127468072Y-103106595D01*
X127522196Y-102904599D01*
X127524099Y-102893804D01*
X127542326Y-102685475D01*
X127542326Y-102674525D01*
X127524099Y-102466196D01*
X127522196Y-102455401D01*
X127468072Y-102253405D01*
X127464326Y-102243113D01*
X127375946Y-102053583D01*
X127370466Y-102044093D01*
X127341589Y-102002851D01*
X127331113Y-101994477D01*
X127317666Y-102001545D01*
X126652021Y-102667189D01*
X126644408Y-102681132D01*
X125921922Y-102681132D01*
X125920790Y-102680000D01*
X125241613Y-102000824D01*
X125197334Y-101976646D01*
X125168624Y-101955153D01*
X124842358Y-101628887D01*
X125594477Y-101628887D01*
X125601545Y-101642334D01*
X126267189Y-102307979D01*
X126281132Y-102315592D01*
X126282966Y-102315461D01*
X126289580Y-102311210D01*
X126959180Y-101641609D01*
X126965607Y-101629839D01*
X126956313Y-101617825D01*
X126915912Y-101589536D01*
X126906416Y-101584053D01*
X126716887Y-101495674D01*
X126706595Y-101491928D01*
X126504599Y-101437804D01*
X126493804Y-101435901D01*
X126285475Y-101417674D01*
X126274525Y-101417674D01*
X126066196Y-101435901D01*
X126055401Y-101437804D01*
X125853405Y-101491928D01*
X125843113Y-101495674D01*
X125653583Y-101584054D01*
X125644093Y-101589534D01*
X125602851Y-101618411D01*
X125594477Y-101628887D01*
X124842358Y-101628887D01*
X122932615Y-99719144D01*
X122898589Y-99656832D01*
X122896626Y-99645209D01*
X122890276Y-99592733D01*
X122834280Y-99444546D01*
X122744553Y-99313992D01*
X122626275Y-99208611D01*
X122618889Y-99204700D01*
X122524625Y-99154790D01*
X122486274Y-99134484D01*
X122332633Y-99095892D01*
X122325034Y-99095852D01*
X122325033Y-99095852D01*
X122259181Y-99095507D01*
X122174221Y-99095062D01*
X122166841Y-99096834D01*
X122166839Y-99096834D01*
X122027563Y-99130271D01*
X122027560Y-99130272D01*
X122020184Y-99132043D01*
X121879414Y-99204700D01*
X121760039Y-99308838D01*
X121668950Y-99438444D01*
X121611406Y-99586037D01*
X121610414Y-99593570D01*
X121610414Y-99593571D01*
X121594891Y-99711484D01*
X121590729Y-99743096D01*
X121608113Y-99900553D01*
X121610723Y-99907684D01*
X121610723Y-99907686D01*
X121658242Y-100037538D01*
X121662553Y-100049319D01*
X121666789Y-100055622D01*
X121666789Y-100055623D01*
X121736928Y-100160000D01*
X121750908Y-100180805D01*
X121756527Y-100185918D01*
X121756528Y-100185919D01*
X121846615Y-100267891D01*
X121868076Y-100287419D01*
X122007293Y-100363008D01*
X122079850Y-100382043D01*
X122160522Y-100403207D01*
X122160063Y-100404958D01*
X122216062Y-100430076D01*
X122223290Y-100436761D01*
X124458595Y-102672066D01*
X124492621Y-102734378D01*
X124495500Y-102761161D01*
X124495500Y-112263590D01*
X124475498Y-112331711D01*
X124442400Y-112366360D01*
X124281865Y-112480236D01*
X124275014Y-112485096D01*
X124129272Y-112637340D01*
X124126021Y-112642375D01*
X124086447Y-112703664D01*
X124032692Y-112750042D01*
X123962396Y-112759995D01*
X123897879Y-112730363D01*
X123859623Y-112670555D01*
X123855268Y-112648319D01*
X123847743Y-112575794D01*
X123844851Y-112562400D01*
X123793412Y-112408216D01*
X123787239Y-112395038D01*
X123701937Y-112257193D01*
X123692901Y-112245792D01*
X123578171Y-112131261D01*
X123566760Y-112122249D01*
X123428757Y-112037184D01*
X123415576Y-112031037D01*
X123261290Y-111979862D01*
X123247913Y-111976995D01*
X123242793Y-111976470D01*
X123177065Y-111949630D01*
X123136283Y-111891515D01*
X123133393Y-111820577D01*
X123145700Y-111789558D01*
X123146663Y-111787838D01*
X123151336Y-111777343D01*
X123214557Y-111591101D01*
X123217245Y-111579905D01*
X123245762Y-111383224D01*
X123246392Y-111375843D01*
X123247757Y-111323704D01*
X123247514Y-111316305D01*
X123229330Y-111118397D01*
X123227233Y-111107083D01*
X123173846Y-110917789D01*
X123169724Y-110907050D01*
X123082736Y-110730656D01*
X123081577Y-110728765D01*
X123072732Y-110722126D01*
X123060312Y-110728898D01*
X121549264Y-112239946D01*
X121486952Y-112273972D01*
X121416137Y-112268907D01*
X121371074Y-112239946D01*
X121354890Y-112223762D01*
X121340946Y-112216148D01*
X121339141Y-112216277D01*
X121332489Y-112220556D01*
X121306261Y-112246829D01*
X121297249Y-112258240D01*
X121212184Y-112396243D01*
X121206037Y-112409424D01*
X121154862Y-112563710D01*
X121151995Y-112577086D01*
X121142328Y-112671438D01*
X121142000Y-112677855D01*
X121142000Y-113127885D01*
X120254000Y-113127885D01*
X120254000Y-111295980D01*
X120972914Y-111295980D01*
X120985777Y-111492233D01*
X120987577Y-111503601D01*
X121035991Y-111694228D01*
X121039829Y-111705066D01*
X121122173Y-111883685D01*
X121127922Y-111893642D01*
X121137850Y-111907690D01*
X121148439Y-111916078D01*
X121161740Y-111909050D01*
X121737978Y-111332812D01*
X121745592Y-111318868D01*
X121745461Y-111317035D01*
X121741210Y-111310420D01*
X121160031Y-110729241D01*
X121147651Y-110722481D01*
X121141685Y-110726947D01*
X121061452Y-110879445D01*
X121057047Y-110890079D01*
X120998724Y-111077910D01*
X120996332Y-111089164D01*
X120973215Y-111284479D01*
X120972914Y-111295980D01*
X120254000Y-111295980D01*
X120254000Y-110360436D01*
X121514547Y-110360436D01*
X121518033Y-110368823D01*
X122097188Y-110947978D01*
X122111132Y-110955592D01*
X122112965Y-110955461D01*
X122119580Y-110951210D01*
X122698407Y-110372383D01*
X122705167Y-110360003D01*
X122699137Y-110351948D01*
X122631459Y-110309246D01*
X122621211Y-110304025D01*
X122438531Y-110231143D01*
X122427504Y-110227876D01*
X122234605Y-110189506D01*
X122223159Y-110188303D01*
X122026507Y-110185730D01*
X122015027Y-110186633D01*
X121821199Y-110219938D01*
X121810079Y-110222918D01*
X121625557Y-110290992D01*
X121615179Y-110295942D01*
X121524146Y-110350101D01*
X121514547Y-110360436D01*
X120254000Y-110360436D01*
X120254000Y-103639319D01*
X121515041Y-103639319D01*
X121524923Y-103651809D01*
X121562259Y-103676756D01*
X121572371Y-103682247D01*
X121753081Y-103759885D01*
X121764014Y-103763437D01*
X121955844Y-103806845D01*
X121967253Y-103808347D01*
X122163783Y-103816068D01*
X122175265Y-103815466D01*
X122369905Y-103787245D01*
X122381101Y-103784557D01*
X122567343Y-103721336D01*
X122577840Y-103716662D01*
X122696401Y-103650266D01*
X122706264Y-103640189D01*
X122703309Y-103632519D01*
X122122812Y-103052022D01*
X122108868Y-103044408D01*
X122107035Y-103044539D01*
X122100420Y-103048790D01*
X121521237Y-103627973D01*
X121515041Y-103639319D01*
X120254000Y-103639319D01*
X120254000Y-102655980D01*
X120972914Y-102655980D01*
X120985777Y-102852233D01*
X120987577Y-102863601D01*
X121035991Y-103054228D01*
X121039829Y-103065066D01*
X121122173Y-103243685D01*
X121127922Y-103253642D01*
X121137850Y-103267690D01*
X121148439Y-103276078D01*
X121161740Y-103269050D01*
X121737978Y-102692812D01*
X121744356Y-102681132D01*
X122474408Y-102681132D01*
X122474539Y-102682965D01*
X122478790Y-102689580D01*
X123058603Y-103269393D01*
X123070983Y-103276153D01*
X123077563Y-103271227D01*
X123146662Y-103147840D01*
X123151336Y-103137343D01*
X123214557Y-102951101D01*
X123217245Y-102939905D01*
X123245762Y-102743224D01*
X123246392Y-102735843D01*
X123247757Y-102683704D01*
X123247514Y-102676305D01*
X123229330Y-102478397D01*
X123227233Y-102467083D01*
X123173846Y-102277789D01*
X123169724Y-102267050D01*
X123082736Y-102090656D01*
X123081577Y-102088765D01*
X123072732Y-102082126D01*
X123060312Y-102088898D01*
X122482022Y-102667188D01*
X122474408Y-102681132D01*
X121744356Y-102681132D01*
X121745592Y-102678868D01*
X121745461Y-102677035D01*
X121741210Y-102670420D01*
X121160031Y-102089241D01*
X121147651Y-102082481D01*
X121141685Y-102086947D01*
X121061452Y-102239445D01*
X121057047Y-102250079D01*
X120998724Y-102437910D01*
X120996332Y-102449164D01*
X120973215Y-102644479D01*
X120972914Y-102655980D01*
X120254000Y-102655980D01*
X120254000Y-101720436D01*
X121514547Y-101720436D01*
X121518033Y-101728823D01*
X122097188Y-102307978D01*
X122111132Y-102315592D01*
X122112965Y-102315461D01*
X122119580Y-102311210D01*
X122698407Y-101732383D01*
X122705167Y-101720003D01*
X122699137Y-101711948D01*
X122631459Y-101669246D01*
X122621211Y-101664025D01*
X122438531Y-101591143D01*
X122427504Y-101587876D01*
X122234605Y-101549506D01*
X122223159Y-101548303D01*
X122026507Y-101545730D01*
X122015027Y-101546633D01*
X121821199Y-101579938D01*
X121810079Y-101582918D01*
X121625557Y-101650992D01*
X121615179Y-101655942D01*
X121524146Y-101710101D01*
X121514547Y-101720436D01*
X120254000Y-101720436D01*
X120254000Y-93880000D01*
X120274002Y-93811879D01*
X120327658Y-93765386D01*
X120380000Y-93754000D01*
X129273372Y-93754000D01*
X129341493Y-93774002D01*
G37*
%TD.AperFunction*%
%TD*%
M02*
