%TF.GenerationSoftware,KiCad,Pcbnew,(6.0.1-0)*%
%TF.CreationDate,2022-01-28T12:20:31+00:00*%
%TF.ProjectId,ASR33,41535233-332e-46b6-9963-61645f706362,1*%
%TF.SameCoordinates,Original*%
%TF.FileFunction,Legend,Top*%
%TF.FilePolarity,Positive*%
%FSLAX46Y46*%
G04 Gerber Fmt 4.6, Leading zero omitted, Abs format (unit mm)*
G04 Created by KiCad (PCBNEW (6.0.1-0)) date 2022-01-28 12:20:31*
%MOMM*%
%LPD*%
G01*
G04 APERTURE LIST*
%ADD10C,0.150000*%
%ADD11C,0.120000*%
G04 APERTURE END LIST*
D10*
X136111904Y-129183333D02*
X136635714Y-129183333D01*
X136007142Y-129497619D02*
X136373809Y-128397619D01*
X136740476Y-129497619D01*
X137054761Y-129445238D02*
X137211904Y-129497619D01*
X137473809Y-129497619D01*
X137578571Y-129445238D01*
X137630952Y-129392857D01*
X137683333Y-129288095D01*
X137683333Y-129183333D01*
X137630952Y-129078571D01*
X137578571Y-129026190D01*
X137473809Y-128973809D01*
X137264285Y-128921428D01*
X137159523Y-128869047D01*
X137107142Y-128816666D01*
X137054761Y-128711904D01*
X137054761Y-128607142D01*
X137107142Y-128502380D01*
X137159523Y-128450000D01*
X137264285Y-128397619D01*
X137526190Y-128397619D01*
X137683333Y-128450000D01*
X138783333Y-129497619D02*
X138416666Y-128973809D01*
X138154761Y-129497619D02*
X138154761Y-128397619D01*
X138573809Y-128397619D01*
X138678571Y-128450000D01*
X138730952Y-128502380D01*
X138783333Y-128607142D01*
X138783333Y-128764285D01*
X138730952Y-128869047D01*
X138678571Y-128921428D01*
X138573809Y-128973809D01*
X138154761Y-128973809D01*
X139150000Y-128397619D02*
X139830952Y-128397619D01*
X139464285Y-128816666D01*
X139621428Y-128816666D01*
X139726190Y-128869047D01*
X139778571Y-128921428D01*
X139830952Y-129026190D01*
X139830952Y-129288095D01*
X139778571Y-129392857D01*
X139726190Y-129445238D01*
X139621428Y-129497619D01*
X139307142Y-129497619D01*
X139202380Y-129445238D01*
X139150000Y-129392857D01*
X140197619Y-128397619D02*
X140878571Y-128397619D01*
X140511904Y-128816666D01*
X140669047Y-128816666D01*
X140773809Y-128869047D01*
X140826190Y-128921428D01*
X140878571Y-129026190D01*
X140878571Y-129288095D01*
X140826190Y-129392857D01*
X140773809Y-129445238D01*
X140669047Y-129497619D01*
X140354761Y-129497619D01*
X140250000Y-129445238D01*
X140197619Y-129392857D01*
X142816666Y-129392857D02*
X142764285Y-129445238D01*
X142607142Y-129497619D01*
X142502380Y-129497619D01*
X142345238Y-129445238D01*
X142240476Y-129340476D01*
X142188095Y-129235714D01*
X142135714Y-129026190D01*
X142135714Y-128869047D01*
X142188095Y-128659523D01*
X142240476Y-128554761D01*
X142345238Y-128450000D01*
X142502380Y-128397619D01*
X142607142Y-128397619D01*
X142764285Y-128450000D01*
X142816666Y-128502380D01*
X143445238Y-129497619D02*
X143340476Y-129445238D01*
X143288095Y-129392857D01*
X143235714Y-129288095D01*
X143235714Y-128973809D01*
X143288095Y-128869047D01*
X143340476Y-128816666D01*
X143445238Y-128764285D01*
X143602380Y-128764285D01*
X143707142Y-128816666D01*
X143759523Y-128869047D01*
X143811904Y-128973809D01*
X143811904Y-129288095D01*
X143759523Y-129392857D01*
X143707142Y-129445238D01*
X143602380Y-129497619D01*
X143445238Y-129497619D01*
X144283333Y-128764285D02*
X144283333Y-129497619D01*
X144283333Y-128869047D02*
X144335714Y-128816666D01*
X144440476Y-128764285D01*
X144597619Y-128764285D01*
X144702380Y-128816666D01*
X144754761Y-128921428D01*
X144754761Y-129497619D01*
X145121428Y-128764285D02*
X145540476Y-128764285D01*
X145278571Y-128397619D02*
X145278571Y-129340476D01*
X145330952Y-129445238D01*
X145435714Y-129497619D01*
X145540476Y-129497619D01*
X145907142Y-129497619D02*
X145907142Y-128764285D01*
X145907142Y-128973809D02*
X145959523Y-128869047D01*
X146011904Y-128816666D01*
X146116666Y-128764285D01*
X146221428Y-128764285D01*
X146745238Y-129497619D02*
X146640476Y-129445238D01*
X146588095Y-129392857D01*
X146535714Y-129288095D01*
X146535714Y-128973809D01*
X146588095Y-128869047D01*
X146640476Y-128816666D01*
X146745238Y-128764285D01*
X146902380Y-128764285D01*
X147007142Y-128816666D01*
X147059523Y-128869047D01*
X147111904Y-128973809D01*
X147111904Y-129288095D01*
X147059523Y-129392857D01*
X147007142Y-129445238D01*
X146902380Y-129497619D01*
X146745238Y-129497619D01*
X147740476Y-129497619D02*
X147635714Y-129445238D01*
X147583333Y-129340476D01*
X147583333Y-128397619D01*
X148316666Y-129497619D02*
X148211904Y-129445238D01*
X148159523Y-129340476D01*
X148159523Y-128397619D01*
X149154761Y-129445238D02*
X149050000Y-129497619D01*
X148840476Y-129497619D01*
X148735714Y-129445238D01*
X148683333Y-129340476D01*
X148683333Y-128921428D01*
X148735714Y-128816666D01*
X148840476Y-128764285D01*
X149050000Y-128764285D01*
X149154761Y-128816666D01*
X149207142Y-128921428D01*
X149207142Y-129026190D01*
X148683333Y-129130952D01*
X149678571Y-129497619D02*
X149678571Y-128764285D01*
X149678571Y-128973809D02*
X149730952Y-128869047D01*
X149783333Y-128816666D01*
X149888095Y-128764285D01*
X149992857Y-128764285D01*
X123342857Y-129285714D02*
X123533333Y-129952380D01*
X123723809Y-129476190D01*
X123914285Y-129952380D01*
X124104761Y-129285714D01*
X124390476Y-129285714D02*
X124580952Y-129952380D01*
X124771428Y-129476190D01*
X124961904Y-129952380D01*
X125152380Y-129285714D01*
X125438095Y-129285714D02*
X125628571Y-129952380D01*
X125819047Y-129476190D01*
X126009523Y-129952380D01*
X126200000Y-129285714D01*
X126580952Y-129857142D02*
X126628571Y-129904761D01*
X126580952Y-129952380D01*
X126533333Y-129904761D01*
X126580952Y-129857142D01*
X126580952Y-129952380D01*
X127057142Y-129952380D02*
X127057142Y-129285714D01*
X127057142Y-129380952D02*
X127104761Y-129333333D01*
X127200000Y-129285714D01*
X127342857Y-129285714D01*
X127438095Y-129333333D01*
X127485714Y-129428571D01*
X127485714Y-129952380D01*
X127485714Y-129428571D02*
X127533333Y-129333333D01*
X127628571Y-129285714D01*
X127771428Y-129285714D01*
X127866666Y-129333333D01*
X127914285Y-129428571D01*
X127914285Y-129952380D01*
X128771428Y-129904761D02*
X128676190Y-129952380D01*
X128485714Y-129952380D01*
X128390476Y-129904761D01*
X128342857Y-129809523D01*
X128342857Y-129428571D01*
X128390476Y-129333333D01*
X128485714Y-129285714D01*
X128676190Y-129285714D01*
X128771428Y-129333333D01*
X128819047Y-129428571D01*
X128819047Y-129523809D01*
X128342857Y-129619047D01*
X129247619Y-129857142D02*
X129295238Y-129904761D01*
X129247619Y-129952380D01*
X129200000Y-129904761D01*
X129247619Y-129857142D01*
X129247619Y-129952380D01*
X130152380Y-129285714D02*
X130152380Y-129952380D01*
X129723809Y-129285714D02*
X129723809Y-129809523D01*
X129771428Y-129904761D01*
X129866666Y-129952380D01*
X130009523Y-129952380D01*
X130104761Y-129904761D01*
X130152380Y-129857142D01*
X130628571Y-129952380D02*
X130628571Y-128952380D01*
X130723809Y-129571428D02*
X131009523Y-129952380D01*
X131009523Y-129285714D02*
X130628571Y-129666666D01*
%TO.C,J3*%
X133785714Y-136852380D02*
X133214285Y-136852380D01*
X133500000Y-136852380D02*
X133500000Y-135852380D01*
X133404761Y-135995238D01*
X133309523Y-136090476D01*
X133214285Y-136138095D01*
%TO.C,J2*%
X148785714Y-136952380D02*
X148214285Y-136952380D01*
X148500000Y-136952380D02*
X148500000Y-135952380D01*
X148404761Y-136095238D01*
X148309523Y-136190476D01*
X148214285Y-136238095D01*
D11*
%TO.C,J3*%
X132400000Y-135000000D02*
X132400000Y-143000000D01*
X132400000Y-135000000D02*
X147600000Y-135000000D01*
X147600000Y-135000000D02*
X147600000Y-143000000D01*
%TO.C,J2*%
X160100000Y-135100000D02*
X160100000Y-143100000D01*
X147400000Y-135100000D02*
X160100000Y-135100000D01*
X147400000Y-135100000D02*
X147400000Y-143100000D01*
%TO.C,D3*%
X149850000Y-133660000D02*
X151250000Y-133660000D01*
X151250000Y-131340000D02*
X149350000Y-131340000D01*
%TO.C,U6*%
X136600000Y-130650000D02*
X134900000Y-130650000D01*
X141400000Y-130500000D02*
X141400000Y-130650000D01*
X136600000Y-130500000D02*
X141400000Y-130500000D01*
X141400000Y-134500000D02*
X136600000Y-134500000D01*
X136600000Y-134500000D02*
X136600000Y-134350000D01*
X141400000Y-134350000D02*
X141400000Y-134500000D01*
X136600000Y-130650000D02*
X136600000Y-130500000D01*
%TO.C,U2*%
X128585000Y-124190000D02*
X129310000Y-124190000D01*
X129310000Y-128410000D02*
X129310000Y-127685000D01*
X129310000Y-124190000D02*
X129310000Y-124915000D01*
X125815000Y-128410000D02*
X125090000Y-128410000D01*
X128585000Y-128410000D02*
X129310000Y-128410000D01*
X125090000Y-128410000D02*
X125090000Y-127685000D01*
X125682843Y-124500000D02*
G75*
G03*
X125682843Y-124500000I-282843J0D01*
G01*
%TO.C,U1*%
X135535000Y-108380000D02*
X134755000Y-108380000D01*
X134755000Y-126620000D02*
X134755000Y-125620000D01*
X134755000Y-108380000D02*
X134755000Y-109380000D01*
X135535000Y-126620000D02*
X134755000Y-126620000D01*
%TO.C,R3*%
X123300000Y-111300000D02*
X123300000Y-110700000D01*
X124300000Y-111300000D02*
X124300000Y-110700000D01*
%TO.C,C1*%
X122600000Y-124700000D02*
X122600000Y-125300000D01*
X123600000Y-124700000D02*
X123600000Y-125300000D01*
%TO.C,R5*%
X126175000Y-135200000D02*
X125575000Y-135200000D01*
X126175000Y-134200000D02*
X125575000Y-134200000D01*
%TO.C,R4*%
X121425000Y-135200000D02*
X120825000Y-135200000D01*
X121425000Y-134200000D02*
X120825000Y-134200000D01*
%TO.C,R6*%
X124700000Y-130900000D02*
X125300000Y-130900000D01*
X124700000Y-131900000D02*
X125300000Y-131900000D01*
%TO.C,R7*%
X122000000Y-130900000D02*
X122600000Y-130900000D01*
X122000000Y-131900000D02*
X122600000Y-131900000D01*
%TO.C,R1*%
X122100000Y-111300000D02*
X122100000Y-110700000D01*
X123100000Y-111300000D02*
X123100000Y-110700000D01*
%TO.C,R2*%
X125500000Y-111300000D02*
X125500000Y-110700000D01*
X124500000Y-111300000D02*
X124500000Y-110700000D01*
%TO.C,C4*%
X119400000Y-134000000D02*
X120000000Y-134000000D01*
X119400000Y-133000000D02*
X120000000Y-133000000D01*
%TO.C,C2*%
X124700000Y-132100000D02*
X125300000Y-132100000D01*
X124700000Y-133100000D02*
X125300000Y-133100000D01*
%TO.C,C3*%
X122600000Y-132100000D02*
X122000000Y-132100000D01*
X122600000Y-133100000D02*
X122000000Y-133100000D01*
%TO.C,D2*%
X149850000Y-130160000D02*
X151250000Y-130160000D01*
X151250000Y-127840000D02*
X149350000Y-127840000D01*
%TO.C,Q1*%
X145750000Y-130940000D02*
X146400000Y-130940000D01*
X145750000Y-130940000D02*
X144075000Y-130940000D01*
X145750000Y-134060000D02*
X145100000Y-134060000D01*
X145750000Y-134060000D02*
X146400000Y-134060000D01*
%TO.C,C8*%
X135500000Y-128450000D02*
X135500000Y-129050000D01*
X134500000Y-128450000D02*
X134500000Y-129050000D01*
%TO.C,R9*%
X119500000Y-125400000D02*
X119500000Y-124800000D01*
X118500000Y-125400000D02*
X118500000Y-124800000D01*
%TO.C,SW1*%
X131250000Y-113800000D02*
X129750000Y-113800000D01*
X129750000Y-120800000D02*
X131250000Y-120800000D01*
X127250000Y-115050000D02*
X127250000Y-119550000D01*
X133750000Y-119550000D02*
X133750000Y-115050000D01*
%TO.C,R8*%
X119500000Y-121700000D02*
X119500000Y-122300000D01*
X118500000Y-121700000D02*
X118500000Y-122300000D01*
%TD*%
M02*
