%TF.GenerationSoftware,KiCad,Pcbnew,(6.0.2-0)*%
%TF.CreationDate,2022-02-23T11:01:26+00:00*%
%TF.ProjectId,ASR33,41535233-332e-46b6-9963-61645f706362,1*%
%TF.SameCoordinates,Original*%
%TF.FileFunction,Soldermask,Bot*%
%TF.FilePolarity,Negative*%
%FSLAX46Y46*%
G04 Gerber Fmt 4.6, Leading zero omitted, Abs format (unit mm)*
G04 Created by KiCad (PCBNEW (6.0.2-0)) date 2022-02-23 11:01:26*
%MOMM*%
%LPD*%
G01*
G04 APERTURE LIST*
G04 Aperture macros list*
%AMRoundRect*
0 Rectangle with rounded corners*
0 $1 Rounding radius*
0 $2 $3 $4 $5 $6 $7 $8 $9 X,Y pos of 4 corners*
0 Add a 4 corners polygon primitive as box body*
4,1,4,$2,$3,$4,$5,$6,$7,$8,$9,$2,$3,0*
0 Add four circle primitives for the rounded corners*
1,1,$1+$1,$2,$3*
1,1,$1+$1,$4,$5*
1,1,$1+$1,$6,$7*
1,1,$1+$1,$8,$9*
0 Add four rect primitives between the rounded corners*
20,1,$1+$1,$2,$3,$4,$5,0*
20,1,$1+$1,$4,$5,$6,$7,0*
20,1,$1+$1,$6,$7,$8,$9,0*
20,1,$1+$1,$8,$9,$2,$3,0*%
G04 Aperture macros list end*
%ADD10C,0.200000*%
%ADD11C,0.450000*%
%ADD12C,1.500000*%
%ADD13C,1.250000*%
%ADD14RoundRect,0.250000X-0.600000X-0.675000X0.600000X-0.675000X0.600000X0.675000X-0.600000X0.675000X0*%
%ADD15O,1.700000X1.850000*%
%ADD16C,2.000000*%
G04 APERTURE END LIST*
D10*
X160452380Y-116666666D02*
X159452380Y-116666666D01*
X159452380Y-117047619D01*
X159500000Y-117142857D01*
X159547619Y-117190476D01*
X159642857Y-117238095D01*
X159785714Y-117238095D01*
X159880952Y-117190476D01*
X159928571Y-117142857D01*
X159976190Y-117047619D01*
X159976190Y-116666666D01*
X159452380Y-117571428D02*
X160452380Y-117809523D01*
X159738095Y-118000000D01*
X160452380Y-118190476D01*
X159452380Y-118428571D01*
X160452380Y-119380952D02*
X159976190Y-119047619D01*
X160452380Y-118809523D02*
X159452380Y-118809523D01*
X159452380Y-119190476D01*
X159500000Y-119285714D01*
X159547619Y-119333333D01*
X159642857Y-119380952D01*
X159785714Y-119380952D01*
X159880952Y-119333333D01*
X159928571Y-119285714D01*
X159976190Y-119190476D01*
X159976190Y-118809523D01*
X145452380Y-117214285D02*
X144976190Y-116880952D01*
X145452380Y-116642857D02*
X144452380Y-116642857D01*
X144452380Y-117023809D01*
X144500000Y-117119047D01*
X144547619Y-117166666D01*
X144642857Y-117214285D01*
X144785714Y-117214285D01*
X144880952Y-117166666D01*
X144928571Y-117119047D01*
X144976190Y-117023809D01*
X144976190Y-116642857D01*
X144452380Y-117547619D02*
X145452380Y-118214285D01*
X144452380Y-118214285D02*
X145452380Y-117547619D01*
X145071428Y-118595238D02*
X145071428Y-119357142D01*
X145261904Y-119166666D02*
X145071428Y-119357142D01*
X144880952Y-119166666D01*
X162952380Y-116785714D02*
X161952380Y-116785714D01*
X162666666Y-117119047D01*
X161952380Y-117452380D01*
X162952380Y-117452380D01*
X161952380Y-117785714D02*
X161952380Y-118357142D01*
X162952380Y-118071428D02*
X161952380Y-118071428D01*
X162952380Y-119261904D02*
X162476190Y-118928571D01*
X162952380Y-118690476D02*
X161952380Y-118690476D01*
X161952380Y-119071428D01*
X162000000Y-119166666D01*
X162047619Y-119214285D01*
X162142857Y-119261904D01*
X162285714Y-119261904D01*
X162380952Y-119214285D01*
X162428571Y-119166666D01*
X162476190Y-119071428D01*
X162476190Y-118690476D01*
X131952380Y-116619047D02*
X131952380Y-117190476D01*
X132952380Y-116904761D02*
X131952380Y-116904761D01*
X131952380Y-117428571D02*
X132952380Y-118095238D01*
X131952380Y-118095238D02*
X132952380Y-117428571D01*
X132571428Y-119238095D02*
X132571428Y-118476190D01*
X132761904Y-118666666D02*
X132571428Y-118476190D01*
X132380952Y-118666666D01*
X129452380Y-116619047D02*
X129452380Y-117190476D01*
X130452380Y-116904761D02*
X129452380Y-116904761D01*
X129452380Y-117428571D02*
X130452380Y-118095238D01*
X129452380Y-118095238D02*
X130452380Y-117428571D01*
X129880952Y-118380952D02*
X129880952Y-119333333D01*
X130166666Y-118571428D02*
X130166666Y-119142857D01*
X129452380Y-118857142D02*
X129880952Y-118857142D01*
X130452380Y-118952380D02*
X130452380Y-118761904D01*
X149880952Y-117523809D02*
X149880952Y-118476190D01*
X150166666Y-117714285D02*
X150166666Y-118285714D01*
X149452380Y-118000000D02*
X149880952Y-118000000D01*
X150452380Y-118095238D02*
X150452380Y-117904761D01*
X134452380Y-116619047D02*
X134452380Y-117190476D01*
X135452380Y-116904761D02*
X134452380Y-116904761D01*
X134452380Y-117428571D02*
X135452380Y-118095238D01*
X134452380Y-118095238D02*
X135452380Y-117428571D01*
X135071428Y-118476190D02*
X135071428Y-119238095D01*
X135261904Y-119047619D02*
X135071428Y-119238095D01*
X134880952Y-119047619D01*
X157380952Y-117523809D02*
X157380952Y-118476190D01*
X157666666Y-117714285D02*
X157666666Y-118285714D01*
X156952380Y-118000000D02*
X157380952Y-118000000D01*
X157952380Y-118095238D02*
X157952380Y-117904761D01*
X152952380Y-117261904D02*
X152476190Y-116928571D01*
X152952380Y-116690476D02*
X151952380Y-116690476D01*
X151952380Y-117071428D01*
X152000000Y-117166666D01*
X152047619Y-117214285D01*
X152142857Y-117261904D01*
X152285714Y-117261904D01*
X152380952Y-117214285D01*
X152428571Y-117166666D01*
X152476190Y-117071428D01*
X152476190Y-116690476D01*
X151952380Y-117690476D02*
X152761904Y-117690476D01*
X152857142Y-117738095D01*
X152904761Y-117785714D01*
X152952380Y-117880952D01*
X152952380Y-118071428D01*
X152904761Y-118166666D01*
X152857142Y-118214285D01*
X152761904Y-118261904D01*
X151952380Y-118261904D01*
X152952380Y-118738095D02*
X151952380Y-118738095D01*
X152952380Y-119309523D01*
X151952380Y-119309523D01*
X125452380Y-117238095D02*
X124452380Y-117238095D01*
X124452380Y-117476190D01*
X124500000Y-117619047D01*
X124595238Y-117714285D01*
X124690476Y-117761904D01*
X124880952Y-117809523D01*
X125023809Y-117809523D01*
X125214285Y-117761904D01*
X125309523Y-117714285D01*
X125404761Y-117619047D01*
X125452380Y-117476190D01*
X125452380Y-117238095D01*
X125357142Y-118809523D02*
X125404761Y-118761904D01*
X125452380Y-118619047D01*
X125452380Y-118523809D01*
X125404761Y-118380952D01*
X125309523Y-118285714D01*
X125214285Y-118238095D01*
X125023809Y-118190476D01*
X124880952Y-118190476D01*
X124690476Y-118238095D01*
X124595238Y-118285714D01*
X124500000Y-118380952D01*
X124452380Y-118523809D01*
X124452380Y-118619047D01*
X124500000Y-118761904D01*
X124547619Y-118809523D01*
X122380952Y-117523809D02*
X122380952Y-118476190D01*
X122666666Y-117714285D02*
X122666666Y-118285714D01*
X121952380Y-118000000D02*
X122380952Y-118000000D01*
X122952380Y-118095238D02*
X122952380Y-117904761D01*
X140452380Y-117214285D02*
X139976190Y-116880952D01*
X140452380Y-116642857D02*
X139452380Y-116642857D01*
X139452380Y-117023809D01*
X139500000Y-117119047D01*
X139547619Y-117166666D01*
X139642857Y-117214285D01*
X139785714Y-117214285D01*
X139880952Y-117166666D01*
X139928571Y-117119047D01*
X139976190Y-117023809D01*
X139976190Y-116642857D01*
X139452380Y-117547619D02*
X140452380Y-118214285D01*
X139452380Y-118214285D02*
X140452380Y-117547619D01*
X139880952Y-118500000D02*
X139880952Y-119452380D01*
X140166666Y-118690476D02*
X140166666Y-119261904D01*
X139452380Y-118976190D02*
X139880952Y-118976190D01*
X140452380Y-119071428D02*
X140452380Y-118880952D01*
X142952380Y-117214285D02*
X142476190Y-116880952D01*
X142952380Y-116642857D02*
X141952380Y-116642857D01*
X141952380Y-117023809D01*
X142000000Y-117119047D01*
X142047619Y-117166666D01*
X142142857Y-117214285D01*
X142285714Y-117214285D01*
X142380952Y-117166666D01*
X142428571Y-117119047D01*
X142476190Y-117023809D01*
X142476190Y-116642857D01*
X141952380Y-117547619D02*
X142952380Y-118214285D01*
X141952380Y-118214285D02*
X142952380Y-117547619D01*
X142571428Y-119357142D02*
X142571428Y-118595238D01*
X142761904Y-118785714D02*
X142571428Y-118595238D01*
X142380952Y-118785714D01*
%TO.C,U7*%
G36*
X147400000Y-109600000D02*
G01*
X141600000Y-109600000D01*
X141600000Y-103800000D01*
X147400000Y-103800000D01*
X147400000Y-109600000D01*
G37*
D11*
%TO.C,Logo1*%
X153600000Y-103400000D02*
X153600000Y-99200000D01*
X155400000Y-103300000D02*
X153600000Y-101300000D01*
X153600000Y-101300000D02*
X152100000Y-101300000D01*
X153600000Y-103400000D02*
X150600000Y-99200000D01*
X153600000Y-101300000D02*
X155400000Y-99200000D01*
X153600000Y-99200000D02*
G75*
G03*
X152100000Y-99200000I-750000J0D01*
G01*
%TD*%
D12*
%TO.C,J1*%
X126280000Y-111320000D03*
X126280000Y-102680000D03*
D13*
X122110000Y-102680000D03*
X122110000Y-111320000D03*
%TD*%
D14*
%TO.C,J5*%
X130000000Y-113400000D03*
D15*
X132500000Y-113400000D03*
X135000000Y-113400000D03*
%TD*%
D14*
%TO.C,J6*%
X140000000Y-113400000D03*
D15*
X142500000Y-113400000D03*
X145000000Y-113400000D03*
%TD*%
D14*
%TO.C,J2*%
X122500000Y-113400000D03*
D15*
X125000000Y-113400000D03*
%TD*%
D16*
%TO.C,SW1*%
X133250000Y-107000000D03*
X133250000Y-100500000D03*
X137750000Y-107000000D03*
X137750000Y-100500000D03*
%TD*%
D14*
%TO.C,J3*%
X157500000Y-113400000D03*
D15*
X160000000Y-113400000D03*
X162500000Y-113400000D03*
%TD*%
D14*
%TO.C,J4*%
X150000000Y-113400000D03*
D15*
X152500000Y-113400000D03*
%TD*%
M02*
