M48
; DRILL file {KiCad (6.0.1-0)} date Sunday, 30 January 2022 at 13:00:09
; FORMAT={-:-/ absolute / inch / decimal}
; #@! TF.CreationDate,2022-01-30T13:00:09+00:00
; #@! TF.GenerationSoftware,Kicad,Pcbnew,(6.0.1-0)
; #@! TF.FileFunction,Plated,1,2,PTH
FMAT,2
INCH
; #@! TA.AperFunction,Plated,PTH,ComponentDrill
T1C0.0098
; #@! TA.AperFunction,Plated,PTH,ViaDrill
T2C0.0157
; #@! TA.AperFunction,Plated,PTH,ComponentDrill
T3C0.0236
; #@! TA.AperFunction,Plated,PTH,ComponentDrill
T4C0.0335
; #@! TA.AperFunction,Plated,PTH,ComponentDrill
T5C0.0394
; #@! TA.AperFunction,Plated,PTH,ComponentDrill
T6C0.0433
; #@! TA.AperFunction,Plated,PTH,ComponentDrill
T7C0.0492
%
G90
G05
T1
X5.2657Y-3.7264
T2
X4.9567Y-3.7598
X4.9803Y-3.5787
X5.0472Y-3.9016
X5.0551Y-3.2874
X5.1575Y-3.6417
X5.1969Y-3.6417
X5.2008Y-4.0118
X5.2008Y-4.0551
X5.2795Y-3.5709
X5.2835Y-4.0118
X5.2835Y-4.0551
X5.315Y-3.4094
X5.315Y-3.8385
X5.3425Y-3.6142
X5.378Y-3.5709
X5.3858Y-3.748
X5.4409Y-3.4055
X5.5079Y-3.2835
X5.6063Y-3.8661
X5.6181Y-3.378
X5.6417Y-3.4488
X5.689Y-3.4055
X5.8898Y-3.878
X5.9055Y-4.0591
X5.9567Y-4.3071
X5.9724Y-3.8031
X6.0512Y-3.8858
X6.1299Y-3.8228
X6.2992Y-4.3071
T3
X4.9524Y-3.9965
X4.9524Y-4.224
T4
X4.8228Y-4.4646
X4.9213Y-4.4646
X5.1181Y-4.4646
X5.2165Y-4.4646
X5.315Y-4.4646
X5.5118Y-4.4646
X5.6102Y-4.4646
X5.7087Y-4.4646
X5.9055Y-4.4646
X6.0039Y-4.4646
X6.2008Y-4.4646
X6.2992Y-4.4646
X6.3976Y-4.4646
T5
X4.8075Y-3.9402
X4.8075Y-4.2803
T6
X5.128Y-3.2933
X5.128Y-3.4705
X5.3839Y-3.2933
X5.3839Y-3.4705
T7
X4.9717Y-3.9402
X4.9717Y-4.2803
T0
M30
