%TF.GenerationSoftware,KiCad,Pcbnew,(6.0.1-0)*%
%TF.CreationDate,2022-01-29T08:34:53+00:00*%
%TF.ProjectId,ASR33,41535233-332e-46b6-9963-61645f706362,1*%
%TF.SameCoordinates,Original*%
%TF.FileFunction,Copper,L2,Bot*%
%TF.FilePolarity,Positive*%
%FSLAX46Y46*%
G04 Gerber Fmt 4.6, Leading zero omitted, Abs format (unit mm)*
G04 Created by KiCad (PCBNEW (6.0.1-0)) date 2022-01-29 08:34:53*
%MOMM*%
%LPD*%
G01*
G04 APERTURE LIST*
G04 Aperture macros list*
%AMRoundRect*
0 Rectangle with rounded corners*
0 $1 Rounding radius*
0 $2 $3 $4 $5 $6 $7 $8 $9 X,Y pos of 4 corners*
0 Add a 4 corners polygon primitive as box body*
4,1,4,$2,$3,$4,$5,$6,$7,$8,$9,$2,$3,0*
0 Add four circle primitives for the rounded corners*
1,1,$1+$1,$2,$3*
1,1,$1+$1,$4,$5*
1,1,$1+$1,$6,$7*
1,1,$1+$1,$8,$9*
0 Add four rect primitives between the rounded corners*
20,1,$1+$1,$2,$3,$4,$5,0*
20,1,$1+$1,$4,$5,$6,$7,0*
20,1,$1+$1,$6,$7,$8,$9,0*
20,1,$1+$1,$8,$9,$2,$3,0*%
%AMFreePoly0*
4,1,22,0.500000,-0.750000,0.000000,-0.750000,0.000000,-0.745033,-0.079941,-0.743568,-0.215256,-0.701293,-0.333266,-0.622738,-0.424486,-0.514219,-0.481581,-0.384460,-0.499164,-0.250000,-0.500000,-0.250000,-0.500000,0.250000,-0.499164,0.250000,-0.499963,0.256109,-0.478152,0.396186,-0.417904,0.524511,-0.324060,0.630769,-0.204165,0.706417,-0.067858,0.745374,0.000000,0.744959,0.000000,0.750000,
0.500000,0.750000,0.500000,-0.750000,0.500000,-0.750000,$1*%
%AMFreePoly1*
4,1,20,0.000000,0.744959,0.073905,0.744508,0.209726,0.703889,0.328688,0.626782,0.421226,0.519385,0.479903,0.390333,0.500000,0.250000,0.500000,-0.250000,0.499851,-0.262216,0.476331,-0.402017,0.414519,-0.529596,0.319384,-0.634700,0.198574,-0.708877,0.061801,-0.746166,0.000000,-0.745033,0.000000,-0.750000,-0.500000,-0.750000,-0.500000,0.750000,0.000000,0.750000,0.000000,0.744959,
0.000000,0.744959,$1*%
G04 Aperture macros list end*
%ADD10C,0.100000*%
%TA.AperFunction,NonConductor*%
%ADD11C,0.100000*%
%TD*%
%ADD12C,0.080000*%
%TA.AperFunction,NonConductor*%
%ADD13C,0.080000*%
%TD*%
%TA.AperFunction,EtchedComponent*%
%ADD14C,0.080000*%
%TD*%
%TA.AperFunction,EtchedComponent*%
%ADD15C,0.250000*%
%TD*%
%TA.AperFunction,ComponentPad*%
%ADD16C,1.500000*%
%TD*%
%TA.AperFunction,ComponentPad*%
%ADD17C,0.600000*%
%TD*%
%TA.AperFunction,ComponentPad*%
%ADD18C,1.250000*%
%TD*%
%TA.AperFunction,ComponentPad*%
%ADD19C,0.350000*%
%TD*%
%TA.AperFunction,ComponentPad*%
%ADD20RoundRect,0.250000X-0.600000X-0.675000X0.600000X-0.675000X0.600000X0.675000X-0.600000X0.675000X0*%
%TD*%
%TA.AperFunction,ComponentPad*%
%ADD21O,1.700000X1.850000*%
%TD*%
%TA.AperFunction,ComponentPad*%
%ADD22C,2.000000*%
%TD*%
%TA.AperFunction,SMDPad,CuDef*%
%ADD23FreePoly0,0.000000*%
%TD*%
%TA.AperFunction,SMDPad,CuDef*%
%ADD24FreePoly1,0.000000*%
%TD*%
%TA.AperFunction,SMDPad,CuDef*%
%ADD25R,0.200000X0.800000*%
%TD*%
%TA.AperFunction,SMDPad,CuDef*%
%ADD26R,0.200000X0.200000*%
%TD*%
%TA.AperFunction,SMDPad,CuDef*%
%ADD27R,0.400000X0.200000*%
%TD*%
%TA.AperFunction,SMDPad,CuDef*%
%ADD28R,0.800000X0.200000*%
%TD*%
%TA.AperFunction,SMDPad,CuDef*%
%ADD29R,1.400000X0.200000*%
%TD*%
%TA.AperFunction,SMDPad,CuDef*%
%ADD30R,0.200000X0.400000*%
%TD*%
%TA.AperFunction,SMDPad,CuDef*%
%ADD31R,1.000000X0.200000*%
%TD*%
%TA.AperFunction,SMDPad,CuDef*%
%ADD32R,0.200000X1.000000*%
%TD*%
%TA.AperFunction,SMDPad,CuDef*%
%ADD33R,0.600000X0.200000*%
%TD*%
%TA.AperFunction,SMDPad,CuDef*%
%ADD34R,0.200000X0.600000*%
%TD*%
%TA.AperFunction,SMDPad,CuDef*%
%ADD35R,0.600000X0.600000*%
%TD*%
%TA.AperFunction,SMDPad,CuDef*%
%ADD36R,0.200000X1.200000*%
%TD*%
%TA.AperFunction,SMDPad,CuDef*%
%ADD37R,0.400000X0.400000*%
%TD*%
%TA.AperFunction,ViaPad*%
%ADD38C,0.800000*%
%TD*%
%TA.AperFunction,Conductor*%
%ADD39C,0.250000*%
%TD*%
%TA.AperFunction,Conductor*%
%ADD40C,0.500000*%
%TD*%
G04 APERTURE END LIST*
D10*
D11*
X149880952Y-117023809D02*
X149880952Y-117976190D01*
X150166666Y-117214285D02*
X150166666Y-117785714D01*
X149452380Y-117500000D02*
X149880952Y-117500000D01*
X150452380Y-117595238D02*
X150452380Y-117404761D01*
D10*
D11*
X122380952Y-117023809D02*
X122380952Y-117976190D01*
X122666666Y-117214285D02*
X122666666Y-117785714D01*
X121952380Y-117500000D02*
X122380952Y-117500000D01*
X122952380Y-117595238D02*
X122952380Y-117404761D01*
D10*
D11*
X131952380Y-116119047D02*
X131952380Y-116690476D01*
X132952380Y-116404761D02*
X131952380Y-116404761D01*
X131952380Y-116928571D02*
X132952380Y-117595238D01*
X131952380Y-117595238D02*
X132952380Y-116928571D01*
X132571428Y-118738095D02*
X132571428Y-117976190D01*
X132761904Y-118166666D02*
X132571428Y-117976190D01*
X132380952Y-118166666D01*
D10*
D11*
X162952380Y-116285714D02*
X161952380Y-116285714D01*
X162666666Y-116619047D01*
X161952380Y-116952380D01*
X162952380Y-116952380D01*
X161952380Y-117285714D02*
X161952380Y-117857142D01*
X162952380Y-117571428D02*
X161952380Y-117571428D01*
X162952380Y-118761904D02*
X162476190Y-118428571D01*
X162952380Y-118190476D02*
X161952380Y-118190476D01*
X161952380Y-118571428D01*
X162000000Y-118666666D01*
X162047619Y-118714285D01*
X162142857Y-118761904D01*
X162285714Y-118761904D01*
X162380952Y-118714285D01*
X162428571Y-118666666D01*
X162476190Y-118571428D01*
X162476190Y-118190476D01*
D10*
D11*
X157380952Y-117023809D02*
X157380952Y-117976190D01*
X157666666Y-117214285D02*
X157666666Y-117785714D01*
X156952380Y-117500000D02*
X157380952Y-117500000D01*
X157952380Y-117595238D02*
X157952380Y-117404761D01*
D10*
D11*
X145452380Y-116714285D02*
X144976190Y-116380952D01*
X145452380Y-116142857D02*
X144452380Y-116142857D01*
X144452380Y-116523809D01*
X144500000Y-116619047D01*
X144547619Y-116666666D01*
X144642857Y-116714285D01*
X144785714Y-116714285D01*
X144880952Y-116666666D01*
X144928571Y-116619047D01*
X144976190Y-116523809D01*
X144976190Y-116142857D01*
X144452380Y-117047619D02*
X145452380Y-117714285D01*
X144452380Y-117714285D02*
X145452380Y-117047619D01*
X145071428Y-118095238D02*
X145071428Y-118857142D01*
X145261904Y-118666666D02*
X145071428Y-118857142D01*
X144880952Y-118666666D01*
D10*
D11*
X152952380Y-116761904D02*
X152476190Y-116428571D01*
X152952380Y-116190476D02*
X151952380Y-116190476D01*
X151952380Y-116571428D01*
X152000000Y-116666666D01*
X152047619Y-116714285D01*
X152142857Y-116761904D01*
X152285714Y-116761904D01*
X152380952Y-116714285D01*
X152428571Y-116666666D01*
X152476190Y-116571428D01*
X152476190Y-116190476D01*
X151952380Y-117190476D02*
X152761904Y-117190476D01*
X152857142Y-117238095D01*
X152904761Y-117285714D01*
X152952380Y-117380952D01*
X152952380Y-117571428D01*
X152904761Y-117666666D01*
X152857142Y-117714285D01*
X152761904Y-117761904D01*
X151952380Y-117761904D01*
X152952380Y-118238095D02*
X151952380Y-118238095D01*
X152952380Y-118809523D01*
X151952380Y-118809523D01*
D10*
D11*
X125452380Y-116738095D02*
X124452380Y-116738095D01*
X124452380Y-116976190D01*
X124500000Y-117119047D01*
X124595238Y-117214285D01*
X124690476Y-117261904D01*
X124880952Y-117309523D01*
X125023809Y-117309523D01*
X125214285Y-117261904D01*
X125309523Y-117214285D01*
X125404761Y-117119047D01*
X125452380Y-116976190D01*
X125452380Y-116738095D01*
X125357142Y-118309523D02*
X125404761Y-118261904D01*
X125452380Y-118119047D01*
X125452380Y-118023809D01*
X125404761Y-117880952D01*
X125309523Y-117785714D01*
X125214285Y-117738095D01*
X125023809Y-117690476D01*
X124880952Y-117690476D01*
X124690476Y-117738095D01*
X124595238Y-117785714D01*
X124500000Y-117880952D01*
X124452380Y-118023809D01*
X124452380Y-118119047D01*
X124500000Y-118261904D01*
X124547619Y-118309523D01*
D10*
D11*
X134452380Y-116119047D02*
X134452380Y-116690476D01*
X135452380Y-116404761D02*
X134452380Y-116404761D01*
X134452380Y-116928571D02*
X135452380Y-117595238D01*
X134452380Y-117595238D02*
X135452380Y-116928571D01*
X135071428Y-117976190D02*
X135071428Y-118738095D01*
X135261904Y-118547619D02*
X135071428Y-118738095D01*
X134880952Y-118547619D01*
D12*
D13*
X157428571Y-90073809D02*
X157404761Y-90050000D01*
X157357142Y-90026190D01*
X157238095Y-90026190D01*
X157190476Y-90050000D01*
X157166666Y-90073809D01*
X157142857Y-90121428D01*
X157142857Y-90169047D01*
X157166666Y-90240476D01*
X157452380Y-90526190D01*
X157142857Y-90526190D01*
X156833333Y-90026190D02*
X156785714Y-90026190D01*
X156738095Y-90050000D01*
X156714285Y-90073809D01*
X156690476Y-90121428D01*
X156666666Y-90216666D01*
X156666666Y-90335714D01*
X156690476Y-90430952D01*
X156714285Y-90478571D01*
X156738095Y-90502380D01*
X156785714Y-90526190D01*
X156833333Y-90526190D01*
X156880952Y-90502380D01*
X156904761Y-90478571D01*
X156928571Y-90430952D01*
X156952380Y-90335714D01*
X156952380Y-90216666D01*
X156928571Y-90121428D01*
X156904761Y-90073809D01*
X156880952Y-90050000D01*
X156833333Y-90026190D01*
X156476190Y-90073809D02*
X156452380Y-90050000D01*
X156404761Y-90026190D01*
X156285714Y-90026190D01*
X156238095Y-90050000D01*
X156214285Y-90073809D01*
X156190476Y-90121428D01*
X156190476Y-90169047D01*
X156214285Y-90240476D01*
X156500000Y-90526190D01*
X156190476Y-90526190D01*
X156000000Y-90073809D02*
X155976190Y-90050000D01*
X155928571Y-90026190D01*
X155809523Y-90026190D01*
X155761904Y-90050000D01*
X155738095Y-90073809D01*
X155714285Y-90121428D01*
X155714285Y-90169047D01*
X155738095Y-90240476D01*
X156023809Y-90526190D01*
X155714285Y-90526190D01*
X155500000Y-90335714D02*
X155119047Y-90335714D01*
X154785714Y-90026190D02*
X154738095Y-90026190D01*
X154690476Y-90050000D01*
X154666666Y-90073809D01*
X154642857Y-90121428D01*
X154619047Y-90216666D01*
X154619047Y-90335714D01*
X154642857Y-90430952D01*
X154666666Y-90478571D01*
X154690476Y-90502380D01*
X154738095Y-90526190D01*
X154785714Y-90526190D01*
X154833333Y-90502380D01*
X154857142Y-90478571D01*
X154880952Y-90430952D01*
X154904761Y-90335714D01*
X154904761Y-90216666D01*
X154880952Y-90121428D01*
X154857142Y-90073809D01*
X154833333Y-90050000D01*
X154785714Y-90026190D01*
X154142857Y-90526190D02*
X154428571Y-90526190D01*
X154285714Y-90526190D02*
X154285714Y-90026190D01*
X154333333Y-90097619D01*
X154380952Y-90145238D01*
X154428571Y-90169047D01*
X153928571Y-90335714D02*
X153547619Y-90335714D01*
X153333333Y-90073809D02*
X153309523Y-90050000D01*
X153261904Y-90026190D01*
X153142857Y-90026190D01*
X153095238Y-90050000D01*
X153071428Y-90073809D01*
X153047619Y-90121428D01*
X153047619Y-90169047D01*
X153071428Y-90240476D01*
X153357142Y-90526190D01*
X153047619Y-90526190D01*
X152809523Y-90526190D02*
X152714285Y-90526190D01*
X152666666Y-90502380D01*
X152642857Y-90478571D01*
X152595238Y-90407142D01*
X152571428Y-90311904D01*
X152571428Y-90121428D01*
X152595238Y-90073809D01*
X152619047Y-90050000D01*
X152666666Y-90026190D01*
X152761904Y-90026190D01*
X152809523Y-90050000D01*
X152833333Y-90073809D01*
X152857142Y-90121428D01*
X152857142Y-90240476D01*
X152833333Y-90288095D01*
X152809523Y-90311904D01*
X152761904Y-90335714D01*
X152666666Y-90335714D01*
X152619047Y-90311904D01*
X152595238Y-90288095D01*
X152571428Y-90240476D01*
D10*
D11*
X129452380Y-116119047D02*
X129452380Y-116690476D01*
X130452380Y-116404761D02*
X129452380Y-116404761D01*
X129452380Y-116928571D02*
X130452380Y-117595238D01*
X129452380Y-117595238D02*
X130452380Y-116928571D01*
X129880952Y-117880952D02*
X129880952Y-118833333D01*
X130166666Y-118071428D02*
X130166666Y-118642857D01*
X129452380Y-118357142D02*
X129880952Y-118357142D01*
X130452380Y-118452380D02*
X130452380Y-118261904D01*
D10*
D11*
X160452380Y-116166666D02*
X159452380Y-116166666D01*
X159452380Y-116547619D01*
X159500000Y-116642857D01*
X159547619Y-116690476D01*
X159642857Y-116738095D01*
X159785714Y-116738095D01*
X159880952Y-116690476D01*
X159928571Y-116642857D01*
X159976190Y-116547619D01*
X159976190Y-116166666D01*
X159452380Y-117071428D02*
X160452380Y-117309523D01*
X159738095Y-117500000D01*
X160452380Y-117690476D01*
X159452380Y-117928571D01*
X160452380Y-118880952D02*
X159976190Y-118547619D01*
X160452380Y-118309523D02*
X159452380Y-118309523D01*
X159452380Y-118690476D01*
X159500000Y-118785714D01*
X159547619Y-118833333D01*
X159642857Y-118880952D01*
X159785714Y-118880952D01*
X159880952Y-118833333D01*
X159928571Y-118785714D01*
X159976190Y-118690476D01*
X159976190Y-118309523D01*
D10*
D11*
X140452380Y-116714285D02*
X139976190Y-116380952D01*
X140452380Y-116142857D02*
X139452380Y-116142857D01*
X139452380Y-116523809D01*
X139500000Y-116619047D01*
X139547619Y-116666666D01*
X139642857Y-116714285D01*
X139785714Y-116714285D01*
X139880952Y-116666666D01*
X139928571Y-116619047D01*
X139976190Y-116523809D01*
X139976190Y-116142857D01*
X139452380Y-117047619D02*
X140452380Y-117714285D01*
X139452380Y-117714285D02*
X140452380Y-117047619D01*
X139880952Y-118000000D02*
X139880952Y-118952380D01*
X140166666Y-118190476D02*
X140166666Y-118761904D01*
X139452380Y-118476190D02*
X139880952Y-118476190D01*
X140452380Y-118571428D02*
X140452380Y-118380952D01*
D10*
D11*
X142952380Y-116714285D02*
X142476190Y-116380952D01*
X142952380Y-116142857D02*
X141952380Y-116142857D01*
X141952380Y-116523809D01*
X142000000Y-116619047D01*
X142047619Y-116666666D01*
X142142857Y-116714285D01*
X142285714Y-116714285D01*
X142380952Y-116666666D01*
X142428571Y-116619047D01*
X142476190Y-116523809D01*
X142476190Y-116142857D01*
X141952380Y-117047619D02*
X142952380Y-117714285D01*
X141952380Y-117714285D02*
X142952380Y-117047619D01*
X142571428Y-118857142D02*
X142571428Y-118095238D01*
X142761904Y-118285714D02*
X142571428Y-118095238D01*
X142380952Y-118285714D01*
D14*
%TO.C,Logo1*%
X149100000Y-84400000D02*
X149100000Y-84700000D01*
X149100000Y-84560000D02*
X149000000Y-84560000D01*
D15*
X147500000Y-84400000D02*
X150500000Y-88600000D01*
X147500000Y-86500000D02*
X149000000Y-86500000D01*
X147500000Y-84400000D02*
X147500000Y-88600000D01*
X145700000Y-84500000D02*
X147500000Y-86500000D01*
D14*
X149000000Y-84560000D02*
X148900000Y-84700000D01*
X149100000Y-84400000D02*
X149000000Y-84400000D01*
D15*
X147500000Y-86500000D02*
X145700000Y-88600000D01*
D14*
X149000000Y-84400000D02*
G75*
G03*
X149000000Y-84560000I0J-80000D01*
G01*
D15*
X147500000Y-88600000D02*
G75*
G03*
X149000000Y-88600000I750000J0D01*
G01*
D14*
X149320000Y-84560000D02*
G75*
G03*
X149320000Y-84560000I-300000J0D01*
G01*
%TO.C,JP1*%
G36*
X137750000Y-109950000D02*
G01*
X137250000Y-109950000D01*
X137250000Y-109550000D01*
X137750000Y-109550000D01*
X137750000Y-109950000D01*
G37*
%TD*%
D16*
%TO.P,J1,S1,SHIELD*%
%TO.N,GND*%
X126280000Y-108720000D03*
D17*
X125790000Y-101510000D03*
D18*
X122110000Y-108720000D03*
D16*
X126280000Y-100080000D03*
D18*
X122110000Y-100080000D03*
D17*
X125790000Y-107290000D03*
%TD*%
D19*
%TO.P,U2,21,GND*%
%TO.N,GND*%
X133750000Y-94650000D03*
%TD*%
D20*
%TO.P,J5,1,Pin_1*%
%TO.N,GND*%
X130000000Y-113400000D03*
D21*
%TO.P,J5,2,Pin_2*%
%TO.N,Net-(C5-Pad1)*%
X132500000Y-113400000D03*
%TO.P,J5,3,Pin_3*%
%TO.N,Net-(J5-Pad3)*%
X135000000Y-113400000D03*
%TD*%
D22*
%TO.P,SW1,1,1*%
%TO.N,GND*%
X130250000Y-83650000D03*
X136750000Y-83650000D03*
%TO.P,SW1,2,2*%
%TO.N,BUTTON*%
X136750000Y-88150000D03*
X130250000Y-88150000D03*
%TD*%
D20*
%TO.P,J6,1,Pin_1*%
%TO.N,Net-(C6-Pad1)*%
X140000000Y-113400000D03*
D21*
%TO.P,J6,2,Pin_2*%
%TO.N,Net-(C6-Pad2)*%
X142500000Y-113400000D03*
%TO.P,J6,3,Pin_3*%
%TO.N,Net-(J6-Pad3)*%
X145000000Y-113400000D03*
%TD*%
D20*
%TO.P,J2,1,Pin_1*%
%TO.N,GND*%
X122500000Y-113400000D03*
D21*
%TO.P,J2,2,Pin_2*%
%TO.N,DC*%
X125000000Y-113400000D03*
%TD*%
D20*
%TO.P,J3,1,Pin_1*%
%TO.N,GND*%
X157500000Y-113400000D03*
D21*
%TO.P,J3,2,Pin_2*%
%TO.N,PWR*%
X160000000Y-113400000D03*
%TO.P,J3,3,Pin_3*%
%TO.N,MTR*%
X162500000Y-113400000D03*
%TD*%
D20*
%TO.P,J4,1,Pin_1*%
%TO.N,GND*%
X150000000Y-113400000D03*
D21*
%TO.P,J4,2,Pin_2*%
%TO.N,RUN*%
X152500000Y-113400000D03*
%TD*%
D23*
%TO.P,JP1,1,A*%
%TO.N,GND*%
X136850000Y-109750000D03*
D24*
%TO.P,JP1,2,B*%
%TO.N,Net-(C6-Pad1)*%
X138150000Y-109750000D03*
%TD*%
D25*
%TO.P,U7,*%
%TO.N,*%
X155200000Y-87150000D03*
X154800000Y-84950000D03*
D26*
X156200000Y-87050000D03*
X154600000Y-85250000D03*
D27*
X154700000Y-85650000D03*
X154700000Y-87850000D03*
D28*
X156700000Y-87250000D03*
D29*
X156400000Y-84650000D03*
D26*
X153600000Y-87050000D03*
D27*
X154300000Y-86650000D03*
D26*
X156000000Y-86250000D03*
D30*
X156600000Y-87950000D03*
D31*
X153600000Y-85850000D03*
D26*
X155800000Y-88250000D03*
D28*
X154500000Y-86250000D03*
D30*
X155400000Y-87550000D03*
D32*
X155400000Y-86250000D03*
D31*
X156400000Y-85850000D03*
D28*
X156700000Y-87650000D03*
D26*
X155600000Y-86850000D03*
D33*
X156400000Y-87450000D03*
D26*
X155800000Y-88650000D03*
D28*
X153700000Y-86450000D03*
D26*
X157000000Y-88450000D03*
D25*
X154600000Y-87150000D03*
D34*
X155000000Y-86650000D03*
D35*
X153600000Y-85250000D03*
D26*
X153200000Y-87050000D03*
D30*
X155800000Y-87550000D03*
D31*
X153600000Y-88650000D03*
D26*
X155400000Y-84650000D03*
D30*
X157000000Y-86550000D03*
D26*
X156600000Y-88450000D03*
X156400000Y-88050000D03*
D28*
X155300000Y-88050000D03*
D31*
X153400000Y-86250000D03*
D36*
X155800000Y-85350000D03*
D30*
X154000000Y-86950000D03*
D37*
X156100000Y-86750000D03*
D26*
X155000000Y-87250000D03*
X155600000Y-87650000D03*
D29*
X153600000Y-84650000D03*
D27*
X155300000Y-88650000D03*
D36*
X153000000Y-88150000D03*
D25*
X155000000Y-85750000D03*
D35*
X156400000Y-85250000D03*
D26*
X153800000Y-86650000D03*
X156400000Y-86250000D03*
D28*
X153300000Y-86850000D03*
D35*
X153600000Y-88050000D03*
D26*
X157000000Y-87850000D03*
D36*
X154200000Y-85350000D03*
D26*
X155600000Y-86250000D03*
X155000000Y-87650000D03*
X155200000Y-85650000D03*
X156800000Y-86250000D03*
D27*
X154500000Y-86450000D03*
D32*
X154800000Y-87050000D03*
D26*
X156200000Y-88250000D03*
X156000000Y-87850000D03*
D30*
X155200000Y-84950000D03*
D33*
X156600000Y-86850000D03*
D36*
X154200000Y-88150000D03*
D26*
X154600000Y-85850000D03*
X154600000Y-84850000D03*
D25*
X154600000Y-88350000D03*
D36*
X157000000Y-85350000D03*
D29*
X153600000Y-87450000D03*
D26*
X155800000Y-86450000D03*
D30*
X154800000Y-88550000D03*
D27*
X156300000Y-88650000D03*
D26*
X155600000Y-88450000D03*
D36*
X153000000Y-85350000D03*
D33*
X155000000Y-88250000D03*
D26*
X154200000Y-87050000D03*
%TD*%
D38*
%TO.N,GND*%
X131500000Y-90000000D03*
X126500000Y-90900000D03*
X131400000Y-102000000D03*
X131300000Y-107400000D03*
X133000000Y-87200000D03*
X157300000Y-107800000D03*
%TO.N,+3V3*%
X155700000Y-97100000D03*
X151300000Y-109400000D03*
X160000000Y-109400000D03*
X135000000Y-86600000D03*
X143300000Y-87600000D03*
%TO.N,VBUS*%
X136800000Y-95200000D03*
X128200000Y-99100000D03*
%TO.N,Net-(C1-Pad1)*%
X131000000Y-92500000D03*
X135800000Y-97000000D03*
%TO.N,O*%
X153700000Y-98700000D03*
X132000000Y-92500000D03*
%TO.N,I*%
X135700000Y-91800000D03*
X149600000Y-98500000D03*
%TO.N,EN*%
X136600000Y-90700000D03*
X144500000Y-86500000D03*
%TO.N,GPIO0*%
X134100000Y-90700000D03*
X142400000Y-98200000D03*
%TO.N,R*%
X139900000Y-83400000D03*
X128400000Y-83500000D03*
%TO.N,B*%
X138200000Y-86500000D03*
X142700000Y-85800000D03*
%TO.N,Net-(C3-Pad1)*%
X131300000Y-103700000D03*
X131300000Y-105500000D03*
%TO.N,BUTTON*%
X148800000Y-106000000D03*
X151700000Y-96600000D03*
%TO.N,DC*%
X140400000Y-107800000D03*
X125900000Y-95500000D03*
%TD*%
D39*
%TO.N,+3V3*%
X136417755Y-86600000D02*
X135000000Y-86600000D01*
X155700000Y-109400000D02*
X160000000Y-109400000D01*
X151300000Y-109400000D02*
X155700000Y-109400000D01*
X155700000Y-97100000D02*
X155700000Y-109400000D01*
X138831967Y-87600000D02*
X143300000Y-87600000D01*
X136417755Y-86600001D02*
G75*
G02*
X137536570Y-87063430I0J-1582244D01*
G01*
X137536571Y-87063429D02*
G75*
G03*
X138831967Y-87600000I1295395J1295393D01*
G01*
%TO.N,VBUS*%
X136800000Y-95200000D02*
X137200000Y-95200000D01*
X128200000Y-99100000D02*
X137200000Y-99100000D01*
X137900000Y-95900000D02*
X137900000Y-98400000D01*
X137900000Y-95900000D02*
G75*
G03*
X137200000Y-95200000I-699999J1D01*
G01*
X137900000Y-98400000D02*
G75*
G02*
X137200000Y-99100000I-699999J-1D01*
G01*
%TO.N,Net-(C1-Pad1)*%
X135800000Y-97000000D02*
X132000000Y-97000000D01*
X131000000Y-92500000D02*
X131000000Y-96000000D01*
X131000000Y-96000000D02*
G75*
G03*
X132000000Y-97000000I999999J-1D01*
G01*
%TO.N,O*%
X152800000Y-101000000D02*
X140500000Y-101000000D01*
X153700000Y-98700000D02*
X153700000Y-100100000D01*
X138200000Y-94000000D02*
X133500000Y-94000000D01*
X139300000Y-99800000D02*
X139300000Y-95100000D01*
X139300000Y-99800000D02*
G75*
G03*
X140500000Y-101000000I1200000J0D01*
G01*
X132000000Y-92500000D02*
G75*
G03*
X133500000Y-94000000I1500001J1D01*
G01*
X138200000Y-94000000D02*
G75*
G02*
X139300000Y-95100000I-2J-1100002D01*
G01*
X152800000Y-101000000D02*
G75*
G03*
X153700000Y-100100000I0J900000D01*
G01*
%TO.N,I*%
X149600000Y-98500000D02*
X149600000Y-93700000D01*
X135700000Y-91800000D02*
X147700000Y-91800000D01*
X147700000Y-91800000D02*
G75*
G02*
X149600000Y-93700000I0J-1900000D01*
G01*
%TO.N,EN*%
X136600000Y-90700000D02*
X143400000Y-90700000D01*
X144400000Y-89700000D02*
X144400000Y-86600000D01*
X144400000Y-89700000D02*
G75*
G02*
X143400000Y-90700000I-999999J-1D01*
G01*
X144500000Y-86500000D02*
G75*
G03*
X144400000Y-86600000I-1J-99999D01*
G01*
%TO.N,GPIO0*%
X135500000Y-93400000D02*
X140900000Y-93400000D01*
X142400000Y-98200000D02*
X142400000Y-94900000D01*
X134100000Y-90700000D02*
X134100000Y-92000000D01*
X140900000Y-93400000D02*
G75*
G02*
X142400000Y-94900000I-1J-1500001D01*
G01*
X135500000Y-93400000D02*
G75*
G02*
X134100000Y-92000000I2J1400002D01*
G01*
%TO.N,R*%
X128400000Y-83500000D02*
X128400000Y-83673143D01*
X130326857Y-85600000D02*
X137700000Y-85600000D01*
X130326857Y-85600000D02*
G75*
G02*
X128400000Y-83673143I-1J1926856D01*
G01*
X139900000Y-83400000D02*
G75*
G02*
X137700000Y-85600000I-2200000J0D01*
G01*
%TO.N,B*%
X138200000Y-86500000D02*
X142000000Y-86500000D01*
X142700000Y-85800000D02*
G75*
G02*
X142000000Y-86500000I-699999J-1D01*
G01*
%TO.N,Net-(C3-Pad1)*%
X131300000Y-105500000D02*
X131300000Y-103700000D01*
%TO.N,Net-(C6-Pad1)*%
X140000000Y-110500000D02*
X140000000Y-113400000D01*
X138150000Y-109750000D02*
X139250000Y-109750000D01*
X140000000Y-110500000D02*
G75*
G03*
X139250000Y-109750000I-750000J0D01*
G01*
%TO.N,BUTTON*%
X148800000Y-106000000D02*
X148800000Y-102600000D01*
X154500000Y-100100000D02*
X154500000Y-98000000D01*
X149900000Y-101500000D02*
X153100000Y-101500000D01*
X153100000Y-96600000D02*
X151700000Y-96600000D01*
X154500000Y-100100000D02*
G75*
G02*
X153100000Y-101500000I-1400002J2D01*
G01*
X149900000Y-101500000D02*
G75*
G03*
X148800000Y-102600000I2J-1100002D01*
G01*
X153100000Y-96600000D02*
G75*
G02*
X154500000Y-98000000I-2J-1400002D01*
G01*
%TO.N,DC*%
X133300000Y-110500000D02*
X125000000Y-110500000D01*
X140400000Y-107800000D02*
X136000000Y-107800000D01*
D40*
X125000000Y-97672792D02*
X125000000Y-110500000D01*
X125000000Y-110500000D02*
X125000000Y-113400000D01*
X125000001Y-97672792D02*
G75*
G02*
X125900001Y-95500001I3072784J3D01*
G01*
D39*
X134500000Y-109300000D02*
G75*
G02*
X136000000Y-107800000I1500001J-1D01*
G01*
X133300000Y-110500000D02*
G75*
G03*
X134500000Y-109300000I0J1200000D01*
G01*
%TD*%
%TA.AperFunction,Conductor*%
%TO.N,GND*%
G36*
X129327799Y-82274002D02*
G01*
X129374292Y-82327658D01*
X129383983Y-82400599D01*
X129381388Y-82416255D01*
X129385876Y-82426666D01*
X130237188Y-83277978D01*
X130251132Y-83285592D01*
X130252965Y-83285461D01*
X130259580Y-83281210D01*
X131111080Y-82429710D01*
X131118694Y-82415766D01*
X131116779Y-82388990D01*
X131131870Y-82319615D01*
X131182072Y-82269413D01*
X131242458Y-82254000D01*
X135759678Y-82254000D01*
X135827799Y-82274002D01*
X135874292Y-82327658D01*
X135883983Y-82400599D01*
X135881388Y-82416255D01*
X135885876Y-82426666D01*
X136737188Y-83277978D01*
X136751132Y-83285592D01*
X136752965Y-83285461D01*
X136759580Y-83281210D01*
X137611080Y-82429710D01*
X137618694Y-82415766D01*
X137616779Y-82388990D01*
X137631870Y-82319615D01*
X137682072Y-82269413D01*
X137742458Y-82254000D01*
X158620000Y-82254000D01*
X158688121Y-82274002D01*
X158734614Y-82327658D01*
X158746000Y-82380000D01*
X158746000Y-105962575D01*
X158743579Y-105987153D01*
X158741024Y-106000000D01*
X158743445Y-106012172D01*
X158746000Y-106025017D01*
X158746001Y-106025023D01*
X158747451Y-106032309D01*
X158753075Y-106060584D01*
X158760737Y-106099106D01*
X158767631Y-106109423D01*
X158767631Y-106109424D01*
X158799879Y-106157686D01*
X158816876Y-106183124D01*
X158900894Y-106239263D01*
X158971575Y-106253322D01*
X159000000Y-106258976D01*
X159012847Y-106256421D01*
X159037425Y-106254000D01*
X164620000Y-106254000D01*
X164688121Y-106274002D01*
X164734614Y-106327658D01*
X164746000Y-106380000D01*
X164746000Y-115374000D01*
X164725998Y-115442121D01*
X164672342Y-115488614D01*
X164620000Y-115500000D01*
X161427549Y-115500000D01*
X161359428Y-115479998D01*
X161359000Y-115479678D01*
X161359000Y-115474571D01*
X158641000Y-115474571D01*
X158641000Y-115479890D01*
X158615263Y-115487447D01*
X158603668Y-115494898D01*
X158568176Y-115500000D01*
X153866443Y-115500000D01*
X153859000Y-115499200D01*
X153859000Y-115498381D01*
X151141000Y-115498381D01*
X151141000Y-115499207D01*
X151135486Y-115500000D01*
X146455026Y-115500000D01*
X146386905Y-115479998D01*
X146372514Y-115469225D01*
X146359000Y-115457515D01*
X146359000Y-115450762D01*
X138641000Y-115450762D01*
X138641000Y-115457650D01*
X138583045Y-115494896D01*
X138547546Y-115500000D01*
X120380000Y-115500000D01*
X120311879Y-115479998D01*
X120265386Y-115426342D01*
X120254000Y-115374000D01*
X120254000Y-114122095D01*
X121142001Y-114122095D01*
X121142338Y-114128614D01*
X121152257Y-114224206D01*
X121155149Y-114237600D01*
X121206588Y-114391784D01*
X121212761Y-114404962D01*
X121298063Y-114542807D01*
X121307099Y-114554208D01*
X121421829Y-114668739D01*
X121433240Y-114677751D01*
X121571243Y-114762816D01*
X121584424Y-114768963D01*
X121738710Y-114820138D01*
X121752086Y-114823005D01*
X121846438Y-114832672D01*
X121852854Y-114833000D01*
X122227885Y-114833000D01*
X122243124Y-114828525D01*
X122244329Y-114827135D01*
X122246000Y-114819452D01*
X122246000Y-114814884D01*
X122754000Y-114814884D01*
X122758475Y-114830123D01*
X122759865Y-114831328D01*
X122767548Y-114832999D01*
X123147095Y-114832999D01*
X123153614Y-114832662D01*
X123249206Y-114822743D01*
X123262600Y-114819851D01*
X123416784Y-114768412D01*
X123429962Y-114762239D01*
X123567807Y-114676937D01*
X123579208Y-114667901D01*
X123693739Y-114553171D01*
X123702751Y-114541760D01*
X123787816Y-114403757D01*
X123793963Y-114390576D01*
X123845138Y-114236290D01*
X123848005Y-114222914D01*
X123854869Y-114155919D01*
X123881710Y-114090192D01*
X123939824Y-114049410D01*
X124010762Y-114046520D01*
X124072001Y-114082442D01*
X124079299Y-114090928D01*
X124196514Y-114240149D01*
X124201044Y-114244080D01*
X124201045Y-114244081D01*
X124351165Y-114374350D01*
X124351170Y-114374354D01*
X124355696Y-114378281D01*
X124538126Y-114483819D01*
X124737222Y-114552957D01*
X124743155Y-114553817D01*
X124743158Y-114553818D01*
X124939860Y-114582338D01*
X124939863Y-114582338D01*
X124945800Y-114583199D01*
X125156333Y-114573455D01*
X125162157Y-114572051D01*
X125162160Y-114572051D01*
X125355393Y-114525482D01*
X125355395Y-114525481D01*
X125361226Y-114524076D01*
X125366684Y-114521594D01*
X125366688Y-114521593D01*
X125544414Y-114440785D01*
X125553084Y-114436843D01*
X125724986Y-114314904D01*
X125870728Y-114162660D01*
X125896920Y-114122095D01*
X128642001Y-114122095D01*
X128642338Y-114128614D01*
X128652257Y-114224206D01*
X128655149Y-114237600D01*
X128706588Y-114391784D01*
X128712761Y-114404962D01*
X128798063Y-114542807D01*
X128807099Y-114554208D01*
X128921829Y-114668739D01*
X128933240Y-114677751D01*
X129071243Y-114762816D01*
X129084424Y-114768963D01*
X129238710Y-114820138D01*
X129252086Y-114823005D01*
X129346438Y-114832672D01*
X129352854Y-114833000D01*
X129727885Y-114833000D01*
X129743124Y-114828525D01*
X129744329Y-114827135D01*
X129746000Y-114819452D01*
X129746000Y-114814884D01*
X130254000Y-114814884D01*
X130258475Y-114830123D01*
X130259865Y-114831328D01*
X130267548Y-114832999D01*
X130647095Y-114832999D01*
X130653614Y-114832662D01*
X130749206Y-114822743D01*
X130762600Y-114819851D01*
X130916784Y-114768412D01*
X130929962Y-114762239D01*
X131067807Y-114676937D01*
X131079208Y-114667901D01*
X131193739Y-114553171D01*
X131202751Y-114541760D01*
X131287816Y-114403757D01*
X131293963Y-114390576D01*
X131345138Y-114236290D01*
X131348005Y-114222914D01*
X131354869Y-114155919D01*
X131381710Y-114090192D01*
X131439824Y-114049410D01*
X131510762Y-114046520D01*
X131572001Y-114082442D01*
X131579299Y-114090928D01*
X131696514Y-114240149D01*
X131701044Y-114244080D01*
X131701045Y-114244081D01*
X131851165Y-114374350D01*
X131851170Y-114374354D01*
X131855696Y-114378281D01*
X132038126Y-114483819D01*
X132237222Y-114552957D01*
X132243155Y-114553817D01*
X132243158Y-114553818D01*
X132439860Y-114582338D01*
X132439863Y-114582338D01*
X132445800Y-114583199D01*
X132656333Y-114573455D01*
X132662157Y-114572051D01*
X132662160Y-114572051D01*
X132855393Y-114525482D01*
X132855395Y-114525481D01*
X132861226Y-114524076D01*
X132866684Y-114521594D01*
X132866688Y-114521593D01*
X133044414Y-114440785D01*
X133053084Y-114436843D01*
X133224986Y-114314904D01*
X133370728Y-114162660D01*
X133427710Y-114074410D01*
X133481800Y-113990640D01*
X133481801Y-113990637D01*
X133485052Y-113985603D01*
X133563834Y-113790122D01*
X133604229Y-113583271D01*
X133604500Y-113577730D01*
X133604500Y-113527659D01*
X133895500Y-113527659D01*
X133910493Y-113684806D01*
X133969823Y-113887042D01*
X133972573Y-113892381D01*
X134051960Y-114046520D01*
X134066324Y-114074410D01*
X134078721Y-114090192D01*
X134192808Y-114235432D01*
X134192812Y-114235436D01*
X134196514Y-114240149D01*
X134201044Y-114244080D01*
X134201045Y-114244081D01*
X134351165Y-114374350D01*
X134351170Y-114374354D01*
X134355696Y-114378281D01*
X134538126Y-114483819D01*
X134737222Y-114552957D01*
X134743155Y-114553817D01*
X134743158Y-114553818D01*
X134939860Y-114582338D01*
X134939863Y-114582338D01*
X134945800Y-114583199D01*
X135156333Y-114573455D01*
X135162157Y-114572051D01*
X135162160Y-114572051D01*
X135355393Y-114525482D01*
X135355395Y-114525481D01*
X135361226Y-114524076D01*
X135366684Y-114521594D01*
X135366688Y-114521593D01*
X135544414Y-114440785D01*
X135553084Y-114436843D01*
X135724986Y-114314904D01*
X135870728Y-114162660D01*
X135927710Y-114074410D01*
X135981800Y-113990640D01*
X135981801Y-113990637D01*
X135985052Y-113985603D01*
X136063834Y-113790122D01*
X136104229Y-113583271D01*
X136104500Y-113577730D01*
X136104500Y-113272341D01*
X136089507Y-113115194D01*
X136030177Y-112912958D01*
X135979415Y-112814397D01*
X135936422Y-112730921D01*
X135936420Y-112730918D01*
X135933676Y-112725590D01*
X135864355Y-112637340D01*
X135807192Y-112564568D01*
X135807188Y-112564564D01*
X135803486Y-112559851D01*
X135798955Y-112555919D01*
X135648835Y-112425650D01*
X135648830Y-112425646D01*
X135644304Y-112421719D01*
X135461874Y-112316181D01*
X135262778Y-112247043D01*
X135256845Y-112246183D01*
X135256842Y-112246182D01*
X135060140Y-112217662D01*
X135060137Y-112217662D01*
X135054200Y-112216801D01*
X134843667Y-112226545D01*
X134837843Y-112227949D01*
X134837840Y-112227949D01*
X134644607Y-112274518D01*
X134644605Y-112274519D01*
X134638774Y-112275924D01*
X134633316Y-112278406D01*
X134633312Y-112278407D01*
X134554562Y-112314213D01*
X134446916Y-112363157D01*
X134275014Y-112485096D01*
X134129272Y-112637340D01*
X134126021Y-112642375D01*
X134068848Y-112730921D01*
X134014948Y-112814397D01*
X133936166Y-113009878D01*
X133895771Y-113216729D01*
X133895500Y-113222270D01*
X133895500Y-113527659D01*
X133604500Y-113527659D01*
X133604500Y-113272341D01*
X133589507Y-113115194D01*
X133530177Y-112912958D01*
X133479415Y-112814397D01*
X133436422Y-112730921D01*
X133436420Y-112730918D01*
X133433676Y-112725590D01*
X133364355Y-112637340D01*
X133307192Y-112564568D01*
X133307188Y-112564564D01*
X133303486Y-112559851D01*
X133298955Y-112555919D01*
X133148835Y-112425650D01*
X133148830Y-112425646D01*
X133144304Y-112421719D01*
X132961874Y-112316181D01*
X132762778Y-112247043D01*
X132756845Y-112246183D01*
X132756842Y-112246182D01*
X132560140Y-112217662D01*
X132560137Y-112217662D01*
X132554200Y-112216801D01*
X132343667Y-112226545D01*
X132337843Y-112227949D01*
X132337840Y-112227949D01*
X132144607Y-112274518D01*
X132144605Y-112274519D01*
X132138774Y-112275924D01*
X132133316Y-112278406D01*
X132133312Y-112278407D01*
X132054562Y-112314213D01*
X131946916Y-112363157D01*
X131775014Y-112485096D01*
X131629272Y-112637340D01*
X131626021Y-112642375D01*
X131586447Y-112703664D01*
X131532692Y-112750042D01*
X131462396Y-112759995D01*
X131397879Y-112730363D01*
X131359623Y-112670555D01*
X131355268Y-112648319D01*
X131347743Y-112575794D01*
X131344851Y-112562400D01*
X131293412Y-112408216D01*
X131287239Y-112395038D01*
X131201937Y-112257193D01*
X131192901Y-112245792D01*
X131078171Y-112131261D01*
X131066760Y-112122249D01*
X130928757Y-112037184D01*
X130915576Y-112031037D01*
X130761290Y-111979862D01*
X130747914Y-111976995D01*
X130653562Y-111967328D01*
X130647145Y-111967000D01*
X130272115Y-111967000D01*
X130256876Y-111971475D01*
X130255671Y-111972865D01*
X130254000Y-111980548D01*
X130254000Y-114814884D01*
X129746000Y-114814884D01*
X129746000Y-113672115D01*
X129741525Y-113656876D01*
X129740135Y-113655671D01*
X129732452Y-113654000D01*
X128660116Y-113654000D01*
X128644877Y-113658475D01*
X128643672Y-113659865D01*
X128642001Y-113667548D01*
X128642001Y-114122095D01*
X125896920Y-114122095D01*
X125927710Y-114074410D01*
X125981800Y-113990640D01*
X125981801Y-113990637D01*
X125985052Y-113985603D01*
X126063834Y-113790122D01*
X126104229Y-113583271D01*
X126104500Y-113577730D01*
X126104500Y-113272341D01*
X126090718Y-113127885D01*
X128642000Y-113127885D01*
X128646475Y-113143124D01*
X128647865Y-113144329D01*
X128655548Y-113146000D01*
X129727885Y-113146000D01*
X129743124Y-113141525D01*
X129744329Y-113140135D01*
X129746000Y-113132452D01*
X129746000Y-111985116D01*
X129741525Y-111969877D01*
X129740135Y-111968672D01*
X129732452Y-111967001D01*
X129352905Y-111967001D01*
X129346386Y-111967338D01*
X129250794Y-111977257D01*
X129237400Y-111980149D01*
X129083216Y-112031588D01*
X129070038Y-112037761D01*
X128932193Y-112123063D01*
X128920792Y-112132099D01*
X128806261Y-112246829D01*
X128797249Y-112258240D01*
X128712184Y-112396243D01*
X128706037Y-112409424D01*
X128654862Y-112563710D01*
X128651995Y-112577086D01*
X128642328Y-112671438D01*
X128642000Y-112677855D01*
X128642000Y-113127885D01*
X126090718Y-113127885D01*
X126089507Y-113115194D01*
X126030177Y-112912958D01*
X125979415Y-112814397D01*
X125936422Y-112730921D01*
X125936420Y-112730918D01*
X125933676Y-112725590D01*
X125864355Y-112637340D01*
X125807192Y-112564568D01*
X125807188Y-112564564D01*
X125803486Y-112559851D01*
X125798955Y-112555919D01*
X125648835Y-112425650D01*
X125648830Y-112425646D01*
X125644304Y-112421719D01*
X125567405Y-112377232D01*
X125518456Y-112325807D01*
X125504500Y-112268168D01*
X125504500Y-111005500D01*
X125524502Y-110937379D01*
X125578158Y-110890886D01*
X125630500Y-110879500D01*
X133260212Y-110879500D01*
X133279922Y-110881051D01*
X133300000Y-110884231D01*
X133308012Y-110882962D01*
X133311955Y-110882680D01*
X133312497Y-110882680D01*
X133313393Y-110882577D01*
X133525361Y-110867417D01*
X133611009Y-110848785D01*
X133741744Y-110820346D01*
X133741747Y-110820345D01*
X133746133Y-110819391D01*
X133750335Y-110817824D01*
X133750341Y-110817822D01*
X133953612Y-110742005D01*
X133957824Y-110740434D01*
X133971734Y-110732839D01*
X134152170Y-110634313D01*
X134156124Y-110632154D01*
X134332662Y-110500000D01*
X137350000Y-110500000D01*
X137357794Y-110500000D01*
X137364687Y-110505973D01*
X137403071Y-110565700D01*
X137405754Y-110576615D01*
X137410266Y-110599301D01*
X137417161Y-110609620D01*
X137430413Y-110629453D01*
X137466516Y-110683484D01*
X137550699Y-110739734D01*
X137650000Y-110759486D01*
X138139691Y-110759486D01*
X138141999Y-110759507D01*
X138207680Y-110760711D01*
X138280690Y-110751617D01*
X138418870Y-110713944D01*
X138446931Y-110701801D01*
X138482266Y-110686511D01*
X138482271Y-110686509D01*
X138486390Y-110684726D01*
X138608442Y-110609786D01*
X138665048Y-110562791D01*
X138668047Y-110559478D01*
X138668051Y-110559474D01*
X138758154Y-110459930D01*
X138761162Y-110456607D01*
X138802304Y-110395611D01*
X138864751Y-110266719D01*
X138880557Y-110217192D01*
X138920323Y-110158377D01*
X138985574Y-110130398D01*
X139000592Y-110129500D01*
X139210212Y-110129500D01*
X139229923Y-110131051D01*
X139240206Y-110132680D01*
X139240207Y-110132680D01*
X139250000Y-110134231D01*
X139259796Y-110132679D01*
X139265890Y-110132679D01*
X139282337Y-110133757D01*
X139322887Y-110139095D01*
X139329447Y-110139959D01*
X139361214Y-110148471D01*
X139419927Y-110172791D01*
X139448407Y-110189235D01*
X139498822Y-110227920D01*
X139522080Y-110251178D01*
X139560765Y-110301593D01*
X139577209Y-110330073D01*
X139601529Y-110388786D01*
X139610041Y-110420553D01*
X139616243Y-110467659D01*
X139617321Y-110484110D01*
X139617321Y-110490204D01*
X139615769Y-110500000D01*
X139617320Y-110509791D01*
X139617320Y-110509794D01*
X139618949Y-110520077D01*
X139620500Y-110539788D01*
X139620500Y-112094500D01*
X139600498Y-112162621D01*
X139546842Y-112209114D01*
X139494500Y-112220500D01*
X139352244Y-112220500D01*
X139348848Y-112220869D01*
X139348847Y-112220869D01*
X139298403Y-112226349D01*
X139298402Y-112226349D01*
X139290552Y-112227202D01*
X139283159Y-112229974D01*
X139283157Y-112229974D01*
X139244954Y-112244296D01*
X139155236Y-112277929D01*
X139148057Y-112283309D01*
X139148054Y-112283311D01*
X139071292Y-112340841D01*
X139039596Y-112364596D01*
X139034215Y-112371776D01*
X138958311Y-112473054D01*
X138958309Y-112473057D01*
X138952929Y-112480236D01*
X138902202Y-112615552D01*
X138895500Y-112677244D01*
X138895500Y-114122756D01*
X138902202Y-114184448D01*
X138952929Y-114319764D01*
X138958309Y-114326943D01*
X138958311Y-114326946D01*
X138996785Y-114378281D01*
X139039596Y-114435404D01*
X139046776Y-114440785D01*
X139148054Y-114516689D01*
X139148057Y-114516691D01*
X139155236Y-114522071D01*
X139238196Y-114553171D01*
X139283157Y-114570026D01*
X139283159Y-114570026D01*
X139290552Y-114572798D01*
X139298402Y-114573651D01*
X139298403Y-114573651D01*
X139299149Y-114573732D01*
X139352244Y-114579500D01*
X140647756Y-114579500D01*
X140700851Y-114573732D01*
X140701597Y-114573651D01*
X140701598Y-114573651D01*
X140709448Y-114572798D01*
X140716841Y-114570026D01*
X140716843Y-114570026D01*
X140761804Y-114553171D01*
X140844764Y-114522071D01*
X140851943Y-114516691D01*
X140851946Y-114516689D01*
X140953224Y-114440785D01*
X140960404Y-114435404D01*
X141003215Y-114378281D01*
X141041689Y-114326946D01*
X141041691Y-114326943D01*
X141047071Y-114319764D01*
X141097798Y-114184448D01*
X141104500Y-114122756D01*
X141104500Y-113527659D01*
X141395500Y-113527659D01*
X141410493Y-113684806D01*
X141469823Y-113887042D01*
X141472573Y-113892381D01*
X141551960Y-114046520D01*
X141566324Y-114074410D01*
X141578721Y-114090192D01*
X141692808Y-114235432D01*
X141692812Y-114235436D01*
X141696514Y-114240149D01*
X141701044Y-114244080D01*
X141701045Y-114244081D01*
X141851165Y-114374350D01*
X141851170Y-114374354D01*
X141855696Y-114378281D01*
X142038126Y-114483819D01*
X142237222Y-114552957D01*
X142243155Y-114553817D01*
X142243158Y-114553818D01*
X142439860Y-114582338D01*
X142439863Y-114582338D01*
X142445800Y-114583199D01*
X142656333Y-114573455D01*
X142662157Y-114572051D01*
X142662160Y-114572051D01*
X142855393Y-114525482D01*
X142855395Y-114525481D01*
X142861226Y-114524076D01*
X142866684Y-114521594D01*
X142866688Y-114521593D01*
X143044414Y-114440785D01*
X143053084Y-114436843D01*
X143224986Y-114314904D01*
X143370728Y-114162660D01*
X143427710Y-114074410D01*
X143481800Y-113990640D01*
X143481801Y-113990637D01*
X143485052Y-113985603D01*
X143563834Y-113790122D01*
X143604229Y-113583271D01*
X143604500Y-113577730D01*
X143604500Y-113527659D01*
X143895500Y-113527659D01*
X143910493Y-113684806D01*
X143969823Y-113887042D01*
X143972573Y-113892381D01*
X144051960Y-114046520D01*
X144066324Y-114074410D01*
X144078721Y-114090192D01*
X144192808Y-114235432D01*
X144192812Y-114235436D01*
X144196514Y-114240149D01*
X144201044Y-114244080D01*
X144201045Y-114244081D01*
X144351165Y-114374350D01*
X144351170Y-114374354D01*
X144355696Y-114378281D01*
X144538126Y-114483819D01*
X144737222Y-114552957D01*
X144743155Y-114553817D01*
X144743158Y-114553818D01*
X144939860Y-114582338D01*
X144939863Y-114582338D01*
X144945800Y-114583199D01*
X145156333Y-114573455D01*
X145162157Y-114572051D01*
X145162160Y-114572051D01*
X145355393Y-114525482D01*
X145355395Y-114525481D01*
X145361226Y-114524076D01*
X145366684Y-114521594D01*
X145366688Y-114521593D01*
X145544414Y-114440785D01*
X145553084Y-114436843D01*
X145724986Y-114314904D01*
X145870728Y-114162660D01*
X145896920Y-114122095D01*
X148642001Y-114122095D01*
X148642338Y-114128614D01*
X148652257Y-114224206D01*
X148655149Y-114237600D01*
X148706588Y-114391784D01*
X148712761Y-114404962D01*
X148798063Y-114542807D01*
X148807099Y-114554208D01*
X148921829Y-114668739D01*
X148933240Y-114677751D01*
X149071243Y-114762816D01*
X149084424Y-114768963D01*
X149238710Y-114820138D01*
X149252086Y-114823005D01*
X149346438Y-114832672D01*
X149352854Y-114833000D01*
X149727885Y-114833000D01*
X149743124Y-114828525D01*
X149744329Y-114827135D01*
X149746000Y-114819452D01*
X149746000Y-114814884D01*
X150254000Y-114814884D01*
X150258475Y-114830123D01*
X150259865Y-114831328D01*
X150267548Y-114832999D01*
X150647095Y-114832999D01*
X150653614Y-114832662D01*
X150749206Y-114822743D01*
X150762600Y-114819851D01*
X150916784Y-114768412D01*
X150929962Y-114762239D01*
X151067807Y-114676937D01*
X151079208Y-114667901D01*
X151193739Y-114553171D01*
X151202751Y-114541760D01*
X151287816Y-114403757D01*
X151293963Y-114390576D01*
X151345138Y-114236290D01*
X151348005Y-114222914D01*
X151354869Y-114155919D01*
X151381710Y-114090192D01*
X151439824Y-114049410D01*
X151510762Y-114046520D01*
X151572001Y-114082442D01*
X151579299Y-114090928D01*
X151696514Y-114240149D01*
X151701044Y-114244080D01*
X151701045Y-114244081D01*
X151851165Y-114374350D01*
X151851170Y-114374354D01*
X151855696Y-114378281D01*
X152038126Y-114483819D01*
X152237222Y-114552957D01*
X152243155Y-114553817D01*
X152243158Y-114553818D01*
X152439860Y-114582338D01*
X152439863Y-114582338D01*
X152445800Y-114583199D01*
X152656333Y-114573455D01*
X152662157Y-114572051D01*
X152662160Y-114572051D01*
X152855393Y-114525482D01*
X152855395Y-114525481D01*
X152861226Y-114524076D01*
X152866684Y-114521594D01*
X152866688Y-114521593D01*
X153044414Y-114440785D01*
X153053084Y-114436843D01*
X153224986Y-114314904D01*
X153370728Y-114162660D01*
X153396920Y-114122095D01*
X156142001Y-114122095D01*
X156142338Y-114128614D01*
X156152257Y-114224206D01*
X156155149Y-114237600D01*
X156206588Y-114391784D01*
X156212761Y-114404962D01*
X156298063Y-114542807D01*
X156307099Y-114554208D01*
X156421829Y-114668739D01*
X156433240Y-114677751D01*
X156571243Y-114762816D01*
X156584424Y-114768963D01*
X156738710Y-114820138D01*
X156752086Y-114823005D01*
X156846438Y-114832672D01*
X156852854Y-114833000D01*
X157227885Y-114833000D01*
X157243124Y-114828525D01*
X157244329Y-114827135D01*
X157246000Y-114819452D01*
X157246000Y-114814884D01*
X157754000Y-114814884D01*
X157758475Y-114830123D01*
X157759865Y-114831328D01*
X157767548Y-114832999D01*
X158147095Y-114832999D01*
X158153614Y-114832662D01*
X158249206Y-114822743D01*
X158262600Y-114819851D01*
X158416784Y-114768412D01*
X158429962Y-114762239D01*
X158567807Y-114676937D01*
X158579208Y-114667901D01*
X158693739Y-114553171D01*
X158702751Y-114541760D01*
X158787816Y-114403757D01*
X158793963Y-114390576D01*
X158845138Y-114236290D01*
X158848005Y-114222914D01*
X158854869Y-114155919D01*
X158881710Y-114090192D01*
X158939824Y-114049410D01*
X159010762Y-114046520D01*
X159072001Y-114082442D01*
X159079299Y-114090928D01*
X159196514Y-114240149D01*
X159201044Y-114244080D01*
X159201045Y-114244081D01*
X159351165Y-114374350D01*
X159351170Y-114374354D01*
X159355696Y-114378281D01*
X159538126Y-114483819D01*
X159737222Y-114552957D01*
X159743155Y-114553817D01*
X159743158Y-114553818D01*
X159939860Y-114582338D01*
X159939863Y-114582338D01*
X159945800Y-114583199D01*
X160156333Y-114573455D01*
X160162157Y-114572051D01*
X160162160Y-114572051D01*
X160355393Y-114525482D01*
X160355395Y-114525481D01*
X160361226Y-114524076D01*
X160366684Y-114521594D01*
X160366688Y-114521593D01*
X160544414Y-114440785D01*
X160553084Y-114436843D01*
X160724986Y-114314904D01*
X160870728Y-114162660D01*
X160927710Y-114074410D01*
X160981800Y-113990640D01*
X160981801Y-113990637D01*
X160985052Y-113985603D01*
X161063834Y-113790122D01*
X161104229Y-113583271D01*
X161104500Y-113577730D01*
X161104500Y-113527659D01*
X161395500Y-113527659D01*
X161410493Y-113684806D01*
X161469823Y-113887042D01*
X161472573Y-113892381D01*
X161551960Y-114046520D01*
X161566324Y-114074410D01*
X161578721Y-114090192D01*
X161692808Y-114235432D01*
X161692812Y-114235436D01*
X161696514Y-114240149D01*
X161701044Y-114244080D01*
X161701045Y-114244081D01*
X161851165Y-114374350D01*
X161851170Y-114374354D01*
X161855696Y-114378281D01*
X162038126Y-114483819D01*
X162237222Y-114552957D01*
X162243155Y-114553817D01*
X162243158Y-114553818D01*
X162439860Y-114582338D01*
X162439863Y-114582338D01*
X162445800Y-114583199D01*
X162656333Y-114573455D01*
X162662157Y-114572051D01*
X162662160Y-114572051D01*
X162855393Y-114525482D01*
X162855395Y-114525481D01*
X162861226Y-114524076D01*
X162866684Y-114521594D01*
X162866688Y-114521593D01*
X163044414Y-114440785D01*
X163053084Y-114436843D01*
X163224986Y-114314904D01*
X163370728Y-114162660D01*
X163427710Y-114074410D01*
X163481800Y-113990640D01*
X163481801Y-113990637D01*
X163485052Y-113985603D01*
X163563834Y-113790122D01*
X163604229Y-113583271D01*
X163604500Y-113577730D01*
X163604500Y-113272341D01*
X163589507Y-113115194D01*
X163530177Y-112912958D01*
X163479415Y-112814397D01*
X163436422Y-112730921D01*
X163436420Y-112730918D01*
X163433676Y-112725590D01*
X163364355Y-112637340D01*
X163307192Y-112564568D01*
X163307188Y-112564564D01*
X163303486Y-112559851D01*
X163298955Y-112555919D01*
X163148835Y-112425650D01*
X163148830Y-112425646D01*
X163144304Y-112421719D01*
X162961874Y-112316181D01*
X162762778Y-112247043D01*
X162756845Y-112246183D01*
X162756842Y-112246182D01*
X162560140Y-112217662D01*
X162560137Y-112217662D01*
X162554200Y-112216801D01*
X162343667Y-112226545D01*
X162337843Y-112227949D01*
X162337840Y-112227949D01*
X162144607Y-112274518D01*
X162144605Y-112274519D01*
X162138774Y-112275924D01*
X162133316Y-112278406D01*
X162133312Y-112278407D01*
X162054562Y-112314213D01*
X161946916Y-112363157D01*
X161775014Y-112485096D01*
X161629272Y-112637340D01*
X161626021Y-112642375D01*
X161568848Y-112730921D01*
X161514948Y-112814397D01*
X161436166Y-113009878D01*
X161395771Y-113216729D01*
X161395500Y-113222270D01*
X161395500Y-113527659D01*
X161104500Y-113527659D01*
X161104500Y-113272341D01*
X161089507Y-113115194D01*
X161030177Y-112912958D01*
X160979415Y-112814397D01*
X160936422Y-112730921D01*
X160936420Y-112730918D01*
X160933676Y-112725590D01*
X160864355Y-112637340D01*
X160807192Y-112564568D01*
X160807188Y-112564564D01*
X160803486Y-112559851D01*
X160798955Y-112555919D01*
X160648835Y-112425650D01*
X160648830Y-112425646D01*
X160644304Y-112421719D01*
X160461874Y-112316181D01*
X160262778Y-112247043D01*
X160256845Y-112246183D01*
X160256842Y-112246182D01*
X160060140Y-112217662D01*
X160060137Y-112217662D01*
X160054200Y-112216801D01*
X159843667Y-112226545D01*
X159837843Y-112227949D01*
X159837840Y-112227949D01*
X159644607Y-112274518D01*
X159644605Y-112274519D01*
X159638774Y-112275924D01*
X159633316Y-112278406D01*
X159633312Y-112278407D01*
X159554562Y-112314213D01*
X159446916Y-112363157D01*
X159275014Y-112485096D01*
X159129272Y-112637340D01*
X159126021Y-112642375D01*
X159086447Y-112703664D01*
X159032692Y-112750042D01*
X158962396Y-112759995D01*
X158897879Y-112730363D01*
X158859623Y-112670555D01*
X158855268Y-112648319D01*
X158847743Y-112575794D01*
X158844851Y-112562400D01*
X158793412Y-112408216D01*
X158787239Y-112395038D01*
X158701937Y-112257193D01*
X158692901Y-112245792D01*
X158578171Y-112131261D01*
X158566760Y-112122249D01*
X158428757Y-112037184D01*
X158415576Y-112031037D01*
X158261290Y-111979862D01*
X158247914Y-111976995D01*
X158153562Y-111967328D01*
X158147145Y-111967000D01*
X157772115Y-111967000D01*
X157756876Y-111971475D01*
X157755671Y-111972865D01*
X157754000Y-111980548D01*
X157754000Y-114814884D01*
X157246000Y-114814884D01*
X157246000Y-113672115D01*
X157241525Y-113656876D01*
X157240135Y-113655671D01*
X157232452Y-113654000D01*
X156160116Y-113654000D01*
X156144877Y-113658475D01*
X156143672Y-113659865D01*
X156142001Y-113667548D01*
X156142001Y-114122095D01*
X153396920Y-114122095D01*
X153427710Y-114074410D01*
X153481800Y-113990640D01*
X153481801Y-113990637D01*
X153485052Y-113985603D01*
X153563834Y-113790122D01*
X153604229Y-113583271D01*
X153604500Y-113577730D01*
X153604500Y-113272341D01*
X153590718Y-113127885D01*
X156142000Y-113127885D01*
X156146475Y-113143124D01*
X156147865Y-113144329D01*
X156155548Y-113146000D01*
X157227885Y-113146000D01*
X157243124Y-113141525D01*
X157244329Y-113140135D01*
X157246000Y-113132452D01*
X157246000Y-111985116D01*
X157241525Y-111969877D01*
X157240135Y-111968672D01*
X157232452Y-111967001D01*
X156852905Y-111967001D01*
X156846386Y-111967338D01*
X156750794Y-111977257D01*
X156737400Y-111980149D01*
X156583216Y-112031588D01*
X156570038Y-112037761D01*
X156432193Y-112123063D01*
X156420792Y-112132099D01*
X156306261Y-112246829D01*
X156297249Y-112258240D01*
X156212184Y-112396243D01*
X156206037Y-112409424D01*
X156154862Y-112563710D01*
X156151995Y-112577086D01*
X156142328Y-112671438D01*
X156142000Y-112677855D01*
X156142000Y-113127885D01*
X153590718Y-113127885D01*
X153589507Y-113115194D01*
X153530177Y-112912958D01*
X153479415Y-112814397D01*
X153436422Y-112730921D01*
X153436420Y-112730918D01*
X153433676Y-112725590D01*
X153364355Y-112637340D01*
X153307192Y-112564568D01*
X153307188Y-112564564D01*
X153303486Y-112559851D01*
X153298955Y-112555919D01*
X153148835Y-112425650D01*
X153148830Y-112425646D01*
X153144304Y-112421719D01*
X152961874Y-112316181D01*
X152762778Y-112247043D01*
X152756845Y-112246183D01*
X152756842Y-112246182D01*
X152560140Y-112217662D01*
X152560137Y-112217662D01*
X152554200Y-112216801D01*
X152343667Y-112226545D01*
X152337843Y-112227949D01*
X152337840Y-112227949D01*
X152144607Y-112274518D01*
X152144605Y-112274519D01*
X152138774Y-112275924D01*
X152133316Y-112278406D01*
X152133312Y-112278407D01*
X152054562Y-112314213D01*
X151946916Y-112363157D01*
X151775014Y-112485096D01*
X151629272Y-112637340D01*
X151626021Y-112642375D01*
X151586447Y-112703664D01*
X151532692Y-112750042D01*
X151462396Y-112759995D01*
X151397879Y-112730363D01*
X151359623Y-112670555D01*
X151355268Y-112648319D01*
X151347743Y-112575794D01*
X151344851Y-112562400D01*
X151293412Y-112408216D01*
X151287239Y-112395038D01*
X151201937Y-112257193D01*
X151192901Y-112245792D01*
X151078171Y-112131261D01*
X151066760Y-112122249D01*
X150928757Y-112037184D01*
X150915576Y-112031037D01*
X150761290Y-111979862D01*
X150747914Y-111976995D01*
X150653562Y-111967328D01*
X150647145Y-111967000D01*
X150272115Y-111967000D01*
X150256876Y-111971475D01*
X150255671Y-111972865D01*
X150254000Y-111980548D01*
X150254000Y-114814884D01*
X149746000Y-114814884D01*
X149746000Y-113672115D01*
X149741525Y-113656876D01*
X149740135Y-113655671D01*
X149732452Y-113654000D01*
X148660116Y-113654000D01*
X148644877Y-113658475D01*
X148643672Y-113659865D01*
X148642001Y-113667548D01*
X148642001Y-114122095D01*
X145896920Y-114122095D01*
X145927710Y-114074410D01*
X145981800Y-113990640D01*
X145981801Y-113990637D01*
X145985052Y-113985603D01*
X146063834Y-113790122D01*
X146104229Y-113583271D01*
X146104500Y-113577730D01*
X146104500Y-113272341D01*
X146090718Y-113127885D01*
X148642000Y-113127885D01*
X148646475Y-113143124D01*
X148647865Y-113144329D01*
X148655548Y-113146000D01*
X149727885Y-113146000D01*
X149743124Y-113141525D01*
X149744329Y-113140135D01*
X149746000Y-113132452D01*
X149746000Y-111985116D01*
X149741525Y-111969877D01*
X149740135Y-111968672D01*
X149732452Y-111967001D01*
X149352905Y-111967001D01*
X149346386Y-111967338D01*
X149250794Y-111977257D01*
X149237400Y-111980149D01*
X149083216Y-112031588D01*
X149070038Y-112037761D01*
X148932193Y-112123063D01*
X148920792Y-112132099D01*
X148806261Y-112246829D01*
X148797249Y-112258240D01*
X148712184Y-112396243D01*
X148706037Y-112409424D01*
X148654862Y-112563710D01*
X148651995Y-112577086D01*
X148642328Y-112671438D01*
X148642000Y-112677855D01*
X148642000Y-113127885D01*
X146090718Y-113127885D01*
X146089507Y-113115194D01*
X146030177Y-112912958D01*
X145979415Y-112814397D01*
X145936422Y-112730921D01*
X145936420Y-112730918D01*
X145933676Y-112725590D01*
X145864355Y-112637340D01*
X145807192Y-112564568D01*
X145807188Y-112564564D01*
X145803486Y-112559851D01*
X145798955Y-112555919D01*
X145648835Y-112425650D01*
X145648830Y-112425646D01*
X145644304Y-112421719D01*
X145461874Y-112316181D01*
X145262778Y-112247043D01*
X145256845Y-112246183D01*
X145256842Y-112246182D01*
X145060140Y-112217662D01*
X145060137Y-112217662D01*
X145054200Y-112216801D01*
X144843667Y-112226545D01*
X144837843Y-112227949D01*
X144837840Y-112227949D01*
X144644607Y-112274518D01*
X144644605Y-112274519D01*
X144638774Y-112275924D01*
X144633316Y-112278406D01*
X144633312Y-112278407D01*
X144554562Y-112314213D01*
X144446916Y-112363157D01*
X144275014Y-112485096D01*
X144129272Y-112637340D01*
X144126021Y-112642375D01*
X144068848Y-112730921D01*
X144014948Y-112814397D01*
X143936166Y-113009878D01*
X143895771Y-113216729D01*
X143895500Y-113222270D01*
X143895500Y-113527659D01*
X143604500Y-113527659D01*
X143604500Y-113272341D01*
X143589507Y-113115194D01*
X143530177Y-112912958D01*
X143479415Y-112814397D01*
X143436422Y-112730921D01*
X143436420Y-112730918D01*
X143433676Y-112725590D01*
X143364355Y-112637340D01*
X143307192Y-112564568D01*
X143307188Y-112564564D01*
X143303486Y-112559851D01*
X143298955Y-112555919D01*
X143148835Y-112425650D01*
X143148830Y-112425646D01*
X143144304Y-112421719D01*
X142961874Y-112316181D01*
X142762778Y-112247043D01*
X142756845Y-112246183D01*
X142756842Y-112246182D01*
X142560140Y-112217662D01*
X142560137Y-112217662D01*
X142554200Y-112216801D01*
X142343667Y-112226545D01*
X142337843Y-112227949D01*
X142337840Y-112227949D01*
X142144607Y-112274518D01*
X142144605Y-112274519D01*
X142138774Y-112275924D01*
X142133316Y-112278406D01*
X142133312Y-112278407D01*
X142054562Y-112314213D01*
X141946916Y-112363157D01*
X141775014Y-112485096D01*
X141629272Y-112637340D01*
X141626021Y-112642375D01*
X141568848Y-112730921D01*
X141514948Y-112814397D01*
X141436166Y-113009878D01*
X141395771Y-113216729D01*
X141395500Y-113222270D01*
X141395500Y-113527659D01*
X141104500Y-113527659D01*
X141104500Y-112677244D01*
X141097798Y-112615552D01*
X141047071Y-112480236D01*
X141041691Y-112473057D01*
X141041689Y-112473054D01*
X140965785Y-112371776D01*
X140960404Y-112364596D01*
X140928708Y-112340841D01*
X140851946Y-112283311D01*
X140851943Y-112283309D01*
X140844764Y-112277929D01*
X140755046Y-112244296D01*
X140716843Y-112229974D01*
X140716841Y-112229974D01*
X140709448Y-112227202D01*
X140701598Y-112226349D01*
X140701597Y-112226349D01*
X140651153Y-112220869D01*
X140651152Y-112220869D01*
X140647756Y-112220500D01*
X140505500Y-112220500D01*
X140437379Y-112200498D01*
X140390886Y-112146842D01*
X140379500Y-112094500D01*
X140379500Y-110539788D01*
X140381051Y-110520077D01*
X140382680Y-110509791D01*
X140384231Y-110500000D01*
X140383302Y-110494133D01*
X140382389Y-110483688D01*
X140374085Y-110388781D01*
X140366590Y-110303115D01*
X140356838Y-110266719D01*
X140316861Y-110117522D01*
X140316860Y-110117520D01*
X140315438Y-110112212D01*
X140313115Y-110107230D01*
X140234239Y-109938080D01*
X140234236Y-109938075D01*
X140231913Y-109933093D01*
X140194951Y-109880306D01*
X140121712Y-109775709D01*
X140121710Y-109775706D01*
X140118553Y-109771198D01*
X139978802Y-109631447D01*
X139816908Y-109518087D01*
X139811926Y-109515764D01*
X139811921Y-109515761D01*
X139642770Y-109436885D01*
X139642769Y-109436884D01*
X139637788Y-109434562D01*
X139632480Y-109433140D01*
X139632478Y-109433139D01*
X139544934Y-109409682D01*
X139483034Y-109393096D01*
X150640729Y-109393096D01*
X150649421Y-109471825D01*
X150655817Y-109529755D01*
X150658113Y-109550553D01*
X150660723Y-109557684D01*
X150660723Y-109557686D01*
X150709805Y-109691809D01*
X150712553Y-109699319D01*
X150716789Y-109705622D01*
X150716789Y-109705623D01*
X150793305Y-109819490D01*
X150800908Y-109830805D01*
X150806525Y-109835916D01*
X150806528Y-109835919D01*
X150906871Y-109927223D01*
X150918076Y-109937419D01*
X151057293Y-110013008D01*
X151210522Y-110053207D01*
X151294477Y-110054526D01*
X151361319Y-110055576D01*
X151361322Y-110055576D01*
X151368916Y-110055695D01*
X151523332Y-110020329D01*
X151647611Y-109957824D01*
X151658072Y-109952563D01*
X151658075Y-109952561D01*
X151664855Y-109949151D01*
X151670626Y-109944222D01*
X151670629Y-109944220D01*
X151779542Y-109851199D01*
X151779543Y-109851198D01*
X151785314Y-109846269D01*
X151795586Y-109831974D01*
X151851581Y-109788326D01*
X151897909Y-109779500D01*
X155677854Y-109779500D01*
X155688727Y-109779970D01*
X155730187Y-109783561D01*
X155740295Y-109781050D01*
X155750678Y-109780233D01*
X155750728Y-109780873D01*
X155761952Y-109779500D01*
X159400141Y-109779500D01*
X159468262Y-109799502D01*
X159495522Y-109823169D01*
X159496671Y-109824500D01*
X159500908Y-109830805D01*
X159506525Y-109835916D01*
X159590128Y-109911988D01*
X159618076Y-109937419D01*
X159757293Y-110013008D01*
X159910522Y-110053207D01*
X159994477Y-110054526D01*
X160061319Y-110055576D01*
X160061322Y-110055576D01*
X160068916Y-110055695D01*
X160223332Y-110020329D01*
X160347611Y-109957824D01*
X160358072Y-109952563D01*
X160358075Y-109952561D01*
X160364855Y-109949151D01*
X160370626Y-109944222D01*
X160370629Y-109944220D01*
X160479536Y-109851204D01*
X160479536Y-109851203D01*
X160485314Y-109846269D01*
X160577755Y-109717624D01*
X160636842Y-109570641D01*
X160644652Y-109515761D01*
X160658581Y-109417891D01*
X160658581Y-109417888D01*
X160659162Y-109413807D01*
X160659307Y-109400000D01*
X160655550Y-109368949D01*
X160649591Y-109319711D01*
X160640276Y-109242733D01*
X160584280Y-109094546D01*
X160528612Y-109013548D01*
X160498855Y-108970251D01*
X160498854Y-108970249D01*
X160494553Y-108963992D01*
X160376275Y-108858611D01*
X160368889Y-108854700D01*
X160242988Y-108788039D01*
X160242989Y-108788039D01*
X160236274Y-108784484D01*
X160082633Y-108745892D01*
X160075034Y-108745852D01*
X160075033Y-108745852D01*
X160009181Y-108745507D01*
X159924221Y-108745062D01*
X159916841Y-108746834D01*
X159916839Y-108746834D01*
X159777563Y-108780271D01*
X159777560Y-108780272D01*
X159770184Y-108782043D01*
X159629414Y-108854700D01*
X159510039Y-108958838D01*
X159505672Y-108965051D01*
X159505667Y-108965057D01*
X159504336Y-108966951D01*
X159503013Y-108968005D01*
X159500589Y-108970697D01*
X159500140Y-108970293D01*
X159448802Y-109011183D01*
X159401250Y-109020500D01*
X156205500Y-109020500D01*
X156137379Y-109000498D01*
X156090886Y-108946842D01*
X156079500Y-108894500D01*
X156079500Y-97694730D01*
X156099502Y-97626609D01*
X156123669Y-97598919D01*
X156179536Y-97551204D01*
X156185314Y-97546269D01*
X156277755Y-97417624D01*
X156336842Y-97270641D01*
X156352145Y-97163115D01*
X156358581Y-97117891D01*
X156358581Y-97117888D01*
X156359162Y-97113807D01*
X156359307Y-97100000D01*
X156340276Y-96942733D01*
X156284280Y-96794546D01*
X156194553Y-96663992D01*
X156076275Y-96558611D01*
X156068889Y-96554700D01*
X155959926Y-96497007D01*
X155936274Y-96484484D01*
X155782633Y-96445892D01*
X155775034Y-96445852D01*
X155775033Y-96445852D01*
X155709181Y-96445507D01*
X155624221Y-96445062D01*
X155616841Y-96446834D01*
X155616839Y-96446834D01*
X155477563Y-96480271D01*
X155477560Y-96480272D01*
X155470184Y-96482043D01*
X155329414Y-96554700D01*
X155210039Y-96658838D01*
X155118950Y-96788444D01*
X155061406Y-96936037D01*
X155060414Y-96943570D01*
X155060414Y-96943571D01*
X155046245Y-97051199D01*
X155040729Y-97093096D01*
X155048459Y-97163115D01*
X155055408Y-97226048D01*
X155058113Y-97250553D01*
X155060723Y-97257684D01*
X155060723Y-97257686D01*
X155107399Y-97385234D01*
X155112553Y-97399319D01*
X155116789Y-97405622D01*
X155116789Y-97405623D01*
X155178445Y-97497376D01*
X155200908Y-97530805D01*
X155206527Y-97535918D01*
X155206528Y-97535919D01*
X155279299Y-97602135D01*
X155316222Y-97662775D01*
X155320500Y-97695329D01*
X155320500Y-108894500D01*
X155300498Y-108962621D01*
X155246842Y-109009114D01*
X155194500Y-109020500D01*
X151899682Y-109020500D01*
X151831561Y-109000498D01*
X151805114Y-108974860D01*
X151803878Y-108975949D01*
X151798855Y-108970251D01*
X151794553Y-108963992D01*
X151676275Y-108858611D01*
X151668889Y-108854700D01*
X151542988Y-108788039D01*
X151542989Y-108788039D01*
X151536274Y-108784484D01*
X151382633Y-108745892D01*
X151375034Y-108745852D01*
X151375033Y-108745852D01*
X151309181Y-108745507D01*
X151224221Y-108745062D01*
X151216841Y-108746834D01*
X151216839Y-108746834D01*
X151077563Y-108780271D01*
X151077560Y-108780272D01*
X151070184Y-108782043D01*
X150929414Y-108854700D01*
X150810039Y-108958838D01*
X150718950Y-109088444D01*
X150661406Y-109236037D01*
X150660414Y-109243570D01*
X150660414Y-109243571D01*
X150641817Y-109384835D01*
X150640729Y-109393096D01*
X139483034Y-109393096D01*
X139446885Y-109383410D01*
X139323789Y-109372640D01*
X139318677Y-109371870D01*
X139316149Y-109370982D01*
X139310584Y-109370500D01*
X139304831Y-109370500D01*
X139293848Y-109370020D01*
X139262980Y-109367319D01*
X139262965Y-109367319D01*
X139255867Y-109366698D01*
X139250000Y-109365769D01*
X139229923Y-109368949D01*
X139210212Y-109370500D01*
X139000482Y-109370500D01*
X138932361Y-109350498D01*
X138885868Y-109296842D01*
X138879546Y-109279862D01*
X138872312Y-109255123D01*
X138872311Y-109255119D01*
X138871054Y-109250822D01*
X138811774Y-109120443D01*
X138772136Y-109058462D01*
X138678646Y-108949961D01*
X138623204Y-108901596D01*
X138612257Y-108894500D01*
X138506782Y-108826135D01*
X138506781Y-108826135D01*
X138503019Y-108823696D01*
X138436231Y-108792836D01*
X138350378Y-108767161D01*
X138303311Y-108753085D01*
X138303306Y-108753084D01*
X138299013Y-108751800D01*
X138294581Y-108751138D01*
X138294578Y-108751137D01*
X138230681Y-108741588D01*
X138230678Y-108741588D01*
X138226250Y-108740926D01*
X138156345Y-108740499D01*
X138087509Y-108740078D01*
X138087504Y-108740078D01*
X138083029Y-108740051D01*
X138080560Y-108740389D01*
X138076718Y-108740514D01*
X137650000Y-108740514D01*
X137550699Y-108760266D01*
X137466516Y-108816516D01*
X137410266Y-108900699D01*
X137407845Y-108912870D01*
X137406786Y-108918195D01*
X137376536Y-108976022D01*
X137377104Y-108976514D01*
X137375020Y-108978919D01*
X137373877Y-108981104D01*
X137372299Y-108982060D01*
X137356753Y-109000000D01*
X137350000Y-109000000D01*
X137350000Y-110500000D01*
X134332662Y-110500000D01*
X134336995Y-110496756D01*
X134496756Y-110336995D01*
X134632154Y-110156124D01*
X134653700Y-110116665D01*
X134738279Y-109961771D01*
X134738280Y-109961768D01*
X134740434Y-109957824D01*
X134757530Y-109911988D01*
X134817822Y-109750341D01*
X134817824Y-109750335D01*
X134819391Y-109746133D01*
X134828204Y-109705623D01*
X134866461Y-109529755D01*
X134867417Y-109525361D01*
X134882577Y-109313393D01*
X134882680Y-109312497D01*
X134882680Y-109311955D01*
X134882962Y-109308012D01*
X134884231Y-109300000D01*
X134882680Y-109290208D01*
X134882680Y-109280288D01*
X134883054Y-109280288D01*
X134882532Y-109265340D01*
X134895562Y-109116415D01*
X134899375Y-109094786D01*
X134944222Y-108927414D01*
X134951734Y-108906775D01*
X134952775Y-108904544D01*
X135024962Y-108749737D01*
X135035944Y-108730717D01*
X135135324Y-108588787D01*
X135149442Y-108571962D01*
X135271962Y-108449442D01*
X135288787Y-108435324D01*
X135307782Y-108422024D01*
X135430717Y-108335944D01*
X135449737Y-108324962D01*
X135465120Y-108317789D01*
X135606778Y-108251733D01*
X135627414Y-108244222D01*
X135677487Y-108230805D01*
X135711097Y-108221799D01*
X135794780Y-108199376D01*
X135816409Y-108195563D01*
X135965348Y-108182532D01*
X135980289Y-108183054D01*
X135980289Y-108182679D01*
X135990205Y-108182679D01*
X136000000Y-108184231D01*
X136009793Y-108182680D01*
X136009794Y-108182680D01*
X136020077Y-108181051D01*
X136039788Y-108179500D01*
X139800141Y-108179500D01*
X139868262Y-108199502D01*
X139895522Y-108223169D01*
X139896672Y-108224501D01*
X139900908Y-108230805D01*
X140018076Y-108337419D01*
X140157293Y-108413008D01*
X140310522Y-108453207D01*
X140394477Y-108454526D01*
X140461319Y-108455576D01*
X140461322Y-108455576D01*
X140468916Y-108455695D01*
X140623332Y-108420329D01*
X140739431Y-108361938D01*
X140758072Y-108352563D01*
X140758075Y-108352561D01*
X140764855Y-108349151D01*
X140770626Y-108344222D01*
X140770629Y-108344220D01*
X140879536Y-108251204D01*
X140879536Y-108251203D01*
X140885314Y-108246269D01*
X140977755Y-108117624D01*
X141036842Y-107970641D01*
X141059162Y-107813807D01*
X141059307Y-107800000D01*
X141040276Y-107642733D01*
X140984280Y-107494546D01*
X140930138Y-107415769D01*
X140898855Y-107370251D01*
X140898854Y-107370249D01*
X140894553Y-107363992D01*
X140776275Y-107258611D01*
X140768889Y-107254700D01*
X140642988Y-107188039D01*
X140642989Y-107188039D01*
X140636274Y-107184484D01*
X140482633Y-107145892D01*
X140475034Y-107145852D01*
X140475033Y-107145852D01*
X140409181Y-107145507D01*
X140324221Y-107145062D01*
X140316841Y-107146834D01*
X140316839Y-107146834D01*
X140177563Y-107180271D01*
X140177560Y-107180272D01*
X140170184Y-107182043D01*
X140029414Y-107254700D01*
X139910039Y-107358838D01*
X139905672Y-107365051D01*
X139905667Y-107365057D01*
X139904336Y-107366951D01*
X139903013Y-107368005D01*
X139900589Y-107370697D01*
X139900140Y-107370293D01*
X139848802Y-107411183D01*
X139801250Y-107420500D01*
X136039788Y-107420500D01*
X136020077Y-107418949D01*
X136009794Y-107417320D01*
X136009793Y-107417320D01*
X136000000Y-107415769D01*
X135992482Y-107416960D01*
X135986974Y-107417321D01*
X135986867Y-107417321D01*
X135986714Y-107417338D01*
X135758264Y-107432311D01*
X135758260Y-107432312D01*
X135754149Y-107432581D01*
X135750109Y-107433385D01*
X135750106Y-107433385D01*
X135516556Y-107479841D01*
X135516550Y-107479843D01*
X135512506Y-107480647D01*
X135508600Y-107481973D01*
X135508596Y-107481974D01*
X135350402Y-107535674D01*
X135279203Y-107559843D01*
X135275510Y-107561664D01*
X135275508Y-107561665D01*
X135061938Y-107666986D01*
X135061933Y-107666989D01*
X135058234Y-107668813D01*
X134853378Y-107805693D01*
X134668141Y-107968141D01*
X134505693Y-108153378D01*
X134368813Y-108358234D01*
X134366989Y-108361933D01*
X134366986Y-108361938D01*
X134289829Y-108518397D01*
X134259843Y-108579203D01*
X134258520Y-108583101D01*
X134258519Y-108583103D01*
X134187761Y-108791550D01*
X134180647Y-108812506D01*
X134179843Y-108816550D01*
X134179841Y-108816556D01*
X134140657Y-109013548D01*
X134132581Y-109054149D01*
X134132312Y-109058260D01*
X134132311Y-109058264D01*
X134128236Y-109120443D01*
X134117537Y-109283685D01*
X134117338Y-109286718D01*
X134117320Y-109286879D01*
X134117320Y-109286986D01*
X134116960Y-109292479D01*
X134115769Y-109300000D01*
X134117320Y-109309793D01*
X134117320Y-109319711D01*
X134116665Y-109319711D01*
X134117101Y-109334510D01*
X134110099Y-109405607D01*
X134105951Y-109447717D01*
X134101133Y-109471942D01*
X134061645Y-109602118D01*
X134052192Y-109624939D01*
X133988071Y-109744900D01*
X133974348Y-109765438D01*
X133888053Y-109870588D01*
X133870588Y-109888053D01*
X133765438Y-109974348D01*
X133744900Y-109988071D01*
X133705025Y-110009385D01*
X133624937Y-110052193D01*
X133602119Y-110061645D01*
X133576143Y-110069524D01*
X133471942Y-110101133D01*
X133447718Y-110105951D01*
X133334510Y-110117101D01*
X133319711Y-110116665D01*
X133319711Y-110117320D01*
X133309793Y-110117320D01*
X133300000Y-110115769D01*
X133279923Y-110118949D01*
X133260212Y-110120500D01*
X126821650Y-110120500D01*
X126753529Y-110100498D01*
X126707036Y-110046842D01*
X126696932Y-109976568D01*
X126726426Y-109911988D01*
X126768400Y-109880305D01*
X126906416Y-109815947D01*
X126915912Y-109810464D01*
X126957148Y-109781590D01*
X126965523Y-109771113D01*
X126958455Y-109757667D01*
X126009884Y-108809095D01*
X125975859Y-108746783D01*
X125977694Y-108721132D01*
X126644408Y-108721132D01*
X126644539Y-108722966D01*
X126648790Y-108729580D01*
X127318391Y-109399180D01*
X127330161Y-109405607D01*
X127342176Y-109396311D01*
X127370466Y-109355907D01*
X127375946Y-109346417D01*
X127464326Y-109156887D01*
X127468072Y-109146595D01*
X127522196Y-108944599D01*
X127524099Y-108933804D01*
X127542326Y-108725475D01*
X127542326Y-108714525D01*
X127524099Y-108506196D01*
X127522196Y-108495401D01*
X127468072Y-108293405D01*
X127464326Y-108283113D01*
X127375946Y-108093583D01*
X127370466Y-108084093D01*
X127341589Y-108042851D01*
X127331113Y-108034477D01*
X127317666Y-108041545D01*
X126652021Y-108707189D01*
X126644408Y-108721132D01*
X125977694Y-108721132D01*
X125980924Y-108675967D01*
X126009885Y-108630905D01*
X126280000Y-108360790D01*
X126959176Y-107681613D01*
X126965606Y-107669838D01*
X126956310Y-107657824D01*
X126915912Y-107629536D01*
X126906416Y-107624053D01*
X126716887Y-107535674D01*
X126706595Y-107531928D01*
X126504599Y-107477804D01*
X126493804Y-107475901D01*
X126285475Y-107457674D01*
X126274525Y-107457674D01*
X126066196Y-107475901D01*
X126055401Y-107477804D01*
X125853405Y-107531928D01*
X125843113Y-107535674D01*
X125683750Y-107609987D01*
X125613559Y-107620648D01*
X125548746Y-107591668D01*
X125509889Y-107532249D01*
X125504500Y-107495792D01*
X125504500Y-105493096D01*
X130640729Y-105493096D01*
X130658113Y-105650553D01*
X130712553Y-105799319D01*
X130800908Y-105930805D01*
X130806527Y-105935918D01*
X130806528Y-105935919D01*
X130896615Y-106017891D01*
X130918076Y-106037419D01*
X131057293Y-106113008D01*
X131210522Y-106153207D01*
X131294477Y-106154526D01*
X131361319Y-106155576D01*
X131361322Y-106155576D01*
X131368916Y-106155695D01*
X131523332Y-106120329D01*
X131593742Y-106084917D01*
X131658072Y-106052563D01*
X131658075Y-106052561D01*
X131664855Y-106049151D01*
X131670626Y-106044222D01*
X131670629Y-106044220D01*
X131779536Y-105951204D01*
X131779536Y-105951203D01*
X131785314Y-105946269D01*
X131877755Y-105817624D01*
X131936842Y-105670641D01*
X131952739Y-105558941D01*
X131958581Y-105517891D01*
X131958581Y-105517888D01*
X131959162Y-105513807D01*
X131959307Y-105500000D01*
X131940276Y-105342733D01*
X131884280Y-105194546D01*
X131794553Y-105063992D01*
X131721681Y-104999065D01*
X131684126Y-104938816D01*
X131679500Y-104904989D01*
X131679500Y-104294730D01*
X131699502Y-104226609D01*
X131723669Y-104198919D01*
X131779536Y-104151204D01*
X131785314Y-104146269D01*
X131877755Y-104017624D01*
X131936842Y-103870641D01*
X131959162Y-103713807D01*
X131959307Y-103700000D01*
X131940276Y-103542733D01*
X131884280Y-103394546D01*
X131794553Y-103263992D01*
X131676275Y-103158611D01*
X131668889Y-103154700D01*
X131542988Y-103088039D01*
X131542989Y-103088039D01*
X131536274Y-103084484D01*
X131382633Y-103045892D01*
X131375034Y-103045852D01*
X131375033Y-103045852D01*
X131309181Y-103045507D01*
X131224221Y-103045062D01*
X131216841Y-103046834D01*
X131216839Y-103046834D01*
X131077563Y-103080271D01*
X131077560Y-103080272D01*
X131070184Y-103082043D01*
X130929414Y-103154700D01*
X130810039Y-103258838D01*
X130718950Y-103388444D01*
X130661406Y-103536037D01*
X130640729Y-103693096D01*
X130658113Y-103850553D01*
X130712553Y-103999319D01*
X130800908Y-104130805D01*
X130806527Y-104135918D01*
X130806528Y-104135919D01*
X130879299Y-104202135D01*
X130916222Y-104262775D01*
X130920500Y-104295329D01*
X130920500Y-104905187D01*
X130900498Y-104973308D01*
X130877330Y-105000135D01*
X130810039Y-105058838D01*
X130718950Y-105188444D01*
X130661406Y-105336037D01*
X130660414Y-105343570D01*
X130660414Y-105343571D01*
X130644891Y-105461484D01*
X130640729Y-105493096D01*
X125504500Y-105493096D01*
X125504500Y-101304208D01*
X125524502Y-101236087D01*
X125578158Y-101189594D01*
X125648432Y-101179490D01*
X125683750Y-101190013D01*
X125843113Y-101264326D01*
X125853405Y-101268072D01*
X126055401Y-101322196D01*
X126066196Y-101324099D01*
X126274525Y-101342326D01*
X126285475Y-101342326D01*
X126493804Y-101324099D01*
X126504599Y-101322196D01*
X126706595Y-101268072D01*
X126716887Y-101264326D01*
X126906416Y-101175947D01*
X126915912Y-101170464D01*
X126957148Y-101141590D01*
X126965523Y-101131113D01*
X126958455Y-101117667D01*
X126009884Y-100169095D01*
X125975859Y-100106783D01*
X125977694Y-100081132D01*
X126644408Y-100081132D01*
X126644539Y-100082966D01*
X126648790Y-100089580D01*
X127318391Y-100759180D01*
X127330161Y-100765607D01*
X127342176Y-100756311D01*
X127370466Y-100715907D01*
X127375946Y-100706417D01*
X127464326Y-100516887D01*
X127468072Y-100506595D01*
X127522196Y-100304599D01*
X127524099Y-100293804D01*
X127542326Y-100085475D01*
X127542326Y-100074525D01*
X127524099Y-99866196D01*
X127522196Y-99855401D01*
X127468072Y-99653405D01*
X127464326Y-99643113D01*
X127441047Y-99593191D01*
X127430386Y-99522999D01*
X127451321Y-99476179D01*
X127417688Y-99473564D01*
X127359237Y-99428054D01*
X127341590Y-99402852D01*
X127331113Y-99394477D01*
X127317666Y-99401545D01*
X126652021Y-100067189D01*
X126644408Y-100081132D01*
X125977694Y-100081132D01*
X125980924Y-100035967D01*
X126009885Y-99990905D01*
X126280000Y-99720790D01*
X126907693Y-99093096D01*
X127540729Y-99093096D01*
X127558113Y-99250553D01*
X127560723Y-99257684D01*
X127560723Y-99257686D01*
X127580776Y-99312482D01*
X127585402Y-99383327D01*
X127565659Y-99418958D01*
X127589780Y-99418767D01*
X127649809Y-99456676D01*
X127659824Y-99469666D01*
X127696669Y-99524497D01*
X127700908Y-99530805D01*
X127706527Y-99535918D01*
X127706528Y-99535919D01*
X127717903Y-99546269D01*
X127818076Y-99637419D01*
X127957293Y-99713008D01*
X128110522Y-99753207D01*
X128194477Y-99754526D01*
X128261319Y-99755576D01*
X128261322Y-99755576D01*
X128268916Y-99755695D01*
X128423332Y-99720329D01*
X128507914Y-99677789D01*
X128558072Y-99652563D01*
X128558075Y-99652561D01*
X128564855Y-99649151D01*
X128570626Y-99644222D01*
X128570629Y-99644220D01*
X128679542Y-99551199D01*
X128679543Y-99551198D01*
X128685314Y-99546269D01*
X128695586Y-99531974D01*
X128751581Y-99488326D01*
X128797909Y-99479500D01*
X137160211Y-99479500D01*
X137179921Y-99481051D01*
X137199999Y-99484231D01*
X137208560Y-99482875D01*
X137210789Y-99482680D01*
X137211407Y-99482680D01*
X137212934Y-99482492D01*
X137388169Y-99467162D01*
X137534122Y-99428054D01*
X137565311Y-99419697D01*
X137565313Y-99419696D01*
X137570621Y-99418274D01*
X137575603Y-99415951D01*
X137736825Y-99340772D01*
X137736830Y-99340769D01*
X137741812Y-99338446D01*
X137867336Y-99250553D01*
X137892029Y-99233263D01*
X137892032Y-99233261D01*
X137896540Y-99230104D01*
X138030104Y-99096540D01*
X138052872Y-99064025D01*
X138105029Y-98989536D01*
X138138446Y-98941812D01*
X138140769Y-98936830D01*
X138140772Y-98936825D01*
X138215951Y-98775603D01*
X138215952Y-98775601D01*
X138218274Y-98770621D01*
X138227171Y-98737419D01*
X138241065Y-98685565D01*
X138267162Y-98588169D01*
X138277038Y-98475277D01*
X138277961Y-98469158D01*
X138279018Y-98466149D01*
X138279500Y-98460584D01*
X138279500Y-98452644D01*
X138279979Y-98441665D01*
X138282491Y-98412947D01*
X138282680Y-98411408D01*
X138282680Y-98410789D01*
X138282875Y-98408560D01*
X138284231Y-98399999D01*
X138281051Y-98379921D01*
X138279500Y-98360211D01*
X138279500Y-95939789D01*
X138281051Y-95920078D01*
X138282680Y-95909793D01*
X138284231Y-95900001D01*
X138282875Y-95891440D01*
X138282680Y-95889211D01*
X138282680Y-95888593D01*
X138282491Y-95887055D01*
X138281011Y-95870131D01*
X138267162Y-95711831D01*
X138218274Y-95529379D01*
X138209089Y-95509682D01*
X138140772Y-95363175D01*
X138140769Y-95363170D01*
X138138446Y-95358188D01*
X138030104Y-95203460D01*
X137896540Y-95069896D01*
X137892032Y-95066739D01*
X137892029Y-95066737D01*
X137828210Y-95022050D01*
X137741812Y-94961554D01*
X137736830Y-94959231D01*
X137736825Y-94959228D01*
X137575603Y-94884049D01*
X137575601Y-94884048D01*
X137570621Y-94881726D01*
X137565313Y-94880304D01*
X137565311Y-94880303D01*
X137509069Y-94865233D01*
X137388169Y-94832838D01*
X137386764Y-94832715D01*
X137324285Y-94801749D01*
X137305937Y-94780556D01*
X137298856Y-94770252D01*
X137298853Y-94770249D01*
X137294553Y-94763992D01*
X137176275Y-94658611D01*
X137168889Y-94654700D01*
X137097410Y-94616854D01*
X137046567Y-94567301D01*
X137030585Y-94498127D01*
X137054539Y-94431293D01*
X137110823Y-94388020D01*
X137156369Y-94379500D01*
X138160211Y-94379500D01*
X138179921Y-94381051D01*
X138199999Y-94384231D01*
X138209792Y-94382680D01*
X138219710Y-94382680D01*
X138219710Y-94383335D01*
X138234509Y-94382899D01*
X138248034Y-94384231D01*
X138328212Y-94392128D01*
X138352432Y-94396945D01*
X138463856Y-94430745D01*
X138486664Y-94440193D01*
X138589348Y-94495080D01*
X138609880Y-94508799D01*
X138699129Y-94582043D01*
X138699877Y-94582657D01*
X138717342Y-94600122D01*
X138781169Y-94677895D01*
X138791199Y-94690117D01*
X138804920Y-94710652D01*
X138859806Y-94813334D01*
X138869255Y-94836144D01*
X138903055Y-94947568D01*
X138907872Y-94971788D01*
X138917101Y-95065490D01*
X138916665Y-95080290D01*
X138917320Y-95080290D01*
X138917320Y-95090208D01*
X138915769Y-95100001D01*
X138917320Y-95109791D01*
X138917320Y-95109793D01*
X138918949Y-95120078D01*
X138920500Y-95139789D01*
X138920500Y-99760212D01*
X138918949Y-99779922D01*
X138915769Y-99800000D01*
X138917038Y-99808012D01*
X138917320Y-99811955D01*
X138917320Y-99812497D01*
X138917423Y-99813393D01*
X138932583Y-100025361D01*
X138944715Y-100081132D01*
X138963210Y-100166149D01*
X138980609Y-100246133D01*
X138982176Y-100250335D01*
X138982178Y-100250341D01*
X139047146Y-100424526D01*
X139059566Y-100457824D01*
X139061720Y-100461768D01*
X139061721Y-100461771D01*
X139146099Y-100616297D01*
X139167846Y-100656124D01*
X139303244Y-100836995D01*
X139463005Y-100996756D01*
X139643876Y-101132154D01*
X139647830Y-101134313D01*
X139796451Y-101215466D01*
X139842176Y-101240434D01*
X139846388Y-101242005D01*
X140049659Y-101317822D01*
X140049665Y-101317824D01*
X140053867Y-101319391D01*
X140058253Y-101320345D01*
X140058256Y-101320346D01*
X140075509Y-101324099D01*
X140274639Y-101367417D01*
X140279123Y-101367738D01*
X140279125Y-101367738D01*
X140430577Y-101378570D01*
X140433849Y-101379037D01*
X140433851Y-101379018D01*
X140436712Y-101379266D01*
X140436717Y-101379266D01*
X140439416Y-101379500D01*
X140442123Y-101379500D01*
X140444019Y-101379582D01*
X140447558Y-101379785D01*
X140475340Y-101381771D01*
X140486602Y-101382577D01*
X140487501Y-101382680D01*
X140488045Y-101382680D01*
X140491988Y-101382962D01*
X140500000Y-101384231D01*
X140520078Y-101381051D01*
X140539788Y-101379500D01*
X148723982Y-101379500D01*
X148792103Y-101399502D01*
X148838596Y-101453158D01*
X148848700Y-101523432D01*
X148819206Y-101588012D01*
X148813077Y-101594595D01*
X148779013Y-101628659D01*
X148652187Y-101798079D01*
X148650028Y-101802033D01*
X148600833Y-101892128D01*
X148550763Y-101983824D01*
X148476805Y-102182112D01*
X148475848Y-102186513D01*
X148475847Y-102186515D01*
X148445879Y-102324277D01*
X148431819Y-102388907D01*
X148431498Y-102393395D01*
X148421813Y-102528797D01*
X148421168Y-102533322D01*
X148420982Y-102533851D01*
X148420500Y-102539416D01*
X148420500Y-102542663D01*
X148420179Y-102551651D01*
X148417891Y-102583645D01*
X148417320Y-102588622D01*
X148417320Y-102590207D01*
X148415769Y-102599999D01*
X148417320Y-102609791D01*
X148418949Y-102620076D01*
X148420500Y-102639787D01*
X148420500Y-105405187D01*
X148400498Y-105473308D01*
X148377330Y-105500135D01*
X148310039Y-105558838D01*
X148218950Y-105688444D01*
X148216190Y-105695524D01*
X148166178Y-105823798D01*
X148161406Y-105836037D01*
X148160414Y-105843570D01*
X148160414Y-105843571D01*
X148143114Y-105974983D01*
X148140729Y-105993096D01*
X148158113Y-106150553D01*
X148160723Y-106157684D01*
X148160723Y-106157686D01*
X148197790Y-106258976D01*
X148212553Y-106299319D01*
X148300908Y-106430805D01*
X148306527Y-106435918D01*
X148306528Y-106435919D01*
X148317903Y-106446269D01*
X148418076Y-106537419D01*
X148557293Y-106613008D01*
X148710522Y-106653207D01*
X148794477Y-106654526D01*
X148861319Y-106655576D01*
X148861322Y-106655576D01*
X148868916Y-106655695D01*
X149023332Y-106620329D01*
X149093742Y-106584917D01*
X149158072Y-106552563D01*
X149158075Y-106552561D01*
X149164855Y-106549151D01*
X149170626Y-106544222D01*
X149170629Y-106544220D01*
X149279536Y-106451204D01*
X149279536Y-106451203D01*
X149285314Y-106446269D01*
X149377755Y-106317624D01*
X149436842Y-106170641D01*
X149452505Y-106060584D01*
X149458581Y-106017891D01*
X149458581Y-106017888D01*
X149459162Y-106013807D01*
X149459307Y-106000000D01*
X149440276Y-105842733D01*
X149384280Y-105694546D01*
X149294553Y-105563992D01*
X149221681Y-105499065D01*
X149184126Y-105438816D01*
X149179500Y-105404989D01*
X149179500Y-102639789D01*
X149181051Y-102620078D01*
X149182680Y-102609793D01*
X149182680Y-102609791D01*
X149184231Y-102600001D01*
X149182680Y-102590208D01*
X149182680Y-102580290D01*
X149183335Y-102580290D01*
X149182899Y-102565490D01*
X149192128Y-102471788D01*
X149196945Y-102447568D01*
X149230745Y-102336144D01*
X149240194Y-102313334D01*
X149295078Y-102210654D01*
X149308801Y-102190117D01*
X149318832Y-102177895D01*
X149382658Y-102100122D01*
X149400123Y-102082657D01*
X149490117Y-102008801D01*
X149510652Y-101995080D01*
X149613336Y-101940193D01*
X149636144Y-101930745D01*
X149747568Y-101896945D01*
X149771788Y-101892128D01*
X149855388Y-101883894D01*
X149865491Y-101882899D01*
X149880290Y-101883335D01*
X149880290Y-101882680D01*
X149890208Y-101882680D01*
X149900001Y-101884231D01*
X149920079Y-101881051D01*
X149939789Y-101879500D01*
X153060213Y-101879500D01*
X153079924Y-101881051D01*
X153090213Y-101882681D01*
X153090215Y-101882681D01*
X153100001Y-101884231D01*
X153102131Y-101883894D01*
X153112633Y-101883143D01*
X153270759Y-101871833D01*
X153353897Y-101865887D01*
X153358293Y-101864931D01*
X153358298Y-101864930D01*
X153598226Y-101812736D01*
X153598229Y-101812735D01*
X153602624Y-101811779D01*
X153841119Y-101722825D01*
X154064528Y-101600834D01*
X154242921Y-101467290D01*
X154264697Y-101450989D01*
X154264698Y-101450988D01*
X154268301Y-101448291D01*
X154448291Y-101268301D01*
X154600834Y-101064528D01*
X154722825Y-100841119D01*
X154811779Y-100602624D01*
X154823697Y-100547840D01*
X154864930Y-100358298D01*
X154864931Y-100358293D01*
X154865887Y-100353897D01*
X154883894Y-100102131D01*
X154884231Y-100100001D01*
X154882581Y-100089580D01*
X154881051Y-100079924D01*
X154879500Y-100060213D01*
X154879500Y-98039787D01*
X154881051Y-98020076D01*
X154882681Y-98009787D01*
X154882681Y-98009785D01*
X154884231Y-97999999D01*
X154883894Y-97997869D01*
X154876057Y-97888288D01*
X154866208Y-97750592D01*
X154865887Y-97746103D01*
X154860611Y-97721846D01*
X154812736Y-97501774D01*
X154812735Y-97501771D01*
X154811779Y-97497376D01*
X154722825Y-97258881D01*
X154600834Y-97035472D01*
X154456551Y-96842733D01*
X154450989Y-96835303D01*
X154450988Y-96835302D01*
X154448291Y-96831699D01*
X154268301Y-96651709D01*
X154064528Y-96499166D01*
X153841119Y-96377175D01*
X153602624Y-96288221D01*
X153598229Y-96287265D01*
X153598226Y-96287264D01*
X153358298Y-96235070D01*
X153358293Y-96235069D01*
X153353897Y-96234113D01*
X153102131Y-96216106D01*
X153100001Y-96215769D01*
X153090215Y-96217319D01*
X153090213Y-96217319D01*
X153079924Y-96218949D01*
X153060213Y-96220500D01*
X152299682Y-96220500D01*
X152231561Y-96200498D01*
X152205114Y-96174860D01*
X152203878Y-96175949D01*
X152198855Y-96170251D01*
X152194553Y-96163992D01*
X152174143Y-96145807D01*
X152081946Y-96063664D01*
X152076275Y-96058611D01*
X152068889Y-96054700D01*
X151976599Y-96005835D01*
X151936274Y-95984484D01*
X151782633Y-95945892D01*
X151775034Y-95945852D01*
X151775033Y-95945852D01*
X151709181Y-95945507D01*
X151624221Y-95945062D01*
X151616841Y-95946834D01*
X151616839Y-95946834D01*
X151477563Y-95980271D01*
X151477560Y-95980272D01*
X151470184Y-95982043D01*
X151329414Y-96054700D01*
X151210039Y-96158838D01*
X151118950Y-96288444D01*
X151109542Y-96312575D01*
X151064693Y-96427607D01*
X151061406Y-96436037D01*
X151060414Y-96443570D01*
X151060414Y-96443571D01*
X151043678Y-96570697D01*
X151040729Y-96593096D01*
X151045478Y-96636107D01*
X151051930Y-96694546D01*
X151058113Y-96750553D01*
X151060723Y-96757684D01*
X151060723Y-96757686D01*
X151091846Y-96842733D01*
X151112553Y-96899319D01*
X151116789Y-96905622D01*
X151116789Y-96905623D01*
X151169612Y-96984231D01*
X151200908Y-97030805D01*
X151206527Y-97035918D01*
X151206528Y-97035919D01*
X151294839Y-97116275D01*
X151318076Y-97137419D01*
X151457293Y-97213008D01*
X151610522Y-97253207D01*
X151694477Y-97254526D01*
X151761319Y-97255576D01*
X151761322Y-97255576D01*
X151768916Y-97255695D01*
X151923332Y-97220329D01*
X152008101Y-97177695D01*
X152058072Y-97152563D01*
X152058075Y-97152561D01*
X152064855Y-97149151D01*
X152070626Y-97144222D01*
X152070629Y-97144220D01*
X152179542Y-97051199D01*
X152179543Y-97051198D01*
X152185314Y-97046269D01*
X152195586Y-97031974D01*
X152251581Y-96988326D01*
X152297909Y-96979500D01*
X153060211Y-96979500D01*
X153079922Y-96981051D01*
X153090205Y-96982680D01*
X153090206Y-96982680D01*
X153099999Y-96984231D01*
X153109794Y-96982679D01*
X153119710Y-96982679D01*
X153119710Y-96983053D01*
X153134655Y-96982532D01*
X153266221Y-96994043D01*
X153287850Y-96997856D01*
X153438383Y-97038191D01*
X153459022Y-97045703D01*
X153600262Y-97111565D01*
X153619282Y-97122547D01*
X153746935Y-97211930D01*
X153763760Y-97226048D01*
X153873952Y-97336240D01*
X153888070Y-97353065D01*
X153977453Y-97480718D01*
X153988435Y-97499738D01*
X154054297Y-97640978D01*
X154061809Y-97661617D01*
X154102144Y-97812150D01*
X154105957Y-97833778D01*
X154115148Y-97938816D01*
X154117065Y-97960731D01*
X154103077Y-98030336D01*
X154053678Y-98081329D01*
X153984552Y-98097520D01*
X153946388Y-98089344D01*
X153942987Y-98088038D01*
X153936274Y-98084484D01*
X153923714Y-98081329D01*
X153790002Y-98047743D01*
X153782633Y-98045892D01*
X153775034Y-98045852D01*
X153775033Y-98045852D01*
X153709181Y-98045507D01*
X153624221Y-98045062D01*
X153616841Y-98046834D01*
X153616839Y-98046834D01*
X153477563Y-98080271D01*
X153477560Y-98080272D01*
X153470184Y-98082043D01*
X153329414Y-98154700D01*
X153210039Y-98258838D01*
X153118950Y-98388444D01*
X153116190Y-98395524D01*
X153066178Y-98523798D01*
X153061406Y-98536037D01*
X153060414Y-98543570D01*
X153060414Y-98543571D01*
X153042757Y-98677695D01*
X153040729Y-98693096D01*
X153048702Y-98765311D01*
X153053153Y-98805623D01*
X153058113Y-98850553D01*
X153060723Y-98857684D01*
X153060723Y-98857686D01*
X153108366Y-98987876D01*
X153112553Y-98999319D01*
X153116789Y-99005622D01*
X153116789Y-99005623D01*
X153188237Y-99111948D01*
X153200908Y-99130805D01*
X153206527Y-99135918D01*
X153206528Y-99135919D01*
X153279299Y-99202135D01*
X153316222Y-99262775D01*
X153320500Y-99295329D01*
X153320500Y-100060212D01*
X153318949Y-100079922D01*
X153315769Y-100100000D01*
X153317320Y-100109794D01*
X153317320Y-100119708D01*
X153316297Y-100119708D01*
X153316622Y-100134411D01*
X153309039Y-100201715D01*
X153302760Y-100229223D01*
X153273642Y-100312437D01*
X153261400Y-100337858D01*
X153214495Y-100412507D01*
X153196903Y-100434566D01*
X153134566Y-100496903D01*
X153112507Y-100514495D01*
X153037858Y-100561400D01*
X153012437Y-100573642D01*
X152929223Y-100602760D01*
X152901715Y-100609039D01*
X152834411Y-100616622D01*
X152819708Y-100616297D01*
X152819708Y-100617320D01*
X152809794Y-100617320D01*
X152800000Y-100615769D01*
X152779923Y-100618949D01*
X152760212Y-100620500D01*
X140539788Y-100620500D01*
X140520077Y-100618949D01*
X140500000Y-100615769D01*
X140490207Y-100617320D01*
X140480289Y-100617320D01*
X140480289Y-100616665D01*
X140465490Y-100617101D01*
X140352282Y-100605951D01*
X140328058Y-100601133D01*
X140197882Y-100561645D01*
X140175063Y-100552193D01*
X140055100Y-100488071D01*
X140034562Y-100474348D01*
X139929412Y-100388053D01*
X139911947Y-100370588D01*
X139825652Y-100265438D01*
X139811929Y-100244900D01*
X139766861Y-100160584D01*
X139747807Y-100124937D01*
X139738355Y-100102118D01*
X139698867Y-99971942D01*
X139694049Y-99947717D01*
X139682899Y-99834510D01*
X139683335Y-99819711D01*
X139682680Y-99819711D01*
X139682680Y-99809793D01*
X139684231Y-99800000D01*
X139681051Y-99779922D01*
X139679500Y-99760212D01*
X139679500Y-95139787D01*
X139681051Y-95120076D01*
X139682680Y-95109791D01*
X139684231Y-95099999D01*
X139682680Y-95090207D01*
X139682680Y-95088622D01*
X139682109Y-95083646D01*
X139681405Y-95073793D01*
X139668181Y-94888907D01*
X139667125Y-94884049D01*
X139624153Y-94686515D01*
X139624152Y-94686513D01*
X139623195Y-94682112D01*
X139549237Y-94483824D01*
X139499168Y-94392128D01*
X139449972Y-94302033D01*
X139447813Y-94298079D01*
X139320987Y-94128659D01*
X139186923Y-93994595D01*
X139152897Y-93932283D01*
X139157962Y-93861468D01*
X139200509Y-93804632D01*
X139267029Y-93779821D01*
X139276018Y-93779500D01*
X140860212Y-93779500D01*
X140879923Y-93781051D01*
X140890206Y-93782680D01*
X140890207Y-93782680D01*
X140900000Y-93784231D01*
X140909795Y-93782679D01*
X140919711Y-93782679D01*
X140919711Y-93783054D01*
X140934652Y-93782532D01*
X141083591Y-93795563D01*
X141105220Y-93799376D01*
X141272586Y-93844222D01*
X141293222Y-93851733D01*
X141450263Y-93924962D01*
X141469283Y-93935944D01*
X141555911Y-93996601D01*
X141611213Y-94035324D01*
X141628038Y-94049442D01*
X141750558Y-94171962D01*
X141764675Y-94188786D01*
X141838676Y-94294471D01*
X141864056Y-94330717D01*
X141875038Y-94349737D01*
X141942812Y-94495078D01*
X141948266Y-94506775D01*
X141955778Y-94527414D01*
X142000624Y-94694780D01*
X142004437Y-94716409D01*
X142017468Y-94865348D01*
X142016946Y-94880289D01*
X142017321Y-94880289D01*
X142017321Y-94890205D01*
X142015769Y-94900000D01*
X142017320Y-94909793D01*
X142017320Y-94909794D01*
X142018949Y-94920077D01*
X142020500Y-94939788D01*
X142020500Y-97605187D01*
X142000498Y-97673308D01*
X141977330Y-97700135D01*
X141910039Y-97758838D01*
X141818950Y-97888444D01*
X141799311Y-97938816D01*
X141775457Y-97999999D01*
X141761406Y-98036037D01*
X141760414Y-98043570D01*
X141760414Y-98043571D01*
X141742160Y-98182228D01*
X141740729Y-98193096D01*
X141747436Y-98253846D01*
X141757250Y-98342733D01*
X141758113Y-98350553D01*
X141760723Y-98357684D01*
X141760723Y-98357686D01*
X141807520Y-98485565D01*
X141812553Y-98499319D01*
X141816789Y-98505622D01*
X141816789Y-98505623D01*
X141872404Y-98588386D01*
X141900908Y-98630805D01*
X141906527Y-98635918D01*
X141906528Y-98635919D01*
X141999482Y-98720500D01*
X142018076Y-98737419D01*
X142157293Y-98813008D01*
X142310522Y-98853207D01*
X142394477Y-98854526D01*
X142461319Y-98855576D01*
X142461322Y-98855576D01*
X142468916Y-98855695D01*
X142623332Y-98820329D01*
X142712261Y-98775603D01*
X142758072Y-98752563D01*
X142758075Y-98752561D01*
X142764855Y-98749151D01*
X142770626Y-98744222D01*
X142770629Y-98744220D01*
X142879536Y-98651204D01*
X142879536Y-98651203D01*
X142885314Y-98646269D01*
X142977755Y-98517624D01*
X143036842Y-98370641D01*
X143051869Y-98265052D01*
X143058581Y-98217891D01*
X143058581Y-98217888D01*
X143059162Y-98213807D01*
X143059307Y-98200000D01*
X143040276Y-98042733D01*
X142984280Y-97894546D01*
X142975814Y-97882228D01*
X142898855Y-97770251D01*
X142898854Y-97770249D01*
X142894553Y-97763992D01*
X142821681Y-97699065D01*
X142784126Y-97638816D01*
X142779500Y-97604989D01*
X142779500Y-94939788D01*
X142781051Y-94920077D01*
X142782680Y-94909794D01*
X142782680Y-94909793D01*
X142784231Y-94900000D01*
X142783040Y-94892482D01*
X142782679Y-94886974D01*
X142782679Y-94886867D01*
X142782662Y-94886714D01*
X142767689Y-94658264D01*
X142767688Y-94658260D01*
X142767419Y-94654149D01*
X142756673Y-94600123D01*
X142720159Y-94416556D01*
X142720157Y-94416550D01*
X142719353Y-94412506D01*
X142712849Y-94393344D01*
X142641481Y-94183103D01*
X142641480Y-94183101D01*
X142640157Y-94179203D01*
X142615347Y-94128893D01*
X142533014Y-93961938D01*
X142533011Y-93961933D01*
X142531187Y-93958234D01*
X142394307Y-93753378D01*
X142231859Y-93568141D01*
X142046622Y-93405693D01*
X141841766Y-93268813D01*
X141838067Y-93266989D01*
X141838062Y-93266986D01*
X141624492Y-93161665D01*
X141624490Y-93161664D01*
X141620797Y-93159843D01*
X141616897Y-93158519D01*
X141391404Y-93081974D01*
X141391400Y-93081973D01*
X141387494Y-93080647D01*
X141383450Y-93079843D01*
X141383444Y-93079841D01*
X141149894Y-93033385D01*
X141149891Y-93033385D01*
X141145851Y-93032581D01*
X141141740Y-93032312D01*
X141141736Y-93032311D01*
X140913286Y-93017338D01*
X140913133Y-93017321D01*
X140913026Y-93017321D01*
X140907518Y-93016960D01*
X140900000Y-93015769D01*
X140890207Y-93017320D01*
X140890206Y-93017320D01*
X140879923Y-93018949D01*
X140860212Y-93020500D01*
X135539789Y-93020500D01*
X135520078Y-93018949D01*
X135509795Y-93017320D01*
X135509794Y-93017320D01*
X135500001Y-93015769D01*
X135490206Y-93017321D01*
X135480290Y-93017321D01*
X135480290Y-93016947D01*
X135465345Y-93017468D01*
X135333779Y-93005957D01*
X135312150Y-93002144D01*
X135161617Y-92961809D01*
X135140978Y-92954297D01*
X134999738Y-92888435D01*
X134980718Y-92877453D01*
X134853065Y-92788070D01*
X134836240Y-92773952D01*
X134726048Y-92663760D01*
X134711930Y-92646935D01*
X134622547Y-92519282D01*
X134611565Y-92500262D01*
X134545703Y-92359022D01*
X134538191Y-92338383D01*
X134497856Y-92187850D01*
X134494043Y-92166221D01*
X134482532Y-92034655D01*
X134483053Y-92019710D01*
X134482679Y-92019710D01*
X134482679Y-92009794D01*
X134484231Y-91999999D01*
X134481051Y-91979921D01*
X134479500Y-91960211D01*
X134479500Y-91294730D01*
X134499502Y-91226609D01*
X134523669Y-91198919D01*
X134579536Y-91151204D01*
X134579538Y-91151202D01*
X134585314Y-91146269D01*
X134677755Y-91017624D01*
X134736842Y-90870641D01*
X134759162Y-90713807D01*
X134759307Y-90700000D01*
X134740276Y-90542733D01*
X134684280Y-90394546D01*
X134641594Y-90332437D01*
X134598855Y-90270251D01*
X134598854Y-90270249D01*
X134594553Y-90263992D01*
X134476275Y-90158611D01*
X134468889Y-90154700D01*
X134342988Y-90088039D01*
X134342989Y-90088039D01*
X134336274Y-90084484D01*
X134182633Y-90045892D01*
X134175034Y-90045852D01*
X134175033Y-90045852D01*
X134109181Y-90045507D01*
X134024221Y-90045062D01*
X134016841Y-90046834D01*
X134016839Y-90046834D01*
X133877563Y-90080271D01*
X133877560Y-90080272D01*
X133870184Y-90082043D01*
X133729414Y-90154700D01*
X133610039Y-90258838D01*
X133518950Y-90388444D01*
X133516190Y-90395524D01*
X133468781Y-90517122D01*
X133461406Y-90536037D01*
X133460414Y-90543570D01*
X133460414Y-90543571D01*
X133443150Y-90674709D01*
X133440729Y-90693096D01*
X133449421Y-90771825D01*
X133454684Y-90819491D01*
X133458113Y-90850553D01*
X133460723Y-90857684D01*
X133460723Y-90857686D01*
X133487318Y-90930359D01*
X133512553Y-90999319D01*
X133516789Y-91005622D01*
X133516789Y-91005623D01*
X133569612Y-91084231D01*
X133600908Y-91130805D01*
X133606527Y-91135918D01*
X133606528Y-91135919D01*
X133679299Y-91202135D01*
X133716222Y-91262775D01*
X133720500Y-91295329D01*
X133720500Y-91960213D01*
X133718949Y-91979924D01*
X133717321Y-91990205D01*
X133715769Y-92000001D01*
X133716106Y-92002131D01*
X133734113Y-92253897D01*
X133735069Y-92258293D01*
X133735070Y-92258298D01*
X133787264Y-92498226D01*
X133788221Y-92502624D01*
X133877175Y-92741119D01*
X133999166Y-92964528D01*
X134151709Y-93168301D01*
X134331699Y-93348291D01*
X134335302Y-93350988D01*
X134335303Y-93350989D01*
X134392267Y-93393632D01*
X134434814Y-93450468D01*
X134439878Y-93521284D01*
X134405853Y-93583596D01*
X134343541Y-93617621D01*
X134316758Y-93620500D01*
X133539788Y-93620500D01*
X133520077Y-93618949D01*
X133509794Y-93617320D01*
X133509793Y-93617320D01*
X133500000Y-93615769D01*
X133490205Y-93617321D01*
X133480289Y-93617321D01*
X133480289Y-93616946D01*
X133465348Y-93617468D01*
X133316409Y-93604437D01*
X133294780Y-93600624D01*
X133127414Y-93555778D01*
X133106778Y-93548267D01*
X132949737Y-93475038D01*
X132930717Y-93464056D01*
X132847366Y-93405693D01*
X132788786Y-93364675D01*
X132771962Y-93350558D01*
X132649442Y-93228038D01*
X132635324Y-93211213D01*
X132598428Y-93158519D01*
X132535944Y-93069283D01*
X132524962Y-93050261D01*
X132511129Y-93020595D01*
X132500468Y-92950404D01*
X132523000Y-92893823D01*
X132577755Y-92817624D01*
X132636842Y-92670641D01*
X132652978Y-92557258D01*
X132658581Y-92517891D01*
X132658581Y-92517888D01*
X132659162Y-92513807D01*
X132659307Y-92500000D01*
X132640276Y-92342733D01*
X132584280Y-92194546D01*
X132523165Y-92105623D01*
X132498855Y-92070251D01*
X132498854Y-92070249D01*
X132494553Y-92063992D01*
X132376275Y-91958611D01*
X132368889Y-91954700D01*
X132242988Y-91888039D01*
X132242989Y-91888039D01*
X132236274Y-91884484D01*
X132082633Y-91845892D01*
X132075034Y-91845852D01*
X132075033Y-91845852D01*
X132009181Y-91845507D01*
X131924221Y-91845062D01*
X131916841Y-91846834D01*
X131916839Y-91846834D01*
X131777563Y-91880271D01*
X131777560Y-91880272D01*
X131770184Y-91882043D01*
X131629414Y-91954700D01*
X131623695Y-91959689D01*
X131582999Y-91995190D01*
X131518516Y-92024897D01*
X131448209Y-92015027D01*
X131416352Y-91994317D01*
X131381951Y-91963667D01*
X131381945Y-91963663D01*
X131376275Y-91958611D01*
X131368889Y-91954700D01*
X131242988Y-91888039D01*
X131242989Y-91888039D01*
X131236274Y-91884484D01*
X131082633Y-91845892D01*
X131075034Y-91845852D01*
X131075033Y-91845852D01*
X131009181Y-91845507D01*
X130924221Y-91845062D01*
X130916841Y-91846834D01*
X130916839Y-91846834D01*
X130777563Y-91880271D01*
X130777560Y-91880272D01*
X130770184Y-91882043D01*
X130629414Y-91954700D01*
X130510039Y-92058838D01*
X130418950Y-92188444D01*
X130400440Y-92235919D01*
X130370093Y-92313757D01*
X130361406Y-92336037D01*
X130360414Y-92343570D01*
X130360414Y-92343571D01*
X130345653Y-92455695D01*
X130340729Y-92493096D01*
X130358113Y-92650553D01*
X130360723Y-92657684D01*
X130360723Y-92657686D01*
X130392702Y-92745072D01*
X130412553Y-92799319D01*
X130416789Y-92805622D01*
X130416789Y-92805623D01*
X130476067Y-92893837D01*
X130500908Y-92930805D01*
X130506527Y-92935918D01*
X130506528Y-92935919D01*
X130579299Y-93002135D01*
X130616222Y-93062775D01*
X130620500Y-93095329D01*
X130620500Y-95960212D01*
X130618949Y-95979922D01*
X130615769Y-96000000D01*
X130616693Y-96005835D01*
X130633270Y-96216468D01*
X130634424Y-96221275D01*
X130634425Y-96221281D01*
X130654856Y-96306379D01*
X130683960Y-96427607D01*
X130685853Y-96432178D01*
X130685854Y-96432180D01*
X130763859Y-96620500D01*
X130767055Y-96628217D01*
X130880509Y-96813357D01*
X131021529Y-96978471D01*
X131186643Y-97119491D01*
X131371783Y-97232945D01*
X131376353Y-97234838D01*
X131376357Y-97234840D01*
X131567820Y-97314146D01*
X131572393Y-97316040D01*
X131608977Y-97324823D01*
X131778719Y-97365575D01*
X131778725Y-97365576D01*
X131783532Y-97366730D01*
X131929548Y-97378222D01*
X131933039Y-97378733D01*
X131933851Y-97379018D01*
X131936630Y-97379259D01*
X131936632Y-97379259D01*
X131936689Y-97379264D01*
X131939416Y-97379500D01*
X131942128Y-97379500D01*
X131944857Y-97379618D01*
X131944855Y-97379658D01*
X131950720Y-97379888D01*
X131963033Y-97380857D01*
X131994165Y-97383307D01*
X132000000Y-97384231D01*
X132020078Y-97381051D01*
X132039788Y-97379500D01*
X135200141Y-97379500D01*
X135268262Y-97399502D01*
X135295522Y-97423169D01*
X135296672Y-97424501D01*
X135300908Y-97430805D01*
X135418076Y-97537419D01*
X135557293Y-97613008D01*
X135710522Y-97653207D01*
X135794477Y-97654526D01*
X135861319Y-97655576D01*
X135861322Y-97655576D01*
X135868916Y-97655695D01*
X136023332Y-97620329D01*
X136093742Y-97584917D01*
X136158072Y-97552563D01*
X136158075Y-97552561D01*
X136164855Y-97549151D01*
X136170626Y-97544222D01*
X136170629Y-97544220D01*
X136279536Y-97451204D01*
X136279536Y-97451203D01*
X136285314Y-97446269D01*
X136377755Y-97317624D01*
X136436842Y-97170641D01*
X136455286Y-97041044D01*
X136458581Y-97017891D01*
X136458581Y-97017888D01*
X136459162Y-97013807D01*
X136459307Y-97000000D01*
X136458703Y-96995004D01*
X136447886Y-96905623D01*
X136440276Y-96842733D01*
X136384280Y-96694546D01*
X136363281Y-96663992D01*
X136298855Y-96570251D01*
X136298854Y-96570249D01*
X136294553Y-96563992D01*
X136288514Y-96558611D01*
X136214512Y-96492679D01*
X136176275Y-96458611D01*
X136168889Y-96454700D01*
X136042988Y-96388039D01*
X136042989Y-96388039D01*
X136036274Y-96384484D01*
X135882633Y-96345892D01*
X135875034Y-96345852D01*
X135875033Y-96345852D01*
X135809181Y-96345507D01*
X135724221Y-96345062D01*
X135716841Y-96346834D01*
X135716839Y-96346834D01*
X135577563Y-96380271D01*
X135577560Y-96380272D01*
X135570184Y-96382043D01*
X135429414Y-96454700D01*
X135310039Y-96558838D01*
X135305672Y-96565051D01*
X135305667Y-96565057D01*
X135304336Y-96566951D01*
X135303013Y-96568005D01*
X135300589Y-96570697D01*
X135300140Y-96570293D01*
X135248802Y-96611183D01*
X135201250Y-96620500D01*
X132039788Y-96620500D01*
X132020077Y-96618949D01*
X132017451Y-96618533D01*
X132000000Y-96615769D01*
X131990206Y-96617320D01*
X131980292Y-96617320D01*
X131980292Y-96616297D01*
X131965589Y-96616622D01*
X131876032Y-96606532D01*
X131848524Y-96600253D01*
X131744176Y-96563740D01*
X131718756Y-96551499D01*
X131625143Y-96492679D01*
X131603083Y-96475086D01*
X131524914Y-96396917D01*
X131507321Y-96374857D01*
X131448501Y-96281244D01*
X131436260Y-96255824D01*
X131399747Y-96151476D01*
X131393468Y-96123968D01*
X131383378Y-96034411D01*
X131383703Y-96019708D01*
X131382680Y-96019708D01*
X131382680Y-96009794D01*
X131384231Y-96000000D01*
X131381051Y-95979922D01*
X131379500Y-95960212D01*
X131379500Y-93105338D01*
X131399502Y-93037217D01*
X131453158Y-92990724D01*
X131523432Y-92980620D01*
X131590299Y-93012144D01*
X131618076Y-93037419D01*
X131624751Y-93041043D01*
X131624752Y-93041044D01*
X131672224Y-93066820D01*
X131722545Y-93116903D01*
X131731414Y-93137049D01*
X131758517Y-93216893D01*
X131758521Y-93216903D01*
X131759843Y-93220797D01*
X131761664Y-93224490D01*
X131761665Y-93224492D01*
X131860414Y-93424734D01*
X131868813Y-93441766D01*
X132005693Y-93646622D01*
X132168141Y-93831859D01*
X132353378Y-93994307D01*
X132558234Y-94131187D01*
X132561933Y-94133011D01*
X132561938Y-94133014D01*
X132663509Y-94183103D01*
X132779203Y-94240157D01*
X132783101Y-94241480D01*
X132783103Y-94241481D01*
X133008596Y-94318026D01*
X133008600Y-94318027D01*
X133012506Y-94319353D01*
X133016550Y-94320157D01*
X133016556Y-94320159D01*
X133250106Y-94366615D01*
X133250109Y-94366615D01*
X133254149Y-94367419D01*
X133258260Y-94367688D01*
X133258264Y-94367689D01*
X133486714Y-94382662D01*
X133486867Y-94382679D01*
X133486974Y-94382679D01*
X133492482Y-94383040D01*
X133500000Y-94384231D01*
X133509793Y-94382680D01*
X133509794Y-94382680D01*
X133520077Y-94381051D01*
X133539788Y-94379500D01*
X136443763Y-94379500D01*
X136511884Y-94399502D01*
X136558377Y-94453158D01*
X136568481Y-94523432D01*
X136538987Y-94588012D01*
X136501553Y-94617466D01*
X136429414Y-94654700D01*
X136310039Y-94758838D01*
X136218950Y-94888444D01*
X136161406Y-95036037D01*
X136160414Y-95043570D01*
X136160414Y-95043571D01*
X136142160Y-95182228D01*
X136140729Y-95193096D01*
X136149421Y-95271824D01*
X136157250Y-95342733D01*
X136158113Y-95350553D01*
X136212553Y-95499319D01*
X136216789Y-95505622D01*
X136216789Y-95505623D01*
X136222289Y-95513807D01*
X136300908Y-95630805D01*
X136306527Y-95635918D01*
X136306528Y-95635919D01*
X136412460Y-95732309D01*
X136418076Y-95737419D01*
X136557293Y-95813008D01*
X136710522Y-95853207D01*
X136794477Y-95854526D01*
X136861319Y-95855576D01*
X136861322Y-95855576D01*
X136868916Y-95855695D01*
X137023332Y-95820329D01*
X137097195Y-95783180D01*
X137158072Y-95752563D01*
X137158075Y-95752561D01*
X137164855Y-95749151D01*
X137255339Y-95671870D01*
X137320126Y-95642840D01*
X137390327Y-95653445D01*
X137426263Y-95678587D01*
X137445177Y-95697501D01*
X137468349Y-95729394D01*
X137495754Y-95783180D01*
X137507936Y-95820671D01*
X137513465Y-95855576D01*
X137515770Y-95870131D01*
X137517321Y-95889846D01*
X137517321Y-95890202D01*
X137515769Y-95899999D01*
X137517320Y-95909792D01*
X137517320Y-95909793D01*
X137518949Y-95920076D01*
X137520500Y-95939787D01*
X137520500Y-98360213D01*
X137518949Y-98379922D01*
X137515769Y-98400001D01*
X137517321Y-98409798D01*
X137517321Y-98410154D01*
X137515770Y-98429867D01*
X137513357Y-98445102D01*
X137507936Y-98479329D01*
X137495754Y-98516820D01*
X137468349Y-98570606D01*
X137445177Y-98602499D01*
X137402499Y-98645177D01*
X137370606Y-98668349D01*
X137316820Y-98695754D01*
X137279329Y-98707936D01*
X137229867Y-98715770D01*
X137210154Y-98717321D01*
X137209798Y-98717321D01*
X137200001Y-98715769D01*
X137190208Y-98717320D01*
X137190207Y-98717320D01*
X137179924Y-98718949D01*
X137160213Y-98720500D01*
X128799682Y-98720500D01*
X128731561Y-98700498D01*
X128705114Y-98674860D01*
X128703878Y-98675949D01*
X128698855Y-98670251D01*
X128694553Y-98663992D01*
X128576275Y-98558611D01*
X128568889Y-98554700D01*
X128491655Y-98513807D01*
X128436274Y-98484484D01*
X128282633Y-98445892D01*
X128275034Y-98445852D01*
X128275033Y-98445852D01*
X128209181Y-98445507D01*
X128124221Y-98445062D01*
X128116841Y-98446834D01*
X128116839Y-98446834D01*
X127977563Y-98480271D01*
X127977560Y-98480272D01*
X127970184Y-98482043D01*
X127829414Y-98554700D01*
X127710039Y-98658838D01*
X127618950Y-98788444D01*
X127561406Y-98936037D01*
X127560414Y-98943570D01*
X127560414Y-98943571D01*
X127543869Y-99069246D01*
X127540729Y-99093096D01*
X126907693Y-99093096D01*
X126959176Y-99041613D01*
X126965606Y-99029838D01*
X126956310Y-99017824D01*
X126915912Y-98989536D01*
X126906416Y-98984053D01*
X126716887Y-98895674D01*
X126706595Y-98891928D01*
X126504599Y-98837804D01*
X126493804Y-98835901D01*
X126285475Y-98817674D01*
X126274525Y-98817674D01*
X126066196Y-98835901D01*
X126055401Y-98837804D01*
X125853405Y-98891928D01*
X125843113Y-98895674D01*
X125683750Y-98969987D01*
X125613559Y-98980648D01*
X125548746Y-98951668D01*
X125509889Y-98892249D01*
X125504500Y-98855792D01*
X125504500Y-97721846D01*
X125506000Y-97702461D01*
X125508269Y-97687891D01*
X125508269Y-97687888D01*
X125509650Y-97679019D01*
X125507328Y-97661261D01*
X125506462Y-97637863D01*
X125507639Y-97616916D01*
X125520253Y-97392295D01*
X125521835Y-97378258D01*
X125521842Y-97378221D01*
X125546964Y-97230359D01*
X125567708Y-97108269D01*
X125570852Y-97094494D01*
X125646666Y-96831337D01*
X125651333Y-96818000D01*
X125733782Y-96618949D01*
X125756135Y-96564985D01*
X125762264Y-96552258D01*
X125894737Y-96312567D01*
X125902244Y-96300619D01*
X125984289Y-96184987D01*
X126040021Y-96141006D01*
X126058917Y-96135082D01*
X126123332Y-96120329D01*
X126137892Y-96113006D01*
X126258072Y-96052563D01*
X126258075Y-96052561D01*
X126264855Y-96049151D01*
X126270626Y-96044222D01*
X126270629Y-96044220D01*
X126379536Y-95951204D01*
X126379536Y-95951203D01*
X126385314Y-95946269D01*
X126477755Y-95817624D01*
X126536842Y-95670641D01*
X126559162Y-95513807D01*
X126559307Y-95500000D01*
X126540276Y-95342733D01*
X126484280Y-95194546D01*
X126433100Y-95120078D01*
X126398855Y-95070251D01*
X126398854Y-95070249D01*
X126394553Y-95063992D01*
X126276275Y-94958611D01*
X126268889Y-94954700D01*
X126184076Y-94909794D01*
X126136274Y-94884484D01*
X125982633Y-94845892D01*
X125975034Y-94845852D01*
X125975033Y-94845852D01*
X125909181Y-94845507D01*
X125824221Y-94845062D01*
X125816841Y-94846834D01*
X125816839Y-94846834D01*
X125677563Y-94880271D01*
X125677560Y-94880272D01*
X125670184Y-94882043D01*
X125529414Y-94954700D01*
X125410039Y-95058838D01*
X125318950Y-95188444D01*
X125261406Y-95336037D01*
X125260414Y-95343570D01*
X125260414Y-95343571D01*
X125246097Y-95452320D01*
X125222379Y-95510932D01*
X125122006Y-95646269D01*
X125094796Y-95682958D01*
X125093213Y-95685599D01*
X125093207Y-95685608D01*
X124946802Y-95929871D01*
X124914098Y-95984435D01*
X124912784Y-95987214D01*
X124912782Y-95987217D01*
X124765140Y-96299379D01*
X124765136Y-96299388D01*
X124763820Y-96302171D01*
X124735030Y-96382634D01*
X124646449Y-96630199D01*
X124646446Y-96630208D01*
X124645409Y-96633107D01*
X124644660Y-96636097D01*
X124644657Y-96636107D01*
X124571303Y-96928957D01*
X124560006Y-96974056D01*
X124508433Y-97321734D01*
X124508281Y-97324818D01*
X124508281Y-97324823D01*
X124500623Y-97480718D01*
X124492925Y-97637419D01*
X124492713Y-97641727D01*
X124491532Y-97652638D01*
X124491272Y-97655534D01*
X124490464Y-97660339D01*
X124490312Y-97672792D01*
X124493454Y-97694730D01*
X124494227Y-97700128D01*
X124495500Y-97717991D01*
X124495500Y-112263590D01*
X124475498Y-112331711D01*
X124442400Y-112366360D01*
X124364359Y-112421719D01*
X124275014Y-112485096D01*
X124129272Y-112637340D01*
X124126021Y-112642375D01*
X124086447Y-112703664D01*
X124032692Y-112750042D01*
X123962396Y-112759995D01*
X123897879Y-112730363D01*
X123859623Y-112670555D01*
X123855268Y-112648319D01*
X123847743Y-112575794D01*
X123844851Y-112562400D01*
X123793412Y-112408216D01*
X123787239Y-112395038D01*
X123701937Y-112257193D01*
X123692901Y-112245792D01*
X123578171Y-112131261D01*
X123566760Y-112122249D01*
X123428757Y-112037184D01*
X123415576Y-112031037D01*
X123261290Y-111979862D01*
X123247914Y-111976995D01*
X123153562Y-111967328D01*
X123147145Y-111967000D01*
X122772115Y-111967000D01*
X122756876Y-111971475D01*
X122755671Y-111972865D01*
X122754000Y-111980548D01*
X122754000Y-114814884D01*
X122246000Y-114814884D01*
X122246000Y-113672115D01*
X122241525Y-113656876D01*
X122240135Y-113655671D01*
X122232452Y-113654000D01*
X121160116Y-113654000D01*
X121144877Y-113658475D01*
X121143672Y-113659865D01*
X121142001Y-113667548D01*
X121142001Y-114122095D01*
X120254000Y-114122095D01*
X120254000Y-113127885D01*
X121142000Y-113127885D01*
X121146475Y-113143124D01*
X121147865Y-113144329D01*
X121155548Y-113146000D01*
X122227885Y-113146000D01*
X122243124Y-113141525D01*
X122244329Y-113140135D01*
X122246000Y-113132452D01*
X122246000Y-111985116D01*
X122241525Y-111969877D01*
X122240135Y-111968672D01*
X122232452Y-111967001D01*
X121852905Y-111967001D01*
X121846386Y-111967338D01*
X121750794Y-111977257D01*
X121737400Y-111980149D01*
X121583216Y-112031588D01*
X121570038Y-112037761D01*
X121432193Y-112123063D01*
X121420792Y-112132099D01*
X121306261Y-112246829D01*
X121297249Y-112258240D01*
X121212184Y-112396243D01*
X121206037Y-112409424D01*
X121154862Y-112563710D01*
X121151995Y-112577086D01*
X121142328Y-112671438D01*
X121142000Y-112677855D01*
X121142000Y-113127885D01*
X120254000Y-113127885D01*
X120254000Y-109679319D01*
X121515041Y-109679319D01*
X121524923Y-109691809D01*
X121562259Y-109716756D01*
X121572371Y-109722247D01*
X121753081Y-109799885D01*
X121764014Y-109803437D01*
X121955844Y-109846845D01*
X121967253Y-109848347D01*
X122163783Y-109856068D01*
X122175265Y-109855466D01*
X122369905Y-109827245D01*
X122381101Y-109824557D01*
X122567343Y-109761336D01*
X122577840Y-109756662D01*
X122696401Y-109690266D01*
X122706264Y-109680189D01*
X122703309Y-109672519D01*
X122122812Y-109092022D01*
X122108868Y-109084408D01*
X122107035Y-109084539D01*
X122100420Y-109088790D01*
X121521237Y-109667973D01*
X121515041Y-109679319D01*
X120254000Y-109679319D01*
X120254000Y-108695980D01*
X120972914Y-108695980D01*
X120985777Y-108892233D01*
X120987577Y-108903601D01*
X121035991Y-109094228D01*
X121039829Y-109105066D01*
X121122173Y-109283685D01*
X121127922Y-109293642D01*
X121137850Y-109307690D01*
X121148439Y-109316078D01*
X121161740Y-109309050D01*
X121737978Y-108732812D01*
X121744356Y-108721132D01*
X122474408Y-108721132D01*
X122474539Y-108722965D01*
X122478790Y-108729580D01*
X123058603Y-109309393D01*
X123070983Y-109316153D01*
X123077563Y-109311227D01*
X123146662Y-109187840D01*
X123151336Y-109177343D01*
X123214557Y-108991101D01*
X123217245Y-108979905D01*
X123245762Y-108783224D01*
X123246392Y-108775843D01*
X123247757Y-108723704D01*
X123247514Y-108716305D01*
X123229330Y-108518397D01*
X123227233Y-108507083D01*
X123173846Y-108317789D01*
X123169724Y-108307050D01*
X123082736Y-108130656D01*
X123081577Y-108128765D01*
X123072732Y-108122126D01*
X123060312Y-108128898D01*
X122482022Y-108707188D01*
X122474408Y-108721132D01*
X121744356Y-108721132D01*
X121745592Y-108718868D01*
X121745461Y-108717035D01*
X121741210Y-108710420D01*
X121160031Y-108129241D01*
X121147651Y-108122481D01*
X121141685Y-108126947D01*
X121061452Y-108279445D01*
X121057047Y-108290079D01*
X120998724Y-108477910D01*
X120996332Y-108489164D01*
X120973215Y-108684479D01*
X120972914Y-108695980D01*
X120254000Y-108695980D01*
X120254000Y-107760436D01*
X121514547Y-107760436D01*
X121518033Y-107768823D01*
X122097188Y-108347978D01*
X122111132Y-108355592D01*
X122112965Y-108355461D01*
X122119580Y-108351210D01*
X122698407Y-107772383D01*
X122705167Y-107760003D01*
X122699137Y-107751948D01*
X122631459Y-107709246D01*
X122621211Y-107704025D01*
X122438531Y-107631143D01*
X122427504Y-107627876D01*
X122234605Y-107589506D01*
X122223159Y-107588303D01*
X122026507Y-107585730D01*
X122015027Y-107586633D01*
X121821199Y-107619938D01*
X121810079Y-107622918D01*
X121625557Y-107690992D01*
X121615179Y-107695942D01*
X121524146Y-107750101D01*
X121514547Y-107760436D01*
X120254000Y-107760436D01*
X120254000Y-101039319D01*
X121515041Y-101039319D01*
X121524923Y-101051809D01*
X121562259Y-101076756D01*
X121572371Y-101082247D01*
X121753081Y-101159885D01*
X121764014Y-101163437D01*
X121955844Y-101206845D01*
X121967253Y-101208347D01*
X122163783Y-101216068D01*
X122175265Y-101215466D01*
X122369905Y-101187245D01*
X122381101Y-101184557D01*
X122567343Y-101121336D01*
X122577840Y-101116662D01*
X122696401Y-101050266D01*
X122706264Y-101040189D01*
X122703309Y-101032519D01*
X122122812Y-100452022D01*
X122108868Y-100444408D01*
X122107035Y-100444539D01*
X122100420Y-100448790D01*
X121521237Y-101027973D01*
X121515041Y-101039319D01*
X120254000Y-101039319D01*
X120254000Y-100055980D01*
X120972914Y-100055980D01*
X120985777Y-100252233D01*
X120987577Y-100263601D01*
X121035991Y-100454228D01*
X121039829Y-100465066D01*
X121122173Y-100643685D01*
X121127922Y-100653642D01*
X121137850Y-100667690D01*
X121148439Y-100676078D01*
X121161740Y-100669050D01*
X121737978Y-100092812D01*
X121744356Y-100081132D01*
X122474408Y-100081132D01*
X122474539Y-100082965D01*
X122478790Y-100089580D01*
X123058603Y-100669393D01*
X123070983Y-100676153D01*
X123077563Y-100671227D01*
X123146662Y-100547840D01*
X123151336Y-100537343D01*
X123214557Y-100351101D01*
X123217245Y-100339905D01*
X123245762Y-100143224D01*
X123246392Y-100135843D01*
X123247757Y-100083704D01*
X123247514Y-100076305D01*
X123229330Y-99878397D01*
X123227233Y-99867083D01*
X123173846Y-99677789D01*
X123169724Y-99667050D01*
X123082736Y-99490656D01*
X123081577Y-99488765D01*
X123072732Y-99482126D01*
X123060312Y-99488898D01*
X122482022Y-100067188D01*
X122474408Y-100081132D01*
X121744356Y-100081132D01*
X121745592Y-100078868D01*
X121745461Y-100077035D01*
X121741210Y-100070420D01*
X121160031Y-99489241D01*
X121147651Y-99482481D01*
X121141685Y-99486947D01*
X121061452Y-99639445D01*
X121057047Y-99650079D01*
X120998724Y-99837910D01*
X120996332Y-99849164D01*
X120973215Y-100044479D01*
X120972914Y-100055980D01*
X120254000Y-100055980D01*
X120254000Y-99120436D01*
X121514547Y-99120436D01*
X121518033Y-99128823D01*
X122097188Y-99707978D01*
X122111132Y-99715592D01*
X122112965Y-99715461D01*
X122119580Y-99711210D01*
X122698407Y-99132383D01*
X122705167Y-99120003D01*
X122699137Y-99111948D01*
X122631459Y-99069246D01*
X122621211Y-99064025D01*
X122438531Y-98991143D01*
X122427504Y-98987876D01*
X122234605Y-98949506D01*
X122223159Y-98948303D01*
X122026507Y-98945730D01*
X122015027Y-98946633D01*
X121821199Y-98979938D01*
X121810079Y-98982918D01*
X121625557Y-99050992D01*
X121615179Y-99055942D01*
X121524146Y-99110101D01*
X121514547Y-99120436D01*
X120254000Y-99120436D01*
X120254000Y-88150000D01*
X128990708Y-88150000D01*
X129009839Y-88368674D01*
X129066653Y-88580703D01*
X129090099Y-88630984D01*
X129157095Y-88774659D01*
X129157098Y-88774664D01*
X129159421Y-88779646D01*
X129162577Y-88784153D01*
X129162578Y-88784155D01*
X129281828Y-88954461D01*
X129285326Y-88959457D01*
X129440543Y-89114674D01*
X129445051Y-89117831D01*
X129445054Y-89117833D01*
X129615845Y-89237422D01*
X129620354Y-89240579D01*
X129625336Y-89242902D01*
X129625341Y-89242905D01*
X129726116Y-89289896D01*
X129819297Y-89333347D01*
X130031326Y-89390161D01*
X130250000Y-89409292D01*
X130468674Y-89390161D01*
X130680703Y-89333347D01*
X130773884Y-89289896D01*
X130874659Y-89242905D01*
X130874664Y-89242902D01*
X130879646Y-89240579D01*
X130884155Y-89237422D01*
X131054946Y-89117833D01*
X131054949Y-89117831D01*
X131059457Y-89114674D01*
X131214674Y-88959457D01*
X131218173Y-88954461D01*
X131337422Y-88784155D01*
X131337423Y-88784153D01*
X131340579Y-88779646D01*
X131342902Y-88774664D01*
X131342905Y-88774659D01*
X131409901Y-88630984D01*
X131433347Y-88580703D01*
X131490161Y-88368674D01*
X131509292Y-88150000D01*
X131490161Y-87931326D01*
X131433347Y-87719297D01*
X131377718Y-87600000D01*
X131342905Y-87525341D01*
X131342902Y-87525336D01*
X131340579Y-87520354D01*
X131214674Y-87340543D01*
X131059457Y-87185326D01*
X131054949Y-87182169D01*
X131054946Y-87182167D01*
X130884155Y-87062578D01*
X130884153Y-87062577D01*
X130879646Y-87059421D01*
X130874664Y-87057098D01*
X130874659Y-87057095D01*
X130727181Y-86988326D01*
X130680703Y-86966653D01*
X130468674Y-86909839D01*
X130250000Y-86890708D01*
X130031326Y-86909839D01*
X129819297Y-86966653D01*
X129772819Y-86988326D01*
X129625341Y-87057095D01*
X129625336Y-87057098D01*
X129620354Y-87059421D01*
X129615847Y-87062577D01*
X129615845Y-87062578D01*
X129445054Y-87182167D01*
X129445051Y-87182169D01*
X129440543Y-87185326D01*
X129285326Y-87340543D01*
X129159421Y-87520354D01*
X129157098Y-87525336D01*
X129157095Y-87525341D01*
X129122282Y-87600000D01*
X129066653Y-87719297D01*
X129009839Y-87931326D01*
X128990708Y-88150000D01*
X120254000Y-88150000D01*
X120254000Y-83493096D01*
X127740729Y-83493096D01*
X127758113Y-83650553D01*
X127760723Y-83657684D01*
X127760723Y-83657686D01*
X127784917Y-83723798D01*
X127812553Y-83799319D01*
X127816789Y-83805622D01*
X127816789Y-83805623D01*
X127836186Y-83834488D01*
X127900908Y-83930805D01*
X127906527Y-83935918D01*
X127906528Y-83935919D01*
X128018076Y-84037419D01*
X128016998Y-84038604D01*
X128055440Y-84087393D01*
X128062445Y-84111618D01*
X128083425Y-84226099D01*
X128084557Y-84229731D01*
X128084557Y-84229732D01*
X128135567Y-84393430D01*
X128166433Y-84492484D01*
X128167995Y-84495954D01*
X128167997Y-84495960D01*
X128213594Y-84597271D01*
X128280946Y-84746920D01*
X128282918Y-84750182D01*
X128421999Y-84980250D01*
X128425292Y-84985698D01*
X128597368Y-85205337D01*
X128794663Y-85402632D01*
X129014302Y-85574708D01*
X129017554Y-85576674D01*
X129017557Y-85576676D01*
X129139302Y-85650273D01*
X129253080Y-85719054D01*
X129342812Y-85759440D01*
X129504040Y-85832003D01*
X129504046Y-85832005D01*
X129507516Y-85833567D01*
X129511152Y-85834700D01*
X129745462Y-85907713D01*
X129773901Y-85916575D01*
X130048348Y-85966869D01*
X130052142Y-85967098D01*
X130052146Y-85967099D01*
X130227317Y-85977695D01*
X130321596Y-85983398D01*
X130326857Y-85984231D01*
X130346935Y-85981051D01*
X130366645Y-85979500D01*
X134393519Y-85979500D01*
X134461640Y-85999502D01*
X134508133Y-86053158D01*
X134518237Y-86123432D01*
X134496606Y-86177951D01*
X134418950Y-86288444D01*
X134416190Y-86295524D01*
X134365752Y-86424891D01*
X134361406Y-86436037D01*
X134360414Y-86443570D01*
X134360414Y-86443571D01*
X134351711Y-86509682D01*
X134340729Y-86593096D01*
X134341563Y-86600646D01*
X134356428Y-86735289D01*
X134358113Y-86750553D01*
X134360723Y-86757684D01*
X134360723Y-86757686D01*
X134407032Y-86884231D01*
X134412553Y-86899319D01*
X134416789Y-86905622D01*
X134416789Y-86905623D01*
X134479109Y-86998364D01*
X134500908Y-87030805D01*
X134506527Y-87035918D01*
X134506528Y-87035919D01*
X134568249Y-87092080D01*
X134618076Y-87137419D01*
X134757293Y-87213008D01*
X134910522Y-87253207D01*
X134994477Y-87254526D01*
X135061319Y-87255576D01*
X135061322Y-87255576D01*
X135068916Y-87255695D01*
X135223332Y-87220329D01*
X135321395Y-87171009D01*
X135358072Y-87152563D01*
X135358075Y-87152561D01*
X135364855Y-87149151D01*
X135370626Y-87144222D01*
X135370629Y-87144220D01*
X135479542Y-87051199D01*
X135479543Y-87051198D01*
X135485314Y-87046269D01*
X135495586Y-87031974D01*
X135551581Y-86988326D01*
X135597909Y-86979500D01*
X135842179Y-86979500D01*
X135910300Y-86999502D01*
X135956793Y-87053158D01*
X135966897Y-87123432D01*
X135937403Y-87188012D01*
X135931274Y-87194595D01*
X135785326Y-87340543D01*
X135659421Y-87520354D01*
X135657098Y-87525336D01*
X135657095Y-87525341D01*
X135622282Y-87600000D01*
X135566653Y-87719297D01*
X135509839Y-87931326D01*
X135490708Y-88150000D01*
X135509839Y-88368674D01*
X135566653Y-88580703D01*
X135590099Y-88630984D01*
X135657095Y-88774659D01*
X135657098Y-88774664D01*
X135659421Y-88779646D01*
X135662577Y-88784153D01*
X135662578Y-88784155D01*
X135781828Y-88954461D01*
X135785326Y-88959457D01*
X135940543Y-89114674D01*
X135945051Y-89117831D01*
X135945054Y-89117833D01*
X136115845Y-89237422D01*
X136120354Y-89240579D01*
X136125336Y-89242902D01*
X136125341Y-89242905D01*
X136226116Y-89289896D01*
X136319297Y-89333347D01*
X136531326Y-89390161D01*
X136750000Y-89409292D01*
X136968674Y-89390161D01*
X137180703Y-89333347D01*
X137273884Y-89289896D01*
X137374659Y-89242905D01*
X137374664Y-89242902D01*
X137379646Y-89240579D01*
X137384155Y-89237422D01*
X137554946Y-89117833D01*
X137554949Y-89117831D01*
X137559457Y-89114674D01*
X137714674Y-88959457D01*
X137718173Y-88954461D01*
X137837422Y-88784155D01*
X137837423Y-88784153D01*
X137840579Y-88779646D01*
X137842902Y-88774664D01*
X137842905Y-88774659D01*
X137909901Y-88630984D01*
X137933347Y-88580703D01*
X137990161Y-88368674D01*
X138009292Y-88150000D01*
X137996790Y-88007102D01*
X138010779Y-87937499D01*
X138060179Y-87886506D01*
X138129304Y-87870316D01*
X138157189Y-87875045D01*
X138339094Y-87927452D01*
X138583971Y-87969058D01*
X138813437Y-87981945D01*
X138820305Y-87982680D01*
X138822172Y-87982680D01*
X138831967Y-87984231D01*
X138852045Y-87981051D01*
X138871755Y-87979500D01*
X142700141Y-87979500D01*
X142768262Y-87999502D01*
X142795522Y-88023169D01*
X142796672Y-88024501D01*
X142800908Y-88030805D01*
X142918076Y-88137419D01*
X143057293Y-88213008D01*
X143210522Y-88253207D01*
X143294477Y-88254526D01*
X143361319Y-88255576D01*
X143361322Y-88255576D01*
X143368916Y-88255695D01*
X143523332Y-88220329D01*
X143593742Y-88184917D01*
X143658072Y-88152563D01*
X143658075Y-88152561D01*
X143664855Y-88149151D01*
X143670626Y-88144222D01*
X143670629Y-88144220D01*
X143779536Y-88051204D01*
X143779536Y-88051203D01*
X143785314Y-88046269D01*
X143792181Y-88036713D01*
X143794580Y-88034843D01*
X143794885Y-88034511D01*
X143794940Y-88034562D01*
X143848174Y-87993068D01*
X143918877Y-87986624D01*
X143981841Y-88019427D01*
X144017075Y-88081064D01*
X144020500Y-88110243D01*
X144020500Y-89660212D01*
X144018949Y-89679922D01*
X144015769Y-89700000D01*
X144017320Y-89709794D01*
X144017320Y-89719708D01*
X144016297Y-89719708D01*
X144016622Y-89734411D01*
X144006532Y-89823968D01*
X144000253Y-89851476D01*
X143963740Y-89955824D01*
X143951499Y-89981244D01*
X143892679Y-90074857D01*
X143875086Y-90096917D01*
X143796917Y-90175086D01*
X143774857Y-90192679D01*
X143681244Y-90251499D01*
X143655824Y-90263740D01*
X143551476Y-90300253D01*
X143523968Y-90306532D01*
X143434411Y-90316622D01*
X143419708Y-90316297D01*
X143419708Y-90317320D01*
X143409794Y-90317320D01*
X143400000Y-90315769D01*
X143382549Y-90318533D01*
X143379923Y-90318949D01*
X143360212Y-90320500D01*
X137199682Y-90320500D01*
X137131561Y-90300498D01*
X137105114Y-90274860D01*
X137103878Y-90275949D01*
X137098855Y-90270251D01*
X137094553Y-90263992D01*
X136976275Y-90158611D01*
X136968889Y-90154700D01*
X136842988Y-90088039D01*
X136842989Y-90088039D01*
X136836274Y-90084484D01*
X136682633Y-90045892D01*
X136675034Y-90045852D01*
X136675033Y-90045852D01*
X136609181Y-90045507D01*
X136524221Y-90045062D01*
X136516841Y-90046834D01*
X136516839Y-90046834D01*
X136377563Y-90080271D01*
X136377560Y-90080272D01*
X136370184Y-90082043D01*
X136229414Y-90154700D01*
X136110039Y-90258838D01*
X136018950Y-90388444D01*
X136016190Y-90395524D01*
X135968781Y-90517122D01*
X135961406Y-90536037D01*
X135960414Y-90543570D01*
X135960414Y-90543571D01*
X135943150Y-90674709D01*
X135940729Y-90693096D01*
X135949421Y-90771825D01*
X135954684Y-90819491D01*
X135958113Y-90850553D01*
X135960723Y-90857684D01*
X135960723Y-90857686D01*
X136012553Y-90999319D01*
X136009808Y-91000324D01*
X136020408Y-91056796D01*
X135993702Y-91122579D01*
X135935672Y-91163480D01*
X135864342Y-91166416D01*
X135852654Y-91163480D01*
X135782633Y-91145892D01*
X135775034Y-91145852D01*
X135775033Y-91145852D01*
X135709181Y-91145507D01*
X135624221Y-91145062D01*
X135616841Y-91146834D01*
X135616839Y-91146834D01*
X135477563Y-91180271D01*
X135477560Y-91180272D01*
X135470184Y-91182043D01*
X135329414Y-91254700D01*
X135323695Y-91259689D01*
X135318148Y-91264528D01*
X135210039Y-91358838D01*
X135118950Y-91488444D01*
X135061406Y-91636037D01*
X135040729Y-91793096D01*
X135046466Y-91845062D01*
X135050354Y-91880271D01*
X135058113Y-91950553D01*
X135060723Y-91957684D01*
X135060723Y-91957686D01*
X135101916Y-92070251D01*
X135112553Y-92099319D01*
X135116789Y-92105622D01*
X135116789Y-92105623D01*
X135172443Y-92188444D01*
X135200908Y-92230805D01*
X135206527Y-92235918D01*
X135206528Y-92235919D01*
X135295531Y-92316905D01*
X135318076Y-92337419D01*
X135457293Y-92413008D01*
X135610522Y-92453207D01*
X135694477Y-92454526D01*
X135761319Y-92455576D01*
X135761322Y-92455576D01*
X135768916Y-92455695D01*
X135923332Y-92420329D01*
X136045229Y-92359022D01*
X136058072Y-92352563D01*
X136058075Y-92352561D01*
X136064855Y-92349151D01*
X136070626Y-92344222D01*
X136070629Y-92344220D01*
X136179542Y-92251199D01*
X136179543Y-92251198D01*
X136185314Y-92246269D01*
X136195586Y-92231974D01*
X136251581Y-92188326D01*
X136297909Y-92179500D01*
X147660212Y-92179500D01*
X147679922Y-92181051D01*
X147700000Y-92184231D01*
X147709793Y-92182680D01*
X147719212Y-92182680D01*
X147734995Y-92182003D01*
X147907407Y-92194334D01*
X147925195Y-92196891D01*
X148119566Y-92239175D01*
X148136809Y-92244237D01*
X148174508Y-92258298D01*
X148323198Y-92313757D01*
X148339550Y-92321225D01*
X148514136Y-92416556D01*
X148529260Y-92426276D01*
X148688505Y-92545485D01*
X148702091Y-92557258D01*
X148842742Y-92697909D01*
X148854515Y-92711495D01*
X148973724Y-92870740D01*
X148983444Y-92885864D01*
X149078775Y-93060450D01*
X149086243Y-93076802D01*
X149155762Y-93263188D01*
X149160825Y-93280434D01*
X149200771Y-93464056D01*
X149203108Y-93474801D01*
X149205666Y-93492593D01*
X149217997Y-93665003D01*
X149217320Y-93680788D01*
X149217320Y-93690207D01*
X149215769Y-93700000D01*
X149217320Y-93709792D01*
X149218949Y-93720077D01*
X149220500Y-93739788D01*
X149220500Y-97905187D01*
X149200498Y-97973308D01*
X149177330Y-98000135D01*
X149110039Y-98058838D01*
X149018950Y-98188444D01*
X148961406Y-98336037D01*
X148960414Y-98343570D01*
X148960414Y-98343571D01*
X148941726Y-98485524D01*
X148940729Y-98493096D01*
X148944119Y-98523798D01*
X148955933Y-98630805D01*
X148958113Y-98650553D01*
X148960723Y-98657684D01*
X148960723Y-98657686D01*
X149006299Y-98782228D01*
X149012553Y-98799319D01*
X149100908Y-98930805D01*
X149106527Y-98935918D01*
X149106528Y-98935919D01*
X149212460Y-99032309D01*
X149218076Y-99037419D01*
X149357293Y-99113008D01*
X149510522Y-99153207D01*
X149594477Y-99154526D01*
X149661319Y-99155576D01*
X149661322Y-99155576D01*
X149668916Y-99155695D01*
X149823332Y-99120329D01*
X149893742Y-99084917D01*
X149958072Y-99052563D01*
X149958075Y-99052561D01*
X149964855Y-99049151D01*
X149970626Y-99044222D01*
X149970629Y-99044220D01*
X150079536Y-98951204D01*
X150079536Y-98951203D01*
X150085314Y-98946269D01*
X150177755Y-98817624D01*
X150236842Y-98670641D01*
X150259162Y-98513807D01*
X150259307Y-98500000D01*
X150256316Y-98475279D01*
X150252759Y-98445892D01*
X150240276Y-98342733D01*
X150184280Y-98194546D01*
X150111977Y-98089344D01*
X150098855Y-98070251D01*
X150098854Y-98070249D01*
X150094553Y-98063992D01*
X150021681Y-97999065D01*
X149984126Y-97938816D01*
X149979500Y-97904989D01*
X149979500Y-93739788D01*
X149981051Y-93720077D01*
X149982680Y-93709792D01*
X149984231Y-93700000D01*
X149983317Y-93694229D01*
X149980625Y-93649728D01*
X149967246Y-93428531D01*
X149967245Y-93428526D01*
X149967016Y-93424734D01*
X149917307Y-93153483D01*
X149899186Y-93095329D01*
X149836398Y-92893837D01*
X149835265Y-92890201D01*
X149832375Y-92883778D01*
X149751591Y-92704284D01*
X149722086Y-92638727D01*
X149639809Y-92502624D01*
X149581394Y-92405995D01*
X149581392Y-92405992D01*
X149579420Y-92402730D01*
X149409349Y-92185649D01*
X149214351Y-91990651D01*
X148997270Y-91820580D01*
X148994005Y-91818606D01*
X148764534Y-91679885D01*
X148764530Y-91679883D01*
X148761273Y-91677914D01*
X148635536Y-91621325D01*
X148513275Y-91566299D01*
X148513269Y-91566297D01*
X148509799Y-91564735D01*
X148246517Y-91482693D01*
X147975266Y-91432984D01*
X147971474Y-91432755D01*
X147971469Y-91432754D01*
X147714078Y-91417185D01*
X147714076Y-91417185D01*
X147705771Y-91416683D01*
X147700000Y-91415769D01*
X147679923Y-91418949D01*
X147660212Y-91420500D01*
X137105769Y-91420500D01*
X137037648Y-91400498D01*
X136991155Y-91346842D01*
X136981051Y-91276568D01*
X137003917Y-91226500D01*
X152032191Y-91226500D01*
X157967810Y-91226500D01*
X157967810Y-89373500D01*
X157962491Y-89373500D01*
X157955104Y-89348342D01*
X157950000Y-89312844D01*
X157950000Y-83700000D01*
X152050000Y-83700000D01*
X152050000Y-89313745D01*
X152040004Y-89347790D01*
X152040698Y-89347941D01*
X152035138Y-89373500D01*
X152032191Y-89373500D01*
X152032191Y-91226500D01*
X137003917Y-91226500D01*
X137010545Y-91211988D01*
X137023939Y-91198689D01*
X137079539Y-91151202D01*
X137079542Y-91151199D01*
X137085314Y-91146269D01*
X137095586Y-91131974D01*
X137151581Y-91088326D01*
X137197909Y-91079500D01*
X143360212Y-91079500D01*
X143379922Y-91081051D01*
X143400000Y-91084231D01*
X143405835Y-91083307D01*
X143616468Y-91066730D01*
X143621275Y-91065576D01*
X143621281Y-91065575D01*
X143753927Y-91033729D01*
X143827607Y-91016040D01*
X143832180Y-91014146D01*
X144023643Y-90934840D01*
X144023647Y-90934838D01*
X144028217Y-90932945D01*
X144213357Y-90819491D01*
X144378471Y-90678471D01*
X144519491Y-90513357D01*
X144632945Y-90328217D01*
X144636142Y-90320500D01*
X144714146Y-90132180D01*
X144714147Y-90132178D01*
X144716040Y-90127607D01*
X144754064Y-89969225D01*
X144765575Y-89921281D01*
X144765576Y-89921275D01*
X144766730Y-89916468D01*
X144778222Y-89770452D01*
X144778733Y-89766961D01*
X144779018Y-89766149D01*
X144779500Y-89760584D01*
X144779500Y-89757872D01*
X144779618Y-89755143D01*
X144779658Y-89755145D01*
X144779888Y-89749280D01*
X144782215Y-89719708D01*
X144783307Y-89705835D01*
X144784231Y-89700000D01*
X144781051Y-89679922D01*
X144779500Y-89660212D01*
X144779500Y-88581221D01*
X145316218Y-88581221D01*
X145317423Y-88591559D01*
X145317423Y-88591560D01*
X145328501Y-88686591D01*
X145330827Y-88706547D01*
X145337737Y-88721002D01*
X145380752Y-88810990D01*
X145380754Y-88810992D01*
X145385243Y-88820384D01*
X145473599Y-88910458D01*
X145586369Y-88967055D01*
X145711390Y-88984072D01*
X145721610Y-88982058D01*
X145721611Y-88982058D01*
X145815663Y-88963523D01*
X145835184Y-88959676D01*
X145908682Y-88917158D01*
X145937545Y-88900461D01*
X145937547Y-88900459D01*
X145944400Y-88896495D01*
X145948380Y-88892592D01*
X146899335Y-87783145D01*
X146958853Y-87744441D01*
X147029848Y-87744060D01*
X147089780Y-87782122D01*
X147119619Y-87846544D01*
X147121000Y-87865145D01*
X147121000Y-88560256D01*
X147119449Y-88579966D01*
X147116276Y-88600000D01*
X147117194Y-88605797D01*
X147133905Y-88796798D01*
X147161419Y-88899483D01*
X147179807Y-88968107D01*
X147185034Y-88987616D01*
X147187357Y-88992597D01*
X147187357Y-88992598D01*
X147266196Y-89161670D01*
X147266199Y-89161675D01*
X147268522Y-89166657D01*
X147271679Y-89171165D01*
X147370884Y-89312844D01*
X147381832Y-89328480D01*
X147521520Y-89468168D01*
X147683344Y-89581478D01*
X147688322Y-89583799D01*
X147688325Y-89583801D01*
X147852189Y-89660212D01*
X147862384Y-89664966D01*
X147867692Y-89666388D01*
X147867694Y-89666389D01*
X148047887Y-89714671D01*
X148047888Y-89714671D01*
X148053202Y-89716095D01*
X148250000Y-89733313D01*
X148446798Y-89716095D01*
X148452112Y-89714671D01*
X148452113Y-89714671D01*
X148632306Y-89666389D01*
X148632308Y-89666388D01*
X148637616Y-89664966D01*
X148647811Y-89660212D01*
X148811670Y-89583804D01*
X148811675Y-89583801D01*
X148816657Y-89581478D01*
X148907051Y-89518183D01*
X148973969Y-89471327D01*
X148973972Y-89471325D01*
X148978480Y-89468168D01*
X149118168Y-89328480D01*
X149129117Y-89312844D01*
X149228321Y-89171165D01*
X149231478Y-89166657D01*
X149233801Y-89161675D01*
X149233804Y-89161670D01*
X149312643Y-88992598D01*
X149312643Y-88992597D01*
X149314966Y-88987616D01*
X149320194Y-88968107D01*
X149338581Y-88899483D01*
X149366095Y-88796798D01*
X149382806Y-88605797D01*
X149383724Y-88600000D01*
X149364943Y-88481423D01*
X149310439Y-88374453D01*
X149225547Y-88289561D01*
X149118577Y-88235057D01*
X149108787Y-88233506D01*
X149108786Y-88233506D01*
X149009792Y-88217827D01*
X149000000Y-88216276D01*
X148990208Y-88217827D01*
X148891214Y-88233506D01*
X148891213Y-88233506D01*
X148881423Y-88235057D01*
X148774453Y-88289561D01*
X148689561Y-88374453D01*
X148635057Y-88481423D01*
X148616276Y-88600000D01*
X148617827Y-88609793D01*
X148617827Y-88613053D01*
X148616545Y-88630984D01*
X148608550Y-88686591D01*
X148598446Y-88721002D01*
X148571665Y-88779646D01*
X148569631Y-88784099D01*
X148550242Y-88814269D01*
X148504815Y-88866694D01*
X148477713Y-88890177D01*
X148419358Y-88927679D01*
X148386737Y-88942577D01*
X148320181Y-88962120D01*
X148284682Y-88967224D01*
X148215318Y-88967224D01*
X148179819Y-88962120D01*
X148113263Y-88942577D01*
X148080642Y-88927679D01*
X148022287Y-88890177D01*
X147995185Y-88866694D01*
X147949758Y-88814269D01*
X147930369Y-88784099D01*
X147928336Y-88779646D01*
X147901554Y-88721002D01*
X147891450Y-88686591D01*
X147883455Y-88630984D01*
X147882173Y-88613053D01*
X147882173Y-88609793D01*
X147883724Y-88600000D01*
X147880551Y-88579966D01*
X147879000Y-88560256D01*
X147879000Y-87005000D01*
X147899002Y-86936879D01*
X147952658Y-86890386D01*
X148005000Y-86879000D01*
X148740119Y-86879000D01*
X148808240Y-86899002D01*
X148842648Y-86931763D01*
X149266632Y-87525341D01*
X150196973Y-88827818D01*
X150209897Y-88845912D01*
X150276530Y-88912573D01*
X150389826Y-88968107D01*
X150443402Y-88974887D01*
X150504670Y-88982640D01*
X150504673Y-88982640D01*
X150515002Y-88983947D01*
X150525197Y-88981838D01*
X150525199Y-88981838D01*
X150628368Y-88960497D01*
X150628371Y-88960496D01*
X150638561Y-88958388D01*
X150747179Y-88894184D01*
X150770670Y-88866692D01*
X150788425Y-88845912D01*
X150829144Y-88798256D01*
X150875617Y-88680953D01*
X150881588Y-88554920D01*
X150857688Y-88472590D01*
X150848621Y-88441359D01*
X150848620Y-88441358D01*
X150846411Y-88433747D01*
X150843575Y-88428949D01*
X150066142Y-87340543D01*
X149315628Y-86289823D01*
X149312306Y-86284935D01*
X149312094Y-86284606D01*
X149284197Y-86241401D01*
X149278172Y-86236651D01*
X149273630Y-86231026D01*
X149266112Y-86220500D01*
X148593015Y-85278165D01*
X148569697Y-85211107D01*
X148586335Y-85142087D01*
X148637646Y-85093020D01*
X148707340Y-85079482D01*
X148743763Y-85088520D01*
X148864935Y-85138711D01*
X149020000Y-85159126D01*
X149175065Y-85138711D01*
X149319563Y-85078858D01*
X149443646Y-84983646D01*
X149538858Y-84859563D01*
X149598711Y-84715065D01*
X149619126Y-84560000D01*
X149598711Y-84404935D01*
X149538858Y-84260437D01*
X149443646Y-84136354D01*
X149427523Y-84123982D01*
X149366974Y-84077522D01*
X149319563Y-84041142D01*
X149175065Y-83981289D01*
X149020000Y-83960874D01*
X148864935Y-83981289D01*
X148720437Y-84041142D01*
X148673026Y-84077522D01*
X148612478Y-84123982D01*
X148596354Y-84136354D01*
X148501142Y-84260437D01*
X148441289Y-84404935D01*
X148420874Y-84560000D01*
X148421952Y-84568188D01*
X148421952Y-84568189D01*
X148432019Y-84644656D01*
X148421080Y-84714805D01*
X148373952Y-84767903D01*
X148305598Y-84787093D01*
X148237720Y-84766282D01*
X148204567Y-84734338D01*
X148106662Y-84597271D01*
X147826966Y-84205697D01*
X147818609Y-84192294D01*
X147808556Y-84173663D01*
X147803610Y-84164496D01*
X147794640Y-84156204D01*
X147764606Y-84128441D01*
X147761021Y-84124992D01*
X147730834Y-84094792D01*
X147730830Y-84094789D01*
X147723470Y-84087426D01*
X147716585Y-84084051D01*
X147710957Y-84078849D01*
X147662355Y-84057362D01*
X147657921Y-84055297D01*
X147610174Y-84031893D01*
X147602568Y-84030930D01*
X147595557Y-84027831D01*
X147550519Y-84023930D01*
X147542643Y-84023248D01*
X147537695Y-84022721D01*
X147532171Y-84022022D01*
X147484998Y-84016052D01*
X147477492Y-84017605D01*
X147469853Y-84016943D01*
X147459745Y-84019454D01*
X147459743Y-84019454D01*
X147418298Y-84029749D01*
X147413448Y-84030853D01*
X147361439Y-84041612D01*
X147354840Y-84045513D01*
X147347399Y-84047361D01*
X147331875Y-84057385D01*
X147302772Y-84076177D01*
X147298537Y-84078794D01*
X147261785Y-84100517D01*
X147261783Y-84100519D01*
X147252821Y-84105816D01*
X147247840Y-84111645D01*
X147241401Y-84115803D01*
X147234954Y-84123981D01*
X147234953Y-84123982D01*
X147208521Y-84157512D01*
X147205368Y-84161353D01*
X147170856Y-84201743D01*
X147168032Y-84208871D01*
X147163287Y-84214890D01*
X147159836Y-84224717D01*
X147145693Y-84264991D01*
X147143955Y-84269646D01*
X147124383Y-84319047D01*
X147124020Y-84326708D01*
X147121481Y-84333938D01*
X147121000Y-84339491D01*
X147121000Y-84387467D01*
X147120859Y-84393430D01*
X147118412Y-84445080D01*
X147120570Y-84452512D01*
X147121000Y-84459827D01*
X147121000Y-85183991D01*
X147100998Y-85252112D01*
X147047342Y-85298605D01*
X146977068Y-85308709D01*
X146912488Y-85279215D01*
X146901345Y-85268281D01*
X146864063Y-85226856D01*
X146222903Y-84514457D01*
X145964119Y-84226919D01*
X145964118Y-84226918D01*
X145960644Y-84223058D01*
X145942849Y-84208871D01*
X145895090Y-84170796D01*
X145895088Y-84170795D01*
X145886945Y-84164303D01*
X145768128Y-84121847D01*
X145757716Y-84121708D01*
X145757714Y-84121708D01*
X145705046Y-84121008D01*
X145641964Y-84120168D01*
X145522059Y-84159445D01*
X145513746Y-84165717D01*
X145513747Y-84165717D01*
X145429653Y-84229170D01*
X145429652Y-84229171D01*
X145421340Y-84235443D01*
X145409269Y-84253297D01*
X145362821Y-84321998D01*
X145350670Y-84339970D01*
X145347946Y-84350022D01*
X145347945Y-84350024D01*
X145336989Y-84390454D01*
X145317667Y-84461752D01*
X145325891Y-84587658D01*
X145374456Y-84704112D01*
X145377813Y-84708562D01*
X146921564Y-86423841D01*
X146952266Y-86487854D01*
X146943486Y-86558305D01*
X146923574Y-86590129D01*
X145399108Y-88368674D01*
X145391750Y-88377258D01*
X145342992Y-88457920D01*
X145340783Y-88468091D01*
X145340783Y-88468092D01*
X145337888Y-88481423D01*
X145316218Y-88581221D01*
X144779500Y-88581221D01*
X144779500Y-87169748D01*
X144799502Y-87101627D01*
X144848883Y-87057184D01*
X144849060Y-87057095D01*
X144864855Y-87049151D01*
X144870626Y-87044222D01*
X144870629Y-87044220D01*
X144979536Y-86951204D01*
X144979538Y-86951202D01*
X144985314Y-86946269D01*
X145077755Y-86817624D01*
X145136842Y-86670641D01*
X145159162Y-86513807D01*
X145159307Y-86500000D01*
X145140276Y-86342733D01*
X145084280Y-86194546D01*
X145053825Y-86150234D01*
X144998855Y-86070251D01*
X144998854Y-86070249D01*
X144994553Y-86063992D01*
X144988514Y-86058611D01*
X144958260Y-86031656D01*
X144876275Y-85958611D01*
X144868889Y-85954700D01*
X144742988Y-85888039D01*
X144742989Y-85888039D01*
X144736274Y-85884484D01*
X144582633Y-85845892D01*
X144575034Y-85845852D01*
X144575033Y-85845852D01*
X144509181Y-85845507D01*
X144424221Y-85845062D01*
X144416841Y-85846834D01*
X144416839Y-85846834D01*
X144277563Y-85880271D01*
X144277560Y-85880272D01*
X144270184Y-85882043D01*
X144129414Y-85954700D01*
X144010039Y-86058838D01*
X143918950Y-86188444D01*
X143861406Y-86336037D01*
X143860414Y-86343570D01*
X143860414Y-86343571D01*
X143842998Y-86475863D01*
X143840729Y-86493096D01*
X143858113Y-86650553D01*
X143860723Y-86657684D01*
X143860723Y-86657686D01*
X143897318Y-86757686D01*
X143912553Y-86799319D01*
X143916789Y-86805622D01*
X143916789Y-86805623D01*
X143999082Y-86928088D01*
X144020500Y-86998364D01*
X144020500Y-87088209D01*
X144000498Y-87156330D01*
X143946842Y-87202823D01*
X143876568Y-87212927D01*
X143811988Y-87183433D01*
X143799985Y-87171533D01*
X143798854Y-87170250D01*
X143794553Y-87163992D01*
X143676275Y-87058611D01*
X143668889Y-87054700D01*
X143542988Y-86988039D01*
X143542989Y-86988039D01*
X143536274Y-86984484D01*
X143382633Y-86945892D01*
X143375034Y-86945852D01*
X143375033Y-86945852D01*
X143309181Y-86945507D01*
X143224221Y-86945062D01*
X143216841Y-86946834D01*
X143216839Y-86946834D01*
X143077563Y-86980271D01*
X143077560Y-86980272D01*
X143070184Y-86982043D01*
X142929414Y-87054700D01*
X142810039Y-87158838D01*
X142805672Y-87165051D01*
X142805667Y-87165057D01*
X142804336Y-87166951D01*
X142803013Y-87168005D01*
X142800589Y-87170697D01*
X142800140Y-87170293D01*
X142748802Y-87211183D01*
X142701250Y-87220500D01*
X138871755Y-87220500D01*
X138852044Y-87218949D01*
X138831967Y-87215769D01*
X138822174Y-87217320D01*
X138815873Y-87217320D01*
X138796792Y-87218194D01*
X138706817Y-87212297D01*
X138640150Y-87187883D01*
X138597266Y-87131301D01*
X138591779Y-87060517D01*
X138625433Y-86998004D01*
X138633227Y-86990756D01*
X138679539Y-86951202D01*
X138679542Y-86951199D01*
X138685314Y-86946269D01*
X138695586Y-86931974D01*
X138751581Y-86888326D01*
X138797909Y-86879500D01*
X141960211Y-86879500D01*
X141979921Y-86881051D01*
X141999999Y-86884231D01*
X142008560Y-86882875D01*
X142010789Y-86882680D01*
X142011407Y-86882680D01*
X142012934Y-86882492D01*
X142188169Y-86867162D01*
X142309069Y-86834767D01*
X142365311Y-86819697D01*
X142365313Y-86819696D01*
X142370621Y-86818274D01*
X142426569Y-86792185D01*
X142536825Y-86740772D01*
X142536830Y-86740769D01*
X142541812Y-86738446D01*
X142667336Y-86650553D01*
X142692029Y-86633263D01*
X142692032Y-86633261D01*
X142696540Y-86630104D01*
X142830104Y-86496540D01*
X142833262Y-86492030D01*
X142833267Y-86492024D01*
X142848039Y-86470927D01*
X142903496Y-86426598D01*
X142908886Y-86424891D01*
X142908781Y-86424598D01*
X142915928Y-86422025D01*
X142923332Y-86420329D01*
X143027841Y-86367767D01*
X143058072Y-86352563D01*
X143058075Y-86352561D01*
X143064855Y-86349151D01*
X143070626Y-86344222D01*
X143070629Y-86344220D01*
X143179536Y-86251204D01*
X143179536Y-86251203D01*
X143185314Y-86246269D01*
X143277755Y-86117624D01*
X143336842Y-85970641D01*
X143350801Y-85872557D01*
X143358581Y-85817891D01*
X143358581Y-85817888D01*
X143359162Y-85813807D01*
X143359307Y-85800000D01*
X143340276Y-85642733D01*
X143284280Y-85494546D01*
X143222726Y-85404984D01*
X143198855Y-85370251D01*
X143198854Y-85370249D01*
X143194553Y-85363992D01*
X143076275Y-85258611D01*
X143068889Y-85254700D01*
X142974550Y-85204750D01*
X142936274Y-85184484D01*
X142782633Y-85145892D01*
X142775034Y-85145852D01*
X142775033Y-85145852D01*
X142709181Y-85145507D01*
X142624221Y-85145062D01*
X142616841Y-85146834D01*
X142616839Y-85146834D01*
X142477563Y-85180271D01*
X142477560Y-85180272D01*
X142470184Y-85182043D01*
X142329414Y-85254700D01*
X142210039Y-85358838D01*
X142118950Y-85488444D01*
X142116190Y-85495524D01*
X142079637Y-85589278D01*
X142061406Y-85636037D01*
X142060414Y-85643570D01*
X142060414Y-85643571D01*
X142049159Y-85729065D01*
X142040729Y-85793096D01*
X142045751Y-85838583D01*
X142054935Y-85921764D01*
X142058113Y-85950553D01*
X142060723Y-85957685D01*
X142062458Y-85965082D01*
X142059315Y-85965819D01*
X142062960Y-86022112D01*
X142028516Y-86084194D01*
X141965976Y-86117798D01*
X141940023Y-86120500D01*
X138799682Y-86120500D01*
X138731561Y-86100498D01*
X138705114Y-86074860D01*
X138703878Y-86075949D01*
X138698855Y-86070251D01*
X138694553Y-86063992D01*
X138688514Y-86058611D01*
X138626991Y-86003797D01*
X138589436Y-85943547D01*
X138590415Y-85872557D01*
X138629619Y-85813366D01*
X138662589Y-85793313D01*
X138759264Y-85753269D01*
X138817698Y-85729065D01*
X138817703Y-85729062D01*
X138820966Y-85727711D01*
X139074539Y-85587566D01*
X139310826Y-85419912D01*
X139495699Y-85254700D01*
X139524232Y-85229201D01*
X139526856Y-85226856D01*
X139537802Y-85214608D01*
X139599916Y-85145102D01*
X139719912Y-85010826D01*
X139841930Y-84838857D01*
X139885517Y-84777427D01*
X139885518Y-84777425D01*
X139887566Y-84774539D01*
X140027711Y-84520966D01*
X140032375Y-84509708D01*
X140137229Y-84256566D01*
X140137229Y-84256565D01*
X140138583Y-84253297D01*
X140204639Y-84024012D01*
X140242717Y-83964093D01*
X140255989Y-83953945D01*
X140258063Y-83952567D01*
X140264855Y-83949151D01*
X140385314Y-83846269D01*
X140477755Y-83717624D01*
X140536842Y-83570641D01*
X140548950Y-83485565D01*
X140558581Y-83417891D01*
X140558581Y-83417888D01*
X140559162Y-83413807D01*
X140559307Y-83400000D01*
X140540276Y-83242733D01*
X140484280Y-83094546D01*
X140394553Y-82963992D01*
X140388514Y-82958611D01*
X140309302Y-82888037D01*
X140276275Y-82858611D01*
X140268889Y-82854700D01*
X140142988Y-82788039D01*
X140142989Y-82788039D01*
X140136274Y-82784484D01*
X139982633Y-82745892D01*
X139975034Y-82745852D01*
X139975033Y-82745852D01*
X139909181Y-82745507D01*
X139824221Y-82745062D01*
X139816841Y-82746834D01*
X139816839Y-82746834D01*
X139677563Y-82780271D01*
X139677560Y-82780272D01*
X139670184Y-82782043D01*
X139529414Y-82854700D01*
X139410039Y-82958838D01*
X139318950Y-83088444D01*
X139316190Y-83095524D01*
X139277583Y-83194546D01*
X139261406Y-83236037D01*
X139240729Y-83393096D01*
X139258113Y-83550553D01*
X139260723Y-83557684D01*
X139260723Y-83557686D01*
X139298011Y-83659580D01*
X139312553Y-83699319D01*
X139400908Y-83830805D01*
X139405531Y-83835011D01*
X139434665Y-83899124D01*
X139429227Y-83957321D01*
X139395260Y-84057385D01*
X139384579Y-84088851D01*
X139378272Y-84104078D01*
X139280250Y-84302846D01*
X139272009Y-84317118D01*
X139148890Y-84501380D01*
X139138860Y-84514453D01*
X139074661Y-84587658D01*
X138992733Y-84681079D01*
X138981079Y-84692733D01*
X138814457Y-84838857D01*
X138801380Y-84848890D01*
X138617118Y-84972009D01*
X138602846Y-84980250D01*
X138404078Y-85078272D01*
X138388850Y-85084579D01*
X138363984Y-85093020D01*
X138178999Y-85155814D01*
X138163085Y-85160078D01*
X138088299Y-85174954D01*
X137945721Y-85203314D01*
X137929381Y-85205465D01*
X137735176Y-85218194D01*
X137716094Y-85217320D01*
X137709793Y-85217320D01*
X137700000Y-85215769D01*
X137679923Y-85218949D01*
X137660212Y-85220500D01*
X137520071Y-85220500D01*
X137451950Y-85200498D01*
X137405457Y-85146842D01*
X137395353Y-85076568D01*
X137424847Y-85011988D01*
X137454236Y-84987068D01*
X137608445Y-84892568D01*
X137617907Y-84882110D01*
X137614124Y-84873334D01*
X136762812Y-84022022D01*
X136748868Y-84014408D01*
X136747035Y-84014539D01*
X136740420Y-84018790D01*
X135888920Y-84870290D01*
X135882160Y-84882670D01*
X135887887Y-84890320D01*
X136045764Y-84987068D01*
X136093395Y-85039715D01*
X136105002Y-85109757D01*
X136076899Y-85174954D01*
X136018008Y-85214608D01*
X135979929Y-85220500D01*
X131020071Y-85220500D01*
X130951950Y-85200498D01*
X130905457Y-85146842D01*
X130895353Y-85076568D01*
X130924847Y-85011988D01*
X130954236Y-84987068D01*
X131108445Y-84892568D01*
X131117907Y-84882110D01*
X131114124Y-84873334D01*
X129891922Y-83651132D01*
X130614408Y-83651132D01*
X130614539Y-83652965D01*
X130618790Y-83659580D01*
X131470290Y-84511080D01*
X131482670Y-84517840D01*
X131490320Y-84512113D01*
X131595205Y-84340958D01*
X131599687Y-84332163D01*
X131686734Y-84122012D01*
X131689783Y-84112627D01*
X131742885Y-83891446D01*
X131744428Y-83881699D01*
X131762275Y-83654930D01*
X135237725Y-83654930D01*
X135255572Y-83881699D01*
X135257115Y-83891446D01*
X135310217Y-84112627D01*
X135313266Y-84122012D01*
X135400313Y-84332163D01*
X135404795Y-84340958D01*
X135507432Y-84508445D01*
X135517890Y-84517907D01*
X135526666Y-84514124D01*
X136377978Y-83662812D01*
X136384356Y-83651132D01*
X137114408Y-83651132D01*
X137114539Y-83652965D01*
X137118790Y-83659580D01*
X137970290Y-84511080D01*
X137982670Y-84517840D01*
X137990320Y-84512113D01*
X138095205Y-84340958D01*
X138099687Y-84332163D01*
X138186734Y-84122012D01*
X138189783Y-84112627D01*
X138242885Y-83891446D01*
X138244428Y-83881699D01*
X138262275Y-83654930D01*
X138262275Y-83645070D01*
X138244428Y-83418301D01*
X138242885Y-83408554D01*
X138189783Y-83187373D01*
X138186734Y-83177988D01*
X138099687Y-82967837D01*
X138095205Y-82959042D01*
X137992568Y-82791555D01*
X137982110Y-82782093D01*
X137973334Y-82785876D01*
X137122022Y-83637188D01*
X137114408Y-83651132D01*
X136384356Y-83651132D01*
X136385592Y-83648868D01*
X136385461Y-83647035D01*
X136381210Y-83640420D01*
X135529710Y-82788920D01*
X135517330Y-82782160D01*
X135509680Y-82787887D01*
X135404795Y-82959042D01*
X135400313Y-82967837D01*
X135313266Y-83177988D01*
X135310217Y-83187373D01*
X135257115Y-83408554D01*
X135255572Y-83418301D01*
X135237725Y-83645070D01*
X135237725Y-83654930D01*
X131762275Y-83654930D01*
X131762275Y-83645070D01*
X131744428Y-83418301D01*
X131742885Y-83408554D01*
X131689783Y-83187373D01*
X131686734Y-83177988D01*
X131599687Y-82967837D01*
X131595205Y-82959042D01*
X131492568Y-82791555D01*
X131482110Y-82782093D01*
X131473334Y-82785876D01*
X130622022Y-83637188D01*
X130614408Y-83651132D01*
X129891922Y-83651132D01*
X129029710Y-82788920D01*
X129017330Y-82782160D01*
X129009680Y-82787887D01*
X128935333Y-82909209D01*
X128882686Y-82956840D01*
X128812644Y-82968447D01*
X128768945Y-82954730D01*
X128636274Y-82884484D01*
X128482633Y-82845892D01*
X128475034Y-82845852D01*
X128475033Y-82845852D01*
X128409181Y-82845507D01*
X128324221Y-82845062D01*
X128316841Y-82846834D01*
X128316839Y-82846834D01*
X128177563Y-82880271D01*
X128177560Y-82880272D01*
X128170184Y-82882043D01*
X128029414Y-82954700D01*
X127910039Y-83058838D01*
X127818950Y-83188444D01*
X127761406Y-83336037D01*
X127760414Y-83343570D01*
X127760414Y-83343571D01*
X127751711Y-83409682D01*
X127740729Y-83493096D01*
X120254000Y-83493096D01*
X120254000Y-82380000D01*
X120274002Y-82311879D01*
X120327658Y-82265386D01*
X120380000Y-82254000D01*
X129259678Y-82254000D01*
X129327799Y-82274002D01*
G37*
%TD.AperFunction*%
%TD*%
M02*
