%TF.GenerationSoftware,KiCad,Pcbnew,(6.0.1-0)*%
%TF.CreationDate,2022-01-24T08:29:13+00:00*%
%TF.ProjectId,ASR33,41535233-332e-46b6-9963-61645f706362,1*%
%TF.SameCoordinates,Original*%
%TF.FileFunction,Soldermask,Top*%
%TF.FilePolarity,Negative*%
%FSLAX46Y46*%
G04 Gerber Fmt 4.6, Leading zero omitted, Abs format (unit mm)*
G04 Created by KiCad (PCBNEW (6.0.1-0)) date 2022-01-24 08:29:13*
%MOMM*%
%LPD*%
G01*
G04 APERTURE LIST*
G04 Aperture macros list*
%AMRoundRect*
0 Rectangle with rounded corners*
0 $1 Rounding radius*
0 $2 $3 $4 $5 $6 $7 $8 $9 X,Y pos of 4 corners*
0 Add a 4 corners polygon primitive as box body*
4,1,4,$2,$3,$4,$5,$6,$7,$8,$9,$2,$3,0*
0 Add four circle primitives for the rounded corners*
1,1,$1+$1,$2,$3*
1,1,$1+$1,$4,$5*
1,1,$1+$1,$6,$7*
1,1,$1+$1,$8,$9*
0 Add four rect primitives between the rounded corners*
20,1,$1+$1,$2,$3,$4,$5,0*
20,1,$1+$1,$4,$5,$6,$7,0*
20,1,$1+$1,$6,$7,$8,$9,0*
20,1,$1+$1,$8,$9,$2,$3,0*%
%AMFreePoly0*
4,1,6,1.000000,-1.000000,-1.000000,-1.000000,-1.000000,0.750000,-0.750000,1.000000,1.000000,1.000000,1.000000,-1.000000,1.000000,-1.000000,$1*%
G04 Aperture macros list end*
%ADD10RoundRect,0.250000X-0.600000X-0.675000X0.600000X-0.675000X0.600000X0.675000X-0.600000X0.675000X0*%
%ADD11O,1.700000X1.850000*%
%ADD12RoundRect,0.225000X0.250000X-0.225000X0.250000X0.225000X-0.250000X0.225000X-0.250000X-0.225000X0*%
%ADD13RoundRect,0.150000X-0.587500X-0.150000X0.587500X-0.150000X0.587500X0.150000X-0.587500X0.150000X0*%
%ADD14R,0.600000X1.140000*%
%ADD15RoundRect,0.075000X-0.075000X-0.495000X0.075000X-0.495000X0.075000X0.495000X-0.075000X0.495000X0*%
%ADD16C,1.250000*%
%ADD17C,1.500000*%
%ADD18R,5.000000X5.490000*%
%ADD19C,0.800000*%
%ADD20RoundRect,0.062500X-0.287500X-0.062500X0.287500X-0.062500X0.287500X0.062500X-0.287500X0.062500X0*%
%ADD21RoundRect,0.062500X-0.062500X-0.287500X0.062500X-0.287500X0.062500X0.287500X-0.062500X0.287500X0*%
%ADD22C,0.350000*%
%ADD23FreePoly0,0.000000*%
%ADD24R,0.900000X2.000000*%
%ADD25R,2.000000X0.900000*%
%ADD26R,5.000000X5.000000*%
%ADD27RoundRect,0.200000X0.275000X-0.200000X0.275000X0.200000X-0.275000X0.200000X-0.275000X-0.200000X0*%
%ADD28RoundRect,0.225000X-0.250000X0.225000X-0.250000X-0.225000X0.250000X-0.225000X0.250000X0.225000X0*%
%ADD29RoundRect,0.200000X0.200000X0.275000X-0.200000X0.275000X-0.200000X-0.275000X0.200000X-0.275000X0*%
%ADD30RoundRect,0.200000X-0.200000X-0.275000X0.200000X-0.275000X0.200000X0.275000X-0.200000X0.275000X0*%
%ADD31R,0.500000X0.850000*%
%ADD32RoundRect,0.225000X-0.225000X-0.250000X0.225000X-0.250000X0.225000X0.250000X-0.225000X0.250000X0*%
%ADD33RoundRect,0.225000X0.225000X0.250000X-0.225000X0.250000X-0.225000X-0.250000X0.225000X-0.250000X0*%
%ADD34RoundRect,0.137500X-0.262500X-0.137500X0.262500X-0.137500X0.262500X0.137500X-0.262500X0.137500X0*%
%ADD35R,0.650000X0.400000*%
%ADD36RoundRect,0.200000X-0.275000X0.200000X-0.275000X-0.200000X0.275000X-0.200000X0.275000X0.200000X0*%
%ADD37R,1.100000X0.600000*%
%ADD38R,3.700000X1.425000*%
%ADD39RoundRect,0.249375X0.625625X-0.463125X0.625625X0.463125X-0.625625X0.463125X-0.625625X-0.463125X0*%
%ADD40RoundRect,0.250000X-0.250000X-0.475000X0.250000X-0.475000X0.250000X0.475000X-0.250000X0.475000X0*%
G04 APERTURE END LIST*
D10*
%TO.C,J3*%
X135000000Y-136400000D03*
D11*
X137500000Y-136400000D03*
X140000000Y-136400000D03*
X142500000Y-136400000D03*
X145000000Y-136400000D03*
X147500000Y-136400000D03*
%TD*%
D12*
%TO.C,C5*%
X145000000Y-132775000D03*
X145000000Y-131225000D03*
%TD*%
D10*
%TO.C,J2*%
X152500000Y-136400000D03*
D11*
X155000000Y-136400000D03*
X157500000Y-136400000D03*
%TD*%
D13*
%TO.C,Q1*%
X141437500Y-132000000D03*
X139562500Y-132950000D03*
X139562500Y-131050000D03*
%TD*%
D14*
%TO.C,J1*%
X120300000Y-136140000D03*
X121100000Y-136140000D03*
D15*
X122250000Y-136140000D03*
X123250000Y-136140000D03*
X123750000Y-136140000D03*
X124750000Y-136140000D03*
D14*
X126700000Y-136140000D03*
X125900000Y-136140000D03*
D15*
X125250000Y-136140000D03*
X124250000Y-136140000D03*
X122750000Y-136140000D03*
X121750000Y-136140000D03*
D16*
X127820000Y-140890000D03*
X119180000Y-140890000D03*
D17*
X127820000Y-136720000D03*
D18*
X123500000Y-140255000D03*
D19*
X126390000Y-137210000D03*
D17*
X119180000Y-136720000D03*
D19*
X120610000Y-137210000D03*
%TD*%
D20*
%TO.C,U2*%
X125300000Y-125300000D03*
X125300000Y-125800000D03*
X125300000Y-126300000D03*
X125300000Y-126800000D03*
X125300000Y-127300000D03*
D21*
X126200000Y-128200000D03*
X126700000Y-128200000D03*
X127200000Y-128200000D03*
X127700000Y-128200000D03*
X128200000Y-128200000D03*
D20*
X129100000Y-127300000D03*
X129100000Y-126800000D03*
X129100000Y-126300000D03*
X129100000Y-125800000D03*
X129100000Y-125300000D03*
D21*
X128200000Y-124400000D03*
X127700000Y-124400000D03*
X127200000Y-124400000D03*
X126700000Y-124400000D03*
X126200000Y-124400000D03*
D22*
X127200000Y-126300000D03*
D23*
X127200000Y-126300000D03*
%TD*%
D24*
%TO.C,U1*%
X152890000Y-109000000D03*
X151620000Y-109000000D03*
X150350000Y-109000000D03*
X149080000Y-109000000D03*
X147810000Y-109000000D03*
X146540000Y-109000000D03*
X145270000Y-109000000D03*
X144000000Y-109000000D03*
X142730000Y-109000000D03*
X141460000Y-109000000D03*
X140190000Y-109000000D03*
X138920000Y-109000000D03*
X137650000Y-109000000D03*
X136380000Y-109000000D03*
D25*
X135380000Y-111785000D03*
X135380000Y-113055000D03*
X135380000Y-114325000D03*
X135380000Y-115595000D03*
X135380000Y-116865000D03*
X135380000Y-118135000D03*
X135380000Y-119405000D03*
X135380000Y-120675000D03*
X135380000Y-121945000D03*
X135380000Y-123215000D03*
D24*
X136380000Y-126000000D03*
X137650000Y-126000000D03*
X138920000Y-126000000D03*
X140190000Y-126000000D03*
X141460000Y-126000000D03*
X142730000Y-126000000D03*
X144000000Y-126000000D03*
X145270000Y-126000000D03*
X146540000Y-126000000D03*
X147810000Y-126000000D03*
X149080000Y-126000000D03*
X150350000Y-126000000D03*
X151620000Y-126000000D03*
X152890000Y-126000000D03*
D26*
X145390000Y-116500000D03*
%TD*%
D27*
%TO.C,R3*%
X123800000Y-111825000D03*
X123800000Y-110175000D03*
%TD*%
D28*
%TO.C,C1*%
X123100000Y-124225000D03*
X123100000Y-125775000D03*
%TD*%
D29*
%TO.C,R5*%
X126700000Y-134700000D03*
X125050000Y-134700000D03*
%TD*%
%TO.C,R4*%
X121950000Y-134700000D03*
X120300000Y-134700000D03*
%TD*%
D30*
%TO.C,R6*%
X124175000Y-131400000D03*
X125825000Y-131400000D03*
%TD*%
%TO.C,R7*%
X121475000Y-131400000D03*
X123125000Y-131400000D03*
%TD*%
D31*
%TO.C,D1*%
X121600000Y-110125000D03*
X121600000Y-111875000D03*
X120600000Y-111875000D03*
X120600000Y-110125000D03*
%TD*%
D27*
%TO.C,R1*%
X122600000Y-111825000D03*
X122600000Y-110175000D03*
%TD*%
%TO.C,R2*%
X125000000Y-111825000D03*
X125000000Y-110175000D03*
%TD*%
D32*
%TO.C,C4*%
X118925000Y-133500000D03*
X120475000Y-133500000D03*
%TD*%
%TO.C,C2*%
X124225000Y-132600000D03*
X125775000Y-132600000D03*
%TD*%
D33*
%TO.C,C3*%
X123075000Y-132600000D03*
X121525000Y-132600000D03*
%TD*%
D34*
%TO.C,U4*%
X132200000Y-131050000D03*
X132200000Y-132000000D03*
X132200000Y-132950000D03*
X129800000Y-132950000D03*
X129800000Y-132000000D03*
X129800000Y-131050000D03*
%TD*%
%TO.C,U3*%
X136200000Y-131050000D03*
X136200000Y-132000000D03*
X136200000Y-132950000D03*
X133800000Y-132950000D03*
X133800000Y-132000000D03*
X133800000Y-131050000D03*
%TD*%
D35*
%TO.C,D2*%
X151050000Y-131350000D03*
X151050000Y-132000000D03*
X151050000Y-132650000D03*
X152950000Y-132650000D03*
X152950000Y-132000000D03*
X152950000Y-131350000D03*
%TD*%
D27*
%TO.C,R10*%
X118900000Y-122925000D03*
X118900000Y-121275000D03*
%TD*%
%TO.C,R9*%
X143400000Y-132825000D03*
X143400000Y-131175000D03*
%TD*%
D35*
%TO.C,D3*%
X147050000Y-131350000D03*
X147050000Y-132000000D03*
X147050000Y-132650000D03*
X148950000Y-132650000D03*
X148950000Y-132000000D03*
X148950000Y-131350000D03*
%TD*%
D36*
%TO.C,R8*%
X118900000Y-118175000D03*
X118900000Y-119825000D03*
%TD*%
D33*
%TO.C,U5*%
X123425000Y-122400000D03*
D37*
X121050000Y-119350000D03*
D38*
X122450000Y-117900000D03*
D39*
X125570000Y-119502500D03*
D33*
X121875000Y-122400000D03*
D37*
X123750000Y-119350000D03*
X123750000Y-121250000D03*
D40*
X125000000Y-121150000D03*
D37*
X123750000Y-120300000D03*
X121050000Y-120300000D03*
D40*
X126900000Y-114900000D03*
X126900000Y-121150000D03*
D39*
X125570000Y-116537500D03*
D40*
X125000000Y-114900000D03*
D38*
X122450000Y-114900000D03*
D37*
X121050000Y-121250000D03*
%TD*%
M02*
