%TF.GenerationSoftware,KiCad,Pcbnew,(6.0.1-0)*%
%TF.CreationDate,2022-01-28T16:09:34+00:00*%
%TF.ProjectId,ASR33,41535233-332e-46b6-9963-61645f706362,1*%
%TF.SameCoordinates,Original*%
%TF.FileFunction,Paste,Top*%
%TF.FilePolarity,Positive*%
%FSLAX46Y46*%
G04 Gerber Fmt 4.6, Leading zero omitted, Abs format (unit mm)*
G04 Created by KiCad (PCBNEW (6.0.1-0)) date 2022-01-28 16:09:34*
%MOMM*%
%LPD*%
G01*
G04 APERTURE LIST*
G04 Aperture macros list*
%AMRoundRect*
0 Rectangle with rounded corners*
0 $1 Rounding radius*
0 $2 $3 $4 $5 $6 $7 $8 $9 X,Y pos of 4 corners*
0 Add a 4 corners polygon primitive as box body*
4,1,4,$2,$3,$4,$5,$6,$7,$8,$9,$2,$3,0*
0 Add four circle primitives for the rounded corners*
1,1,$1+$1,$2,$3*
1,1,$1+$1,$4,$5*
1,1,$1+$1,$6,$7*
1,1,$1+$1,$8,$9*
0 Add four rect primitives between the rounded corners*
20,1,$1+$1,$2,$3,$4,$5,0*
20,1,$1+$1,$4,$5,$6,$7,0*
20,1,$1+$1,$6,$7,$8,$9,0*
20,1,$1+$1,$8,$9,$2,$3,0*%
G04 Aperture macros list end*
%ADD10RoundRect,0.184000X-0.200000X-0.272000X0.200000X-0.272000X0.200000X0.272000X-0.200000X0.272000X0*%
%ADD11RoundRect,0.227000X0.637000X-0.325000X0.637000X0.325000X-0.637000X0.325000X-0.637000X-0.325000X0*%
%ADD12RoundRect,0.232500X-0.232500X-0.232500X0.232500X-0.232500X0.232500X0.232500X-0.232500X0.232500X0*%
%ADD13R,0.420000X0.798000*%
%ADD14RoundRect,0.069000X-0.075000X-0.478200X0.075000X-0.478200X0.075000X0.478200X-0.075000X0.478200X0*%
%ADD15RoundRect,0.186000X-0.189000X-0.189000X0.189000X-0.189000X0.189000X0.189000X-0.189000X0.189000X0*%
%ADD16RoundRect,0.048500X-0.287500X-0.071500X0.287500X-0.071500X0.287500X0.071500X-0.287500X0.071500X0*%
%ADD17RoundRect,0.057500X-0.062500X-0.278500X0.062500X-0.278500X0.062500X0.278500X-0.062500X0.278500X0*%
%ADD18RoundRect,0.232500X-0.232500X0.232500X-0.232500X-0.232500X0.232500X-0.232500X0.232500X0.232500X0*%
%ADD19R,0.864000X1.920000*%
%ADD20R,1.920000X0.864000*%
%ADD21RoundRect,0.184000X0.272000X-0.200000X0.272000X0.200000X-0.272000X0.200000X-0.272000X-0.200000X0*%
%ADD22RoundRect,0.207000X-0.249000X0.225000X-0.249000X-0.225000X0.249000X-0.225000X0.249000X0.225000X0*%
%ADD23RoundRect,0.184000X0.200000X0.272000X-0.200000X0.272000X-0.200000X-0.272000X0.200000X-0.272000X0*%
%ADD24R,0.480000X0.816000*%
%ADD25RoundRect,0.207000X-0.225000X-0.249000X0.225000X-0.249000X0.225000X0.249000X-0.225000X0.249000X0*%
%ADD26RoundRect,0.207000X0.225000X0.249000X-0.225000X0.249000X-0.225000X-0.249000X0.225000X-0.249000X0*%
%ADD27RoundRect,0.121500X0.142500X-0.262500X0.142500X0.262500X-0.142500X0.262500X-0.142500X-0.262500X0*%
%ADD28R,0.624000X0.384000*%
%ADD29RoundRect,0.120500X-0.587500X-0.167500X0.587500X-0.167500X0.587500X0.167500X-0.587500X0.167500X0*%
%ADD30R,1.920000X0.614400*%
%ADD31RoundRect,0.184000X-0.272000X0.200000X-0.272000X-0.200000X0.272000X-0.200000X0.272000X0.200000X0*%
%ADD32RoundRect,0.250000X0.250000X-0.350000X0.250000X0.350000X-0.250000X0.350000X-0.250000X-0.350000X0*%
%ADD33RoundRect,0.220875X0.619125X-0.463125X0.619125X0.463125X-0.619125X0.463125X-0.619125X-0.463125X0*%
%ADD34R,1.056000X0.576000*%
%ADD35RoundRect,0.230000X-0.250000X-0.466000X0.250000X-0.466000X0.250000X0.466000X-0.250000X0.466000X0*%
G04 APERTURE END LIST*
D10*
%TO.C,R10*%
X130100000Y-136750000D03*
X131750000Y-136750000D03*
%TD*%
D11*
%TO.C,C5*%
X130500000Y-141475000D03*
X130500000Y-138525000D03*
%TD*%
D12*
%TO.C,J1*%
X125215000Y-138565000D03*
X122915000Y-140865000D03*
X125215000Y-140865000D03*
X124065000Y-140865000D03*
X122915000Y-139715000D03*
X121765000Y-139715000D03*
X122915000Y-138565000D03*
X124065000Y-139715000D03*
X124065000Y-138565000D03*
X121765000Y-138565000D03*
X121765000Y-140865000D03*
X125215000Y-139715000D03*
D13*
X120300000Y-136140000D03*
X121100000Y-136140000D03*
D14*
X122250000Y-136140000D03*
X123250000Y-136140000D03*
X123750000Y-136140000D03*
X124750000Y-136140000D03*
D13*
X126700000Y-136140000D03*
X125900000Y-136140000D03*
D14*
X125250000Y-136140000D03*
X124250000Y-136140000D03*
X122750000Y-136140000D03*
X121750000Y-136140000D03*
%TD*%
D15*
%TO.C,U2*%
X126700000Y-125800000D03*
X126700000Y-126800000D03*
X127700000Y-126800000D03*
X127700000Y-125800000D03*
D16*
X125300000Y-125300000D03*
X125300000Y-125800000D03*
X125300000Y-126300000D03*
X125300000Y-126800000D03*
X125300000Y-127300000D03*
D17*
X126200000Y-128200000D03*
X126700000Y-128200000D03*
X127200000Y-128200000D03*
X127700000Y-128200000D03*
X128200000Y-128200000D03*
D16*
X129100000Y-127300000D03*
X129100000Y-126800000D03*
X129100000Y-126300000D03*
X129100000Y-125800000D03*
X129100000Y-125300000D03*
D17*
X128200000Y-124400000D03*
X127700000Y-124400000D03*
X127200000Y-124400000D03*
X126700000Y-124400000D03*
X126200000Y-124400000D03*
%TD*%
D18*
%TO.C,U1*%
X145970000Y-115915000D03*
X143670000Y-115915000D03*
X144820000Y-118215000D03*
X143670000Y-117065000D03*
X145970000Y-118215000D03*
X145970000Y-117065000D03*
X143670000Y-114765000D03*
X147120000Y-114765000D03*
X144820000Y-117065000D03*
X143670000Y-118215000D03*
X147120000Y-118215000D03*
X144820000Y-114765000D03*
X144820000Y-115915000D03*
X147120000Y-117065000D03*
X147120000Y-115915000D03*
X145970000Y-114765000D03*
D19*
X152890000Y-109000000D03*
X151620000Y-109000000D03*
X150350000Y-109000000D03*
X149080000Y-109000000D03*
X147810000Y-109000000D03*
X146540000Y-109000000D03*
X145270000Y-109000000D03*
X144000000Y-109000000D03*
X142730000Y-109000000D03*
X141460000Y-109000000D03*
X140190000Y-109000000D03*
X138920000Y-109000000D03*
X137650000Y-109000000D03*
X136380000Y-109000000D03*
D20*
X135380000Y-111785000D03*
X135380000Y-113055000D03*
X135380000Y-114325000D03*
X135380000Y-115595000D03*
X135380000Y-116865000D03*
X135380000Y-118135000D03*
X135380000Y-119405000D03*
X135380000Y-120675000D03*
X135380000Y-121945000D03*
X135380000Y-123215000D03*
D19*
X136380000Y-126000000D03*
X137650000Y-126000000D03*
X138920000Y-126000000D03*
X140190000Y-126000000D03*
X141460000Y-126000000D03*
X142730000Y-126000000D03*
X144000000Y-126000000D03*
X145270000Y-126000000D03*
X146540000Y-126000000D03*
X147810000Y-126000000D03*
X149080000Y-126000000D03*
X150350000Y-126000000D03*
X151620000Y-126000000D03*
X152890000Y-126000000D03*
%TD*%
D21*
%TO.C,R3*%
X123800000Y-111825000D03*
X123800000Y-110175000D03*
%TD*%
D22*
%TO.C,C1*%
X123100000Y-124225000D03*
X123100000Y-125775000D03*
%TD*%
D23*
%TO.C,R5*%
X126700000Y-134700000D03*
X125050000Y-134700000D03*
%TD*%
%TO.C,R4*%
X121950000Y-134700000D03*
X120300000Y-134700000D03*
%TD*%
D10*
%TO.C,R6*%
X124175000Y-131400000D03*
X125825000Y-131400000D03*
%TD*%
%TO.C,R7*%
X121475000Y-131400000D03*
X123125000Y-131400000D03*
%TD*%
D24*
%TO.C,D1*%
X121600000Y-110125000D03*
X121600000Y-111875000D03*
X120600000Y-111875000D03*
X120600000Y-110125000D03*
%TD*%
D21*
%TO.C,R1*%
X122600000Y-111825000D03*
X122600000Y-110175000D03*
%TD*%
%TO.C,R2*%
X125000000Y-111825000D03*
X125000000Y-110175000D03*
%TD*%
D25*
%TO.C,C4*%
X118925000Y-133500000D03*
X120475000Y-133500000D03*
%TD*%
%TO.C,C2*%
X124225000Y-132600000D03*
X125775000Y-132600000D03*
%TD*%
D26*
%TO.C,C3*%
X123075000Y-132600000D03*
X121525000Y-132600000D03*
%TD*%
D27*
%TO.C,U4*%
X131300000Y-134200000D03*
X132250000Y-134200000D03*
X133200000Y-134200000D03*
X133200000Y-131800000D03*
X132250000Y-131800000D03*
X131300000Y-131800000D03*
%TD*%
%TO.C,U3*%
X131300000Y-129950000D03*
X132250000Y-129950000D03*
X133200000Y-129950000D03*
X133200000Y-127550000D03*
X132250000Y-127550000D03*
X131300000Y-127550000D03*
%TD*%
D28*
%TO.C,D2*%
X149600000Y-128350000D03*
X149600000Y-129000000D03*
X149600000Y-129650000D03*
X151500000Y-129650000D03*
X151500000Y-129000000D03*
X151500000Y-128350000D03*
%TD*%
D29*
%TO.C,Q1*%
X144812500Y-131550000D03*
X144812500Y-133450000D03*
X146687500Y-132500000D03*
%TD*%
D22*
%TO.C,C9*%
X135000000Y-127975000D03*
X135000000Y-129525000D03*
%TD*%
D21*
%TO.C,R9*%
X119000000Y-125925000D03*
X119000000Y-124275000D03*
%TD*%
D28*
%TO.C,D3*%
X149600000Y-131850000D03*
X149600000Y-132500000D03*
X149600000Y-133150000D03*
X151500000Y-133150000D03*
X151500000Y-132500000D03*
X151500000Y-131850000D03*
%TD*%
D30*
%TO.C,U6*%
X135850000Y-131230000D03*
X135850000Y-133770000D03*
X142150000Y-133770000D03*
X142150000Y-131230000D03*
%TD*%
D31*
%TO.C,R8*%
X119000000Y-121175000D03*
X119000000Y-122825000D03*
%TD*%
D32*
%TO.C,U5*%
X121850000Y-117400000D03*
X121850000Y-114400000D03*
D26*
X122825000Y-121900000D03*
X121275000Y-121900000D03*
D33*
X124970000Y-119002500D03*
D34*
X123150000Y-118850000D03*
X120450000Y-118850000D03*
D32*
X123000000Y-114400000D03*
X120700000Y-114400000D03*
X120700000Y-117400000D03*
X123000000Y-117400000D03*
D34*
X123150000Y-120750000D03*
X123150000Y-119800000D03*
D35*
X124400000Y-120650000D03*
X126300000Y-120650000D03*
D34*
X120450000Y-119800000D03*
D33*
X124970000Y-116037500D03*
D35*
X126300000Y-114400000D03*
X124400000Y-114400000D03*
D34*
X120450000Y-120750000D03*
%TD*%
M02*
