%TF.GenerationSoftware,KiCad,Pcbnew,(6.0.2-0)*%
%TF.CreationDate,2022-02-20T11:32:36+00:00*%
%TF.ProjectId,ASR33,41535233-332e-46b6-9963-61645f706362,1*%
%TF.SameCoordinates,Original*%
%TF.FileFunction,Copper,L2,Bot*%
%TF.FilePolarity,Positive*%
%FSLAX46Y46*%
G04 Gerber Fmt 4.6, Leading zero omitted, Abs format (unit mm)*
G04 Created by KiCad (PCBNEW (6.0.2-0)) date 2022-02-20 11:32:36*
%MOMM*%
%LPD*%
G01*
G04 APERTURE LIST*
G04 Aperture macros list*
%AMRoundRect*
0 Rectangle with rounded corners*
0 $1 Rounding radius*
0 $2 $3 $4 $5 $6 $7 $8 $9 X,Y pos of 4 corners*
0 Add a 4 corners polygon primitive as box body*
4,1,4,$2,$3,$4,$5,$6,$7,$8,$9,$2,$3,0*
0 Add four circle primitives for the rounded corners*
1,1,$1+$1,$2,$3*
1,1,$1+$1,$4,$5*
1,1,$1+$1,$6,$7*
1,1,$1+$1,$8,$9*
0 Add four rect primitives between the rounded corners*
20,1,$1+$1,$2,$3,$4,$5,0*
20,1,$1+$1,$4,$5,$6,$7,0*
20,1,$1+$1,$6,$7,$8,$9,0*
20,1,$1+$1,$8,$9,$2,$3,0*%
G04 Aperture macros list end*
%ADD10C,0.100000*%
%TA.AperFunction,NonConductor*%
%ADD11C,0.100000*%
%TD*%
%TA.AperFunction,EtchedComponent*%
%ADD12C,0.080000*%
%TD*%
%TA.AperFunction,EtchedComponent*%
%ADD13C,0.250000*%
%TD*%
%TA.AperFunction,ComponentPad*%
%ADD14C,1.250000*%
%TD*%
%TA.AperFunction,ComponentPad*%
%ADD15C,0.600000*%
%TD*%
%TA.AperFunction,ComponentPad*%
%ADD16C,1.500000*%
%TD*%
%TA.AperFunction,ComponentPad*%
%ADD17C,0.350000*%
%TD*%
%TA.AperFunction,ComponentPad*%
%ADD18RoundRect,0.250000X-0.600000X-0.675000X0.600000X-0.675000X0.600000X0.675000X-0.600000X0.675000X0*%
%TD*%
%TA.AperFunction,ComponentPad*%
%ADD19O,1.700000X1.850000*%
%TD*%
%TA.AperFunction,ComponentPad*%
%ADD20C,2.000000*%
%TD*%
%TA.AperFunction,SMDPad,CuDef*%
%ADD21RoundRect,0.256250X-0.256250X-0.443750X0.256250X-0.443750X0.256250X0.443750X-0.256250X0.443750X0*%
%TD*%
%TA.AperFunction,SMDPad,CuDef*%
%ADD22RoundRect,0.247500X-0.315000X-0.627500X0.315000X-0.627500X0.315000X0.627500X-0.315000X0.627500X0*%
%TD*%
%TA.AperFunction,SMDPad,CuDef*%
%ADD23R,0.400000X0.200000*%
%TD*%
%TA.AperFunction,SMDPad,CuDef*%
%ADD24R,0.200000X0.200000*%
%TD*%
%TA.AperFunction,SMDPad,CuDef*%
%ADD25R,1.000000X0.200000*%
%TD*%
%TA.AperFunction,SMDPad,CuDef*%
%ADD26R,0.200000X0.400000*%
%TD*%
%TA.AperFunction,SMDPad,CuDef*%
%ADD27R,0.600000X0.200000*%
%TD*%
%TA.AperFunction,SMDPad,CuDef*%
%ADD28R,0.800000X0.200000*%
%TD*%
%TA.AperFunction,SMDPad,CuDef*%
%ADD29R,0.200000X0.800000*%
%TD*%
%TA.AperFunction,SMDPad,CuDef*%
%ADD30R,0.600000X0.600000*%
%TD*%
%TA.AperFunction,SMDPad,CuDef*%
%ADD31R,0.200000X1.200000*%
%TD*%
%TA.AperFunction,SMDPad,CuDef*%
%ADD32R,1.400000X0.200000*%
%TD*%
%TA.AperFunction,SMDPad,CuDef*%
%ADD33R,0.400000X0.400000*%
%TD*%
%TA.AperFunction,SMDPad,CuDef*%
%ADD34R,0.200000X1.000000*%
%TD*%
%TA.AperFunction,SMDPad,CuDef*%
%ADD35R,0.200000X0.600000*%
%TD*%
%TA.AperFunction,ViaPad*%
%ADD36C,0.800000*%
%TD*%
%TA.AperFunction,Conductor*%
%ADD37C,0.250000*%
%TD*%
%TA.AperFunction,Conductor*%
%ADD38C,0.500000*%
%TD*%
G04 APERTURE END LIST*
D10*
D11*
X149880952Y-117023809D02*
X149880952Y-117976190D01*
X150166666Y-117214285D02*
X150166666Y-117785714D01*
X149452380Y-117500000D02*
X149880952Y-117500000D01*
X150452380Y-117595238D02*
X150452380Y-117404761D01*
D10*
D11*
X122380952Y-117023809D02*
X122380952Y-117976190D01*
X122666666Y-117214285D02*
X122666666Y-117785714D01*
X121952380Y-117500000D02*
X122380952Y-117500000D01*
X122952380Y-117595238D02*
X122952380Y-117404761D01*
D10*
D11*
X131952380Y-116119047D02*
X131952380Y-116690476D01*
X132952380Y-116404761D02*
X131952380Y-116404761D01*
X131952380Y-116928571D02*
X132952380Y-117595238D01*
X131952380Y-117595238D02*
X132952380Y-116928571D01*
X132571428Y-118738095D02*
X132571428Y-117976190D01*
X132761904Y-118166666D02*
X132571428Y-117976190D01*
X132380952Y-118166666D01*
D10*
D11*
X162952380Y-116285714D02*
X161952380Y-116285714D01*
X162666666Y-116619047D01*
X161952380Y-116952380D01*
X162952380Y-116952380D01*
X161952380Y-117285714D02*
X161952380Y-117857142D01*
X162952380Y-117571428D02*
X161952380Y-117571428D01*
X162952380Y-118761904D02*
X162476190Y-118428571D01*
X162952380Y-118190476D02*
X161952380Y-118190476D01*
X161952380Y-118571428D01*
X162000000Y-118666666D01*
X162047619Y-118714285D01*
X162142857Y-118761904D01*
X162285714Y-118761904D01*
X162380952Y-118714285D01*
X162428571Y-118666666D01*
X162476190Y-118571428D01*
X162476190Y-118190476D01*
D10*
D11*
X157380952Y-117023809D02*
X157380952Y-117976190D01*
X157666666Y-117214285D02*
X157666666Y-117785714D01*
X156952380Y-117500000D02*
X157380952Y-117500000D01*
X157952380Y-117595238D02*
X157952380Y-117404761D01*
D10*
D11*
X145452380Y-116714285D02*
X144976190Y-116380952D01*
X145452380Y-116142857D02*
X144452380Y-116142857D01*
X144452380Y-116523809D01*
X144500000Y-116619047D01*
X144547619Y-116666666D01*
X144642857Y-116714285D01*
X144785714Y-116714285D01*
X144880952Y-116666666D01*
X144928571Y-116619047D01*
X144976190Y-116523809D01*
X144976190Y-116142857D01*
X144452380Y-117047619D02*
X145452380Y-117714285D01*
X144452380Y-117714285D02*
X145452380Y-117047619D01*
X145071428Y-118095238D02*
X145071428Y-118857142D01*
X145261904Y-118666666D02*
X145071428Y-118857142D01*
X144880952Y-118666666D01*
D10*
D11*
X152952380Y-116761904D02*
X152476190Y-116428571D01*
X152952380Y-116190476D02*
X151952380Y-116190476D01*
X151952380Y-116571428D01*
X152000000Y-116666666D01*
X152047619Y-116714285D01*
X152142857Y-116761904D01*
X152285714Y-116761904D01*
X152380952Y-116714285D01*
X152428571Y-116666666D01*
X152476190Y-116571428D01*
X152476190Y-116190476D01*
X151952380Y-117190476D02*
X152761904Y-117190476D01*
X152857142Y-117238095D01*
X152904761Y-117285714D01*
X152952380Y-117380952D01*
X152952380Y-117571428D01*
X152904761Y-117666666D01*
X152857142Y-117714285D01*
X152761904Y-117761904D01*
X151952380Y-117761904D01*
X152952380Y-118238095D02*
X151952380Y-118238095D01*
X152952380Y-118809523D01*
X151952380Y-118809523D01*
D10*
D11*
X125452380Y-116738095D02*
X124452380Y-116738095D01*
X124452380Y-116976190D01*
X124500000Y-117119047D01*
X124595238Y-117214285D01*
X124690476Y-117261904D01*
X124880952Y-117309523D01*
X125023809Y-117309523D01*
X125214285Y-117261904D01*
X125309523Y-117214285D01*
X125404761Y-117119047D01*
X125452380Y-116976190D01*
X125452380Y-116738095D01*
X125357142Y-118309523D02*
X125404761Y-118261904D01*
X125452380Y-118119047D01*
X125452380Y-118023809D01*
X125404761Y-117880952D01*
X125309523Y-117785714D01*
X125214285Y-117738095D01*
X125023809Y-117690476D01*
X124880952Y-117690476D01*
X124690476Y-117738095D01*
X124595238Y-117785714D01*
X124500000Y-117880952D01*
X124452380Y-118023809D01*
X124452380Y-118119047D01*
X124500000Y-118261904D01*
X124547619Y-118309523D01*
D10*
D11*
X134452380Y-116119047D02*
X134452380Y-116690476D01*
X135452380Y-116404761D02*
X134452380Y-116404761D01*
X134452380Y-116928571D02*
X135452380Y-117595238D01*
X134452380Y-117595238D02*
X135452380Y-116928571D01*
X135071428Y-117976190D02*
X135071428Y-118738095D01*
X135261904Y-118547619D02*
X135071428Y-118738095D01*
X134880952Y-118547619D01*
D10*
D11*
X129452380Y-116119047D02*
X129452380Y-116690476D01*
X130452380Y-116404761D02*
X129452380Y-116404761D01*
X129452380Y-116928571D02*
X130452380Y-117595238D01*
X129452380Y-117595238D02*
X130452380Y-116928571D01*
X129880952Y-117880952D02*
X129880952Y-118833333D01*
X130166666Y-118071428D02*
X130166666Y-118642857D01*
X129452380Y-118357142D02*
X129880952Y-118357142D01*
X130452380Y-118452380D02*
X130452380Y-118261904D01*
D10*
D11*
X160452380Y-116166666D02*
X159452380Y-116166666D01*
X159452380Y-116547619D01*
X159500000Y-116642857D01*
X159547619Y-116690476D01*
X159642857Y-116738095D01*
X159785714Y-116738095D01*
X159880952Y-116690476D01*
X159928571Y-116642857D01*
X159976190Y-116547619D01*
X159976190Y-116166666D01*
X159452380Y-117071428D02*
X160452380Y-117309523D01*
X159738095Y-117500000D01*
X160452380Y-117690476D01*
X159452380Y-117928571D01*
X160452380Y-118880952D02*
X159976190Y-118547619D01*
X160452380Y-118309523D02*
X159452380Y-118309523D01*
X159452380Y-118690476D01*
X159500000Y-118785714D01*
X159547619Y-118833333D01*
X159642857Y-118880952D01*
X159785714Y-118880952D01*
X159880952Y-118833333D01*
X159928571Y-118785714D01*
X159976190Y-118690476D01*
X159976190Y-118309523D01*
D10*
D11*
X140452380Y-116714285D02*
X139976190Y-116380952D01*
X140452380Y-116142857D02*
X139452380Y-116142857D01*
X139452380Y-116523809D01*
X139500000Y-116619047D01*
X139547619Y-116666666D01*
X139642857Y-116714285D01*
X139785714Y-116714285D01*
X139880952Y-116666666D01*
X139928571Y-116619047D01*
X139976190Y-116523809D01*
X139976190Y-116142857D01*
X139452380Y-117047619D02*
X140452380Y-117714285D01*
X139452380Y-117714285D02*
X140452380Y-117047619D01*
X139880952Y-118000000D02*
X139880952Y-118952380D01*
X140166666Y-118190476D02*
X140166666Y-118761904D01*
X139452380Y-118476190D02*
X139880952Y-118476190D01*
X140452380Y-118571428D02*
X140452380Y-118380952D01*
D10*
D11*
X142952380Y-116714285D02*
X142476190Y-116380952D01*
X142952380Y-116142857D02*
X141952380Y-116142857D01*
X141952380Y-116523809D01*
X142000000Y-116619047D01*
X142047619Y-116666666D01*
X142142857Y-116714285D01*
X142285714Y-116714285D01*
X142380952Y-116666666D01*
X142428571Y-116619047D01*
X142476190Y-116523809D01*
X142476190Y-116142857D01*
X141952380Y-117047619D02*
X142952380Y-117714285D01*
X141952380Y-117714285D02*
X142952380Y-117047619D01*
X142571428Y-118857142D02*
X142571428Y-118095238D01*
X142761904Y-118285714D02*
X142571428Y-118095238D01*
X142380952Y-118285714D01*
D10*
%TO.C,U7*%
D11*
X157428571Y-89723809D02*
X157404761Y-89700000D01*
X157357142Y-89676190D01*
X157238095Y-89676190D01*
X157190476Y-89700000D01*
X157166666Y-89723809D01*
X157142857Y-89771428D01*
X157142857Y-89819047D01*
X157166666Y-89890476D01*
X157452380Y-90176190D01*
X157142857Y-90176190D01*
X156833333Y-89676190D02*
X156785714Y-89676190D01*
X156738095Y-89700000D01*
X156714285Y-89723809D01*
X156690476Y-89771428D01*
X156666666Y-89866666D01*
X156666666Y-89985714D01*
X156690476Y-90080952D01*
X156714285Y-90128571D01*
X156738095Y-90152380D01*
X156785714Y-90176190D01*
X156833333Y-90176190D01*
X156880952Y-90152380D01*
X156904761Y-90128571D01*
X156928571Y-90080952D01*
X156952380Y-89985714D01*
X156952380Y-89866666D01*
X156928571Y-89771428D01*
X156904761Y-89723809D01*
X156880952Y-89700000D01*
X156833333Y-89676190D01*
X156476190Y-89723809D02*
X156452380Y-89700000D01*
X156404761Y-89676190D01*
X156285714Y-89676190D01*
X156238095Y-89700000D01*
X156214285Y-89723809D01*
X156190476Y-89771428D01*
X156190476Y-89819047D01*
X156214285Y-89890476D01*
X156500000Y-90176190D01*
X156190476Y-90176190D01*
X156000000Y-89723809D02*
X155976190Y-89700000D01*
X155928571Y-89676190D01*
X155809523Y-89676190D01*
X155761904Y-89700000D01*
X155738095Y-89723809D01*
X155714285Y-89771428D01*
X155714285Y-89819047D01*
X155738095Y-89890476D01*
X156023809Y-90176190D01*
X155714285Y-90176190D01*
X155500000Y-89985714D02*
X155119047Y-89985714D01*
X154785714Y-89676190D02*
X154738095Y-89676190D01*
X154690476Y-89700000D01*
X154666666Y-89723809D01*
X154642857Y-89771428D01*
X154619047Y-89866666D01*
X154619047Y-89985714D01*
X154642857Y-90080952D01*
X154666666Y-90128571D01*
X154690476Y-90152380D01*
X154738095Y-90176190D01*
X154785714Y-90176190D01*
X154833333Y-90152380D01*
X154857142Y-90128571D01*
X154880952Y-90080952D01*
X154904761Y-89985714D01*
X154904761Y-89866666D01*
X154880952Y-89771428D01*
X154857142Y-89723809D01*
X154833333Y-89700000D01*
X154785714Y-89676190D01*
X154428571Y-89723809D02*
X154404761Y-89700000D01*
X154357142Y-89676190D01*
X154238095Y-89676190D01*
X154190476Y-89700000D01*
X154166666Y-89723809D01*
X154142857Y-89771428D01*
X154142857Y-89819047D01*
X154166666Y-89890476D01*
X154452380Y-90176190D01*
X154142857Y-90176190D01*
X153928571Y-89985714D02*
X153547619Y-89985714D01*
X153047619Y-90176190D02*
X153333333Y-90176190D01*
X153190476Y-90176190D02*
X153190476Y-89676190D01*
X153238095Y-89747619D01*
X153285714Y-89795238D01*
X153333333Y-89819047D01*
X152809523Y-90176190D02*
X152714285Y-90176190D01*
X152666666Y-90152380D01*
X152642857Y-90128571D01*
X152595238Y-90057142D01*
X152571428Y-89961904D01*
X152571428Y-89771428D01*
X152595238Y-89723809D01*
X152619047Y-89700000D01*
X152666666Y-89676190D01*
X152761904Y-89676190D01*
X152809523Y-89700000D01*
X152833333Y-89723809D01*
X152857142Y-89771428D01*
X152857142Y-89890476D01*
X152833333Y-89938095D01*
X152809523Y-89961904D01*
X152761904Y-89985714D01*
X152666666Y-89985714D01*
X152619047Y-89961904D01*
X152595238Y-89938095D01*
X152571428Y-89890476D01*
D12*
%TO.C,Logo1*%
X124200000Y-88160000D02*
X124100000Y-88160000D01*
D13*
X123350000Y-83950000D02*
X123350000Y-88150000D01*
D12*
X124200000Y-88000000D02*
X124200000Y-88300000D01*
D13*
X121550000Y-84050000D02*
X123350000Y-86050000D01*
X123350000Y-86050000D02*
X121550000Y-88150000D01*
D12*
X124100000Y-88160000D02*
X124000000Y-88300000D01*
D13*
X123350000Y-86050000D02*
X124850000Y-86050000D01*
X123350000Y-83950000D02*
X126350000Y-88150000D01*
D12*
X124200000Y-88000000D02*
X124100000Y-88000000D01*
X124100000Y-88000000D02*
G75*
G03*
X124100000Y-88160000I0J-80000D01*
G01*
D13*
X123350000Y-88150000D02*
G75*
G03*
X124850000Y-88150000I750000J0D01*
G01*
D12*
X124420000Y-88160000D02*
G75*
G03*
X124420000Y-88160000I-300000J0D01*
G01*
%TO.C,JP3*%
G36*
X137800000Y-110000000D02*
G01*
X136800000Y-110000000D01*
X136800000Y-109600000D01*
X137800000Y-109600000D01*
X137800000Y-110000000D01*
G37*
%TD*%
D14*
%TO.P,J1,S1,SHIELD*%
%TO.N,GND*%
X122110000Y-100080000D03*
D15*
X125790000Y-101510000D03*
D16*
X126280000Y-108720000D03*
X126280000Y-100080000D03*
D14*
X122110000Y-108720000D03*
D15*
X125790000Y-107290000D03*
%TD*%
D17*
%TO.P,U2,21,GND*%
%TO.N,GND*%
X133750000Y-94650000D03*
%TD*%
D18*
%TO.P,J5,1,Pin_1*%
%TO.N,GND*%
X130000000Y-113400000D03*
D19*
%TO.P,J5,2,Pin_2*%
%TO.N,Net-(J5-Pad2)*%
X132500000Y-113400000D03*
%TO.P,J5,3,Pin_3*%
%TO.N,Net-(J5-Pad3)*%
X135000000Y-113400000D03*
%TD*%
D20*
%TO.P,SW1,1,1*%
%TO.N,GND*%
X130250000Y-83650000D03*
X136750000Y-83650000D03*
%TO.P,SW1,2,2*%
%TO.N,BUTTON*%
X130250000Y-88150000D03*
X136750000Y-88150000D03*
%TD*%
D18*
%TO.P,J6,1,Pin_1*%
%TO.N,Net-(J6-Pad1)*%
X140000000Y-113400000D03*
D19*
%TO.P,J6,2,Pin_2*%
%TO.N,Net-(J6-Pad2)*%
X142500000Y-113400000D03*
%TO.P,J6,3,Pin_3*%
%TO.N,Net-(J6-Pad3)*%
X145000000Y-113400000D03*
%TD*%
D18*
%TO.P,J2,1,Pin_1*%
%TO.N,GND*%
X122500000Y-113400000D03*
D19*
%TO.P,J2,2,Pin_2*%
%TO.N,DC*%
X125000000Y-113400000D03*
%TD*%
D18*
%TO.P,J3,1,Pin_1*%
%TO.N,GND*%
X157500000Y-113400000D03*
D19*
%TO.P,J3,2,Pin_2*%
%TO.N,PWR*%
X160000000Y-113400000D03*
%TO.P,J3,3,Pin_3*%
%TO.N,MTR*%
X162500000Y-113400000D03*
%TD*%
D18*
%TO.P,J4,1,Pin_1*%
%TO.N,GND*%
X150000000Y-113400000D03*
D19*
%TO.P,J4,2,Pin_2*%
%TO.N,RUN*%
X152500000Y-113400000D03*
%TD*%
D21*
%TO.P,JP3,1,A*%
%TO.N,GND*%
X136387500Y-109800000D03*
D22*
X135837500Y-109800000D03*
D21*
%TO.P,JP3,2,B*%
%TO.N,Net-(J6-Pad1)*%
X138212500Y-109800000D03*
D22*
X138762500Y-109800000D03*
%TD*%
D23*
%TO.P,U7,*%
%TO.N,*%
X153700000Y-84350000D03*
D24*
X154200000Y-84350000D03*
D23*
X154700000Y-84350000D03*
D25*
X156400000Y-84350000D03*
D24*
X153000000Y-84550000D03*
X153400000Y-84550000D03*
X154400000Y-84550000D03*
D26*
X155200000Y-84450000D03*
D24*
X153800000Y-84750000D03*
X154200000Y-84750000D03*
D27*
X155000000Y-84750000D03*
D24*
X153600000Y-84950000D03*
D28*
X154700000Y-84950000D03*
D29*
X155400000Y-84650000D03*
D24*
X153000000Y-85150000D03*
D26*
X153400000Y-85050000D03*
D24*
X154000000Y-85150000D03*
D23*
X155300000Y-85150000D03*
D30*
X156400000Y-84950000D03*
D28*
X153300000Y-85350000D03*
D24*
X154400000Y-85350000D03*
X155000000Y-85350000D03*
D31*
X155800000Y-84850000D03*
X157000000Y-84850000D03*
D27*
X153600000Y-85550000D03*
D26*
X154200000Y-85450000D03*
X154600000Y-85450000D03*
D32*
X156400000Y-85550000D03*
D28*
X153300000Y-85750000D03*
D24*
X155000000Y-85750000D03*
X153800000Y-85950000D03*
X155800000Y-85950000D03*
X156400000Y-85950000D03*
X156800000Y-85950000D03*
D27*
X153400000Y-86150000D03*
D24*
X154400000Y-86150000D03*
D29*
X154800000Y-85850000D03*
X155400000Y-85850000D03*
D26*
X156000000Y-86050000D03*
D28*
X156700000Y-86150000D03*
D33*
X153900000Y-86250000D03*
D34*
X155200000Y-85950000D03*
D23*
X155700000Y-86350000D03*
D24*
X156200000Y-86350000D03*
D26*
X153000000Y-86450000D03*
D24*
X154200000Y-86550000D03*
D35*
X155000000Y-86350000D03*
D23*
X155500000Y-86550000D03*
D28*
X156300000Y-86550000D03*
D24*
X153200000Y-86750000D03*
X153600000Y-86750000D03*
X154000000Y-86750000D03*
X154400000Y-86750000D03*
D28*
X155500000Y-86750000D03*
D25*
X156600000Y-86750000D03*
X153600000Y-87150000D03*
D34*
X154600000Y-86750000D03*
D24*
X155400000Y-87150000D03*
D25*
X156400000Y-87150000D03*
D24*
X154800000Y-87350000D03*
D23*
X155300000Y-87350000D03*
D29*
X155000000Y-87250000D03*
D24*
X155400000Y-87750000D03*
D30*
X153600000Y-87750000D03*
X156400000Y-87750000D03*
D31*
X153000000Y-87650000D03*
X154200000Y-87650000D03*
D26*
X154800000Y-88050000D03*
D24*
X155400000Y-88150000D03*
D31*
X155800000Y-87650000D03*
X157000000Y-87650000D03*
D32*
X153600000Y-88350000D03*
D24*
X154600000Y-88350000D03*
D29*
X155200000Y-88050000D03*
D32*
X156400000Y-88350000D03*
%TD*%
D36*
%TO.N,Net-(C1-Pad1)*%
X130600000Y-97400000D03*
X135398569Y-97377105D03*
%TO.N,GND*%
X135200000Y-89800000D03*
%TO.N,EN*%
X132100000Y-91800000D03*
%TO.N,GPIO0*%
X133700000Y-91424500D03*
%TO.N,O*%
X131000000Y-93700000D03*
%TO.N,GND*%
X126500000Y-90900000D03*
%TO.N,+3V3*%
X155700000Y-97100000D03*
X151300000Y-109400000D03*
X160000000Y-109400000D03*
X135000000Y-86600000D03*
X143300000Y-87600000D03*
%TO.N,O*%
X153700000Y-98700000D03*
%TO.N,I*%
X135700000Y-91800000D03*
X149600000Y-98500000D03*
%TO.N,EN*%
X144500000Y-86500000D03*
%TO.N,GPIO0*%
X142400000Y-98200000D03*
%TO.N,Net-(C2-Pad1)*%
X132100000Y-101900000D03*
X134200000Y-101900000D03*
%TO.N,R*%
X139900000Y-83400000D03*
X128400000Y-83500000D03*
%TO.N,B*%
X138200000Y-86500000D03*
X142700000Y-85800000D03*
%TO.N,Net-(C3-Pad1)*%
X132100000Y-103000000D03*
X134200000Y-103000000D03*
%TO.N,BUTTON*%
X151700000Y-96600000D03*
X150000000Y-107471864D03*
%TO.N,DC*%
X125900000Y-95500000D03*
%TD*%
D37*
%TO.N,Net-(C1-Pad1)*%
X135398569Y-97377105D02*
X130622895Y-97377105D01*
X130622895Y-97377105D02*
X130600000Y-97400000D01*
%TO.N,GPIO0*%
X133701928Y-91426428D02*
X133700000Y-91424500D01*
X141000000Y-93500000D02*
X134700000Y-93500000D01*
X142400000Y-98200000D02*
X142400000Y-94900000D01*
X133701928Y-92598302D02*
G75*
G03*
X134700000Y-93500000I1000239J103923D01*
G01*
X133701928Y-92598302D02*
X133701928Y-91426428D01*
X141000000Y-93500000D02*
G75*
G02*
X142400000Y-94900000I-2J-1400002D01*
G01*
%TO.N,R*%
X134588731Y-85600000D02*
G75*
G03*
X139900000Y-83400000I1J7511264D01*
G01*
X128400000Y-83673143D02*
G75*
G03*
X130326857Y-85600000I1926856J-1D01*
G01*
X134588731Y-85600000D02*
X130326857Y-85600000D01*
X128400000Y-83673143D02*
X128400000Y-83500000D01*
%TO.N,EN*%
X132000000Y-91558579D02*
G75*
G03*
X132100000Y-91800000I341419J0D01*
G01*
X132000000Y-91558579D02*
X132000000Y-89500000D01*
X132700000Y-88800000D02*
G75*
G03*
X132000000Y-89500000I-1J-699999D01*
G01*
X144500000Y-87200000D02*
X144500000Y-86500000D01*
X135700000Y-89200000D02*
G75*
G03*
X134734315Y-88800000I-965687J-965689D01*
G01*
X137924264Y-89075736D02*
G75*
G02*
X136900000Y-89500000I-1024267J1024272D01*
G01*
X144500000Y-87200000D02*
G75*
G02*
X143300000Y-88400000I-1200000J0D01*
G01*
X136424264Y-89500000D02*
G75*
G02*
X135700000Y-89200000I-2J1024258D01*
G01*
X139307106Y-88400001D02*
G75*
G03*
X138100001Y-88900001I1J-1707107D01*
G01*
X132700000Y-88800000D02*
X134734315Y-88800000D01*
X136424264Y-89500000D02*
X136900000Y-89500000D01*
X137924264Y-89075736D02*
X138100000Y-88900000D01*
X139307106Y-88400000D02*
X143300000Y-88400000D01*
%TO.N,O*%
X131300000Y-94000000D02*
G75*
G02*
X131000000Y-93700000I0J300000D01*
G01*
X131300000Y-94000000D02*
X138200000Y-94000000D01*
X138200000Y-94000000D02*
G75*
G02*
X139300000Y-95100000I-2J-1100002D01*
G01*
X152800000Y-101000000D02*
X140500000Y-101000000D01*
X139300000Y-99800000D02*
X139300000Y-95100000D01*
X152800000Y-101000000D02*
G75*
G03*
X154000000Y-99800000I0J1200000D01*
G01*
X139300000Y-99800000D02*
G75*
G03*
X140500000Y-101000000I1200000J0D01*
G01*
X154000000Y-99000000D02*
X154000000Y-99800000D01*
X154000000Y-99000000D02*
G75*
G03*
X153700000Y-98700000I-300000J0D01*
G01*
%TO.N,+3V3*%
X136417755Y-86600000D02*
X135000000Y-86600000D01*
X155700000Y-109400000D02*
X160000000Y-109400000D01*
X151300000Y-109400000D02*
X155700000Y-109400000D01*
X155700000Y-97100000D02*
X155700000Y-109400000D01*
X138831967Y-87600000D02*
X143300000Y-87600000D01*
X136417755Y-86600001D02*
G75*
G02*
X137536570Y-87063430I0J-1582244D01*
G01*
X137536571Y-87063429D02*
G75*
G03*
X138831967Y-87600000I1295395J1295393D01*
G01*
%TO.N,I*%
X149600000Y-98500000D02*
X149600000Y-93700000D01*
X135700000Y-91800000D02*
X147700000Y-91800000D01*
X147700000Y-91800000D02*
G75*
G02*
X149600000Y-93700000I0J-1900000D01*
G01*
%TO.N,Net-(C2-Pad1)*%
X132100000Y-101900000D02*
X134000000Y-101900000D01*
%TO.N,B*%
X138200000Y-86500000D02*
X142000000Y-86500000D01*
X142700000Y-85800000D02*
G75*
G02*
X142000000Y-86500000I-699999J-1D01*
G01*
%TO.N,Net-(C3-Pad1)*%
X134200000Y-103000000D02*
X132200000Y-103000000D01*
X132100000Y-103100000D02*
G75*
G02*
X132200000Y-103000000I99999J1D01*
G01*
%TO.N,Net-(J6-Pad1)*%
X138212500Y-109800000D02*
X138700000Y-109800000D01*
X140000000Y-111100000D02*
X140000000Y-113400000D01*
X140000000Y-111100000D02*
G75*
G03*
X138700000Y-109800000I-1299999J1D01*
G01*
%TO.N,BUTTON*%
X151600000Y-101500000D02*
X153100000Y-101500000D01*
X150000000Y-103100000D02*
X150000000Y-107471864D01*
X154500000Y-100100000D02*
X154500000Y-98000000D01*
X136750000Y-88150000D02*
X130250000Y-88150000D01*
X153100000Y-96600000D02*
X151700000Y-96600000D01*
X150000000Y-103100000D02*
G75*
G02*
X151600000Y-101500000I1599999J1D01*
G01*
X154500000Y-100100000D02*
G75*
G02*
X153100000Y-101500000I-1400002J2D01*
G01*
X153100000Y-96600000D02*
G75*
G02*
X154500000Y-98000000I-2J-1400002D01*
G01*
D38*
%TO.N,DC*%
X125000000Y-97672792D02*
X125000000Y-113400000D01*
X125000001Y-97672792D02*
G75*
G02*
X125900001Y-95500001I3072784J3D01*
G01*
%TD*%
%TA.AperFunction,Conductor*%
%TO.N,GND*%
G36*
X129327799Y-82274002D02*
G01*
X129374292Y-82327658D01*
X129383983Y-82400599D01*
X129381388Y-82416255D01*
X129385876Y-82426666D01*
X130237188Y-83277978D01*
X130251132Y-83285592D01*
X130252965Y-83285461D01*
X130259580Y-83281210D01*
X131111080Y-82429710D01*
X131118694Y-82415766D01*
X131116779Y-82388990D01*
X131131870Y-82319615D01*
X131182072Y-82269413D01*
X131242458Y-82254000D01*
X135759678Y-82254000D01*
X135827799Y-82274002D01*
X135874292Y-82327658D01*
X135883983Y-82400599D01*
X135881388Y-82416255D01*
X135885876Y-82426666D01*
X136737188Y-83277978D01*
X136751132Y-83285592D01*
X136752965Y-83285461D01*
X136759580Y-83281210D01*
X137611080Y-82429710D01*
X137618694Y-82415766D01*
X137616779Y-82388990D01*
X137631870Y-82319615D01*
X137682072Y-82269413D01*
X137742458Y-82254000D01*
X157962575Y-82254000D01*
X157987153Y-82256421D01*
X158000000Y-82258976D01*
X158012172Y-82256555D01*
X158019754Y-82256555D01*
X158032104Y-82257162D01*
X158133188Y-82267118D01*
X158157408Y-82271935D01*
X158273617Y-82307187D01*
X158296418Y-82316631D01*
X158403517Y-82373876D01*
X158424047Y-82387594D01*
X158517909Y-82464626D01*
X158535374Y-82482091D01*
X158612406Y-82575953D01*
X158626124Y-82596483D01*
X158683369Y-82703582D01*
X158692813Y-82726383D01*
X158728065Y-82842592D01*
X158732882Y-82866812D01*
X158742838Y-82967896D01*
X158743445Y-82980246D01*
X158743445Y-82987828D01*
X158741024Y-83000000D01*
X158743445Y-83012170D01*
X158743579Y-83012844D01*
X158746000Y-83037425D01*
X158746000Y-104962575D01*
X158743579Y-104987153D01*
X158741024Y-105000000D01*
X158742841Y-105009134D01*
X158757608Y-105196775D01*
X158803687Y-105388706D01*
X158879222Y-105571065D01*
X158982355Y-105739362D01*
X159110546Y-105889454D01*
X159260638Y-106017645D01*
X159428935Y-106120778D01*
X159433505Y-106122671D01*
X159433509Y-106122673D01*
X159606721Y-106194419D01*
X159611294Y-106196313D01*
X159803225Y-106242392D01*
X159933253Y-106252625D01*
X159983190Y-106256555D01*
X159983191Y-106256555D01*
X159990866Y-106257159D01*
X160000000Y-106258976D01*
X160012847Y-106256421D01*
X160037425Y-106254000D01*
X163962575Y-106254000D01*
X163987153Y-106256421D01*
X164000000Y-106258976D01*
X164012172Y-106256555D01*
X164019754Y-106256555D01*
X164032104Y-106257162D01*
X164133188Y-106267118D01*
X164157408Y-106271935D01*
X164273617Y-106307187D01*
X164296418Y-106316631D01*
X164403517Y-106373876D01*
X164424047Y-106387594D01*
X164517909Y-106464626D01*
X164535374Y-106482091D01*
X164612406Y-106575953D01*
X164626124Y-106596483D01*
X164683369Y-106703582D01*
X164692813Y-106726383D01*
X164728065Y-106842592D01*
X164732882Y-106866812D01*
X164742838Y-106967896D01*
X164743445Y-106980246D01*
X164743445Y-106987828D01*
X164741024Y-107000000D01*
X164743445Y-107012170D01*
X164743579Y-107012844D01*
X164746000Y-107037425D01*
X164746000Y-115274000D01*
X164725998Y-115342121D01*
X164672342Y-115388614D01*
X164620000Y-115400000D01*
X120380000Y-115400000D01*
X120311879Y-115379998D01*
X120265386Y-115326342D01*
X120254000Y-115274000D01*
X120254000Y-114122095D01*
X121142001Y-114122095D01*
X121142338Y-114128614D01*
X121152257Y-114224206D01*
X121155149Y-114237600D01*
X121206588Y-114391784D01*
X121212761Y-114404962D01*
X121298063Y-114542807D01*
X121307099Y-114554208D01*
X121421829Y-114668739D01*
X121433240Y-114677751D01*
X121571243Y-114762816D01*
X121584424Y-114768963D01*
X121738710Y-114820138D01*
X121752086Y-114823005D01*
X121846438Y-114832672D01*
X121852854Y-114833000D01*
X122227885Y-114833000D01*
X122243124Y-114828525D01*
X122244329Y-114827135D01*
X122246000Y-114819452D01*
X122246000Y-114814884D01*
X122754000Y-114814884D01*
X122758475Y-114830123D01*
X122759865Y-114831328D01*
X122767548Y-114832999D01*
X123147095Y-114832999D01*
X123153614Y-114832662D01*
X123249206Y-114822743D01*
X123262600Y-114819851D01*
X123416784Y-114768412D01*
X123429962Y-114762239D01*
X123567807Y-114676937D01*
X123579208Y-114667901D01*
X123693739Y-114553171D01*
X123702751Y-114541760D01*
X123787816Y-114403757D01*
X123793963Y-114390576D01*
X123845138Y-114236290D01*
X123848005Y-114222914D01*
X123854869Y-114155919D01*
X123881710Y-114090192D01*
X123939824Y-114049410D01*
X124010762Y-114046520D01*
X124072001Y-114082442D01*
X124079299Y-114090928D01*
X124196514Y-114240149D01*
X124201044Y-114244080D01*
X124201045Y-114244081D01*
X124351165Y-114374350D01*
X124351170Y-114374354D01*
X124355696Y-114378281D01*
X124538126Y-114483819D01*
X124737222Y-114552957D01*
X124743155Y-114553817D01*
X124743158Y-114553818D01*
X124939860Y-114582338D01*
X124939863Y-114582338D01*
X124945800Y-114583199D01*
X125156333Y-114573455D01*
X125162157Y-114572051D01*
X125162160Y-114572051D01*
X125355393Y-114525482D01*
X125355395Y-114525481D01*
X125361226Y-114524076D01*
X125366684Y-114521594D01*
X125366688Y-114521593D01*
X125544414Y-114440785D01*
X125553084Y-114436843D01*
X125724986Y-114314904D01*
X125870728Y-114162660D01*
X125896920Y-114122095D01*
X128642001Y-114122095D01*
X128642338Y-114128614D01*
X128652257Y-114224206D01*
X128655149Y-114237600D01*
X128706588Y-114391784D01*
X128712761Y-114404962D01*
X128798063Y-114542807D01*
X128807099Y-114554208D01*
X128921829Y-114668739D01*
X128933240Y-114677751D01*
X129071243Y-114762816D01*
X129084424Y-114768963D01*
X129238710Y-114820138D01*
X129252086Y-114823005D01*
X129346438Y-114832672D01*
X129352854Y-114833000D01*
X129727885Y-114833000D01*
X129743124Y-114828525D01*
X129744329Y-114827135D01*
X129746000Y-114819452D01*
X129746000Y-114814884D01*
X130254000Y-114814884D01*
X130258475Y-114830123D01*
X130259865Y-114831328D01*
X130267548Y-114832999D01*
X130647095Y-114832999D01*
X130653614Y-114832662D01*
X130749206Y-114822743D01*
X130762600Y-114819851D01*
X130916784Y-114768412D01*
X130929962Y-114762239D01*
X131067807Y-114676937D01*
X131079208Y-114667901D01*
X131193739Y-114553171D01*
X131202751Y-114541760D01*
X131287816Y-114403757D01*
X131293963Y-114390576D01*
X131345138Y-114236290D01*
X131348005Y-114222914D01*
X131354869Y-114155919D01*
X131381710Y-114090192D01*
X131439824Y-114049410D01*
X131510762Y-114046520D01*
X131572001Y-114082442D01*
X131579299Y-114090928D01*
X131696514Y-114240149D01*
X131701044Y-114244080D01*
X131701045Y-114244081D01*
X131851165Y-114374350D01*
X131851170Y-114374354D01*
X131855696Y-114378281D01*
X132038126Y-114483819D01*
X132237222Y-114552957D01*
X132243155Y-114553817D01*
X132243158Y-114553818D01*
X132439860Y-114582338D01*
X132439863Y-114582338D01*
X132445800Y-114583199D01*
X132656333Y-114573455D01*
X132662157Y-114572051D01*
X132662160Y-114572051D01*
X132855393Y-114525482D01*
X132855395Y-114525481D01*
X132861226Y-114524076D01*
X132866684Y-114521594D01*
X132866688Y-114521593D01*
X133044414Y-114440785D01*
X133053084Y-114436843D01*
X133224986Y-114314904D01*
X133370728Y-114162660D01*
X133427710Y-114074410D01*
X133481800Y-113990640D01*
X133481801Y-113990637D01*
X133485052Y-113985603D01*
X133563834Y-113790122D01*
X133604229Y-113583271D01*
X133604500Y-113577730D01*
X133604500Y-113527659D01*
X133895500Y-113527659D01*
X133910493Y-113684806D01*
X133969823Y-113887042D01*
X133972573Y-113892381D01*
X134051960Y-114046520D01*
X134066324Y-114074410D01*
X134078721Y-114090192D01*
X134192808Y-114235432D01*
X134192812Y-114235436D01*
X134196514Y-114240149D01*
X134201044Y-114244080D01*
X134201045Y-114244081D01*
X134351165Y-114374350D01*
X134351170Y-114374354D01*
X134355696Y-114378281D01*
X134538126Y-114483819D01*
X134737222Y-114552957D01*
X134743155Y-114553817D01*
X134743158Y-114553818D01*
X134939860Y-114582338D01*
X134939863Y-114582338D01*
X134945800Y-114583199D01*
X135156333Y-114573455D01*
X135162157Y-114572051D01*
X135162160Y-114572051D01*
X135355393Y-114525482D01*
X135355395Y-114525481D01*
X135361226Y-114524076D01*
X135366684Y-114521594D01*
X135366688Y-114521593D01*
X135544414Y-114440785D01*
X135553084Y-114436843D01*
X135724986Y-114314904D01*
X135870728Y-114162660D01*
X135927710Y-114074410D01*
X135981800Y-113990640D01*
X135981801Y-113990637D01*
X135985052Y-113985603D01*
X136063834Y-113790122D01*
X136104229Y-113583271D01*
X136104500Y-113577730D01*
X136104500Y-113272341D01*
X136089507Y-113115194D01*
X136030177Y-112912958D01*
X135979415Y-112814397D01*
X135936422Y-112730921D01*
X135936420Y-112730918D01*
X135933676Y-112725590D01*
X135864355Y-112637340D01*
X135807192Y-112564568D01*
X135807188Y-112564564D01*
X135803486Y-112559851D01*
X135798955Y-112555919D01*
X135648835Y-112425650D01*
X135648830Y-112425646D01*
X135644304Y-112421719D01*
X135461874Y-112316181D01*
X135262778Y-112247043D01*
X135256845Y-112246183D01*
X135256842Y-112246182D01*
X135060140Y-112217662D01*
X135060137Y-112217662D01*
X135054200Y-112216801D01*
X134843667Y-112226545D01*
X134837843Y-112227949D01*
X134837840Y-112227949D01*
X134644607Y-112274518D01*
X134644605Y-112274519D01*
X134638774Y-112275924D01*
X134633316Y-112278406D01*
X134633312Y-112278407D01*
X134554562Y-112314213D01*
X134446916Y-112363157D01*
X134275014Y-112485096D01*
X134129272Y-112637340D01*
X134126021Y-112642375D01*
X134068848Y-112730921D01*
X134014948Y-112814397D01*
X133936166Y-113009878D01*
X133895771Y-113216729D01*
X133895500Y-113222270D01*
X133895500Y-113527659D01*
X133604500Y-113527659D01*
X133604500Y-113272341D01*
X133589507Y-113115194D01*
X133530177Y-112912958D01*
X133479415Y-112814397D01*
X133436422Y-112730921D01*
X133436420Y-112730918D01*
X133433676Y-112725590D01*
X133364355Y-112637340D01*
X133307192Y-112564568D01*
X133307188Y-112564564D01*
X133303486Y-112559851D01*
X133298955Y-112555919D01*
X133148835Y-112425650D01*
X133148830Y-112425646D01*
X133144304Y-112421719D01*
X132961874Y-112316181D01*
X132762778Y-112247043D01*
X132756845Y-112246183D01*
X132756842Y-112246182D01*
X132560140Y-112217662D01*
X132560137Y-112217662D01*
X132554200Y-112216801D01*
X132343667Y-112226545D01*
X132337843Y-112227949D01*
X132337840Y-112227949D01*
X132144607Y-112274518D01*
X132144605Y-112274519D01*
X132138774Y-112275924D01*
X132133316Y-112278406D01*
X132133312Y-112278407D01*
X132054562Y-112314213D01*
X131946916Y-112363157D01*
X131775014Y-112485096D01*
X131629272Y-112637340D01*
X131626021Y-112642375D01*
X131586447Y-112703664D01*
X131532692Y-112750042D01*
X131462396Y-112759995D01*
X131397879Y-112730363D01*
X131359623Y-112670555D01*
X131355268Y-112648319D01*
X131347743Y-112575794D01*
X131344851Y-112562400D01*
X131293412Y-112408216D01*
X131287239Y-112395038D01*
X131201937Y-112257193D01*
X131192901Y-112245792D01*
X131078171Y-112131261D01*
X131066760Y-112122249D01*
X130928757Y-112037184D01*
X130915576Y-112031037D01*
X130761290Y-111979862D01*
X130747914Y-111976995D01*
X130653562Y-111967328D01*
X130647145Y-111967000D01*
X130272115Y-111967000D01*
X130256876Y-111971475D01*
X130255671Y-111972865D01*
X130254000Y-111980548D01*
X130254000Y-114814884D01*
X129746000Y-114814884D01*
X129746000Y-113672115D01*
X129741525Y-113656876D01*
X129740135Y-113655671D01*
X129732452Y-113654000D01*
X128660116Y-113654000D01*
X128644877Y-113658475D01*
X128643672Y-113659865D01*
X128642001Y-113667548D01*
X128642001Y-114122095D01*
X125896920Y-114122095D01*
X125927710Y-114074410D01*
X125981800Y-113990640D01*
X125981801Y-113990637D01*
X125985052Y-113985603D01*
X126063834Y-113790122D01*
X126104229Y-113583271D01*
X126104500Y-113577730D01*
X126104500Y-113272341D01*
X126090718Y-113127885D01*
X128642000Y-113127885D01*
X128646475Y-113143124D01*
X128647865Y-113144329D01*
X128655548Y-113146000D01*
X129727885Y-113146000D01*
X129743124Y-113141525D01*
X129744329Y-113140135D01*
X129746000Y-113132452D01*
X129746000Y-111985116D01*
X129741525Y-111969877D01*
X129740135Y-111968672D01*
X129732452Y-111967001D01*
X129352905Y-111967001D01*
X129346386Y-111967338D01*
X129250794Y-111977257D01*
X129237400Y-111980149D01*
X129083216Y-112031588D01*
X129070038Y-112037761D01*
X128932193Y-112123063D01*
X128920792Y-112132099D01*
X128806261Y-112246829D01*
X128797249Y-112258240D01*
X128712184Y-112396243D01*
X128706037Y-112409424D01*
X128654862Y-112563710D01*
X128651995Y-112577086D01*
X128642328Y-112671438D01*
X128642000Y-112677855D01*
X128642000Y-113127885D01*
X126090718Y-113127885D01*
X126089507Y-113115194D01*
X126030177Y-112912958D01*
X125979415Y-112814397D01*
X125936422Y-112730921D01*
X125936420Y-112730918D01*
X125933676Y-112725590D01*
X125864355Y-112637340D01*
X125807192Y-112564568D01*
X125807188Y-112564564D01*
X125803486Y-112559851D01*
X125798955Y-112555919D01*
X125648835Y-112425650D01*
X125648830Y-112425646D01*
X125644304Y-112421719D01*
X125567405Y-112377232D01*
X125518456Y-112325807D01*
X125504500Y-112268168D01*
X125504500Y-110474430D01*
X134767000Y-110474430D01*
X134767337Y-110480946D01*
X134777219Y-110576190D01*
X134780112Y-110589586D01*
X134831367Y-110743216D01*
X134837541Y-110756395D01*
X134922535Y-110893744D01*
X134931571Y-110905145D01*
X135045889Y-111019264D01*
X135057300Y-111028276D01*
X135194808Y-111113037D01*
X135207986Y-111119181D01*
X135361725Y-111170174D01*
X135375090Y-111173040D01*
X135469105Y-111182672D01*
X135475521Y-111183000D01*
X135565385Y-111183000D01*
X135580624Y-111178525D01*
X135581829Y-111177135D01*
X135583500Y-111169452D01*
X135583500Y-111164885D01*
X136091500Y-111164885D01*
X136095975Y-111180124D01*
X136097365Y-111181329D01*
X136105048Y-111183000D01*
X136199430Y-111183000D01*
X136205946Y-111182663D01*
X136301190Y-111172781D01*
X136314586Y-111169888D01*
X136468216Y-111118633D01*
X136481395Y-111112459D01*
X136619728Y-111026856D01*
X136686031Y-111008000D01*
X136691266Y-111008000D01*
X136697781Y-111007663D01*
X136794241Y-110997654D01*
X136807641Y-110994760D01*
X136963209Y-110942859D01*
X136976377Y-110936691D01*
X137115466Y-110850619D01*
X137126867Y-110841583D01*
X137242428Y-110725821D01*
X137244726Y-110722911D01*
X137246803Y-110721438D01*
X137247599Y-110720641D01*
X137247735Y-110720777D01*
X137302641Y-110681847D01*
X137343610Y-110675000D01*
X137639857Y-110675000D01*
X137700365Y-110690479D01*
X137701267Y-110690973D01*
X137708454Y-110696359D01*
X137716859Y-110699510D01*
X137716863Y-110699512D01*
X137838051Y-110744943D01*
X137838053Y-110744943D01*
X137845446Y-110747715D01*
X137853294Y-110748568D01*
X137853296Y-110748568D01*
X137904507Y-110754131D01*
X137907904Y-110754500D01*
X138006872Y-110754500D01*
X138074993Y-110774502D01*
X138088082Y-110785050D01*
X138088882Y-110786118D01*
X138096058Y-110791496D01*
X138196764Y-110866970D01*
X138203949Y-110872355D01*
X138212357Y-110875507D01*
X138331199Y-110920059D01*
X138331201Y-110920059D01*
X138338594Y-110922831D01*
X138346442Y-110923684D01*
X138346444Y-110923684D01*
X138396577Y-110929130D01*
X138399983Y-110929500D01*
X138762446Y-110929500D01*
X139125016Y-110929499D01*
X139128411Y-110929130D01*
X139128416Y-110929130D01*
X139178548Y-110923685D01*
X139178552Y-110923684D01*
X139186406Y-110922831D01*
X139321051Y-110872355D01*
X139328234Y-110866972D01*
X139328238Y-110866970D01*
X139394589Y-110817243D01*
X139461095Y-110792396D01*
X139530478Y-110807449D01*
X139580707Y-110857624D01*
X139591859Y-110885456D01*
X139603661Y-110929500D01*
X139603663Y-110929508D01*
X139607476Y-110951135D01*
X139617469Y-111065349D01*
X139616946Y-111080290D01*
X139617321Y-111080290D01*
X139617321Y-111090204D01*
X139615769Y-111100000D01*
X139617320Y-111109792D01*
X139617320Y-111109794D01*
X139618949Y-111120077D01*
X139620500Y-111139788D01*
X139620500Y-112094500D01*
X139600498Y-112162621D01*
X139546842Y-112209114D01*
X139494500Y-112220500D01*
X139352244Y-112220500D01*
X139348848Y-112220869D01*
X139348847Y-112220869D01*
X139298403Y-112226349D01*
X139298402Y-112226349D01*
X139290552Y-112227202D01*
X139283159Y-112229974D01*
X139283157Y-112229974D01*
X139244954Y-112244296D01*
X139155236Y-112277929D01*
X139148057Y-112283309D01*
X139148054Y-112283311D01*
X139071292Y-112340841D01*
X139039596Y-112364596D01*
X139034215Y-112371776D01*
X138958311Y-112473054D01*
X138958309Y-112473057D01*
X138952929Y-112480236D01*
X138902202Y-112615552D01*
X138895500Y-112677244D01*
X138895500Y-114122756D01*
X138902202Y-114184448D01*
X138952929Y-114319764D01*
X138958309Y-114326943D01*
X138958311Y-114326946D01*
X138996785Y-114378281D01*
X139039596Y-114435404D01*
X139046776Y-114440785D01*
X139148054Y-114516689D01*
X139148057Y-114516691D01*
X139155236Y-114522071D01*
X139238196Y-114553171D01*
X139283157Y-114570026D01*
X139283159Y-114570026D01*
X139290552Y-114572798D01*
X139298402Y-114573651D01*
X139298403Y-114573651D01*
X139299149Y-114573732D01*
X139352244Y-114579500D01*
X140647756Y-114579500D01*
X140700851Y-114573732D01*
X140701597Y-114573651D01*
X140701598Y-114573651D01*
X140709448Y-114572798D01*
X140716841Y-114570026D01*
X140716843Y-114570026D01*
X140761804Y-114553171D01*
X140844764Y-114522071D01*
X140851943Y-114516691D01*
X140851946Y-114516689D01*
X140953224Y-114440785D01*
X140960404Y-114435404D01*
X141003215Y-114378281D01*
X141041689Y-114326946D01*
X141041691Y-114326943D01*
X141047071Y-114319764D01*
X141097798Y-114184448D01*
X141104500Y-114122756D01*
X141104500Y-113527659D01*
X141395500Y-113527659D01*
X141410493Y-113684806D01*
X141469823Y-113887042D01*
X141472573Y-113892381D01*
X141551960Y-114046520D01*
X141566324Y-114074410D01*
X141578721Y-114090192D01*
X141692808Y-114235432D01*
X141692812Y-114235436D01*
X141696514Y-114240149D01*
X141701044Y-114244080D01*
X141701045Y-114244081D01*
X141851165Y-114374350D01*
X141851170Y-114374354D01*
X141855696Y-114378281D01*
X142038126Y-114483819D01*
X142237222Y-114552957D01*
X142243155Y-114553817D01*
X142243158Y-114553818D01*
X142439860Y-114582338D01*
X142439863Y-114582338D01*
X142445800Y-114583199D01*
X142656333Y-114573455D01*
X142662157Y-114572051D01*
X142662160Y-114572051D01*
X142855393Y-114525482D01*
X142855395Y-114525481D01*
X142861226Y-114524076D01*
X142866684Y-114521594D01*
X142866688Y-114521593D01*
X143044414Y-114440785D01*
X143053084Y-114436843D01*
X143224986Y-114314904D01*
X143370728Y-114162660D01*
X143427710Y-114074410D01*
X143481800Y-113990640D01*
X143481801Y-113990637D01*
X143485052Y-113985603D01*
X143563834Y-113790122D01*
X143604229Y-113583271D01*
X143604500Y-113577730D01*
X143604500Y-113527659D01*
X143895500Y-113527659D01*
X143910493Y-113684806D01*
X143969823Y-113887042D01*
X143972573Y-113892381D01*
X144051960Y-114046520D01*
X144066324Y-114074410D01*
X144078721Y-114090192D01*
X144192808Y-114235432D01*
X144192812Y-114235436D01*
X144196514Y-114240149D01*
X144201044Y-114244080D01*
X144201045Y-114244081D01*
X144351165Y-114374350D01*
X144351170Y-114374354D01*
X144355696Y-114378281D01*
X144538126Y-114483819D01*
X144737222Y-114552957D01*
X144743155Y-114553817D01*
X144743158Y-114553818D01*
X144939860Y-114582338D01*
X144939863Y-114582338D01*
X144945800Y-114583199D01*
X145156333Y-114573455D01*
X145162157Y-114572051D01*
X145162160Y-114572051D01*
X145355393Y-114525482D01*
X145355395Y-114525481D01*
X145361226Y-114524076D01*
X145366684Y-114521594D01*
X145366688Y-114521593D01*
X145544414Y-114440785D01*
X145553084Y-114436843D01*
X145724986Y-114314904D01*
X145870728Y-114162660D01*
X145896920Y-114122095D01*
X148642001Y-114122095D01*
X148642338Y-114128614D01*
X148652257Y-114224206D01*
X148655149Y-114237600D01*
X148706588Y-114391784D01*
X148712761Y-114404962D01*
X148798063Y-114542807D01*
X148807099Y-114554208D01*
X148921829Y-114668739D01*
X148933240Y-114677751D01*
X149071243Y-114762816D01*
X149084424Y-114768963D01*
X149238710Y-114820138D01*
X149252086Y-114823005D01*
X149346438Y-114832672D01*
X149352854Y-114833000D01*
X149727885Y-114833000D01*
X149743124Y-114828525D01*
X149744329Y-114827135D01*
X149746000Y-114819452D01*
X149746000Y-114814884D01*
X150254000Y-114814884D01*
X150258475Y-114830123D01*
X150259865Y-114831328D01*
X150267548Y-114832999D01*
X150647095Y-114832999D01*
X150653614Y-114832662D01*
X150749206Y-114822743D01*
X150762600Y-114819851D01*
X150916784Y-114768412D01*
X150929962Y-114762239D01*
X151067807Y-114676937D01*
X151079208Y-114667901D01*
X151193739Y-114553171D01*
X151202751Y-114541760D01*
X151287816Y-114403757D01*
X151293963Y-114390576D01*
X151345138Y-114236290D01*
X151348005Y-114222914D01*
X151354869Y-114155919D01*
X151381710Y-114090192D01*
X151439824Y-114049410D01*
X151510762Y-114046520D01*
X151572001Y-114082442D01*
X151579299Y-114090928D01*
X151696514Y-114240149D01*
X151701044Y-114244080D01*
X151701045Y-114244081D01*
X151851165Y-114374350D01*
X151851170Y-114374354D01*
X151855696Y-114378281D01*
X152038126Y-114483819D01*
X152237222Y-114552957D01*
X152243155Y-114553817D01*
X152243158Y-114553818D01*
X152439860Y-114582338D01*
X152439863Y-114582338D01*
X152445800Y-114583199D01*
X152656333Y-114573455D01*
X152662157Y-114572051D01*
X152662160Y-114572051D01*
X152855393Y-114525482D01*
X152855395Y-114525481D01*
X152861226Y-114524076D01*
X152866684Y-114521594D01*
X152866688Y-114521593D01*
X153044414Y-114440785D01*
X153053084Y-114436843D01*
X153224986Y-114314904D01*
X153370728Y-114162660D01*
X153396920Y-114122095D01*
X156142001Y-114122095D01*
X156142338Y-114128614D01*
X156152257Y-114224206D01*
X156155149Y-114237600D01*
X156206588Y-114391784D01*
X156212761Y-114404962D01*
X156298063Y-114542807D01*
X156307099Y-114554208D01*
X156421829Y-114668739D01*
X156433240Y-114677751D01*
X156571243Y-114762816D01*
X156584424Y-114768963D01*
X156738710Y-114820138D01*
X156752086Y-114823005D01*
X156846438Y-114832672D01*
X156852854Y-114833000D01*
X157227885Y-114833000D01*
X157243124Y-114828525D01*
X157244329Y-114827135D01*
X157246000Y-114819452D01*
X157246000Y-114814884D01*
X157754000Y-114814884D01*
X157758475Y-114830123D01*
X157759865Y-114831328D01*
X157767548Y-114832999D01*
X158147095Y-114832999D01*
X158153614Y-114832662D01*
X158249206Y-114822743D01*
X158262600Y-114819851D01*
X158416784Y-114768412D01*
X158429962Y-114762239D01*
X158567807Y-114676937D01*
X158579208Y-114667901D01*
X158693739Y-114553171D01*
X158702751Y-114541760D01*
X158787816Y-114403757D01*
X158793963Y-114390576D01*
X158845138Y-114236290D01*
X158848005Y-114222914D01*
X158854869Y-114155919D01*
X158881710Y-114090192D01*
X158939824Y-114049410D01*
X159010762Y-114046520D01*
X159072001Y-114082442D01*
X159079299Y-114090928D01*
X159196514Y-114240149D01*
X159201044Y-114244080D01*
X159201045Y-114244081D01*
X159351165Y-114374350D01*
X159351170Y-114374354D01*
X159355696Y-114378281D01*
X159538126Y-114483819D01*
X159737222Y-114552957D01*
X159743155Y-114553817D01*
X159743158Y-114553818D01*
X159939860Y-114582338D01*
X159939863Y-114582338D01*
X159945800Y-114583199D01*
X160156333Y-114573455D01*
X160162157Y-114572051D01*
X160162160Y-114572051D01*
X160355393Y-114525482D01*
X160355395Y-114525481D01*
X160361226Y-114524076D01*
X160366684Y-114521594D01*
X160366688Y-114521593D01*
X160544414Y-114440785D01*
X160553084Y-114436843D01*
X160724986Y-114314904D01*
X160870728Y-114162660D01*
X160927710Y-114074410D01*
X160981800Y-113990640D01*
X160981801Y-113990637D01*
X160985052Y-113985603D01*
X161063834Y-113790122D01*
X161104229Y-113583271D01*
X161104500Y-113577730D01*
X161104500Y-113527659D01*
X161395500Y-113527659D01*
X161410493Y-113684806D01*
X161469823Y-113887042D01*
X161472573Y-113892381D01*
X161551960Y-114046520D01*
X161566324Y-114074410D01*
X161578721Y-114090192D01*
X161692808Y-114235432D01*
X161692812Y-114235436D01*
X161696514Y-114240149D01*
X161701044Y-114244080D01*
X161701045Y-114244081D01*
X161851165Y-114374350D01*
X161851170Y-114374354D01*
X161855696Y-114378281D01*
X162038126Y-114483819D01*
X162237222Y-114552957D01*
X162243155Y-114553817D01*
X162243158Y-114553818D01*
X162439860Y-114582338D01*
X162439863Y-114582338D01*
X162445800Y-114583199D01*
X162656333Y-114573455D01*
X162662157Y-114572051D01*
X162662160Y-114572051D01*
X162855393Y-114525482D01*
X162855395Y-114525481D01*
X162861226Y-114524076D01*
X162866684Y-114521594D01*
X162866688Y-114521593D01*
X163044414Y-114440785D01*
X163053084Y-114436843D01*
X163224986Y-114314904D01*
X163370728Y-114162660D01*
X163427710Y-114074410D01*
X163481800Y-113990640D01*
X163481801Y-113990637D01*
X163485052Y-113985603D01*
X163563834Y-113790122D01*
X163604229Y-113583271D01*
X163604500Y-113577730D01*
X163604500Y-113272341D01*
X163589507Y-113115194D01*
X163530177Y-112912958D01*
X163479415Y-112814397D01*
X163436422Y-112730921D01*
X163436420Y-112730918D01*
X163433676Y-112725590D01*
X163364355Y-112637340D01*
X163307192Y-112564568D01*
X163307188Y-112564564D01*
X163303486Y-112559851D01*
X163298955Y-112555919D01*
X163148835Y-112425650D01*
X163148830Y-112425646D01*
X163144304Y-112421719D01*
X162961874Y-112316181D01*
X162762778Y-112247043D01*
X162756845Y-112246183D01*
X162756842Y-112246182D01*
X162560140Y-112217662D01*
X162560137Y-112217662D01*
X162554200Y-112216801D01*
X162343667Y-112226545D01*
X162337843Y-112227949D01*
X162337840Y-112227949D01*
X162144607Y-112274518D01*
X162144605Y-112274519D01*
X162138774Y-112275924D01*
X162133316Y-112278406D01*
X162133312Y-112278407D01*
X162054562Y-112314213D01*
X161946916Y-112363157D01*
X161775014Y-112485096D01*
X161629272Y-112637340D01*
X161626021Y-112642375D01*
X161568848Y-112730921D01*
X161514948Y-112814397D01*
X161436166Y-113009878D01*
X161395771Y-113216729D01*
X161395500Y-113222270D01*
X161395500Y-113527659D01*
X161104500Y-113527659D01*
X161104500Y-113272341D01*
X161089507Y-113115194D01*
X161030177Y-112912958D01*
X160979415Y-112814397D01*
X160936422Y-112730921D01*
X160936420Y-112730918D01*
X160933676Y-112725590D01*
X160864355Y-112637340D01*
X160807192Y-112564568D01*
X160807188Y-112564564D01*
X160803486Y-112559851D01*
X160798955Y-112555919D01*
X160648835Y-112425650D01*
X160648830Y-112425646D01*
X160644304Y-112421719D01*
X160461874Y-112316181D01*
X160262778Y-112247043D01*
X160256845Y-112246183D01*
X160256842Y-112246182D01*
X160060140Y-112217662D01*
X160060137Y-112217662D01*
X160054200Y-112216801D01*
X159843667Y-112226545D01*
X159837843Y-112227949D01*
X159837840Y-112227949D01*
X159644607Y-112274518D01*
X159644605Y-112274519D01*
X159638774Y-112275924D01*
X159633316Y-112278406D01*
X159633312Y-112278407D01*
X159554562Y-112314213D01*
X159446916Y-112363157D01*
X159275014Y-112485096D01*
X159129272Y-112637340D01*
X159126021Y-112642375D01*
X159086447Y-112703664D01*
X159032692Y-112750042D01*
X158962396Y-112759995D01*
X158897879Y-112730363D01*
X158859623Y-112670555D01*
X158855268Y-112648319D01*
X158847743Y-112575794D01*
X158844851Y-112562400D01*
X158793412Y-112408216D01*
X158787239Y-112395038D01*
X158701937Y-112257193D01*
X158692901Y-112245792D01*
X158578171Y-112131261D01*
X158566760Y-112122249D01*
X158428757Y-112037184D01*
X158415576Y-112031037D01*
X158261290Y-111979862D01*
X158247914Y-111976995D01*
X158153562Y-111967328D01*
X158147145Y-111967000D01*
X157772115Y-111967000D01*
X157756876Y-111971475D01*
X157755671Y-111972865D01*
X157754000Y-111980548D01*
X157754000Y-114814884D01*
X157246000Y-114814884D01*
X157246000Y-113672115D01*
X157241525Y-113656876D01*
X157240135Y-113655671D01*
X157232452Y-113654000D01*
X156160116Y-113654000D01*
X156144877Y-113658475D01*
X156143672Y-113659865D01*
X156142001Y-113667548D01*
X156142001Y-114122095D01*
X153396920Y-114122095D01*
X153427710Y-114074410D01*
X153481800Y-113990640D01*
X153481801Y-113990637D01*
X153485052Y-113985603D01*
X153563834Y-113790122D01*
X153604229Y-113583271D01*
X153604500Y-113577730D01*
X153604500Y-113272341D01*
X153590718Y-113127885D01*
X156142000Y-113127885D01*
X156146475Y-113143124D01*
X156147865Y-113144329D01*
X156155548Y-113146000D01*
X157227885Y-113146000D01*
X157243124Y-113141525D01*
X157244329Y-113140135D01*
X157246000Y-113132452D01*
X157246000Y-111985116D01*
X157241525Y-111969877D01*
X157240135Y-111968672D01*
X157232452Y-111967001D01*
X156852905Y-111967001D01*
X156846386Y-111967338D01*
X156750794Y-111977257D01*
X156737400Y-111980149D01*
X156583216Y-112031588D01*
X156570038Y-112037761D01*
X156432193Y-112123063D01*
X156420792Y-112132099D01*
X156306261Y-112246829D01*
X156297249Y-112258240D01*
X156212184Y-112396243D01*
X156206037Y-112409424D01*
X156154862Y-112563710D01*
X156151995Y-112577086D01*
X156142328Y-112671438D01*
X156142000Y-112677855D01*
X156142000Y-113127885D01*
X153590718Y-113127885D01*
X153589507Y-113115194D01*
X153530177Y-112912958D01*
X153479415Y-112814397D01*
X153436422Y-112730921D01*
X153436420Y-112730918D01*
X153433676Y-112725590D01*
X153364355Y-112637340D01*
X153307192Y-112564568D01*
X153307188Y-112564564D01*
X153303486Y-112559851D01*
X153298955Y-112555919D01*
X153148835Y-112425650D01*
X153148830Y-112425646D01*
X153144304Y-112421719D01*
X152961874Y-112316181D01*
X152762778Y-112247043D01*
X152756845Y-112246183D01*
X152756842Y-112246182D01*
X152560140Y-112217662D01*
X152560137Y-112217662D01*
X152554200Y-112216801D01*
X152343667Y-112226545D01*
X152337843Y-112227949D01*
X152337840Y-112227949D01*
X152144607Y-112274518D01*
X152144605Y-112274519D01*
X152138774Y-112275924D01*
X152133316Y-112278406D01*
X152133312Y-112278407D01*
X152054562Y-112314213D01*
X151946916Y-112363157D01*
X151775014Y-112485096D01*
X151629272Y-112637340D01*
X151626021Y-112642375D01*
X151586447Y-112703664D01*
X151532692Y-112750042D01*
X151462396Y-112759995D01*
X151397879Y-112730363D01*
X151359623Y-112670555D01*
X151355268Y-112648319D01*
X151347743Y-112575794D01*
X151344851Y-112562400D01*
X151293412Y-112408216D01*
X151287239Y-112395038D01*
X151201937Y-112257193D01*
X151192901Y-112245792D01*
X151078171Y-112131261D01*
X151066760Y-112122249D01*
X150928757Y-112037184D01*
X150915576Y-112031037D01*
X150761290Y-111979862D01*
X150747914Y-111976995D01*
X150653562Y-111967328D01*
X150647145Y-111967000D01*
X150272115Y-111967000D01*
X150256876Y-111971475D01*
X150255671Y-111972865D01*
X150254000Y-111980548D01*
X150254000Y-114814884D01*
X149746000Y-114814884D01*
X149746000Y-113672115D01*
X149741525Y-113656876D01*
X149740135Y-113655671D01*
X149732452Y-113654000D01*
X148660116Y-113654000D01*
X148644877Y-113658475D01*
X148643672Y-113659865D01*
X148642001Y-113667548D01*
X148642001Y-114122095D01*
X145896920Y-114122095D01*
X145927710Y-114074410D01*
X145981800Y-113990640D01*
X145981801Y-113990637D01*
X145985052Y-113985603D01*
X146063834Y-113790122D01*
X146104229Y-113583271D01*
X146104500Y-113577730D01*
X146104500Y-113272341D01*
X146090718Y-113127885D01*
X148642000Y-113127885D01*
X148646475Y-113143124D01*
X148647865Y-113144329D01*
X148655548Y-113146000D01*
X149727885Y-113146000D01*
X149743124Y-113141525D01*
X149744329Y-113140135D01*
X149746000Y-113132452D01*
X149746000Y-111985116D01*
X149741525Y-111969877D01*
X149740135Y-111968672D01*
X149732452Y-111967001D01*
X149352905Y-111967001D01*
X149346386Y-111967338D01*
X149250794Y-111977257D01*
X149237400Y-111980149D01*
X149083216Y-112031588D01*
X149070038Y-112037761D01*
X148932193Y-112123063D01*
X148920792Y-112132099D01*
X148806261Y-112246829D01*
X148797249Y-112258240D01*
X148712184Y-112396243D01*
X148706037Y-112409424D01*
X148654862Y-112563710D01*
X148651995Y-112577086D01*
X148642328Y-112671438D01*
X148642000Y-112677855D01*
X148642000Y-113127885D01*
X146090718Y-113127885D01*
X146089507Y-113115194D01*
X146030177Y-112912958D01*
X145979415Y-112814397D01*
X145936422Y-112730921D01*
X145936420Y-112730918D01*
X145933676Y-112725590D01*
X145864355Y-112637340D01*
X145807192Y-112564568D01*
X145807188Y-112564564D01*
X145803486Y-112559851D01*
X145798955Y-112555919D01*
X145648835Y-112425650D01*
X145648830Y-112425646D01*
X145644304Y-112421719D01*
X145461874Y-112316181D01*
X145262778Y-112247043D01*
X145256845Y-112246183D01*
X145256842Y-112246182D01*
X145060140Y-112217662D01*
X145060137Y-112217662D01*
X145054200Y-112216801D01*
X144843667Y-112226545D01*
X144837843Y-112227949D01*
X144837840Y-112227949D01*
X144644607Y-112274518D01*
X144644605Y-112274519D01*
X144638774Y-112275924D01*
X144633316Y-112278406D01*
X144633312Y-112278407D01*
X144554562Y-112314213D01*
X144446916Y-112363157D01*
X144275014Y-112485096D01*
X144129272Y-112637340D01*
X144126021Y-112642375D01*
X144068848Y-112730921D01*
X144014948Y-112814397D01*
X143936166Y-113009878D01*
X143895771Y-113216729D01*
X143895500Y-113222270D01*
X143895500Y-113527659D01*
X143604500Y-113527659D01*
X143604500Y-113272341D01*
X143589507Y-113115194D01*
X143530177Y-112912958D01*
X143479415Y-112814397D01*
X143436422Y-112730921D01*
X143436420Y-112730918D01*
X143433676Y-112725590D01*
X143364355Y-112637340D01*
X143307192Y-112564568D01*
X143307188Y-112564564D01*
X143303486Y-112559851D01*
X143298955Y-112555919D01*
X143148835Y-112425650D01*
X143148830Y-112425646D01*
X143144304Y-112421719D01*
X142961874Y-112316181D01*
X142762778Y-112247043D01*
X142756845Y-112246183D01*
X142756842Y-112246182D01*
X142560140Y-112217662D01*
X142560137Y-112217662D01*
X142554200Y-112216801D01*
X142343667Y-112226545D01*
X142337843Y-112227949D01*
X142337840Y-112227949D01*
X142144607Y-112274518D01*
X142144605Y-112274519D01*
X142138774Y-112275924D01*
X142133316Y-112278406D01*
X142133312Y-112278407D01*
X142054562Y-112314213D01*
X141946916Y-112363157D01*
X141775014Y-112485096D01*
X141629272Y-112637340D01*
X141626021Y-112642375D01*
X141568848Y-112730921D01*
X141514948Y-112814397D01*
X141436166Y-113009878D01*
X141395771Y-113216729D01*
X141395500Y-113222270D01*
X141395500Y-113527659D01*
X141104500Y-113527659D01*
X141104500Y-112677244D01*
X141097798Y-112615552D01*
X141047071Y-112480236D01*
X141041691Y-112473057D01*
X141041689Y-112473054D01*
X140965785Y-112371776D01*
X140960404Y-112364596D01*
X140928708Y-112340841D01*
X140851946Y-112283311D01*
X140851943Y-112283309D01*
X140844764Y-112277929D01*
X140755046Y-112244296D01*
X140716843Y-112229974D01*
X140716841Y-112229974D01*
X140709448Y-112227202D01*
X140701598Y-112226349D01*
X140701597Y-112226349D01*
X140651153Y-112220869D01*
X140651152Y-112220869D01*
X140647756Y-112220500D01*
X140505500Y-112220500D01*
X140437379Y-112200498D01*
X140390886Y-112146842D01*
X140379500Y-112094500D01*
X140379500Y-111139788D01*
X140381051Y-111120077D01*
X140382680Y-111109792D01*
X140384231Y-111100000D01*
X140383427Y-111094923D01*
X140366652Y-110860372D01*
X140343541Y-110754131D01*
X140316544Y-110630029D01*
X140316543Y-110630025D01*
X140315585Y-110625622D01*
X140302145Y-110589586D01*
X140233201Y-110404740D01*
X140231630Y-110400528D01*
X140116495Y-110189674D01*
X139989724Y-110020329D01*
X139975222Y-110000956D01*
X139975221Y-110000955D01*
X139972524Y-109997352D01*
X139802648Y-109827476D01*
X139714296Y-109761336D01*
X139629990Y-109698225D01*
X139587443Y-109641389D01*
X139579499Y-109597357D01*
X139579499Y-109393096D01*
X150640729Y-109393096D01*
X150649421Y-109471825D01*
X150656963Y-109540135D01*
X150658113Y-109550553D01*
X150660723Y-109557684D01*
X150660723Y-109557686D01*
X150709805Y-109691809D01*
X150712553Y-109699319D01*
X150716789Y-109705622D01*
X150716789Y-109705623D01*
X150793305Y-109819490D01*
X150800908Y-109830805D01*
X150806525Y-109835916D01*
X150806528Y-109835919D01*
X150881707Y-109904326D01*
X150918076Y-109937419D01*
X151057293Y-110013008D01*
X151210522Y-110053207D01*
X151294477Y-110054526D01*
X151361319Y-110055576D01*
X151361322Y-110055576D01*
X151368916Y-110055695D01*
X151523332Y-110020329D01*
X151598893Y-109982326D01*
X151658072Y-109952563D01*
X151658075Y-109952561D01*
X151664855Y-109949151D01*
X151670626Y-109944222D01*
X151670629Y-109944220D01*
X151779542Y-109851199D01*
X151779543Y-109851198D01*
X151785314Y-109846269D01*
X151795586Y-109831974D01*
X151851581Y-109788326D01*
X151897909Y-109779500D01*
X155677854Y-109779500D01*
X155688727Y-109779970D01*
X155730187Y-109783561D01*
X155740295Y-109781050D01*
X155750678Y-109780233D01*
X155750728Y-109780873D01*
X155761952Y-109779500D01*
X159400141Y-109779500D01*
X159468262Y-109799502D01*
X159495522Y-109823169D01*
X159496671Y-109824500D01*
X159500908Y-109830805D01*
X159618076Y-109937419D01*
X159757293Y-110013008D01*
X159910522Y-110053207D01*
X159994477Y-110054526D01*
X160061319Y-110055576D01*
X160061322Y-110055576D01*
X160068916Y-110055695D01*
X160223332Y-110020329D01*
X160298893Y-109982326D01*
X160358072Y-109952563D01*
X160358075Y-109952561D01*
X160364855Y-109949151D01*
X160370626Y-109944222D01*
X160370629Y-109944220D01*
X160479536Y-109851204D01*
X160479536Y-109851203D01*
X160485314Y-109846269D01*
X160577755Y-109717624D01*
X160636842Y-109570641D01*
X160659162Y-109413807D01*
X160659307Y-109400000D01*
X160640276Y-109242733D01*
X160584280Y-109094546D01*
X160557921Y-109056193D01*
X160498855Y-108970251D01*
X160498854Y-108970249D01*
X160494553Y-108963992D01*
X160376275Y-108858611D01*
X160368889Y-108854700D01*
X160281927Y-108808656D01*
X160236274Y-108784484D01*
X160082633Y-108745892D01*
X160075034Y-108745852D01*
X160075033Y-108745852D01*
X160009181Y-108745507D01*
X159924221Y-108745062D01*
X159916841Y-108746834D01*
X159916839Y-108746834D01*
X159777563Y-108780271D01*
X159777560Y-108780272D01*
X159770184Y-108782043D01*
X159629414Y-108854700D01*
X159510039Y-108958838D01*
X159505672Y-108965051D01*
X159505667Y-108965057D01*
X159504336Y-108966951D01*
X159503013Y-108968005D01*
X159500589Y-108970697D01*
X159500140Y-108970293D01*
X159448802Y-109011183D01*
X159401250Y-109020500D01*
X156205500Y-109020500D01*
X156137379Y-109000498D01*
X156090886Y-108946842D01*
X156079500Y-108894500D01*
X156079500Y-97694730D01*
X156099502Y-97626609D01*
X156123669Y-97598919D01*
X156179536Y-97551204D01*
X156185314Y-97546269D01*
X156277755Y-97417624D01*
X156336842Y-97270641D01*
X156345560Y-97209385D01*
X156358581Y-97117891D01*
X156358581Y-97117888D01*
X156359162Y-97113807D01*
X156359307Y-97100000D01*
X156340276Y-96942733D01*
X156284280Y-96794546D01*
X156235106Y-96722997D01*
X156198855Y-96670251D01*
X156198854Y-96670249D01*
X156194553Y-96663992D01*
X156076275Y-96558611D01*
X156068889Y-96554700D01*
X155942988Y-96488039D01*
X155942989Y-96488039D01*
X155936274Y-96484484D01*
X155782633Y-96445892D01*
X155775034Y-96445852D01*
X155775033Y-96445852D01*
X155709181Y-96445507D01*
X155624221Y-96445062D01*
X155616841Y-96446834D01*
X155616839Y-96446834D01*
X155477563Y-96480271D01*
X155477560Y-96480272D01*
X155470184Y-96482043D01*
X155329414Y-96554700D01*
X155210039Y-96658838D01*
X155118950Y-96788444D01*
X155061406Y-96936037D01*
X155060414Y-96943570D01*
X155060414Y-96943571D01*
X155042160Y-97082228D01*
X155040729Y-97093096D01*
X155049421Y-97171824D01*
X155055729Y-97228957D01*
X155058113Y-97250553D01*
X155060723Y-97257684D01*
X155060723Y-97257686D01*
X155109477Y-97390912D01*
X155112553Y-97399319D01*
X155116789Y-97405622D01*
X155116789Y-97405623D01*
X155178445Y-97497376D01*
X155200908Y-97530805D01*
X155206527Y-97535918D01*
X155206528Y-97535919D01*
X155279299Y-97602135D01*
X155316222Y-97662775D01*
X155320500Y-97695329D01*
X155320500Y-108894500D01*
X155300498Y-108962621D01*
X155246842Y-109009114D01*
X155194500Y-109020500D01*
X151899682Y-109020500D01*
X151831561Y-109000498D01*
X151805114Y-108974860D01*
X151803878Y-108975949D01*
X151798855Y-108970251D01*
X151794553Y-108963992D01*
X151676275Y-108858611D01*
X151668889Y-108854700D01*
X151581927Y-108808656D01*
X151536274Y-108784484D01*
X151382633Y-108745892D01*
X151375034Y-108745852D01*
X151375033Y-108745852D01*
X151309181Y-108745507D01*
X151224221Y-108745062D01*
X151216841Y-108746834D01*
X151216839Y-108746834D01*
X151077563Y-108780271D01*
X151077560Y-108780272D01*
X151070184Y-108782043D01*
X150929414Y-108854700D01*
X150810039Y-108958838D01*
X150718950Y-109088444D01*
X150661406Y-109236037D01*
X150660414Y-109243570D01*
X150660414Y-109243571D01*
X150650859Y-109316153D01*
X150640729Y-109393096D01*
X139579499Y-109393096D01*
X139579499Y-109124984D01*
X139579130Y-109121584D01*
X139573685Y-109071452D01*
X139573684Y-109071448D01*
X139572831Y-109063594D01*
X139522355Y-108928949D01*
X139436118Y-108813882D01*
X139395211Y-108783224D01*
X139328234Y-108733028D01*
X139328233Y-108733027D01*
X139321051Y-108727645D01*
X139292749Y-108717035D01*
X139193801Y-108679941D01*
X139193799Y-108679941D01*
X139186406Y-108677169D01*
X139178558Y-108676316D01*
X139178556Y-108676316D01*
X139128414Y-108670869D01*
X139128413Y-108670869D01*
X139125017Y-108670500D01*
X138762554Y-108670500D01*
X138399984Y-108670501D01*
X138396589Y-108670870D01*
X138396584Y-108670870D01*
X138346452Y-108676315D01*
X138346448Y-108676316D01*
X138338594Y-108677169D01*
X138203949Y-108727645D01*
X138196767Y-108733027D01*
X138196766Y-108733028D01*
X138129789Y-108783224D01*
X138088882Y-108813882D01*
X138088128Y-108812876D01*
X138033655Y-108842621D01*
X138006872Y-108845500D01*
X137907904Y-108845500D01*
X137904507Y-108845869D01*
X137853296Y-108851432D01*
X137853294Y-108851432D01*
X137845446Y-108852285D01*
X137838053Y-108855057D01*
X137838051Y-108855057D01*
X137716863Y-108900488D01*
X137716859Y-108900490D01*
X137708454Y-108903641D01*
X137701267Y-108909027D01*
X137700365Y-108909521D01*
X137639857Y-108925000D01*
X137343604Y-108925000D01*
X137275483Y-108904998D01*
X137244861Y-108877268D01*
X137241585Y-108873135D01*
X137125819Y-108757570D01*
X137114410Y-108748560D01*
X136975169Y-108662732D01*
X136961986Y-108656584D01*
X136806316Y-108604950D01*
X136792940Y-108602083D01*
X136697731Y-108592328D01*
X136691314Y-108592000D01*
X136686308Y-108592000D01*
X136620192Y-108573260D01*
X136480192Y-108486963D01*
X136467014Y-108480819D01*
X136313275Y-108429826D01*
X136299910Y-108426960D01*
X136205895Y-108417328D01*
X136199478Y-108417000D01*
X136109615Y-108417000D01*
X136094376Y-108421475D01*
X136093171Y-108422865D01*
X136091500Y-108430548D01*
X136091500Y-109527885D01*
X136095975Y-109543125D01*
X136109012Y-109554422D01*
X136147396Y-109614148D01*
X136152500Y-109649646D01*
X136152500Y-109947086D01*
X136132498Y-110015207D01*
X136116718Y-110028880D01*
X136118604Y-110030514D01*
X136093171Y-110059865D01*
X136091500Y-110067548D01*
X136091500Y-111164885D01*
X135583500Y-111164885D01*
X135583500Y-110072115D01*
X135579025Y-110056876D01*
X135577635Y-110055671D01*
X135569952Y-110054000D01*
X134785115Y-110054000D01*
X134769876Y-110058475D01*
X134768671Y-110059865D01*
X134767000Y-110067548D01*
X134767000Y-110474430D01*
X125504500Y-110474430D01*
X125504500Y-109944208D01*
X125524502Y-109876087D01*
X125578158Y-109829594D01*
X125648432Y-109819490D01*
X125683750Y-109830013D01*
X125843113Y-109904326D01*
X125853405Y-109908072D01*
X126055401Y-109962196D01*
X126066196Y-109964099D01*
X126274525Y-109982326D01*
X126285475Y-109982326D01*
X126493804Y-109964099D01*
X126504599Y-109962196D01*
X126706595Y-109908072D01*
X126716887Y-109904326D01*
X126906416Y-109815947D01*
X126915912Y-109810464D01*
X126957148Y-109781590D01*
X126965523Y-109771113D01*
X126958455Y-109757667D01*
X126728673Y-109527885D01*
X134767000Y-109527885D01*
X134771475Y-109543124D01*
X134772865Y-109544329D01*
X134780548Y-109546000D01*
X135565385Y-109546000D01*
X135580624Y-109541525D01*
X135581829Y-109540135D01*
X135583500Y-109532452D01*
X135583500Y-108435115D01*
X135579025Y-108419876D01*
X135577635Y-108418671D01*
X135569952Y-108417000D01*
X135475570Y-108417000D01*
X135469054Y-108417337D01*
X135373810Y-108427219D01*
X135360414Y-108430112D01*
X135206784Y-108481367D01*
X135193605Y-108487541D01*
X135056256Y-108572535D01*
X135044855Y-108581571D01*
X134930736Y-108695889D01*
X134921724Y-108707300D01*
X134836963Y-108844808D01*
X134830819Y-108857986D01*
X134779826Y-109011725D01*
X134776960Y-109025090D01*
X134767328Y-109119105D01*
X134767000Y-109125522D01*
X134767000Y-109527885D01*
X126728673Y-109527885D01*
X126009884Y-108809095D01*
X125975859Y-108746783D01*
X125977694Y-108721132D01*
X126644408Y-108721132D01*
X126644539Y-108722966D01*
X126648790Y-108729580D01*
X127318391Y-109399180D01*
X127330161Y-109405607D01*
X127342176Y-109396311D01*
X127370466Y-109355907D01*
X127375946Y-109346417D01*
X127464326Y-109156887D01*
X127468072Y-109146595D01*
X127522196Y-108944599D01*
X127524099Y-108933804D01*
X127542326Y-108725475D01*
X127542326Y-108714525D01*
X127524099Y-108506196D01*
X127522196Y-108495401D01*
X127468072Y-108293405D01*
X127464326Y-108283113D01*
X127375946Y-108093583D01*
X127370466Y-108084093D01*
X127341589Y-108042851D01*
X127331113Y-108034477D01*
X127317666Y-108041545D01*
X126652021Y-108707189D01*
X126644408Y-108721132D01*
X125977694Y-108721132D01*
X125980924Y-108675967D01*
X126009885Y-108630905D01*
X126280000Y-108360790D01*
X126959176Y-107681613D01*
X126965606Y-107669838D01*
X126956310Y-107657824D01*
X126915912Y-107629536D01*
X126906416Y-107624053D01*
X126716887Y-107535674D01*
X126706595Y-107531928D01*
X126504599Y-107477804D01*
X126493804Y-107475901D01*
X126285475Y-107457674D01*
X126274525Y-107457674D01*
X126066196Y-107475901D01*
X126055401Y-107477804D01*
X125853405Y-107531928D01*
X125843113Y-107535674D01*
X125683750Y-107609987D01*
X125613559Y-107620648D01*
X125548746Y-107591668D01*
X125509889Y-107532249D01*
X125504500Y-107495792D01*
X125504500Y-102993096D01*
X131440729Y-102993096D01*
X131448687Y-103065180D01*
X131451051Y-103086584D01*
X131458113Y-103150553D01*
X131512553Y-103299319D01*
X131600908Y-103430805D01*
X131606525Y-103435916D01*
X131606528Y-103435919D01*
X131617903Y-103446269D01*
X131718076Y-103537419D01*
X131857293Y-103613008D01*
X132010522Y-103653207D01*
X132094477Y-103654526D01*
X132161319Y-103655576D01*
X132161322Y-103655576D01*
X132168916Y-103655695D01*
X132323332Y-103620329D01*
X132393742Y-103584917D01*
X132458072Y-103552563D01*
X132458075Y-103552561D01*
X132464855Y-103549151D01*
X132470626Y-103544222D01*
X132470629Y-103544220D01*
X132579542Y-103451199D01*
X132579543Y-103451198D01*
X132585314Y-103446269D01*
X132595586Y-103431974D01*
X132651581Y-103388326D01*
X132697909Y-103379500D01*
X133600141Y-103379500D01*
X133668262Y-103399502D01*
X133695522Y-103423169D01*
X133696671Y-103424500D01*
X133700908Y-103430805D01*
X133818076Y-103537419D01*
X133957293Y-103613008D01*
X134110522Y-103653207D01*
X134194477Y-103654526D01*
X134261319Y-103655576D01*
X134261322Y-103655576D01*
X134268916Y-103655695D01*
X134423332Y-103620329D01*
X134493742Y-103584917D01*
X134558072Y-103552563D01*
X134558075Y-103552561D01*
X134564855Y-103549151D01*
X134570626Y-103544222D01*
X134570629Y-103544220D01*
X134679536Y-103451204D01*
X134679536Y-103451203D01*
X134685314Y-103446269D01*
X134777755Y-103317624D01*
X134836842Y-103170641D01*
X134859162Y-103013807D01*
X134859307Y-103000000D01*
X134840276Y-102842733D01*
X134784280Y-102694546D01*
X134733390Y-102620500D01*
X134698855Y-102570251D01*
X134698854Y-102570249D01*
X134694553Y-102563992D01*
X134688883Y-102558940D01*
X134688881Y-102558938D01*
X134673109Y-102544886D01*
X134635552Y-102484636D01*
X134636531Y-102413646D01*
X134675095Y-102354998D01*
X134679531Y-102351209D01*
X134679536Y-102351204D01*
X134685314Y-102346269D01*
X134777755Y-102217624D01*
X134836842Y-102070641D01*
X134859162Y-101913807D01*
X134859307Y-101900000D01*
X134858551Y-101893748D01*
X134841188Y-101750273D01*
X134840276Y-101742733D01*
X134784280Y-101594546D01*
X134733390Y-101520500D01*
X134698855Y-101470251D01*
X134698854Y-101470249D01*
X134694553Y-101463992D01*
X134676931Y-101448291D01*
X134603606Y-101382962D01*
X134576275Y-101358611D01*
X134568889Y-101354700D01*
X134442988Y-101288039D01*
X134442989Y-101288039D01*
X134436274Y-101284484D01*
X134282633Y-101245892D01*
X134275034Y-101245852D01*
X134275033Y-101245852D01*
X134209181Y-101245507D01*
X134124221Y-101245062D01*
X134116841Y-101246834D01*
X134116839Y-101246834D01*
X133977563Y-101280271D01*
X133977560Y-101280272D01*
X133970184Y-101282043D01*
X133829414Y-101354700D01*
X133710039Y-101458838D01*
X133705672Y-101465051D01*
X133705667Y-101465057D01*
X133704336Y-101466951D01*
X133703013Y-101468005D01*
X133700589Y-101470697D01*
X133700140Y-101470293D01*
X133648802Y-101511183D01*
X133601250Y-101520500D01*
X132699682Y-101520500D01*
X132631561Y-101500498D01*
X132605114Y-101474860D01*
X132603878Y-101475949D01*
X132598855Y-101470251D01*
X132594553Y-101463992D01*
X132576931Y-101448291D01*
X132503606Y-101382962D01*
X132476275Y-101358611D01*
X132468889Y-101354700D01*
X132342988Y-101288039D01*
X132342989Y-101288039D01*
X132336274Y-101284484D01*
X132182633Y-101245892D01*
X132175034Y-101245852D01*
X132175033Y-101245852D01*
X132109181Y-101245507D01*
X132024221Y-101245062D01*
X132016841Y-101246834D01*
X132016839Y-101246834D01*
X131877563Y-101280271D01*
X131877560Y-101280272D01*
X131870184Y-101282043D01*
X131729414Y-101354700D01*
X131610039Y-101458838D01*
X131518950Y-101588444D01*
X131461406Y-101736037D01*
X131460414Y-101743570D01*
X131460414Y-101743571D01*
X131442315Y-101881051D01*
X131440729Y-101893096D01*
X131445823Y-101939235D01*
X131454487Y-102017707D01*
X131458113Y-102050553D01*
X131460723Y-102057684D01*
X131460723Y-102057686D01*
X131483174Y-102119035D01*
X131512553Y-102199319D01*
X131600908Y-102330805D01*
X131606526Y-102335917D01*
X131606528Y-102335919D01*
X131628723Y-102356115D01*
X131665645Y-102416755D01*
X131663922Y-102487731D01*
X131626754Y-102544256D01*
X131615763Y-102553844D01*
X131615760Y-102553847D01*
X131610039Y-102558838D01*
X131518950Y-102688444D01*
X131461406Y-102836037D01*
X131460414Y-102843570D01*
X131460414Y-102843571D01*
X131450490Y-102918956D01*
X131440729Y-102993096D01*
X125504500Y-102993096D01*
X125504500Y-101304208D01*
X125524502Y-101236087D01*
X125578158Y-101189594D01*
X125648432Y-101179490D01*
X125683750Y-101190013D01*
X125843113Y-101264326D01*
X125853405Y-101268072D01*
X126055401Y-101322196D01*
X126066196Y-101324099D01*
X126274525Y-101342326D01*
X126285475Y-101342326D01*
X126493804Y-101324099D01*
X126504599Y-101322196D01*
X126706595Y-101268072D01*
X126716887Y-101264326D01*
X126906416Y-101175947D01*
X126915912Y-101170464D01*
X126957148Y-101141590D01*
X126965523Y-101131113D01*
X126958455Y-101117667D01*
X126009884Y-100169095D01*
X125975859Y-100106783D01*
X125977694Y-100081132D01*
X126644408Y-100081132D01*
X126644539Y-100082966D01*
X126648790Y-100089580D01*
X127318391Y-100759180D01*
X127330161Y-100765607D01*
X127342176Y-100756311D01*
X127370466Y-100715907D01*
X127375946Y-100706417D01*
X127464326Y-100516887D01*
X127468072Y-100506595D01*
X127522196Y-100304599D01*
X127524099Y-100293804D01*
X127542326Y-100085475D01*
X127542326Y-100074525D01*
X127524099Y-99866196D01*
X127522196Y-99855401D01*
X127468072Y-99653405D01*
X127464326Y-99643113D01*
X127375946Y-99453583D01*
X127370466Y-99444093D01*
X127341589Y-99402851D01*
X127331113Y-99394477D01*
X127317666Y-99401545D01*
X126652021Y-100067189D01*
X126644408Y-100081132D01*
X125977694Y-100081132D01*
X125980924Y-100035967D01*
X126009885Y-99990905D01*
X126280000Y-99720790D01*
X126959176Y-99041613D01*
X126965606Y-99029838D01*
X126956310Y-99017824D01*
X126915912Y-98989536D01*
X126906416Y-98984053D01*
X126716887Y-98895674D01*
X126706595Y-98891928D01*
X126504599Y-98837804D01*
X126493804Y-98835901D01*
X126285475Y-98817674D01*
X126274525Y-98817674D01*
X126066196Y-98835901D01*
X126055401Y-98837804D01*
X125853405Y-98891928D01*
X125843113Y-98895674D01*
X125683750Y-98969987D01*
X125613559Y-98980648D01*
X125548746Y-98951668D01*
X125509889Y-98892249D01*
X125504500Y-98855792D01*
X125504500Y-97721846D01*
X125506000Y-97702461D01*
X125508269Y-97687891D01*
X125508269Y-97687888D01*
X125509650Y-97679019D01*
X125507328Y-97661261D01*
X125506462Y-97637863D01*
X125508309Y-97604989D01*
X125520208Y-97393096D01*
X129940729Y-97393096D01*
X129943437Y-97417624D01*
X129955933Y-97530805D01*
X129958113Y-97550553D01*
X129960723Y-97557684D01*
X129960723Y-97557686D01*
X130004608Y-97677607D01*
X130012553Y-97699319D01*
X130016789Y-97705622D01*
X130016789Y-97705623D01*
X130095915Y-97823374D01*
X130100908Y-97830805D01*
X130106527Y-97835918D01*
X130106528Y-97835919D01*
X130196896Y-97918147D01*
X130218076Y-97937419D01*
X130357293Y-98013008D01*
X130510522Y-98053207D01*
X130594477Y-98054526D01*
X130661319Y-98055576D01*
X130661322Y-98055576D01*
X130668916Y-98055695D01*
X130823332Y-98020329D01*
X130916824Y-97973308D01*
X130958072Y-97952563D01*
X130958075Y-97952561D01*
X130964855Y-97949151D01*
X130970626Y-97944222D01*
X130970629Y-97944220D01*
X131079542Y-97851199D01*
X131079543Y-97851198D01*
X131085314Y-97846269D01*
X131089745Y-97840103D01*
X131112039Y-97809078D01*
X131168034Y-97765431D01*
X131214361Y-97756605D01*
X134798710Y-97756605D01*
X134866831Y-97776607D01*
X134894091Y-97800274D01*
X134895241Y-97801606D01*
X134899477Y-97807910D01*
X135016645Y-97914524D01*
X135155862Y-97990113D01*
X135309091Y-98030312D01*
X135393046Y-98031631D01*
X135459888Y-98032681D01*
X135459891Y-98032681D01*
X135467485Y-98032800D01*
X135621901Y-97997434D01*
X135693380Y-97961484D01*
X135756641Y-97929668D01*
X135756644Y-97929666D01*
X135763424Y-97926256D01*
X135769195Y-97921327D01*
X135769198Y-97921325D01*
X135878105Y-97828309D01*
X135878105Y-97828308D01*
X135883883Y-97823374D01*
X135976324Y-97694729D01*
X136035411Y-97547746D01*
X136053051Y-97423798D01*
X136057150Y-97394996D01*
X136057150Y-97394993D01*
X136057731Y-97390912D01*
X136057876Y-97377105D01*
X136038845Y-97219838D01*
X135982849Y-97071651D01*
X135968793Y-97051199D01*
X135897424Y-96947356D01*
X135897423Y-96947354D01*
X135893122Y-96941097D01*
X135774844Y-96835716D01*
X135767458Y-96831805D01*
X135641557Y-96765144D01*
X135641558Y-96765144D01*
X135634843Y-96761589D01*
X135481202Y-96722997D01*
X135473603Y-96722957D01*
X135473602Y-96722957D01*
X135407750Y-96722612D01*
X135322790Y-96722167D01*
X135315410Y-96723939D01*
X135315408Y-96723939D01*
X135176132Y-96757376D01*
X135176129Y-96757377D01*
X135168753Y-96759148D01*
X135027983Y-96831805D01*
X134908608Y-96935943D01*
X134904241Y-96942156D01*
X134904236Y-96942162D01*
X134902905Y-96944056D01*
X134901582Y-96945110D01*
X134899158Y-96947802D01*
X134898709Y-96947398D01*
X134847371Y-96988288D01*
X134799819Y-96997605D01*
X131179862Y-96997605D01*
X131111741Y-96977603D01*
X131095136Y-96963338D01*
X131094553Y-96963992D01*
X131055230Y-96928957D01*
X130976275Y-96858611D01*
X130968889Y-96854700D01*
X130842988Y-96788039D01*
X130842989Y-96788039D01*
X130836274Y-96784484D01*
X130682633Y-96745892D01*
X130675034Y-96745852D01*
X130675033Y-96745852D01*
X130609181Y-96745507D01*
X130524221Y-96745062D01*
X130516841Y-96746834D01*
X130516839Y-96746834D01*
X130377563Y-96780271D01*
X130377560Y-96780272D01*
X130370184Y-96782043D01*
X130229414Y-96854700D01*
X130110039Y-96958838D01*
X130018950Y-97088444D01*
X129998443Y-97141042D01*
X129965301Y-97226048D01*
X129961406Y-97236037D01*
X129960414Y-97243570D01*
X129960414Y-97243571D01*
X129947188Y-97344036D01*
X129940729Y-97393096D01*
X125520208Y-97393096D01*
X125520253Y-97392295D01*
X125521835Y-97378258D01*
X125526116Y-97353065D01*
X125547471Y-97227378D01*
X125567708Y-97108269D01*
X125570852Y-97094494D01*
X125646666Y-96831337D01*
X125651333Y-96818000D01*
X125729122Y-96630199D01*
X125756135Y-96564985D01*
X125762264Y-96552258D01*
X125894737Y-96312567D01*
X125902244Y-96300619D01*
X125984289Y-96184987D01*
X126040021Y-96141006D01*
X126058917Y-96135082D01*
X126123332Y-96120329D01*
X126137892Y-96113006D01*
X126258072Y-96052563D01*
X126258075Y-96052561D01*
X126264855Y-96049151D01*
X126270626Y-96044222D01*
X126270629Y-96044220D01*
X126379536Y-95951204D01*
X126379536Y-95951203D01*
X126385314Y-95946269D01*
X126477755Y-95817624D01*
X126536842Y-95670641D01*
X126559162Y-95513807D01*
X126559307Y-95500000D01*
X126540276Y-95342733D01*
X126484280Y-95194546D01*
X126433100Y-95120078D01*
X126398855Y-95070251D01*
X126398854Y-95070249D01*
X126394553Y-95063992D01*
X126276275Y-94958611D01*
X126268889Y-94954700D01*
X126165580Y-94900001D01*
X126136274Y-94884484D01*
X125982633Y-94845892D01*
X125975034Y-94845852D01*
X125975033Y-94845852D01*
X125909181Y-94845507D01*
X125824221Y-94845062D01*
X125816841Y-94846834D01*
X125816839Y-94846834D01*
X125677563Y-94880271D01*
X125677560Y-94880272D01*
X125670184Y-94882043D01*
X125529414Y-94954700D01*
X125410039Y-95058838D01*
X125318950Y-95188444D01*
X125261406Y-95336037D01*
X125260414Y-95343570D01*
X125260414Y-95343571D01*
X125246097Y-95452320D01*
X125222379Y-95510932D01*
X125094796Y-95682958D01*
X125093213Y-95685599D01*
X125093207Y-95685608D01*
X125018308Y-95810571D01*
X124914098Y-95984435D01*
X124912784Y-95987214D01*
X124912782Y-95987217D01*
X124765140Y-96299379D01*
X124765136Y-96299388D01*
X124763820Y-96302171D01*
X124737546Y-96375602D01*
X124646449Y-96630199D01*
X124646446Y-96630208D01*
X124645409Y-96633107D01*
X124644660Y-96636097D01*
X124644657Y-96636107D01*
X124571303Y-96928957D01*
X124560006Y-96974056D01*
X124508433Y-97321734D01*
X124508281Y-97324818D01*
X124508281Y-97324823D01*
X124504556Y-97400646D01*
X124492925Y-97637419D01*
X124492713Y-97641727D01*
X124491532Y-97652638D01*
X124491272Y-97655534D01*
X124490464Y-97660339D01*
X124490312Y-97672792D01*
X124493454Y-97694729D01*
X124494227Y-97700128D01*
X124495500Y-97717991D01*
X124495500Y-112263590D01*
X124475498Y-112331711D01*
X124442400Y-112366360D01*
X124364359Y-112421719D01*
X124275014Y-112485096D01*
X124129272Y-112637340D01*
X124126021Y-112642375D01*
X124086447Y-112703664D01*
X124032692Y-112750042D01*
X123962396Y-112759995D01*
X123897879Y-112730363D01*
X123859623Y-112670555D01*
X123855268Y-112648319D01*
X123847743Y-112575794D01*
X123844851Y-112562400D01*
X123793412Y-112408216D01*
X123787239Y-112395038D01*
X123701937Y-112257193D01*
X123692901Y-112245792D01*
X123578171Y-112131261D01*
X123566760Y-112122249D01*
X123428757Y-112037184D01*
X123415576Y-112031037D01*
X123261290Y-111979862D01*
X123247914Y-111976995D01*
X123153562Y-111967328D01*
X123147145Y-111967000D01*
X122772115Y-111967000D01*
X122756876Y-111971475D01*
X122755671Y-111972865D01*
X122754000Y-111980548D01*
X122754000Y-114814884D01*
X122246000Y-114814884D01*
X122246000Y-113672115D01*
X122241525Y-113656876D01*
X122240135Y-113655671D01*
X122232452Y-113654000D01*
X121160116Y-113654000D01*
X121144877Y-113658475D01*
X121143672Y-113659865D01*
X121142001Y-113667548D01*
X121142001Y-114122095D01*
X120254000Y-114122095D01*
X120254000Y-113127885D01*
X121142000Y-113127885D01*
X121146475Y-113143124D01*
X121147865Y-113144329D01*
X121155548Y-113146000D01*
X122227885Y-113146000D01*
X122243124Y-113141525D01*
X122244329Y-113140135D01*
X122246000Y-113132452D01*
X122246000Y-111985116D01*
X122241525Y-111969877D01*
X122240135Y-111968672D01*
X122232452Y-111967001D01*
X121852905Y-111967001D01*
X121846386Y-111967338D01*
X121750794Y-111977257D01*
X121737400Y-111980149D01*
X121583216Y-112031588D01*
X121570038Y-112037761D01*
X121432193Y-112123063D01*
X121420792Y-112132099D01*
X121306261Y-112246829D01*
X121297249Y-112258240D01*
X121212184Y-112396243D01*
X121206037Y-112409424D01*
X121154862Y-112563710D01*
X121151995Y-112577086D01*
X121142328Y-112671438D01*
X121142000Y-112677855D01*
X121142000Y-113127885D01*
X120254000Y-113127885D01*
X120254000Y-109679319D01*
X121515041Y-109679319D01*
X121524923Y-109691809D01*
X121562259Y-109716756D01*
X121572371Y-109722247D01*
X121753081Y-109799885D01*
X121764014Y-109803437D01*
X121955844Y-109846845D01*
X121967253Y-109848347D01*
X122163783Y-109856068D01*
X122175265Y-109855466D01*
X122369905Y-109827245D01*
X122381101Y-109824557D01*
X122567343Y-109761336D01*
X122577840Y-109756662D01*
X122696401Y-109690266D01*
X122706264Y-109680189D01*
X122703309Y-109672519D01*
X122122812Y-109092022D01*
X122108868Y-109084408D01*
X122107035Y-109084539D01*
X122100420Y-109088790D01*
X121521237Y-109667973D01*
X121515041Y-109679319D01*
X120254000Y-109679319D01*
X120254000Y-108695980D01*
X120972914Y-108695980D01*
X120985777Y-108892233D01*
X120987577Y-108903601D01*
X121035991Y-109094228D01*
X121039829Y-109105066D01*
X121122173Y-109283685D01*
X121127922Y-109293642D01*
X121137850Y-109307690D01*
X121148439Y-109316078D01*
X121161740Y-109309050D01*
X121737978Y-108732812D01*
X121744356Y-108721132D01*
X122474408Y-108721132D01*
X122474539Y-108722965D01*
X122478790Y-108729580D01*
X123058603Y-109309393D01*
X123070983Y-109316153D01*
X123077563Y-109311227D01*
X123146662Y-109187840D01*
X123151336Y-109177343D01*
X123214557Y-108991101D01*
X123217245Y-108979905D01*
X123245762Y-108783224D01*
X123246392Y-108775843D01*
X123247757Y-108723704D01*
X123247514Y-108716305D01*
X123229330Y-108518397D01*
X123227233Y-108507083D01*
X123173846Y-108317789D01*
X123169724Y-108307050D01*
X123082736Y-108130656D01*
X123081577Y-108128765D01*
X123072732Y-108122126D01*
X123060312Y-108128898D01*
X122482022Y-108707188D01*
X122474408Y-108721132D01*
X121744356Y-108721132D01*
X121745592Y-108718868D01*
X121745461Y-108717035D01*
X121741210Y-108710420D01*
X121160031Y-108129241D01*
X121147651Y-108122481D01*
X121141685Y-108126947D01*
X121061452Y-108279445D01*
X121057047Y-108290079D01*
X120998724Y-108477910D01*
X120996332Y-108489164D01*
X120973215Y-108684479D01*
X120972914Y-108695980D01*
X120254000Y-108695980D01*
X120254000Y-107760436D01*
X121514547Y-107760436D01*
X121518033Y-107768823D01*
X122097188Y-108347978D01*
X122111132Y-108355592D01*
X122112965Y-108355461D01*
X122119580Y-108351210D01*
X122698407Y-107772383D01*
X122705167Y-107760003D01*
X122699137Y-107751948D01*
X122631459Y-107709246D01*
X122621211Y-107704025D01*
X122438531Y-107631143D01*
X122427504Y-107627876D01*
X122234605Y-107589506D01*
X122223159Y-107588303D01*
X122026507Y-107585730D01*
X122015027Y-107586633D01*
X121821199Y-107619938D01*
X121810079Y-107622918D01*
X121625557Y-107690992D01*
X121615179Y-107695942D01*
X121524146Y-107750101D01*
X121514547Y-107760436D01*
X120254000Y-107760436D01*
X120254000Y-101039319D01*
X121515041Y-101039319D01*
X121524923Y-101051809D01*
X121562259Y-101076756D01*
X121572371Y-101082247D01*
X121753081Y-101159885D01*
X121764014Y-101163437D01*
X121955844Y-101206845D01*
X121967253Y-101208347D01*
X122163783Y-101216068D01*
X122175265Y-101215466D01*
X122369905Y-101187245D01*
X122381101Y-101184557D01*
X122567343Y-101121336D01*
X122577840Y-101116662D01*
X122696401Y-101050266D01*
X122706264Y-101040189D01*
X122703309Y-101032519D01*
X122122812Y-100452022D01*
X122108868Y-100444408D01*
X122107035Y-100444539D01*
X122100420Y-100448790D01*
X121521237Y-101027973D01*
X121515041Y-101039319D01*
X120254000Y-101039319D01*
X120254000Y-100055980D01*
X120972914Y-100055980D01*
X120985777Y-100252233D01*
X120987577Y-100263601D01*
X121035991Y-100454228D01*
X121039829Y-100465066D01*
X121122173Y-100643685D01*
X121127922Y-100653642D01*
X121137850Y-100667690D01*
X121148439Y-100676078D01*
X121161740Y-100669050D01*
X121737978Y-100092812D01*
X121744356Y-100081132D01*
X122474408Y-100081132D01*
X122474539Y-100082965D01*
X122478790Y-100089580D01*
X123058603Y-100669393D01*
X123070983Y-100676153D01*
X123077563Y-100671227D01*
X123146662Y-100547840D01*
X123151336Y-100537343D01*
X123214557Y-100351101D01*
X123217245Y-100339905D01*
X123245762Y-100143224D01*
X123246392Y-100135843D01*
X123247757Y-100083704D01*
X123247514Y-100076305D01*
X123229330Y-99878397D01*
X123227233Y-99867083D01*
X123173846Y-99677789D01*
X123169724Y-99667050D01*
X123082736Y-99490656D01*
X123081577Y-99488765D01*
X123072732Y-99482126D01*
X123060312Y-99488898D01*
X122482022Y-100067188D01*
X122474408Y-100081132D01*
X121744356Y-100081132D01*
X121745592Y-100078868D01*
X121745461Y-100077035D01*
X121741210Y-100070420D01*
X121160031Y-99489241D01*
X121147651Y-99482481D01*
X121141685Y-99486947D01*
X121061452Y-99639445D01*
X121057047Y-99650079D01*
X120998724Y-99837910D01*
X120996332Y-99849164D01*
X120973215Y-100044479D01*
X120972914Y-100055980D01*
X120254000Y-100055980D01*
X120254000Y-99120436D01*
X121514547Y-99120436D01*
X121518033Y-99128823D01*
X122097188Y-99707978D01*
X122111132Y-99715592D01*
X122112965Y-99715461D01*
X122119580Y-99711210D01*
X122698407Y-99132383D01*
X122705167Y-99120003D01*
X122699137Y-99111948D01*
X122631459Y-99069246D01*
X122621211Y-99064025D01*
X122438531Y-98991143D01*
X122427504Y-98987876D01*
X122234605Y-98949506D01*
X122223159Y-98948303D01*
X122026507Y-98945730D01*
X122015027Y-98946633D01*
X121821199Y-98979938D01*
X121810079Y-98982918D01*
X121625557Y-99050992D01*
X121615179Y-99055942D01*
X121524146Y-99110101D01*
X121514547Y-99120436D01*
X120254000Y-99120436D01*
X120254000Y-93693096D01*
X130340729Y-93693096D01*
X130358113Y-93850553D01*
X130360723Y-93857684D01*
X130360723Y-93857686D01*
X130398702Y-93961468D01*
X130412553Y-93999319D01*
X130416789Y-94005622D01*
X130416789Y-94005623D01*
X130488225Y-94111930D01*
X130500908Y-94130805D01*
X130618076Y-94237419D01*
X130757293Y-94313008D01*
X130910522Y-94353207D01*
X130992822Y-94354500D01*
X131061318Y-94355576D01*
X131061321Y-94355576D01*
X131068916Y-94355695D01*
X131075730Y-94354134D01*
X131130181Y-94360477D01*
X131147840Y-94366656D01*
X131154867Y-94367448D01*
X131154868Y-94367448D01*
X131185021Y-94370845D01*
X131211474Y-94373825D01*
X131223887Y-94375856D01*
X131226371Y-94376391D01*
X131233851Y-94379018D01*
X131239416Y-94379500D01*
X131254755Y-94379500D01*
X131268862Y-94380292D01*
X131276153Y-94381113D01*
X131287775Y-94382423D01*
X131289671Y-94382680D01*
X131290057Y-94382680D01*
X131290572Y-94382738D01*
X131300000Y-94384231D01*
X131320078Y-94381051D01*
X131339788Y-94379500D01*
X138160211Y-94379500D01*
X138179921Y-94381051D01*
X138199999Y-94384231D01*
X138209792Y-94382680D01*
X138219710Y-94382680D01*
X138219710Y-94383335D01*
X138234509Y-94382899D01*
X138248034Y-94384231D01*
X138328212Y-94392128D01*
X138352432Y-94396945D01*
X138463856Y-94430745D01*
X138486664Y-94440193D01*
X138589348Y-94495080D01*
X138609880Y-94508799D01*
X138699877Y-94582657D01*
X138717342Y-94600122D01*
X138781169Y-94677895D01*
X138791199Y-94690117D01*
X138804920Y-94710652D01*
X138859806Y-94813334D01*
X138869255Y-94836144D01*
X138903055Y-94947568D01*
X138907872Y-94971788D01*
X138917101Y-95065490D01*
X138916665Y-95080290D01*
X138917320Y-95080290D01*
X138917320Y-95090208D01*
X138915769Y-95100001D01*
X138917320Y-95109791D01*
X138917320Y-95109793D01*
X138918949Y-95120078D01*
X138920500Y-95139789D01*
X138920500Y-99760212D01*
X138918949Y-99779922D01*
X138915769Y-99800000D01*
X138917038Y-99808012D01*
X138917320Y-99811955D01*
X138917320Y-99812497D01*
X138917423Y-99813393D01*
X138932583Y-100025361D01*
X138944715Y-100081132D01*
X138958223Y-100143224D01*
X138980609Y-100246133D01*
X138982176Y-100250335D01*
X138982178Y-100250341D01*
X139054562Y-100444408D01*
X139059566Y-100457824D01*
X139061720Y-100461768D01*
X139061721Y-100461771D01*
X139146300Y-100616665D01*
X139167846Y-100656124D01*
X139303244Y-100836995D01*
X139463005Y-100996756D01*
X139643876Y-101132154D01*
X139647830Y-101134313D01*
X139796451Y-101215466D01*
X139842176Y-101240434D01*
X139846388Y-101242005D01*
X140049659Y-101317822D01*
X140049665Y-101317824D01*
X140053867Y-101319391D01*
X140058253Y-101320345D01*
X140058256Y-101320346D01*
X140075509Y-101324099D01*
X140274639Y-101367417D01*
X140279123Y-101367738D01*
X140279125Y-101367738D01*
X140430577Y-101378570D01*
X140433849Y-101379037D01*
X140433851Y-101379018D01*
X140436712Y-101379266D01*
X140436717Y-101379266D01*
X140439416Y-101379500D01*
X140442123Y-101379500D01*
X140444019Y-101379582D01*
X140447558Y-101379785D01*
X140475340Y-101381771D01*
X140486602Y-101382577D01*
X140487501Y-101382680D01*
X140488045Y-101382680D01*
X140491988Y-101382962D01*
X140500000Y-101384231D01*
X140520078Y-101381051D01*
X140539788Y-101379500D01*
X150224861Y-101379500D01*
X150292982Y-101399502D01*
X150339475Y-101453158D01*
X150349579Y-101523432D01*
X150320085Y-101588012D01*
X150307939Y-101600231D01*
X150200376Y-101694562D01*
X150200368Y-101694570D01*
X150197279Y-101697279D01*
X150194570Y-101700368D01*
X150028905Y-101889271D01*
X150028901Y-101889277D01*
X150026187Y-101892371D01*
X150023898Y-101895797D01*
X150023894Y-101895802D01*
X149948438Y-102008730D01*
X149882024Y-102108126D01*
X149880200Y-102111825D01*
X149880197Y-102111830D01*
X149876644Y-102119035D01*
X149767256Y-102340853D01*
X149765931Y-102344758D01*
X149765930Y-102344759D01*
X149687822Y-102574860D01*
X149683847Y-102586569D01*
X149683044Y-102590608D01*
X149683042Y-102590614D01*
X149634225Y-102836037D01*
X149633224Y-102841069D01*
X149632955Y-102845179D01*
X149632954Y-102845184D01*
X149617182Y-103085823D01*
X149617182Y-103085825D01*
X149616595Y-103094787D01*
X149615769Y-103100000D01*
X149617321Y-103109796D01*
X149618949Y-103120077D01*
X149620500Y-103139788D01*
X149620500Y-106877051D01*
X149600498Y-106945172D01*
X149577330Y-106971999D01*
X149510039Y-107030702D01*
X149418950Y-107160308D01*
X149361406Y-107307901D01*
X149340729Y-107464960D01*
X149344133Y-107495792D01*
X149356741Y-107609987D01*
X149358113Y-107622417D01*
X149360723Y-107629548D01*
X149360723Y-107629550D01*
X149408462Y-107760003D01*
X149412553Y-107771183D01*
X149500908Y-107902669D01*
X149506527Y-107907782D01*
X149506528Y-107907783D01*
X149517903Y-107918133D01*
X149618076Y-108009283D01*
X149757293Y-108084872D01*
X149910522Y-108125071D01*
X149994477Y-108126390D01*
X150061319Y-108127440D01*
X150061322Y-108127440D01*
X150068916Y-108127559D01*
X150223332Y-108092193D01*
X150321439Y-108042851D01*
X150358072Y-108024427D01*
X150358075Y-108024425D01*
X150364855Y-108021015D01*
X150370626Y-108016086D01*
X150370629Y-108016084D01*
X150479536Y-107923068D01*
X150479536Y-107923067D01*
X150485314Y-107918133D01*
X150577755Y-107789488D01*
X150636842Y-107642505D01*
X150644556Y-107588303D01*
X150658581Y-107489755D01*
X150658581Y-107489752D01*
X150659162Y-107485671D01*
X150659307Y-107471864D01*
X150640276Y-107314597D01*
X150584280Y-107166410D01*
X150494553Y-107035856D01*
X150421681Y-106970929D01*
X150384126Y-106910680D01*
X150379500Y-106876853D01*
X150379500Y-103139788D01*
X150381051Y-103120077D01*
X150382680Y-103109794D01*
X150382680Y-103109793D01*
X150384231Y-103100000D01*
X150382679Y-103090205D01*
X150382679Y-103080290D01*
X150382834Y-103080290D01*
X150382240Y-103065180D01*
X150393748Y-102918956D01*
X150396841Y-102899428D01*
X150410852Y-102841069D01*
X150436922Y-102732481D01*
X150443030Y-102713682D01*
X150508733Y-102555061D01*
X150517707Y-102537450D01*
X150607414Y-102391063D01*
X150619035Y-102375068D01*
X150730536Y-102244517D01*
X150744517Y-102230536D01*
X150875068Y-102119035D01*
X150891063Y-102107414D01*
X151037450Y-102017707D01*
X151055061Y-102008733D01*
X151213687Y-101943028D01*
X151232481Y-101936922D01*
X151399429Y-101896841D01*
X151418956Y-101893748D01*
X151565180Y-101882240D01*
X151580290Y-101882834D01*
X151580290Y-101882679D01*
X151590205Y-101882679D01*
X151600000Y-101884231D01*
X151609793Y-101882680D01*
X151609794Y-101882680D01*
X151617535Y-101881454D01*
X151620078Y-101881051D01*
X151639788Y-101879500D01*
X153060213Y-101879500D01*
X153079923Y-101881051D01*
X153082119Y-101881399D01*
X153090213Y-101882681D01*
X153090215Y-101882681D01*
X153100001Y-101884231D01*
X153102131Y-101883894D01*
X153112633Y-101883143D01*
X153270759Y-101871833D01*
X153353897Y-101865887D01*
X153358293Y-101864931D01*
X153358298Y-101864930D01*
X153598226Y-101812736D01*
X153598229Y-101812735D01*
X153602624Y-101811779D01*
X153841119Y-101722825D01*
X154064528Y-101600834D01*
X154260880Y-101453846D01*
X154264697Y-101450989D01*
X154264698Y-101450988D01*
X154268301Y-101448291D01*
X154448291Y-101268301D01*
X154600834Y-101064528D01*
X154722825Y-100841119D01*
X154811779Y-100602624D01*
X154823697Y-100547840D01*
X154864930Y-100358298D01*
X154864931Y-100358293D01*
X154865887Y-100353897D01*
X154883894Y-100102131D01*
X154884231Y-100100001D01*
X154882581Y-100089580D01*
X154881051Y-100079924D01*
X154879500Y-100060213D01*
X154879500Y-98039787D01*
X154881051Y-98020076D01*
X154882681Y-98009787D01*
X154882681Y-98009785D01*
X154884231Y-97999999D01*
X154883894Y-97997869D01*
X154879571Y-97937419D01*
X154866208Y-97750592D01*
X154865887Y-97746103D01*
X154860611Y-97721846D01*
X154812736Y-97501774D01*
X154812735Y-97501771D01*
X154811779Y-97497376D01*
X154722825Y-97258881D01*
X154600834Y-97035472D01*
X154448291Y-96831699D01*
X154268301Y-96651709D01*
X154064528Y-96499166D01*
X153841119Y-96377175D01*
X153602624Y-96288221D01*
X153598229Y-96287265D01*
X153598226Y-96287264D01*
X153358298Y-96235070D01*
X153358293Y-96235069D01*
X153353897Y-96234113D01*
X153102131Y-96216106D01*
X153100001Y-96215769D01*
X153090215Y-96217319D01*
X153090213Y-96217319D01*
X153079924Y-96218949D01*
X153060213Y-96220500D01*
X152299682Y-96220500D01*
X152231561Y-96200498D01*
X152205114Y-96174860D01*
X152203878Y-96175949D01*
X152198855Y-96170251D01*
X152194553Y-96163992D01*
X152174143Y-96145807D01*
X152081946Y-96063664D01*
X152076275Y-96058611D01*
X152068889Y-96054700D01*
X151942988Y-95988039D01*
X151942989Y-95988039D01*
X151936274Y-95984484D01*
X151782633Y-95945892D01*
X151775034Y-95945852D01*
X151775033Y-95945852D01*
X151709181Y-95945507D01*
X151624221Y-95945062D01*
X151616841Y-95946834D01*
X151616839Y-95946834D01*
X151477563Y-95980271D01*
X151477560Y-95980272D01*
X151470184Y-95982043D01*
X151329414Y-96054700D01*
X151210039Y-96158838D01*
X151118950Y-96288444D01*
X151109542Y-96312575D01*
X151083514Y-96379334D01*
X151061406Y-96436037D01*
X151060414Y-96443570D01*
X151060414Y-96443571D01*
X151044604Y-96563664D01*
X151040729Y-96593096D01*
X151045478Y-96636107D01*
X151055175Y-96723939D01*
X151058113Y-96750553D01*
X151060723Y-96757684D01*
X151060723Y-96757686D01*
X151098051Y-96859689D01*
X151112553Y-96899319D01*
X151116789Y-96905622D01*
X151116789Y-96905623D01*
X151178599Y-96997605D01*
X151200908Y-97030805D01*
X151206527Y-97035918D01*
X151206528Y-97035919D01*
X151296615Y-97117891D01*
X151318076Y-97137419D01*
X151457293Y-97213008D01*
X151610522Y-97253207D01*
X151694477Y-97254526D01*
X151761319Y-97255576D01*
X151761322Y-97255576D01*
X151768916Y-97255695D01*
X151923332Y-97220329D01*
X151993742Y-97184917D01*
X152058072Y-97152563D01*
X152058075Y-97152561D01*
X152064855Y-97149151D01*
X152070626Y-97144222D01*
X152070629Y-97144220D01*
X152179542Y-97051199D01*
X152179543Y-97051198D01*
X152185314Y-97046269D01*
X152195586Y-97031974D01*
X152251581Y-96988326D01*
X152297909Y-96979500D01*
X153060211Y-96979500D01*
X153079922Y-96981051D01*
X153090205Y-96982680D01*
X153090206Y-96982680D01*
X153099999Y-96984231D01*
X153109794Y-96982679D01*
X153119710Y-96982679D01*
X153119710Y-96983053D01*
X153134655Y-96982532D01*
X153266221Y-96994043D01*
X153287850Y-96997856D01*
X153438383Y-97038191D01*
X153459022Y-97045703D01*
X153600262Y-97111565D01*
X153619282Y-97122547D01*
X153746935Y-97211930D01*
X153763760Y-97226048D01*
X153873952Y-97336240D01*
X153888070Y-97353065D01*
X153977453Y-97480718D01*
X153988435Y-97499738D01*
X154054297Y-97640978D01*
X154061809Y-97661617D01*
X154102144Y-97812150D01*
X154105957Y-97833778D01*
X154107050Y-97846269D01*
X154116052Y-97949151D01*
X154117065Y-97960731D01*
X154103077Y-98030336D01*
X154053678Y-98081329D01*
X153984552Y-98097520D01*
X153946388Y-98089344D01*
X153942987Y-98088038D01*
X153936274Y-98084484D01*
X153923714Y-98081329D01*
X153811755Y-98053207D01*
X153782633Y-98045892D01*
X153775034Y-98045852D01*
X153775033Y-98045852D01*
X153709181Y-98045507D01*
X153624221Y-98045062D01*
X153616841Y-98046834D01*
X153616839Y-98046834D01*
X153477563Y-98080271D01*
X153477560Y-98080272D01*
X153470184Y-98082043D01*
X153329414Y-98154700D01*
X153210039Y-98258838D01*
X153118950Y-98388444D01*
X153116190Y-98395524D01*
X153066178Y-98523798D01*
X153061406Y-98536037D01*
X153060414Y-98543570D01*
X153060414Y-98543571D01*
X153042757Y-98677695D01*
X153040729Y-98693096D01*
X153049421Y-98771824D01*
X153053153Y-98805623D01*
X153058113Y-98850553D01*
X153060723Y-98857684D01*
X153060723Y-98857686D01*
X153108366Y-98987876D01*
X153112553Y-98999319D01*
X153116789Y-99005622D01*
X153116789Y-99005623D01*
X153188237Y-99111948D01*
X153200908Y-99130805D01*
X153206527Y-99135918D01*
X153206528Y-99135919D01*
X153225658Y-99153326D01*
X153318076Y-99237419D01*
X153457293Y-99313008D01*
X153464635Y-99314934D01*
X153464637Y-99314935D01*
X153526473Y-99331157D01*
X153587288Y-99367790D01*
X153618644Y-99431488D01*
X153620500Y-99453033D01*
X153620500Y-99760212D01*
X153618949Y-99779922D01*
X153615769Y-99800000D01*
X153617320Y-99809793D01*
X153617320Y-99819711D01*
X153616665Y-99819711D01*
X153617101Y-99834510D01*
X153605951Y-99947717D01*
X153601133Y-99971942D01*
X153561645Y-100102118D01*
X153552193Y-100124937D01*
X153542418Y-100143224D01*
X153488071Y-100244900D01*
X153474348Y-100265438D01*
X153388053Y-100370588D01*
X153370588Y-100388053D01*
X153265438Y-100474348D01*
X153244900Y-100488071D01*
X153124937Y-100552193D01*
X153102118Y-100561645D01*
X152971942Y-100601133D01*
X152947718Y-100605951D01*
X152834510Y-100617101D01*
X152819711Y-100616665D01*
X152819711Y-100617320D01*
X152809793Y-100617320D01*
X152800000Y-100615769D01*
X152779923Y-100618949D01*
X152760212Y-100620500D01*
X140539788Y-100620500D01*
X140520077Y-100618949D01*
X140500000Y-100615769D01*
X140490207Y-100617320D01*
X140480289Y-100617320D01*
X140480289Y-100616665D01*
X140465490Y-100617101D01*
X140352282Y-100605951D01*
X140328058Y-100601133D01*
X140197882Y-100561645D01*
X140175063Y-100552193D01*
X140055100Y-100488071D01*
X140034562Y-100474348D01*
X139929412Y-100388053D01*
X139911947Y-100370588D01*
X139825652Y-100265438D01*
X139811929Y-100244900D01*
X139757582Y-100143224D01*
X139747807Y-100124937D01*
X139738355Y-100102118D01*
X139698867Y-99971942D01*
X139694049Y-99947717D01*
X139682899Y-99834510D01*
X139683335Y-99819711D01*
X139682680Y-99819711D01*
X139682680Y-99809793D01*
X139684231Y-99800000D01*
X139681051Y-99779922D01*
X139679500Y-99760212D01*
X139679500Y-95139787D01*
X139681051Y-95120076D01*
X139682680Y-95109791D01*
X139684231Y-95099999D01*
X139682680Y-95090207D01*
X139682680Y-95088622D01*
X139682109Y-95083646D01*
X139680811Y-95065490D01*
X139668181Y-94888907D01*
X139666817Y-94882634D01*
X139624153Y-94686515D01*
X139624152Y-94686513D01*
X139623195Y-94682112D01*
X139549237Y-94483824D01*
X139499168Y-94392128D01*
X139455965Y-94313008D01*
X139447813Y-94298079D01*
X139320987Y-94128659D01*
X139286923Y-94094595D01*
X139252897Y-94032283D01*
X139257962Y-93961468D01*
X139300509Y-93904632D01*
X139367029Y-93879821D01*
X139376018Y-93879500D01*
X140960211Y-93879500D01*
X140979922Y-93881051D01*
X140990205Y-93882680D01*
X140990206Y-93882680D01*
X140999999Y-93884231D01*
X141009794Y-93882679D01*
X141019710Y-93882679D01*
X141019710Y-93883053D01*
X141034655Y-93882532D01*
X141166221Y-93894043D01*
X141187850Y-93897856D01*
X141338383Y-93938191D01*
X141359022Y-93945703D01*
X141500262Y-94011565D01*
X141519282Y-94022547D01*
X141646935Y-94111930D01*
X141663760Y-94126048D01*
X141773952Y-94236240D01*
X141788070Y-94253065D01*
X141877453Y-94380718D01*
X141888435Y-94399738D01*
X141954297Y-94540978D01*
X141961809Y-94561617D01*
X142002144Y-94712150D01*
X142005957Y-94733779D01*
X142017468Y-94865345D01*
X142016947Y-94880290D01*
X142017321Y-94880290D01*
X142017321Y-94890206D01*
X142015769Y-94900001D01*
X142017320Y-94909794D01*
X142017320Y-94909795D01*
X142018949Y-94920078D01*
X142020500Y-94939789D01*
X142020500Y-97605187D01*
X142000498Y-97673308D01*
X141977330Y-97700135D01*
X141910039Y-97758838D01*
X141818950Y-97888444D01*
X141799311Y-97938816D01*
X141764390Y-98028384D01*
X141761406Y-98036037D01*
X141760414Y-98043570D01*
X141760414Y-98043571D01*
X141742160Y-98182228D01*
X141740729Y-98193096D01*
X141747436Y-98253846D01*
X141757250Y-98342733D01*
X141758113Y-98350553D01*
X141760723Y-98357684D01*
X141760723Y-98357686D01*
X141807520Y-98485565D01*
X141812553Y-98499319D01*
X141816789Y-98505622D01*
X141816789Y-98505623D01*
X141822289Y-98513807D01*
X141900908Y-98630805D01*
X141906527Y-98635918D01*
X141906528Y-98635919D01*
X141917903Y-98646269D01*
X142018076Y-98737419D01*
X142157293Y-98813008D01*
X142310522Y-98853207D01*
X142394477Y-98854526D01*
X142461319Y-98855576D01*
X142461322Y-98855576D01*
X142468916Y-98855695D01*
X142623332Y-98820329D01*
X142693742Y-98784917D01*
X142758072Y-98752563D01*
X142758075Y-98752561D01*
X142764855Y-98749151D01*
X142770626Y-98744222D01*
X142770629Y-98744220D01*
X142879536Y-98651204D01*
X142879536Y-98651203D01*
X142885314Y-98646269D01*
X142977755Y-98517624D01*
X143036842Y-98370641D01*
X143051869Y-98265052D01*
X143058581Y-98217891D01*
X143058581Y-98217888D01*
X143059162Y-98213807D01*
X143059307Y-98200000D01*
X143040276Y-98042733D01*
X142984280Y-97894546D01*
X142951100Y-97846269D01*
X142898855Y-97770251D01*
X142898854Y-97770249D01*
X142894553Y-97763992D01*
X142821681Y-97699065D01*
X142784126Y-97638816D01*
X142779500Y-97604989D01*
X142779500Y-94939787D01*
X142781051Y-94920076D01*
X142782681Y-94909787D01*
X142782681Y-94909785D01*
X142784231Y-94899999D01*
X142783894Y-94897869D01*
X142780177Y-94845892D01*
X142766208Y-94650592D01*
X142765887Y-94646103D01*
X142736019Y-94508801D01*
X142712736Y-94401774D01*
X142712735Y-94401771D01*
X142711779Y-94397376D01*
X142622825Y-94158881D01*
X142500834Y-93935472D01*
X142348291Y-93731699D01*
X142168301Y-93551709D01*
X142161800Y-93546842D01*
X142089337Y-93492597D01*
X141964528Y-93399166D01*
X141741119Y-93277175D01*
X141502624Y-93188221D01*
X141498229Y-93187265D01*
X141498226Y-93187264D01*
X141258298Y-93135070D01*
X141258293Y-93135069D01*
X141253897Y-93134113D01*
X141002131Y-93116106D01*
X141000001Y-93115769D01*
X140990215Y-93117319D01*
X140990213Y-93117319D01*
X140979924Y-93118949D01*
X140960213Y-93120500D01*
X134740335Y-93120500D01*
X134720356Y-93118906D01*
X134715912Y-93118193D01*
X134700828Y-93115770D01*
X134691029Y-93117301D01*
X134681113Y-93117279D01*
X134681115Y-93116453D01*
X134666372Y-93116808D01*
X134583913Y-93107967D01*
X134558175Y-93102442D01*
X134459004Y-93070005D01*
X134434977Y-93059253D01*
X134344707Y-93006918D01*
X134323444Y-92991414D01*
X134246014Y-92921461D01*
X134228433Y-92901871D01*
X134167232Y-92817362D01*
X134154104Y-92794546D01*
X134111798Y-92699166D01*
X134103697Y-92674120D01*
X134086557Y-92592982D01*
X134085418Y-92578277D01*
X134084597Y-92578362D01*
X134083572Y-92568495D01*
X134084102Y-92558595D01*
X134081893Y-92550311D01*
X134081428Y-92541340D01*
X134081428Y-92017582D01*
X134101430Y-91949461D01*
X134125598Y-91921771D01*
X134179538Y-91875702D01*
X134185314Y-91870769D01*
X134241128Y-91793096D01*
X135040729Y-91793096D01*
X135058113Y-91950553D01*
X135060723Y-91957684D01*
X135060723Y-91957686D01*
X135072787Y-91990651D01*
X135112553Y-92099319D01*
X135116789Y-92105622D01*
X135116789Y-92105623D01*
X135169612Y-92184231D01*
X135200908Y-92230805D01*
X135206527Y-92235918D01*
X135206528Y-92235919D01*
X135295531Y-92316905D01*
X135318076Y-92337419D01*
X135457293Y-92413008D01*
X135610522Y-92453207D01*
X135694477Y-92454526D01*
X135761319Y-92455576D01*
X135761322Y-92455576D01*
X135768916Y-92455695D01*
X135923332Y-92420329D01*
X135993742Y-92384917D01*
X136058072Y-92352563D01*
X136058075Y-92352561D01*
X136064855Y-92349151D01*
X136070626Y-92344222D01*
X136070629Y-92344220D01*
X136179542Y-92251199D01*
X136179543Y-92251198D01*
X136185314Y-92246269D01*
X136195586Y-92231974D01*
X136251581Y-92188326D01*
X136297909Y-92179500D01*
X147660212Y-92179500D01*
X147679922Y-92181051D01*
X147700000Y-92184231D01*
X147709793Y-92182680D01*
X147719212Y-92182680D01*
X147734995Y-92182003D01*
X147907407Y-92194334D01*
X147925195Y-92196891D01*
X148119566Y-92239175D01*
X148136809Y-92244237D01*
X148142257Y-92246269D01*
X148323198Y-92313757D01*
X148339550Y-92321225D01*
X148514136Y-92416556D01*
X148529260Y-92426276D01*
X148688505Y-92545485D01*
X148702091Y-92557258D01*
X148842742Y-92697909D01*
X148854515Y-92711495D01*
X148973724Y-92870740D01*
X148983444Y-92885864D01*
X149078775Y-93060450D01*
X149086243Y-93076802D01*
X149117159Y-93159689D01*
X149154140Y-93258838D01*
X149155762Y-93263188D01*
X149160825Y-93280434D01*
X149202173Y-93470501D01*
X149203108Y-93474801D01*
X149205666Y-93492593D01*
X149210122Y-93554894D01*
X149217997Y-93665003D01*
X149217320Y-93680788D01*
X149217320Y-93690207D01*
X149215769Y-93700000D01*
X149217320Y-93709792D01*
X149218949Y-93720077D01*
X149220500Y-93739788D01*
X149220500Y-97905187D01*
X149200498Y-97973308D01*
X149177330Y-98000135D01*
X149110039Y-98058838D01*
X149018950Y-98188444D01*
X148961406Y-98336037D01*
X148960414Y-98343570D01*
X148960414Y-98343571D01*
X148954507Y-98388444D01*
X148940729Y-98493096D01*
X148944119Y-98523798D01*
X148955933Y-98630805D01*
X148958113Y-98650553D01*
X149012553Y-98799319D01*
X149100908Y-98930805D01*
X149106527Y-98935918D01*
X149106528Y-98935919D01*
X149212460Y-99032309D01*
X149218076Y-99037419D01*
X149357293Y-99113008D01*
X149510522Y-99153207D01*
X149594477Y-99154526D01*
X149661319Y-99155576D01*
X149661322Y-99155576D01*
X149668916Y-99155695D01*
X149823332Y-99120329D01*
X149893742Y-99084917D01*
X149958072Y-99052563D01*
X149958075Y-99052561D01*
X149964855Y-99049151D01*
X149970626Y-99044222D01*
X149970629Y-99044220D01*
X150079536Y-98951204D01*
X150079536Y-98951203D01*
X150085314Y-98946269D01*
X150177755Y-98817624D01*
X150236842Y-98670641D01*
X150259162Y-98513807D01*
X150259307Y-98500000D01*
X150240276Y-98342733D01*
X150184280Y-98194546D01*
X150111977Y-98089344D01*
X150098855Y-98070251D01*
X150098854Y-98070249D01*
X150094553Y-98063992D01*
X150021681Y-97999065D01*
X149984126Y-97938816D01*
X149979500Y-97904989D01*
X149979500Y-93739788D01*
X149981051Y-93720077D01*
X149982680Y-93709792D01*
X149984231Y-93700000D01*
X149983317Y-93694229D01*
X149978857Y-93620500D01*
X149967246Y-93428531D01*
X149967245Y-93428526D01*
X149967016Y-93424734D01*
X149917307Y-93153483D01*
X149879077Y-93030797D01*
X149842242Y-92912590D01*
X149835265Y-92890201D01*
X149826507Y-92870740D01*
X149749287Y-92699166D01*
X149722086Y-92638727D01*
X149689461Y-92584758D01*
X149581394Y-92405995D01*
X149581392Y-92405992D01*
X149579420Y-92402730D01*
X149409349Y-92185649D01*
X149214351Y-91990651D01*
X149074084Y-91880759D01*
X149000275Y-91822934D01*
X149000272Y-91822932D01*
X148997270Y-91820580D01*
X148992822Y-91817891D01*
X148764534Y-91679885D01*
X148764530Y-91679883D01*
X148761273Y-91677914D01*
X148577359Y-91595141D01*
X148513275Y-91566299D01*
X148513269Y-91566297D01*
X148509799Y-91564735D01*
X148246517Y-91482693D01*
X147975266Y-91432984D01*
X147971474Y-91432755D01*
X147971469Y-91432754D01*
X147714078Y-91417185D01*
X147714076Y-91417185D01*
X147705771Y-91416683D01*
X147700000Y-91415769D01*
X147688465Y-91417596D01*
X147679923Y-91418949D01*
X147660212Y-91420500D01*
X136299682Y-91420500D01*
X136231561Y-91400498D01*
X136205114Y-91374860D01*
X136203878Y-91375949D01*
X136198855Y-91370251D01*
X136194553Y-91363992D01*
X136076275Y-91258611D01*
X136068889Y-91254700D01*
X135979500Y-91207371D01*
X135936274Y-91184484D01*
X135782633Y-91145892D01*
X135775034Y-91145852D01*
X135775033Y-91145852D01*
X135709181Y-91145507D01*
X135624221Y-91145062D01*
X135616841Y-91146834D01*
X135616839Y-91146834D01*
X135477563Y-91180271D01*
X135477560Y-91180272D01*
X135470184Y-91182043D01*
X135329414Y-91254700D01*
X135210039Y-91358838D01*
X135118950Y-91488444D01*
X135116190Y-91495524D01*
X135077351Y-91595141D01*
X135061406Y-91636037D01*
X135060414Y-91643570D01*
X135060414Y-91643571D01*
X135046627Y-91748298D01*
X135040729Y-91793096D01*
X134241128Y-91793096D01*
X134277755Y-91742124D01*
X134336842Y-91595141D01*
X134342965Y-91552115D01*
X134358581Y-91442391D01*
X134358581Y-91442388D01*
X134359162Y-91438307D01*
X134359307Y-91424500D01*
X134358251Y-91415769D01*
X134350257Y-91349712D01*
X134340276Y-91267233D01*
X134284280Y-91119046D01*
X134194553Y-90988492D01*
X134076275Y-90883111D01*
X134068889Y-90879200D01*
X133942988Y-90812539D01*
X133942989Y-90812539D01*
X133936274Y-90808984D01*
X133782633Y-90770392D01*
X133775034Y-90770352D01*
X133775033Y-90770352D01*
X133709181Y-90770007D01*
X133624221Y-90769562D01*
X133616841Y-90771334D01*
X133616839Y-90771334D01*
X133477563Y-90804771D01*
X133477560Y-90804772D01*
X133470184Y-90806543D01*
X133329414Y-90879200D01*
X133210039Y-90983338D01*
X133118950Y-91112944D01*
X133091779Y-91182634D01*
X133082135Y-91207371D01*
X133061406Y-91260537D01*
X133060414Y-91268070D01*
X133060414Y-91268071D01*
X133046212Y-91375949D01*
X133040729Y-91417596D01*
X133047840Y-91482007D01*
X133057147Y-91566299D01*
X133058113Y-91575053D01*
X133060723Y-91582184D01*
X133060723Y-91582186D01*
X133096476Y-91679885D01*
X133112553Y-91723819D01*
X133116789Y-91730122D01*
X133116789Y-91730123D01*
X133179156Y-91822934D01*
X133200908Y-91855305D01*
X133273954Y-91921771D01*
X133281227Y-91928389D01*
X133318150Y-91989029D01*
X133322428Y-92021583D01*
X133322428Y-92584758D01*
X133322247Y-92591503D01*
X133319754Y-92638009D01*
X133322309Y-92647592D01*
X133322422Y-92648676D01*
X133323833Y-92655025D01*
X133343596Y-92765649D01*
X133356527Y-92838032D01*
X133357995Y-92842413D01*
X133410889Y-93000281D01*
X133421113Y-93030797D01*
X133423199Y-93034905D01*
X133423200Y-93034908D01*
X133438931Y-93065891D01*
X133513149Y-93212069D01*
X133630661Y-93377962D01*
X133658837Y-93407440D01*
X133691446Y-93470501D01*
X133684785Y-93541185D01*
X133640967Y-93597046D01*
X133567753Y-93620500D01*
X131756746Y-93620500D01*
X131688625Y-93600498D01*
X131642132Y-93546842D01*
X131638880Y-93539039D01*
X131595687Y-93424734D01*
X131584280Y-93394546D01*
X131570293Y-93374194D01*
X131498855Y-93270251D01*
X131498854Y-93270249D01*
X131494553Y-93263992D01*
X131376275Y-93158611D01*
X131368889Y-93154700D01*
X131280625Y-93107967D01*
X131236274Y-93084484D01*
X131082633Y-93045892D01*
X131075034Y-93045852D01*
X131075033Y-93045852D01*
X131009181Y-93045507D01*
X130924221Y-93045062D01*
X130916841Y-93046834D01*
X130916839Y-93046834D01*
X130777563Y-93080271D01*
X130777560Y-93080272D01*
X130770184Y-93082043D01*
X130629414Y-93154700D01*
X130510039Y-93258838D01*
X130418950Y-93388444D01*
X130413717Y-93401866D01*
X130365740Y-93524922D01*
X130361406Y-93536037D01*
X130360414Y-93543570D01*
X130360414Y-93543571D01*
X130352920Y-93600498D01*
X130340729Y-93693096D01*
X120254000Y-93693096D01*
X120254000Y-88131221D01*
X121166218Y-88131221D01*
X121167423Y-88141559D01*
X121167423Y-88141560D01*
X121178548Y-88236995D01*
X121180827Y-88256547D01*
X121192956Y-88281920D01*
X121230752Y-88360990D01*
X121230754Y-88360992D01*
X121235243Y-88370384D01*
X121242534Y-88377817D01*
X121242535Y-88377818D01*
X121263892Y-88399590D01*
X121323599Y-88460458D01*
X121436369Y-88517055D01*
X121561390Y-88534072D01*
X121571610Y-88532058D01*
X121571611Y-88532058D01*
X121674964Y-88511690D01*
X121685184Y-88509676D01*
X121758682Y-88467158D01*
X121787545Y-88450461D01*
X121787547Y-88450459D01*
X121794400Y-88446495D01*
X121798380Y-88442592D01*
X122749335Y-87333145D01*
X122808853Y-87294441D01*
X122879848Y-87294060D01*
X122939780Y-87332122D01*
X122969619Y-87396544D01*
X122971000Y-87415145D01*
X122971000Y-88110256D01*
X122969449Y-88129966D01*
X122966276Y-88150000D01*
X122967194Y-88155797D01*
X122983905Y-88346798D01*
X123011419Y-88449483D01*
X123029807Y-88518107D01*
X123035034Y-88537616D01*
X123037357Y-88542597D01*
X123037357Y-88542598D01*
X123116196Y-88711670D01*
X123116199Y-88711675D01*
X123118522Y-88716657D01*
X123231832Y-88878480D01*
X123371520Y-89018168D01*
X123533344Y-89131478D01*
X123538322Y-89133799D01*
X123538325Y-89133801D01*
X123672743Y-89196481D01*
X123712384Y-89214966D01*
X123717692Y-89216388D01*
X123717694Y-89216389D01*
X123897887Y-89264671D01*
X123897888Y-89264671D01*
X123903202Y-89266095D01*
X124100000Y-89283313D01*
X124296798Y-89266095D01*
X124302112Y-89264671D01*
X124302113Y-89264671D01*
X124482306Y-89216389D01*
X124482308Y-89216388D01*
X124487616Y-89214966D01*
X124492598Y-89212643D01*
X124661670Y-89133804D01*
X124661675Y-89133801D01*
X124666657Y-89131478D01*
X124757051Y-89068183D01*
X124823969Y-89021327D01*
X124823972Y-89021325D01*
X124828480Y-89018168D01*
X124968168Y-88878480D01*
X125081478Y-88716657D01*
X125083801Y-88711675D01*
X125083804Y-88711670D01*
X125162643Y-88542598D01*
X125162643Y-88542597D01*
X125164966Y-88537616D01*
X125170194Y-88518107D01*
X125188581Y-88449483D01*
X125216095Y-88346798D01*
X125232806Y-88155797D01*
X125233724Y-88150000D01*
X125224999Y-88094915D01*
X125216494Y-88041214D01*
X125216494Y-88041213D01*
X125214943Y-88031423D01*
X125160439Y-87924453D01*
X125075547Y-87839561D01*
X124968577Y-87785057D01*
X124958787Y-87783506D01*
X124958786Y-87783506D01*
X124859792Y-87767827D01*
X124850000Y-87766276D01*
X124840208Y-87767827D01*
X124741214Y-87783506D01*
X124741213Y-87783506D01*
X124731423Y-87785057D01*
X124716666Y-87792576D01*
X124646891Y-87805681D01*
X124581106Y-87778983D01*
X124559500Y-87757014D01*
X124548673Y-87742904D01*
X124548669Y-87742900D01*
X124543646Y-87736354D01*
X124419563Y-87641142D01*
X124275065Y-87581289D01*
X124120000Y-87560874D01*
X123964935Y-87581289D01*
X123957303Y-87584450D01*
X123957304Y-87584450D01*
X123903218Y-87606853D01*
X123832628Y-87614442D01*
X123769141Y-87582663D01*
X123732914Y-87521605D01*
X123729000Y-87490444D01*
X123729000Y-86555000D01*
X123749002Y-86486879D01*
X123802658Y-86440386D01*
X123855000Y-86429000D01*
X124590119Y-86429000D01*
X124658240Y-86449002D01*
X124692648Y-86481763D01*
X126046973Y-88377818D01*
X126059897Y-88395912D01*
X126126530Y-88462573D01*
X126239826Y-88518107D01*
X126293402Y-88524887D01*
X126354670Y-88532640D01*
X126354673Y-88532640D01*
X126365002Y-88533947D01*
X126375197Y-88531838D01*
X126375199Y-88531838D01*
X126478368Y-88510497D01*
X126478371Y-88510496D01*
X126488561Y-88508388D01*
X126597179Y-88444184D01*
X126679144Y-88348256D01*
X126725617Y-88230953D01*
X126731588Y-88104920D01*
X126717423Y-88056124D01*
X126698621Y-87991359D01*
X126698620Y-87991358D01*
X126696411Y-87983747D01*
X126693575Y-87978949D01*
X125928792Y-86908252D01*
X125165628Y-85839823D01*
X125162306Y-85834935D01*
X125134197Y-85791401D01*
X125128172Y-85786651D01*
X125123630Y-85781026D01*
X125024849Y-85642733D01*
X123676966Y-83755697D01*
X123668609Y-83742294D01*
X123658556Y-83723663D01*
X123653610Y-83714496D01*
X123614606Y-83678441D01*
X123611021Y-83674992D01*
X123580834Y-83644792D01*
X123580830Y-83644789D01*
X123573470Y-83637426D01*
X123566585Y-83634051D01*
X123560957Y-83628849D01*
X123512355Y-83607362D01*
X123507921Y-83605297D01*
X123460174Y-83581893D01*
X123452568Y-83580930D01*
X123445557Y-83577831D01*
X123400519Y-83573930D01*
X123392643Y-83573248D01*
X123387695Y-83572721D01*
X123383904Y-83572241D01*
X123334998Y-83566052D01*
X123327492Y-83567605D01*
X123319853Y-83566943D01*
X123309745Y-83569454D01*
X123309743Y-83569454D01*
X123268298Y-83579749D01*
X123263448Y-83580853D01*
X123211439Y-83591612D01*
X123204840Y-83595513D01*
X123197399Y-83597361D01*
X123181875Y-83607385D01*
X123152772Y-83626177D01*
X123148537Y-83628794D01*
X123111785Y-83650517D01*
X123111783Y-83650519D01*
X123102821Y-83655816D01*
X123097840Y-83661645D01*
X123091401Y-83665803D01*
X123084954Y-83673981D01*
X123084953Y-83673982D01*
X123058521Y-83707512D01*
X123055368Y-83711353D01*
X123020856Y-83751743D01*
X123018032Y-83758871D01*
X123013287Y-83764890D01*
X123009836Y-83774717D01*
X122995693Y-83814991D01*
X122993955Y-83819646D01*
X122974383Y-83869047D01*
X122974020Y-83876708D01*
X122971481Y-83883938D01*
X122971000Y-83889491D01*
X122971000Y-83937467D01*
X122970859Y-83943430D01*
X122970588Y-83949151D01*
X122968412Y-83995080D01*
X122970570Y-84002512D01*
X122971000Y-84009827D01*
X122971000Y-84733991D01*
X122950998Y-84802112D01*
X122897342Y-84848605D01*
X122827068Y-84858709D01*
X122762488Y-84829215D01*
X122751345Y-84818281D01*
X121814119Y-83776919D01*
X121814118Y-83776918D01*
X121810644Y-83773058D01*
X121792849Y-83758871D01*
X121745090Y-83720796D01*
X121745088Y-83720795D01*
X121736945Y-83714303D01*
X121618128Y-83671847D01*
X121607716Y-83671708D01*
X121607714Y-83671708D01*
X121555046Y-83671008D01*
X121491964Y-83670168D01*
X121372059Y-83709445D01*
X121357016Y-83720796D01*
X121279653Y-83779170D01*
X121279652Y-83779171D01*
X121271340Y-83785443D01*
X121251363Y-83814991D01*
X121212821Y-83871998D01*
X121200670Y-83889970D01*
X121197946Y-83900022D01*
X121197945Y-83900024D01*
X121186989Y-83940454D01*
X121167667Y-84011752D01*
X121175891Y-84137658D01*
X121224456Y-84254112D01*
X121227813Y-84258562D01*
X122771564Y-85973841D01*
X122802266Y-86037854D01*
X122793486Y-86108305D01*
X122773574Y-86140129D01*
X121250164Y-87917442D01*
X121241750Y-87927258D01*
X121192992Y-88007920D01*
X121190783Y-88018091D01*
X121190783Y-88018092D01*
X121187888Y-88031423D01*
X121166218Y-88131221D01*
X120254000Y-88131221D01*
X120254000Y-83493096D01*
X127740729Y-83493096D01*
X127748459Y-83563115D01*
X127757069Y-83641095D01*
X127758113Y-83650553D01*
X127760723Y-83657684D01*
X127760723Y-83657686D01*
X127805180Y-83779170D01*
X127812553Y-83799319D01*
X127816789Y-83805622D01*
X127816789Y-83805623D01*
X127869415Y-83883938D01*
X127900908Y-83930805D01*
X127906527Y-83935918D01*
X127906528Y-83935919D01*
X128018076Y-84037419D01*
X128016998Y-84038604D01*
X128055440Y-84087393D01*
X128062445Y-84111618D01*
X128083425Y-84226099D01*
X128084557Y-84229731D01*
X128084557Y-84229732D01*
X128122332Y-84350956D01*
X128166433Y-84492484D01*
X128167995Y-84495954D01*
X128167997Y-84495960D01*
X128174185Y-84509708D01*
X128280946Y-84746920D01*
X128282918Y-84750182D01*
X128394575Y-84934885D01*
X128425292Y-84985698D01*
X128597368Y-85205337D01*
X128794663Y-85402632D01*
X129014302Y-85574708D01*
X129017554Y-85576674D01*
X129017557Y-85576676D01*
X129139302Y-85650273D01*
X129253080Y-85719054D01*
X129342812Y-85759440D01*
X129504040Y-85832003D01*
X129504046Y-85832005D01*
X129507516Y-85833567D01*
X129773901Y-85916575D01*
X130048348Y-85966869D01*
X130052142Y-85967098D01*
X130052146Y-85967099D01*
X130227317Y-85977695D01*
X130321596Y-85983398D01*
X130326857Y-85984231D01*
X130346935Y-85981051D01*
X130366645Y-85979500D01*
X134393519Y-85979500D01*
X134461640Y-85999502D01*
X134508133Y-86053158D01*
X134518237Y-86123432D01*
X134496606Y-86177951D01*
X134418950Y-86288444D01*
X134416190Y-86295524D01*
X134365752Y-86424891D01*
X134361406Y-86436037D01*
X134360414Y-86443570D01*
X134360414Y-86443571D01*
X134351711Y-86509682D01*
X134340729Y-86593096D01*
X134341563Y-86600646D01*
X134356428Y-86735289D01*
X134358113Y-86750553D01*
X134360723Y-86757684D01*
X134360723Y-86757686D01*
X134407032Y-86884231D01*
X134412553Y-86899319D01*
X134416789Y-86905622D01*
X134416789Y-86905623D01*
X134481643Y-87002135D01*
X134500908Y-87030805D01*
X134506527Y-87035918D01*
X134506528Y-87035919D01*
X134532357Y-87059421D01*
X134618076Y-87137419D01*
X134757293Y-87213008D01*
X134910522Y-87253207D01*
X134994477Y-87254526D01*
X135061319Y-87255576D01*
X135061322Y-87255576D01*
X135068916Y-87255695D01*
X135223332Y-87220329D01*
X135321395Y-87171009D01*
X135358072Y-87152563D01*
X135358075Y-87152561D01*
X135364855Y-87149151D01*
X135370626Y-87144222D01*
X135370629Y-87144220D01*
X135479542Y-87051199D01*
X135479543Y-87051198D01*
X135485314Y-87046269D01*
X135495586Y-87031974D01*
X135551581Y-86988326D01*
X135597909Y-86979500D01*
X135842179Y-86979500D01*
X135910300Y-86999502D01*
X135956793Y-87053158D01*
X135966897Y-87123432D01*
X135937403Y-87188012D01*
X135931274Y-87194595D01*
X135785326Y-87340543D01*
X135782169Y-87345051D01*
X135782167Y-87345054D01*
X135662578Y-87515845D01*
X135659421Y-87520354D01*
X135657098Y-87525336D01*
X135657095Y-87525341D01*
X135576700Y-87697750D01*
X135529783Y-87751035D01*
X135462505Y-87770500D01*
X131537495Y-87770500D01*
X131469374Y-87750498D01*
X131423300Y-87697750D01*
X131342905Y-87525341D01*
X131342902Y-87525336D01*
X131340579Y-87520354D01*
X131337422Y-87515845D01*
X131217833Y-87345054D01*
X131217831Y-87345051D01*
X131214674Y-87340543D01*
X131059457Y-87185326D01*
X131054949Y-87182169D01*
X131054946Y-87182167D01*
X130884155Y-87062578D01*
X130884153Y-87062577D01*
X130879646Y-87059421D01*
X130874664Y-87057098D01*
X130874659Y-87057095D01*
X130727181Y-86988326D01*
X130680703Y-86966653D01*
X130468674Y-86909839D01*
X130250000Y-86890708D01*
X130031326Y-86909839D01*
X129819297Y-86966653D01*
X129772819Y-86988326D01*
X129625341Y-87057095D01*
X129625336Y-87057098D01*
X129620354Y-87059421D01*
X129615847Y-87062577D01*
X129615845Y-87062578D01*
X129445054Y-87182167D01*
X129445051Y-87182169D01*
X129440543Y-87185326D01*
X129285326Y-87340543D01*
X129282169Y-87345051D01*
X129282167Y-87345054D01*
X129162578Y-87515845D01*
X129159421Y-87520354D01*
X129157098Y-87525336D01*
X129157095Y-87525341D01*
X129131509Y-87580211D01*
X129066653Y-87719297D01*
X129009839Y-87931326D01*
X128990708Y-88150000D01*
X129009839Y-88368674D01*
X129066653Y-88580703D01*
X129096683Y-88645102D01*
X129157095Y-88774659D01*
X129157098Y-88774664D01*
X129159421Y-88779646D01*
X129162577Y-88784153D01*
X129162578Y-88784155D01*
X129225467Y-88873969D01*
X129285326Y-88959457D01*
X129440543Y-89114674D01*
X129445051Y-89117831D01*
X129445054Y-89117833D01*
X129607603Y-89231651D01*
X129620354Y-89240579D01*
X129625336Y-89242902D01*
X129625341Y-89242905D01*
X129711998Y-89283313D01*
X129819297Y-89333347D01*
X130031326Y-89390161D01*
X130250000Y-89409292D01*
X130468674Y-89390161D01*
X130680703Y-89333347D01*
X130788002Y-89283313D01*
X130874659Y-89242905D01*
X130874664Y-89242902D01*
X130879646Y-89240579D01*
X130892397Y-89231651D01*
X131054946Y-89117833D01*
X131054949Y-89117831D01*
X131059457Y-89114674D01*
X131214674Y-88959457D01*
X131274534Y-88873969D01*
X131337422Y-88784155D01*
X131337423Y-88784153D01*
X131340579Y-88779646D01*
X131342902Y-88774664D01*
X131342905Y-88774659D01*
X131423300Y-88602250D01*
X131470217Y-88548965D01*
X131537495Y-88529500D01*
X131839666Y-88529500D01*
X131907787Y-88549502D01*
X131954280Y-88603158D01*
X131964384Y-88673432D01*
X131934890Y-88738012D01*
X131928761Y-88744595D01*
X131869896Y-88803460D01*
X131761554Y-88958188D01*
X131759231Y-88963170D01*
X131759228Y-88963175D01*
X131690400Y-89110777D01*
X131681726Y-89129379D01*
X131632838Y-89311831D01*
X131625041Y-89400960D01*
X131622962Y-89424721D01*
X131622039Y-89430842D01*
X131620982Y-89433851D01*
X131620500Y-89439416D01*
X131620500Y-89447356D01*
X131620021Y-89458335D01*
X131617556Y-89486520D01*
X131617509Y-89487053D01*
X131617320Y-89488592D01*
X131617320Y-89489211D01*
X131617125Y-89491440D01*
X131615769Y-89500001D01*
X131617320Y-89509793D01*
X131618949Y-89520078D01*
X131620500Y-89539789D01*
X131620500Y-91304104D01*
X131597587Y-91376555D01*
X131518950Y-91488444D01*
X131516190Y-91495524D01*
X131477351Y-91595141D01*
X131461406Y-91636037D01*
X131460414Y-91643570D01*
X131460414Y-91643571D01*
X131446627Y-91748298D01*
X131440729Y-91793096D01*
X131458113Y-91950553D01*
X131460723Y-91957684D01*
X131460723Y-91957686D01*
X131472787Y-91990651D01*
X131512553Y-92099319D01*
X131516789Y-92105622D01*
X131516789Y-92105623D01*
X131569612Y-92184231D01*
X131600908Y-92230805D01*
X131606527Y-92235918D01*
X131606528Y-92235919D01*
X131695531Y-92316905D01*
X131718076Y-92337419D01*
X131857293Y-92413008D01*
X132010522Y-92453207D01*
X132094477Y-92454526D01*
X132161319Y-92455576D01*
X132161322Y-92455576D01*
X132168916Y-92455695D01*
X132323332Y-92420329D01*
X132393742Y-92384917D01*
X132458072Y-92352563D01*
X132458075Y-92352561D01*
X132464855Y-92349151D01*
X132470626Y-92344222D01*
X132470629Y-92344220D01*
X132579536Y-92251204D01*
X132579536Y-92251203D01*
X132585314Y-92246269D01*
X132677755Y-92117624D01*
X132736842Y-91970641D01*
X132750353Y-91875702D01*
X132758581Y-91817891D01*
X132758581Y-91817888D01*
X132759162Y-91813807D01*
X132759307Y-91800000D01*
X132740276Y-91642733D01*
X132684280Y-91494546D01*
X132631204Y-91417320D01*
X132598855Y-91370251D01*
X132598854Y-91370249D01*
X132594553Y-91363992D01*
X132476275Y-91258611D01*
X132446540Y-91242867D01*
X132395698Y-91193317D01*
X132379500Y-91131514D01*
X132379500Y-90700000D01*
X152050000Y-90700000D01*
X157950000Y-90700000D01*
X157950000Y-83400000D01*
X152050000Y-83400000D01*
X152050000Y-90700000D01*
X132379500Y-90700000D01*
X132379500Y-89539787D01*
X132381051Y-89520076D01*
X132382680Y-89509793D01*
X132382680Y-89509792D01*
X132384231Y-89499999D01*
X132382679Y-89490202D01*
X132382679Y-89489846D01*
X132384230Y-89470131D01*
X132386099Y-89458335D01*
X132392064Y-89420671D01*
X132404246Y-89383180D01*
X132431651Y-89329394D01*
X132454823Y-89297501D01*
X132497501Y-89254823D01*
X132529394Y-89231651D01*
X132583180Y-89204246D01*
X132620671Y-89192064D01*
X132670133Y-89184230D01*
X132689846Y-89182679D01*
X132690202Y-89182679D01*
X132699999Y-89184231D01*
X132709792Y-89182680D01*
X132709793Y-89182680D01*
X132717534Y-89181454D01*
X132720077Y-89181051D01*
X132739787Y-89179500D01*
X134694526Y-89179500D01*
X134714236Y-89181051D01*
X134716779Y-89181454D01*
X134724520Y-89182680D01*
X134724521Y-89182680D01*
X134734314Y-89184231D01*
X134744109Y-89182679D01*
X134754025Y-89182679D01*
X134754025Y-89182834D01*
X134769134Y-89182240D01*
X134878705Y-89190864D01*
X134898230Y-89193957D01*
X135029427Y-89225454D01*
X135048221Y-89231561D01*
X135172876Y-89283195D01*
X135190481Y-89292165D01*
X135305529Y-89362666D01*
X135321523Y-89374287D01*
X135336341Y-89386943D01*
X135405090Y-89445660D01*
X135415359Y-89456768D01*
X135415468Y-89456659D01*
X135422478Y-89463669D01*
X135428307Y-89471692D01*
X135437866Y-89478637D01*
X135438801Y-89479317D01*
X135447814Y-89486518D01*
X135468725Y-89504856D01*
X135564772Y-89589088D01*
X135564778Y-89589092D01*
X135567872Y-89591806D01*
X135571298Y-89594095D01*
X135571303Y-89594099D01*
X135639721Y-89639814D01*
X135720876Y-89694040D01*
X135724579Y-89695866D01*
X135882210Y-89773602D01*
X135882218Y-89773605D01*
X135885914Y-89775428D01*
X135889829Y-89776757D01*
X136056257Y-89833252D01*
X136056260Y-89833253D01*
X136060164Y-89834578D01*
X136179879Y-89858391D01*
X136236600Y-89869673D01*
X136236603Y-89869673D01*
X136240643Y-89870477D01*
X136244754Y-89870746D01*
X136244758Y-89870747D01*
X136287563Y-89873553D01*
X136350055Y-89877649D01*
X136356963Y-89878614D01*
X136358115Y-89879018D01*
X136363680Y-89879500D01*
X136374181Y-89879500D01*
X136382420Y-89879770D01*
X136391729Y-89880380D01*
X136399988Y-89880921D01*
X136411443Y-89882201D01*
X136424265Y-89884231D01*
X136444343Y-89881051D01*
X136464053Y-89879500D01*
X136860213Y-89879500D01*
X136879923Y-89881051D01*
X136900001Y-89884231D01*
X136908715Y-89882851D01*
X136911324Y-89882680D01*
X136912626Y-89882680D01*
X136914475Y-89882473D01*
X136982968Y-89877984D01*
X137135006Y-89868019D01*
X137135013Y-89868018D01*
X137139118Y-89867749D01*
X137143151Y-89866947D01*
X137143157Y-89866946D01*
X137370094Y-89821805D01*
X137370100Y-89821803D01*
X137374144Y-89820999D01*
X137378053Y-89819672D01*
X137378057Y-89819671D01*
X137597151Y-89745299D01*
X137597152Y-89745298D01*
X137601057Y-89743973D01*
X137706965Y-89691745D01*
X137812271Y-89639814D01*
X137812276Y-89639811D01*
X137815975Y-89637987D01*
X137962942Y-89539787D01*
X138011789Y-89507149D01*
X138011794Y-89507145D01*
X138015220Y-89504856D01*
X138106596Y-89424721D01*
X138147023Y-89389268D01*
X138147285Y-89389043D01*
X138147413Y-89388926D01*
X138147985Y-89388424D01*
X138148285Y-89388172D01*
X138148319Y-89388155D01*
X138148975Y-89387592D01*
X138149746Y-89386944D01*
X138150050Y-89387305D01*
X138150782Y-89386945D01*
X138150300Y-89386395D01*
X138184482Y-89356419D01*
X138185922Y-89355268D01*
X138186844Y-89354346D01*
X138188819Y-89352614D01*
X138195956Y-89347429D01*
X138207907Y-89330980D01*
X138220748Y-89315946D01*
X138340213Y-89196481D01*
X138355247Y-89183640D01*
X138363672Y-89177519D01*
X138371692Y-89171692D01*
X138377519Y-89163672D01*
X138381992Y-89159199D01*
X138394844Y-89145112D01*
X138492703Y-89059291D01*
X138505777Y-89049259D01*
X138634612Y-88963175D01*
X138636438Y-88961955D01*
X138650710Y-88953715D01*
X138791651Y-88884210D01*
X138806878Y-88877903D01*
X138818467Y-88873969D01*
X138955682Y-88827391D01*
X138971592Y-88823128D01*
X139048658Y-88807799D01*
X139125721Y-88792470D01*
X139142061Y-88790319D01*
X139271935Y-88781806D01*
X139290972Y-88782679D01*
X139297310Y-88782679D01*
X139307106Y-88784231D01*
X139316899Y-88782680D01*
X139316900Y-88782680D01*
X139327183Y-88781051D01*
X139346894Y-88779500D01*
X143260212Y-88779500D01*
X143279922Y-88781051D01*
X143300000Y-88784231D01*
X143308012Y-88782962D01*
X143311955Y-88782680D01*
X143312497Y-88782680D01*
X143313393Y-88782577D01*
X143525361Y-88767417D01*
X143660534Y-88738012D01*
X143741744Y-88720346D01*
X143741747Y-88720345D01*
X143746133Y-88719391D01*
X143750335Y-88717824D01*
X143750341Y-88717822D01*
X143953612Y-88642005D01*
X143957824Y-88640434D01*
X144156124Y-88532154D01*
X144336995Y-88396756D01*
X144496756Y-88236995D01*
X144632154Y-88056124D01*
X144652968Y-88018006D01*
X144738279Y-87861771D01*
X144738280Y-87861768D01*
X144740434Y-87857824D01*
X144748924Y-87835061D01*
X144817822Y-87650341D01*
X144817824Y-87650335D01*
X144819391Y-87646133D01*
X144867417Y-87425361D01*
X144869478Y-87396544D01*
X144878570Y-87269423D01*
X144879037Y-87266151D01*
X144879018Y-87266149D01*
X144879266Y-87263288D01*
X144879266Y-87263283D01*
X144879500Y-87260584D01*
X144879500Y-87257877D01*
X144879582Y-87255981D01*
X144879785Y-87252442D01*
X144882576Y-87213405D01*
X144882680Y-87212499D01*
X144882680Y-87211955D01*
X144882962Y-87208012D01*
X144884231Y-87200000D01*
X144881051Y-87179922D01*
X144879500Y-87160212D01*
X144879500Y-87094730D01*
X144899502Y-87026609D01*
X144923669Y-86998919D01*
X144979536Y-86951204D01*
X144979538Y-86951202D01*
X144985314Y-86946269D01*
X145077755Y-86817624D01*
X145136842Y-86670641D01*
X145159162Y-86513807D01*
X145159307Y-86500000D01*
X145140276Y-86342733D01*
X145084280Y-86194546D01*
X145046880Y-86140129D01*
X144998855Y-86070251D01*
X144998854Y-86070249D01*
X144994553Y-86063992D01*
X144988514Y-86058611D01*
X144958260Y-86031656D01*
X144876275Y-85958611D01*
X144868889Y-85954700D01*
X144742988Y-85888039D01*
X144742989Y-85888039D01*
X144736274Y-85884484D01*
X144582633Y-85845892D01*
X144575034Y-85845852D01*
X144575033Y-85845852D01*
X144509181Y-85845507D01*
X144424221Y-85845062D01*
X144416841Y-85846834D01*
X144416839Y-85846834D01*
X144277563Y-85880271D01*
X144277560Y-85880272D01*
X144270184Y-85882043D01*
X144129414Y-85954700D01*
X144010039Y-86058838D01*
X143918950Y-86188444D01*
X143861406Y-86336037D01*
X143860414Y-86343570D01*
X143860414Y-86343571D01*
X143842221Y-86481764D01*
X143840729Y-86493096D01*
X143858113Y-86650553D01*
X143860723Y-86657684D01*
X143860723Y-86657686D01*
X143897318Y-86757686D01*
X143912553Y-86799319D01*
X143916789Y-86805622D01*
X143916789Y-86805623D01*
X143987776Y-86911262D01*
X144000908Y-86930805D01*
X144006527Y-86935918D01*
X144006528Y-86935919D01*
X144079299Y-87002135D01*
X144116222Y-87062775D01*
X144120500Y-87095329D01*
X144120500Y-87160212D01*
X144118949Y-87179922D01*
X144115769Y-87200000D01*
X144117320Y-87209793D01*
X144117320Y-87219711D01*
X144116665Y-87219711D01*
X144117102Y-87234501D01*
X144116448Y-87241141D01*
X144089869Y-87306971D01*
X144031916Y-87347983D01*
X143960991Y-87351154D01*
X143899610Y-87315475D01*
X143884537Y-87294370D01*
X143884280Y-87294546D01*
X143798855Y-87170251D01*
X143798854Y-87170249D01*
X143794553Y-87163992D01*
X143676275Y-87058611D01*
X143668889Y-87054700D01*
X143542988Y-86988039D01*
X143542989Y-86988039D01*
X143536274Y-86984484D01*
X143382633Y-86945892D01*
X143375034Y-86945852D01*
X143375033Y-86945852D01*
X143309181Y-86945507D01*
X143224221Y-86945062D01*
X143216841Y-86946834D01*
X143216839Y-86946834D01*
X143077563Y-86980271D01*
X143077560Y-86980272D01*
X143070184Y-86982043D01*
X142929414Y-87054700D01*
X142923695Y-87059689D01*
X142919138Y-87063664D01*
X142810039Y-87158838D01*
X142805672Y-87165051D01*
X142805667Y-87165057D01*
X142804336Y-87166951D01*
X142803013Y-87168005D01*
X142800589Y-87170697D01*
X142800140Y-87170293D01*
X142748802Y-87211183D01*
X142701250Y-87220500D01*
X138871755Y-87220500D01*
X138852044Y-87218949D01*
X138831967Y-87215769D01*
X138822174Y-87217320D01*
X138815873Y-87217320D01*
X138796792Y-87218194D01*
X138706817Y-87212297D01*
X138640150Y-87187883D01*
X138597266Y-87131301D01*
X138591779Y-87060517D01*
X138625433Y-86998004D01*
X138633227Y-86990756D01*
X138679539Y-86951202D01*
X138679542Y-86951199D01*
X138685314Y-86946269D01*
X138695586Y-86931974D01*
X138751581Y-86888326D01*
X138797909Y-86879500D01*
X141960211Y-86879500D01*
X141979921Y-86881051D01*
X141999999Y-86884231D01*
X142008560Y-86882875D01*
X142010789Y-86882680D01*
X142011407Y-86882680D01*
X142012934Y-86882492D01*
X142188169Y-86867162D01*
X142309069Y-86834767D01*
X142365311Y-86819697D01*
X142365313Y-86819696D01*
X142370621Y-86818274D01*
X142426569Y-86792185D01*
X142536825Y-86740772D01*
X142536830Y-86740769D01*
X142541812Y-86738446D01*
X142667336Y-86650553D01*
X142692029Y-86633263D01*
X142692032Y-86633261D01*
X142696540Y-86630104D01*
X142830104Y-86496540D01*
X142833262Y-86492030D01*
X142833267Y-86492024D01*
X142848039Y-86470927D01*
X142903496Y-86426598D01*
X142908886Y-86424891D01*
X142908781Y-86424598D01*
X142915928Y-86422025D01*
X142923332Y-86420329D01*
X143027841Y-86367767D01*
X143058072Y-86352563D01*
X143058075Y-86352561D01*
X143064855Y-86349151D01*
X143070626Y-86344222D01*
X143070629Y-86344220D01*
X143179536Y-86251204D01*
X143179536Y-86251203D01*
X143185314Y-86246269D01*
X143277755Y-86117624D01*
X143336842Y-85970641D01*
X143349703Y-85880271D01*
X143358581Y-85817891D01*
X143358581Y-85817888D01*
X143359162Y-85813807D01*
X143359307Y-85800000D01*
X143358267Y-85791401D01*
X143349701Y-85720620D01*
X143340276Y-85642733D01*
X143284280Y-85494546D01*
X143268622Y-85471764D01*
X143198855Y-85370251D01*
X143198854Y-85370249D01*
X143194553Y-85363992D01*
X143076275Y-85258611D01*
X143068889Y-85254700D01*
X143002651Y-85219629D01*
X142936274Y-85184484D01*
X142782633Y-85145892D01*
X142775034Y-85145852D01*
X142775033Y-85145852D01*
X142709181Y-85145507D01*
X142624221Y-85145062D01*
X142616841Y-85146834D01*
X142616839Y-85146834D01*
X142477563Y-85180271D01*
X142477560Y-85180272D01*
X142470184Y-85182043D01*
X142329414Y-85254700D01*
X142210039Y-85358838D01*
X142118950Y-85488444D01*
X142096900Y-85545000D01*
X142072399Y-85607842D01*
X142061406Y-85636037D01*
X142060414Y-85643570D01*
X142060414Y-85643571D01*
X142050271Y-85720620D01*
X142040729Y-85793096D01*
X142045348Y-85834935D01*
X142054362Y-85916575D01*
X142058113Y-85950553D01*
X142060723Y-85957685D01*
X142062458Y-85965082D01*
X142059315Y-85965819D01*
X142062960Y-86022112D01*
X142028516Y-86084194D01*
X141965976Y-86117798D01*
X141940023Y-86120500D01*
X138799682Y-86120500D01*
X138731561Y-86100498D01*
X138705114Y-86074860D01*
X138703878Y-86075949D01*
X138698855Y-86070251D01*
X138694553Y-86063992D01*
X138688514Y-86058611D01*
X138658260Y-86031656D01*
X138576275Y-85958611D01*
X138568889Y-85954700D01*
X138442988Y-85888039D01*
X138442989Y-85888039D01*
X138436274Y-85884484D01*
X138282633Y-85845892D01*
X138275034Y-85845852D01*
X138275033Y-85845852D01*
X138209181Y-85845507D01*
X138124221Y-85845062D01*
X138116841Y-85846834D01*
X138116839Y-85846834D01*
X137977563Y-85880271D01*
X137977560Y-85880272D01*
X137970184Y-85882043D01*
X137829414Y-85954700D01*
X137710039Y-86058838D01*
X137618950Y-86188444D01*
X137561406Y-86336037D01*
X137560415Y-86343568D01*
X137560414Y-86343570D01*
X137556803Y-86371000D01*
X137528080Y-86435927D01*
X137468815Y-86475018D01*
X137397823Y-86475863D01*
X137376157Y-86467561D01*
X137273460Y-86416916D01*
X137173797Y-86367767D01*
X137173789Y-86367764D01*
X137170093Y-86365941D01*
X137130683Y-86352563D01*
X136930488Y-86284606D01*
X136930485Y-86284605D01*
X136926581Y-86283280D01*
X136922542Y-86282477D01*
X136922536Y-86282475D01*
X136678406Y-86233915D01*
X136678403Y-86233915D01*
X136674363Y-86233111D01*
X136670252Y-86232842D01*
X136670248Y-86232841D01*
X136432087Y-86217231D01*
X136432086Y-86217231D01*
X136423388Y-86216661D01*
X136417755Y-86215769D01*
X136397678Y-86218949D01*
X136377967Y-86220500D01*
X135599682Y-86220500D01*
X135531561Y-86200498D01*
X135505114Y-86174860D01*
X135503878Y-86175949D01*
X135498855Y-86170252D01*
X135494553Y-86163992D01*
X135488882Y-86158939D01*
X135488879Y-86158936D01*
X135471210Y-86143193D01*
X135433654Y-86082943D01*
X135434635Y-86011953D01*
X135473839Y-85952762D01*
X135542679Y-85923724D01*
X135569793Y-85921054D01*
X135617165Y-85916388D01*
X135617169Y-85916388D01*
X135619235Y-85916184D01*
X135621275Y-85915847D01*
X135621284Y-85915846D01*
X136039283Y-85846834D01*
X136128968Y-85832027D01*
X136632106Y-85714712D01*
X137126494Y-85564741D01*
X137429455Y-85450714D01*
X137608095Y-85383479D01*
X137608105Y-85383475D01*
X137610015Y-85382756D01*
X137611873Y-85381914D01*
X137611883Y-85381910D01*
X138078713Y-85170392D01*
X138080598Y-85169538D01*
X138536229Y-84925998D01*
X138974956Y-84653180D01*
X139394900Y-84352252D01*
X139725050Y-84081305D01*
X139790398Y-84053551D01*
X139810513Y-84053752D01*
X139810522Y-84053207D01*
X139961319Y-84055576D01*
X139961322Y-84055576D01*
X139968916Y-84055695D01*
X140123332Y-84020329D01*
X140194225Y-83984674D01*
X140258072Y-83952563D01*
X140258075Y-83952561D01*
X140264855Y-83949151D01*
X140270626Y-83944222D01*
X140270629Y-83944220D01*
X140379536Y-83851204D01*
X140379536Y-83851203D01*
X140385314Y-83846269D01*
X140477755Y-83717624D01*
X140536842Y-83570641D01*
X140549011Y-83485134D01*
X140558581Y-83417891D01*
X140558581Y-83417888D01*
X140559162Y-83413807D01*
X140559231Y-83407265D01*
X140559264Y-83404134D01*
X140559264Y-83404128D01*
X140559307Y-83400000D01*
X140540276Y-83242733D01*
X140484280Y-83094546D01*
X140394553Y-82963992D01*
X140388514Y-82958611D01*
X140309302Y-82888037D01*
X140276275Y-82858611D01*
X140268889Y-82854700D01*
X140142988Y-82788039D01*
X140142989Y-82788039D01*
X140136274Y-82784484D01*
X139982633Y-82745892D01*
X139975034Y-82745852D01*
X139975033Y-82745852D01*
X139909181Y-82745507D01*
X139824221Y-82745062D01*
X139816841Y-82746834D01*
X139816839Y-82746834D01*
X139677563Y-82780271D01*
X139677560Y-82780272D01*
X139670184Y-82782043D01*
X139529414Y-82854700D01*
X139410039Y-82958838D01*
X139318950Y-83088444D01*
X139316190Y-83095524D01*
X139277583Y-83194546D01*
X139261406Y-83236037D01*
X139240729Y-83393096D01*
X139243315Y-83416516D01*
X139230910Y-83486418D01*
X139197137Y-83528451D01*
X138866146Y-83795181D01*
X138858946Y-83800571D01*
X138614037Y-83970615D01*
X138502226Y-84048247D01*
X138448152Y-84085791D01*
X138440585Y-84090654D01*
X138410691Y-84108391D01*
X138341900Y-84125949D01*
X138274537Y-84103528D01*
X138229988Y-84048247D01*
X138223878Y-83970615D01*
X138242885Y-83891446D01*
X138244428Y-83881699D01*
X138262275Y-83654930D01*
X138262275Y-83645070D01*
X138244428Y-83418301D01*
X138242885Y-83408554D01*
X138189783Y-83187373D01*
X138186734Y-83177988D01*
X138099687Y-82967837D01*
X138095205Y-82959042D01*
X137992568Y-82791555D01*
X137982110Y-82782093D01*
X137973334Y-82785876D01*
X135888920Y-84870290D01*
X135882160Y-84882670D01*
X135901467Y-84908461D01*
X135897603Y-84911354D01*
X135916958Y-84934885D01*
X135925255Y-85005396D01*
X135894114Y-85069198D01*
X135833423Y-85106036D01*
X135823413Y-85108266D01*
X135750438Y-85121432D01*
X135608115Y-85147110D01*
X135599213Y-85148390D01*
X135101985Y-85201847D01*
X135093013Y-85202489D01*
X134625276Y-85219194D01*
X134601073Y-85217723D01*
X134598528Y-85217320D01*
X134598525Y-85217320D01*
X134588731Y-85215769D01*
X134568654Y-85218949D01*
X134548943Y-85220500D01*
X131020071Y-85220500D01*
X130951950Y-85200498D01*
X130905457Y-85146842D01*
X130895353Y-85076568D01*
X130924847Y-85011988D01*
X130954236Y-84987068D01*
X131108445Y-84892568D01*
X131117907Y-84882110D01*
X131114124Y-84873334D01*
X129891922Y-83651132D01*
X130614408Y-83651132D01*
X130614539Y-83652965D01*
X130618790Y-83659580D01*
X131470290Y-84511080D01*
X131482670Y-84517840D01*
X131490320Y-84512113D01*
X131595205Y-84340958D01*
X131599687Y-84332163D01*
X131686734Y-84122012D01*
X131689783Y-84112627D01*
X131742885Y-83891446D01*
X131744428Y-83881699D01*
X131762275Y-83654930D01*
X135237725Y-83654930D01*
X135255572Y-83881699D01*
X135257115Y-83891446D01*
X135310217Y-84112627D01*
X135313266Y-84122012D01*
X135400313Y-84332163D01*
X135404795Y-84340958D01*
X135507432Y-84508445D01*
X135517890Y-84517907D01*
X135526666Y-84514124D01*
X136377978Y-83662812D01*
X136385592Y-83648868D01*
X136385461Y-83647035D01*
X136381210Y-83640420D01*
X135529710Y-82788920D01*
X135517330Y-82782160D01*
X135509680Y-82787887D01*
X135404795Y-82959042D01*
X135400313Y-82967837D01*
X135313266Y-83177988D01*
X135310217Y-83187373D01*
X135257115Y-83408554D01*
X135255572Y-83418301D01*
X135237725Y-83645070D01*
X135237725Y-83654930D01*
X131762275Y-83654930D01*
X131762275Y-83645070D01*
X131744428Y-83418301D01*
X131742885Y-83408554D01*
X131689783Y-83187373D01*
X131686734Y-83177988D01*
X131599687Y-82967837D01*
X131595205Y-82959042D01*
X131492568Y-82791555D01*
X131482110Y-82782093D01*
X131473334Y-82785876D01*
X130622022Y-83637188D01*
X130614408Y-83651132D01*
X129891922Y-83651132D01*
X129029710Y-82788920D01*
X129017330Y-82782160D01*
X129009680Y-82787887D01*
X128935333Y-82909209D01*
X128882686Y-82956840D01*
X128812644Y-82968447D01*
X128768945Y-82954730D01*
X128636274Y-82884484D01*
X128482633Y-82845892D01*
X128475034Y-82845852D01*
X128475033Y-82845852D01*
X128409181Y-82845507D01*
X128324221Y-82845062D01*
X128316841Y-82846834D01*
X128316839Y-82846834D01*
X128177563Y-82880271D01*
X128177560Y-82880272D01*
X128170184Y-82882043D01*
X128029414Y-82954700D01*
X127910039Y-83058838D01*
X127818950Y-83188444D01*
X127761406Y-83336037D01*
X127760414Y-83343570D01*
X127760414Y-83343571D01*
X127751202Y-83413548D01*
X127740729Y-83493096D01*
X120254000Y-83493096D01*
X120254000Y-83037425D01*
X120256421Y-83012844D01*
X120256555Y-83012170D01*
X120258976Y-83000000D01*
X120256555Y-82987828D01*
X120256555Y-82980246D01*
X120257162Y-82967896D01*
X120267118Y-82866812D01*
X120271935Y-82842592D01*
X120307187Y-82726383D01*
X120316631Y-82703582D01*
X120373876Y-82596483D01*
X120387594Y-82575953D01*
X120464626Y-82482091D01*
X120482091Y-82464626D01*
X120575953Y-82387594D01*
X120596483Y-82373876D01*
X120703582Y-82316631D01*
X120726383Y-82307187D01*
X120842592Y-82271935D01*
X120866812Y-82267118D01*
X120967896Y-82257162D01*
X120980246Y-82256555D01*
X120987828Y-82256555D01*
X121000000Y-82258976D01*
X121012847Y-82256421D01*
X121037425Y-82254000D01*
X129259678Y-82254000D01*
X129327799Y-82274002D01*
G37*
%TD.AperFunction*%
%TD*%
M02*
