%TF.GenerationSoftware,KiCad,Pcbnew,(6.0.1-0)*%
%TF.CreationDate,2022-01-23T16:01:30+00:00*%
%TF.ProjectId,ASR33,41535233-332e-46b6-9963-61645f706362,6*%
%TF.SameCoordinates,Original*%
%TF.FileFunction,Legend,Bot*%
%TF.FilePolarity,Positive*%
%FSLAX46Y46*%
G04 Gerber Fmt 4.6, Leading zero omitted, Abs format (unit mm)*
G04 Created by KiCad (PCBNEW (6.0.1-0)) date 2022-01-23 16:01:30*
%MOMM*%
%LPD*%
G01*
G04 APERTURE LIST*
%ADD10C,0.200000*%
%ADD11C,0.150000*%
G04 APERTURE END LIST*
D10*
X138950000Y-115942500D02*
X138235714Y-115942500D01*
X139092857Y-116371071D02*
X138592857Y-114871071D01*
X138092857Y-116371071D01*
X137664285Y-116299642D02*
X137450000Y-116371071D01*
X137092857Y-116371071D01*
X136950000Y-116299642D01*
X136878571Y-116228214D01*
X136807142Y-116085357D01*
X136807142Y-115942500D01*
X136878571Y-115799642D01*
X136950000Y-115728214D01*
X137092857Y-115656785D01*
X137378571Y-115585357D01*
X137521428Y-115513928D01*
X137592857Y-115442500D01*
X137664285Y-115299642D01*
X137664285Y-115156785D01*
X137592857Y-115013928D01*
X137521428Y-114942500D01*
X137378571Y-114871071D01*
X137021428Y-114871071D01*
X136807142Y-114942500D01*
X135307142Y-116371071D02*
X135807142Y-115656785D01*
X136164285Y-116371071D02*
X136164285Y-114871071D01*
X135592857Y-114871071D01*
X135450000Y-114942500D01*
X135378571Y-115013928D01*
X135307142Y-115156785D01*
X135307142Y-115371071D01*
X135378571Y-115513928D01*
X135450000Y-115585357D01*
X135592857Y-115656785D01*
X136164285Y-115656785D01*
X134807142Y-114871071D02*
X133878571Y-114871071D01*
X134378571Y-115442500D01*
X134164285Y-115442500D01*
X134021428Y-115513928D01*
X133950000Y-115585357D01*
X133878571Y-115728214D01*
X133878571Y-116085357D01*
X133950000Y-116228214D01*
X134021428Y-116299642D01*
X134164285Y-116371071D01*
X134592857Y-116371071D01*
X134735714Y-116299642D01*
X134807142Y-116228214D01*
X133378571Y-114871071D02*
X132450000Y-114871071D01*
X132950000Y-115442500D01*
X132735714Y-115442500D01*
X132592857Y-115513928D01*
X132521428Y-115585357D01*
X132450000Y-115728214D01*
X132450000Y-116085357D01*
X132521428Y-116228214D01*
X132592857Y-116299642D01*
X132735714Y-116371071D01*
X133164285Y-116371071D01*
X133307142Y-116299642D01*
X133378571Y-116228214D01*
X140057142Y-118643214D02*
X140128571Y-118714642D01*
X140342857Y-118786071D01*
X140485714Y-118786071D01*
X140700000Y-118714642D01*
X140842857Y-118571785D01*
X140914285Y-118428928D01*
X140985714Y-118143214D01*
X140985714Y-117928928D01*
X140914285Y-117643214D01*
X140842857Y-117500357D01*
X140700000Y-117357500D01*
X140485714Y-117286071D01*
X140342857Y-117286071D01*
X140128571Y-117357500D01*
X140057142Y-117428928D01*
X139200000Y-118786071D02*
X139342857Y-118714642D01*
X139414285Y-118643214D01*
X139485714Y-118500357D01*
X139485714Y-118071785D01*
X139414285Y-117928928D01*
X139342857Y-117857500D01*
X139200000Y-117786071D01*
X138985714Y-117786071D01*
X138842857Y-117857500D01*
X138771428Y-117928928D01*
X138700000Y-118071785D01*
X138700000Y-118500357D01*
X138771428Y-118643214D01*
X138842857Y-118714642D01*
X138985714Y-118786071D01*
X139200000Y-118786071D01*
X138057142Y-117786071D02*
X138057142Y-118786071D01*
X138057142Y-117928928D02*
X137985714Y-117857500D01*
X137842857Y-117786071D01*
X137628571Y-117786071D01*
X137485714Y-117857500D01*
X137414285Y-118000357D01*
X137414285Y-118786071D01*
X136914285Y-117786071D02*
X136342857Y-117786071D01*
X136700000Y-117286071D02*
X136700000Y-118571785D01*
X136628571Y-118714642D01*
X136485714Y-118786071D01*
X136342857Y-118786071D01*
X135842857Y-118786071D02*
X135842857Y-117786071D01*
X135842857Y-118071785D02*
X135771428Y-117928928D01*
X135700000Y-117857500D01*
X135557142Y-117786071D01*
X135414285Y-117786071D01*
X134700000Y-118786071D02*
X134842857Y-118714642D01*
X134914285Y-118643214D01*
X134985714Y-118500357D01*
X134985714Y-118071785D01*
X134914285Y-117928928D01*
X134842857Y-117857500D01*
X134700000Y-117786071D01*
X134485714Y-117786071D01*
X134342857Y-117857500D01*
X134271428Y-117928928D01*
X134200000Y-118071785D01*
X134200000Y-118500357D01*
X134271428Y-118643214D01*
X134342857Y-118714642D01*
X134485714Y-118786071D01*
X134700000Y-118786071D01*
X133342857Y-118786071D02*
X133485714Y-118714642D01*
X133557142Y-118571785D01*
X133557142Y-117286071D01*
X132557142Y-118786071D02*
X132700000Y-118714642D01*
X132771428Y-118571785D01*
X132771428Y-117286071D01*
X131414285Y-118714642D02*
X131557142Y-118786071D01*
X131842857Y-118786071D01*
X131985714Y-118714642D01*
X132057142Y-118571785D01*
X132057142Y-118000357D01*
X131985714Y-117857500D01*
X131842857Y-117786071D01*
X131557142Y-117786071D01*
X131414285Y-117857500D01*
X131342857Y-118000357D01*
X131342857Y-118143214D01*
X132057142Y-118286071D01*
X130700000Y-118786071D02*
X130700000Y-117786071D01*
X130700000Y-118071785D02*
X130628571Y-117928928D01*
X130557142Y-117857500D01*
X130414285Y-117786071D01*
X130271428Y-117786071D01*
D11*
X149647619Y-142233333D02*
X150647619Y-142233333D01*
X149933333Y-141900000D01*
X150647619Y-141566666D01*
X149647619Y-141566666D01*
X149647619Y-140947619D02*
X149695238Y-141042857D01*
X149742857Y-141090476D01*
X149838095Y-141138095D01*
X150123809Y-141138095D01*
X150219047Y-141090476D01*
X150266666Y-141042857D01*
X150314285Y-140947619D01*
X150314285Y-140804761D01*
X150266666Y-140709523D01*
X150219047Y-140661904D01*
X150123809Y-140614285D01*
X149838095Y-140614285D01*
X149742857Y-140661904D01*
X149695238Y-140709523D01*
X149647619Y-140804761D01*
X149647619Y-140947619D01*
X150314285Y-140328571D02*
X150314285Y-139947619D01*
X150647619Y-140185714D02*
X149790476Y-140185714D01*
X149695238Y-140138095D01*
X149647619Y-140042857D01*
X149647619Y-139947619D01*
X149647619Y-139471428D02*
X149695238Y-139566666D01*
X149742857Y-139614285D01*
X149838095Y-139661904D01*
X150123809Y-139661904D01*
X150219047Y-139614285D01*
X150266666Y-139566666D01*
X150314285Y-139471428D01*
X150314285Y-139328571D01*
X150266666Y-139233333D01*
X150219047Y-139185714D01*
X150123809Y-139138095D01*
X149838095Y-139138095D01*
X149742857Y-139185714D01*
X149695238Y-139233333D01*
X149647619Y-139328571D01*
X149647619Y-139471428D01*
X149647619Y-138709523D02*
X150314285Y-138709523D01*
X150123809Y-138709523D02*
X150219047Y-138661904D01*
X150266666Y-138614285D01*
X150314285Y-138519047D01*
X150314285Y-138423809D01*
X145600000Y-141661904D02*
X145647619Y-141757142D01*
X145647619Y-141900000D01*
X145600000Y-142042857D01*
X145504761Y-142138095D01*
X145409523Y-142185714D01*
X145219047Y-142233333D01*
X145076190Y-142233333D01*
X144885714Y-142185714D01*
X144790476Y-142138095D01*
X144695238Y-142042857D01*
X144647619Y-141900000D01*
X144647619Y-141804761D01*
X144695238Y-141661904D01*
X144742857Y-141614285D01*
X145076190Y-141614285D01*
X145076190Y-141804761D01*
X144647619Y-141185714D02*
X145647619Y-141185714D01*
X144647619Y-140614285D01*
X145647619Y-140614285D01*
X144647619Y-140138095D02*
X145647619Y-140138095D01*
X145647619Y-139900000D01*
X145600000Y-139757142D01*
X145504761Y-139661904D01*
X145409523Y-139614285D01*
X145219047Y-139566666D01*
X145076190Y-139566666D01*
X144885714Y-139614285D01*
X144790476Y-139661904D01*
X144695238Y-139757142D01*
X144647619Y-139900000D01*
X144647619Y-140138095D01*
X147047619Y-142176190D02*
X148047619Y-142176190D01*
X148047619Y-141795238D01*
X148000000Y-141700000D01*
X147952380Y-141652380D01*
X147857142Y-141604761D01*
X147714285Y-141604761D01*
X147619047Y-141652380D01*
X147571428Y-141700000D01*
X147523809Y-141795238D01*
X147523809Y-142176190D01*
X147047619Y-141033333D02*
X147095238Y-141128571D01*
X147142857Y-141176190D01*
X147238095Y-141223809D01*
X147523809Y-141223809D01*
X147619047Y-141176190D01*
X147666666Y-141128571D01*
X147714285Y-141033333D01*
X147714285Y-140890476D01*
X147666666Y-140795238D01*
X147619047Y-140747619D01*
X147523809Y-140700000D01*
X147238095Y-140700000D01*
X147142857Y-140747619D01*
X147095238Y-140795238D01*
X147047619Y-140890476D01*
X147047619Y-141033333D01*
X147714285Y-140366666D02*
X147047619Y-140176190D01*
X147523809Y-139985714D01*
X147047619Y-139795238D01*
X147714285Y-139604761D01*
X147095238Y-138842857D02*
X147047619Y-138938095D01*
X147047619Y-139128571D01*
X147095238Y-139223809D01*
X147190476Y-139271428D01*
X147571428Y-139271428D01*
X147666666Y-139223809D01*
X147714285Y-139128571D01*
X147714285Y-138938095D01*
X147666666Y-138842857D01*
X147571428Y-138795238D01*
X147476190Y-138795238D01*
X147380952Y-139271428D01*
X147047619Y-138366666D02*
X147714285Y-138366666D01*
X147523809Y-138366666D02*
X147619047Y-138319047D01*
X147666666Y-138271428D01*
X147714285Y-138176190D01*
X147714285Y-138080952D01*
X158019047Y-140404761D02*
X157876190Y-140452380D01*
X157638095Y-140452380D01*
X157542857Y-140404761D01*
X157495238Y-140357142D01*
X157447619Y-140261904D01*
X157447619Y-140166666D01*
X157495238Y-140071428D01*
X157542857Y-140023809D01*
X157638095Y-139976190D01*
X157828571Y-139928571D01*
X157923809Y-139880952D01*
X157971428Y-139833333D01*
X158019047Y-139738095D01*
X158019047Y-139642857D01*
X157971428Y-139547619D01*
X157923809Y-139500000D01*
X157828571Y-139452380D01*
X157590476Y-139452380D01*
X157447619Y-139500000D01*
X157161904Y-139785714D02*
X156780952Y-139785714D01*
X157019047Y-139452380D02*
X157019047Y-140309523D01*
X156971428Y-140404761D01*
X156876190Y-140452380D01*
X156780952Y-140452380D01*
X156019047Y-140452380D02*
X156019047Y-139928571D01*
X156066666Y-139833333D01*
X156161904Y-139785714D01*
X156352380Y-139785714D01*
X156447619Y-139833333D01*
X156019047Y-140404761D02*
X156114285Y-140452380D01*
X156352380Y-140452380D01*
X156447619Y-140404761D01*
X156495238Y-140309523D01*
X156495238Y-140214285D01*
X156447619Y-140119047D01*
X156352380Y-140071428D01*
X156114285Y-140071428D01*
X156019047Y-140023809D01*
X155542857Y-140452380D02*
X155542857Y-139785714D01*
X155542857Y-139976190D02*
X155495238Y-139880952D01*
X155447619Y-139833333D01*
X155352380Y-139785714D01*
X155257142Y-139785714D01*
X155066666Y-139785714D02*
X154685714Y-139785714D01*
X154923809Y-139452380D02*
X154923809Y-140309523D01*
X154876190Y-140404761D01*
X154780952Y-140452380D01*
X154685714Y-140452380D01*
X132980952Y-141771428D02*
X132219047Y-141771428D01*
X135580952Y-141771428D02*
X134819047Y-141771428D01*
X135200000Y-142152380D02*
X135200000Y-141390476D01*
X140480952Y-141771428D02*
X139719047Y-141771428D01*
X140100000Y-142152380D02*
X140100000Y-141390476D01*
X138995238Y-140452380D02*
X139328571Y-139976190D01*
X139566666Y-140452380D02*
X139566666Y-139452380D01*
X139185714Y-139452380D01*
X139090476Y-139500000D01*
X139042857Y-139547619D01*
X138995238Y-139642857D01*
X138995238Y-139785714D01*
X139042857Y-139880952D01*
X139090476Y-139928571D01*
X139185714Y-139976190D01*
X139566666Y-139976190D01*
X138661904Y-140452380D02*
X138138095Y-139785714D01*
X138661904Y-139785714D02*
X138138095Y-140452380D01*
X134690476Y-139452380D02*
X134119047Y-139452380D01*
X134404761Y-140452380D02*
X134404761Y-139452380D01*
X133880952Y-140452380D02*
X133357142Y-139785714D01*
X133880952Y-139785714D02*
X133357142Y-140452380D01*
X137880952Y-141771428D02*
X137119047Y-141771428D01*
M02*
