%TF.GenerationSoftware,KiCad,Pcbnew,(6.0.1-0)*%
%TF.CreationDate,2022-01-28T13:52:13+00:00*%
%TF.ProjectId,ASR33,41535233-332e-46b6-9963-61645f706362,1*%
%TF.SameCoordinates,Original*%
%TF.FileFunction,Copper,L2,Bot*%
%TF.FilePolarity,Positive*%
%FSLAX46Y46*%
G04 Gerber Fmt 4.6, Leading zero omitted, Abs format (unit mm)*
G04 Created by KiCad (PCBNEW (6.0.1-0)) date 2022-01-28 13:52:13*
%MOMM*%
%LPD*%
G01*
G04 APERTURE LIST*
G04 Aperture macros list*
%AMRoundRect*
0 Rectangle with rounded corners*
0 $1 Rounding radius*
0 $2 $3 $4 $5 $6 $7 $8 $9 X,Y pos of 4 corners*
0 Add a 4 corners polygon primitive as box body*
4,1,4,$2,$3,$4,$5,$6,$7,$8,$9,$2,$3,0*
0 Add four circle primitives for the rounded corners*
1,1,$1+$1,$2,$3*
1,1,$1+$1,$4,$5*
1,1,$1+$1,$6,$7*
1,1,$1+$1,$8,$9*
0 Add four rect primitives between the rounded corners*
20,1,$1+$1,$2,$3,$4,$5,0*
20,1,$1+$1,$4,$5,$6,$7,0*
20,1,$1+$1,$6,$7,$8,$9,0*
20,1,$1+$1,$8,$9,$2,$3,0*%
%AMFreePoly0*
4,1,22,0.500000,-0.750000,0.000000,-0.750000,0.000000,-0.745033,-0.079941,-0.743568,-0.215256,-0.701293,-0.333266,-0.622738,-0.424486,-0.514219,-0.481581,-0.384460,-0.499164,-0.250000,-0.500000,-0.250000,-0.500000,0.250000,-0.499164,0.250000,-0.499963,0.256109,-0.478152,0.396186,-0.417904,0.524511,-0.324060,0.630769,-0.204165,0.706417,-0.067858,0.745374,0.000000,0.744959,0.000000,0.750000,
0.500000,0.750000,0.500000,-0.750000,0.500000,-0.750000,$1*%
%AMFreePoly1*
4,1,20,0.000000,0.744959,0.073905,0.744508,0.209726,0.703889,0.328688,0.626782,0.421226,0.519385,0.479903,0.390333,0.500000,0.250000,0.500000,-0.250000,0.499851,-0.262216,0.476331,-0.402017,0.414519,-0.529596,0.319384,-0.634700,0.198574,-0.708877,0.061801,-0.746166,0.000000,-0.745033,0.000000,-0.750000,-0.500000,-0.750000,-0.500000,0.750000,0.000000,0.750000,0.000000,0.744959,
0.000000,0.744959,$1*%
G04 Aperture macros list end*
%ADD10C,0.150000*%
%TA.AperFunction,NonConductor*%
%ADD11C,0.150000*%
%TD*%
%TA.AperFunction,EtchedComponent*%
%ADD12C,0.080000*%
%TD*%
%TA.AperFunction,EtchedComponent*%
%ADD13C,0.250000*%
%TD*%
%TA.AperFunction,SMDPad,CuDef*%
%ADD14FreePoly0,180.000000*%
%TD*%
%TA.AperFunction,SMDPad,CuDef*%
%ADD15FreePoly1,180.000000*%
%TD*%
%TA.AperFunction,ComponentPad*%
%ADD16C,0.600000*%
%TD*%
%TA.AperFunction,ComponentPad*%
%ADD17C,1.500000*%
%TD*%
%TA.AperFunction,ComponentPad*%
%ADD18C,1.250000*%
%TD*%
%TA.AperFunction,ComponentPad*%
%ADD19C,0.350000*%
%TD*%
%TA.AperFunction,ComponentPad*%
%ADD20RoundRect,0.250000X-0.600000X-0.675000X0.600000X-0.675000X0.600000X0.675000X-0.600000X0.675000X0*%
%TD*%
%TA.AperFunction,ComponentPad*%
%ADD21O,1.700000X1.850000*%
%TD*%
%TA.AperFunction,ComponentPad*%
%ADD22C,2.000000*%
%TD*%
%TA.AperFunction,SMDPad,CuDef*%
%ADD23R,1.400000X0.200000*%
%TD*%
%TA.AperFunction,SMDPad,CuDef*%
%ADD24R,0.200000X0.800000*%
%TD*%
%TA.AperFunction,SMDPad,CuDef*%
%ADD25R,0.200000X0.200000*%
%TD*%
%TA.AperFunction,SMDPad,CuDef*%
%ADD26R,0.200000X1.200000*%
%TD*%
%TA.AperFunction,SMDPad,CuDef*%
%ADD27R,0.200000X0.400000*%
%TD*%
%TA.AperFunction,SMDPad,CuDef*%
%ADD28R,0.600000X0.600000*%
%TD*%
%TA.AperFunction,SMDPad,CuDef*%
%ADD29R,0.400000X0.200000*%
%TD*%
%TA.AperFunction,SMDPad,CuDef*%
%ADD30R,1.000000X0.200000*%
%TD*%
%TA.AperFunction,SMDPad,CuDef*%
%ADD31R,0.200000X1.000000*%
%TD*%
%TA.AperFunction,SMDPad,CuDef*%
%ADD32R,0.800000X0.200000*%
%TD*%
%TA.AperFunction,SMDPad,CuDef*%
%ADD33R,0.200000X0.600000*%
%TD*%
%TA.AperFunction,SMDPad,CuDef*%
%ADD34R,0.400000X0.400000*%
%TD*%
%TA.AperFunction,SMDPad,CuDef*%
%ADD35R,0.600000X0.200000*%
%TD*%
%TA.AperFunction,ViaPad*%
%ADD36C,0.800000*%
%TD*%
%TA.AperFunction,Conductor*%
%ADD37C,0.250000*%
%TD*%
G04 APERTURE END LIST*
D10*
D11*
X152952380Y-139761904D02*
X152476190Y-139428571D01*
X152952380Y-139190476D02*
X151952380Y-139190476D01*
X151952380Y-139571428D01*
X152000000Y-139666666D01*
X152047619Y-139714285D01*
X152142857Y-139761904D01*
X152285714Y-139761904D01*
X152380952Y-139714285D01*
X152428571Y-139666666D01*
X152476190Y-139571428D01*
X152476190Y-139190476D01*
X151952380Y-140190476D02*
X152761904Y-140190476D01*
X152857142Y-140238095D01*
X152904761Y-140285714D01*
X152952380Y-140380952D01*
X152952380Y-140571428D01*
X152904761Y-140666666D01*
X152857142Y-140714285D01*
X152761904Y-140761904D01*
X151952380Y-140761904D01*
X152952380Y-141238095D02*
X151952380Y-141238095D01*
X152952380Y-141809523D01*
X151952380Y-141809523D01*
D10*
D11*
X157952380Y-139166666D02*
X156952380Y-139166666D01*
X156952380Y-139547619D01*
X157000000Y-139642857D01*
X157047619Y-139690476D01*
X157142857Y-139738095D01*
X157285714Y-139738095D01*
X157380952Y-139690476D01*
X157428571Y-139642857D01*
X157476190Y-139547619D01*
X157476190Y-139166666D01*
X156952380Y-140071428D02*
X157952380Y-140309523D01*
X157238095Y-140500000D01*
X157952380Y-140690476D01*
X156952380Y-140928571D01*
X157952380Y-141880952D02*
X157476190Y-141547619D01*
X157952380Y-141309523D02*
X156952380Y-141309523D01*
X156952380Y-141690476D01*
X157000000Y-141785714D01*
X157047619Y-141833333D01*
X157142857Y-141880952D01*
X157285714Y-141880952D01*
X157380952Y-141833333D01*
X157428571Y-141785714D01*
X157476190Y-141690476D01*
X157476190Y-141309523D01*
D10*
D11*
X155452380Y-139285714D02*
X154452380Y-139285714D01*
X155166666Y-139619047D01*
X154452380Y-139952380D01*
X155452380Y-139952380D01*
X154452380Y-140285714D02*
X154452380Y-140857142D01*
X155452380Y-140571428D02*
X154452380Y-140571428D01*
X155452380Y-141761904D02*
X154976190Y-141428571D01*
X155452380Y-141190476D02*
X154452380Y-141190476D01*
X154452380Y-141571428D01*
X154500000Y-141666666D01*
X154547619Y-141714285D01*
X154642857Y-141761904D01*
X154785714Y-141761904D01*
X154880952Y-141714285D01*
X154928571Y-141666666D01*
X154976190Y-141571428D01*
X154976190Y-141190476D01*
D10*
D11*
X144452380Y-139119047D02*
X144452380Y-139690476D01*
X145452380Y-139404761D02*
X144452380Y-139404761D01*
X144452380Y-139928571D02*
X145452380Y-140595238D01*
X144452380Y-140595238D02*
X145452380Y-139928571D01*
X144785714Y-140976190D02*
X145071428Y-141738095D01*
X145357142Y-140976190D01*
D10*
D11*
X141952380Y-139119047D02*
X141952380Y-139690476D01*
X142952380Y-139404761D02*
X141952380Y-139404761D01*
X141952380Y-139928571D02*
X142952380Y-140595238D01*
X141952380Y-140595238D02*
X142952380Y-139928571D01*
X142285714Y-141738095D02*
X142571428Y-140976190D01*
X142857142Y-141738095D01*
D10*
D11*
X140452380Y-139714285D02*
X139976190Y-139380952D01*
X140452380Y-139142857D02*
X139452380Y-139142857D01*
X139452380Y-139523809D01*
X139500000Y-139619047D01*
X139547619Y-139666666D01*
X139642857Y-139714285D01*
X139785714Y-139714285D01*
X139880952Y-139666666D01*
X139928571Y-139619047D01*
X139976190Y-139523809D01*
X139976190Y-139142857D01*
X139452380Y-140047619D02*
X140452380Y-140714285D01*
X139452380Y-140714285D02*
X140452380Y-140047619D01*
X139785714Y-141095238D02*
X140071428Y-141857142D01*
X140357142Y-141095238D01*
D10*
D11*
X137952380Y-139714285D02*
X137476190Y-139380952D01*
X137952380Y-139142857D02*
X136952380Y-139142857D01*
X136952380Y-139523809D01*
X137000000Y-139619047D01*
X137047619Y-139666666D01*
X137142857Y-139714285D01*
X137285714Y-139714285D01*
X137380952Y-139666666D01*
X137428571Y-139619047D01*
X137476190Y-139523809D01*
X137476190Y-139142857D01*
X136952380Y-140047619D02*
X137952380Y-140714285D01*
X136952380Y-140714285D02*
X137952380Y-140047619D01*
X137285714Y-141857142D02*
X137571428Y-141095238D01*
X137857142Y-141857142D01*
D10*
D11*
X150476190Y-140380952D02*
X149523809Y-140380952D01*
X150285714Y-140666666D02*
X149714285Y-140666666D01*
X150000000Y-139952380D02*
X150000000Y-140380952D01*
X149904761Y-140952380D02*
X150095238Y-140952380D01*
D10*
D11*
X135452380Y-139714285D02*
X134976190Y-139380952D01*
X135452380Y-139142857D02*
X134452380Y-139142857D01*
X134452380Y-139523809D01*
X134500000Y-139619047D01*
X134547619Y-139666666D01*
X134642857Y-139714285D01*
X134785714Y-139714285D01*
X134880952Y-139666666D01*
X134928571Y-139619047D01*
X134976190Y-139523809D01*
X134976190Y-139142857D01*
X134452380Y-140047619D02*
X135452380Y-140714285D01*
X134452380Y-140714285D02*
X135452380Y-140047619D01*
X134880952Y-141000000D02*
X134880952Y-141952380D01*
X135166666Y-141190476D02*
X135166666Y-141761904D01*
X134452380Y-141476190D02*
X134880952Y-141476190D01*
X135452380Y-141571428D02*
X135452380Y-141380952D01*
%TO.C,JP1*%
G36*
X139750000Y-131950000D02*
G01*
X139250000Y-131950000D01*
X139250000Y-131550000D01*
X139750000Y-131550000D01*
X139750000Y-131950000D01*
G37*
D12*
%TO.C,Logo1*%
X151600000Y-109060000D02*
X151500000Y-109060000D01*
D13*
X150000000Y-108900000D02*
X150000000Y-113100000D01*
D12*
X151600000Y-108900000D02*
X151600000Y-109200000D01*
D13*
X148200000Y-109000000D02*
X150000000Y-111000000D01*
X150000000Y-111000000D02*
X148200000Y-113100000D01*
D12*
X151500000Y-109060000D02*
X151400000Y-109200000D01*
D13*
X150000000Y-111000000D02*
X151500000Y-111000000D01*
X150000000Y-108900000D02*
X153000000Y-113100000D01*
D12*
X151600000Y-108900000D02*
X151500000Y-108900000D01*
X151500000Y-108900000D02*
G75*
G03*
X151500000Y-109060000I0J-80000D01*
G01*
D13*
X150000000Y-113100000D02*
G75*
G03*
X151500000Y-113100000I750000J0D01*
G01*
D12*
X151820000Y-109060000D02*
G75*
G03*
X151820000Y-109060000I-300000J0D01*
G01*
%TD*%
D14*
%TO.P,JP1,1,A*%
%TO.N,GND*%
X140150000Y-131750000D03*
D15*
%TO.P,JP1,2,B*%
%TO.N,Net-(C8-Pad1)*%
X138850000Y-131750000D03*
%TD*%
D16*
%TO.P,J1,S1,SHIELD*%
%TO.N,GND*%
X120610000Y-137210000D03*
X126390000Y-137210000D03*
D17*
X119180000Y-136720000D03*
X127820000Y-136720000D03*
D18*
X119180000Y-140890000D03*
X127820000Y-140890000D03*
%TD*%
D19*
%TO.P,U2,21,GND*%
%TO.N,GND*%
X127200000Y-126300000D03*
%TD*%
D20*
%TO.P,J3,1,Pin_1*%
%TO.N,Net-(C8-Pad1)*%
X135000000Y-136400000D03*
D21*
%TO.P,J3,2,Pin_2*%
%TO.N,Net-(C8-Pad2)*%
X137500000Y-136400000D03*
%TO.P,J3,3,Pin_3*%
%TO.N,Net-(J3-Pad3)*%
X140000000Y-136400000D03*
%TO.P,J3,4,Pin_4*%
%TO.N,Net-(J3-Pad4)*%
X142500000Y-136400000D03*
%TO.P,J3,5,Pin_5*%
%TO.N,Net-(J3-Pad5)*%
X145000000Y-136400000D03*
%TD*%
D22*
%TO.P,SW1,1,1*%
%TO.N,GND*%
X128250000Y-120550000D03*
X128250000Y-114050000D03*
%TO.P,SW1,2,2*%
%TO.N,BUTTON*%
X132750000Y-120550000D03*
X132750000Y-114050000D03*
%TD*%
D20*
%TO.P,J2,1,Pin_1*%
%TO.N,GND*%
X150000000Y-136400000D03*
D21*
%TO.P,J2,2,Pin_2*%
%TO.N,RUN*%
X152500000Y-136400000D03*
%TO.P,J2,3,Pin_3*%
%TO.N,MTR*%
X155000000Y-136400000D03*
%TO.P,J2,4,Pin_4*%
%TO.N,PWR*%
X157500000Y-136400000D03*
%TD*%
D23*
%TO.P,U7,*%
%TO.N,*%
X121600000Y-111000000D03*
D24*
X122800000Y-111300000D03*
D25*
X123400000Y-111000000D03*
D23*
X124400000Y-111000000D03*
D26*
X121000000Y-111700000D03*
X122200000Y-111700000D03*
D25*
X122600000Y-111200000D03*
D27*
X123200000Y-111300000D03*
D26*
X123800000Y-111700000D03*
X125000000Y-111700000D03*
D28*
X121600000Y-111600000D03*
X124400000Y-111600000D03*
D25*
X122600000Y-111600000D03*
D24*
X123000000Y-112100000D03*
D29*
X122700000Y-112000000D03*
D25*
X123200000Y-112000000D03*
D30*
X121600000Y-112200000D03*
D25*
X122600000Y-112200000D03*
D31*
X123400000Y-112600000D03*
D30*
X124400000Y-112200000D03*
X121400000Y-112600000D03*
D32*
X122500000Y-112600000D03*
D25*
X123600000Y-112600000D03*
X124000000Y-112600000D03*
X124400000Y-112600000D03*
X124800000Y-112600000D03*
D32*
X121700000Y-112800000D03*
D29*
X122500000Y-112800000D03*
D33*
X123000000Y-113000000D03*
D25*
X123800000Y-112800000D03*
D27*
X125000000Y-112900000D03*
D25*
X121800000Y-113000000D03*
D29*
X122300000Y-113000000D03*
D31*
X122800000Y-113400000D03*
D34*
X124100000Y-113100000D03*
D32*
X121300000Y-113200000D03*
D27*
X122000000Y-113300000D03*
D24*
X122600000Y-113500000D03*
X123200000Y-113500000D03*
D25*
X123600000Y-113200000D03*
D35*
X124600000Y-113200000D03*
D25*
X121200000Y-113400000D03*
X121600000Y-113400000D03*
X122200000Y-113400000D03*
X124200000Y-113400000D03*
X123000000Y-113600000D03*
D32*
X124700000Y-113600000D03*
D23*
X121600000Y-113800000D03*
D27*
X123400000Y-113900000D03*
X123800000Y-113900000D03*
D35*
X124400000Y-113800000D03*
D26*
X121000000Y-114500000D03*
X122200000Y-114500000D03*
D25*
X123000000Y-114000000D03*
X123600000Y-114000000D03*
D32*
X124700000Y-114000000D03*
D28*
X121600000Y-114400000D03*
D29*
X122700000Y-114200000D03*
D25*
X124000000Y-114200000D03*
D27*
X124600000Y-114300000D03*
D25*
X125000000Y-114200000D03*
D24*
X122600000Y-114700000D03*
D32*
X123300000Y-114400000D03*
D25*
X124400000Y-114400000D03*
D35*
X123000000Y-114600000D03*
D25*
X123800000Y-114600000D03*
X124200000Y-114600000D03*
D27*
X122800000Y-114900000D03*
D25*
X123600000Y-114800000D03*
X124600000Y-114800000D03*
X125000000Y-114800000D03*
D30*
X121600000Y-115000000D03*
D29*
X123300000Y-115000000D03*
D25*
X123800000Y-115000000D03*
D29*
X124300000Y-115000000D03*
%TD*%
D36*
%TO.N,GND*%
X134500000Y-132500000D03*
X148600000Y-132100000D03*
X131300000Y-128700000D03*
X145400000Y-116500000D03*
X127000000Y-130500000D03*
X140400000Y-133700000D03*
X133900000Y-126300000D03*
X138500000Y-133800000D03*
X125000000Y-117500000D03*
X141300000Y-128000000D03*
X152900000Y-124300000D03*
X145500000Y-128100000D03*
X147600000Y-128000000D03*
X150900000Y-129800000D03*
%TO.N,+3V3*%
X150550000Y-132500000D03*
X148800000Y-129000000D03*
X152300000Y-129000000D03*
X130900000Y-111900000D03*
X150200000Y-117800000D03*
%TO.N,Net-(C1-Pad1)*%
X122000000Y-126900000D03*
X129300000Y-128400000D03*
%TO.N,O*%
X148975500Y-124316609D03*
X124200000Y-125300000D03*
%TO.N,I*%
X147800000Y-124200000D03*
X128025469Y-123334984D03*
%TO.N,EN*%
X126400000Y-123200000D03*
X150200000Y-116000000D03*
%TO.N,GPIO0*%
X129900000Y-124500000D03*
X138800000Y-124400498D03*
%TO.N,R*%
X144000000Y-110700000D03*
X122600000Y-109100000D03*
%TO.N,G*%
X127100000Y-110300000D03*
X141500000Y-112300000D03*
%TO.N,B*%
X128800000Y-109700000D03*
X142800000Y-111600000D03*
%TO.N,Net-(C3-Pad1)*%
X124900000Y-130500000D03*
X123097807Y-130486523D03*
%TO.N,Net-(C8-Pad1)*%
X137400000Y-129700000D03*
%TD*%
D37*
%TO.N,+3V3*%
X140600000Y-112400000D02*
X140600000Y-113500000D01*
X149700000Y-118300000D02*
X149700000Y-129000000D01*
X148800000Y-129000000D02*
X149700000Y-129000000D01*
X142000000Y-114900000D02*
X150300000Y-114900000D01*
X152300000Y-129000000D02*
X149700000Y-129000000D01*
X131300000Y-111500000D02*
X139700000Y-111500000D01*
X150200000Y-117800000D02*
X150300000Y-117800000D01*
X149700000Y-129000000D02*
X149700000Y-131650000D01*
X151000000Y-117100000D02*
X151000000Y-115600000D01*
X151000000Y-117100000D02*
G75*
G02*
X150300000Y-117800000I-699999J-1D01*
G01*
X149700000Y-118300000D02*
G75*
G02*
X150200000Y-117800000I500001J-1D01*
G01*
X140600000Y-112400000D02*
G75*
G03*
X139700000Y-111500000I-900000J0D01*
G01*
X150300000Y-114900000D02*
G75*
G02*
X151000000Y-115600000I1J-699999D01*
G01*
X150550000Y-132500000D02*
G75*
G02*
X149700000Y-131650000I-1J849999D01*
G01*
X131300000Y-111500000D02*
G75*
G03*
X130900000Y-111900000I-1J-399999D01*
G01*
X142000000Y-114900000D02*
G75*
G02*
X140600000Y-113500000I2J1400002D01*
G01*
%TO.N,Net-(C1-Pad1)*%
X129300000Y-128400000D02*
X123500000Y-128400000D01*
X122000000Y-126900000D02*
G75*
G03*
X123500000Y-128400000I1500001J1D01*
G01*
%TO.N,O*%
X124424747Y-124663766D02*
X124563766Y-124524747D01*
X124908873Y-124340283D02*
X125101698Y-124301928D01*
X147271832Y-124971832D02*
X148528168Y-124971832D01*
X124240283Y-125008873D02*
X124315520Y-124827236D01*
X146800000Y-123700000D02*
X146800000Y-124500000D01*
X124315520Y-124827236D02*
X124424747Y-124663766D01*
X124727236Y-124415520D02*
X124908873Y-124340283D01*
X128950000Y-123950000D02*
X129222319Y-123677681D01*
X148975500Y-124316609D02*
X148975500Y-124524500D01*
X125200000Y-124300000D02*
X128105026Y-124300000D01*
X129892700Y-123400000D02*
X146500000Y-123400000D01*
X124201928Y-125201698D02*
X124240283Y-125008873D01*
X124563766Y-124524747D02*
X124727236Y-124415520D01*
X124200000Y-125300000D02*
X124201928Y-125201698D01*
X125101698Y-124301928D02*
X125200000Y-124300000D01*
X148528168Y-124971832D02*
G75*
G03*
X148975500Y-124524500I-2J447334D01*
G01*
X146800000Y-123700000D02*
G75*
G03*
X146500000Y-123400000I-300000J0D01*
G01*
X147271832Y-124971832D02*
G75*
G02*
X146800000Y-124500000I-1J471831D01*
G01*
X129892700Y-123400000D02*
G75*
G03*
X129222319Y-123677681I0J-948060D01*
G01*
X128950000Y-123950000D02*
G75*
G02*
X128105026Y-124300000I-844975J844976D01*
G01*
%TO.N,I*%
X128460453Y-122900000D02*
X147400000Y-122900000D01*
X147800000Y-123300000D02*
X147800000Y-124200000D01*
X147800000Y-123300000D02*
G75*
G03*
X147400000Y-122900000I-399999J1D01*
G01*
X128460453Y-122900000D02*
G75*
G03*
X128025469Y-123334984I0J-434984D01*
G01*
%TO.N,EN*%
X127200000Y-122400000D02*
X148300000Y-122400000D01*
X149200000Y-121500000D02*
X149200000Y-117000000D01*
X149200000Y-121500000D02*
G75*
G02*
X148300000Y-122400000I-900000J0D01*
G01*
X127200000Y-122400000D02*
G75*
G03*
X126400000Y-123200000I1J-800001D01*
G01*
X150200000Y-116000000D02*
G75*
G03*
X149200000Y-117000000I-1J-999999D01*
G01*
%TO.N,GPIO0*%
X129900000Y-124500000D02*
X129900000Y-124200000D01*
X130200000Y-123900000D02*
X138299502Y-123900000D01*
X138800000Y-124400498D02*
G75*
G03*
X138299502Y-123900000I-500496J2D01*
G01*
X130200000Y-123900000D02*
G75*
G03*
X129900000Y-124200000I0J-300000D01*
G01*
%TO.N,R*%
X122724501Y-108975499D02*
X128975499Y-108975499D01*
X122600000Y-109100000D02*
X122724501Y-108975499D01*
X130000000Y-110000000D02*
X143300000Y-110000000D01*
X144000000Y-110700000D02*
G75*
G03*
X143300000Y-110000000I-699999J1D01*
G01*
X129600000Y-109600000D02*
G75*
G03*
X128975499Y-108975499I-624501J0D01*
G01*
X130000000Y-110000000D02*
G75*
G02*
X129600000Y-109600000I-1J399999D01*
G01*
%TO.N,G*%
X141500000Y-111600000D02*
X141500000Y-112300000D01*
X127800000Y-111000000D02*
X140900000Y-111000000D01*
X127800000Y-111000000D02*
G75*
G02*
X127100000Y-110300000I-1J699999D01*
G01*
X141500000Y-111600000D02*
G75*
G03*
X140900000Y-111000000I-600000J0D01*
G01*
%TO.N,B*%
X129300000Y-110500000D02*
X141700000Y-110500000D01*
X128800000Y-109700000D02*
X128800000Y-110000000D01*
X129300000Y-110500000D02*
G75*
G02*
X128800000Y-110000000I1J500001D01*
G01*
X142800000Y-111600000D02*
G75*
G03*
X141700000Y-110500000I-1100002J-2D01*
G01*
%TO.N,Net-(C3-Pad1)*%
X124900000Y-130500000D02*
X123111284Y-130500000D01*
X123097807Y-130486523D02*
G75*
G03*
X123111284Y-130500000I13476J-1D01*
G01*
%TO.N,Net-(C8-Pad1)*%
X138850000Y-131150000D02*
X138850000Y-131750000D01*
X135000000Y-136400000D02*
X135000000Y-135600000D01*
X138850000Y-131150000D02*
G75*
G03*
X137400000Y-129700000I-1449999J1D01*
G01*
X138850000Y-131750000D02*
G75*
G03*
X135000000Y-135600000I0J-3850000D01*
G01*
%TD*%
%TA.AperFunction,Conductor*%
%TO.N,GND*%
G36*
X122361290Y-108274002D02*
G01*
X122407783Y-108327658D01*
X122417887Y-108397932D01*
X122388393Y-108462512D01*
X122350960Y-108491965D01*
X122229414Y-108554700D01*
X122110039Y-108658838D01*
X122018950Y-108788444D01*
X122005868Y-108821998D01*
X121980343Y-108887467D01*
X121961406Y-108936037D01*
X121960414Y-108943570D01*
X121960414Y-108943571D01*
X121958021Y-108961752D01*
X121940729Y-109093096D01*
X121949421Y-109171825D01*
X121956323Y-109234338D01*
X121958113Y-109250553D01*
X121960723Y-109257684D01*
X121960723Y-109257686D01*
X122001911Y-109370237D01*
X122012553Y-109399319D01*
X122016789Y-109405622D01*
X122016789Y-109405623D01*
X122083892Y-109505482D01*
X122100908Y-109530805D01*
X122106527Y-109535918D01*
X122106528Y-109535919D01*
X122202188Y-109622962D01*
X122218076Y-109637419D01*
X122357293Y-109713008D01*
X122510522Y-109753207D01*
X122594477Y-109754526D01*
X122661319Y-109755576D01*
X122661322Y-109755576D01*
X122668916Y-109755695D01*
X122823332Y-109720329D01*
X122902979Y-109680271D01*
X122958072Y-109652563D01*
X122958075Y-109652561D01*
X122964855Y-109649151D01*
X122970626Y-109644222D01*
X122970629Y-109644220D01*
X123079536Y-109551204D01*
X123079536Y-109551203D01*
X123085314Y-109546269D01*
X123177755Y-109417624D01*
X123177857Y-109417697D01*
X123225592Y-109370237D01*
X123285658Y-109354999D01*
X128047626Y-109354999D01*
X128115747Y-109375001D01*
X128162240Y-109428657D01*
X128172344Y-109498931D01*
X128165021Y-109526764D01*
X128161406Y-109536037D01*
X128160414Y-109543570D01*
X128160414Y-109543571D01*
X128141726Y-109685524D01*
X128140729Y-109693096D01*
X128158113Y-109850553D01*
X128160723Y-109857684D01*
X128160723Y-109857686D01*
X128206299Y-109982228D01*
X128212553Y-109999319D01*
X128216789Y-110005622D01*
X128216789Y-110005623D01*
X128269782Y-110084484D01*
X128300908Y-110130805D01*
X128306527Y-110135918D01*
X128306528Y-110135919D01*
X128337020Y-110163664D01*
X128418076Y-110237419D01*
X128424749Y-110241042D01*
X128427006Y-110242646D01*
X128470946Y-110298411D01*
X128474586Y-110308762D01*
X128483516Y-110338199D01*
X128486432Y-110343654D01*
X128486433Y-110343657D01*
X128535313Y-110435104D01*
X128549785Y-110504610D01*
X128524381Y-110570906D01*
X128467168Y-110612944D01*
X128424191Y-110620500D01*
X127859949Y-110620500D01*
X127791828Y-110600498D01*
X127745335Y-110546842D01*
X127735231Y-110476568D01*
X127736035Y-110472647D01*
X127736842Y-110470641D01*
X127738148Y-110461468D01*
X127758581Y-110317891D01*
X127758581Y-110317888D01*
X127759162Y-110313807D01*
X127759307Y-110300000D01*
X127740276Y-110142733D01*
X127684280Y-109994546D01*
X127594553Y-109863992D01*
X127476275Y-109758611D01*
X127468889Y-109754700D01*
X127383304Y-109709385D01*
X127336274Y-109684484D01*
X127182633Y-109645892D01*
X127175034Y-109645852D01*
X127175033Y-109645852D01*
X127109181Y-109645507D01*
X127024221Y-109645062D01*
X127016841Y-109646834D01*
X127016839Y-109646834D01*
X126877563Y-109680271D01*
X126877560Y-109680272D01*
X126870184Y-109682043D01*
X126729414Y-109754700D01*
X126610039Y-109858838D01*
X126518950Y-109988444D01*
X126511337Y-110007971D01*
X126467464Y-110120500D01*
X126461406Y-110136037D01*
X126460414Y-110143570D01*
X126460414Y-110143571D01*
X126443737Y-110270251D01*
X126440729Y-110293096D01*
X126445055Y-110332279D01*
X126454935Y-110421764D01*
X126458113Y-110450553D01*
X126460723Y-110457684D01*
X126460723Y-110457686D01*
X126497375Y-110557842D01*
X126512553Y-110599319D01*
X126516789Y-110605622D01*
X126516789Y-110605623D01*
X126575569Y-110693096D01*
X126600908Y-110730805D01*
X126606527Y-110735918D01*
X126606528Y-110735919D01*
X126679187Y-110802033D01*
X126718076Y-110837419D01*
X126857293Y-110913008D01*
X126864634Y-110914934D01*
X126864642Y-110914937D01*
X126878864Y-110918668D01*
X126939679Y-110955302D01*
X126950101Y-110968271D01*
X126960992Y-110983824D01*
X126969896Y-110996540D01*
X127103460Y-111130104D01*
X127107968Y-111133261D01*
X127107971Y-111133263D01*
X127126546Y-111146269D01*
X127258188Y-111238446D01*
X127263170Y-111240769D01*
X127263175Y-111240772D01*
X127418086Y-111313008D01*
X127429379Y-111318274D01*
X127434687Y-111319696D01*
X127434689Y-111319697D01*
X127437048Y-111320329D01*
X127611831Y-111367162D01*
X127724723Y-111377038D01*
X127730842Y-111377961D01*
X127733851Y-111379018D01*
X127739416Y-111379500D01*
X127747356Y-111379500D01*
X127758335Y-111379979D01*
X127772375Y-111381207D01*
X127787059Y-111382492D01*
X127788592Y-111382680D01*
X127789211Y-111382680D01*
X127791440Y-111382875D01*
X127800001Y-111384231D01*
X127820079Y-111381051D01*
X127839789Y-111379500D01*
X130223238Y-111379500D01*
X130291359Y-111399502D01*
X130337852Y-111453158D01*
X130347956Y-111523432D01*
X130326323Y-111577953D01*
X130323320Y-111582225D01*
X130323317Y-111582230D01*
X130318950Y-111588444D01*
X130261406Y-111736037D01*
X130260414Y-111743570D01*
X130260414Y-111743571D01*
X130241966Y-111883703D01*
X130240729Y-111893096D01*
X130244919Y-111931046D01*
X130255933Y-112030805D01*
X130258113Y-112050553D01*
X130260723Y-112057684D01*
X130260723Y-112057686D01*
X130308797Y-112189054D01*
X130312553Y-112199319D01*
X130400908Y-112330805D01*
X130406527Y-112335918D01*
X130406528Y-112335919D01*
X130417903Y-112346269D01*
X130518076Y-112437419D01*
X130657293Y-112513008D01*
X130810522Y-112553207D01*
X130894477Y-112554526D01*
X130961319Y-112555576D01*
X130961322Y-112555576D01*
X130968916Y-112555695D01*
X131123332Y-112520329D01*
X131208101Y-112477695D01*
X131258072Y-112452563D01*
X131258075Y-112452561D01*
X131264855Y-112449151D01*
X131270626Y-112444222D01*
X131270629Y-112444220D01*
X131379536Y-112351204D01*
X131379536Y-112351203D01*
X131385314Y-112346269D01*
X131477755Y-112217624D01*
X131536842Y-112070641D01*
X131548639Y-111987747D01*
X131578039Y-111923124D01*
X131637710Y-111884655D01*
X131673382Y-111879500D01*
X139660212Y-111879500D01*
X139679922Y-111881051D01*
X139700000Y-111884231D01*
X139709794Y-111882680D01*
X139719708Y-111882680D01*
X139719708Y-111883703D01*
X139734411Y-111883378D01*
X139801715Y-111890961D01*
X139829223Y-111897240D01*
X139912437Y-111926358D01*
X139937858Y-111938600D01*
X140012507Y-111985505D01*
X140034566Y-112003097D01*
X140096903Y-112065434D01*
X140114495Y-112087493D01*
X140161400Y-112162142D01*
X140173642Y-112187563D01*
X140202760Y-112270777D01*
X140209039Y-112298285D01*
X140216622Y-112365589D01*
X140216297Y-112380292D01*
X140217320Y-112380292D01*
X140217320Y-112390206D01*
X140215769Y-112400000D01*
X140217320Y-112409792D01*
X140218949Y-112420077D01*
X140220500Y-112439788D01*
X140220500Y-113460213D01*
X140218949Y-113479924D01*
X140217321Y-113490205D01*
X140215769Y-113500001D01*
X140216106Y-113502131D01*
X140216857Y-113512633D01*
X140222203Y-113587373D01*
X140234113Y-113753897D01*
X140235069Y-113758293D01*
X140235070Y-113758298D01*
X140287264Y-113998226D01*
X140288221Y-114002624D01*
X140377175Y-114241119D01*
X140499166Y-114464528D01*
X140651709Y-114668301D01*
X140831699Y-114848291D01*
X141035472Y-115000834D01*
X141258881Y-115122825D01*
X141497376Y-115211779D01*
X141501771Y-115212735D01*
X141501774Y-115212736D01*
X141741702Y-115264930D01*
X141741707Y-115264931D01*
X141746103Y-115265887D01*
X141997869Y-115283894D01*
X141999999Y-115284231D01*
X142009785Y-115282681D01*
X142009787Y-115282681D01*
X142020076Y-115281051D01*
X142039787Y-115279500D01*
X149694141Y-115279500D01*
X149762262Y-115299502D01*
X149808755Y-115353158D01*
X149818859Y-115423432D01*
X149789365Y-115488012D01*
X149776971Y-115500449D01*
X149710039Y-115558838D01*
X149618950Y-115688444D01*
X149616189Y-115695525D01*
X149616187Y-115695529D01*
X149608888Y-115714249D01*
X149565507Y-115770450D01*
X149557331Y-115775911D01*
X149386643Y-115880509D01*
X149221529Y-116021529D01*
X149080509Y-116186643D01*
X148967055Y-116371783D01*
X148965162Y-116376353D01*
X148965160Y-116376357D01*
X148885854Y-116567820D01*
X148883960Y-116572393D01*
X148882805Y-116577205D01*
X148842719Y-116744176D01*
X148833270Y-116783532D01*
X148825990Y-116876032D01*
X148821779Y-116929544D01*
X148821267Y-116933039D01*
X148820982Y-116933851D01*
X148820500Y-116939416D01*
X148820500Y-116942128D01*
X148820382Y-116944857D01*
X148820342Y-116944855D01*
X148820112Y-116950720D01*
X148816693Y-116994165D01*
X148815769Y-117000000D01*
X148817320Y-117009792D01*
X148818949Y-117020077D01*
X148820500Y-117039788D01*
X148820500Y-121460212D01*
X148818949Y-121479922D01*
X148815769Y-121500000D01*
X148817320Y-121509794D01*
X148817320Y-121519708D01*
X148816297Y-121519708D01*
X148816622Y-121534411D01*
X148809039Y-121601715D01*
X148802760Y-121629223D01*
X148773642Y-121712437D01*
X148761400Y-121737858D01*
X148714495Y-121812507D01*
X148696903Y-121834566D01*
X148634566Y-121896903D01*
X148612507Y-121914495D01*
X148537858Y-121961400D01*
X148512437Y-121973642D01*
X148429223Y-122002760D01*
X148401715Y-122009039D01*
X148334411Y-122016622D01*
X148319708Y-122016297D01*
X148319708Y-122017320D01*
X148309794Y-122017320D01*
X148300000Y-122015769D01*
X148282549Y-122018533D01*
X148279923Y-122018949D01*
X148260212Y-122020500D01*
X133066103Y-122020500D01*
X132997982Y-122000498D01*
X132951489Y-121946842D01*
X132941385Y-121876568D01*
X132970879Y-121811988D01*
X133033491Y-121772793D01*
X133175392Y-121734770D01*
X133175391Y-121734770D01*
X133180703Y-121733347D01*
X133273884Y-121689896D01*
X133374659Y-121642905D01*
X133374664Y-121642902D01*
X133379646Y-121640579D01*
X133552268Y-121519708D01*
X133554946Y-121517833D01*
X133554949Y-121517831D01*
X133559457Y-121514674D01*
X133714674Y-121359457D01*
X133840579Y-121179646D01*
X133842902Y-121174664D01*
X133842905Y-121174659D01*
X133914084Y-121022012D01*
X133933347Y-120980703D01*
X133990161Y-120768674D01*
X134009292Y-120550000D01*
X133990161Y-120331326D01*
X133933347Y-120119297D01*
X133889896Y-120026116D01*
X133842905Y-119925341D01*
X133842902Y-119925336D01*
X133840579Y-119920354D01*
X133714674Y-119740543D01*
X133559457Y-119585326D01*
X133554949Y-119582169D01*
X133554946Y-119582167D01*
X133384155Y-119462578D01*
X133384153Y-119462577D01*
X133379646Y-119459421D01*
X133374664Y-119457098D01*
X133374659Y-119457095D01*
X133273884Y-119410104D01*
X133180703Y-119366653D01*
X132968674Y-119309839D01*
X132750000Y-119290708D01*
X132531326Y-119309839D01*
X132319297Y-119366653D01*
X132226116Y-119410104D01*
X132125341Y-119457095D01*
X132125336Y-119457098D01*
X132120354Y-119459421D01*
X132115847Y-119462577D01*
X132115845Y-119462578D01*
X131945054Y-119582167D01*
X131945051Y-119582169D01*
X131940543Y-119585326D01*
X131785326Y-119740543D01*
X131659421Y-119920354D01*
X131657098Y-119925336D01*
X131657095Y-119925341D01*
X131610104Y-120026116D01*
X131566653Y-120119297D01*
X131509839Y-120331326D01*
X131490708Y-120550000D01*
X131509839Y-120768674D01*
X131566653Y-120980703D01*
X131585916Y-121022012D01*
X131657095Y-121174659D01*
X131657098Y-121174664D01*
X131659421Y-121179646D01*
X131785326Y-121359457D01*
X131940543Y-121514674D01*
X131945051Y-121517831D01*
X131945054Y-121517833D01*
X131947732Y-121519708D01*
X132120354Y-121640579D01*
X132125336Y-121642902D01*
X132125341Y-121642905D01*
X132226116Y-121689896D01*
X132319297Y-121733347D01*
X132324609Y-121734770D01*
X132324608Y-121734770D01*
X132466509Y-121772793D01*
X132527131Y-121809745D01*
X132558153Y-121873606D01*
X132549724Y-121944100D01*
X132504521Y-121998847D01*
X132433897Y-122020500D01*
X129183255Y-122020500D01*
X129115134Y-122000498D01*
X129068641Y-121946842D01*
X129058537Y-121876568D01*
X129088031Y-121811988D01*
X129100247Y-121801630D01*
X129117907Y-121782110D01*
X129114124Y-121773334D01*
X128262812Y-120922022D01*
X128248868Y-120914408D01*
X128247035Y-120914539D01*
X128240420Y-120918790D01*
X127388920Y-121770290D01*
X127382160Y-121782670D01*
X127399223Y-121805463D01*
X127430211Y-121839714D01*
X127441818Y-121909756D01*
X127413715Y-121974953D01*
X127354825Y-122014608D01*
X127316745Y-122020500D01*
X127239788Y-122020500D01*
X127220077Y-122018949D01*
X127209794Y-122017320D01*
X127209793Y-122017320D01*
X127200000Y-122015769D01*
X127190203Y-122017321D01*
X127189836Y-122017321D01*
X127181469Y-122018312D01*
X127014915Y-122031420D01*
X127010108Y-122032574D01*
X127010102Y-122032575D01*
X126897705Y-122059560D01*
X126834387Y-122074761D01*
X126829816Y-122076654D01*
X126829814Y-122076655D01*
X126772158Y-122100537D01*
X126662863Y-122145809D01*
X126560573Y-122208492D01*
X126508790Y-122240224D01*
X126508787Y-122240226D01*
X126504564Y-122242814D01*
X126363389Y-122363389D01*
X126360181Y-122367145D01*
X126281271Y-122459537D01*
X126242814Y-122504564D01*
X126240226Y-122508787D01*
X126240224Y-122508790D01*
X126224720Y-122534091D01*
X126172274Y-122581541D01*
X126170184Y-122582043D01*
X126029414Y-122654700D01*
X125910039Y-122758838D01*
X125818950Y-122888444D01*
X125816190Y-122895524D01*
X125768746Y-123017212D01*
X125761406Y-123036037D01*
X125760414Y-123043570D01*
X125760414Y-123043571D01*
X125745961Y-123153357D01*
X125740729Y-123193096D01*
X125749421Y-123271824D01*
X125756925Y-123339789D01*
X125758113Y-123350553D01*
X125760723Y-123357684D01*
X125760723Y-123357686D01*
X125807510Y-123485537D01*
X125812553Y-123499319D01*
X125900908Y-123630805D01*
X125906527Y-123635918D01*
X125906528Y-123635919D01*
X125978388Y-123701306D01*
X126015311Y-123761946D01*
X126013588Y-123832922D01*
X125973766Y-123891699D01*
X125908488Y-123919616D01*
X125893589Y-123920500D01*
X125269483Y-123920500D01*
X125258724Y-123919461D01*
X125258704Y-123919758D01*
X125253131Y-123919385D01*
X125250419Y-123919438D01*
X125250411Y-123919438D01*
X125197502Y-123920476D01*
X125195031Y-123920500D01*
X125168476Y-123920500D01*
X125165328Y-123921024D01*
X125162689Y-123921159D01*
X125135178Y-123921698D01*
X125114960Y-123920465D01*
X125108648Y-123919567D01*
X125100478Y-123918404D01*
X125100476Y-123918404D01*
X125092634Y-123917288D01*
X125087082Y-123917901D01*
X125079621Y-123919385D01*
X125032751Y-123928707D01*
X125031294Y-123928988D01*
X124975438Y-123939415D01*
X124969958Y-123940438D01*
X124968168Y-123941450D01*
X124966882Y-123941810D01*
X124934199Y-123948311D01*
X124870120Y-123961056D01*
X124852467Y-123963287D01*
X124824942Y-123964802D01*
X124819616Y-123966486D01*
X124771731Y-123986321D01*
X124768077Y-123987768D01*
X124725581Y-124003825D01*
X124715628Y-124007586D01*
X124711573Y-124010941D01*
X124707868Y-124012774D01*
X124615242Y-124051141D01*
X124598361Y-124056773D01*
X124571666Y-124063627D01*
X124566771Y-124066318D01*
X124564507Y-124067831D01*
X124564505Y-124067832D01*
X124523686Y-124095107D01*
X124520358Y-124097256D01*
X124512516Y-124102147D01*
X124472798Y-124126917D01*
X124469476Y-124130997D01*
X124466203Y-124133516D01*
X124382842Y-124189216D01*
X124367381Y-124198035D01*
X124349679Y-124206535D01*
X124349676Y-124206537D01*
X124342535Y-124209966D01*
X124338259Y-124213560D01*
X124301630Y-124250189D01*
X124298788Y-124252944D01*
X124265503Y-124284200D01*
X124265502Y-124284202D01*
X124257914Y-124291327D01*
X124255452Y-124295977D01*
X124252729Y-124299090D01*
X124181839Y-124369980D01*
X124168397Y-124381645D01*
X124152695Y-124393434D01*
X124152692Y-124393437D01*
X124146356Y-124398194D01*
X124142863Y-124402553D01*
X124141350Y-124404818D01*
X124141343Y-124404827D01*
X124114069Y-124445647D01*
X124111853Y-124448854D01*
X124079233Y-124494500D01*
X124077724Y-124499544D01*
X124075666Y-124503120D01*
X124019964Y-124586485D01*
X124009054Y-124600550D01*
X123990668Y-124621077D01*
X123988093Y-124626034D01*
X123986818Y-124629114D01*
X123981101Y-124642915D01*
X123936554Y-124698196D01*
X123922486Y-124706662D01*
X123829414Y-124754700D01*
X123710039Y-124858838D01*
X123618950Y-124988444D01*
X123598443Y-125041042D01*
X123569634Y-125114934D01*
X123561406Y-125136037D01*
X123560414Y-125143570D01*
X123560414Y-125143571D01*
X123551116Y-125214200D01*
X123540729Y-125293096D01*
X123558113Y-125450553D01*
X123612553Y-125599319D01*
X123700908Y-125730805D01*
X123706527Y-125735918D01*
X123706528Y-125735919D01*
X123717903Y-125746269D01*
X123818076Y-125837419D01*
X123957293Y-125913008D01*
X124110522Y-125953207D01*
X124194477Y-125954526D01*
X124261319Y-125955576D01*
X124261322Y-125955576D01*
X124268916Y-125955695D01*
X124423332Y-125920329D01*
X124493742Y-125884917D01*
X124558072Y-125852563D01*
X124558075Y-125852561D01*
X124564855Y-125849151D01*
X124570626Y-125844222D01*
X124570629Y-125844220D01*
X124679536Y-125751204D01*
X124679536Y-125751203D01*
X124685314Y-125746269D01*
X124777755Y-125617624D01*
X124836842Y-125470641D01*
X124853423Y-125354133D01*
X124858581Y-125317891D01*
X124858581Y-125317888D01*
X124859162Y-125313807D01*
X124859307Y-125300000D01*
X124840276Y-125142733D01*
X124798550Y-125032309D01*
X124786964Y-125001648D01*
X124786963Y-125001646D01*
X124784280Y-124994546D01*
X124779981Y-124988291D01*
X124776458Y-124981552D01*
X124778063Y-124980713D01*
X124758962Y-124922383D01*
X124776853Y-124853677D01*
X124795807Y-124829400D01*
X124796907Y-124828300D01*
X124816000Y-124812630D01*
X124896676Y-124758724D01*
X124918458Y-124747081D01*
X125008109Y-124709946D01*
X125031746Y-124702776D01*
X125131807Y-124682874D01*
X125153913Y-124680477D01*
X125202503Y-124679524D01*
X125204975Y-124679500D01*
X128065238Y-124679500D01*
X128084948Y-124681051D01*
X128105026Y-124684231D01*
X128114819Y-124682680D01*
X128115207Y-124682680D01*
X128125367Y-124681545D01*
X128306862Y-124669649D01*
X128306866Y-124669648D01*
X128310977Y-124669379D01*
X128315017Y-124668575D01*
X128315020Y-124668575D01*
X128509359Y-124629919D01*
X128509365Y-124629917D01*
X128513404Y-124629114D01*
X128517308Y-124627789D01*
X128517311Y-124627788D01*
X128704938Y-124564097D01*
X128704939Y-124564096D01*
X128708844Y-124562771D01*
X128799852Y-124517891D01*
X128890248Y-124473313D01*
X128890253Y-124473310D01*
X128893952Y-124471486D01*
X128979529Y-124414305D01*
X129046074Y-124369841D01*
X129113827Y-124348626D01*
X129182294Y-124367409D01*
X129229737Y-124420226D01*
X129238915Y-124477939D01*
X129241800Y-124477969D01*
X129241721Y-124485564D01*
X129240729Y-124493096D01*
X129248514Y-124563613D01*
X129257270Y-124642915D01*
X129258113Y-124650553D01*
X129260723Y-124657684D01*
X129260723Y-124657686D01*
X129298051Y-124759689D01*
X129312553Y-124799319D01*
X129316789Y-124805622D01*
X129316789Y-124805623D01*
X129395249Y-124922383D01*
X129400908Y-124930805D01*
X129406527Y-124935918D01*
X129406528Y-124935919D01*
X129501704Y-125022522D01*
X129518076Y-125037419D01*
X129657293Y-125113008D01*
X129810522Y-125153207D01*
X129894477Y-125154526D01*
X129961319Y-125155576D01*
X129961322Y-125155576D01*
X129968916Y-125155695D01*
X130123332Y-125120329D01*
X130193742Y-125084917D01*
X130258072Y-125052563D01*
X130258075Y-125052561D01*
X130264855Y-125049151D01*
X130270626Y-125044222D01*
X130270629Y-125044220D01*
X130379536Y-124951204D01*
X130379536Y-124951203D01*
X130385314Y-124946269D01*
X130477755Y-124817624D01*
X130536842Y-124670641D01*
X130552453Y-124560947D01*
X130558581Y-124517891D01*
X130558581Y-124517888D01*
X130559162Y-124513807D01*
X130559307Y-124500000D01*
X130558642Y-124494500D01*
X130549703Y-124420637D01*
X130561376Y-124350607D01*
X130609057Y-124298005D01*
X130674790Y-124279500D01*
X138015510Y-124279500D01*
X138083631Y-124299502D01*
X138130124Y-124353158D01*
X138138746Y-124393813D01*
X138140729Y-124393594D01*
X138154013Y-124513911D01*
X138158113Y-124551051D01*
X138160723Y-124558182D01*
X138160723Y-124558184D01*
X138207410Y-124685762D01*
X138212553Y-124699817D01*
X138216789Y-124706120D01*
X138216789Y-124706121D01*
X138286977Y-124810571D01*
X138300908Y-124831303D01*
X138306527Y-124836416D01*
X138306528Y-124836417D01*
X138410260Y-124930805D01*
X138418076Y-124937917D01*
X138557293Y-125013506D01*
X138710522Y-125053705D01*
X138794477Y-125055024D01*
X138861319Y-125056074D01*
X138861322Y-125056074D01*
X138868916Y-125056193D01*
X139023332Y-125020827D01*
X139124781Y-124969804D01*
X139158072Y-124953061D01*
X139158075Y-124953059D01*
X139164855Y-124949649D01*
X139170626Y-124944720D01*
X139170629Y-124944718D01*
X139279536Y-124851702D01*
X139279536Y-124851701D01*
X139285314Y-124846767D01*
X139377755Y-124718122D01*
X139436842Y-124571139D01*
X139446874Y-124500646D01*
X139458581Y-124418389D01*
X139458581Y-124418386D01*
X139459162Y-124414305D01*
X139459307Y-124400498D01*
X139440276Y-124243231D01*
X139384280Y-124095044D01*
X139303059Y-123976866D01*
X139280959Y-123909398D01*
X139298844Y-123840691D01*
X139351036Y-123792560D01*
X139406899Y-123779500D01*
X146294500Y-123779500D01*
X146362621Y-123799502D01*
X146409114Y-123853158D01*
X146420500Y-123905500D01*
X146420500Y-124460211D01*
X146418949Y-124479921D01*
X146415769Y-124499999D01*
X146417320Y-124509793D01*
X146417320Y-124510551D01*
X146417751Y-124513908D01*
X146432818Y-124666890D01*
X146434613Y-124672808D01*
X146434614Y-124672812D01*
X146479701Y-124821444D01*
X146481498Y-124827367D01*
X146560550Y-124975263D01*
X146666937Y-125104895D01*
X146796569Y-125211282D01*
X146802027Y-125214199D01*
X146802028Y-125214200D01*
X146809568Y-125218230D01*
X146944465Y-125290334D01*
X146950385Y-125292130D01*
X146950388Y-125292131D01*
X147099020Y-125337218D01*
X147099024Y-125337219D01*
X147104942Y-125339014D01*
X147111105Y-125339621D01*
X147190846Y-125347475D01*
X147200267Y-125348948D01*
X147205683Y-125350850D01*
X147211248Y-125351332D01*
X147223822Y-125351332D01*
X147236172Y-125351939D01*
X147257924Y-125354081D01*
X147261281Y-125354512D01*
X147262039Y-125354512D01*
X147271833Y-125356063D01*
X147291911Y-125352883D01*
X147311621Y-125351332D01*
X148488382Y-125351332D01*
X148508092Y-125352883D01*
X148528170Y-125356063D01*
X148537964Y-125354512D01*
X148538256Y-125354512D01*
X148544042Y-125353770D01*
X148690257Y-125339368D01*
X148774521Y-125313807D01*
X148840191Y-125293886D01*
X148846115Y-125292089D01*
X148851570Y-125289173D01*
X148851573Y-125289172D01*
X148984295Y-125218230D01*
X148984296Y-125218230D01*
X148989754Y-125215312D01*
X149103425Y-125122024D01*
X149114566Y-125112881D01*
X149179913Y-125085127D01*
X149249892Y-125097109D01*
X149302284Y-125145021D01*
X149320500Y-125210280D01*
X149320500Y-128325689D01*
X149300498Y-128393810D01*
X149246842Y-128440303D01*
X149176568Y-128450407D01*
X149135544Y-128437045D01*
X149036274Y-128384484D01*
X148882633Y-128345892D01*
X148875034Y-128345852D01*
X148875033Y-128345852D01*
X148809181Y-128345507D01*
X148724221Y-128345062D01*
X148716841Y-128346834D01*
X148716839Y-128346834D01*
X148577563Y-128380271D01*
X148577560Y-128380272D01*
X148570184Y-128382043D01*
X148429414Y-128454700D01*
X148310039Y-128558838D01*
X148218950Y-128688444D01*
X148161406Y-128836037D01*
X148160414Y-128843570D01*
X148160414Y-128843571D01*
X148147164Y-128944220D01*
X148140729Y-128993096D01*
X148143736Y-129020329D01*
X148150354Y-129080271D01*
X148158113Y-129150553D01*
X148160723Y-129157684D01*
X148160723Y-129157686D01*
X148201916Y-129270251D01*
X148212553Y-129299319D01*
X148216789Y-129305622D01*
X148216789Y-129305623D01*
X148278396Y-129397303D01*
X148300908Y-129430805D01*
X148306525Y-129435916D01*
X148306528Y-129435919D01*
X148317903Y-129446269D01*
X148418076Y-129537419D01*
X148557293Y-129613008D01*
X148710522Y-129653207D01*
X148794477Y-129654526D01*
X148861319Y-129655576D01*
X148861322Y-129655576D01*
X148868916Y-129655695D01*
X149023332Y-129620329D01*
X149137886Y-129562715D01*
X149207731Y-129549977D01*
X149273375Y-129577021D01*
X149313976Y-129635262D01*
X149320500Y-129675280D01*
X149320500Y-131610212D01*
X149318949Y-131629922D01*
X149315769Y-131650000D01*
X149317321Y-131659796D01*
X149317321Y-131660824D01*
X149318004Y-131666594D01*
X149324254Y-131746000D01*
X149331882Y-131842931D01*
X149333036Y-131847738D01*
X149333037Y-131847744D01*
X149358715Y-131954700D01*
X149377060Y-132031111D01*
X149378952Y-132035678D01*
X149378954Y-132035685D01*
X149435752Y-132172808D01*
X149451119Y-132209907D01*
X149552237Y-132374917D01*
X149677923Y-132522077D01*
X149825083Y-132647763D01*
X149829298Y-132650346D01*
X149829309Y-132650354D01*
X149893387Y-132689621D01*
X149941018Y-132742268D01*
X149945878Y-132753752D01*
X149962553Y-132799319D01*
X149966789Y-132805622D01*
X149966789Y-132805623D01*
X150044602Y-132921420D01*
X150050908Y-132930805D01*
X150056527Y-132935918D01*
X150056528Y-132935919D01*
X150067903Y-132946269D01*
X150168076Y-133037419D01*
X150307293Y-133113008D01*
X150460522Y-133153207D01*
X150544477Y-133154526D01*
X150611319Y-133155576D01*
X150611322Y-133155576D01*
X150618916Y-133155695D01*
X150773332Y-133120329D01*
X150843742Y-133084917D01*
X150908072Y-133052563D01*
X150908075Y-133052561D01*
X150914855Y-133049151D01*
X150920626Y-133044222D01*
X150920629Y-133044220D01*
X151029536Y-132951204D01*
X151029536Y-132951203D01*
X151035314Y-132946269D01*
X151127755Y-132817624D01*
X151186842Y-132670641D01*
X151196995Y-132599301D01*
X151208581Y-132517891D01*
X151208581Y-132517888D01*
X151209162Y-132513807D01*
X151209307Y-132500000D01*
X151190276Y-132342733D01*
X151134280Y-132194546D01*
X151044553Y-132063992D01*
X150926275Y-131958611D01*
X150918889Y-131954700D01*
X150792988Y-131888039D01*
X150792989Y-131888039D01*
X150786274Y-131884484D01*
X150632633Y-131845892D01*
X150625034Y-131845852D01*
X150625033Y-131845852D01*
X150559181Y-131845507D01*
X150474221Y-131845062D01*
X150466841Y-131846834D01*
X150466839Y-131846834D01*
X150327563Y-131880271D01*
X150327560Y-131880272D01*
X150320184Y-131882043D01*
X150313442Y-131885523D01*
X150313436Y-131885525D01*
X150294492Y-131895303D01*
X150224785Y-131908772D01*
X150158862Y-131882416D01*
X150120294Y-131831555D01*
X150101880Y-131787100D01*
X150093367Y-131755329D01*
X150083757Y-131682339D01*
X150082679Y-131665888D01*
X150082679Y-131659796D01*
X150084231Y-131650000D01*
X150081051Y-131629922D01*
X150079500Y-131610212D01*
X150079500Y-129505500D01*
X150099502Y-129437379D01*
X150153158Y-129390886D01*
X150205500Y-129379500D01*
X151700141Y-129379500D01*
X151768262Y-129399502D01*
X151795522Y-129423169D01*
X151796671Y-129424500D01*
X151800908Y-129430805D01*
X151918076Y-129537419D01*
X152057293Y-129613008D01*
X152210522Y-129653207D01*
X152294477Y-129654526D01*
X152361319Y-129655576D01*
X152361322Y-129655576D01*
X152368916Y-129655695D01*
X152523332Y-129620329D01*
X152637886Y-129562715D01*
X152658072Y-129552563D01*
X152658075Y-129552561D01*
X152664855Y-129549151D01*
X152670626Y-129544222D01*
X152670629Y-129544220D01*
X152779536Y-129451204D01*
X152779536Y-129451203D01*
X152785314Y-129446269D01*
X152877755Y-129317624D01*
X152936842Y-129170641D01*
X152953829Y-129051279D01*
X152958581Y-129017891D01*
X152958581Y-129017888D01*
X152959162Y-129013807D01*
X152959307Y-129000000D01*
X152940276Y-128842733D01*
X152884280Y-128694546D01*
X152846900Y-128640157D01*
X152798855Y-128570251D01*
X152798854Y-128570249D01*
X152794553Y-128563992D01*
X152676275Y-128458611D01*
X152668889Y-128454700D01*
X152591655Y-128413807D01*
X152536274Y-128384484D01*
X152382633Y-128345892D01*
X152375034Y-128345852D01*
X152375033Y-128345852D01*
X152309181Y-128345507D01*
X152224221Y-128345062D01*
X152216841Y-128346834D01*
X152216839Y-128346834D01*
X152077563Y-128380271D01*
X152077560Y-128380272D01*
X152070184Y-128382043D01*
X151929414Y-128454700D01*
X151810039Y-128558838D01*
X151805672Y-128565051D01*
X151805667Y-128565057D01*
X151804336Y-128566951D01*
X151803013Y-128568005D01*
X151800589Y-128570697D01*
X151800140Y-128570293D01*
X151748802Y-128611183D01*
X151701250Y-128620500D01*
X150205500Y-128620500D01*
X150137379Y-128600498D01*
X150090886Y-128546842D01*
X150079500Y-128494500D01*
X150079500Y-118580714D01*
X150099502Y-118512593D01*
X150153158Y-118466100D01*
X150207479Y-118454730D01*
X150261318Y-118455576D01*
X150261321Y-118455576D01*
X150268916Y-118455695D01*
X150423332Y-118420329D01*
X150493742Y-118384917D01*
X150558072Y-118352563D01*
X150558075Y-118352561D01*
X150564855Y-118349151D01*
X150570626Y-118344222D01*
X150570629Y-118344220D01*
X150679536Y-118251204D01*
X150679536Y-118251203D01*
X150685314Y-118246269D01*
X150777755Y-118117624D01*
X150783905Y-118102326D01*
X150827869Y-118046581D01*
X150837187Y-118040603D01*
X150841812Y-118038446D01*
X150846316Y-118035293D01*
X150846320Y-118035290D01*
X150992029Y-117933263D01*
X150992032Y-117933261D01*
X150996540Y-117930104D01*
X151130104Y-117796540D01*
X151238446Y-117641812D01*
X151240769Y-117636830D01*
X151240772Y-117636825D01*
X151315951Y-117475603D01*
X151315952Y-117475601D01*
X151318274Y-117470621D01*
X151367162Y-117288169D01*
X151377038Y-117175277D01*
X151377961Y-117169158D01*
X151379018Y-117166149D01*
X151379500Y-117160584D01*
X151379500Y-117152644D01*
X151379979Y-117141665D01*
X151382491Y-117112947D01*
X151382680Y-117111408D01*
X151382680Y-117110789D01*
X151382875Y-117108560D01*
X151384231Y-117099999D01*
X151381051Y-117079921D01*
X151379500Y-117060211D01*
X151379500Y-115639789D01*
X151381051Y-115620078D01*
X151382680Y-115609793D01*
X151384231Y-115600001D01*
X151382875Y-115591440D01*
X151382680Y-115589211D01*
X151382680Y-115588593D01*
X151382491Y-115587055D01*
X151380324Y-115562275D01*
X151367162Y-115411831D01*
X151318274Y-115229379D01*
X151309334Y-115210207D01*
X151240772Y-115063175D01*
X151240769Y-115063170D01*
X151238446Y-115058188D01*
X151130104Y-114903460D01*
X150996540Y-114769896D01*
X150992032Y-114766739D01*
X150992029Y-114766737D01*
X150867650Y-114679646D01*
X150841812Y-114661554D01*
X150836830Y-114659231D01*
X150836825Y-114659228D01*
X150675603Y-114584049D01*
X150675601Y-114584048D01*
X150670621Y-114581726D01*
X150665313Y-114580304D01*
X150665311Y-114580303D01*
X150609069Y-114565233D01*
X150488169Y-114532838D01*
X150375277Y-114522962D01*
X150369158Y-114522039D01*
X150366149Y-114520982D01*
X150360584Y-114520500D01*
X150352644Y-114520500D01*
X150341665Y-114520021D01*
X150327625Y-114518793D01*
X150312941Y-114517508D01*
X150311408Y-114517320D01*
X150310789Y-114517320D01*
X150308560Y-114517125D01*
X150299999Y-114515769D01*
X150280755Y-114518817D01*
X150279922Y-114518949D01*
X150260211Y-114520500D01*
X142039789Y-114520500D01*
X142020078Y-114518949D01*
X142009795Y-114517320D01*
X142009794Y-114517320D01*
X142000001Y-114515769D01*
X141990206Y-114517321D01*
X141980290Y-114517321D01*
X141980290Y-114516947D01*
X141965345Y-114517468D01*
X141833779Y-114505957D01*
X141812150Y-114502144D01*
X141661617Y-114461809D01*
X141640978Y-114454297D01*
X141499738Y-114388435D01*
X141480718Y-114377453D01*
X141353065Y-114288070D01*
X141336240Y-114273952D01*
X141226048Y-114163760D01*
X141211930Y-114146935D01*
X141122547Y-114019282D01*
X141111565Y-114000262D01*
X141045703Y-113859022D01*
X141038191Y-113838383D01*
X140997856Y-113687850D01*
X140994043Y-113666221D01*
X140982532Y-113534655D01*
X140983053Y-113519710D01*
X140982679Y-113519710D01*
X140982679Y-113509794D01*
X140984231Y-113499999D01*
X140981051Y-113479921D01*
X140979500Y-113460211D01*
X140979500Y-112973965D01*
X140999502Y-112905844D01*
X141053158Y-112859351D01*
X141123432Y-112849247D01*
X141165618Y-112863232D01*
X141257293Y-112913008D01*
X141410522Y-112953207D01*
X141494477Y-112954526D01*
X141561319Y-112955576D01*
X141561322Y-112955576D01*
X141568916Y-112955695D01*
X141723332Y-112920329D01*
X141793742Y-112884917D01*
X141858072Y-112852563D01*
X141858075Y-112852561D01*
X141864855Y-112849151D01*
X141870626Y-112844222D01*
X141870629Y-112844220D01*
X141979536Y-112751204D01*
X141979536Y-112751203D01*
X141985314Y-112746269D01*
X142077755Y-112617624D01*
X142136842Y-112470641D01*
X142159162Y-112313807D01*
X142159307Y-112300000D01*
X142145881Y-112189053D01*
X142157554Y-112119024D01*
X142205235Y-112066422D01*
X142273787Y-112047949D01*
X142341443Y-112069469D01*
X142355767Y-112080723D01*
X142397860Y-112119024D01*
X142418076Y-112137419D01*
X142557293Y-112213008D01*
X142710522Y-112253207D01*
X142794477Y-112254526D01*
X142861319Y-112255576D01*
X142861322Y-112255576D01*
X142868916Y-112255695D01*
X143023332Y-112220329D01*
X143115122Y-112174164D01*
X143158072Y-112152563D01*
X143158075Y-112152561D01*
X143164855Y-112149151D01*
X143170626Y-112144222D01*
X143170629Y-112144220D01*
X143279536Y-112051204D01*
X143279536Y-112051203D01*
X143285314Y-112046269D01*
X143377755Y-111917624D01*
X143436842Y-111770641D01*
X143455173Y-111641837D01*
X143458581Y-111617891D01*
X143458581Y-111617888D01*
X143459162Y-111613807D01*
X143459307Y-111600000D01*
X143458079Y-111589848D01*
X143453447Y-111551571D01*
X143440276Y-111442733D01*
X143414386Y-111374218D01*
X143409018Y-111303425D01*
X143442775Y-111240967D01*
X143504941Y-111206675D01*
X143575778Y-111211437D01*
X143605255Y-111229330D01*
X143606266Y-111227907D01*
X143612460Y-111232308D01*
X143618076Y-111237419D01*
X143757293Y-111313008D01*
X143910522Y-111353207D01*
X143994477Y-111354526D01*
X144061319Y-111355576D01*
X144061322Y-111355576D01*
X144068916Y-111355695D01*
X144223332Y-111320329D01*
X144325348Y-111269021D01*
X144358072Y-111252563D01*
X144358075Y-111252561D01*
X144364855Y-111249151D01*
X144370626Y-111244222D01*
X144370629Y-111244220D01*
X144479536Y-111151204D01*
X144479536Y-111151203D01*
X144485314Y-111146269D01*
X144577755Y-111017624D01*
X144636842Y-110870641D01*
X144656015Y-110735919D01*
X144658581Y-110717891D01*
X144658581Y-110717888D01*
X144659162Y-110713807D01*
X144659307Y-110700000D01*
X144640276Y-110542733D01*
X144584280Y-110394546D01*
X144561376Y-110361220D01*
X144498855Y-110270251D01*
X144498854Y-110270249D01*
X144494553Y-110263992D01*
X144376275Y-110158611D01*
X144347870Y-110143571D01*
X144242988Y-110088039D01*
X144242989Y-110088039D01*
X144236274Y-110084484D01*
X144228911Y-110082635D01*
X144228902Y-110082631D01*
X144221854Y-110080861D01*
X144160659Y-110044866D01*
X144149338Y-110030929D01*
X144133263Y-110007971D01*
X144133261Y-110007968D01*
X144130104Y-110003460D01*
X143996540Y-109869896D01*
X143992032Y-109866739D01*
X143992029Y-109866737D01*
X143867034Y-109779215D01*
X143841812Y-109761554D01*
X143836830Y-109759231D01*
X143836825Y-109759228D01*
X143675603Y-109684049D01*
X143675601Y-109684048D01*
X143670621Y-109681726D01*
X143665313Y-109680304D01*
X143665311Y-109680303D01*
X143586277Y-109659126D01*
X143488169Y-109632838D01*
X143375277Y-109622962D01*
X143369158Y-109622039D01*
X143366149Y-109620982D01*
X143360584Y-109620500D01*
X143352644Y-109620500D01*
X143341665Y-109620021D01*
X143327625Y-109618793D01*
X143312941Y-109617508D01*
X143311408Y-109617320D01*
X143310789Y-109617320D01*
X143308560Y-109617125D01*
X143299999Y-109615769D01*
X143279922Y-109618949D01*
X143260211Y-109620500D01*
X130100587Y-109620500D01*
X130032466Y-109600498D01*
X129985973Y-109546842D01*
X129975066Y-109505482D01*
X129968503Y-109430470D01*
X129968024Y-109424991D01*
X129922555Y-109255300D01*
X129916821Y-109243003D01*
X129850637Y-109101069D01*
X129850634Y-109101064D01*
X129848311Y-109096082D01*
X129761529Y-108972145D01*
X129750705Y-108956687D01*
X129750703Y-108956685D01*
X129747546Y-108952176D01*
X129623323Y-108827953D01*
X129614819Y-108821998D01*
X129537798Y-108768067D01*
X129479417Y-108727188D01*
X129474435Y-108724865D01*
X129474430Y-108724862D01*
X129325181Y-108655267D01*
X129325180Y-108655267D01*
X129320199Y-108652944D01*
X129314891Y-108651522D01*
X129314889Y-108651521D01*
X129228753Y-108628441D01*
X129150508Y-108607475D01*
X129053042Y-108598948D01*
X129045385Y-108597793D01*
X129041648Y-108596481D01*
X129036083Y-108595999D01*
X129024836Y-108595999D01*
X129013853Y-108595519D01*
X128992516Y-108593652D01*
X128985735Y-108592820D01*
X128985295Y-108592820D01*
X128975499Y-108591268D01*
X128965706Y-108592819D01*
X128965705Y-108592819D01*
X128955422Y-108594448D01*
X128935711Y-108595999D01*
X123066227Y-108595999D01*
X122998106Y-108575997D01*
X122982410Y-108564077D01*
X122981951Y-108563668D01*
X122976275Y-108558611D01*
X122969559Y-108555055D01*
X122969556Y-108555053D01*
X122849249Y-108491354D01*
X122798406Y-108441801D01*
X122782424Y-108372627D01*
X122806378Y-108305793D01*
X122862662Y-108262520D01*
X122908208Y-108254000D01*
X151280214Y-108254000D01*
X151348335Y-108274002D01*
X151394828Y-108327658D01*
X151404932Y-108397932D01*
X151375438Y-108462512D01*
X151328432Y-108496409D01*
X151220437Y-108541142D01*
X151150967Y-108594448D01*
X151112478Y-108623982D01*
X151096354Y-108636354D01*
X151001142Y-108760437D01*
X150941289Y-108904935D01*
X150920874Y-109060000D01*
X150921952Y-109068188D01*
X150921952Y-109068189D01*
X150932019Y-109144656D01*
X150921080Y-109214805D01*
X150873952Y-109267903D01*
X150805598Y-109287093D01*
X150737720Y-109266282D01*
X150704567Y-109234338D01*
X150602593Y-109091574D01*
X150326966Y-108705697D01*
X150318609Y-108692294D01*
X150308556Y-108673663D01*
X150303610Y-108664496D01*
X150289574Y-108651521D01*
X150264606Y-108628441D01*
X150261021Y-108624992D01*
X150230834Y-108594792D01*
X150230830Y-108594789D01*
X150223470Y-108587426D01*
X150216585Y-108584051D01*
X150210957Y-108578849D01*
X150162355Y-108557362D01*
X150157921Y-108555297D01*
X150110174Y-108531893D01*
X150102568Y-108530930D01*
X150095557Y-108527831D01*
X150050519Y-108523930D01*
X150042643Y-108523248D01*
X150037695Y-108522721D01*
X150033904Y-108522241D01*
X149984998Y-108516052D01*
X149977492Y-108517605D01*
X149969853Y-108516943D01*
X149959745Y-108519454D01*
X149959743Y-108519454D01*
X149918298Y-108529749D01*
X149913448Y-108530853D01*
X149861439Y-108541612D01*
X149854840Y-108545513D01*
X149847399Y-108547361D01*
X149828307Y-108559689D01*
X149802772Y-108576177D01*
X149798537Y-108578794D01*
X149761785Y-108600517D01*
X149761783Y-108600519D01*
X149752821Y-108605816D01*
X149747840Y-108611645D01*
X149741401Y-108615803D01*
X149734954Y-108623981D01*
X149734953Y-108623982D01*
X149708521Y-108657512D01*
X149705368Y-108661353D01*
X149670856Y-108701743D01*
X149668032Y-108708871D01*
X149663287Y-108714890D01*
X149659836Y-108724717D01*
X149645693Y-108764991D01*
X149643955Y-108769646D01*
X149624383Y-108819047D01*
X149624020Y-108826708D01*
X149621481Y-108833938D01*
X149621000Y-108839491D01*
X149621000Y-108887467D01*
X149620859Y-108893430D01*
X149618412Y-108945080D01*
X149620570Y-108952512D01*
X149621000Y-108959827D01*
X149621000Y-109683991D01*
X149600998Y-109752112D01*
X149547342Y-109798605D01*
X149477068Y-109808709D01*
X149412488Y-109779215D01*
X149401345Y-109768281D01*
X149389911Y-109755576D01*
X148652325Y-108936037D01*
X148464119Y-108726919D01*
X148464118Y-108726918D01*
X148460644Y-108723058D01*
X148442849Y-108708871D01*
X148395090Y-108670796D01*
X148395088Y-108670795D01*
X148386945Y-108664303D01*
X148268128Y-108621847D01*
X148257716Y-108621708D01*
X148257714Y-108621708D01*
X148205046Y-108621007D01*
X148141964Y-108620168D01*
X148022059Y-108659445D01*
X148013746Y-108665717D01*
X148013747Y-108665717D01*
X147929653Y-108729170D01*
X147929652Y-108729171D01*
X147921340Y-108735443D01*
X147915507Y-108744071D01*
X147858795Y-108827953D01*
X147850670Y-108839970D01*
X147847946Y-108850022D01*
X147847945Y-108850024D01*
X147824636Y-108936037D01*
X147817667Y-108961752D01*
X147825891Y-109087658D01*
X147874456Y-109204112D01*
X147877813Y-109208562D01*
X149421564Y-110923841D01*
X149452266Y-110987854D01*
X149443486Y-111058305D01*
X149423574Y-111090129D01*
X147900164Y-112867442D01*
X147891750Y-112877258D01*
X147842992Y-112957920D01*
X147840783Y-112968091D01*
X147840783Y-112968092D01*
X147839508Y-112973965D01*
X147816218Y-113081221D01*
X147817423Y-113091559D01*
X147817423Y-113091560D01*
X147828652Y-113187887D01*
X147830827Y-113206547D01*
X147837737Y-113221002D01*
X147880752Y-113310990D01*
X147880754Y-113310992D01*
X147885243Y-113320384D01*
X147973599Y-113410458D01*
X148086369Y-113467055D01*
X148211390Y-113484072D01*
X148221610Y-113482058D01*
X148221611Y-113482058D01*
X148324964Y-113461690D01*
X148335184Y-113459676D01*
X148390495Y-113427679D01*
X148437545Y-113400461D01*
X148437547Y-113400459D01*
X148444400Y-113396495D01*
X148448380Y-113392592D01*
X149399335Y-112283145D01*
X149458853Y-112244441D01*
X149529848Y-112244060D01*
X149589780Y-112282122D01*
X149619619Y-112346544D01*
X149621000Y-112365145D01*
X149621000Y-113060256D01*
X149619449Y-113079966D01*
X149616276Y-113100000D01*
X149617194Y-113105797D01*
X149633905Y-113296798D01*
X149661419Y-113399483D01*
X149679807Y-113468107D01*
X149685034Y-113487616D01*
X149687357Y-113492597D01*
X149687357Y-113492598D01*
X149766196Y-113661670D01*
X149766199Y-113661675D01*
X149768522Y-113666657D01*
X149783362Y-113687850D01*
X149874705Y-113818301D01*
X149881832Y-113828480D01*
X150021520Y-113968168D01*
X150183344Y-114081478D01*
X150188322Y-114083799D01*
X150188325Y-114083801D01*
X150343079Y-114155964D01*
X150362384Y-114164966D01*
X150367692Y-114166388D01*
X150367694Y-114166389D01*
X150547887Y-114214671D01*
X150547888Y-114214671D01*
X150553202Y-114216095D01*
X150750000Y-114233313D01*
X150946798Y-114216095D01*
X150952112Y-114214671D01*
X150952113Y-114214671D01*
X151132306Y-114166389D01*
X151132308Y-114166388D01*
X151137616Y-114164966D01*
X151176284Y-114146935D01*
X151311670Y-114083804D01*
X151311675Y-114083801D01*
X151316657Y-114081478D01*
X151435553Y-113998226D01*
X151473969Y-113971327D01*
X151473972Y-113971325D01*
X151478480Y-113968168D01*
X151618168Y-113828480D01*
X151625296Y-113818301D01*
X151716638Y-113687850D01*
X151731478Y-113666657D01*
X151733801Y-113661675D01*
X151733804Y-113661670D01*
X151812643Y-113492598D01*
X151812643Y-113492597D01*
X151814966Y-113487616D01*
X151820194Y-113468107D01*
X151838581Y-113399483D01*
X151866095Y-113296798D01*
X151882806Y-113105797D01*
X151883724Y-113100000D01*
X151864943Y-112981423D01*
X151810439Y-112874453D01*
X151725547Y-112789561D01*
X151618577Y-112735057D01*
X151608787Y-112733506D01*
X151608786Y-112733506D01*
X151509792Y-112717827D01*
X151500000Y-112716276D01*
X151490208Y-112717827D01*
X151391214Y-112733506D01*
X151391213Y-112733506D01*
X151381423Y-112735057D01*
X151274453Y-112789561D01*
X151189561Y-112874453D01*
X151135057Y-112981423D01*
X151116276Y-113100000D01*
X151117827Y-113109793D01*
X151117827Y-113113053D01*
X151116545Y-113130984D01*
X151108550Y-113186591D01*
X151098446Y-113221002D01*
X151069631Y-113284099D01*
X151050242Y-113314269D01*
X151004815Y-113366694D01*
X150977713Y-113390177D01*
X150919358Y-113427679D01*
X150886737Y-113442577D01*
X150820181Y-113462120D01*
X150784682Y-113467224D01*
X150715318Y-113467224D01*
X150679819Y-113462120D01*
X150613263Y-113442577D01*
X150580642Y-113427679D01*
X150522287Y-113390177D01*
X150495185Y-113366694D01*
X150449758Y-113314269D01*
X150430369Y-113284099D01*
X150401554Y-113221002D01*
X150391450Y-113186591D01*
X150383455Y-113130984D01*
X150382173Y-113113053D01*
X150382173Y-113109793D01*
X150383724Y-113100000D01*
X150380551Y-113079966D01*
X150379000Y-113060256D01*
X150379000Y-111505000D01*
X150399002Y-111436879D01*
X150452658Y-111390386D01*
X150505000Y-111379000D01*
X151240119Y-111379000D01*
X151308240Y-111399002D01*
X151342648Y-111431763D01*
X152696973Y-113327818D01*
X152709897Y-113345912D01*
X152776530Y-113412573D01*
X152889826Y-113468107D01*
X152943402Y-113474887D01*
X153004670Y-113482640D01*
X153004673Y-113482640D01*
X153015002Y-113483947D01*
X153025197Y-113481838D01*
X153025199Y-113481838D01*
X153128368Y-113460497D01*
X153128371Y-113460496D01*
X153138561Y-113458388D01*
X153247179Y-113394184D01*
X153270670Y-113366692D01*
X153288425Y-113345912D01*
X153329144Y-113298256D01*
X153375617Y-113180953D01*
X153381588Y-113054920D01*
X153358087Y-112973965D01*
X153348621Y-112941359D01*
X153348620Y-112941358D01*
X153346411Y-112933747D01*
X153343575Y-112928949D01*
X152573962Y-111851491D01*
X151815628Y-110789823D01*
X151812306Y-110784935D01*
X151789845Y-110750149D01*
X151784197Y-110741401D01*
X151778172Y-110736651D01*
X151773630Y-110731026D01*
X151754422Y-110704134D01*
X151093015Y-109778165D01*
X151069697Y-109711107D01*
X151086335Y-109642087D01*
X151137646Y-109593020D01*
X151207340Y-109579482D01*
X151243763Y-109588520D01*
X151364935Y-109638711D01*
X151520000Y-109659126D01*
X151675065Y-109638711D01*
X151819563Y-109578858D01*
X151943646Y-109483646D01*
X152038858Y-109359563D01*
X152098711Y-109215065D01*
X152119126Y-109060000D01*
X152098711Y-108904935D01*
X152038858Y-108760437D01*
X151943646Y-108636354D01*
X151927523Y-108623982D01*
X151889033Y-108594448D01*
X151819563Y-108541142D01*
X151711568Y-108496409D01*
X151656287Y-108451861D01*
X151633866Y-108384497D01*
X151651424Y-108315706D01*
X151703386Y-108267328D01*
X151759786Y-108254000D01*
X153620000Y-108254000D01*
X153688121Y-108274002D01*
X153734614Y-108327658D01*
X153746000Y-108380000D01*
X153746000Y-131962575D01*
X153743579Y-131987153D01*
X153741024Y-132000000D01*
X153746000Y-132025017D01*
X153753919Y-132064831D01*
X153760737Y-132099106D01*
X153767629Y-132109421D01*
X153767630Y-132109423D01*
X153809983Y-132172808D01*
X153816876Y-132183124D01*
X153827192Y-132190017D01*
X153856960Y-132209907D01*
X153900894Y-132239263D01*
X153913064Y-132241684D01*
X153913065Y-132241684D01*
X153913272Y-132241725D01*
X154000000Y-132258976D01*
X154012847Y-132256421D01*
X154037425Y-132254000D01*
X159620000Y-132254000D01*
X159688121Y-132274002D01*
X159734614Y-132327658D01*
X159746000Y-132380000D01*
X159746000Y-142620000D01*
X159725998Y-142688121D01*
X159672342Y-142734614D01*
X159620000Y-142746000D01*
X159376000Y-142746000D01*
X159307879Y-142725998D01*
X159261386Y-142672342D01*
X159250000Y-142620000D01*
X159250000Y-138250000D01*
X133250000Y-138250000D01*
X133250000Y-142620000D01*
X133229998Y-142688121D01*
X133176342Y-142734614D01*
X133124000Y-142746000D01*
X118380000Y-142746000D01*
X118311879Y-142725998D01*
X118265386Y-142672342D01*
X118254000Y-142620000D01*
X118254000Y-141867770D01*
X118274002Y-141799649D01*
X118327658Y-141753156D01*
X118397932Y-141743052D01*
X118459292Y-141769847D01*
X118468732Y-141777491D01*
X118632259Y-141886756D01*
X118642371Y-141892247D01*
X118823081Y-141969885D01*
X118834014Y-141973437D01*
X119025844Y-142016845D01*
X119037253Y-142018347D01*
X119233783Y-142026068D01*
X119245265Y-142025466D01*
X119439905Y-141997245D01*
X119451101Y-141994557D01*
X119637343Y-141931336D01*
X119647840Y-141926662D01*
X119766401Y-141860266D01*
X119776264Y-141850189D01*
X119775929Y-141849319D01*
X127225041Y-141849319D01*
X127234923Y-141861809D01*
X127272259Y-141886756D01*
X127282371Y-141892247D01*
X127463081Y-141969885D01*
X127474014Y-141973437D01*
X127665844Y-142016845D01*
X127677253Y-142018347D01*
X127873783Y-142026068D01*
X127885265Y-142025466D01*
X128079905Y-141997245D01*
X128091101Y-141994557D01*
X128277343Y-141931336D01*
X128287840Y-141926662D01*
X128406401Y-141860266D01*
X128416264Y-141850189D01*
X128413309Y-141842519D01*
X127832812Y-141262022D01*
X127818868Y-141254408D01*
X127817035Y-141254539D01*
X127810420Y-141258790D01*
X127231237Y-141837973D01*
X127225041Y-141849319D01*
X119775929Y-141849319D01*
X119773309Y-141842519D01*
X118909885Y-140979095D01*
X118875859Y-140916783D01*
X118877694Y-140891132D01*
X119544408Y-140891132D01*
X119544539Y-140892965D01*
X119548790Y-140899580D01*
X120128603Y-141479393D01*
X120140983Y-141486153D01*
X120147563Y-141481227D01*
X120216662Y-141357840D01*
X120221336Y-141347343D01*
X120284557Y-141161101D01*
X120287245Y-141149905D01*
X120315762Y-140953224D01*
X120316392Y-140945843D01*
X120317757Y-140893704D01*
X120317514Y-140886305D01*
X120315647Y-140865980D01*
X126682914Y-140865980D01*
X126695777Y-141062233D01*
X126697577Y-141073601D01*
X126745991Y-141264228D01*
X126749829Y-141275066D01*
X126832173Y-141453685D01*
X126837922Y-141463642D01*
X126847850Y-141477690D01*
X126858439Y-141486078D01*
X126871740Y-141479050D01*
X127447978Y-140902812D01*
X127454356Y-140891132D01*
X128184408Y-140891132D01*
X128184539Y-140892965D01*
X128188790Y-140899580D01*
X128768603Y-141479393D01*
X128780983Y-141486153D01*
X128787563Y-141481227D01*
X128856662Y-141357840D01*
X128861336Y-141347343D01*
X128924557Y-141161101D01*
X128927245Y-141149905D01*
X128955762Y-140953224D01*
X128956392Y-140945843D01*
X128957757Y-140893704D01*
X128957514Y-140886305D01*
X128939330Y-140688397D01*
X128937233Y-140677083D01*
X128883846Y-140487789D01*
X128879724Y-140477050D01*
X128792736Y-140300656D01*
X128791577Y-140298765D01*
X128782732Y-140292126D01*
X128770312Y-140298898D01*
X128192022Y-140877188D01*
X128184408Y-140891132D01*
X127454356Y-140891132D01*
X127455592Y-140888868D01*
X127455461Y-140887035D01*
X127451210Y-140880420D01*
X126870031Y-140299241D01*
X126857651Y-140292481D01*
X126851685Y-140296947D01*
X126771452Y-140449445D01*
X126767047Y-140460079D01*
X126708724Y-140647910D01*
X126706332Y-140659164D01*
X126683215Y-140854479D01*
X126682914Y-140865980D01*
X120315647Y-140865980D01*
X120299330Y-140688397D01*
X120297233Y-140677083D01*
X120243846Y-140487789D01*
X120239724Y-140477050D01*
X120152736Y-140300656D01*
X120151577Y-140298765D01*
X120142732Y-140292126D01*
X120130312Y-140298898D01*
X119552022Y-140877188D01*
X119544408Y-140891132D01*
X118877694Y-140891132D01*
X118880924Y-140845968D01*
X118909885Y-140800905D01*
X119768407Y-139942383D01*
X119774931Y-139930436D01*
X127224547Y-139930436D01*
X127228033Y-139938823D01*
X127807188Y-140517978D01*
X127821132Y-140525592D01*
X127822965Y-140525461D01*
X127829580Y-140521210D01*
X128408407Y-139942383D01*
X128415167Y-139930003D01*
X128409137Y-139921948D01*
X128341459Y-139879246D01*
X128331211Y-139874025D01*
X128148531Y-139801143D01*
X128137504Y-139797876D01*
X127944605Y-139759506D01*
X127933159Y-139758303D01*
X127736507Y-139755730D01*
X127725027Y-139756633D01*
X127531199Y-139789938D01*
X127520079Y-139792918D01*
X127335557Y-139860992D01*
X127325179Y-139865942D01*
X127234146Y-139920101D01*
X127224547Y-139930436D01*
X119774931Y-139930436D01*
X119775167Y-139930003D01*
X119769137Y-139921948D01*
X119701459Y-139879246D01*
X119691211Y-139874025D01*
X119508531Y-139801143D01*
X119497504Y-139797876D01*
X119304605Y-139759506D01*
X119293159Y-139758303D01*
X119096507Y-139755730D01*
X119085027Y-139756633D01*
X118891199Y-139789938D01*
X118880079Y-139792918D01*
X118695557Y-139860992D01*
X118685179Y-139865942D01*
X118516154Y-139966501D01*
X118506836Y-139973271D01*
X118463078Y-140011646D01*
X118398674Y-140041524D01*
X118328341Y-140031838D01*
X118274410Y-139985666D01*
X118254000Y-139916915D01*
X118254000Y-137849386D01*
X118274002Y-137781265D01*
X118327658Y-137734772D01*
X118397932Y-137724668D01*
X118452270Y-137746173D01*
X118544083Y-137810461D01*
X118553584Y-137815947D01*
X118743113Y-137904326D01*
X118753405Y-137908072D01*
X118955401Y-137962196D01*
X118966196Y-137964099D01*
X119174525Y-137982326D01*
X119185475Y-137982326D01*
X119393804Y-137964099D01*
X119404599Y-137962196D01*
X119606595Y-137908072D01*
X119616887Y-137904326D01*
X119806416Y-137815947D01*
X119815912Y-137810464D01*
X119857148Y-137781590D01*
X119865523Y-137771113D01*
X119865023Y-137770161D01*
X127134393Y-137770161D01*
X127143687Y-137782175D01*
X127184088Y-137810464D01*
X127193584Y-137815947D01*
X127383113Y-137904326D01*
X127393405Y-137908072D01*
X127595401Y-137962196D01*
X127606196Y-137964099D01*
X127814525Y-137982326D01*
X127825475Y-137982326D01*
X128033804Y-137964099D01*
X128044599Y-137962196D01*
X128246595Y-137908072D01*
X128256887Y-137904326D01*
X128446416Y-137815947D01*
X128455912Y-137810464D01*
X128497148Y-137781590D01*
X128505523Y-137771112D01*
X128498457Y-137757668D01*
X127832811Y-137092021D01*
X127818868Y-137084408D01*
X127817034Y-137084539D01*
X127810420Y-137088790D01*
X127140820Y-137758391D01*
X127134393Y-137770161D01*
X119865023Y-137770161D01*
X119858455Y-137757667D01*
X118909884Y-136809095D01*
X118875859Y-136746783D01*
X118877694Y-136721132D01*
X119544408Y-136721132D01*
X119544539Y-136722966D01*
X119548790Y-136729580D01*
X120218391Y-137399180D01*
X120230161Y-137405607D01*
X120242176Y-137396311D01*
X120270466Y-137355907D01*
X120275946Y-137346417D01*
X120364326Y-137156887D01*
X120368072Y-137146595D01*
X120422196Y-136944599D01*
X120424099Y-136933804D01*
X120442326Y-136725475D01*
X126557674Y-136725475D01*
X126575901Y-136933804D01*
X126577804Y-136944599D01*
X126631928Y-137146595D01*
X126635674Y-137156887D01*
X126724054Y-137346417D01*
X126729534Y-137355907D01*
X126758411Y-137397149D01*
X126768887Y-137405523D01*
X126782334Y-137398455D01*
X127447979Y-136732811D01*
X127454356Y-136721132D01*
X128184408Y-136721132D01*
X128184539Y-136722966D01*
X128188790Y-136729580D01*
X128858391Y-137399180D01*
X128870161Y-137405607D01*
X128882176Y-137396311D01*
X128910466Y-137355907D01*
X128915946Y-137346417D01*
X129004326Y-137156887D01*
X129008072Y-137146595D01*
X129014460Y-137122756D01*
X133895500Y-137122756D01*
X133902202Y-137184448D01*
X133952929Y-137319764D01*
X133958309Y-137326943D01*
X133958311Y-137326946D01*
X134017264Y-137405607D01*
X134039596Y-137435404D01*
X134046776Y-137440785D01*
X134148054Y-137516689D01*
X134148057Y-137516691D01*
X134155236Y-137522071D01*
X134238196Y-137553171D01*
X134283157Y-137570026D01*
X134283159Y-137570026D01*
X134290552Y-137572798D01*
X134298402Y-137573651D01*
X134298403Y-137573651D01*
X134299149Y-137573732D01*
X134352244Y-137579500D01*
X135647756Y-137579500D01*
X135700851Y-137573732D01*
X135701597Y-137573651D01*
X135701598Y-137573651D01*
X135709448Y-137572798D01*
X135716841Y-137570026D01*
X135716843Y-137570026D01*
X135761804Y-137553171D01*
X135844764Y-137522071D01*
X135851943Y-137516691D01*
X135851946Y-137516689D01*
X135953224Y-137440785D01*
X135960404Y-137435404D01*
X135982736Y-137405607D01*
X136041689Y-137326946D01*
X136041691Y-137326943D01*
X136047071Y-137319764D01*
X136097798Y-137184448D01*
X136104500Y-137122756D01*
X136104500Y-136527659D01*
X136395500Y-136527659D01*
X136410493Y-136684806D01*
X136412183Y-136690566D01*
X136412183Y-136690567D01*
X136418007Y-136710420D01*
X136469823Y-136887042D01*
X136472573Y-136892381D01*
X136551960Y-137046520D01*
X136566324Y-137074410D01*
X136577620Y-137088790D01*
X136692808Y-137235432D01*
X136692812Y-137235436D01*
X136696514Y-137240149D01*
X136701044Y-137244080D01*
X136701045Y-137244081D01*
X136851165Y-137374350D01*
X136851170Y-137374354D01*
X136855696Y-137378281D01*
X137038126Y-137483819D01*
X137237222Y-137552957D01*
X137243155Y-137553817D01*
X137243158Y-137553818D01*
X137439860Y-137582338D01*
X137439863Y-137582338D01*
X137445800Y-137583199D01*
X137656333Y-137573455D01*
X137662157Y-137572051D01*
X137662160Y-137572051D01*
X137855393Y-137525482D01*
X137855395Y-137525481D01*
X137861226Y-137524076D01*
X137866684Y-137521594D01*
X137866688Y-137521593D01*
X138044414Y-137440785D01*
X138053084Y-137436843D01*
X138224986Y-137314904D01*
X138370728Y-137162660D01*
X138427710Y-137074410D01*
X138481800Y-136990640D01*
X138481801Y-136990637D01*
X138485052Y-136985603D01*
X138563834Y-136790122D01*
X138604229Y-136583271D01*
X138604500Y-136577730D01*
X138604500Y-136527659D01*
X138895500Y-136527659D01*
X138910493Y-136684806D01*
X138912183Y-136690566D01*
X138912183Y-136690567D01*
X138918007Y-136710420D01*
X138969823Y-136887042D01*
X138972573Y-136892381D01*
X139051960Y-137046520D01*
X139066324Y-137074410D01*
X139077620Y-137088790D01*
X139192808Y-137235432D01*
X139192812Y-137235436D01*
X139196514Y-137240149D01*
X139201044Y-137244080D01*
X139201045Y-137244081D01*
X139351165Y-137374350D01*
X139351170Y-137374354D01*
X139355696Y-137378281D01*
X139538126Y-137483819D01*
X139737222Y-137552957D01*
X139743155Y-137553817D01*
X139743158Y-137553818D01*
X139939860Y-137582338D01*
X139939863Y-137582338D01*
X139945800Y-137583199D01*
X140156333Y-137573455D01*
X140162157Y-137572051D01*
X140162160Y-137572051D01*
X140355393Y-137525482D01*
X140355395Y-137525481D01*
X140361226Y-137524076D01*
X140366684Y-137521594D01*
X140366688Y-137521593D01*
X140544414Y-137440785D01*
X140553084Y-137436843D01*
X140724986Y-137314904D01*
X140870728Y-137162660D01*
X140927710Y-137074410D01*
X140981800Y-136990640D01*
X140981801Y-136990637D01*
X140985052Y-136985603D01*
X141063834Y-136790122D01*
X141104229Y-136583271D01*
X141104500Y-136577730D01*
X141104500Y-136527659D01*
X141395500Y-136527659D01*
X141410493Y-136684806D01*
X141412183Y-136690566D01*
X141412183Y-136690567D01*
X141418007Y-136710420D01*
X141469823Y-136887042D01*
X141472573Y-136892381D01*
X141551960Y-137046520D01*
X141566324Y-137074410D01*
X141577620Y-137088790D01*
X141692808Y-137235432D01*
X141692812Y-137235436D01*
X141696514Y-137240149D01*
X141701044Y-137244080D01*
X141701045Y-137244081D01*
X141851165Y-137374350D01*
X141851170Y-137374354D01*
X141855696Y-137378281D01*
X142038126Y-137483819D01*
X142237222Y-137552957D01*
X142243155Y-137553817D01*
X142243158Y-137553818D01*
X142439860Y-137582338D01*
X142439863Y-137582338D01*
X142445800Y-137583199D01*
X142656333Y-137573455D01*
X142662157Y-137572051D01*
X142662160Y-137572051D01*
X142855393Y-137525482D01*
X142855395Y-137525481D01*
X142861226Y-137524076D01*
X142866684Y-137521594D01*
X142866688Y-137521593D01*
X143044414Y-137440785D01*
X143053084Y-137436843D01*
X143224986Y-137314904D01*
X143370728Y-137162660D01*
X143427710Y-137074410D01*
X143481800Y-136990640D01*
X143481801Y-136990637D01*
X143485052Y-136985603D01*
X143563834Y-136790122D01*
X143604229Y-136583271D01*
X143604500Y-136577730D01*
X143604500Y-136527659D01*
X143895500Y-136527659D01*
X143910493Y-136684806D01*
X143912183Y-136690566D01*
X143912183Y-136690567D01*
X143918007Y-136710420D01*
X143969823Y-136887042D01*
X143972573Y-136892381D01*
X144051960Y-137046520D01*
X144066324Y-137074410D01*
X144077620Y-137088790D01*
X144192808Y-137235432D01*
X144192812Y-137235436D01*
X144196514Y-137240149D01*
X144201044Y-137244080D01*
X144201045Y-137244081D01*
X144351165Y-137374350D01*
X144351170Y-137374354D01*
X144355696Y-137378281D01*
X144538126Y-137483819D01*
X144737222Y-137552957D01*
X144743155Y-137553817D01*
X144743158Y-137553818D01*
X144939860Y-137582338D01*
X144939863Y-137582338D01*
X144945800Y-137583199D01*
X145156333Y-137573455D01*
X145162157Y-137572051D01*
X145162160Y-137572051D01*
X145355393Y-137525482D01*
X145355395Y-137525481D01*
X145361226Y-137524076D01*
X145366684Y-137521594D01*
X145366688Y-137521593D01*
X145544414Y-137440785D01*
X145553084Y-137436843D01*
X145724986Y-137314904D01*
X145870728Y-137162660D01*
X145896920Y-137122095D01*
X148642001Y-137122095D01*
X148642338Y-137128614D01*
X148652257Y-137224206D01*
X148655149Y-137237600D01*
X148706588Y-137391784D01*
X148712761Y-137404962D01*
X148798063Y-137542807D01*
X148807099Y-137554208D01*
X148921829Y-137668739D01*
X148933240Y-137677751D01*
X149071243Y-137762816D01*
X149084424Y-137768963D01*
X149238710Y-137820138D01*
X149252086Y-137823005D01*
X149346438Y-137832672D01*
X149352854Y-137833000D01*
X149727885Y-137833000D01*
X149743124Y-137828525D01*
X149744329Y-137827135D01*
X149746000Y-137819452D01*
X149746000Y-137814884D01*
X150254000Y-137814884D01*
X150258475Y-137830123D01*
X150259865Y-137831328D01*
X150267548Y-137832999D01*
X150647095Y-137832999D01*
X150653614Y-137832662D01*
X150749206Y-137822743D01*
X150762600Y-137819851D01*
X150916784Y-137768412D01*
X150929962Y-137762239D01*
X151067807Y-137676937D01*
X151079208Y-137667901D01*
X151193739Y-137553171D01*
X151202751Y-137541760D01*
X151287816Y-137403757D01*
X151293963Y-137390576D01*
X151345138Y-137236290D01*
X151348005Y-137222914D01*
X151354869Y-137155919D01*
X151381710Y-137090192D01*
X151439824Y-137049410D01*
X151510762Y-137046520D01*
X151572001Y-137082442D01*
X151579299Y-137090928D01*
X151696514Y-137240149D01*
X151701044Y-137244080D01*
X151701045Y-137244081D01*
X151851165Y-137374350D01*
X151851170Y-137374354D01*
X151855696Y-137378281D01*
X152038126Y-137483819D01*
X152237222Y-137552957D01*
X152243155Y-137553817D01*
X152243158Y-137553818D01*
X152439860Y-137582338D01*
X152439863Y-137582338D01*
X152445800Y-137583199D01*
X152656333Y-137573455D01*
X152662157Y-137572051D01*
X152662160Y-137572051D01*
X152855393Y-137525482D01*
X152855395Y-137525481D01*
X152861226Y-137524076D01*
X152866684Y-137521594D01*
X152866688Y-137521593D01*
X153044414Y-137440785D01*
X153053084Y-137436843D01*
X153224986Y-137314904D01*
X153370728Y-137162660D01*
X153427710Y-137074410D01*
X153481800Y-136990640D01*
X153481801Y-136990637D01*
X153485052Y-136985603D01*
X153563834Y-136790122D01*
X153604229Y-136583271D01*
X153604500Y-136577730D01*
X153604500Y-136527659D01*
X153895500Y-136527659D01*
X153910493Y-136684806D01*
X153912183Y-136690566D01*
X153912183Y-136690567D01*
X153918007Y-136710420D01*
X153969823Y-136887042D01*
X153972573Y-136892381D01*
X154051960Y-137046520D01*
X154066324Y-137074410D01*
X154077620Y-137088790D01*
X154192808Y-137235432D01*
X154192812Y-137235436D01*
X154196514Y-137240149D01*
X154201044Y-137244080D01*
X154201045Y-137244081D01*
X154351165Y-137374350D01*
X154351170Y-137374354D01*
X154355696Y-137378281D01*
X154538126Y-137483819D01*
X154737222Y-137552957D01*
X154743155Y-137553817D01*
X154743158Y-137553818D01*
X154939860Y-137582338D01*
X154939863Y-137582338D01*
X154945800Y-137583199D01*
X155156333Y-137573455D01*
X155162157Y-137572051D01*
X155162160Y-137572051D01*
X155355393Y-137525482D01*
X155355395Y-137525481D01*
X155361226Y-137524076D01*
X155366684Y-137521594D01*
X155366688Y-137521593D01*
X155544414Y-137440785D01*
X155553084Y-137436843D01*
X155724986Y-137314904D01*
X155870728Y-137162660D01*
X155927710Y-137074410D01*
X155981800Y-136990640D01*
X155981801Y-136990637D01*
X155985052Y-136985603D01*
X156063834Y-136790122D01*
X156104229Y-136583271D01*
X156104500Y-136577730D01*
X156104500Y-136527659D01*
X156395500Y-136527659D01*
X156410493Y-136684806D01*
X156412183Y-136690566D01*
X156412183Y-136690567D01*
X156418007Y-136710420D01*
X156469823Y-136887042D01*
X156472573Y-136892381D01*
X156551960Y-137046520D01*
X156566324Y-137074410D01*
X156577620Y-137088790D01*
X156692808Y-137235432D01*
X156692812Y-137235436D01*
X156696514Y-137240149D01*
X156701044Y-137244080D01*
X156701045Y-137244081D01*
X156851165Y-137374350D01*
X156851170Y-137374354D01*
X156855696Y-137378281D01*
X157038126Y-137483819D01*
X157237222Y-137552957D01*
X157243155Y-137553817D01*
X157243158Y-137553818D01*
X157439860Y-137582338D01*
X157439863Y-137582338D01*
X157445800Y-137583199D01*
X157656333Y-137573455D01*
X157662157Y-137572051D01*
X157662160Y-137572051D01*
X157855393Y-137525482D01*
X157855395Y-137525481D01*
X157861226Y-137524076D01*
X157866684Y-137521594D01*
X157866688Y-137521593D01*
X158044414Y-137440785D01*
X158053084Y-137436843D01*
X158224986Y-137314904D01*
X158370728Y-137162660D01*
X158427710Y-137074410D01*
X158481800Y-136990640D01*
X158481801Y-136990637D01*
X158485052Y-136985603D01*
X158563834Y-136790122D01*
X158604229Y-136583271D01*
X158604500Y-136577730D01*
X158604500Y-136272341D01*
X158589507Y-136115194D01*
X158530177Y-135912958D01*
X158479415Y-135814397D01*
X158436422Y-135730921D01*
X158436420Y-135730918D01*
X158433676Y-135725590D01*
X158364355Y-135637340D01*
X158307192Y-135564568D01*
X158307188Y-135564564D01*
X158303486Y-135559851D01*
X158271308Y-135531928D01*
X158148835Y-135425650D01*
X158148830Y-135425646D01*
X158144304Y-135421719D01*
X157961874Y-135316181D01*
X157762778Y-135247043D01*
X157756845Y-135246183D01*
X157756842Y-135246182D01*
X157560140Y-135217662D01*
X157560137Y-135217662D01*
X157554200Y-135216801D01*
X157343667Y-135226545D01*
X157337843Y-135227949D01*
X157337840Y-135227949D01*
X157144607Y-135274518D01*
X157144605Y-135274519D01*
X157138774Y-135275924D01*
X157133316Y-135278406D01*
X157133312Y-135278407D01*
X157054562Y-135314213D01*
X156946916Y-135363157D01*
X156883395Y-135408216D01*
X156787977Y-135475901D01*
X156775014Y-135485096D01*
X156699757Y-135563710D01*
X156641992Y-135624053D01*
X156629272Y-135637340D01*
X156626021Y-135642375D01*
X156568848Y-135730921D01*
X156514948Y-135814397D01*
X156436166Y-136009878D01*
X156395771Y-136216729D01*
X156395500Y-136222270D01*
X156395500Y-136527659D01*
X156104500Y-136527659D01*
X156104500Y-136272341D01*
X156089507Y-136115194D01*
X156030177Y-135912958D01*
X155979415Y-135814397D01*
X155936422Y-135730921D01*
X155936420Y-135730918D01*
X155933676Y-135725590D01*
X155864355Y-135637340D01*
X155807192Y-135564568D01*
X155807188Y-135564564D01*
X155803486Y-135559851D01*
X155771308Y-135531928D01*
X155648835Y-135425650D01*
X155648830Y-135425646D01*
X155644304Y-135421719D01*
X155461874Y-135316181D01*
X155262778Y-135247043D01*
X155256845Y-135246183D01*
X155256842Y-135246182D01*
X155060140Y-135217662D01*
X155060137Y-135217662D01*
X155054200Y-135216801D01*
X154843667Y-135226545D01*
X154837843Y-135227949D01*
X154837840Y-135227949D01*
X154644607Y-135274518D01*
X154644605Y-135274519D01*
X154638774Y-135275924D01*
X154633316Y-135278406D01*
X154633312Y-135278407D01*
X154554562Y-135314213D01*
X154446916Y-135363157D01*
X154383395Y-135408216D01*
X154287977Y-135475901D01*
X154275014Y-135485096D01*
X154199757Y-135563710D01*
X154141992Y-135624053D01*
X154129272Y-135637340D01*
X154126021Y-135642375D01*
X154068848Y-135730921D01*
X154014948Y-135814397D01*
X153936166Y-136009878D01*
X153895771Y-136216729D01*
X153895500Y-136222270D01*
X153895500Y-136527659D01*
X153604500Y-136527659D01*
X153604500Y-136272341D01*
X153589507Y-136115194D01*
X153530177Y-135912958D01*
X153479415Y-135814397D01*
X153436422Y-135730921D01*
X153436420Y-135730918D01*
X153433676Y-135725590D01*
X153364355Y-135637340D01*
X153307192Y-135564568D01*
X153307188Y-135564564D01*
X153303486Y-135559851D01*
X153271308Y-135531928D01*
X153148835Y-135425650D01*
X153148830Y-135425646D01*
X153144304Y-135421719D01*
X152961874Y-135316181D01*
X152762778Y-135247043D01*
X152756845Y-135246183D01*
X152756842Y-135246182D01*
X152560140Y-135217662D01*
X152560137Y-135217662D01*
X152554200Y-135216801D01*
X152343667Y-135226545D01*
X152337843Y-135227949D01*
X152337840Y-135227949D01*
X152144607Y-135274518D01*
X152144605Y-135274519D01*
X152138774Y-135275924D01*
X152133316Y-135278406D01*
X152133312Y-135278407D01*
X152054562Y-135314213D01*
X151946916Y-135363157D01*
X151883395Y-135408216D01*
X151787977Y-135475901D01*
X151775014Y-135485096D01*
X151699757Y-135563710D01*
X151641992Y-135624053D01*
X151629272Y-135637340D01*
X151626021Y-135642375D01*
X151586447Y-135703664D01*
X151532692Y-135750042D01*
X151462396Y-135759995D01*
X151397879Y-135730363D01*
X151359623Y-135670555D01*
X151355268Y-135648319D01*
X151347743Y-135575794D01*
X151344851Y-135562400D01*
X151293412Y-135408216D01*
X151287239Y-135395038D01*
X151201937Y-135257193D01*
X151192901Y-135245792D01*
X151078171Y-135131261D01*
X151066760Y-135122249D01*
X150928757Y-135037184D01*
X150915576Y-135031037D01*
X150761290Y-134979862D01*
X150747914Y-134976995D01*
X150653562Y-134967328D01*
X150647145Y-134967000D01*
X150272115Y-134967000D01*
X150256876Y-134971475D01*
X150255671Y-134972865D01*
X150254000Y-134980548D01*
X150254000Y-137814884D01*
X149746000Y-137814884D01*
X149746000Y-136672115D01*
X149741525Y-136656876D01*
X149740135Y-136655671D01*
X149732452Y-136654000D01*
X148660116Y-136654000D01*
X148644877Y-136658475D01*
X148643672Y-136659865D01*
X148642001Y-136667548D01*
X148642001Y-137122095D01*
X145896920Y-137122095D01*
X145927710Y-137074410D01*
X145981800Y-136990640D01*
X145981801Y-136990637D01*
X145985052Y-136985603D01*
X146063834Y-136790122D01*
X146104229Y-136583271D01*
X146104500Y-136577730D01*
X146104500Y-136272341D01*
X146090718Y-136127885D01*
X148642000Y-136127885D01*
X148646475Y-136143124D01*
X148647865Y-136144329D01*
X148655548Y-136146000D01*
X149727885Y-136146000D01*
X149743124Y-136141525D01*
X149744329Y-136140135D01*
X149746000Y-136132452D01*
X149746000Y-134985116D01*
X149741525Y-134969877D01*
X149740135Y-134968672D01*
X149732452Y-134967001D01*
X149352905Y-134967001D01*
X149346386Y-134967338D01*
X149250794Y-134977257D01*
X149237400Y-134980149D01*
X149083216Y-135031588D01*
X149070038Y-135037761D01*
X148932193Y-135123063D01*
X148920792Y-135132099D01*
X148806261Y-135246829D01*
X148797249Y-135258240D01*
X148712184Y-135396243D01*
X148706037Y-135409424D01*
X148654862Y-135563710D01*
X148651995Y-135577086D01*
X148642328Y-135671438D01*
X148642000Y-135677855D01*
X148642000Y-136127885D01*
X146090718Y-136127885D01*
X146089507Y-136115194D01*
X146030177Y-135912958D01*
X145979415Y-135814397D01*
X145936422Y-135730921D01*
X145936420Y-135730918D01*
X145933676Y-135725590D01*
X145864355Y-135637340D01*
X145807192Y-135564568D01*
X145807188Y-135564564D01*
X145803486Y-135559851D01*
X145771308Y-135531928D01*
X145648835Y-135425650D01*
X145648830Y-135425646D01*
X145644304Y-135421719D01*
X145461874Y-135316181D01*
X145262778Y-135247043D01*
X145256845Y-135246183D01*
X145256842Y-135246182D01*
X145060140Y-135217662D01*
X145060137Y-135217662D01*
X145054200Y-135216801D01*
X144843667Y-135226545D01*
X144837843Y-135227949D01*
X144837840Y-135227949D01*
X144644607Y-135274518D01*
X144644605Y-135274519D01*
X144638774Y-135275924D01*
X144633316Y-135278406D01*
X144633312Y-135278407D01*
X144554562Y-135314213D01*
X144446916Y-135363157D01*
X144383395Y-135408216D01*
X144287977Y-135475901D01*
X144275014Y-135485096D01*
X144199757Y-135563710D01*
X144141992Y-135624053D01*
X144129272Y-135637340D01*
X144126021Y-135642375D01*
X144068848Y-135730921D01*
X144014948Y-135814397D01*
X143936166Y-136009878D01*
X143895771Y-136216729D01*
X143895500Y-136222270D01*
X143895500Y-136527659D01*
X143604500Y-136527659D01*
X143604500Y-136272341D01*
X143589507Y-136115194D01*
X143530177Y-135912958D01*
X143479415Y-135814397D01*
X143436422Y-135730921D01*
X143436420Y-135730918D01*
X143433676Y-135725590D01*
X143364355Y-135637340D01*
X143307192Y-135564568D01*
X143307188Y-135564564D01*
X143303486Y-135559851D01*
X143271308Y-135531928D01*
X143148835Y-135425650D01*
X143148830Y-135425646D01*
X143144304Y-135421719D01*
X142961874Y-135316181D01*
X142762778Y-135247043D01*
X142756845Y-135246183D01*
X142756842Y-135246182D01*
X142560140Y-135217662D01*
X142560137Y-135217662D01*
X142554200Y-135216801D01*
X142343667Y-135226545D01*
X142337843Y-135227949D01*
X142337840Y-135227949D01*
X142144607Y-135274518D01*
X142144605Y-135274519D01*
X142138774Y-135275924D01*
X142133316Y-135278406D01*
X142133312Y-135278407D01*
X142054562Y-135314213D01*
X141946916Y-135363157D01*
X141883395Y-135408216D01*
X141787977Y-135475901D01*
X141775014Y-135485096D01*
X141699757Y-135563710D01*
X141641992Y-135624053D01*
X141629272Y-135637340D01*
X141626021Y-135642375D01*
X141568848Y-135730921D01*
X141514948Y-135814397D01*
X141436166Y-136009878D01*
X141395771Y-136216729D01*
X141395500Y-136222270D01*
X141395500Y-136527659D01*
X141104500Y-136527659D01*
X141104500Y-136272341D01*
X141089507Y-136115194D01*
X141030177Y-135912958D01*
X140979415Y-135814397D01*
X140936422Y-135730921D01*
X140936420Y-135730918D01*
X140933676Y-135725590D01*
X140864355Y-135637340D01*
X140807192Y-135564568D01*
X140807188Y-135564564D01*
X140803486Y-135559851D01*
X140771308Y-135531928D01*
X140648835Y-135425650D01*
X140648830Y-135425646D01*
X140644304Y-135421719D01*
X140461874Y-135316181D01*
X140262778Y-135247043D01*
X140256845Y-135246183D01*
X140256842Y-135246182D01*
X140060140Y-135217662D01*
X140060137Y-135217662D01*
X140054200Y-135216801D01*
X139843667Y-135226545D01*
X139837843Y-135227949D01*
X139837840Y-135227949D01*
X139644607Y-135274518D01*
X139644605Y-135274519D01*
X139638774Y-135275924D01*
X139633316Y-135278406D01*
X139633312Y-135278407D01*
X139554562Y-135314213D01*
X139446916Y-135363157D01*
X139383395Y-135408216D01*
X139287977Y-135475901D01*
X139275014Y-135485096D01*
X139199757Y-135563710D01*
X139141992Y-135624053D01*
X139129272Y-135637340D01*
X139126021Y-135642375D01*
X139068848Y-135730921D01*
X139014948Y-135814397D01*
X138936166Y-136009878D01*
X138895771Y-136216729D01*
X138895500Y-136222270D01*
X138895500Y-136527659D01*
X138604500Y-136527659D01*
X138604500Y-136272341D01*
X138589507Y-136115194D01*
X138530177Y-135912958D01*
X138479415Y-135814397D01*
X138436422Y-135730921D01*
X138436420Y-135730918D01*
X138433676Y-135725590D01*
X138364355Y-135637340D01*
X138307192Y-135564568D01*
X138307188Y-135564564D01*
X138303486Y-135559851D01*
X138271308Y-135531928D01*
X138148835Y-135425650D01*
X138148830Y-135425646D01*
X138144304Y-135421719D01*
X137961874Y-135316181D01*
X137762778Y-135247043D01*
X137756845Y-135246183D01*
X137756842Y-135246182D01*
X137560140Y-135217662D01*
X137560137Y-135217662D01*
X137554200Y-135216801D01*
X137343667Y-135226545D01*
X137337843Y-135227949D01*
X137337840Y-135227949D01*
X137144607Y-135274518D01*
X137144605Y-135274519D01*
X137138774Y-135275924D01*
X137133316Y-135278406D01*
X137133312Y-135278407D01*
X137054562Y-135314213D01*
X136946916Y-135363157D01*
X136883395Y-135408216D01*
X136787977Y-135475901D01*
X136775014Y-135485096D01*
X136699757Y-135563710D01*
X136641992Y-135624053D01*
X136629272Y-135637340D01*
X136626021Y-135642375D01*
X136568848Y-135730921D01*
X136514948Y-135814397D01*
X136436166Y-136009878D01*
X136395771Y-136216729D01*
X136395500Y-136222270D01*
X136395500Y-136527659D01*
X136104500Y-136527659D01*
X136104500Y-135677244D01*
X136101358Y-135648319D01*
X136098651Y-135623403D01*
X136098651Y-135623402D01*
X136097798Y-135615552D01*
X136047071Y-135480236D01*
X136041691Y-135473057D01*
X136041689Y-135473054D01*
X135965785Y-135371776D01*
X135960404Y-135364596D01*
X135893178Y-135314213D01*
X135851946Y-135283311D01*
X135851943Y-135283309D01*
X135844764Y-135277929D01*
X135755046Y-135244296D01*
X135716843Y-135229974D01*
X135716841Y-135229974D01*
X135709448Y-135227202D01*
X135701598Y-135226349D01*
X135701597Y-135226349D01*
X135651153Y-135220869D01*
X135651152Y-135220869D01*
X135647756Y-135220500D01*
X135548114Y-135220500D01*
X135479993Y-135200498D01*
X135433500Y-135146842D01*
X135423478Y-135076011D01*
X135430150Y-135031037D01*
X135445277Y-134929060D01*
X135447688Y-134916938D01*
X135527435Y-134598573D01*
X135531024Y-134586741D01*
X135641591Y-134277725D01*
X135646323Y-134266301D01*
X135786646Y-133969613D01*
X135792475Y-133958708D01*
X135961205Y-133677200D01*
X135968075Y-133666919D01*
X136163576Y-133403315D01*
X136171420Y-133393757D01*
X136391829Y-133150573D01*
X136400573Y-133141829D01*
X136643757Y-132921420D01*
X136653315Y-132913576D01*
X136916919Y-132718075D01*
X136927200Y-132711205D01*
X137208708Y-132542475D01*
X137219613Y-132536646D01*
X137516301Y-132396323D01*
X137527725Y-132391591D01*
X137836741Y-132281024D01*
X137848573Y-132277435D01*
X138009957Y-132237010D01*
X138080897Y-132239861D01*
X138139033Y-132280611D01*
X138155274Y-132307083D01*
X138188226Y-132379557D01*
X138227864Y-132441538D01*
X138321354Y-132550039D01*
X138376796Y-132598404D01*
X138380557Y-132600842D01*
X138380560Y-132600844D01*
X138456945Y-132650354D01*
X138496981Y-132676304D01*
X138563769Y-132707164D01*
X138581766Y-132712546D01*
X138696689Y-132746915D01*
X138696694Y-132746916D01*
X138700987Y-132748200D01*
X138705419Y-132748862D01*
X138705422Y-132748863D01*
X138769319Y-132758412D01*
X138769322Y-132758412D01*
X138773750Y-132759074D01*
X138843655Y-132759501D01*
X138912491Y-132759922D01*
X138912496Y-132759922D01*
X138916971Y-132759949D01*
X138919440Y-132759611D01*
X138923282Y-132759486D01*
X139350000Y-132759486D01*
X139449301Y-132739734D01*
X139533484Y-132683484D01*
X139589734Y-132599301D01*
X139593214Y-132581805D01*
X139623464Y-132523978D01*
X139622896Y-132523486D01*
X139624980Y-132521081D01*
X139626123Y-132518896D01*
X139627701Y-132517940D01*
X139643247Y-132500000D01*
X139650000Y-132500000D01*
X139650000Y-131000000D01*
X139642206Y-131000000D01*
X139635313Y-130994027D01*
X139596929Y-130934300D01*
X139594246Y-130923383D01*
X139589734Y-130900699D01*
X139533484Y-130816516D01*
X139449301Y-130760266D01*
X139350000Y-130740514D01*
X139283322Y-130740514D01*
X139215201Y-130720512D01*
X139168708Y-130666856D01*
X139164009Y-130655015D01*
X139095191Y-130452284D01*
X139095190Y-130452283D01*
X139093865Y-130448378D01*
X139025321Y-130309385D01*
X138989621Y-130236991D01*
X138989618Y-130236986D01*
X138987794Y-130233287D01*
X138876652Y-130066951D01*
X138856848Y-130037312D01*
X138856844Y-130037307D01*
X138854555Y-130033881D01*
X138851841Y-130030787D01*
X138851837Y-130030781D01*
X138699137Y-129856661D01*
X138696428Y-129853572D01*
X138693339Y-129850863D01*
X138519219Y-129698163D01*
X138519213Y-129698159D01*
X138516119Y-129695445D01*
X138512693Y-129693156D01*
X138512688Y-129693152D01*
X138320146Y-129564500D01*
X138316713Y-129562206D01*
X138313014Y-129560382D01*
X138313009Y-129560379D01*
X138105317Y-129457957D01*
X138105315Y-129457956D01*
X138101622Y-129456135D01*
X138072558Y-129446269D01*
X138043415Y-129436376D01*
X137985339Y-129395538D01*
X137980077Y-129388430D01*
X137898855Y-129270251D01*
X137898854Y-129270249D01*
X137894553Y-129263992D01*
X137776275Y-129158611D01*
X137768889Y-129154700D01*
X137642988Y-129088039D01*
X137642989Y-129088039D01*
X137636274Y-129084484D01*
X137482633Y-129045892D01*
X137475034Y-129045852D01*
X137475033Y-129045852D01*
X137409181Y-129045507D01*
X137324221Y-129045062D01*
X137316841Y-129046834D01*
X137316839Y-129046834D01*
X137177563Y-129080271D01*
X137177560Y-129080272D01*
X137170184Y-129082043D01*
X137029414Y-129154700D01*
X136910039Y-129258838D01*
X136818950Y-129388444D01*
X136761406Y-129536037D01*
X136760414Y-129543570D01*
X136760414Y-129543571D01*
X136745653Y-129655695D01*
X136740729Y-129693096D01*
X136741563Y-129700646D01*
X136756315Y-129834266D01*
X136758113Y-129850553D01*
X136760723Y-129857684D01*
X136760723Y-129857686D01*
X136798051Y-129959689D01*
X136812553Y-129999319D01*
X136816789Y-130005622D01*
X136816789Y-130005623D01*
X136887723Y-130111183D01*
X136900908Y-130130805D01*
X136906527Y-130135918D01*
X136906528Y-130135919D01*
X136993484Y-130215042D01*
X137018076Y-130237419D01*
X137157293Y-130313008D01*
X137310522Y-130353207D01*
X137394477Y-130354526D01*
X137461319Y-130355576D01*
X137461322Y-130355576D01*
X137468916Y-130355695D01*
X137623332Y-130320329D01*
X137764855Y-130249151D01*
X137783271Y-130233422D01*
X137848059Y-130204392D01*
X137918356Y-130215042D01*
X137925269Y-130218266D01*
X137944283Y-130229245D01*
X138079075Y-130323627D01*
X138095900Y-130337745D01*
X138212255Y-130454100D01*
X138226373Y-130470925D01*
X138320755Y-130605717D01*
X138331737Y-130624737D01*
X138396595Y-130763824D01*
X138407256Y-130834015D01*
X138378276Y-130898828D01*
X138362884Y-130914019D01*
X138340272Y-130932792D01*
X138334952Y-130937209D01*
X138331953Y-130940522D01*
X138331949Y-130940526D01*
X138261719Y-131018115D01*
X138238838Y-131043393D01*
X138236331Y-131047109D01*
X138236330Y-131047111D01*
X138200973Y-131099531D01*
X138197696Y-131104389D01*
X138135249Y-131233281D01*
X138112881Y-131303369D01*
X138112139Y-131307781D01*
X138112137Y-131307788D01*
X138104862Y-131351035D01*
X138073836Y-131414894D01*
X138009457Y-131452784D01*
X137806012Y-131500634D01*
X137694145Y-131526945D01*
X137694140Y-131526947D01*
X137691306Y-131527613D01*
X137320496Y-131651896D01*
X137317826Y-131653075D01*
X136965396Y-131808688D01*
X136965387Y-131808692D01*
X136962736Y-131809863D01*
X136960209Y-131811270D01*
X136960200Y-131811275D01*
X136623617Y-131998750D01*
X136621077Y-132000165D01*
X136298434Y-132221181D01*
X136296208Y-132223029D01*
X136296198Y-132223037D01*
X136033068Y-132441538D01*
X135997561Y-132471023D01*
X135721023Y-132747561D01*
X135719169Y-132749794D01*
X135719166Y-132749797D01*
X135473037Y-133046198D01*
X135473029Y-133046208D01*
X135471181Y-133048434D01*
X135250165Y-133371077D01*
X135248752Y-133373613D01*
X135248750Y-133373617D01*
X135061275Y-133710200D01*
X135061270Y-133710209D01*
X135059863Y-133712736D01*
X134901896Y-134070496D01*
X134777613Y-134441306D01*
X134776947Y-134444140D01*
X134776945Y-134444145D01*
X134740624Y-134598573D01*
X134688074Y-134822001D01*
X134687673Y-134824875D01*
X134687672Y-134824881D01*
X134647634Y-135111908D01*
X134618412Y-135176612D01*
X134558848Y-135215246D01*
X134522842Y-135220500D01*
X134352244Y-135220500D01*
X134348848Y-135220869D01*
X134348847Y-135220869D01*
X134298403Y-135226349D01*
X134298402Y-135226349D01*
X134290552Y-135227202D01*
X134283159Y-135229974D01*
X134283157Y-135229974D01*
X134244954Y-135244296D01*
X134155236Y-135277929D01*
X134148057Y-135283309D01*
X134148054Y-135283311D01*
X134106822Y-135314213D01*
X134039596Y-135364596D01*
X134034215Y-135371776D01*
X133958311Y-135473054D01*
X133958309Y-135473057D01*
X133952929Y-135480236D01*
X133902202Y-135615552D01*
X133901349Y-135623402D01*
X133901349Y-135623403D01*
X133898642Y-135648319D01*
X133895500Y-135677244D01*
X133895500Y-137122756D01*
X129014460Y-137122756D01*
X129062196Y-136944599D01*
X129064099Y-136933804D01*
X129082326Y-136725475D01*
X129082326Y-136714525D01*
X129064099Y-136506196D01*
X129062196Y-136495401D01*
X129008072Y-136293405D01*
X129004326Y-136283113D01*
X128915946Y-136093583D01*
X128910466Y-136084093D01*
X128881589Y-136042851D01*
X128871113Y-136034477D01*
X128857666Y-136041545D01*
X128192021Y-136707189D01*
X128184408Y-136721132D01*
X127454356Y-136721132D01*
X127455592Y-136718868D01*
X127455461Y-136717034D01*
X127451210Y-136710420D01*
X126781609Y-136040820D01*
X126769839Y-136034393D01*
X126757824Y-136043689D01*
X126729534Y-136084093D01*
X126724054Y-136093583D01*
X126635674Y-136283113D01*
X126631928Y-136293405D01*
X126577804Y-136495401D01*
X126575901Y-136506196D01*
X126557674Y-136714525D01*
X126557674Y-136725475D01*
X120442326Y-136725475D01*
X120442326Y-136714525D01*
X120424099Y-136506196D01*
X120422196Y-136495401D01*
X120368072Y-136293405D01*
X120364326Y-136283113D01*
X120275946Y-136093583D01*
X120270466Y-136084093D01*
X120241589Y-136042851D01*
X120231113Y-136034477D01*
X120217666Y-136041545D01*
X119552021Y-136707189D01*
X119544408Y-136721132D01*
X118877694Y-136721132D01*
X118880924Y-136675967D01*
X118909885Y-136630905D01*
X119180000Y-136360790D01*
X119859176Y-135681613D01*
X119865606Y-135669838D01*
X119864870Y-135668887D01*
X127134477Y-135668887D01*
X127141545Y-135682334D01*
X127807189Y-136347979D01*
X127821132Y-136355592D01*
X127822966Y-136355461D01*
X127829580Y-136351210D01*
X128499180Y-135681609D01*
X128505607Y-135669839D01*
X128496313Y-135657825D01*
X128455912Y-135629536D01*
X128446416Y-135624053D01*
X128256887Y-135535674D01*
X128246595Y-135531928D01*
X128044599Y-135477804D01*
X128033804Y-135475901D01*
X127825475Y-135457674D01*
X127814525Y-135457674D01*
X127606196Y-135475901D01*
X127595401Y-135477804D01*
X127393405Y-135531928D01*
X127383113Y-135535674D01*
X127193583Y-135624054D01*
X127184093Y-135629534D01*
X127142851Y-135658411D01*
X127134477Y-135668887D01*
X119864870Y-135668887D01*
X119856310Y-135657824D01*
X119815912Y-135629536D01*
X119806416Y-135624053D01*
X119616887Y-135535674D01*
X119606595Y-135531928D01*
X119404599Y-135477804D01*
X119393804Y-135475901D01*
X119185475Y-135457674D01*
X119174525Y-135457674D01*
X118966196Y-135475901D01*
X118955401Y-135477804D01*
X118753405Y-135531928D01*
X118743113Y-135535674D01*
X118553579Y-135624056D01*
X118544093Y-135629534D01*
X118452270Y-135693828D01*
X118384996Y-135716516D01*
X118316136Y-135699231D01*
X118267552Y-135647461D01*
X118254000Y-135590615D01*
X118254000Y-130479619D01*
X122438536Y-130479619D01*
X122447228Y-130558347D01*
X122454558Y-130624737D01*
X122455920Y-130637076D01*
X122458530Y-130644207D01*
X122458530Y-130644209D01*
X122503524Y-130767161D01*
X122510360Y-130785842D01*
X122514596Y-130792145D01*
X122514596Y-130792146D01*
X122586284Y-130898828D01*
X122598715Y-130917328D01*
X122604334Y-130922441D01*
X122604335Y-130922442D01*
X122709479Y-131018115D01*
X122715883Y-131023942D01*
X122855100Y-131099531D01*
X123008329Y-131139730D01*
X123092284Y-131141049D01*
X123159126Y-131142099D01*
X123159129Y-131142099D01*
X123166723Y-131142218D01*
X123321139Y-131106852D01*
X123435866Y-131049151D01*
X123455879Y-131039086D01*
X123455882Y-131039084D01*
X123462662Y-131035674D01*
X123468433Y-131030745D01*
X123468436Y-131030743D01*
X123577349Y-130937722D01*
X123577350Y-130937721D01*
X123583121Y-130932792D01*
X123587550Y-130926628D01*
X123592696Y-130921032D01*
X123595011Y-130923160D01*
X123639724Y-130888318D01*
X123686032Y-130879500D01*
X124300141Y-130879500D01*
X124368262Y-130899502D01*
X124395522Y-130923169D01*
X124396672Y-130924501D01*
X124400908Y-130930805D01*
X124406525Y-130935916D01*
X124507247Y-131027565D01*
X124518076Y-131037419D01*
X124657293Y-131113008D01*
X124810522Y-131153207D01*
X124894477Y-131154526D01*
X124961319Y-131155576D01*
X124961322Y-131155576D01*
X124968916Y-131155695D01*
X125123332Y-131120329D01*
X125193742Y-131084917D01*
X125258072Y-131052563D01*
X125258075Y-131052561D01*
X125264855Y-131049151D01*
X125270626Y-131044222D01*
X125270629Y-131044220D01*
X125379536Y-130951204D01*
X125379536Y-130951203D01*
X125385314Y-130946269D01*
X125477755Y-130817624D01*
X125536842Y-130670641D01*
X125559162Y-130513807D01*
X125559307Y-130500000D01*
X125540276Y-130342733D01*
X125484280Y-130194546D01*
X125433390Y-130120500D01*
X125398855Y-130070251D01*
X125398854Y-130070249D01*
X125394553Y-130063992D01*
X125373758Y-130045464D01*
X125357277Y-130030781D01*
X125276275Y-129958611D01*
X125268889Y-129954700D01*
X125142988Y-129888039D01*
X125142989Y-129888039D01*
X125136274Y-129884484D01*
X124982633Y-129845892D01*
X124975034Y-129845852D01*
X124975033Y-129845852D01*
X124909181Y-129845507D01*
X124824221Y-129845062D01*
X124816841Y-129846834D01*
X124816839Y-129846834D01*
X124677563Y-129880271D01*
X124677560Y-129880272D01*
X124670184Y-129882043D01*
X124529414Y-129954700D01*
X124410039Y-130058838D01*
X124405672Y-130065051D01*
X124405667Y-130065057D01*
X124404336Y-130066951D01*
X124403013Y-130068005D01*
X124400589Y-130070697D01*
X124400140Y-130070293D01*
X124348802Y-130111183D01*
X124301250Y-130120500D01*
X123706751Y-130120500D01*
X123638630Y-130100498D01*
X123602911Y-130065867D01*
X123601622Y-130063992D01*
X123592360Y-130050515D01*
X123474082Y-129945134D01*
X123466696Y-129941223D01*
X123361499Y-129885524D01*
X123334081Y-129871007D01*
X123180440Y-129832415D01*
X123172841Y-129832375D01*
X123172840Y-129832375D01*
X123106988Y-129832030D01*
X123022028Y-129831585D01*
X123014648Y-129833357D01*
X123014646Y-129833357D01*
X122875370Y-129866794D01*
X122875367Y-129866795D01*
X122867991Y-129868566D01*
X122727221Y-129941223D01*
X122607846Y-130045361D01*
X122516757Y-130174967D01*
X122489757Y-130244219D01*
X122464350Y-130309385D01*
X122459213Y-130322560D01*
X122458221Y-130330093D01*
X122458221Y-130330094D01*
X122439681Y-130470925D01*
X122438536Y-130479619D01*
X118254000Y-130479619D01*
X118254000Y-126893096D01*
X121340729Y-126893096D01*
X121358113Y-127050553D01*
X121412553Y-127199319D01*
X121500908Y-127330805D01*
X121506527Y-127335918D01*
X121506528Y-127335919D01*
X121612460Y-127432309D01*
X121618076Y-127437419D01*
X121624751Y-127441043D01*
X121624752Y-127441044D01*
X121672224Y-127466820D01*
X121722545Y-127516903D01*
X121731414Y-127537049D01*
X121758517Y-127616893D01*
X121758521Y-127616903D01*
X121759843Y-127620797D01*
X121761664Y-127624490D01*
X121761665Y-127624492D01*
X121842318Y-127788039D01*
X121868813Y-127841766D01*
X122005693Y-128046622D01*
X122168141Y-128231859D01*
X122353378Y-128394307D01*
X122558234Y-128531187D01*
X122561933Y-128533011D01*
X122561938Y-128533014D01*
X122775508Y-128638335D01*
X122779203Y-128640157D01*
X122783101Y-128641480D01*
X122783103Y-128641481D01*
X123008596Y-128718026D01*
X123008600Y-128718027D01*
X123012506Y-128719353D01*
X123016550Y-128720157D01*
X123016556Y-128720159D01*
X123250106Y-128766615D01*
X123250109Y-128766615D01*
X123254149Y-128767419D01*
X123258260Y-128767688D01*
X123258264Y-128767689D01*
X123486714Y-128782662D01*
X123486867Y-128782679D01*
X123486974Y-128782679D01*
X123492482Y-128783040D01*
X123500000Y-128784231D01*
X123509793Y-128782680D01*
X123509794Y-128782680D01*
X123520077Y-128781051D01*
X123539788Y-128779500D01*
X128700141Y-128779500D01*
X128768262Y-128799502D01*
X128795522Y-128823169D01*
X128796672Y-128824501D01*
X128800908Y-128830805D01*
X128918076Y-128937419D01*
X129057293Y-129013008D01*
X129210522Y-129053207D01*
X129294477Y-129054526D01*
X129361319Y-129055576D01*
X129361322Y-129055576D01*
X129368916Y-129055695D01*
X129523332Y-129020329D01*
X129593742Y-128984917D01*
X129658072Y-128952563D01*
X129658075Y-128952561D01*
X129664855Y-128949151D01*
X129670626Y-128944222D01*
X129670629Y-128944220D01*
X129779536Y-128851204D01*
X129779536Y-128851203D01*
X129785314Y-128846269D01*
X129877755Y-128717624D01*
X129936842Y-128570641D01*
X129959162Y-128413807D01*
X129959307Y-128400000D01*
X129958289Y-128391583D01*
X129952759Y-128345892D01*
X129940276Y-128242733D01*
X129884280Y-128094546D01*
X129830138Y-128015769D01*
X129798855Y-127970251D01*
X129798854Y-127970249D01*
X129794553Y-127963992D01*
X129676275Y-127858611D01*
X129668889Y-127854700D01*
X129542988Y-127788039D01*
X129542989Y-127788039D01*
X129536274Y-127784484D01*
X129382633Y-127745892D01*
X129375034Y-127745852D01*
X129375033Y-127745852D01*
X129309181Y-127745507D01*
X129224221Y-127745062D01*
X129216841Y-127746834D01*
X129216839Y-127746834D01*
X129077563Y-127780271D01*
X129077560Y-127780272D01*
X129070184Y-127782043D01*
X128929414Y-127854700D01*
X128810039Y-127958838D01*
X128805672Y-127965051D01*
X128805667Y-127965057D01*
X128804336Y-127966951D01*
X128803013Y-127968005D01*
X128800589Y-127970697D01*
X128800140Y-127970293D01*
X128748802Y-128011183D01*
X128701250Y-128020500D01*
X123539788Y-128020500D01*
X123520077Y-128018949D01*
X123509794Y-128017320D01*
X123509793Y-128017320D01*
X123500000Y-128015769D01*
X123490205Y-128017321D01*
X123480289Y-128017321D01*
X123480289Y-128016946D01*
X123465348Y-128017468D01*
X123316409Y-128004437D01*
X123294780Y-128000624D01*
X123181584Y-127970293D01*
X123127413Y-127955778D01*
X123106778Y-127948267D01*
X122949737Y-127875038D01*
X122930717Y-127864056D01*
X122788787Y-127764676D01*
X122771962Y-127750558D01*
X122649442Y-127628038D01*
X122635324Y-127611213D01*
X122535944Y-127469283D01*
X122524962Y-127450261D01*
X122511129Y-127420595D01*
X122500468Y-127350404D01*
X122523000Y-127293823D01*
X122577755Y-127217624D01*
X122636842Y-127070641D01*
X122659162Y-126913807D01*
X122659307Y-126900000D01*
X122640276Y-126742733D01*
X122584280Y-126594546D01*
X122494553Y-126463992D01*
X122376275Y-126358611D01*
X122368889Y-126354700D01*
X122242988Y-126288039D01*
X122242989Y-126288039D01*
X122236274Y-126284484D01*
X122082633Y-126245892D01*
X122075034Y-126245852D01*
X122075033Y-126245852D01*
X122009181Y-126245507D01*
X121924221Y-126245062D01*
X121916841Y-126246834D01*
X121916839Y-126246834D01*
X121777563Y-126280271D01*
X121777560Y-126280272D01*
X121770184Y-126282043D01*
X121629414Y-126354700D01*
X121510039Y-126458838D01*
X121418950Y-126588444D01*
X121361406Y-126736037D01*
X121340729Y-126893096D01*
X118254000Y-126893096D01*
X118254000Y-120554930D01*
X126737725Y-120554930D01*
X126755572Y-120781699D01*
X126757115Y-120791446D01*
X126810217Y-121012627D01*
X126813266Y-121022012D01*
X126900313Y-121232163D01*
X126904795Y-121240958D01*
X127007432Y-121408445D01*
X127017890Y-121417907D01*
X127026666Y-121414124D01*
X127877978Y-120562812D01*
X127884356Y-120551132D01*
X128614408Y-120551132D01*
X128614539Y-120552965D01*
X128618790Y-120559580D01*
X129470290Y-121411080D01*
X129482670Y-121417840D01*
X129490320Y-121412113D01*
X129595205Y-121240958D01*
X129599687Y-121232163D01*
X129686734Y-121022012D01*
X129689783Y-121012627D01*
X129742885Y-120791446D01*
X129744428Y-120781699D01*
X129762275Y-120554930D01*
X129762275Y-120545070D01*
X129744428Y-120318301D01*
X129742885Y-120308554D01*
X129689783Y-120087373D01*
X129686734Y-120077988D01*
X129599687Y-119867837D01*
X129595205Y-119859042D01*
X129492568Y-119691555D01*
X129482110Y-119682093D01*
X129473334Y-119685876D01*
X128622022Y-120537188D01*
X128614408Y-120551132D01*
X127884356Y-120551132D01*
X127885592Y-120548868D01*
X127885461Y-120547035D01*
X127881210Y-120540420D01*
X127029710Y-119688920D01*
X127017330Y-119682160D01*
X127009680Y-119687887D01*
X126904795Y-119859042D01*
X126900313Y-119867837D01*
X126813266Y-120077988D01*
X126810217Y-120087373D01*
X126757115Y-120308554D01*
X126755572Y-120318301D01*
X126737725Y-120545070D01*
X126737725Y-120554930D01*
X118254000Y-120554930D01*
X118254000Y-119317890D01*
X127382093Y-119317890D01*
X127385876Y-119326666D01*
X128237188Y-120177978D01*
X128251132Y-120185592D01*
X128252965Y-120185461D01*
X128259580Y-120181210D01*
X129111080Y-119329710D01*
X129117840Y-119317330D01*
X129112113Y-119309680D01*
X128940958Y-119204795D01*
X128932163Y-119200313D01*
X128722012Y-119113266D01*
X128712627Y-119110217D01*
X128491446Y-119057115D01*
X128481699Y-119055572D01*
X128254930Y-119037725D01*
X128245070Y-119037725D01*
X128018301Y-119055572D01*
X128008554Y-119057115D01*
X127787373Y-119110217D01*
X127777988Y-119113266D01*
X127567837Y-119200313D01*
X127559042Y-119204795D01*
X127391555Y-119307432D01*
X127382093Y-119317890D01*
X118254000Y-119317890D01*
X118254000Y-115950000D01*
X120050000Y-115950000D01*
X125950000Y-115950000D01*
X125950000Y-115282670D01*
X127382160Y-115282670D01*
X127387887Y-115290320D01*
X127559042Y-115395205D01*
X127567837Y-115399687D01*
X127777988Y-115486734D01*
X127787373Y-115489783D01*
X128008554Y-115542885D01*
X128018301Y-115544428D01*
X128245070Y-115562275D01*
X128254930Y-115562275D01*
X128481699Y-115544428D01*
X128491446Y-115542885D01*
X128712627Y-115489783D01*
X128722012Y-115486734D01*
X128932163Y-115399687D01*
X128940958Y-115395205D01*
X129108445Y-115292568D01*
X129117907Y-115282110D01*
X129114124Y-115273334D01*
X128262812Y-114422022D01*
X128248868Y-114414408D01*
X128247035Y-114414539D01*
X128240420Y-114418790D01*
X127388920Y-115270290D01*
X127382160Y-115282670D01*
X125950000Y-115282670D01*
X125950000Y-114054930D01*
X126737725Y-114054930D01*
X126755572Y-114281699D01*
X126757115Y-114291446D01*
X126810217Y-114512627D01*
X126813266Y-114522012D01*
X126900313Y-114732163D01*
X126904795Y-114740958D01*
X127007432Y-114908445D01*
X127017890Y-114917907D01*
X127026666Y-114914124D01*
X127877978Y-114062812D01*
X127884356Y-114051132D01*
X128614408Y-114051132D01*
X128614539Y-114052965D01*
X128618790Y-114059580D01*
X129470290Y-114911080D01*
X129482670Y-114917840D01*
X129490320Y-114912113D01*
X129595205Y-114740958D01*
X129599687Y-114732163D01*
X129686734Y-114522012D01*
X129689783Y-114512627D01*
X129742885Y-114291446D01*
X129744428Y-114281699D01*
X129762275Y-114054930D01*
X129762275Y-114050000D01*
X131490708Y-114050000D01*
X131509839Y-114268674D01*
X131566653Y-114480703D01*
X131590964Y-114532838D01*
X131657095Y-114674659D01*
X131657098Y-114674664D01*
X131659421Y-114679646D01*
X131662577Y-114684153D01*
X131662578Y-114684155D01*
X131779397Y-114850989D01*
X131785326Y-114859457D01*
X131940543Y-115014674D01*
X131945051Y-115017831D01*
X131945054Y-115017833D01*
X132097245Y-115124398D01*
X132120354Y-115140579D01*
X132125336Y-115142902D01*
X132125341Y-115142905D01*
X132226116Y-115189896D01*
X132319297Y-115233347D01*
X132531326Y-115290161D01*
X132750000Y-115309292D01*
X132968674Y-115290161D01*
X133180703Y-115233347D01*
X133273884Y-115189896D01*
X133374659Y-115142905D01*
X133374664Y-115142902D01*
X133379646Y-115140579D01*
X133402755Y-115124398D01*
X133554946Y-115017833D01*
X133554949Y-115017831D01*
X133559457Y-115014674D01*
X133714674Y-114859457D01*
X133720604Y-114850989D01*
X133837422Y-114684155D01*
X133837423Y-114684153D01*
X133840579Y-114679646D01*
X133842902Y-114674664D01*
X133842905Y-114674659D01*
X133909036Y-114532838D01*
X133933347Y-114480703D01*
X133990161Y-114268674D01*
X134009292Y-114050000D01*
X133990161Y-113831326D01*
X133933347Y-113619297D01*
X133883609Y-113512633D01*
X133842905Y-113425341D01*
X133842902Y-113425336D01*
X133840579Y-113420354D01*
X133833650Y-113410458D01*
X133717833Y-113245054D01*
X133717831Y-113245051D01*
X133714674Y-113240543D01*
X133559457Y-113085326D01*
X133554949Y-113082169D01*
X133554946Y-113082167D01*
X133384155Y-112962578D01*
X133384153Y-112962577D01*
X133379646Y-112959421D01*
X133374664Y-112957098D01*
X133374659Y-112957095D01*
X133264749Y-112905844D01*
X133180703Y-112866653D01*
X132968674Y-112809839D01*
X132750000Y-112790708D01*
X132531326Y-112809839D01*
X132319297Y-112866653D01*
X132235251Y-112905844D01*
X132125341Y-112957095D01*
X132125336Y-112957098D01*
X132120354Y-112959421D01*
X132115847Y-112962577D01*
X132115845Y-112962578D01*
X131945054Y-113082167D01*
X131945051Y-113082169D01*
X131940543Y-113085326D01*
X131785326Y-113240543D01*
X131782169Y-113245051D01*
X131782167Y-113245054D01*
X131666350Y-113410458D01*
X131659421Y-113420354D01*
X131657098Y-113425336D01*
X131657095Y-113425341D01*
X131616391Y-113512633D01*
X131566653Y-113619297D01*
X131509839Y-113831326D01*
X131490708Y-114050000D01*
X129762275Y-114050000D01*
X129762275Y-114045070D01*
X129744428Y-113818301D01*
X129742885Y-113808554D01*
X129689783Y-113587373D01*
X129686734Y-113577988D01*
X129599687Y-113367837D01*
X129595205Y-113359042D01*
X129492568Y-113191555D01*
X129482110Y-113182093D01*
X129473334Y-113185876D01*
X128622022Y-114037188D01*
X128614408Y-114051132D01*
X127884356Y-114051132D01*
X127885592Y-114048868D01*
X127885461Y-114047035D01*
X127881210Y-114040420D01*
X127029710Y-113188920D01*
X127017330Y-113182160D01*
X127009680Y-113187887D01*
X126904795Y-113359042D01*
X126900313Y-113367837D01*
X126813266Y-113577988D01*
X126810217Y-113587373D01*
X126757115Y-113808554D01*
X126755572Y-113818301D01*
X126737725Y-114045070D01*
X126737725Y-114054930D01*
X125950000Y-114054930D01*
X125950000Y-112817890D01*
X127382093Y-112817890D01*
X127385876Y-112826666D01*
X128237188Y-113677978D01*
X128251132Y-113685592D01*
X128252965Y-113685461D01*
X128259580Y-113681210D01*
X129111080Y-112829710D01*
X129117840Y-112817330D01*
X129112113Y-112809680D01*
X128940958Y-112704795D01*
X128932163Y-112700313D01*
X128722012Y-112613266D01*
X128712627Y-112610217D01*
X128491446Y-112557115D01*
X128481699Y-112555572D01*
X128254930Y-112537725D01*
X128245070Y-112537725D01*
X128018301Y-112555572D01*
X128008554Y-112557115D01*
X127787373Y-112610217D01*
X127777988Y-112613266D01*
X127567837Y-112700313D01*
X127559042Y-112704795D01*
X127391555Y-112807432D01*
X127382093Y-112817890D01*
X125950000Y-112817890D01*
X125950000Y-110050000D01*
X120050000Y-110050000D01*
X120050000Y-115950000D01*
X118254000Y-115950000D01*
X118254000Y-108380000D01*
X118274002Y-108311879D01*
X118327658Y-108265386D01*
X118380000Y-108254000D01*
X122293169Y-108254000D01*
X122361290Y-108274002D01*
G37*
%TD.AperFunction*%
%TD*%
M02*
