%TF.GenerationSoftware,KiCad,Pcbnew,(6.0.1-0)*%
%TF.CreationDate,2022-01-30T09:33:21+00:00*%
%TF.ProjectId,ASR33,41535233-332e-46b6-9963-61645f706362,1*%
%TF.SameCoordinates,Original*%
%TF.FileFunction,Legend,Top*%
%TF.FilePolarity,Positive*%
%FSLAX46Y46*%
G04 Gerber Fmt 4.6, Leading zero omitted, Abs format (unit mm)*
G04 Created by KiCad (PCBNEW (6.0.1-0)) date 2022-01-30 09:33:21*
%MOMM*%
%LPD*%
G01*
G04 APERTURE LIST*
%ADD10C,0.080000*%
%ADD11C,0.200000*%
%ADD12C,0.150000*%
%ADD13C,0.120000*%
G04 APERTURE END LIST*
D10*
X152119047Y-111273809D02*
X152142857Y-111250000D01*
X152190476Y-111226190D01*
X152309523Y-111226190D01*
X152357142Y-111250000D01*
X152380952Y-111273809D01*
X152404761Y-111321428D01*
X152404761Y-111369047D01*
X152380952Y-111440476D01*
X152095238Y-111726190D01*
X152404761Y-111726190D01*
X152880952Y-111726190D02*
X152595238Y-111726190D01*
X152738095Y-111726190D02*
X152738095Y-111226190D01*
X152690476Y-111297619D01*
X152642857Y-111345238D01*
X152595238Y-111369047D01*
X162119047Y-111273809D02*
X162142857Y-111250000D01*
X162190476Y-111226190D01*
X162309523Y-111226190D01*
X162357142Y-111250000D01*
X162380952Y-111273809D01*
X162404761Y-111321428D01*
X162404761Y-111369047D01*
X162380952Y-111440476D01*
X162095238Y-111726190D01*
X162404761Y-111726190D01*
X162595238Y-111273809D02*
X162619047Y-111250000D01*
X162666666Y-111226190D01*
X162785714Y-111226190D01*
X162833333Y-111250000D01*
X162857142Y-111273809D01*
X162880952Y-111321428D01*
X162880952Y-111369047D01*
X162857142Y-111440476D01*
X162571428Y-111726190D01*
X162880952Y-111726190D01*
X159619047Y-111273809D02*
X159642857Y-111250000D01*
X159690476Y-111226190D01*
X159809523Y-111226190D01*
X159857142Y-111250000D01*
X159880952Y-111273809D01*
X159904761Y-111321428D01*
X159904761Y-111369047D01*
X159880952Y-111440476D01*
X159595238Y-111726190D01*
X159904761Y-111726190D01*
X160071428Y-111226190D02*
X160380952Y-111226190D01*
X160214285Y-111416666D01*
X160285714Y-111416666D01*
X160333333Y-111440476D01*
X160357142Y-111464285D01*
X160380952Y-111511904D01*
X160380952Y-111630952D01*
X160357142Y-111678571D01*
X160333333Y-111702380D01*
X160285714Y-111726190D01*
X160142857Y-111726190D01*
X160095238Y-111702380D01*
X160071428Y-111678571D01*
X133404761Y-89976190D02*
X133119047Y-89976190D01*
X133261904Y-89976190D02*
X133261904Y-89476190D01*
X133214285Y-89547619D01*
X133166666Y-89595238D01*
X133119047Y-89619047D01*
X133571428Y-89476190D02*
X133880952Y-89476190D01*
X133714285Y-89666666D01*
X133785714Y-89666666D01*
X133833333Y-89690476D01*
X133857142Y-89714285D01*
X133880952Y-89761904D01*
X133880952Y-89880952D01*
X133857142Y-89928571D01*
X133833333Y-89952380D01*
X133785714Y-89976190D01*
X133642857Y-89976190D01*
X133595238Y-89952380D01*
X133571428Y-89928571D01*
X142619047Y-111226190D02*
X142380952Y-111226190D01*
X142357142Y-111464285D01*
X142380952Y-111440476D01*
X142428571Y-111416666D01*
X142547619Y-111416666D01*
X142595238Y-111440476D01*
X142619047Y-111464285D01*
X142642857Y-111511904D01*
X142642857Y-111630952D01*
X142619047Y-111678571D01*
X142595238Y-111702380D01*
X142547619Y-111726190D01*
X142428571Y-111726190D01*
X142380952Y-111702380D01*
X142357142Y-111678571D01*
X132595238Y-111392857D02*
X132595238Y-111726190D01*
X132476190Y-111202380D02*
X132357142Y-111559523D01*
X132666666Y-111559523D01*
X121592857Y-86326190D02*
X121426190Y-86088095D01*
X121307142Y-86326190D02*
X121307142Y-85826190D01*
X121497619Y-85826190D01*
X121545238Y-85850000D01*
X121569047Y-85873809D01*
X121592857Y-85921428D01*
X121592857Y-85992857D01*
X121569047Y-86040476D01*
X121545238Y-86064285D01*
X121497619Y-86088095D01*
X121307142Y-86088095D01*
X122069047Y-85850000D02*
X122021428Y-85826190D01*
X121950000Y-85826190D01*
X121878571Y-85850000D01*
X121830952Y-85897619D01*
X121807142Y-85945238D01*
X121783333Y-86040476D01*
X121783333Y-86111904D01*
X121807142Y-86207142D01*
X121830952Y-86254761D01*
X121878571Y-86302380D01*
X121950000Y-86326190D01*
X121997619Y-86326190D01*
X122069047Y-86302380D01*
X122092857Y-86278571D01*
X122092857Y-86111904D01*
X121997619Y-86111904D01*
X122473809Y-86064285D02*
X122545238Y-86088095D01*
X122569047Y-86111904D01*
X122592857Y-86159523D01*
X122592857Y-86230952D01*
X122569047Y-86278571D01*
X122545238Y-86302380D01*
X122497619Y-86326190D01*
X122307142Y-86326190D01*
X122307142Y-85826190D01*
X122473809Y-85826190D01*
X122521428Y-85850000D01*
X122545238Y-85873809D01*
X122569047Y-85921428D01*
X122569047Y-85969047D01*
X122545238Y-86016666D01*
X122521428Y-86040476D01*
X122473809Y-86064285D01*
X122307142Y-86064285D01*
X122807142Y-86278571D02*
X122830952Y-86302380D01*
X122807142Y-86326190D01*
X122783333Y-86302380D01*
X122807142Y-86278571D01*
X122807142Y-86326190D01*
X122807142Y-86016666D02*
X122830952Y-86040476D01*
X122807142Y-86064285D01*
X122783333Y-86040476D01*
X122807142Y-86016666D01*
X122807142Y-86064285D01*
X123688095Y-86326190D02*
X123402380Y-86326190D01*
X123545238Y-86326190D02*
X123545238Y-85826190D01*
X123497619Y-85897619D01*
X123450000Y-85945238D01*
X123402380Y-85969047D01*
X123878571Y-85873809D02*
X123902380Y-85850000D01*
X123950000Y-85826190D01*
X124069047Y-85826190D01*
X124116666Y-85850000D01*
X124140476Y-85873809D01*
X124164285Y-85921428D01*
X124164285Y-85969047D01*
X124140476Y-86040476D01*
X123854761Y-86326190D01*
X124164285Y-86326190D01*
X124735714Y-85802380D02*
X124307142Y-86445238D01*
X125164285Y-86326190D02*
X124878571Y-86326190D01*
X125021428Y-86326190D02*
X125021428Y-85826190D01*
X124973809Y-85897619D01*
X124926190Y-85945238D01*
X124878571Y-85969047D01*
X125592857Y-85992857D02*
X125592857Y-86326190D01*
X125473809Y-85802380D02*
X125354761Y-86159523D01*
X125664285Y-86159523D01*
X126211904Y-85802380D02*
X125783333Y-86445238D01*
X126354761Y-85873809D02*
X126378571Y-85850000D01*
X126426190Y-85826190D01*
X126545238Y-85826190D01*
X126592857Y-85850000D01*
X126616666Y-85873809D01*
X126640476Y-85921428D01*
X126640476Y-85969047D01*
X126616666Y-86040476D01*
X126330952Y-86326190D01*
X126640476Y-86326190D01*
X126807142Y-85826190D02*
X127140476Y-85826190D01*
X126926190Y-86326190D01*
D11*
X162047619Y-116285714D02*
X163047619Y-116285714D01*
X162333333Y-116619047D01*
X163047619Y-116952380D01*
X162047619Y-116952380D01*
X163047619Y-117285714D02*
X163047619Y-117857142D01*
X162047619Y-117571428D02*
X163047619Y-117571428D01*
X162047619Y-118761904D02*
X162523809Y-118428571D01*
X162047619Y-118190476D02*
X163047619Y-118190476D01*
X163047619Y-118571428D01*
X163000000Y-118666666D01*
X162952380Y-118714285D01*
X162857142Y-118761904D01*
X162714285Y-118761904D01*
X162619047Y-118714285D01*
X162571428Y-118666666D01*
X162523809Y-118571428D01*
X162523809Y-118190476D01*
X122619047Y-117023809D02*
X122619047Y-117976190D01*
X122333333Y-117214285D02*
X122333333Y-117785714D01*
X123047619Y-117500000D02*
X122619047Y-117500000D01*
X122047619Y-117595238D02*
X122047619Y-117404761D01*
D12*
X157852380Y-86642857D02*
X157900000Y-86690476D01*
X157947619Y-86785714D01*
X157947619Y-87023809D01*
X157900000Y-87119047D01*
X157852380Y-87166666D01*
X157757142Y-87214285D01*
X157661904Y-87214285D01*
X157519047Y-87166666D01*
X156947619Y-86595238D01*
X156947619Y-87214285D01*
X157947619Y-87833333D02*
X157947619Y-87928571D01*
X157900000Y-88023809D01*
X157852380Y-88071428D01*
X157757142Y-88119047D01*
X157566666Y-88166666D01*
X157328571Y-88166666D01*
X157138095Y-88119047D01*
X157042857Y-88071428D01*
X156995238Y-88023809D01*
X156947619Y-87928571D01*
X156947619Y-87833333D01*
X156995238Y-87738095D01*
X157042857Y-87690476D01*
X157138095Y-87642857D01*
X157328571Y-87595238D01*
X157566666Y-87595238D01*
X157757142Y-87642857D01*
X157852380Y-87690476D01*
X157900000Y-87738095D01*
X157947619Y-87833333D01*
X157852380Y-88547619D02*
X157900000Y-88595238D01*
X157947619Y-88690476D01*
X157947619Y-88928571D01*
X157900000Y-89023809D01*
X157852380Y-89071428D01*
X157757142Y-89119047D01*
X157661904Y-89119047D01*
X157519047Y-89071428D01*
X156947619Y-88500000D01*
X156947619Y-89119047D01*
X157852380Y-89500000D02*
X157900000Y-89547619D01*
X157947619Y-89642857D01*
X157947619Y-89880952D01*
X157900000Y-89976190D01*
X157852380Y-90023809D01*
X157757142Y-90071428D01*
X157661904Y-90071428D01*
X157519047Y-90023809D01*
X156947619Y-89452380D01*
X156947619Y-90071428D01*
X157328571Y-90500000D02*
X157328571Y-91261904D01*
X157947619Y-91928571D02*
X157947619Y-92023809D01*
X157900000Y-92119047D01*
X157852380Y-92166666D01*
X157757142Y-92214285D01*
X157566666Y-92261904D01*
X157328571Y-92261904D01*
X157138095Y-92214285D01*
X157042857Y-92166666D01*
X156995238Y-92119047D01*
X156947619Y-92023809D01*
X156947619Y-91928571D01*
X156995238Y-91833333D01*
X157042857Y-91785714D01*
X157138095Y-91738095D01*
X157328571Y-91690476D01*
X157566666Y-91690476D01*
X157757142Y-91738095D01*
X157852380Y-91785714D01*
X157900000Y-91833333D01*
X157947619Y-91928571D01*
X156947619Y-93214285D02*
X156947619Y-92642857D01*
X156947619Y-92928571D02*
X157947619Y-92928571D01*
X157804761Y-92833333D01*
X157709523Y-92738095D01*
X157661904Y-92642857D01*
X157328571Y-93642857D02*
X157328571Y-94404761D01*
X157947619Y-94785714D02*
X157947619Y-95404761D01*
X157566666Y-95071428D01*
X157566666Y-95214285D01*
X157519047Y-95309523D01*
X157471428Y-95357142D01*
X157376190Y-95404761D01*
X157138095Y-95404761D01*
X157042857Y-95357142D01*
X156995238Y-95309523D01*
X156947619Y-95214285D01*
X156947619Y-94928571D01*
X156995238Y-94833333D01*
X157042857Y-94785714D01*
X157947619Y-96023809D02*
X157947619Y-96119047D01*
X157900000Y-96214285D01*
X157852380Y-96261904D01*
X157757142Y-96309523D01*
X157566666Y-96357142D01*
X157328571Y-96357142D01*
X157138095Y-96309523D01*
X157042857Y-96261904D01*
X156995238Y-96214285D01*
X156947619Y-96119047D01*
X156947619Y-96023809D01*
X156995238Y-95928571D01*
X157042857Y-95880952D01*
X157138095Y-95833333D01*
X157328571Y-95785714D01*
X157566666Y-95785714D01*
X157757142Y-95833333D01*
X157852380Y-95880952D01*
X157900000Y-95928571D01*
X157947619Y-96023809D01*
D11*
X152047619Y-116761904D02*
X152523809Y-116428571D01*
X152047619Y-116190476D02*
X153047619Y-116190476D01*
X153047619Y-116571428D01*
X153000000Y-116666666D01*
X152952380Y-116714285D01*
X152857142Y-116761904D01*
X152714285Y-116761904D01*
X152619047Y-116714285D01*
X152571428Y-116666666D01*
X152523809Y-116571428D01*
X152523809Y-116190476D01*
X153047619Y-117190476D02*
X152238095Y-117190476D01*
X152142857Y-117238095D01*
X152095238Y-117285714D01*
X152047619Y-117380952D01*
X152047619Y-117571428D01*
X152095238Y-117666666D01*
X152142857Y-117714285D01*
X152238095Y-117761904D01*
X153047619Y-117761904D01*
X152047619Y-118238095D02*
X153047619Y-118238095D01*
X152047619Y-118809523D01*
X153047619Y-118809523D01*
X157619047Y-117023809D02*
X157619047Y-117976190D01*
X157333333Y-117214285D02*
X157333333Y-117785714D01*
X158047619Y-117500000D02*
X157619047Y-117500000D01*
X157047619Y-117595238D02*
X157047619Y-117404761D01*
X149850000Y-104042500D02*
X150564285Y-104042500D01*
X149707142Y-104471071D02*
X150207142Y-102971071D01*
X150707142Y-104471071D01*
X151135714Y-104399642D02*
X151350000Y-104471071D01*
X151707142Y-104471071D01*
X151850000Y-104399642D01*
X151921428Y-104328214D01*
X151992857Y-104185357D01*
X151992857Y-104042500D01*
X151921428Y-103899642D01*
X151850000Y-103828214D01*
X151707142Y-103756785D01*
X151421428Y-103685357D01*
X151278571Y-103613928D01*
X151207142Y-103542500D01*
X151135714Y-103399642D01*
X151135714Y-103256785D01*
X151207142Y-103113928D01*
X151278571Y-103042500D01*
X151421428Y-102971071D01*
X151778571Y-102971071D01*
X151992857Y-103042500D01*
X153492857Y-104471071D02*
X152992857Y-103756785D01*
X152635714Y-104471071D02*
X152635714Y-102971071D01*
X153207142Y-102971071D01*
X153350000Y-103042500D01*
X153421428Y-103113928D01*
X153492857Y-103256785D01*
X153492857Y-103471071D01*
X153421428Y-103613928D01*
X153350000Y-103685357D01*
X153207142Y-103756785D01*
X152635714Y-103756785D01*
X153992857Y-102971071D02*
X154921428Y-102971071D01*
X154421428Y-103542500D01*
X154635714Y-103542500D01*
X154778571Y-103613928D01*
X154850000Y-103685357D01*
X154921428Y-103828214D01*
X154921428Y-104185357D01*
X154850000Y-104328214D01*
X154778571Y-104399642D01*
X154635714Y-104471071D01*
X154207142Y-104471071D01*
X154064285Y-104399642D01*
X153992857Y-104328214D01*
X155421428Y-102971071D02*
X156350000Y-102971071D01*
X155850000Y-103542500D01*
X156064285Y-103542500D01*
X156207142Y-103613928D01*
X156278571Y-103685357D01*
X156350000Y-103828214D01*
X156350000Y-104185357D01*
X156278571Y-104328214D01*
X156207142Y-104399642D01*
X156064285Y-104471071D01*
X155635714Y-104471071D01*
X155492857Y-104399642D01*
X155421428Y-104328214D01*
X148742857Y-106743214D02*
X148671428Y-106814642D01*
X148457142Y-106886071D01*
X148314285Y-106886071D01*
X148100000Y-106814642D01*
X147957142Y-106671785D01*
X147885714Y-106528928D01*
X147814285Y-106243214D01*
X147814285Y-106028928D01*
X147885714Y-105743214D01*
X147957142Y-105600357D01*
X148100000Y-105457500D01*
X148314285Y-105386071D01*
X148457142Y-105386071D01*
X148671428Y-105457500D01*
X148742857Y-105528928D01*
X149600000Y-106886071D02*
X149457142Y-106814642D01*
X149385714Y-106743214D01*
X149314285Y-106600357D01*
X149314285Y-106171785D01*
X149385714Y-106028928D01*
X149457142Y-105957500D01*
X149600000Y-105886071D01*
X149814285Y-105886071D01*
X149957142Y-105957500D01*
X150028571Y-106028928D01*
X150100000Y-106171785D01*
X150100000Y-106600357D01*
X150028571Y-106743214D01*
X149957142Y-106814642D01*
X149814285Y-106886071D01*
X149600000Y-106886071D01*
X150742857Y-105886071D02*
X150742857Y-106886071D01*
X150742857Y-106028928D02*
X150814285Y-105957500D01*
X150957142Y-105886071D01*
X151171428Y-105886071D01*
X151314285Y-105957500D01*
X151385714Y-106100357D01*
X151385714Y-106886071D01*
X151885714Y-105886071D02*
X152457142Y-105886071D01*
X152100000Y-105386071D02*
X152100000Y-106671785D01*
X152171428Y-106814642D01*
X152314285Y-106886071D01*
X152457142Y-106886071D01*
X152957142Y-106886071D02*
X152957142Y-105886071D01*
X152957142Y-106171785D02*
X153028571Y-106028928D01*
X153100000Y-105957500D01*
X153242857Y-105886071D01*
X153385714Y-105886071D01*
X154100000Y-106886071D02*
X153957142Y-106814642D01*
X153885714Y-106743214D01*
X153814285Y-106600357D01*
X153814285Y-106171785D01*
X153885714Y-106028928D01*
X153957142Y-105957500D01*
X154100000Y-105886071D01*
X154314285Y-105886071D01*
X154457142Y-105957500D01*
X154528571Y-106028928D01*
X154600000Y-106171785D01*
X154600000Y-106600357D01*
X154528571Y-106743214D01*
X154457142Y-106814642D01*
X154314285Y-106886071D01*
X154100000Y-106886071D01*
X155457142Y-106886071D02*
X155314285Y-106814642D01*
X155242857Y-106671785D01*
X155242857Y-105386071D01*
X156242857Y-106886071D02*
X156100000Y-106814642D01*
X156028571Y-106671785D01*
X156028571Y-105386071D01*
X157385714Y-106814642D02*
X157242857Y-106886071D01*
X156957142Y-106886071D01*
X156814285Y-106814642D01*
X156742857Y-106671785D01*
X156742857Y-106100357D01*
X156814285Y-105957500D01*
X156957142Y-105886071D01*
X157242857Y-105886071D01*
X157385714Y-105957500D01*
X157457142Y-106100357D01*
X157457142Y-106243214D01*
X156742857Y-106386071D01*
X158100000Y-106886071D02*
X158100000Y-105886071D01*
X158100000Y-106171785D02*
X158171428Y-106028928D01*
X158242857Y-105957500D01*
X158385714Y-105886071D01*
X158528571Y-105886071D01*
X130547619Y-116119047D02*
X130547619Y-116690476D01*
X129547619Y-116404761D02*
X130547619Y-116404761D01*
X130547619Y-116928571D02*
X129547619Y-117595238D01*
X130547619Y-117595238D02*
X129547619Y-116928571D01*
X130119047Y-117880952D02*
X130119047Y-118833333D01*
X129833333Y-118071428D02*
X129833333Y-118642857D01*
X130547619Y-118357142D02*
X130119047Y-118357142D01*
X129547619Y-118452380D02*
X129547619Y-118261904D01*
X133047619Y-116119047D02*
X133047619Y-116690476D01*
X132047619Y-116404761D02*
X133047619Y-116404761D01*
X133047619Y-116928571D02*
X132047619Y-117595238D01*
X133047619Y-117595238D02*
X132047619Y-116928571D01*
X132428571Y-118738095D02*
X132428571Y-117976190D01*
X132238095Y-118166666D02*
X132428571Y-117976190D01*
X132619047Y-118166666D01*
X159547619Y-116166666D02*
X160547619Y-116166666D01*
X160547619Y-116547619D01*
X160500000Y-116642857D01*
X160452380Y-116690476D01*
X160357142Y-116738095D01*
X160214285Y-116738095D01*
X160119047Y-116690476D01*
X160071428Y-116642857D01*
X160023809Y-116547619D01*
X160023809Y-116166666D01*
X160547619Y-117071428D02*
X159547619Y-117309523D01*
X160261904Y-117500000D01*
X159547619Y-117690476D01*
X160547619Y-117928571D01*
X159547619Y-118880952D02*
X160023809Y-118547619D01*
X159547619Y-118309523D02*
X160547619Y-118309523D01*
X160547619Y-118690476D01*
X160500000Y-118785714D01*
X160452380Y-118833333D01*
X160357142Y-118880952D01*
X160214285Y-118880952D01*
X160119047Y-118833333D01*
X160071428Y-118785714D01*
X160023809Y-118690476D01*
X160023809Y-118309523D01*
X135547619Y-116119047D02*
X135547619Y-116690476D01*
X134547619Y-116404761D02*
X135547619Y-116404761D01*
X135547619Y-116928571D02*
X134547619Y-117595238D01*
X135547619Y-117595238D02*
X134547619Y-116928571D01*
X134928571Y-117976190D02*
X134928571Y-118738095D01*
X134738095Y-118547619D02*
X134928571Y-118738095D01*
X135119047Y-118547619D01*
X150119047Y-117023809D02*
X150119047Y-117976190D01*
X149833333Y-117214285D02*
X149833333Y-117785714D01*
X150547619Y-117500000D02*
X150119047Y-117500000D01*
X149547619Y-117595238D02*
X149547619Y-117404761D01*
X142047619Y-116714285D02*
X142523809Y-116380952D01*
X142047619Y-116142857D02*
X143047619Y-116142857D01*
X143047619Y-116523809D01*
X143000000Y-116619047D01*
X142952380Y-116666666D01*
X142857142Y-116714285D01*
X142714285Y-116714285D01*
X142619047Y-116666666D01*
X142571428Y-116619047D01*
X142523809Y-116523809D01*
X142523809Y-116142857D01*
X143047619Y-117047619D02*
X142047619Y-117714285D01*
X143047619Y-117714285D02*
X142047619Y-117047619D01*
X142428571Y-118857142D02*
X142428571Y-118095238D01*
X142238095Y-118285714D02*
X142428571Y-118095238D01*
X142619047Y-118285714D01*
X139547619Y-116714285D02*
X140023809Y-116380952D01*
X139547619Y-116142857D02*
X140547619Y-116142857D01*
X140547619Y-116523809D01*
X140500000Y-116619047D01*
X140452380Y-116666666D01*
X140357142Y-116714285D01*
X140214285Y-116714285D01*
X140119047Y-116666666D01*
X140071428Y-116619047D01*
X140023809Y-116523809D01*
X140023809Y-116142857D01*
X140547619Y-117047619D02*
X139547619Y-117714285D01*
X140547619Y-117714285D02*
X139547619Y-117047619D01*
X140119047Y-118000000D02*
X140119047Y-118952380D01*
X139833333Y-118190476D02*
X139833333Y-118761904D01*
X140547619Y-118476190D02*
X140119047Y-118476190D01*
X139547619Y-118571428D02*
X139547619Y-118380952D01*
X144547619Y-116714285D02*
X145023809Y-116380952D01*
X144547619Y-116142857D02*
X145547619Y-116142857D01*
X145547619Y-116523809D01*
X145500000Y-116619047D01*
X145452380Y-116666666D01*
X145357142Y-116714285D01*
X145214285Y-116714285D01*
X145119047Y-116666666D01*
X145071428Y-116619047D01*
X145023809Y-116523809D01*
X145023809Y-116142857D01*
X145547619Y-117047619D02*
X144547619Y-117714285D01*
X145547619Y-117714285D02*
X144547619Y-117047619D01*
X144928571Y-118095238D02*
X144928571Y-118857142D01*
X144738095Y-118666666D02*
X144928571Y-118857142D01*
X145119047Y-118666666D01*
X124547619Y-116738095D02*
X125547619Y-116738095D01*
X125547619Y-116976190D01*
X125500000Y-117119047D01*
X125404761Y-117214285D01*
X125309523Y-117261904D01*
X125119047Y-117309523D01*
X124976190Y-117309523D01*
X124785714Y-117261904D01*
X124690476Y-117214285D01*
X124595238Y-117119047D01*
X124547619Y-116976190D01*
X124547619Y-116738095D01*
X124642857Y-118309523D02*
X124595238Y-118261904D01*
X124547619Y-118119047D01*
X124547619Y-118023809D01*
X124595238Y-117880952D01*
X124690476Y-117785714D01*
X124785714Y-117738095D01*
X124976190Y-117690476D01*
X125119047Y-117690476D01*
X125309523Y-117738095D01*
X125404761Y-117785714D01*
X125500000Y-117880952D01*
X125547619Y-118023809D01*
X125547619Y-118119047D01*
X125500000Y-118261904D01*
X125452380Y-118309523D01*
D13*
%TO.C,U2*%
X135135000Y-96760000D02*
X135860000Y-96760000D01*
X131640000Y-96760000D02*
X131640000Y-96035000D01*
X135860000Y-92540000D02*
X135860000Y-93265000D01*
X135135000Y-92540000D02*
X135860000Y-92540000D01*
X132365000Y-96760000D02*
X131640000Y-96760000D01*
X135860000Y-96760000D02*
X135860000Y-96035000D01*
X132232843Y-92850000D02*
G75*
G03*
X132232843Y-92850000I-282843J0D01*
G01*
%TO.C,U1*%
X139370000Y-82630000D02*
X139370000Y-83630000D01*
X140150000Y-100870000D02*
X139370000Y-100870000D01*
X139370000Y-100870000D02*
X139370000Y-99870000D01*
X140150000Y-82630000D02*
X139370000Y-82630000D01*
%TO.C,R3*%
X125300000Y-84450000D02*
X125300000Y-83850000D01*
X124300000Y-84450000D02*
X124300000Y-83850000D01*
%TO.C,C1*%
X131600000Y-91300000D02*
X131000000Y-91300000D01*
X131600000Y-90300000D02*
X131000000Y-90300000D01*
%TO.C,R5*%
X129600000Y-107100000D02*
X129600000Y-106500000D01*
X128600000Y-107100000D02*
X128600000Y-106500000D01*
%TO.C,R4*%
X129600000Y-102300000D02*
X129600000Y-101700000D01*
X128600000Y-102300000D02*
X128600000Y-101700000D01*
%TO.C,R6*%
X134800000Y-99500000D02*
X134800000Y-98900000D01*
X133800000Y-99500000D02*
X133800000Y-98900000D01*
%TO.C,R7*%
X132400000Y-98900000D02*
X132400000Y-99500000D01*
X133400000Y-98900000D02*
X133400000Y-99500000D01*
%TO.C,R1*%
X123100000Y-84450000D02*
X123100000Y-83850000D01*
X124100000Y-84450000D02*
X124100000Y-83850000D01*
%TO.C,R2*%
X126500000Y-84450000D02*
X126500000Y-83850000D01*
X125500000Y-84450000D02*
X125500000Y-83850000D01*
%TO.C,C4*%
X127825000Y-110300000D02*
X127225000Y-110300000D01*
X127825000Y-111300000D02*
X127225000Y-111300000D01*
%TO.C,C2*%
X135200000Y-99500000D02*
X135200000Y-98900000D01*
X136200000Y-99500000D02*
X136200000Y-98900000D01*
%TO.C,C3*%
X132000000Y-99500000D02*
X132000000Y-98900000D01*
X131000000Y-99500000D02*
X131000000Y-98900000D01*
%TO.C,D2*%
X159300000Y-110560000D02*
X161200000Y-110560000D01*
X160700000Y-108240000D02*
X159300000Y-108240000D01*
%TO.C,Q1*%
X134190000Y-109400000D02*
X134190000Y-108750000D01*
X134190000Y-109400000D02*
X134190000Y-110050000D01*
X137310000Y-109400000D02*
X137310000Y-110050000D01*
X137310000Y-109400000D02*
X137310000Y-107725000D01*
%TO.C,C6*%
X139500000Y-109100000D02*
X139500000Y-109700000D01*
X138500000Y-109100000D02*
X138500000Y-109700000D01*
%TO.C,R10*%
X131500000Y-105500000D02*
X130900000Y-105500000D01*
X131500000Y-106500000D02*
X130900000Y-106500000D01*
%TO.C,J5*%
X137600000Y-112000000D02*
X137600000Y-120000000D01*
X127400000Y-112000000D02*
X127400000Y-120000000D01*
X127400000Y-112000000D02*
X137600000Y-112000000D01*
%TO.C,R9*%
X124800000Y-97750000D02*
X124200000Y-97750000D01*
X124800000Y-96750000D02*
X124200000Y-96750000D01*
%TO.C,SW1*%
X130000000Y-85150000D02*
X130000000Y-86650000D01*
X135750000Y-82650000D02*
X131250000Y-82650000D01*
X137000000Y-86650000D02*
X137000000Y-85150000D01*
X131250000Y-89150000D02*
X135750000Y-89150000D01*
%TO.C,D3*%
X150550000Y-110560000D02*
X151950000Y-110560000D01*
X151950000Y-108240000D02*
X150050000Y-108240000D01*
%TO.C,D4*%
X121315000Y-112035000D02*
X125200000Y-112035000D01*
X125200000Y-109765000D02*
X121315000Y-109765000D01*
X121315000Y-109765000D02*
X121315000Y-112035000D01*
%TO.C,C5*%
X135736252Y-107060000D02*
X134313748Y-107060000D01*
X135736252Y-105240000D02*
X134313748Y-105240000D01*
%TO.C,U5*%
X140100000Y-106900000D02*
X140100000Y-106750000D01*
X140100000Y-103050000D02*
X140100000Y-102900000D01*
X144900000Y-106900000D02*
X140100000Y-106900000D01*
X140100000Y-103050000D02*
X138400000Y-103050000D01*
X140100000Y-102900000D02*
X144900000Y-102900000D01*
X144900000Y-102900000D02*
X144900000Y-103050000D01*
X144900000Y-106750000D02*
X144900000Y-106900000D01*
%TO.C,J6*%
X137400000Y-112000000D02*
X137400000Y-120000000D01*
X137400000Y-112000000D02*
X147600000Y-112000000D01*
X147600000Y-112000000D02*
X147600000Y-120000000D01*
%TO.C,J2*%
X127600000Y-112000000D02*
X127600000Y-120000000D01*
X119900000Y-112000000D02*
X127600000Y-112000000D01*
X119900000Y-112000000D02*
X119900000Y-120000000D01*
%TO.C,R8*%
X121375000Y-96750000D02*
X121975000Y-96750000D01*
X121375000Y-97750000D02*
X121975000Y-97750000D01*
%TO.C,J3*%
X154900000Y-112000000D02*
X154900000Y-120000000D01*
X154900000Y-112000000D02*
X165100000Y-112000000D01*
X165100000Y-112000000D02*
X165100000Y-120000000D01*
%TO.C,J4*%
X155100000Y-112000000D02*
X155100000Y-120000000D01*
X147400000Y-112000000D02*
X147400000Y-120000000D01*
X147400000Y-112000000D02*
X155100000Y-112000000D01*
%TD*%
M02*
