M48
; DRILL file {KiCad (6.0.1-0)} date Friday, 28 January 2022 at 13:52:15
; FORMAT={-:-/ absolute / inch / decimal}
; #@! TF.CreationDate,2022-01-28T13:52:15+00:00
; #@! TF.GenerationSoftware,Kicad,Pcbnew,(6.0.1-0)
; #@! TF.FileFunction,Plated,1,2,PTH
FMAT,2
INCH
; #@! TA.AperFunction,Plated,PTH,ComponentDrill
T1C0.0098
; #@! TA.AperFunction,Plated,PTH,ViaDrill
T2C0.0157
; #@! TA.AperFunction,Plated,PTH,ComponentDrill
T3C0.0236
; #@! TA.AperFunction,Plated,PTH,ComponentDrill
T4C0.0335
; #@! TA.AperFunction,Plated,PTH,ComponentDrill
T5C0.0394
; #@! TA.AperFunction,Plated,PTH,ComponentDrill
T6C0.0433
; #@! TA.AperFunction,Plated,PTH,ComponentDrill
T7C0.0492
%
G90
G05
T1
X5.0079Y-4.9724
T2
X4.8031Y-4.9961
X4.8268Y-4.2953
X4.8464Y-5.1373
X4.8898Y-4.9331
X4.9173Y-5.1378
X4.9213Y-4.626
X4.9764Y-4.8504
X5.0Y-5.1378
X5.0039Y-4.3425
X5.0404Y-4.8557
X5.0709Y-4.3189
X5.0906Y-5.0551
X5.1142Y-4.9016
X5.1535Y-4.4055
X5.1693Y-5.0669
X5.2717Y-4.9724
X5.2953Y-5.2165
X5.4094Y-5.1063
X5.4528Y-5.2677
X5.4646Y-4.8977
X5.5276Y-5.2638
X5.563Y-5.0394
X5.5709Y-4.4213
X5.622Y-4.3937
X5.6693Y-4.3583
X5.7244Y-4.5866
X5.7283Y-5.0433
X5.811Y-5.0394
X5.8189Y-4.8898
X5.8504Y-5.2008
X5.8583Y-5.0787
X5.8652Y-4.8944
X5.9134Y-4.5669
X5.9134Y-4.6378
X5.9272Y-5.2165
X5.9409Y-5.1102
X5.9961Y-5.0787
X6.0197Y-4.8937
T3
X4.7484Y-5.402
X4.976Y-5.402
T4
X5.315Y-5.3701
X5.4134Y-5.3701
X5.5118Y-5.3701
X5.6102Y-5.3701
X5.7087Y-5.3701
X5.9055Y-5.3701
X6.0039Y-5.3701
X6.1024Y-5.3701
X6.2008Y-5.3701
T5
X4.6921Y-5.5469
X5.0323Y-5.5469
T6
X5.0492Y-4.4902
X5.0492Y-4.7461
X5.2264Y-4.4902
X5.2264Y-4.7461
T7
X4.6921Y-5.3827
X5.0323Y-5.3827
T0
M30
