%TF.GenerationSoftware,KiCad,Pcbnew,(6.0.1-0)*%
%TF.CreationDate,2022-01-24T08:29:12+00:00*%
%TF.ProjectId,ASR33,41535233-332e-46b6-9963-61645f706362,1*%
%TF.SameCoordinates,Original*%
%TF.FileFunction,Copper,L1,Top*%
%TF.FilePolarity,Positive*%
%FSLAX46Y46*%
G04 Gerber Fmt 4.6, Leading zero omitted, Abs format (unit mm)*
G04 Created by KiCad (PCBNEW (6.0.1-0)) date 2022-01-24 08:29:12*
%MOMM*%
%LPD*%
G01*
G04 APERTURE LIST*
G04 Aperture macros list*
%AMRoundRect*
0 Rectangle with rounded corners*
0 $1 Rounding radius*
0 $2 $3 $4 $5 $6 $7 $8 $9 X,Y pos of 4 corners*
0 Add a 4 corners polygon primitive as box body*
4,1,4,$2,$3,$4,$5,$6,$7,$8,$9,$2,$3,0*
0 Add four circle primitives for the rounded corners*
1,1,$1+$1,$2,$3*
1,1,$1+$1,$4,$5*
1,1,$1+$1,$6,$7*
1,1,$1+$1,$8,$9*
0 Add four rect primitives between the rounded corners*
20,1,$1+$1,$2,$3,$4,$5,0*
20,1,$1+$1,$4,$5,$6,$7,0*
20,1,$1+$1,$6,$7,$8,$9,0*
20,1,$1+$1,$8,$9,$2,$3,0*%
%AMFreePoly0*
4,1,136,3.383385,4.221938,3.559722,4.168447,3.722236,4.081581,3.864680,3.964680,3.981581,3.822236,4.068447,3.659722,4.121938,3.483385,4.125212,3.450146,4.182769,3.539510,4.186818,3.554319,4.232803,3.599839,4.295387,3.616268,4.357802,3.599205,4.403322,3.553220,4.419751,3.490636,4.402688,3.428221,4.402685,3.428218,4.172659,3.069707,4.056942,2.918754,3.981581,2.777764,
3.864680,2.635320,3.750000,2.541204,3.750000,0.022998,4.066621,-0.229499,4.408387,-0.546611,4.440740,-0.602647,4.440740,-0.667351,4.408387,-0.723387,4.352351,-0.755740,4.287647,-0.755740,4.231611,-0.723387,4.223834,-0.709917,3.889556,-0.400914,3.520256,-0.109781,3.483169,-0.085000,2.500000,-0.085000,2.500000,-1.185000,3.750000,-1.185000,3.750000,-2.745000,-3.750000,-2.745000,
-3.750000,-1.185000,-2.500000,-1.185000,-2.500000,-0.085000,-3.483168,-0.085000,-3.520257,-0.109782,-3.889557,-0.400914,-4.223835,-0.709917,-4.231612,-0.723388,-4.287648,-0.755741,-4.352352,-0.755741,-4.408388,-0.723388,-4.440741,-0.667352,-4.440741,-0.602648,-4.408388,-0.546612,-4.066622,-0.229500,-3.750000,0.022998,-3.750000,2.541204,-3.864680,2.635320,-3.981581,2.777764,-4.057092,2.919035,
-4.187017,3.090259,-4.415279,3.449900,-4.432036,3.512397,-4.415299,3.574900,-4.369553,3.620660,-4.307056,3.637417,-4.244553,3.620680,-4.198793,3.574934,-4.194818,3.560109,-4.125151,3.450765,-4.121938,3.483385,-4.068447,3.659722,-3.981581,3.822236,-3.864680,3.964680,-3.722236,4.081581,-3.559722,4.168447,-3.383385,4.221938,-3.200000,4.240000,-3.137500,4.223253,-3.091747,4.177500,
-3.075000,4.115000,-3.091747,4.052500,-3.137500,4.006747,-3.200000,3.990000,-3.211471,3.993074,-3.354511,3.976957,-3.501274,3.925602,-3.632930,3.842877,-3.742877,3.732930,-3.825602,3.601274,-3.876957,3.454511,-3.894366,3.300000,-3.876957,3.145489,-3.839651,3.038875,-3.718794,2.881317,-3.593979,2.745000,-2.998152,2.745000,-3.015000,3.045000,-2.998253,3.107500,-2.952500,3.153253,
-2.890000,3.170000,-2.827500,3.153253,-2.781747,3.107500,-2.765000,3.045000,-2.768849,3.030634,-2.752213,2.745000,2.752213,2.745000,2.768849,3.030634,2.765000,3.045000,2.781747,3.107500,2.827500,3.153253,2.890000,3.170000,2.952500,3.153253,2.998253,3.107500,3.015000,3.045000,2.998152,2.745000,3.594236,2.745000,3.703415,2.863070,3.839654,3.038885,3.876957,3.145489,
3.894366,3.300000,3.876957,3.454511,3.825602,3.601274,3.742877,3.732930,3.632930,3.842877,3.501274,3.925602,3.354511,3.976957,3.211471,3.993074,3.200000,3.990000,3.137500,4.006747,3.091747,4.052500,3.075000,4.115000,3.091747,4.177500,3.137500,4.223253,3.200000,4.240000,3.383385,4.221938,3.383385,4.221938,$1*%
%AMFreePoly1*
4,1,6,1.000000,-1.000000,-1.000000,-1.000000,-1.000000,0.750000,-0.750000,1.000000,1.000000,1.000000,1.000000,-1.000000,1.000000,-1.000000,$1*%
%AMFreePoly2*
4,1,24,1.812500,0.558253,1.858253,0.512500,1.875000,0.450000,1.860584,0.322050,1.818057,0.200517,1.749553,0.091493,1.658507,0.000447,1.549483,-0.068057,1.427950,-0.110584,1.300000,-0.125000,-1.300000,-0.125000,-1.300000,0.125000,1.300000,0.125000,1.309502,0.122454,1.401682,0.137054,1.493411,0.183792,1.566208,0.256589,1.612946,0.348318,1.627546,0.440498,1.625000,0.450000,
1.641747,0.512500,1.687500,0.558253,1.750000,0.575000,1.812500,0.558253,1.812500,0.558253,$1*%
%AMFreePoly3*
4,1,43,1.102950,0.110584,1.224483,0.068057,1.333507,-0.000447,1.424553,-0.091493,1.493057,-0.200517,1.535584,-0.322050,1.550000,-0.450000,1.533253,-0.512500,1.487500,-0.558253,1.425000,-0.575000,1.362500,-0.558253,1.316747,-0.512500,1.300000,-0.450000,1.302546,-0.440498,1.287946,-0.348318,1.241208,-0.256589,1.168411,-0.183792,1.076682,-0.137054,0.984502,-0.122454,0.975000,-0.125000,
-0.975000,-0.125000,-0.984502,-0.122454,-1.076682,-0.137054,-1.168411,-0.183792,-1.241208,-0.256589,-1.287946,-0.348318,-1.302546,-0.440498,-1.300000,-0.450000,-1.316747,-0.512500,-1.362500,-0.558253,-1.425000,-0.575000,-1.487500,-0.558253,-1.533253,-0.512500,-1.550000,-0.450000,-1.535584,-0.322050,-1.493057,-0.200517,-1.424553,-0.091493,-1.333507,-0.000447,-1.224483,0.068057,-1.102950,0.110584,
-0.975000,0.125000,0.975000,0.125000,1.102950,0.110584,1.102950,0.110584,$1*%
%AMFreePoly4*
4,1,37,1.095671,1.230970,1.176777,1.176777,1.230970,1.095671,1.250000,1.000000,1.234611,0.804457,1.188821,0.613729,1.113759,0.432512,1.011272,0.265269,0.883885,0.116117,0.734733,-0.011271,0.567490,-0.113758,0.386273,-0.188820,0.195545,-0.234610,0.000002,-0.250000,-0.095669,-0.230970,-0.176775,-0.176777,-0.230968,-0.095671,-0.249998,0.000000,-0.230968,0.095671,-0.176775,0.176777,
-0.095669,0.230970,0.000002,0.250000,0.012204,0.247573,0.147027,0.260852,0.288403,0.303738,0.418695,0.373381,0.532897,0.467104,0.626620,0.581306,0.696263,0.711599,0.739148,0.852974,0.752427,0.987798,0.750000,1.000000,0.769030,1.095671,0.823223,1.176777,0.904329,1.230970,1.000000,1.250000,1.095671,1.230970,1.095671,1.230970,$1*%
%AMFreePoly5*
4,1,72,4.686563,7.086550,4.817878,7.046716,4.938899,6.982029,5.044975,6.894975,5.132029,6.788899,5.196716,6.667878,5.236550,6.536563,5.250000,6.400000,5.250000,1.600000,5.230970,1.504329,5.176777,1.423223,5.112500,1.380275,5.112500,0.250000,6.600000,0.250000,6.695671,0.230970,6.776777,0.176777,6.830970,0.095671,6.850000,0.000000,6.830970,-0.095671,6.776777,-0.176777,
6.695671,-0.230970,6.600000,-0.250000,0.000000,-0.250000,-0.095671,-0.230970,-0.176777,-0.176777,-0.230970,-0.095671,-0.250000,0.000000,-0.230970,0.095671,-0.176777,0.176777,-0.095671,0.230970,0.000000,0.250000,4.612500,0.250000,4.612500,1.600000,4.631530,1.695671,4.685723,1.776777,4.750000,1.819725,4.750000,6.400000,4.751388,6.406978,4.742582,6.462574,4.713820,6.519022,
4.669022,6.563820,4.612574,6.592582,4.556978,6.601388,4.550000,6.600000,1.550000,6.600000,1.543022,6.601388,1.487426,6.592582,1.430978,6.563820,1.386180,6.519022,1.357418,6.462574,1.348612,6.406978,1.350000,6.400000,1.350000,5.900000,1.330970,5.804329,1.276777,5.723223,1.195671,5.669030,1.100000,5.650000,1.004329,5.669030,0.923223,5.723223,0.869030,5.804329,
0.850000,5.900000,0.850000,6.400000,0.863450,6.536563,0.903284,6.667878,0.967971,6.788899,1.055025,6.894975,1.161101,6.982029,1.282122,7.046716,1.413437,7.086550,1.550000,7.100000,4.550000,7.100000,4.686563,7.086550,4.686563,7.086550,$1*%
G04 Aperture macros list end*
%ADD10C,0.080000*%
%TA.AperFunction,NonConductor*%
%ADD11C,0.080000*%
%TD*%
%TA.AperFunction,ComponentPad*%
%ADD12RoundRect,0.250000X-0.600000X-0.675000X0.600000X-0.675000X0.600000X0.675000X-0.600000X0.675000X0*%
%TD*%
%TA.AperFunction,ComponentPad*%
%ADD13O,1.700000X1.850000*%
%TD*%
%TA.AperFunction,SMDPad,CuDef*%
%ADD14RoundRect,0.225000X0.250000X-0.225000X0.250000X0.225000X-0.250000X0.225000X-0.250000X-0.225000X0*%
%TD*%
%TA.AperFunction,SMDPad,CuDef*%
%ADD15RoundRect,0.150000X-0.587500X-0.150000X0.587500X-0.150000X0.587500X0.150000X-0.587500X0.150000X0*%
%TD*%
%TA.AperFunction,SMDPad,CuDef*%
%ADD16R,0.600000X1.140000*%
%TD*%
%TA.AperFunction,SMDPad,CuDef*%
%ADD17RoundRect,0.075000X-0.075000X-0.495000X0.075000X-0.495000X0.075000X0.495000X-0.075000X0.495000X0*%
%TD*%
%TA.AperFunction,ComponentPad*%
%ADD18C,1.250000*%
%TD*%
%TA.AperFunction,ComponentPad*%
%ADD19C,1.500000*%
%TD*%
%TA.AperFunction,SMDPad,CuDef*%
%ADD20R,5.000000X5.490000*%
%TD*%
%TA.AperFunction,ComponentPad*%
%ADD21C,0.600000*%
%TD*%
%TA.AperFunction,SMDPad,CuDef*%
%ADD22FreePoly0,0.000000*%
%TD*%
%TA.AperFunction,SMDPad,CuDef*%
%ADD23RoundRect,0.062500X-0.287500X-0.062500X0.287500X-0.062500X0.287500X0.062500X-0.287500X0.062500X0*%
%TD*%
%TA.AperFunction,SMDPad,CuDef*%
%ADD24RoundRect,0.062500X-0.062500X-0.287500X0.062500X-0.287500X0.062500X0.287500X-0.062500X0.287500X0*%
%TD*%
%TA.AperFunction,ComponentPad*%
%ADD25C,0.350000*%
%TD*%
%TA.AperFunction,SMDPad,CuDef*%
%ADD26FreePoly1,0.000000*%
%TD*%
%TA.AperFunction,SMDPad,CuDef*%
%ADD27R,0.900000X2.000000*%
%TD*%
%TA.AperFunction,SMDPad,CuDef*%
%ADD28R,2.000000X0.900000*%
%TD*%
%TA.AperFunction,SMDPad,CuDef*%
%ADD29R,5.000000X5.000000*%
%TD*%
%TA.AperFunction,SMDPad,CuDef*%
%ADD30RoundRect,0.200000X0.275000X-0.200000X0.275000X0.200000X-0.275000X0.200000X-0.275000X-0.200000X0*%
%TD*%
%TA.AperFunction,SMDPad,CuDef*%
%ADD31RoundRect,0.225000X-0.250000X0.225000X-0.250000X-0.225000X0.250000X-0.225000X0.250000X0.225000X0*%
%TD*%
%TA.AperFunction,SMDPad,CuDef*%
%ADD32RoundRect,0.200000X0.200000X0.275000X-0.200000X0.275000X-0.200000X-0.275000X0.200000X-0.275000X0*%
%TD*%
%TA.AperFunction,SMDPad,CuDef*%
%ADD33RoundRect,0.200000X-0.200000X-0.275000X0.200000X-0.275000X0.200000X0.275000X-0.200000X0.275000X0*%
%TD*%
%TA.AperFunction,SMDPad,CuDef*%
%ADD34R,0.500000X0.850000*%
%TD*%
%TA.AperFunction,SMDPad,CuDef*%
%ADD35RoundRect,0.225000X-0.225000X-0.250000X0.225000X-0.250000X0.225000X0.250000X-0.225000X0.250000X0*%
%TD*%
%TA.AperFunction,SMDPad,CuDef*%
%ADD36RoundRect,0.225000X0.225000X0.250000X-0.225000X0.250000X-0.225000X-0.250000X0.225000X-0.250000X0*%
%TD*%
%TA.AperFunction,SMDPad,CuDef*%
%ADD37RoundRect,0.137500X-0.262500X-0.137500X0.262500X-0.137500X0.262500X0.137500X-0.262500X0.137500X0*%
%TD*%
%TA.AperFunction,SMDPad,CuDef*%
%ADD38R,0.650000X0.400000*%
%TD*%
%TA.AperFunction,SMDPad,CuDef*%
%ADD39RoundRect,0.200000X-0.275000X0.200000X-0.275000X-0.200000X0.275000X-0.200000X0.275000X0.200000X0*%
%TD*%
%TA.AperFunction,SMDPad,CuDef*%
%ADD40FreePoly2,90.000000*%
%TD*%
%TA.AperFunction,SMDPad,CuDef*%
%ADD41R,1.100000X0.600000*%
%TD*%
%TA.AperFunction,SMDPad,CuDef*%
%ADD42FreePoly3,90.000000*%
%TD*%
%TA.AperFunction,SMDPad,CuDef*%
%ADD43R,3.700000X1.425000*%
%TD*%
%TA.AperFunction,SMDPad,CuDef*%
%ADD44R,0.500000X2.000000*%
%TD*%
%TA.AperFunction,SMDPad,CuDef*%
%ADD45RoundRect,0.249375X0.625625X-0.463125X0.625625X0.463125X-0.625625X0.463125X-0.625625X-0.463125X0*%
%TD*%
%TA.AperFunction,SMDPad,CuDef*%
%ADD46R,2.000000X0.500000*%
%TD*%
%TA.AperFunction,SMDPad,CuDef*%
%ADD47FreePoly4,90.000000*%
%TD*%
%TA.AperFunction,SMDPad,CuDef*%
%ADD48RoundRect,0.250000X-0.250000X-0.475000X0.250000X-0.475000X0.250000X0.475000X-0.250000X0.475000X0*%
%TD*%
%TA.AperFunction,SMDPad,CuDef*%
%ADD49FreePoly5,90.000000*%
%TD*%
%TA.AperFunction,SMDPad,CuDef*%
%ADD50R,4.000000X0.500000*%
%TD*%
%TA.AperFunction,ViaPad*%
%ADD51C,0.800000*%
%TD*%
%TA.AperFunction,Conductor*%
%ADD52C,0.200000*%
%TD*%
%TA.AperFunction,Conductor*%
%ADD53C,0.250000*%
%TD*%
%TA.AperFunction,Conductor*%
%ADD54C,0.500000*%
%TD*%
G04 APERTURE END LIST*
D10*
D11*
X154471428Y-132573809D02*
X154495238Y-132550000D01*
X154542857Y-132526190D01*
X154661904Y-132526190D01*
X154709523Y-132550000D01*
X154733333Y-132573809D01*
X154757142Y-132621428D01*
X154757142Y-132669047D01*
X154733333Y-132740476D01*
X154447619Y-133026190D01*
X154757142Y-133026190D01*
X155066666Y-132526190D02*
X155114285Y-132526190D01*
X155161904Y-132550000D01*
X155185714Y-132573809D01*
X155209523Y-132621428D01*
X155233333Y-132716666D01*
X155233333Y-132835714D01*
X155209523Y-132930952D01*
X155185714Y-132978571D01*
X155161904Y-133002380D01*
X155114285Y-133026190D01*
X155066666Y-133026190D01*
X155019047Y-133002380D01*
X154995238Y-132978571D01*
X154971428Y-132930952D01*
X154947619Y-132835714D01*
X154947619Y-132716666D01*
X154971428Y-132621428D01*
X154995238Y-132573809D01*
X155019047Y-132550000D01*
X155066666Y-132526190D01*
X155423809Y-132573809D02*
X155447619Y-132550000D01*
X155495238Y-132526190D01*
X155614285Y-132526190D01*
X155661904Y-132550000D01*
X155685714Y-132573809D01*
X155709523Y-132621428D01*
X155709523Y-132669047D01*
X155685714Y-132740476D01*
X155400000Y-133026190D01*
X155709523Y-133026190D01*
X155900000Y-132573809D02*
X155923809Y-132550000D01*
X155971428Y-132526190D01*
X156090476Y-132526190D01*
X156138095Y-132550000D01*
X156161904Y-132573809D01*
X156185714Y-132621428D01*
X156185714Y-132669047D01*
X156161904Y-132740476D01*
X155876190Y-133026190D01*
X156185714Y-133026190D01*
X156400000Y-132835714D02*
X156780952Y-132835714D01*
X157114285Y-132526190D02*
X157161904Y-132526190D01*
X157209523Y-132550000D01*
X157233333Y-132573809D01*
X157257142Y-132621428D01*
X157280952Y-132716666D01*
X157280952Y-132835714D01*
X157257142Y-132930952D01*
X157233333Y-132978571D01*
X157209523Y-133002380D01*
X157161904Y-133026190D01*
X157114285Y-133026190D01*
X157066666Y-133002380D01*
X157042857Y-132978571D01*
X157019047Y-132930952D01*
X156995238Y-132835714D01*
X156995238Y-132716666D01*
X157019047Y-132621428D01*
X157042857Y-132573809D01*
X157066666Y-132550000D01*
X157114285Y-132526190D01*
X157757142Y-133026190D02*
X157471428Y-133026190D01*
X157614285Y-133026190D02*
X157614285Y-132526190D01*
X157566666Y-132597619D01*
X157519047Y-132645238D01*
X157471428Y-132669047D01*
X157971428Y-132835714D02*
X158352380Y-132835714D01*
X158566666Y-132573809D02*
X158590476Y-132550000D01*
X158638095Y-132526190D01*
X158757142Y-132526190D01*
X158804761Y-132550000D01*
X158828571Y-132573809D01*
X158852380Y-132621428D01*
X158852380Y-132669047D01*
X158828571Y-132740476D01*
X158542857Y-133026190D01*
X158852380Y-133026190D01*
X159280952Y-132692857D02*
X159280952Y-133026190D01*
X159161904Y-132502380D02*
X159042857Y-132859523D01*
X159352380Y-132859523D01*
D12*
%TO.P,J3,1,Pin_1*%
%TO.N,GND*%
X135000000Y-136400000D03*
D13*
%TO.P,J3,2,Pin_2*%
%TO.N,START*%
X137500000Y-136400000D03*
%TO.P,J3,3,Pin_3*%
%TO.N,Net-(J3-Pad3)*%
X140000000Y-136400000D03*
%TO.P,J3,4,Pin_4*%
%TO.N,Net-(J3-Pad4)*%
X142500000Y-136400000D03*
%TO.P,J3,5,Pin_5*%
%TO.N,Net-(J3-Pad5)*%
X145000000Y-136400000D03*
%TO.P,J3,6,Pin_6*%
%TO.N,RX20MA*%
X147500000Y-136400000D03*
%TD*%
D14*
%TO.P,C5,1*%
%TO.N,GND*%
X145000000Y-132775000D03*
%TO.P,C5,2*%
%TO.N,RX20MA*%
X145000000Y-131225000D03*
%TD*%
D12*
%TO.P,J2,1,Pin_1*%
%TO.N,GND*%
X152500000Y-136400000D03*
D13*
%TO.P,J2,2,Pin_2*%
%TO.N,POWER*%
X155000000Y-136400000D03*
%TO.P,J2,3,Pin_3*%
%TO.N,MOTOR*%
X157500000Y-136400000D03*
%TD*%
D15*
%TO.P,Q1,3,D*%
%TO.N,Net-(J3-Pad4)*%
X141437500Y-132000000D03*
%TO.P,Q1,2,S*%
%TO.N,GND*%
X139562500Y-132950000D03*
%TO.P,Q1,1,G*%
%TO.N,TX20MA*%
X139562500Y-131050000D03*
%TD*%
D16*
%TO.P,J1,A1,GND*%
%TO.N,GND*%
X120300000Y-136140000D03*
%TO.P,J1,A4,VBUS*%
%TO.N,VBUS*%
X121100000Y-136140000D03*
D17*
%TO.P,J1,A5,CC1*%
%TO.N,Net-(J1-PadA5)*%
X122250000Y-136140000D03*
%TO.P,J1,A6,D+*%
%TO.N,Net-(C3-Pad1)*%
X123250000Y-136140000D03*
%TO.P,J1,A7,D-*%
%TO.N,Net-(C2-Pad1)*%
X123750000Y-136140000D03*
%TO.P,J1,A8,SBU1*%
%TO.N,unconnected-(J1-PadA8)*%
X124750000Y-136140000D03*
D16*
%TO.P,J1,A9,VBUS*%
%TO.N,VBUS*%
X125900000Y-136140000D03*
%TO.P,J1,A12,GND*%
%TO.N,GND*%
X126700000Y-136140000D03*
%TO.P,J1,B1,GND*%
X126700000Y-136140000D03*
%TO.P,J1,B4,VBUS*%
%TO.N,VBUS*%
X125900000Y-136140000D03*
D17*
%TO.P,J1,B5,CC2*%
%TO.N,Net-(J1-PadB5)*%
X125250000Y-136140000D03*
%TO.P,J1,B6,D+*%
%TO.N,Net-(C3-Pad1)*%
X124250000Y-136140000D03*
%TO.P,J1,B7,D-*%
%TO.N,Net-(C2-Pad1)*%
X122750000Y-136140000D03*
%TO.P,J1,B8,SBU2*%
%TO.N,unconnected-(J1-PadB8)*%
X121750000Y-136140000D03*
D16*
%TO.P,J1,B9,VBUS*%
%TO.N,VBUS*%
X121100000Y-136140000D03*
%TO.P,J1,B12,GND*%
%TO.N,GND*%
X120300000Y-136140000D03*
D18*
%TO.P,J1,S1,SHIELD*%
X127820000Y-140890000D03*
X119180000Y-140890000D03*
D19*
X127820000Y-136720000D03*
D20*
X123500000Y-140255000D03*
D21*
X126390000Y-137210000D03*
D19*
X119180000Y-136720000D03*
D21*
X120610000Y-137210000D03*
D22*
X123500000Y-140255000D03*
%TD*%
D23*
%TO.P,U2,1,RXD*%
%TO.N,O*%
X125300000Y-125300000D03*
%TO.P,U2,2,~{RI}*%
%TO.N,GND*%
X125300000Y-125800000D03*
%TO.P,U2,3,GND*%
X125300000Y-126300000D03*
%TO.P,U2,4,~{DSR}*%
X125300000Y-126800000D03*
%TO.P,U2,5,~{DCD}*%
X125300000Y-127300000D03*
D24*
%TO.P,U2,6,~{CTS}*%
X126200000Y-128200000D03*
%TO.P,U2,7,CBUS2*%
%TO.N,unconnected-(U2-Pad7)*%
X126700000Y-128200000D03*
%TO.P,U2,8,USBDP*%
%TO.N,D+*%
X127200000Y-128200000D03*
%TO.P,U2,9,USBDM*%
%TO.N,D-*%
X127700000Y-128200000D03*
%TO.P,U2,10,3V3OUT*%
%TO.N,Net-(C1-Pad1)*%
X128200000Y-128200000D03*
D23*
%TO.P,U2,11,~{RESET}*%
X129100000Y-127300000D03*
%TO.P,U2,12,VCC*%
%TO.N,VBUS*%
X129100000Y-126800000D03*
%TO.P,U2,13,GND*%
%TO.N,GND*%
X129100000Y-126300000D03*
%TO.P,U2,14,CBUS1*%
%TO.N,CHARGER*%
X129100000Y-125800000D03*
%TO.P,U2,15,CBUS0*%
%TO.N,USB*%
X129100000Y-125300000D03*
D24*
%TO.P,U2,16,CBUS3*%
%TO.N,unconnected-(U2-Pad16)*%
X128200000Y-124400000D03*
%TO.P,U2,17,TXD*%
%TO.N,I*%
X127700000Y-124400000D03*
%TO.P,U2,18,~{DTR}*%
%TO.N,GPIO0*%
X127200000Y-124400000D03*
%TO.P,U2,19,~{RTS}*%
%TO.N,EN*%
X126700000Y-124400000D03*
%TO.P,U2,20,VCCIO*%
%TO.N,Net-(C1-Pad1)*%
X126200000Y-124400000D03*
D25*
%TO.P,U2,21,GND*%
%TO.N,GND*%
X127200000Y-126300000D03*
D26*
X127200000Y-126300000D03*
%TD*%
D27*
%TO.P,U1,1,GND*%
%TO.N,GND*%
X152890000Y-109000000D03*
%TO.P,U1,2,VDD*%
%TO.N,+3V3*%
X151620000Y-109000000D03*
%TO.P,U1,3,EN*%
%TO.N,EN*%
X150350000Y-109000000D03*
%TO.P,U1,4,SENSOR_VP*%
%TO.N,unconnected-(U1-Pad4)*%
X149080000Y-109000000D03*
%TO.P,U1,5,SENSOR_VN*%
%TO.N,unconnected-(U1-Pad5)*%
X147810000Y-109000000D03*
%TO.P,U1,6,IO34*%
%TO.N,unconnected-(U1-Pad6)*%
X146540000Y-109000000D03*
%TO.P,U1,7,IO35*%
%TO.N,unconnected-(U1-Pad7)*%
X145270000Y-109000000D03*
%TO.P,U1,8,IO32*%
%TO.N,R*%
X144000000Y-109000000D03*
%TO.P,U1,9,IO33*%
%TO.N,B*%
X142730000Y-109000000D03*
%TO.P,U1,10,IO25*%
%TO.N,G*%
X141460000Y-109000000D03*
%TO.P,U1,11,IO26*%
%TO.N,unconnected-(U1-Pad11)*%
X140190000Y-109000000D03*
%TO.P,U1,12,IO27*%
%TO.N,unconnected-(U1-Pad12)*%
X138920000Y-109000000D03*
%TO.P,U1,13,IO14*%
%TO.N,unconnected-(U1-Pad13)*%
X137650000Y-109000000D03*
%TO.P,U1,14,IO12*%
%TO.N,unconnected-(U1-Pad14)*%
X136380000Y-109000000D03*
D28*
%TO.P,U1,15,GND*%
%TO.N,GND*%
X135380000Y-111785000D03*
%TO.P,U1,16,IO13*%
%TO.N,unconnected-(U1-Pad16)*%
X135380000Y-113055000D03*
%TO.P,U1,17,SHD/SD2*%
%TO.N,unconnected-(U1-Pad17)*%
X135380000Y-114325000D03*
%TO.P,U1,18,SWP/SD3*%
%TO.N,unconnected-(U1-Pad18)*%
X135380000Y-115595000D03*
%TO.P,U1,19,SCS/CMD*%
%TO.N,unconnected-(U1-Pad19)*%
X135380000Y-116865000D03*
%TO.P,U1,20,SCK/CLK*%
%TO.N,unconnected-(U1-Pad20)*%
X135380000Y-118135000D03*
%TO.P,U1,21,SDO/SD0*%
%TO.N,unconnected-(U1-Pad21)*%
X135380000Y-119405000D03*
%TO.P,U1,22,SDI/SD1*%
%TO.N,unconnected-(U1-Pad22)*%
X135380000Y-120675000D03*
%TO.P,U1,23,IO15*%
%TO.N,USB*%
X135380000Y-121945000D03*
%TO.P,U1,24,IO2*%
%TO.N,CHARGER*%
X135380000Y-123215000D03*
D27*
%TO.P,U1,25,IO0*%
%TO.N,GPIO0*%
X136380000Y-126000000D03*
%TO.P,U1,26,IO4*%
%TO.N,START*%
X137650000Y-126000000D03*
%TO.P,U1,27,IO16*%
%TO.N,TX20MA*%
X138920000Y-126000000D03*
%TO.P,U1,28,IO17*%
%TO.N,RX20MA*%
X140190000Y-126000000D03*
%TO.P,U1,29,IO5*%
%TO.N,unconnected-(U1-Pad29)*%
X141460000Y-126000000D03*
%TO.P,U1,30,IO18*%
%TO.N,unconnected-(U1-Pad30)*%
X142730000Y-126000000D03*
%TO.P,U1,31,IO19*%
%TO.N,unconnected-(U1-Pad31)*%
X144000000Y-126000000D03*
%TO.P,U1,32,NC*%
%TO.N,unconnected-(U1-Pad32)*%
X145270000Y-126000000D03*
%TO.P,U1,33,IO21*%
%TO.N,unconnected-(U1-Pad33)*%
X146540000Y-126000000D03*
%TO.P,U1,34,RXD0/IO3*%
%TO.N,I*%
X147810000Y-126000000D03*
%TO.P,U1,35,TXD0/IO1*%
%TO.N,O*%
X149080000Y-126000000D03*
%TO.P,U1,36,IO22*%
%TO.N,POWER*%
X150350000Y-126000000D03*
%TO.P,U1,37,IO23*%
%TO.N,MOTOR*%
X151620000Y-126000000D03*
%TO.P,U1,38,GND*%
%TO.N,GND*%
X152890000Y-126000000D03*
D29*
%TO.P,U1,39,GND*%
X145390000Y-116500000D03*
%TD*%
D30*
%TO.P,R3,1*%
%TO.N,Net-(D1-Pad4)*%
X123800000Y-111825000D03*
%TO.P,R3,2*%
%TO.N,B*%
X123800000Y-110175000D03*
%TD*%
D31*
%TO.P,C1,1*%
%TO.N,Net-(C1-Pad1)*%
X123100000Y-124225000D03*
%TO.P,C1,2*%
%TO.N,GND*%
X123100000Y-125775000D03*
%TD*%
D32*
%TO.P,R5,1*%
%TO.N,GND*%
X126700000Y-134700000D03*
%TO.P,R5,2*%
%TO.N,Net-(J1-PadB5)*%
X125050000Y-134700000D03*
%TD*%
%TO.P,R4,1*%
%TO.N,Net-(J1-PadA5)*%
X121950000Y-134700000D03*
%TO.P,R4,2*%
%TO.N,GND*%
X120300000Y-134700000D03*
%TD*%
D33*
%TO.P,R6,1*%
%TO.N,Net-(C2-Pad1)*%
X124175000Y-131400000D03*
%TO.P,R6,2*%
%TO.N,D-*%
X125825000Y-131400000D03*
%TD*%
%TO.P,R7,1*%
%TO.N,D+*%
X121475000Y-131400000D03*
%TO.P,R7,2*%
%TO.N,Net-(C3-Pad1)*%
X123125000Y-131400000D03*
%TD*%
D34*
%TO.P,D1,1,A*%
%TO.N,+3V3*%
X121600000Y-110125000D03*
%TO.P,D1,2,RK*%
%TO.N,Net-(D1-Pad2)*%
X121600000Y-111875000D03*
%TO.P,D1,3,GK*%
%TO.N,Net-(D1-Pad3)*%
X120600000Y-111875000D03*
%TO.P,D1,4,BK*%
%TO.N,Net-(D1-Pad4)*%
X120600000Y-110125000D03*
%TD*%
D30*
%TO.P,R1,1*%
%TO.N,Net-(D1-Pad2)*%
X122600000Y-111825000D03*
%TO.P,R1,2*%
%TO.N,R*%
X122600000Y-110175000D03*
%TD*%
%TO.P,R2,1*%
%TO.N,Net-(D1-Pad3)*%
X125000000Y-111825000D03*
%TO.P,R2,2*%
%TO.N,G*%
X125000000Y-110175000D03*
%TD*%
D35*
%TO.P,C4,1*%
%TO.N,GND*%
X118925000Y-133500000D03*
%TO.P,C4,2*%
%TO.N,VBUS*%
X120475000Y-133500000D03*
%TD*%
%TO.P,C2,1*%
%TO.N,Net-(C2-Pad1)*%
X124225000Y-132600000D03*
%TO.P,C2,2*%
%TO.N,GND*%
X125775000Y-132600000D03*
%TD*%
D36*
%TO.P,C3,1*%
%TO.N,Net-(C3-Pad1)*%
X123075000Y-132600000D03*
%TO.P,C3,2*%
%TO.N,GND*%
X121525000Y-132600000D03*
%TD*%
D37*
%TO.P,U4,6,REXT*%
%TO.N,unconnected-(U4-Pad6)*%
X132200000Y-131050000D03*
%TO.P,U4,5,IOUT*%
%TO.N,Net-(J3-Pad5)*%
X132200000Y-132000000D03*
%TO.P,U4,4,VS*%
%TO.N,VBUS*%
X132200000Y-132950000D03*
%TO.P,U4,3,IOUT*%
%TO.N,Net-(J3-Pad5)*%
X129800000Y-132950000D03*
%TO.P,U4,2,IOUT*%
X129800000Y-132000000D03*
%TO.P,U4,1,GND*%
%TO.N,GND*%
X129800000Y-131050000D03*
%TD*%
%TO.P,U3,6,REXT*%
%TO.N,unconnected-(U3-Pad6)*%
X136200000Y-131050000D03*
%TO.P,U3,5,IOUT*%
%TO.N,Net-(J3-Pad3)*%
X136200000Y-132000000D03*
%TO.P,U3,4,VS*%
%TO.N,VBUS*%
X136200000Y-132950000D03*
%TO.P,U3,3,IOUT*%
%TO.N,Net-(J3-Pad3)*%
X133800000Y-132950000D03*
%TO.P,U3,2,IOUT*%
X133800000Y-132000000D03*
%TO.P,U3,1,GND*%
%TO.N,GND*%
X133800000Y-131050000D03*
%TD*%
D38*
%TO.P,D2,1,A1*%
%TO.N,GND*%
X151050000Y-131350000D03*
%TO.P,D2,2,K2*%
%TO.N,+3V3*%
X151050000Y-132000000D03*
%TO.P,D2,3,K1A2*%
%TO.N,POWER*%
X151050000Y-132650000D03*
%TO.P,D2,4,A3*%
%TO.N,GND*%
X152950000Y-132650000D03*
%TO.P,D2,5,K4*%
%TO.N,+3V3*%
X152950000Y-132000000D03*
%TO.P,D2,6,K3A4*%
%TO.N,MOTOR*%
X152950000Y-131350000D03*
%TD*%
D30*
%TO.P,R10,1*%
%TO.N,GND*%
X118900000Y-122925000D03*
%TO.P,R10,2*%
%TO.N,Net-(R10-Pad2)*%
X118900000Y-121275000D03*
%TD*%
%TO.P,R9,1*%
%TO.N,GND*%
X143400000Y-132825000D03*
%TO.P,R9,2*%
%TO.N,RX20MA*%
X143400000Y-131175000D03*
%TD*%
D38*
%TO.P,D3,1,A1*%
%TO.N,GND*%
X147050000Y-131350000D03*
%TO.P,D3,2,K2*%
%TO.N,+3V3*%
X147050000Y-132000000D03*
%TO.P,D3,3,K1A2*%
%TO.N,START*%
X147050000Y-132650000D03*
%TO.P,D3,4,A3*%
%TO.N,GND*%
X148950000Y-132650000D03*
%TO.P,D3,5,K4*%
%TO.N,+3V3*%
X148950000Y-132000000D03*
%TO.P,D3,6,K3A4*%
%TO.N,RX20MA*%
X148950000Y-131350000D03*
%TD*%
D39*
%TO.P,R8,1*%
%TO.N,+3V3*%
X118900000Y-118175000D03*
%TO.P,R8,2*%
%TO.N,Net-(R10-Pad2)*%
X118900000Y-119825000D03*
%TD*%
D36*
%TO.P,U5,*%
%TO.N,*%
X123425000Y-122400000D03*
D40*
X121950000Y-121100000D03*
D41*
X121050000Y-119350000D03*
D42*
X122850000Y-120775000D03*
D43*
X122450000Y-117900000D03*
D44*
X123750000Y-118400000D03*
D45*
X125570000Y-119502500D03*
D36*
X121875000Y-122400000D03*
D46*
X124700000Y-119350000D03*
D41*
X123750000Y-119350000D03*
%TO.P,U5,1,SHDN*%
%TO.N,Net-(U5-Pad1)*%
X123750000Y-121250000D03*
D47*
%TO.P,U5,2,VIN*%
X124950000Y-121360000D03*
D48*
X125000000Y-121150000D03*
D41*
X123750000Y-120300000D03*
D49*
%TO.P,U5,3,GND*%
%TO.N,GND*%
X126900000Y-121400000D03*
D41*
X121050000Y-120300000D03*
D48*
X126900000Y-114900000D03*
X126900000Y-121150000D03*
D45*
X125570000Y-116537500D03*
D48*
%TO.P,U5,4,VOUT*%
%TO.N,+3V3*%
X125000000Y-114900000D03*
D43*
X122450000Y-114900000D03*
D50*
X123200000Y-114900000D03*
D41*
%TO.P,U5,5,FB*%
%TO.N,Net-(R10-Pad2)*%
X121050000Y-121250000D03*
%TD*%
D51*
%TO.N,GND*%
X148800000Y-130200000D03*
%TO.N,GPIO0*%
X138200000Y-122400000D03*
%TO.N,GND*%
X131700000Y-135600000D03*
X135100000Y-130200000D03*
%TO.N,+3V3*%
X150200000Y-117800000D03*
%TO.N,GND*%
X151400000Y-130200000D03*
%TO.N,+3V3*%
X148000000Y-132000000D03*
X152000000Y-132000000D03*
%TO.N,GND*%
X145400000Y-116500000D03*
X119100000Y-113700000D03*
X127000000Y-130500000D03*
X125600000Y-118000000D03*
%TO.N,+3V3*%
X146700000Y-113400498D03*
X126900000Y-113300000D03*
%TO.N,Net-(C1-Pad1)*%
X122000000Y-126900000D03*
X129300000Y-128400000D03*
%TO.N,O*%
X149000000Y-124400000D03*
X124400000Y-125100000D03*
%TO.N,I*%
X128019466Y-123432533D03*
X147800000Y-124300000D03*
%TO.N,EN*%
X126300000Y-123300000D03*
X150300000Y-115000000D03*
%TO.N,GPIO0*%
X128700000Y-122300000D03*
%TO.N,R*%
X144000000Y-110700000D03*
X122600000Y-109100000D03*
%TO.N,G*%
X127100000Y-110300000D03*
X141500000Y-112300000D03*
%TO.N,B*%
X128800000Y-109700000D03*
X142800000Y-111600000D03*
%TO.N,Net-(C3-Pad1)*%
X124900000Y-130500000D03*
X123097807Y-130486523D03*
%TD*%
D52*
%TO.N,D-*%
X125825000Y-131400000D02*
X125825000Y-130375000D01*
X126500000Y-129700000D02*
X126600000Y-129700000D01*
X126500000Y-129700000D02*
G75*
G03*
X125825000Y-130375000I0J-675000D01*
G01*
X127700000Y-128200000D02*
X127700000Y-128600000D01*
X126600000Y-129700000D02*
G75*
G03*
X127700000Y-128600000I-2J1100002D01*
G01*
D53*
%TO.N,VBUS*%
X126800000Y-133200000D02*
G75*
G03*
X125900000Y-134100000I0J-900000D01*
G01*
X128000000Y-133100000D02*
G75*
G02*
X127900000Y-133200000I-99999J-1D01*
G01*
X129100000Y-129300000D02*
G75*
G03*
X128000000Y-130400000I2J-1100002D01*
G01*
X129100000Y-129300000D02*
X133000000Y-129300000D01*
X125900000Y-136140000D02*
X125900000Y-134100000D01*
X126800000Y-133200000D02*
X127900000Y-133200000D01*
X128000000Y-133100000D02*
X128000000Y-130400000D01*
D52*
%TO.N,D+*%
X126561973Y-129300000D02*
G75*
G03*
X127200000Y-128661973I-1J638028D01*
G01*
X126561973Y-129300000D02*
X122500000Y-129300000D01*
X121400000Y-130400000D02*
X121400000Y-131325000D01*
X121400000Y-130400000D02*
G75*
G02*
X122500000Y-129300000I1100002J-2D01*
G01*
X121475000Y-131400000D02*
G75*
G02*
X121400000Y-131325000I0J75000D01*
G01*
X127200000Y-128237500D02*
X127200000Y-128661973D01*
D53*
%TO.N,GND*%
X140000000Y-131900000D02*
G75*
G03*
X139562500Y-132337500I1J-437501D01*
G01*
X142800000Y-132800000D02*
G75*
G02*
X142600000Y-132600000I1J200001D01*
G01*
X141028928Y-131000000D02*
G75*
G03*
X141000000Y-131028928I1J-28929D01*
G01*
X142600000Y-131300000D02*
G75*
G03*
X142300000Y-131000000I-300000J0D01*
G01*
X143400000Y-132825000D02*
G75*
G03*
X143375000Y-132800000I-24999J1D01*
G01*
X139562500Y-132950000D02*
X139562500Y-132337500D01*
X140000000Y-131900000D02*
X140128928Y-131900000D01*
X140128928Y-131900000D02*
X141000000Y-131028928D01*
X141028928Y-131000000D02*
X142300000Y-131000000D01*
X142800000Y-132800000D02*
X143375000Y-132800000D01*
X142600000Y-131300000D02*
X142600000Y-132600000D01*
%TO.N,RX20MA*%
X144225000Y-131175000D02*
X144950000Y-131175000D01*
X143400000Y-131175000D02*
X144225000Y-131175000D01*
X144200000Y-127800000D02*
G75*
G02*
X144225000Y-127825000I1J-24999D01*
G01*
X140800000Y-127800000D02*
X144200000Y-127800000D01*
X144200000Y-127800000D02*
X148500000Y-127800000D01*
X144225000Y-131175000D02*
X144225000Y-127825000D01*
X145000000Y-131225000D02*
G75*
G03*
X144950000Y-131175000I-50001J-1D01*
G01*
%TO.N,GPIO0*%
X138200000Y-124000000D02*
X138200000Y-122400000D01*
X138200000Y-124000000D02*
G75*
G02*
X137600000Y-124600000I-600000J0D01*
G01*
X136380000Y-126000000D02*
X136380000Y-125420000D01*
X137200000Y-124600000D02*
X137600000Y-124600000D01*
X137200000Y-124600000D02*
G75*
G03*
X136380000Y-125420000I-2J-819998D01*
G01*
%TO.N,USB*%
X133500000Y-124900000D02*
G75*
G02*
X133100000Y-125300000I-399999J-1D01*
G01*
X134155000Y-121945000D02*
G75*
G03*
X133500000Y-122600000I0J-655000D01*
G01*
X134155000Y-121945000D02*
X135380000Y-121945000D01*
X129100000Y-125300000D02*
X133100000Y-125300000D01*
X133500000Y-124900000D02*
X133500000Y-122600000D01*
%TO.N,CHARGER*%
X134000000Y-123800000D02*
G75*
G02*
X134585000Y-123215000I585002J-2D01*
G01*
X135380000Y-123215000D02*
X134585000Y-123215000D01*
X129100000Y-125800000D02*
X133400000Y-125800000D01*
X134000000Y-123800000D02*
X134000000Y-125200000D01*
X133400000Y-125800000D02*
G75*
G03*
X134000000Y-125200000I0J600000D01*
G01*
%TO.N,RX20MA*%
X149850000Y-135400000D02*
X149850000Y-131350000D01*
X149850000Y-131350000D02*
X149850000Y-129150000D01*
X148950000Y-131350000D02*
X149850000Y-131350000D01*
X149850000Y-135400000D02*
G75*
G02*
X148750000Y-136500000I-1100002J2D01*
G01*
X148500000Y-127800000D02*
G75*
G02*
X149850000Y-129150000I-1J-1350001D01*
G01*
X147600000Y-136500000D02*
G75*
G02*
X147500000Y-136400000I-1J99999D01*
G01*
X147600000Y-136500000D02*
X148750000Y-136500000D01*
%TO.N,+3V3*%
X149750000Y-117750000D02*
G75*
G02*
X149000000Y-117000000I0J750000D01*
G01*
X149000000Y-114460978D02*
X149000000Y-117000000D01*
X149000000Y-114460978D02*
G75*
G03*
X147939520Y-113400498I-1060479J1D01*
G01*
X151620000Y-116880000D02*
G75*
G02*
X150750000Y-117750000I-870000J0D01*
G01*
X146700000Y-113400498D02*
X147939520Y-113400498D01*
X149750000Y-117750000D02*
X150750000Y-117750000D01*
X151620000Y-116880000D02*
X151620000Y-109000000D01*
%TO.N,START*%
X137750000Y-135000000D02*
G75*
G03*
X137650000Y-135100000I-1J-99999D01*
G01*
X143750000Y-136500000D02*
G75*
G02*
X142500000Y-137750000I-1250002J2D01*
G01*
X142500000Y-137750000D02*
G75*
G02*
X141250000Y-136500000I2J1250002D01*
G01*
X141250000Y-135913978D02*
G75*
G03*
X140336022Y-135000000I-913978J0D01*
G01*
X147100000Y-133600000D02*
G75*
G02*
X146200000Y-134500000I-900000J0D01*
G01*
X141250000Y-135913978D02*
X141250000Y-136500000D01*
X145000000Y-134500000D02*
G75*
G03*
X143750000Y-135750000I2J-1250002D01*
G01*
X143750000Y-136500000D02*
X143750000Y-135750000D01*
X147050000Y-132650000D02*
G75*
G02*
X147100000Y-132700000I-1J-50001D01*
G01*
X137750000Y-135000000D02*
X140336022Y-135000000D01*
X145000000Y-134500000D02*
X146200000Y-134500000D01*
X147100000Y-133600000D02*
X147100000Y-132700000D01*
X137650000Y-135100000D02*
X137650000Y-136290000D01*
X137650000Y-126000000D02*
X137650000Y-135100000D01*
%TO.N,Net-(J3-Pad3)*%
X134450000Y-137800000D02*
G75*
G02*
X133800000Y-137150000I1J650001D01*
G01*
X133800000Y-132950000D02*
X133800000Y-137150000D01*
X140000000Y-136600000D02*
G75*
G02*
X138800000Y-137800000I-1200000J0D01*
G01*
X134450000Y-137800000D02*
X138800000Y-137800000D01*
X140000000Y-136600000D02*
X140000000Y-136400000D01*
%TO.N,Net-(J3-Pad5)*%
X145000000Y-136400000D02*
X145000000Y-136560000D01*
X143260000Y-138300000D02*
G75*
G03*
X145000000Y-136560000I1J1739999D01*
G01*
%TO.N,VBUS*%
X130100000Y-129300000D02*
X130100000Y-127400000D01*
X132924520Y-129375480D02*
X132924520Y-132225480D01*
X133000000Y-129300000D02*
X136200000Y-129300000D01*
X133000000Y-129300000D02*
G75*
G03*
X132924520Y-129375480I1J-75481D01*
G01*
X137000000Y-130100000D02*
X137000000Y-132150000D01*
X137000000Y-130100000D02*
G75*
G03*
X136200000Y-129300000I-800001J-1D01*
G01*
X136200000Y-132950000D02*
G75*
G03*
X137000000Y-132150000I-1J800001D01*
G01*
X132200000Y-132950000D02*
G75*
G03*
X132924520Y-132225480I0J724520D01*
G01*
%TO.N,Net-(J3-Pad3)*%
X133800000Y-132000000D02*
X136200000Y-132000000D01*
X133800000Y-132950000D02*
X133800000Y-132000000D01*
%TO.N,Net-(J3-Pad5)*%
X129800000Y-132000000D02*
X132200000Y-132000000D01*
X129800000Y-132950000D02*
X129800000Y-132000000D01*
X129800000Y-132950000D02*
X129800000Y-136800000D01*
X131300000Y-138300000D02*
X143260000Y-138300000D01*
X131300000Y-138300000D02*
G75*
G02*
X129800000Y-136800000I1J1500001D01*
G01*
%TO.N,TX20MA*%
X139300000Y-129100000D02*
G75*
G02*
X139562500Y-129733731I-633728J-633730D01*
G01*
X138920000Y-128182599D02*
G75*
G03*
X139300000Y-129100000I1297398J-1D01*
G01*
X139562500Y-131050000D02*
X139562500Y-129733731D01*
X138920000Y-128182599D02*
X138920000Y-126000000D01*
%TO.N,START*%
X137540000Y-136400000D02*
G75*
G03*
X137650000Y-136290000I1J109999D01*
G01*
%TO.N,Net-(J3-Pad4)*%
X141437500Y-132000000D02*
X141437500Y-133237500D01*
X142200000Y-134000000D02*
G75*
G02*
X141437500Y-133237500I0J762500D01*
G01*
X142620000Y-134420000D02*
G75*
G03*
X142200000Y-134000000I-419999J1D01*
G01*
X142620000Y-134420000D02*
X142620000Y-136400000D01*
%TO.N,RX20MA*%
X140190000Y-126000000D02*
X140190000Y-127190000D01*
X140800000Y-127800000D02*
G75*
G02*
X140190000Y-127190000I0J610000D01*
G01*
%TO.N,POWER*%
X150350000Y-126000000D02*
X150350000Y-132350000D01*
X150350000Y-132350000D02*
G75*
G03*
X150650000Y-132650000I300000J0D01*
G01*
X151050000Y-132650000D02*
X150650000Y-132650000D01*
%TO.N,MOTOR*%
X152300000Y-129200000D02*
G75*
G02*
X151620000Y-128520000I-1J679999D01*
G01*
X152950000Y-131350000D02*
G75*
G03*
X153000000Y-131300000I-1J50001D01*
G01*
X151620000Y-126000000D02*
X151620000Y-128520000D01*
X153000000Y-129900000D02*
X153000000Y-131300000D01*
X153000000Y-129900000D02*
G75*
G03*
X152300000Y-129200000I-699999J1D01*
G01*
%TO.N,POWER*%
X151800000Y-138100000D02*
X154400000Y-138100000D01*
X155000000Y-136400000D02*
X155000000Y-137500000D01*
X154400000Y-138100000D02*
G75*
G03*
X155000000Y-137500000I0J600000D01*
G01*
X151800000Y-138100000D02*
G75*
G02*
X151050000Y-137350000I0J750000D01*
G01*
X151050000Y-132650000D02*
X151050000Y-137350000D01*
%TO.N,MOTOR*%
X153600000Y-131425000D02*
G75*
G03*
X153525000Y-131350000I-75000J0D01*
G01*
X154600000Y-134400000D02*
G75*
G02*
X153600000Y-133400000I-1J999999D01*
G01*
X157500000Y-134800000D02*
G75*
G03*
X157100000Y-134400000I-399999J1D01*
G01*
X152950000Y-131350000D02*
X153525000Y-131350000D01*
X154600000Y-134400000D02*
X157100000Y-134400000D01*
X157500000Y-134800000D02*
X157500000Y-136400000D01*
X153600000Y-131425000D02*
X153600000Y-133400000D01*
%TO.N,+3V3*%
X148000000Y-132000000D02*
X148950000Y-132000000D01*
X152000000Y-132000000D02*
X152950000Y-132000000D01*
X151050000Y-132000000D02*
X152000000Y-132000000D01*
X147050000Y-132000000D02*
X148000000Y-132000000D01*
D54*
%TO.N,GND*%
X125570000Y-116537500D02*
X125570000Y-117970000D01*
D53*
X125262500Y-126300000D02*
X127200000Y-126300000D01*
X129137500Y-126300000D02*
X127200000Y-126300000D01*
X126200000Y-128237500D02*
X126200000Y-127300000D01*
X125262500Y-125800000D02*
X126700000Y-125800000D01*
X125262500Y-126800000D02*
X126700000Y-126800000D01*
X125262500Y-127300000D02*
X126200000Y-127300000D01*
X120300000Y-134700000D02*
X120300000Y-136140000D01*
X126700000Y-134700000D02*
X126700000Y-136140000D01*
X127200000Y-126300000D02*
G75*
G03*
X126200000Y-127300000I-1J-999999D01*
G01*
X127200000Y-126300000D02*
G75*
G02*
X126700000Y-126800000I-500001J1D01*
G01*
D54*
X125600000Y-118000000D02*
G75*
G02*
X125570000Y-117970000I1J30001D01*
G01*
D53*
X127200000Y-126300000D02*
G75*
G03*
X126700000Y-125800000I-500001J-1D01*
G01*
%TO.N,+3V3*%
X126200000Y-113300000D02*
X126900000Y-113300000D01*
X120500000Y-109300000D02*
X121300000Y-109300000D01*
X118900000Y-118175000D02*
X118900000Y-116700000D01*
X119900000Y-112800000D02*
X119900000Y-109900000D01*
X120200000Y-115400000D02*
X121950000Y-115400000D01*
X121600000Y-109600000D02*
X121600000Y-110125000D01*
X125000000Y-114900000D02*
X125000000Y-114500000D01*
X121050000Y-113500000D02*
X120600000Y-113500000D01*
X119900000Y-112800000D02*
G75*
G03*
X120600000Y-113500000I699999J-1D01*
G01*
X121600000Y-109600000D02*
G75*
G03*
X121300000Y-109300000I-300000J0D01*
G01*
X122450000Y-114900000D02*
G75*
G02*
X121950000Y-115400000I-500001J1D01*
G01*
X121050000Y-113500000D02*
G75*
G02*
X122450000Y-114900000I-2J-1400002D01*
G01*
X126200000Y-113300000D02*
G75*
G03*
X125000000Y-114500000I0J-1200000D01*
G01*
X120500000Y-109300000D02*
G75*
G03*
X119900000Y-109900000I0J-600000D01*
G01*
X120200000Y-115400000D02*
G75*
G03*
X118900000Y-116700000I-1J-1299999D01*
G01*
%TO.N,VBUS*%
X121100000Y-136625006D02*
X121100000Y-136140000D01*
X125900000Y-136140000D02*
X125900000Y-136625006D01*
X121100000Y-136140000D02*
X121100000Y-134125000D01*
X129500000Y-126800000D02*
X129100000Y-126800000D01*
X125425006Y-137100000D02*
X121574994Y-137100000D01*
X125425006Y-137100000D02*
G75*
G03*
X125900000Y-136625006I-2J474996D01*
G01*
X121100000Y-136625006D02*
G75*
G03*
X121574994Y-137100000I474996J2D01*
G01*
X120475000Y-133500000D02*
G75*
G02*
X121100000Y-134125000I1J-624999D01*
G01*
X129500000Y-126800000D02*
G75*
G02*
X130100000Y-127400000I0J-600000D01*
G01*
%TO.N,Net-(C1-Pad1)*%
X123100000Y-124225000D02*
X126025000Y-124225000D01*
X129100000Y-127300000D02*
X129100000Y-128200000D01*
X122000000Y-126900000D02*
X122000000Y-125325000D01*
X126200000Y-124400000D02*
G75*
G03*
X126025000Y-124225000I-174999J1D01*
G01*
X128200000Y-128200000D02*
G75*
G02*
X129100000Y-127300000I900000J0D01*
G01*
X129300000Y-128400000D02*
G75*
G02*
X129100000Y-128200000I1J200001D01*
G01*
X123100000Y-124225000D02*
G75*
G03*
X122000000Y-125325000I2J-1100002D01*
G01*
%TO.N,O*%
X125300000Y-125300000D02*
X124600000Y-125300000D01*
X149000000Y-124400000D02*
X149000000Y-125920000D01*
X124400000Y-125100000D02*
G75*
G03*
X124600000Y-125300000I200001J1D01*
G01*
X149080000Y-126000000D02*
G75*
G02*
X149000000Y-125920000I-2J79998D01*
G01*
%TO.N,I*%
X127700000Y-124400000D02*
X127700000Y-124203792D01*
X147800000Y-124300000D02*
X147800000Y-125990000D01*
X128019466Y-123432533D02*
G75*
G03*
X127700000Y-124203792I771255J-771257D01*
G01*
X147810000Y-126000000D02*
G75*
G02*
X147800000Y-125990000I0J10000D01*
G01*
%TO.N,Net-(J1-PadA5)*%
X122250000Y-136140000D02*
X122250000Y-135000000D01*
X121950000Y-134700000D02*
G75*
G02*
X122250000Y-135000000I0J-300000D01*
G01*
%TO.N,EN*%
X150300000Y-115000000D02*
X150300000Y-109050000D01*
X126700000Y-124400000D02*
X126700000Y-123700000D01*
X126300000Y-123300000D02*
G75*
G02*
X126700000Y-123700000I1J-399999D01*
G01*
X150350000Y-109000000D02*
G75*
G03*
X150300000Y-109050000I1J-50001D01*
G01*
%TO.N,Net-(J1-PadB5)*%
X125250000Y-136140000D02*
X125250000Y-134900000D01*
X125050000Y-134700000D02*
G75*
G02*
X125250000Y-134900000I-1J-200001D01*
G01*
%TO.N,GPIO0*%
X127200000Y-124400000D02*
X127200000Y-123800000D01*
X128700000Y-122300000D02*
G75*
G03*
X127200000Y-123800000I1J-1500001D01*
G01*
%TO.N,Net-(D1-Pad2)*%
X121600000Y-111875000D02*
X122550000Y-111875000D01*
X122600000Y-111825000D02*
G75*
G02*
X122550000Y-111875000I-50001J1D01*
G01*
%TO.N,Net-(C2-Pad1)*%
X122300480Y-130174920D02*
X122300480Y-133118317D01*
X124225000Y-132853023D02*
X124225000Y-132600000D01*
X123764608Y-129735392D02*
X122740008Y-129735392D01*
X124225000Y-132600000D02*
X124225000Y-131450000D01*
X124175000Y-131400000D02*
X124175000Y-130145784D01*
X123750000Y-136140000D02*
X123750000Y-133999773D01*
X122750000Y-134203553D02*
X122750000Y-136140000D01*
X124225000Y-132853023D02*
G75*
G02*
X123998893Y-133398893I-771976J0D01*
G01*
X122500000Y-133600000D02*
G75*
G02*
X122300480Y-133118317I481676J481680D01*
G01*
X123998893Y-133398893D02*
G75*
G03*
X123750000Y-133999773I600881J-600881D01*
G01*
X124175000Y-131400000D02*
G75*
G02*
X124225000Y-131450000I-1J-50001D01*
G01*
X122300480Y-130174920D02*
G75*
G02*
X122740008Y-129735392I439529J-1D01*
G01*
X122750000Y-134203553D02*
G75*
G03*
X122500000Y-133600000I-853552J0D01*
G01*
X123764608Y-129735392D02*
G75*
G02*
X124175000Y-130145784I0J-410392D01*
G01*
%TO.N,Net-(D1-Pad3)*%
X120600000Y-111875000D02*
X120600000Y-112400000D01*
X121100000Y-112900000D02*
X123925000Y-112900000D01*
X125000000Y-111825000D02*
G75*
G02*
X123925000Y-112900000I-1074999J-1D01*
G01*
X121100000Y-112900000D02*
G75*
G02*
X120600000Y-112400000I1J500001D01*
G01*
%TO.N,R*%
X122600000Y-109100000D02*
X122600000Y-110175000D01*
X144000000Y-109000000D02*
X144000000Y-110700000D01*
%TO.N,G*%
X141460000Y-109000000D02*
X141460000Y-112260000D01*
X127100000Y-110300000D02*
X125125000Y-110300000D01*
X125000000Y-110175000D02*
G75*
G03*
X125125000Y-110300000I125001J1D01*
G01*
X141500000Y-112300000D02*
G75*
G02*
X141460000Y-112260000I1J40001D01*
G01*
%TO.N,B*%
X128550480Y-109450480D02*
X124524520Y-109450480D01*
X128800000Y-109700000D02*
X128550480Y-109450480D01*
X142730000Y-109000000D02*
X142730000Y-111530000D01*
X123800000Y-110175000D02*
G75*
G02*
X124524520Y-109450480I724520J0D01*
G01*
X142800000Y-111600000D02*
G75*
G02*
X142730000Y-111530000I2J70002D01*
G01*
%TO.N,Net-(D1-Pad4)*%
X121300000Y-111100000D02*
X123075000Y-111100000D01*
X120600000Y-110125000D02*
X120600000Y-110400000D01*
X123800000Y-111825000D02*
G75*
G03*
X123075000Y-111100000I-725001J-1D01*
G01*
X121300000Y-111100000D02*
G75*
G02*
X120600000Y-110400000I-1J699999D01*
G01*
%TO.N,Net-(C3-Pad1)*%
X123125000Y-131400000D02*
X123125000Y-130513716D01*
X123250000Y-136140000D02*
X123250000Y-132775000D01*
X123075000Y-132600000D02*
X123075000Y-131450000D01*
X123125000Y-130513716D02*
X123097807Y-130486523D01*
X124999520Y-133133623D02*
X124999520Y-130599520D01*
X124611194Y-133811194D02*
X124794993Y-133627394D01*
X124250000Y-136140000D02*
X124250000Y-134683193D01*
X123125000Y-131400000D02*
G75*
G03*
X123075000Y-131450000I1J-50001D01*
G01*
X123075000Y-132600000D02*
G75*
G02*
X123250000Y-132775000I1J-174999D01*
G01*
X124900000Y-130500000D02*
G75*
G02*
X124999520Y-130599520I-1J-99521D01*
G01*
X124999520Y-133133623D02*
G75*
G02*
X124794993Y-133627394I-698299J1D01*
G01*
X124611194Y-133811194D02*
G75*
G03*
X124250000Y-134683193I871998J-871999D01*
G01*
%TO.N,Net-(U5-Pad1)*%
X123750000Y-120300000D02*
X123750000Y-121250000D01*
%TO.N,Net-(R10-Pad2)*%
X118900000Y-119825000D02*
X118900000Y-121275000D01*
X118900000Y-121275000D02*
X121025000Y-121275000D01*
X121050000Y-121250000D02*
G75*
G02*
X121025000Y-121275000I-24999J-1D01*
G01*
%TD*%
%TA.AperFunction,Conductor*%
%TO.N,GND*%
G36*
X120334750Y-121674502D02*
G01*
X120350569Y-121687250D01*
X120355448Y-121694552D01*
X120421769Y-121738867D01*
X120433938Y-121741288D01*
X120433939Y-121741288D01*
X120474184Y-121749293D01*
X120480252Y-121750500D01*
X121105840Y-121750500D01*
X121173961Y-121770502D01*
X121220454Y-121824158D01*
X121230558Y-121894432D01*
X121223822Y-121920729D01*
X121182672Y-122030500D01*
X121176870Y-122045976D01*
X121176017Y-122053826D01*
X121176017Y-122053827D01*
X121174263Y-122069974D01*
X121170500Y-122104611D01*
X121170501Y-122695388D01*
X121170870Y-122698782D01*
X121170870Y-122698788D01*
X121176012Y-122746123D01*
X121176870Y-122754024D01*
X121201596Y-122819982D01*
X121220441Y-122870251D01*
X121225083Y-122882635D01*
X121230463Y-122889814D01*
X121230465Y-122889817D01*
X121302077Y-122985367D01*
X121307456Y-122992544D01*
X121314633Y-122997923D01*
X121410183Y-123069535D01*
X121410186Y-123069537D01*
X121417365Y-123074917D01*
X121425769Y-123078067D01*
X121425770Y-123078068D01*
X121538581Y-123120358D01*
X121538582Y-123120358D01*
X121545976Y-123123130D01*
X121553826Y-123123983D01*
X121553827Y-123123983D01*
X121601205Y-123129130D01*
X121604611Y-123129500D01*
X121874920Y-123129500D01*
X122145388Y-123129499D01*
X122148782Y-123129130D01*
X122148788Y-123129130D01*
X122196166Y-123123984D01*
X122196170Y-123123983D01*
X122204024Y-123123130D01*
X122332635Y-123074917D01*
X122339814Y-123069537D01*
X122339817Y-123069535D01*
X122435367Y-122997923D01*
X122442544Y-122992544D01*
X122447923Y-122985367D01*
X122519535Y-122889817D01*
X122519537Y-122889814D01*
X122524917Y-122882635D01*
X122530481Y-122867793D01*
X122532018Y-122863693D01*
X122574659Y-122806928D01*
X122641221Y-122782228D01*
X122710570Y-122797435D01*
X122760688Y-122847721D01*
X122767982Y-122863693D01*
X122769519Y-122867793D01*
X122775083Y-122882635D01*
X122780463Y-122889814D01*
X122780465Y-122889817D01*
X122852077Y-122985367D01*
X122857456Y-122992544D01*
X122864633Y-122997923D01*
X122960183Y-123069535D01*
X122960186Y-123069537D01*
X122967365Y-123074917D01*
X122975769Y-123078067D01*
X122975770Y-123078068D01*
X123088581Y-123120358D01*
X123088582Y-123120358D01*
X123095976Y-123123130D01*
X123103826Y-123123983D01*
X123103827Y-123123983D01*
X123151205Y-123129130D01*
X123154611Y-123129500D01*
X123424920Y-123129500D01*
X123695388Y-123129499D01*
X123698782Y-123129130D01*
X123698788Y-123129130D01*
X123746166Y-123123984D01*
X123746170Y-123123983D01*
X123754024Y-123123130D01*
X123882635Y-123074917D01*
X123889814Y-123069537D01*
X123889817Y-123069535D01*
X123985367Y-122997923D01*
X123992544Y-122992544D01*
X123997923Y-122985367D01*
X124069535Y-122889817D01*
X124069537Y-122889814D01*
X124074917Y-122882635D01*
X124078068Y-122874229D01*
X124120358Y-122761419D01*
X124120358Y-122761418D01*
X124123130Y-122754024D01*
X124129500Y-122695389D01*
X124129499Y-122104612D01*
X124129130Y-122101212D01*
X124123984Y-122053834D01*
X124123983Y-122053830D01*
X124123130Y-122045976D01*
X124076178Y-121920729D01*
X124070995Y-121849921D01*
X124104917Y-121787553D01*
X124167172Y-121753424D01*
X124194160Y-121750500D01*
X124227278Y-121750500D01*
X124295399Y-121770502D01*
X124339354Y-121821229D01*
X124339837Y-121820973D01*
X124340944Y-121823064D01*
X124341892Y-121824158D01*
X124343065Y-121827070D01*
X124344247Y-121829302D01*
X124347366Y-121838184D01*
X124352958Y-121845754D01*
X124352959Y-121845757D01*
X124394242Y-121901649D01*
X124427850Y-121947150D01*
X124435421Y-121952742D01*
X124529243Y-122022041D01*
X124529246Y-122022042D01*
X124536816Y-122027634D01*
X124664631Y-122072519D01*
X124672277Y-122073242D01*
X124672278Y-122073242D01*
X124678248Y-122073806D01*
X124696166Y-122075500D01*
X125303834Y-122075500D01*
X125321752Y-122073806D01*
X125327722Y-122073242D01*
X125327723Y-122073242D01*
X125335369Y-122072519D01*
X125463184Y-122027634D01*
X125470754Y-122022042D01*
X125470757Y-122022041D01*
X125564579Y-121952742D01*
X125572150Y-121947150D01*
X125605758Y-121901649D01*
X125647041Y-121845757D01*
X125647042Y-121845754D01*
X125652634Y-121838184D01*
X125668573Y-121792797D01*
X125710015Y-121735153D01*
X125776044Y-121709064D01*
X125845696Y-121722814D01*
X125896857Y-121772039D01*
X125906978Y-121794669D01*
X125954467Y-121937007D01*
X125958450Y-121948946D01*
X126051522Y-122099348D01*
X126176697Y-122224305D01*
X126182927Y-122228145D01*
X126182928Y-122228146D01*
X126227024Y-122255327D01*
X126327262Y-122317115D01*
X126407005Y-122343564D01*
X126488611Y-122370632D01*
X126488613Y-122370632D01*
X126495139Y-122372797D01*
X126501975Y-122373497D01*
X126501978Y-122373498D01*
X126537292Y-122377116D01*
X126599600Y-122383500D01*
X127164282Y-122383500D01*
X127232403Y-122403502D01*
X127278896Y-122457158D01*
X127289000Y-122527432D01*
X127259015Y-122592576D01*
X127205693Y-122653378D01*
X127068813Y-122858234D01*
X127066986Y-122861939D01*
X127066983Y-122861944D01*
X127047663Y-122901120D01*
X126999595Y-122953369D01*
X126930909Y-122971335D01*
X126863414Y-122949315D01*
X126830818Y-122916758D01*
X126798855Y-122870251D01*
X126798854Y-122870249D01*
X126794553Y-122863992D01*
X126676275Y-122758611D01*
X126668889Y-122754700D01*
X126598864Y-122717624D01*
X126536274Y-122684484D01*
X126382633Y-122645892D01*
X126375034Y-122645852D01*
X126375033Y-122645852D01*
X126309181Y-122645507D01*
X126224221Y-122645062D01*
X126216841Y-122646834D01*
X126216839Y-122646834D01*
X126077563Y-122680271D01*
X126077560Y-122680272D01*
X126070184Y-122682043D01*
X125929414Y-122754700D01*
X125810039Y-122858838D01*
X125718950Y-122988444D01*
X125691703Y-123058329D01*
X125664899Y-123127079D01*
X125661406Y-123136037D01*
X125660414Y-123143570D01*
X125660414Y-123143571D01*
X125642084Y-123282806D01*
X125640729Y-123293096D01*
X125641563Y-123300646D01*
X125656124Y-123432533D01*
X125658113Y-123450553D01*
X125660723Y-123457684D01*
X125660723Y-123457686D01*
X125697643Y-123558574D01*
X125712553Y-123599319D01*
X125716788Y-123605622D01*
X125716792Y-123605629D01*
X125746087Y-123649224D01*
X125767480Y-123716921D01*
X125748876Y-123785437D01*
X125696183Y-123833018D01*
X125641506Y-123845500D01*
X123890908Y-123845500D01*
X123822787Y-123825498D01*
X123780386Y-123780006D01*
X123778070Y-123775776D01*
X123774917Y-123767365D01*
X123692544Y-123657456D01*
X123678371Y-123646834D01*
X123589817Y-123580465D01*
X123589814Y-123580463D01*
X123582635Y-123575083D01*
X123570258Y-123570443D01*
X123461419Y-123529642D01*
X123461418Y-123529642D01*
X123454024Y-123526870D01*
X123446174Y-123526017D01*
X123446173Y-123526017D01*
X123398786Y-123520869D01*
X123398785Y-123520869D01*
X123395389Y-123520500D01*
X123100044Y-123520500D01*
X122804612Y-123520501D01*
X122801218Y-123520870D01*
X122801212Y-123520870D01*
X122753834Y-123526016D01*
X122753830Y-123526017D01*
X122745976Y-123526870D01*
X122617365Y-123575083D01*
X122610186Y-123580463D01*
X122610183Y-123580465D01*
X122521629Y-123646834D01*
X122507456Y-123657456D01*
X122502077Y-123664633D01*
X122430465Y-123760183D01*
X122430463Y-123760186D01*
X122425083Y-123767365D01*
X122421933Y-123775769D01*
X122421932Y-123775770D01*
X122386514Y-123870251D01*
X122376870Y-123895976D01*
X122376017Y-123903826D01*
X122376017Y-123903827D01*
X122373797Y-123924260D01*
X122370500Y-123954611D01*
X122370500Y-123962883D01*
X122350498Y-124031004D01*
X122304888Y-124073469D01*
X122298079Y-124077187D01*
X122128659Y-124204013D01*
X121979013Y-124353659D01*
X121852187Y-124523079D01*
X121850028Y-124527033D01*
X121777669Y-124659550D01*
X121750763Y-124708824D01*
X121676805Y-124907112D01*
X121675848Y-124911513D01*
X121675847Y-124911515D01*
X121645879Y-125049277D01*
X121631819Y-125113907D01*
X121631498Y-125118395D01*
X121621813Y-125253797D01*
X121621168Y-125258322D01*
X121620982Y-125258851D01*
X121620500Y-125264416D01*
X121620500Y-125267663D01*
X121620179Y-125276651D01*
X121617891Y-125308645D01*
X121617320Y-125313622D01*
X121617320Y-125315207D01*
X121615769Y-125324999D01*
X121617320Y-125334791D01*
X121618949Y-125345076D01*
X121620500Y-125364787D01*
X121620500Y-126305187D01*
X121600498Y-126373308D01*
X121577330Y-126400135D01*
X121510039Y-126458838D01*
X121418950Y-126588444D01*
X121397432Y-126643634D01*
X121364335Y-126728525D01*
X121361406Y-126736037D01*
X121360414Y-126743570D01*
X121360414Y-126743571D01*
X121343411Y-126872725D01*
X121340729Y-126893096D01*
X121349421Y-126971825D01*
X121354452Y-127017389D01*
X121358113Y-127050553D01*
X121360723Y-127057684D01*
X121360723Y-127057686D01*
X121409281Y-127190377D01*
X121412553Y-127199319D01*
X121416789Y-127205622D01*
X121416789Y-127205623D01*
X121493725Y-127320115D01*
X121500908Y-127330805D01*
X121506527Y-127335918D01*
X121506528Y-127335919D01*
X121576953Y-127400000D01*
X121618076Y-127437419D01*
X121757293Y-127513008D01*
X121910522Y-127553207D01*
X121994477Y-127554526D01*
X122061319Y-127555576D01*
X122061322Y-127555576D01*
X122068916Y-127555695D01*
X122223332Y-127520329D01*
X122297716Y-127482918D01*
X122358072Y-127452563D01*
X122358075Y-127452561D01*
X122364855Y-127449151D01*
X122370626Y-127444222D01*
X122370629Y-127444220D01*
X122479536Y-127351204D01*
X122479536Y-127351203D01*
X122485314Y-127346269D01*
X122577755Y-127217624D01*
X122636842Y-127070641D01*
X122659162Y-126913807D01*
X122659307Y-126900000D01*
X122656006Y-126872724D01*
X122667681Y-126802695D01*
X122715363Y-126750094D01*
X122783914Y-126731622D01*
X122793935Y-126732246D01*
X122798094Y-126732672D01*
X122804513Y-126733000D01*
X122827885Y-126733000D01*
X122843124Y-126728525D01*
X122844329Y-126727135D01*
X122846000Y-126719452D01*
X122846000Y-126714885D01*
X123354000Y-126714885D01*
X123358475Y-126730124D01*
X123359865Y-126731329D01*
X123367548Y-126733000D01*
X123395438Y-126733000D01*
X123401953Y-126732663D01*
X123494057Y-126723106D01*
X123507456Y-126720212D01*
X123656107Y-126670619D01*
X123669286Y-126664445D01*
X123802173Y-126582212D01*
X123813574Y-126573176D01*
X123923986Y-126462571D01*
X123932998Y-126451160D01*
X124015004Y-126318120D01*
X124021151Y-126304939D01*
X124070491Y-126156186D01*
X124073358Y-126142810D01*
X124082672Y-126051903D01*
X124082929Y-126046874D01*
X124078525Y-126031876D01*
X124077135Y-126030671D01*
X124069452Y-126029000D01*
X123372115Y-126029000D01*
X123356876Y-126033475D01*
X123355671Y-126034865D01*
X123354000Y-126042548D01*
X123354000Y-126714885D01*
X122846000Y-126714885D01*
X122846000Y-125647000D01*
X122866002Y-125578879D01*
X122919658Y-125532386D01*
X122972000Y-125521000D01*
X123841387Y-125521000D01*
X123909508Y-125541002D01*
X123926186Y-125553806D01*
X124018076Y-125637419D01*
X124157293Y-125713008D01*
X124310522Y-125753207D01*
X124318122Y-125753326D01*
X124325640Y-125754356D01*
X124325463Y-125755650D01*
X124385775Y-125774392D01*
X124431421Y-125828770D01*
X124442000Y-125879308D01*
X124442000Y-125895772D01*
X124442538Y-125903981D01*
X124455606Y-126003239D01*
X124459397Y-126017389D01*
X124459397Y-126082611D01*
X124455606Y-126096761D01*
X124442538Y-126196019D01*
X124442000Y-126204228D01*
X124442000Y-126395772D01*
X124442538Y-126403981D01*
X124455606Y-126503239D01*
X124459397Y-126517389D01*
X124459397Y-126582611D01*
X124455606Y-126596761D01*
X124442538Y-126696019D01*
X124442000Y-126704228D01*
X124442000Y-126895772D01*
X124442538Y-126903981D01*
X124455606Y-127003239D01*
X124459397Y-127017389D01*
X124459397Y-127082611D01*
X124455606Y-127096761D01*
X124442538Y-127196019D01*
X124442000Y-127204228D01*
X124442000Y-127395772D01*
X124442538Y-127403981D01*
X124455606Y-127503242D01*
X124459844Y-127519060D01*
X124511009Y-127642582D01*
X124519196Y-127656763D01*
X124600587Y-127762835D01*
X124612167Y-127774414D01*
X124718235Y-127855802D01*
X124732421Y-127863992D01*
X124855941Y-127915156D01*
X124871758Y-127919394D01*
X124971019Y-127932462D01*
X124979228Y-127933000D01*
X125441000Y-127933000D01*
X125509121Y-127953002D01*
X125555614Y-128006658D01*
X125567000Y-128059000D01*
X125567000Y-128520772D01*
X125567538Y-128528981D01*
X125580606Y-128628242D01*
X125584844Y-128644060D01*
X125637541Y-128771282D01*
X125645130Y-128841872D01*
X125613350Y-128905359D01*
X125552292Y-128941586D01*
X125521132Y-128945500D01*
X122537818Y-128945500D01*
X122518107Y-128943949D01*
X122516322Y-128943666D01*
X122516320Y-128943666D01*
X122499999Y-128941081D01*
X122499999Y-128941002D01*
X122483999Y-128942261D01*
X122483997Y-128942261D01*
X122367900Y-128951399D01*
X122271762Y-128958965D01*
X122266955Y-128960119D01*
X122266949Y-128960120D01*
X122177664Y-128981556D01*
X122049145Y-129012411D01*
X122044574Y-129014304D01*
X122044572Y-129014305D01*
X121842203Y-129098129D01*
X121842199Y-129098131D01*
X121837629Y-129100024D01*
X121642423Y-129219647D01*
X121468333Y-129368333D01*
X121319647Y-129542423D01*
X121200024Y-129737629D01*
X121198131Y-129742199D01*
X121198129Y-129742203D01*
X121116287Y-129939787D01*
X121112411Y-129949145D01*
X121102322Y-129991167D01*
X121060120Y-130166949D01*
X121060119Y-130166955D01*
X121058965Y-130171762D01*
X121051454Y-130267193D01*
X121042970Y-130375000D01*
X121041002Y-130399999D01*
X121041081Y-130399999D01*
X121043170Y-130413189D01*
X121043170Y-130413190D01*
X121043949Y-130418107D01*
X121045500Y-130437818D01*
X121045500Y-130665867D01*
X121025498Y-130733988D01*
X120994361Y-130767217D01*
X120949990Y-130799990D01*
X120868791Y-130909924D01*
X120823507Y-131038873D01*
X120822785Y-131046515D01*
X120822784Y-131046518D01*
X120822677Y-131047649D01*
X120820500Y-131070685D01*
X120820501Y-131729314D01*
X120820782Y-131732284D01*
X120820872Y-131734198D01*
X120804104Y-131803186D01*
X120784185Y-131829157D01*
X120726014Y-131887429D01*
X120717002Y-131898840D01*
X120634996Y-132031880D01*
X120628849Y-132045061D01*
X120579509Y-132193814D01*
X120576642Y-132207190D01*
X120567328Y-132298097D01*
X120567000Y-132304514D01*
X120567000Y-132327885D01*
X120571475Y-132343124D01*
X120572865Y-132344329D01*
X120580548Y-132346000D01*
X121653000Y-132346000D01*
X121721121Y-132366002D01*
X121767614Y-132419658D01*
X121779000Y-132472000D01*
X121779000Y-133564885D01*
X121783475Y-133580124D01*
X121784865Y-133581329D01*
X121792548Y-133583000D01*
X121795438Y-133583000D01*
X121801953Y-133582663D01*
X121894057Y-133573106D01*
X121914194Y-133568757D01*
X121914840Y-133571748D01*
X121972317Y-133569634D01*
X122033414Y-133605797D01*
X122048717Y-133625916D01*
X122120903Y-133743712D01*
X122124110Y-133747467D01*
X122124113Y-133747471D01*
X122137094Y-133762669D01*
X122166125Y-133827459D01*
X122155520Y-133897659D01*
X122108646Y-133950981D01*
X122041283Y-133970500D01*
X121704780Y-133970501D01*
X121695686Y-133970501D01*
X121692738Y-133970780D01*
X121692729Y-133970780D01*
X121671522Y-133972784D01*
X121671520Y-133972784D01*
X121663873Y-133973507D01*
X121631044Y-133985036D01*
X121618913Y-133989296D01*
X121548013Y-133992995D01*
X121486368Y-133957776D01*
X121455457Y-133903025D01*
X121429348Y-133805586D01*
X121422527Y-133780129D01*
X121417383Y-133769096D01*
X121352325Y-133629579D01*
X121348246Y-133620831D01*
X121345097Y-133616333D01*
X121345093Y-133616327D01*
X121293787Y-133543056D01*
X121271000Y-133470785D01*
X121271000Y-132872115D01*
X121266525Y-132856876D01*
X121265135Y-132855671D01*
X121257452Y-132854000D01*
X121013194Y-132854000D01*
X120947696Y-132834768D01*
X120947691Y-132834778D01*
X120947647Y-132834754D01*
X120945073Y-132833998D01*
X120940636Y-132830915D01*
X120939822Y-132830469D01*
X120932635Y-132825083D01*
X120924227Y-132821931D01*
X120924225Y-132821930D01*
X120811419Y-132779642D01*
X120811418Y-132779642D01*
X120804024Y-132776870D01*
X120796174Y-132776017D01*
X120796173Y-132776017D01*
X120748786Y-132770869D01*
X120748785Y-132770869D01*
X120745389Y-132770500D01*
X120475080Y-132770500D01*
X120204612Y-132770501D01*
X120201218Y-132770870D01*
X120201212Y-132770870D01*
X120153834Y-132776016D01*
X120153830Y-132776017D01*
X120145976Y-132776870D01*
X120059963Y-132809114D01*
X120025776Y-132821930D01*
X120017365Y-132825083D01*
X120010186Y-132830463D01*
X120010183Y-132830465D01*
X119976552Y-132855671D01*
X119950674Y-132875066D01*
X119944308Y-132879837D01*
X119877802Y-132904685D01*
X119808419Y-132889633D01*
X119761598Y-132845314D01*
X119732212Y-132797827D01*
X119723176Y-132786426D01*
X119612571Y-132676014D01*
X119601160Y-132667002D01*
X119468120Y-132584996D01*
X119454939Y-132578849D01*
X119306186Y-132529509D01*
X119292810Y-132526642D01*
X119201903Y-132517328D01*
X119196874Y-132517071D01*
X119181876Y-132521475D01*
X119180671Y-132522865D01*
X119179000Y-132530548D01*
X119179000Y-134464885D01*
X119183475Y-134480124D01*
X119184865Y-134481329D01*
X119192548Y-134483000D01*
X119195438Y-134483000D01*
X119201953Y-134482663D01*
X119294057Y-134473106D01*
X119307456Y-134470212D01*
X119352000Y-134455351D01*
X119353343Y-134459378D01*
X119396010Y-134446000D01*
X120428000Y-134446000D01*
X120496121Y-134466002D01*
X120542614Y-134519658D01*
X120554000Y-134572000D01*
X120554000Y-135489790D01*
X120551579Y-135514371D01*
X120545500Y-135544933D01*
X120545501Y-136121171D01*
X120545501Y-136268000D01*
X120525499Y-136336121D01*
X120471843Y-136382614D01*
X120419501Y-136394000D01*
X119883326Y-136394000D01*
X119857681Y-136401530D01*
X119552021Y-136707189D01*
X119544408Y-136721132D01*
X119544539Y-136722966D01*
X119548790Y-136729580D01*
X120218391Y-137399180D01*
X120230161Y-137405607D01*
X120242176Y-137396311D01*
X120270466Y-137355907D01*
X120275946Y-137346417D01*
X120301904Y-137290749D01*
X120348821Y-137237464D01*
X120416099Y-137217999D01*
X120644669Y-137217999D01*
X120651490Y-137217629D01*
X120702352Y-137212105D01*
X120717607Y-137208478D01*
X120809693Y-137173957D01*
X120880500Y-137168774D01*
X120942869Y-137202695D01*
X120951321Y-137212005D01*
X120967852Y-137232148D01*
X121097965Y-137338929D01*
X121103423Y-137341847D01*
X121103424Y-137341847D01*
X121240952Y-137415358D01*
X121240955Y-137415359D01*
X121246410Y-137418275D01*
X121407483Y-137467136D01*
X121475796Y-137473865D01*
X121494144Y-137475672D01*
X121503468Y-137477130D01*
X121508845Y-137479018D01*
X121514410Y-137479500D01*
X121526822Y-137479500D01*
X121539170Y-137480107D01*
X121552924Y-137481462D01*
X121561344Y-137482291D01*
X121564376Y-137482680D01*
X121565199Y-137482680D01*
X121574992Y-137484231D01*
X121595070Y-137481051D01*
X121614780Y-137479500D01*
X125385220Y-137479500D01*
X125404930Y-137481051D01*
X125425008Y-137484231D01*
X125434801Y-137482680D01*
X125435625Y-137482680D01*
X125438658Y-137482291D01*
X125513354Y-137474933D01*
X125592517Y-137467136D01*
X125753590Y-137418275D01*
X125759045Y-137415359D01*
X125759048Y-137415358D01*
X125896576Y-137341847D01*
X125896577Y-137341847D01*
X125902035Y-137338929D01*
X126032148Y-137232148D01*
X126048679Y-137212005D01*
X126107356Y-137172036D01*
X126178327Y-137170136D01*
X126190307Y-137173957D01*
X126282391Y-137208478D01*
X126297649Y-137212105D01*
X126348514Y-137217631D01*
X126355328Y-137218000D01*
X126583901Y-137218000D01*
X126652022Y-137238002D01*
X126698095Y-137290749D01*
X126724052Y-137346412D01*
X126729534Y-137355907D01*
X126758411Y-137397149D01*
X126768887Y-137405523D01*
X126782334Y-137398455D01*
X127447979Y-136732811D01*
X127454356Y-136721132D01*
X128184408Y-136721132D01*
X128184539Y-136722966D01*
X128188790Y-136729580D01*
X128858391Y-137399180D01*
X128870161Y-137405607D01*
X128882176Y-137396311D01*
X128910466Y-137355907D01*
X128915946Y-137346417D01*
X129004326Y-137156887D01*
X129008072Y-137146595D01*
X129062196Y-136944599D01*
X129064099Y-136933804D01*
X129082326Y-136725475D01*
X129082326Y-136714525D01*
X129064099Y-136506196D01*
X129062196Y-136495401D01*
X129008072Y-136293405D01*
X129004326Y-136283113D01*
X128915946Y-136093583D01*
X128910466Y-136084093D01*
X128881589Y-136042851D01*
X128871113Y-136034477D01*
X128857666Y-136041545D01*
X128192021Y-136707189D01*
X128184408Y-136721132D01*
X127454356Y-136721132D01*
X127455592Y-136718868D01*
X127455461Y-136717034D01*
X127451210Y-136710421D01*
X127147597Y-136406808D01*
X127124141Y-136394000D01*
X126580500Y-136394000D01*
X126512379Y-136373998D01*
X126465886Y-136320342D01*
X126454500Y-136268000D01*
X126454499Y-135732235D01*
X126954000Y-135732235D01*
X126957237Y-135743260D01*
X126964330Y-135740021D01*
X126992686Y-135711665D01*
X127054998Y-135677639D01*
X127125813Y-135682704D01*
X127170876Y-135711665D01*
X127332399Y-135873188D01*
X127355861Y-135886000D01*
X127422000Y-135886000D01*
X127490121Y-135906002D01*
X127536614Y-135959658D01*
X127548000Y-136012000D01*
X127548000Y-136070674D01*
X127555530Y-136096319D01*
X127807189Y-136347979D01*
X127821132Y-136355592D01*
X127822966Y-136355461D01*
X127829580Y-136351210D01*
X128499180Y-135681609D01*
X128505607Y-135669839D01*
X128496313Y-135657825D01*
X128455912Y-135629536D01*
X128446416Y-135624053D01*
X128256887Y-135535674D01*
X128246595Y-135531928D01*
X128044599Y-135477804D01*
X128033804Y-135475901D01*
X127825475Y-135457674D01*
X127814524Y-135457674D01*
X127661645Y-135471049D01*
X127592041Y-135457060D01*
X127541048Y-135407660D01*
X127524858Y-135338534D01*
X127542888Y-135280258D01*
X127546076Y-135274994D01*
X127552285Y-135261243D01*
X127599256Y-135111356D01*
X127601869Y-135098306D01*
X127607734Y-135034479D01*
X127608000Y-135028691D01*
X127608000Y-134972115D01*
X127603525Y-134956876D01*
X127602135Y-134955671D01*
X127594452Y-134954000D01*
X126972115Y-134954000D01*
X126956876Y-134958475D01*
X126955671Y-134959865D01*
X126954000Y-134967548D01*
X126954000Y-135732235D01*
X126454499Y-135732235D01*
X126454499Y-135551123D01*
X126454499Y-135544934D01*
X126448421Y-135514375D01*
X126446000Y-135489796D01*
X126446000Y-134572000D01*
X126466002Y-134503879D01*
X126519658Y-134457386D01*
X126572000Y-134446000D01*
X127589884Y-134446000D01*
X127605123Y-134441525D01*
X127606328Y-134440135D01*
X127607999Y-134432452D01*
X127607999Y-134371295D01*
X127607736Y-134365546D01*
X127601868Y-134301685D01*
X127599257Y-134288649D01*
X127552285Y-134138757D01*
X127546079Y-134125012D01*
X127465176Y-133991426D01*
X127455869Y-133979557D01*
X127345443Y-133869131D01*
X127333574Y-133859824D01*
X127256715Y-133813276D01*
X127208809Y-133760878D01*
X127196836Y-133690898D01*
X127224597Y-133625554D01*
X127283280Y-133585593D01*
X127321987Y-133579500D01*
X127860214Y-133579500D01*
X127879914Y-133581050D01*
X127899996Y-133584231D01*
X127920592Y-133580969D01*
X127923768Y-133580509D01*
X127931431Y-133579500D01*
X127931436Y-133579500D01*
X127931564Y-133580471D01*
X127931994Y-133580327D01*
X127931877Y-133579441D01*
X127936475Y-133578836D01*
X127936477Y-133578835D01*
X127938008Y-133578634D01*
X127961555Y-133575534D01*
X128025172Y-133567159D01*
X128097491Y-133537204D01*
X128134187Y-133522005D01*
X128134188Y-133522004D01*
X128141818Y-133518844D01*
X128241984Y-133441984D01*
X128318844Y-133341818D01*
X128324259Y-133328746D01*
X128363998Y-133232804D01*
X128363998Y-133232803D01*
X128367159Y-133225172D01*
X128369468Y-133207630D01*
X128370770Y-133197742D01*
X128375165Y-133179328D01*
X128376394Y-133173622D01*
X128379018Y-133166149D01*
X128379500Y-133160584D01*
X128379500Y-133139784D01*
X128381051Y-133120075D01*
X128381325Y-133118349D01*
X128384231Y-133099996D01*
X128381050Y-133079914D01*
X128379500Y-133060214D01*
X128379500Y-130778605D01*
X128904210Y-130778605D01*
X128904250Y-130792705D01*
X128911520Y-130796000D01*
X129527885Y-130796000D01*
X129543124Y-130791525D01*
X129544329Y-130790135D01*
X129546000Y-130782452D01*
X129546000Y-130777885D01*
X130054000Y-130777885D01*
X130058475Y-130793124D01*
X130059865Y-130794329D01*
X130067548Y-130796000D01*
X130682729Y-130796000D01*
X130696260Y-130792027D01*
X130697395Y-130784129D01*
X130661831Y-130661717D01*
X130655584Y-130647281D01*
X130580633Y-130520545D01*
X130570993Y-130508118D01*
X130466882Y-130404007D01*
X130454455Y-130394367D01*
X130327719Y-130319416D01*
X130313283Y-130313169D01*
X130170458Y-130271674D01*
X130157871Y-130269376D01*
X130130143Y-130267193D01*
X130125216Y-130267000D01*
X130072115Y-130267000D01*
X130056876Y-130271475D01*
X130055671Y-130272865D01*
X130054000Y-130280548D01*
X130054000Y-130777885D01*
X129546000Y-130777885D01*
X129546000Y-130285115D01*
X129541525Y-130269876D01*
X129540135Y-130268671D01*
X129532452Y-130267000D01*
X129474784Y-130267000D01*
X129469857Y-130267193D01*
X129442129Y-130269376D01*
X129429542Y-130271674D01*
X129286717Y-130313169D01*
X129272281Y-130319416D01*
X129145545Y-130394367D01*
X129133118Y-130404007D01*
X129029007Y-130508118D01*
X129019367Y-130520545D01*
X128944416Y-130647281D01*
X128938169Y-130661717D01*
X128904210Y-130778605D01*
X128379500Y-130778605D01*
X128379500Y-130439789D01*
X128381051Y-130420078D01*
X128382680Y-130409793D01*
X128382680Y-130409791D01*
X128384231Y-130400001D01*
X128382680Y-130390208D01*
X128382680Y-130380290D01*
X128383335Y-130380290D01*
X128382899Y-130365490D01*
X128392128Y-130271788D01*
X128396945Y-130247568D01*
X128430745Y-130136144D01*
X128440194Y-130113334D01*
X128458415Y-130079246D01*
X128495080Y-130010652D01*
X128508801Y-129990117D01*
X128518836Y-129977890D01*
X128582658Y-129900122D01*
X128600123Y-129882657D01*
X128607517Y-129876589D01*
X128690120Y-129808799D01*
X128710652Y-129795080D01*
X128813336Y-129740193D01*
X128836144Y-129730745D01*
X128947568Y-129696945D01*
X128971788Y-129692128D01*
X129058769Y-129683561D01*
X129065491Y-129682899D01*
X129080290Y-129683335D01*
X129080290Y-129682680D01*
X129090208Y-129682680D01*
X129100001Y-129684231D01*
X129120079Y-129681051D01*
X129139789Y-129679500D01*
X130077854Y-129679500D01*
X130088727Y-129679970D01*
X130130187Y-129683561D01*
X130140295Y-129681050D01*
X130150678Y-129680233D01*
X130150728Y-129680873D01*
X130161952Y-129679500D01*
X132419020Y-129679500D01*
X132487141Y-129699502D01*
X132533634Y-129753158D01*
X132545020Y-129805500D01*
X132545020Y-130394500D01*
X132525018Y-130462621D01*
X132471362Y-130509114D01*
X132419020Y-130520500D01*
X131943319Y-130520501D01*
X131906652Y-130520501D01*
X131814855Y-130535039D01*
X131806020Y-130539541D01*
X131806019Y-130539541D01*
X131713057Y-130586907D01*
X131713056Y-130586908D01*
X131704216Y-130591412D01*
X131616412Y-130679216D01*
X131611908Y-130688056D01*
X131611907Y-130688057D01*
X131567165Y-130775870D01*
X131560039Y-130789855D01*
X131545500Y-130881651D01*
X131545501Y-131218348D01*
X131546276Y-131223241D01*
X131546276Y-131223242D01*
X131547637Y-131231834D01*
X131560039Y-131310145D01*
X131564541Y-131318980D01*
X131564541Y-131318981D01*
X131578253Y-131345892D01*
X131616412Y-131420784D01*
X131619196Y-131423568D01*
X131641938Y-131487307D01*
X131625857Y-131556459D01*
X131574943Y-131605939D01*
X131516143Y-131620500D01*
X130774795Y-131620500D01*
X130706674Y-131600498D01*
X130660181Y-131546842D01*
X130650077Y-131476568D01*
X130659159Y-131444458D01*
X130661830Y-131438286D01*
X130695790Y-131321395D01*
X130695750Y-131307295D01*
X130688480Y-131304000D01*
X128917271Y-131304000D01*
X128903740Y-131307973D01*
X128902605Y-131315871D01*
X128938169Y-131438283D01*
X128944416Y-131452719D01*
X129019367Y-131579455D01*
X129029007Y-131591882D01*
X129116958Y-131679833D01*
X129150984Y-131742145D01*
X129152312Y-131788638D01*
X129147840Y-131816876D01*
X129145500Y-131831651D01*
X129145501Y-132168348D01*
X129160039Y-132260145D01*
X129164541Y-132268980D01*
X129164541Y-132268981D01*
X129206169Y-132350680D01*
X129216412Y-132370784D01*
X129231533Y-132385905D01*
X129265559Y-132448217D01*
X129260494Y-132519032D01*
X129231533Y-132564095D01*
X129216412Y-132579216D01*
X129211909Y-132588054D01*
X129211907Y-132588057D01*
X129164541Y-132681019D01*
X129160039Y-132689855D01*
X129145500Y-132781651D01*
X129145501Y-133118348D01*
X129160039Y-133210145D01*
X129164541Y-133218980D01*
X129164541Y-133218981D01*
X129211551Y-133311243D01*
X129216412Y-133320784D01*
X129304216Y-133408588D01*
X129348344Y-133431072D01*
X129351702Y-133432783D01*
X129403318Y-133481531D01*
X129420500Y-133545050D01*
X129420500Y-136760212D01*
X129418949Y-136779923D01*
X129417334Y-136790122D01*
X129415769Y-136800000D01*
X129416960Y-136807518D01*
X129417321Y-136813026D01*
X129417321Y-136813133D01*
X129417338Y-136813286D01*
X129428268Y-136980040D01*
X129432581Y-137045851D01*
X129433385Y-137049891D01*
X129433385Y-137049894D01*
X129478474Y-137276568D01*
X129480647Y-137287494D01*
X129481973Y-137291400D01*
X129481974Y-137291404D01*
X129547430Y-137484231D01*
X129559843Y-137520797D01*
X129561664Y-137524490D01*
X129561665Y-137524492D01*
X129664233Y-137732478D01*
X129668813Y-137741766D01*
X129805693Y-137946622D01*
X129968141Y-138131859D01*
X130153378Y-138294307D01*
X130358234Y-138431187D01*
X130361933Y-138433011D01*
X130361938Y-138433014D01*
X130543124Y-138522365D01*
X130579203Y-138540157D01*
X130583101Y-138541480D01*
X130583103Y-138541481D01*
X130808596Y-138618026D01*
X130808600Y-138618027D01*
X130812506Y-138619353D01*
X130816550Y-138620157D01*
X130816556Y-138620159D01*
X131050106Y-138666615D01*
X131050109Y-138666615D01*
X131054149Y-138667419D01*
X131058260Y-138667688D01*
X131058264Y-138667689D01*
X131286714Y-138682662D01*
X131286867Y-138682679D01*
X131286974Y-138682679D01*
X131292482Y-138683040D01*
X131300000Y-138684231D01*
X131309793Y-138682680D01*
X131309794Y-138682680D01*
X131320077Y-138681051D01*
X131339788Y-138679500D01*
X143220212Y-138679500D01*
X143239922Y-138681051D01*
X143260000Y-138684231D01*
X143261971Y-138683919D01*
X143272106Y-138683255D01*
X143272107Y-138683255D01*
X143533132Y-138666147D01*
X143533139Y-138666146D01*
X143537244Y-138665877D01*
X143541277Y-138665075D01*
X143541283Y-138665074D01*
X143805694Y-138612479D01*
X143805700Y-138612477D01*
X143809744Y-138611673D01*
X143813653Y-138610346D01*
X143813657Y-138610345D01*
X144068932Y-138523691D01*
X144068933Y-138523690D01*
X144072838Y-138522365D01*
X144257729Y-138431187D01*
X144318320Y-138401307D01*
X144318325Y-138401304D01*
X144322024Y-138399480D01*
X144419664Y-138334239D01*
X144549608Y-138247414D01*
X144549613Y-138247410D01*
X144553039Y-138245121D01*
X144556133Y-138242407D01*
X144556139Y-138242403D01*
X144758840Y-138064638D01*
X144761929Y-138061929D01*
X144863051Y-137946622D01*
X144942403Y-137856139D01*
X144942407Y-137856133D01*
X144945121Y-137853039D01*
X144948311Y-137848266D01*
X145099480Y-137622024D01*
X145101084Y-137623096D01*
X145146798Y-137579467D01*
X145175066Y-137568940D01*
X145237815Y-137553818D01*
X145355391Y-137525483D01*
X145355398Y-137525480D01*
X145361226Y-137524076D01*
X145366684Y-137521594D01*
X145366688Y-137521593D01*
X145490415Y-137465337D01*
X145553084Y-137436843D01*
X145704474Y-137329454D01*
X145720100Y-137318370D01*
X145720101Y-137318369D01*
X145724986Y-137314904D01*
X145859479Y-137174411D01*
X145866583Y-137166990D01*
X145870728Y-137162660D01*
X145927710Y-137074410D01*
X145981800Y-136990640D01*
X145981801Y-136990637D01*
X145985052Y-136985603D01*
X146063834Y-136790122D01*
X146104229Y-136583271D01*
X146104500Y-136577730D01*
X146104500Y-136272341D01*
X146089507Y-136115194D01*
X146085946Y-136103054D01*
X146031868Y-135918722D01*
X146030177Y-135912958D01*
X145977090Y-135809883D01*
X145936422Y-135730921D01*
X145936420Y-135730918D01*
X145933676Y-135725590D01*
X145880446Y-135657825D01*
X145807192Y-135564568D01*
X145807188Y-135564564D01*
X145803486Y-135559851D01*
X145798955Y-135555919D01*
X145648835Y-135425650D01*
X145648830Y-135425646D01*
X145644304Y-135421719D01*
X145461874Y-135316181D01*
X145262778Y-135247043D01*
X145256845Y-135246183D01*
X145256842Y-135246182D01*
X145060140Y-135217662D01*
X145060137Y-135217662D01*
X145054200Y-135216801D01*
X144843667Y-135226545D01*
X144837843Y-135227949D01*
X144837840Y-135227949D01*
X144644607Y-135274518D01*
X144644605Y-135274519D01*
X144638774Y-135275924D01*
X144557713Y-135312780D01*
X144487424Y-135322766D01*
X144422892Y-135293166D01*
X144384608Y-135233376D01*
X144384726Y-135162380D01*
X144425628Y-135100682D01*
X144506789Y-135034075D01*
X144527316Y-135020359D01*
X144655931Y-134951613D01*
X144678745Y-134942162D01*
X144818305Y-134899827D01*
X144842526Y-134895010D01*
X144965492Y-134882899D01*
X144980290Y-134883335D01*
X144980290Y-134882680D01*
X144990208Y-134882680D01*
X145000001Y-134884231D01*
X145020079Y-134881051D01*
X145039789Y-134879500D01*
X146160212Y-134879500D01*
X146179922Y-134881051D01*
X146200000Y-134884231D01*
X146209725Y-134882691D01*
X146209865Y-134882680D01*
X146211468Y-134882680D01*
X146214640Y-134882304D01*
X146400777Y-134867655D01*
X146516846Y-134839789D01*
X146591805Y-134821793D01*
X146591810Y-134821791D01*
X146596610Y-134820639D01*
X146601173Y-134818749D01*
X146601179Y-134818747D01*
X146778103Y-134745463D01*
X146778107Y-134745461D01*
X146782677Y-134743568D01*
X146954397Y-134638338D01*
X146958152Y-134635131D01*
X146958156Y-134635128D01*
X147103784Y-134510748D01*
X147107540Y-134507540D01*
X147130956Y-134480124D01*
X147235128Y-134358156D01*
X147235131Y-134358152D01*
X147238338Y-134354397D01*
X147343568Y-134182677D01*
X147345463Y-134178103D01*
X147418747Y-134001179D01*
X147418749Y-134001173D01*
X147420639Y-133996610D01*
X147422270Y-133989819D01*
X147444395Y-133897659D01*
X147467655Y-133800777D01*
X147477734Y-133672721D01*
X147478465Y-133667725D01*
X147479018Y-133666149D01*
X147479500Y-133660584D01*
X147479500Y-133655227D01*
X147479888Y-133645343D01*
X147481246Y-133628089D01*
X147482304Y-133614643D01*
X147482680Y-133611468D01*
X147482680Y-133609865D01*
X147482691Y-133609725D01*
X147484231Y-133600000D01*
X147481051Y-133579922D01*
X147479500Y-133560212D01*
X147479500Y-133153608D01*
X147499502Y-133085487D01*
X147535495Y-133048845D01*
X147558484Y-133033484D01*
X147602504Y-132967604D01*
X147607839Y-132959620D01*
X147614734Y-132949301D01*
X147629500Y-132875067D01*
X147629500Y-132742802D01*
X147649502Y-132674681D01*
X147703158Y-132628188D01*
X147773432Y-132618084D01*
X147787473Y-132620926D01*
X147903171Y-132651279D01*
X147903175Y-132651280D01*
X147910522Y-132653207D01*
X147992981Y-132654502D01*
X148060778Y-132675571D01*
X148106422Y-132729950D01*
X148117001Y-132780486D01*
X148117001Y-132894669D01*
X148117371Y-132901490D01*
X148122895Y-132952352D01*
X148126521Y-132967604D01*
X148171676Y-133088054D01*
X148180214Y-133103649D01*
X148256715Y-133205724D01*
X148269276Y-133218285D01*
X148371351Y-133294786D01*
X148386946Y-133303324D01*
X148507394Y-133348478D01*
X148522649Y-133352105D01*
X148573514Y-133357631D01*
X148580328Y-133358000D01*
X148731885Y-133358000D01*
X148747124Y-133353525D01*
X148748329Y-133352135D01*
X148750000Y-133344452D01*
X148750000Y-132580500D01*
X148770002Y-132512379D01*
X148823658Y-132465886D01*
X148875999Y-132454500D01*
X148949999Y-132454500D01*
X149024000Y-132454499D01*
X149092120Y-132474501D01*
X149138613Y-132528156D01*
X149150000Y-132580499D01*
X149150000Y-133339884D01*
X149154475Y-133355123D01*
X149155865Y-133356328D01*
X149163548Y-133357999D01*
X149319669Y-133357999D01*
X149326488Y-133357630D01*
X149330894Y-133357151D01*
X149400776Y-133369680D01*
X149452791Y-133418001D01*
X149470500Y-133482414D01*
X149470500Y-135360211D01*
X149468949Y-135379921D01*
X149465769Y-135399999D01*
X149467320Y-135409792D01*
X149467320Y-135419710D01*
X149466665Y-135419710D01*
X149467101Y-135434510D01*
X149457872Y-135528212D01*
X149453055Y-135552432D01*
X149419255Y-135663856D01*
X149409807Y-135686664D01*
X149370611Y-135759995D01*
X149354922Y-135789346D01*
X149341201Y-135809880D01*
X149269387Y-135897386D01*
X149267343Y-135899877D01*
X149249878Y-135917342D01*
X149217543Y-135943879D01*
X149159883Y-135991199D01*
X149139348Y-136004920D01*
X149036666Y-136059806D01*
X149013856Y-136069255D01*
X148902432Y-136103055D01*
X148878212Y-136107872D01*
X148803872Y-136115194D01*
X148784509Y-136117101D01*
X148769710Y-136116665D01*
X148769710Y-136117320D01*
X148759792Y-136117320D01*
X148749999Y-136115769D01*
X148729922Y-136118949D01*
X148710211Y-136120500D01*
X148685409Y-136120500D01*
X148617288Y-136100498D01*
X148570795Y-136046842D01*
X148564505Y-136029970D01*
X148531868Y-135918722D01*
X148530177Y-135912958D01*
X148477090Y-135809883D01*
X148436422Y-135730921D01*
X148436420Y-135730918D01*
X148433676Y-135725590D01*
X148380446Y-135657825D01*
X148307192Y-135564568D01*
X148307188Y-135564564D01*
X148303486Y-135559851D01*
X148298955Y-135555919D01*
X148148835Y-135425650D01*
X148148830Y-135425646D01*
X148144304Y-135421719D01*
X147961874Y-135316181D01*
X147762778Y-135247043D01*
X147756845Y-135246183D01*
X147756842Y-135246182D01*
X147560140Y-135217662D01*
X147560137Y-135217662D01*
X147554200Y-135216801D01*
X147343667Y-135226545D01*
X147337843Y-135227949D01*
X147337840Y-135227949D01*
X147144607Y-135274518D01*
X147144605Y-135274519D01*
X147138774Y-135275924D01*
X147133316Y-135278406D01*
X147133312Y-135278407D01*
X147057714Y-135312780D01*
X146946916Y-135363157D01*
X146868594Y-135418715D01*
X146787977Y-135475901D01*
X146775014Y-135485096D01*
X146674001Y-135590615D01*
X146641992Y-135624053D01*
X146629272Y-135637340D01*
X146626021Y-135642375D01*
X146568848Y-135730921D01*
X146514948Y-135814397D01*
X146436166Y-136009878D01*
X146395771Y-136216729D01*
X146395500Y-136222270D01*
X146395500Y-136527659D01*
X146410493Y-136684806D01*
X146412183Y-136690566D01*
X146412183Y-136690567D01*
X146438397Y-136779923D01*
X146469823Y-136887042D01*
X146472573Y-136892381D01*
X146551960Y-137046520D01*
X146566324Y-137074410D01*
X146577620Y-137088790D01*
X146692808Y-137235432D01*
X146692812Y-137235436D01*
X146696514Y-137240149D01*
X146701044Y-137244080D01*
X146701045Y-137244081D01*
X146851165Y-137374350D01*
X146851170Y-137374354D01*
X146855696Y-137378281D01*
X147038126Y-137483819D01*
X147237222Y-137552957D01*
X147243155Y-137553817D01*
X147243158Y-137553818D01*
X147439860Y-137582338D01*
X147439863Y-137582338D01*
X147445800Y-137583199D01*
X147656333Y-137573455D01*
X147662157Y-137572051D01*
X147662160Y-137572051D01*
X147855393Y-137525482D01*
X147855395Y-137525481D01*
X147861226Y-137524076D01*
X147866684Y-137521594D01*
X147866688Y-137521593D01*
X147990415Y-137465337D01*
X148053084Y-137436843D01*
X148204474Y-137329454D01*
X148220100Y-137318370D01*
X148220101Y-137318369D01*
X148224986Y-137314904D01*
X148359479Y-137174411D01*
X148366583Y-137166990D01*
X148370728Y-137162660D01*
X148427710Y-137074410D01*
X148481800Y-136990640D01*
X148481801Y-136990637D01*
X148485052Y-136985603D01*
X148496015Y-136958400D01*
X148540031Y-136902695D01*
X148612881Y-136879500D01*
X148710213Y-136879500D01*
X148729923Y-136881051D01*
X148750001Y-136884231D01*
X148759793Y-136882680D01*
X148761378Y-136882680D01*
X148766348Y-136882110D01*
X148961093Y-136868181D01*
X148965489Y-136867225D01*
X148965494Y-136867224D01*
X149163485Y-136824153D01*
X149163487Y-136824152D01*
X149167888Y-136823195D01*
X149366176Y-136749237D01*
X149370671Y-136746783D01*
X149547967Y-136649972D01*
X149551921Y-136647813D01*
X149721341Y-136520987D01*
X149870987Y-136371341D01*
X149997813Y-136201921D01*
X150043263Y-136118686D01*
X150097082Y-136020123D01*
X150097083Y-136020121D01*
X150099237Y-136016176D01*
X150173195Y-135817888D01*
X150174153Y-135813485D01*
X150217224Y-135615494D01*
X150217225Y-135615489D01*
X150218181Y-135611093D01*
X150222376Y-135552438D01*
X150228187Y-135471203D01*
X150228832Y-135466678D01*
X150229018Y-135466149D01*
X150229500Y-135460584D01*
X150229500Y-135457337D01*
X150229821Y-135448349D01*
X150231444Y-135425650D01*
X150232110Y-135416350D01*
X150232680Y-135411378D01*
X150232680Y-135409793D01*
X150234231Y-135400001D01*
X150231051Y-135379922D01*
X150229500Y-135360213D01*
X150229500Y-133100340D01*
X150249502Y-133032219D01*
X150303158Y-132985726D01*
X150373432Y-132975622D01*
X150397115Y-132981411D01*
X150497840Y-133016656D01*
X150502683Y-133017202D01*
X150543395Y-133034739D01*
X150612136Y-133080671D01*
X150614502Y-133082252D01*
X150660030Y-133136729D01*
X150670500Y-133187017D01*
X150670500Y-137310212D01*
X150668949Y-137329922D01*
X150665769Y-137350000D01*
X150666698Y-137355867D01*
X150667319Y-137362965D01*
X150667319Y-137362969D01*
X150673999Y-137439323D01*
X150683410Y-137546885D01*
X150684834Y-137552198D01*
X150684834Y-137552200D01*
X150731047Y-137724668D01*
X150734562Y-137737788D01*
X150736884Y-137742769D01*
X150736885Y-137742770D01*
X150815761Y-137911921D01*
X150815764Y-137911926D01*
X150818087Y-137916908D01*
X150931447Y-138078802D01*
X151071198Y-138218553D01*
X151075706Y-138221710D01*
X151075709Y-138221712D01*
X151179386Y-138294307D01*
X151233093Y-138331913D01*
X151238075Y-138334236D01*
X151238080Y-138334239D01*
X151377990Y-138399480D01*
X151412212Y-138415438D01*
X151417520Y-138416860D01*
X151417522Y-138416861D01*
X151449271Y-138425368D01*
X151603115Y-138466590D01*
X151726211Y-138477360D01*
X151731323Y-138478130D01*
X151733851Y-138479018D01*
X151739416Y-138479500D01*
X151745169Y-138479500D01*
X151756152Y-138479980D01*
X151787020Y-138482681D01*
X151787035Y-138482681D01*
X151794133Y-138483302D01*
X151800000Y-138484231D01*
X151820078Y-138481051D01*
X151839788Y-138479500D01*
X154360212Y-138479500D01*
X154379922Y-138481051D01*
X154400000Y-138484231D01*
X154409795Y-138482680D01*
X154409840Y-138482680D01*
X154418294Y-138481642D01*
X154570738Y-138468304D01*
X154702443Y-138433014D01*
X154730979Y-138425368D01*
X154730981Y-138425367D01*
X154736289Y-138423945D01*
X154751481Y-138416861D01*
X154886634Y-138353839D01*
X154886639Y-138353836D01*
X154891621Y-138351513D01*
X154977210Y-138291583D01*
X155027505Y-138256366D01*
X155027508Y-138256364D01*
X155032016Y-138253207D01*
X155153207Y-138132016D01*
X155251513Y-137991621D01*
X155253836Y-137986639D01*
X155253839Y-137986634D01*
X155321622Y-137841271D01*
X155321622Y-137841270D01*
X155323945Y-137836289D01*
X155338602Y-137781590D01*
X155366880Y-137676053D01*
X155366880Y-137676051D01*
X155368304Y-137670738D01*
X155368784Y-137665254D01*
X155368785Y-137665247D01*
X155375551Y-137587922D01*
X155401414Y-137521804D01*
X155448919Y-137484205D01*
X155547624Y-137439326D01*
X155547628Y-137439324D01*
X155553084Y-137436843D01*
X155704474Y-137329454D01*
X155720100Y-137318370D01*
X155720101Y-137318369D01*
X155724986Y-137314904D01*
X155859479Y-137174411D01*
X155866583Y-137166990D01*
X155870728Y-137162660D01*
X155927710Y-137074410D01*
X155981800Y-136990640D01*
X155981801Y-136990637D01*
X155985052Y-136985603D01*
X156063834Y-136790122D01*
X156104229Y-136583271D01*
X156104500Y-136577730D01*
X156104500Y-136272341D01*
X156089507Y-136115194D01*
X156085946Y-136103054D01*
X156031868Y-135918722D01*
X156030177Y-135912958D01*
X155977090Y-135809883D01*
X155936422Y-135730921D01*
X155936420Y-135730918D01*
X155933676Y-135725590D01*
X155880446Y-135657825D01*
X155807192Y-135564568D01*
X155807188Y-135564564D01*
X155803486Y-135559851D01*
X155798955Y-135555919D01*
X155648835Y-135425650D01*
X155648830Y-135425646D01*
X155644304Y-135421719D01*
X155461874Y-135316181D01*
X155262778Y-135247043D01*
X155256845Y-135246183D01*
X155256842Y-135246182D01*
X155060140Y-135217662D01*
X155060137Y-135217662D01*
X155054200Y-135216801D01*
X154843667Y-135226545D01*
X154837843Y-135227949D01*
X154837840Y-135227949D01*
X154644607Y-135274518D01*
X154644605Y-135274519D01*
X154638774Y-135275924D01*
X154633316Y-135278406D01*
X154633312Y-135278407D01*
X154557714Y-135312780D01*
X154446916Y-135363157D01*
X154368594Y-135418715D01*
X154287977Y-135475901D01*
X154275014Y-135485096D01*
X154174001Y-135590615D01*
X154141992Y-135624053D01*
X154129272Y-135637340D01*
X154126021Y-135642375D01*
X154086447Y-135703664D01*
X154032692Y-135750042D01*
X153962396Y-135759995D01*
X153897879Y-135730363D01*
X153859623Y-135670555D01*
X153855268Y-135648319D01*
X153847743Y-135575794D01*
X153844851Y-135562400D01*
X153793412Y-135408216D01*
X153787239Y-135395038D01*
X153701937Y-135257193D01*
X153692901Y-135245792D01*
X153578171Y-135131261D01*
X153566760Y-135122249D01*
X153428757Y-135037184D01*
X153415576Y-135031037D01*
X153261290Y-134979862D01*
X153247914Y-134976995D01*
X153153562Y-134967328D01*
X153147145Y-134967000D01*
X152772115Y-134967000D01*
X152756876Y-134971475D01*
X152755671Y-134972865D01*
X152754000Y-134980548D01*
X152754000Y-136528000D01*
X152733998Y-136596121D01*
X152680342Y-136642614D01*
X152628000Y-136654000D01*
X152372000Y-136654000D01*
X152303879Y-136633998D01*
X152257386Y-136580342D01*
X152246000Y-136528000D01*
X152246000Y-134985116D01*
X152241525Y-134969877D01*
X152240135Y-134968672D01*
X152232452Y-134967001D01*
X151852905Y-134967001D01*
X151846386Y-134967338D01*
X151750794Y-134977257D01*
X151737400Y-134980149D01*
X151595376Y-135027531D01*
X151524426Y-135030115D01*
X151463342Y-134993931D01*
X151431518Y-134930467D01*
X151429500Y-134908007D01*
X151429500Y-133187017D01*
X151449502Y-133118896D01*
X151485498Y-133082252D01*
X151487865Y-133080671D01*
X151558484Y-133033484D01*
X151602504Y-132967604D01*
X151607839Y-132959620D01*
X151614734Y-132949301D01*
X151629500Y-132875067D01*
X151629500Y-132742802D01*
X151649502Y-132674681D01*
X151703158Y-132628188D01*
X151773432Y-132618084D01*
X151787473Y-132620926D01*
X151903171Y-132651279D01*
X151903175Y-132651280D01*
X151910522Y-132653207D01*
X151992981Y-132654502D01*
X152060778Y-132675571D01*
X152106422Y-132729950D01*
X152117001Y-132780486D01*
X152117001Y-132894669D01*
X152117371Y-132901490D01*
X152122895Y-132952352D01*
X152126521Y-132967604D01*
X152171676Y-133088054D01*
X152180214Y-133103649D01*
X152256715Y-133205724D01*
X152269276Y-133218285D01*
X152371351Y-133294786D01*
X152386946Y-133303324D01*
X152507394Y-133348478D01*
X152522649Y-133352105D01*
X152573514Y-133357631D01*
X152580328Y-133358000D01*
X152731885Y-133358000D01*
X152747124Y-133353525D01*
X152748329Y-133352135D01*
X152750000Y-133344452D01*
X152750000Y-132580500D01*
X152770002Y-132512379D01*
X152823658Y-132465886D01*
X152875999Y-132454500D01*
X152962458Y-132454499D01*
X153024000Y-132454499D01*
X153092120Y-132474501D01*
X153138613Y-132528156D01*
X153150000Y-132580499D01*
X153150000Y-133339884D01*
X153154475Y-133355123D01*
X153177918Y-133375437D01*
X153216301Y-133435163D01*
X153221017Y-133460773D01*
X153233270Y-133616468D01*
X153234424Y-133621275D01*
X153234425Y-133621281D01*
X153260340Y-133729223D01*
X153283960Y-133827607D01*
X153285853Y-133832178D01*
X153285854Y-133832180D01*
X153364804Y-134022782D01*
X153367055Y-134028217D01*
X153480509Y-134213357D01*
X153621529Y-134378471D01*
X153786643Y-134519491D01*
X153971783Y-134632945D01*
X153976353Y-134634838D01*
X153976357Y-134634840D01*
X154167820Y-134714146D01*
X154172393Y-134716040D01*
X154246073Y-134733729D01*
X154378719Y-134765575D01*
X154378725Y-134765576D01*
X154383532Y-134766730D01*
X154529548Y-134778222D01*
X154533039Y-134778733D01*
X154533851Y-134779018D01*
X154536630Y-134779259D01*
X154536632Y-134779259D01*
X154536689Y-134779264D01*
X154539416Y-134779500D01*
X154542128Y-134779500D01*
X154544857Y-134779618D01*
X154544855Y-134779658D01*
X154550720Y-134779888D01*
X154563033Y-134780857D01*
X154594165Y-134783307D01*
X154600000Y-134784231D01*
X154620078Y-134781051D01*
X154639788Y-134779500D01*
X156994500Y-134779500D01*
X157062621Y-134799502D01*
X157109114Y-134853158D01*
X157120500Y-134905500D01*
X157120500Y-135203109D01*
X157100498Y-135271230D01*
X157046651Y-135317810D01*
X157030981Y-135324935D01*
X156946916Y-135363157D01*
X156868594Y-135418715D01*
X156787977Y-135475901D01*
X156775014Y-135485096D01*
X156674001Y-135590615D01*
X156641992Y-135624053D01*
X156629272Y-135637340D01*
X156626021Y-135642375D01*
X156568848Y-135730921D01*
X156514948Y-135814397D01*
X156436166Y-136009878D01*
X156395771Y-136216729D01*
X156395500Y-136222270D01*
X156395500Y-136527659D01*
X156410493Y-136684806D01*
X156412183Y-136690566D01*
X156412183Y-136690567D01*
X156438397Y-136779923D01*
X156469823Y-136887042D01*
X156472573Y-136892381D01*
X156551960Y-137046520D01*
X156566324Y-137074410D01*
X156577620Y-137088790D01*
X156692808Y-137235432D01*
X156692812Y-137235436D01*
X156696514Y-137240149D01*
X156701044Y-137244080D01*
X156701045Y-137244081D01*
X156851165Y-137374350D01*
X156851170Y-137374354D01*
X156855696Y-137378281D01*
X157038126Y-137483819D01*
X157237222Y-137552957D01*
X157243155Y-137553817D01*
X157243158Y-137553818D01*
X157439860Y-137582338D01*
X157439863Y-137582338D01*
X157445800Y-137583199D01*
X157656333Y-137573455D01*
X157662157Y-137572051D01*
X157662160Y-137572051D01*
X157855393Y-137525482D01*
X157855395Y-137525481D01*
X157861226Y-137524076D01*
X157866684Y-137521594D01*
X157866688Y-137521593D01*
X157990415Y-137465337D01*
X158053084Y-137436843D01*
X158204474Y-137329454D01*
X158220100Y-137318370D01*
X158220101Y-137318369D01*
X158224986Y-137314904D01*
X158359479Y-137174411D01*
X158366583Y-137166990D01*
X158370728Y-137162660D01*
X158427710Y-137074410D01*
X158481800Y-136990640D01*
X158481801Y-136990637D01*
X158485052Y-136985603D01*
X158563834Y-136790122D01*
X158604229Y-136583271D01*
X158604500Y-136577730D01*
X158604500Y-136272341D01*
X158589507Y-136115194D01*
X158585946Y-136103054D01*
X158531868Y-135918722D01*
X158530177Y-135912958D01*
X158477090Y-135809883D01*
X158436422Y-135730921D01*
X158436420Y-135730918D01*
X158433676Y-135725590D01*
X158380446Y-135657825D01*
X158307192Y-135564568D01*
X158307188Y-135564564D01*
X158303486Y-135559851D01*
X158298955Y-135555919D01*
X158148835Y-135425650D01*
X158148830Y-135425646D01*
X158144304Y-135421719D01*
X157961874Y-135316181D01*
X157956207Y-135314213D01*
X157953047Y-135312766D01*
X157899436Y-135266221D01*
X157879500Y-135198203D01*
X157879500Y-134839789D01*
X157881051Y-134820078D01*
X157882680Y-134809795D01*
X157882680Y-134809794D01*
X157884231Y-134800001D01*
X157882275Y-134787650D01*
X157881331Y-134780297D01*
X157881230Y-134779266D01*
X157868222Y-134647192D01*
X157823649Y-134500255D01*
X157809273Y-134473358D01*
X157754185Y-134370296D01*
X157754184Y-134370295D01*
X157751267Y-134364837D01*
X157653857Y-134246143D01*
X157535163Y-134148733D01*
X157516499Y-134138757D01*
X157405203Y-134079268D01*
X157405200Y-134079267D01*
X157399745Y-134076351D01*
X157252808Y-134031778D01*
X157183951Y-134024996D01*
X157172469Y-134023201D01*
X157166149Y-134020982D01*
X157160584Y-134020500D01*
X157144483Y-134020500D01*
X157132151Y-134019895D01*
X157119672Y-134018666D01*
X157112350Y-134017725D01*
X157099999Y-134015769D01*
X157090206Y-134017320D01*
X157090205Y-134017320D01*
X157079922Y-134018949D01*
X157060211Y-134020500D01*
X154639788Y-134020500D01*
X154620077Y-134018949D01*
X154600000Y-134015769D01*
X154590206Y-134017320D01*
X154580292Y-134017320D01*
X154580292Y-134016297D01*
X154565589Y-134016622D01*
X154476032Y-134006532D01*
X154448524Y-134000253D01*
X154366150Y-133971429D01*
X154308458Y-133930051D01*
X154282296Y-133864050D01*
X154295969Y-133794383D01*
X154345136Y-133743167D01*
X154407765Y-133726500D01*
X159620000Y-133726500D01*
X159688121Y-133746502D01*
X159734614Y-133800158D01*
X159746000Y-133852500D01*
X159746000Y-142620000D01*
X159725998Y-142688121D01*
X159672342Y-142734614D01*
X159620000Y-142746000D01*
X118380000Y-142746000D01*
X118311879Y-142725998D01*
X118265386Y-142672342D01*
X118254000Y-142620000D01*
X118254000Y-141867770D01*
X118274002Y-141799649D01*
X118327658Y-141753156D01*
X118397932Y-141743052D01*
X118459292Y-141769847D01*
X118468732Y-141777491D01*
X118632259Y-141886756D01*
X118642371Y-141892247D01*
X118823081Y-141969885D01*
X118834014Y-141973437D01*
X119025844Y-142016845D01*
X119037253Y-142018347D01*
X119233783Y-142026068D01*
X119245265Y-142025466D01*
X119439905Y-141997245D01*
X119451101Y-141994557D01*
X119637343Y-141931336D01*
X119647840Y-141926662D01*
X119766401Y-141860266D01*
X119776264Y-141850189D01*
X119775929Y-141849319D01*
X127225041Y-141849319D01*
X127234923Y-141861809D01*
X127272259Y-141886756D01*
X127282371Y-141892247D01*
X127463081Y-141969885D01*
X127474014Y-141973437D01*
X127665844Y-142016845D01*
X127677253Y-142018347D01*
X127873783Y-142026068D01*
X127885265Y-142025466D01*
X128079905Y-141997245D01*
X128091101Y-141994557D01*
X128277343Y-141931336D01*
X128287840Y-141926662D01*
X128406401Y-141860266D01*
X128416264Y-141850189D01*
X128413309Y-141842519D01*
X127832812Y-141262022D01*
X127818868Y-141254408D01*
X127817035Y-141254539D01*
X127810420Y-141258790D01*
X127231237Y-141837973D01*
X127225041Y-141849319D01*
X119775929Y-141849319D01*
X119773309Y-141842519D01*
X118909885Y-140979095D01*
X118875859Y-140916783D01*
X118877694Y-140891132D01*
X119544408Y-140891132D01*
X119544539Y-140892965D01*
X119548790Y-140899580D01*
X120128603Y-141479393D01*
X120140983Y-141486153D01*
X120147563Y-141481227D01*
X120216662Y-141357840D01*
X120221336Y-141347343D01*
X120284557Y-141161101D01*
X120287245Y-141149905D01*
X120315762Y-140953224D01*
X120316392Y-140945843D01*
X120317757Y-140893704D01*
X120317514Y-140886305D01*
X120315647Y-140865980D01*
X126682914Y-140865980D01*
X126695777Y-141062233D01*
X126697577Y-141073601D01*
X126745991Y-141264228D01*
X126749829Y-141275066D01*
X126832173Y-141453685D01*
X126837922Y-141463642D01*
X126847850Y-141477690D01*
X126858439Y-141486078D01*
X126871740Y-141479050D01*
X127447978Y-140902812D01*
X127454356Y-140891132D01*
X128184408Y-140891132D01*
X128184539Y-140892965D01*
X128188790Y-140899580D01*
X128768603Y-141479393D01*
X128780983Y-141486153D01*
X128787563Y-141481227D01*
X128856662Y-141357840D01*
X128861336Y-141347343D01*
X128924557Y-141161101D01*
X128927245Y-141149905D01*
X128955762Y-140953224D01*
X128956392Y-140945843D01*
X128957757Y-140893704D01*
X128957514Y-140886305D01*
X128939330Y-140688397D01*
X128937233Y-140677083D01*
X128883846Y-140487789D01*
X128879724Y-140477050D01*
X128792736Y-140300656D01*
X128791577Y-140298765D01*
X128782732Y-140292126D01*
X128770312Y-140298898D01*
X128192022Y-140877188D01*
X128184408Y-140891132D01*
X127454356Y-140891132D01*
X127455592Y-140888868D01*
X127455461Y-140887035D01*
X127451210Y-140880420D01*
X126870031Y-140299241D01*
X126857651Y-140292481D01*
X126851685Y-140296947D01*
X126771452Y-140449445D01*
X126767047Y-140460079D01*
X126708724Y-140647910D01*
X126706332Y-140659164D01*
X126683215Y-140854479D01*
X126682914Y-140865980D01*
X120315647Y-140865980D01*
X120299330Y-140688397D01*
X120297233Y-140677083D01*
X120243846Y-140487789D01*
X120239724Y-140477050D01*
X120152736Y-140300656D01*
X120151577Y-140298765D01*
X120142732Y-140292126D01*
X120130312Y-140298898D01*
X119552022Y-140877188D01*
X119544408Y-140891132D01*
X118877694Y-140891132D01*
X118880924Y-140845968D01*
X118909885Y-140800905D01*
X119768407Y-139942383D01*
X119774931Y-139930436D01*
X127224547Y-139930436D01*
X127228033Y-139938823D01*
X127807188Y-140517978D01*
X127821132Y-140525592D01*
X127822965Y-140525461D01*
X127829580Y-140521210D01*
X128408407Y-139942383D01*
X128415167Y-139930003D01*
X128409137Y-139921948D01*
X128341459Y-139879246D01*
X128331211Y-139874025D01*
X128148531Y-139801143D01*
X128137504Y-139797876D01*
X127944605Y-139759506D01*
X127933159Y-139758303D01*
X127736507Y-139755730D01*
X127725027Y-139756633D01*
X127531199Y-139789938D01*
X127520079Y-139792918D01*
X127335557Y-139860992D01*
X127325179Y-139865942D01*
X127234146Y-139920101D01*
X127224547Y-139930436D01*
X119774931Y-139930436D01*
X119775167Y-139930003D01*
X119769137Y-139921948D01*
X119701459Y-139879246D01*
X119691211Y-139874025D01*
X119508531Y-139801143D01*
X119497504Y-139797876D01*
X119304605Y-139759506D01*
X119293159Y-139758303D01*
X119096507Y-139755730D01*
X119085027Y-139756633D01*
X118891199Y-139789938D01*
X118880079Y-139792918D01*
X118695557Y-139860992D01*
X118685179Y-139865942D01*
X118516154Y-139966501D01*
X118506836Y-139973271D01*
X118463078Y-140011646D01*
X118398674Y-140041524D01*
X118328341Y-140031838D01*
X118274410Y-139985666D01*
X118254000Y-139916915D01*
X118254000Y-137849386D01*
X118274002Y-137781265D01*
X118327658Y-137734772D01*
X118397932Y-137724668D01*
X118452270Y-137746173D01*
X118544083Y-137810461D01*
X118553584Y-137815947D01*
X118743113Y-137904326D01*
X118753405Y-137908072D01*
X118955401Y-137962196D01*
X118966196Y-137964099D01*
X119174525Y-137982326D01*
X119185475Y-137982326D01*
X119393804Y-137964099D01*
X119404599Y-137962196D01*
X119606595Y-137908072D01*
X119616887Y-137904326D01*
X119806416Y-137815947D01*
X119815912Y-137810464D01*
X119857148Y-137781590D01*
X119865523Y-137771113D01*
X119865023Y-137770161D01*
X127134393Y-137770161D01*
X127143687Y-137782175D01*
X127184088Y-137810464D01*
X127193584Y-137815947D01*
X127383113Y-137904326D01*
X127393405Y-137908072D01*
X127595401Y-137962196D01*
X127606196Y-137964099D01*
X127814525Y-137982326D01*
X127825475Y-137982326D01*
X128033804Y-137964099D01*
X128044599Y-137962196D01*
X128246595Y-137908072D01*
X128256887Y-137904326D01*
X128446416Y-137815947D01*
X128455912Y-137810464D01*
X128497148Y-137781590D01*
X128505523Y-137771112D01*
X128498457Y-137757668D01*
X127832811Y-137092021D01*
X127818868Y-137084408D01*
X127817034Y-137084539D01*
X127810420Y-137088790D01*
X127140820Y-137758391D01*
X127134393Y-137770161D01*
X119865023Y-137770161D01*
X119858455Y-137757667D01*
X118909884Y-136809095D01*
X118875859Y-136746783D01*
X118880924Y-136675967D01*
X118909885Y-136630905D01*
X119180000Y-136360790D01*
X119439188Y-136101601D01*
X119452000Y-136078139D01*
X119452000Y-136012000D01*
X119472002Y-135943879D01*
X119525658Y-135897386D01*
X119578000Y-135886000D01*
X119636674Y-135886000D01*
X119662319Y-135878470D01*
X119829124Y-135711665D01*
X119891436Y-135677639D01*
X119962251Y-135682704D01*
X120007314Y-135711665D01*
X120033190Y-135737541D01*
X120043276Y-135743048D01*
X120046000Y-135735744D01*
X120046000Y-134972115D01*
X120041525Y-134956876D01*
X120040135Y-134955671D01*
X120032452Y-134954000D01*
X119410116Y-134954000D01*
X119394877Y-134958475D01*
X119393672Y-134959865D01*
X119392001Y-134967548D01*
X119392001Y-135028705D01*
X119392264Y-135034454D01*
X119398132Y-135098315D01*
X119400743Y-135111351D01*
X119447715Y-135261243D01*
X119453924Y-135274994D01*
X119457112Y-135280258D01*
X119475291Y-135348887D01*
X119453480Y-135416451D01*
X119398604Y-135461496D01*
X119338355Y-135471049D01*
X119185476Y-135457674D01*
X119174525Y-135457674D01*
X118966196Y-135475901D01*
X118955401Y-135477804D01*
X118753405Y-135531928D01*
X118743113Y-135535674D01*
X118553579Y-135624056D01*
X118544093Y-135629534D01*
X118452270Y-135693828D01*
X118384996Y-135716516D01*
X118316136Y-135699231D01*
X118267552Y-135647461D01*
X118254000Y-135590615D01*
X118254000Y-134548906D01*
X118274002Y-134480785D01*
X118327658Y-134434292D01*
X118397932Y-134424188D01*
X118419668Y-134429313D01*
X118543814Y-134470491D01*
X118557190Y-134473358D01*
X118648097Y-134482672D01*
X118653126Y-134482929D01*
X118668124Y-134478525D01*
X118669329Y-134477135D01*
X118671000Y-134469452D01*
X118671000Y-132535115D01*
X118666525Y-132519876D01*
X118665135Y-132518671D01*
X118657452Y-132517000D01*
X118654562Y-132517000D01*
X118648047Y-132517337D01*
X118555943Y-132526894D01*
X118542544Y-132529788D01*
X118419876Y-132570713D01*
X118348927Y-132573297D01*
X118287843Y-132537113D01*
X118256018Y-132473649D01*
X118254000Y-132451189D01*
X118254000Y-123922251D01*
X118274002Y-123854130D01*
X118327658Y-123807637D01*
X118397932Y-123797533D01*
X118417679Y-123802017D01*
X118488644Y-123824256D01*
X118501694Y-123826869D01*
X118565521Y-123832734D01*
X118571309Y-123833000D01*
X118627885Y-123833000D01*
X118643124Y-123828525D01*
X118644329Y-123827135D01*
X118646000Y-123819452D01*
X118646000Y-123814884D01*
X119154000Y-123814884D01*
X119158475Y-123830123D01*
X119159865Y-123831328D01*
X119167548Y-123832999D01*
X119228705Y-123832999D01*
X119234454Y-123832736D01*
X119298315Y-123826868D01*
X119311351Y-123824257D01*
X119461243Y-123777285D01*
X119474988Y-123771079D01*
X119608574Y-123690176D01*
X119620443Y-123680869D01*
X119730869Y-123570443D01*
X119740176Y-123558574D01*
X119821079Y-123424988D01*
X119827285Y-123411243D01*
X119874256Y-123261356D01*
X119876869Y-123248306D01*
X119881913Y-123193414D01*
X119878525Y-123181876D01*
X119877135Y-123180671D01*
X119869452Y-123179000D01*
X119172115Y-123179000D01*
X119156876Y-123183475D01*
X119155671Y-123184865D01*
X119154000Y-123192548D01*
X119154000Y-123814884D01*
X118646000Y-123814884D01*
X118646000Y-122797000D01*
X118666002Y-122728879D01*
X118719658Y-122682386D01*
X118772000Y-122671000D01*
X119864884Y-122671000D01*
X119880123Y-122666525D01*
X119881328Y-122665135D01*
X119882291Y-122660706D01*
X119876868Y-122601685D01*
X119874257Y-122588649D01*
X119827285Y-122438757D01*
X119821079Y-122425012D01*
X119740176Y-122291426D01*
X119730869Y-122279557D01*
X119620443Y-122169131D01*
X119608574Y-122159824D01*
X119474988Y-122078921D01*
X119454323Y-122069591D01*
X119455428Y-122067144D01*
X119406963Y-122034755D01*
X119378633Y-121969655D01*
X119389996Y-121899574D01*
X119428792Y-121852613D01*
X119492439Y-121805602D01*
X119500010Y-121800010D01*
X119505602Y-121792439D01*
X119505605Y-121792436D01*
X119569713Y-121705641D01*
X119626274Y-121662730D01*
X119671064Y-121654500D01*
X120266629Y-121654500D01*
X120334750Y-121674502D01*
G37*
%TD.AperFunction*%
%TA.AperFunction,Conductor*%
G36*
X131584264Y-132399502D02*
G01*
X131630757Y-132453158D01*
X131640861Y-132523432D01*
X131619454Y-132576174D01*
X131616412Y-132579216D01*
X131611909Y-132588054D01*
X131564806Y-132680500D01*
X131560039Y-132689855D01*
X131545500Y-132781651D01*
X131545501Y-133118348D01*
X131560039Y-133210145D01*
X131564541Y-133218980D01*
X131564541Y-133218981D01*
X131611551Y-133311243D01*
X131616412Y-133320784D01*
X131704216Y-133408588D01*
X131713056Y-133413092D01*
X131713057Y-133413093D01*
X131806019Y-133460459D01*
X131814855Y-133464961D01*
X131906651Y-133479500D01*
X132199940Y-133479500D01*
X132493348Y-133479499D01*
X132585145Y-133464961D01*
X132593981Y-133460459D01*
X132686943Y-133413093D01*
X132686944Y-133413092D01*
X132695784Y-133408588D01*
X132783588Y-133320784D01*
X132788450Y-133311243D01*
X132835459Y-133218981D01*
X132835459Y-133218980D01*
X132839961Y-133210145D01*
X132846738Y-133167356D01*
X132877150Y-133103203D01*
X132898918Y-133083852D01*
X132907848Y-133077600D01*
X132907855Y-133077594D01*
X132912361Y-133074439D01*
X132932761Y-133054039D01*
X132995073Y-133020013D01*
X133065888Y-133025078D01*
X133122724Y-133067625D01*
X133146305Y-133123425D01*
X133160039Y-133210145D01*
X133164541Y-133218980D01*
X133164541Y-133218981D01*
X133211551Y-133311243D01*
X133216412Y-133320784D01*
X133304216Y-133408588D01*
X133348344Y-133431072D01*
X133351702Y-133432783D01*
X133403318Y-133481531D01*
X133420500Y-133545050D01*
X133420500Y-137110213D01*
X133418949Y-137129923D01*
X133415769Y-137150001D01*
X133417321Y-137159798D01*
X133417321Y-137160636D01*
X133417935Y-137165635D01*
X133419475Y-137183233D01*
X133432267Y-137329454D01*
X133478891Y-137503455D01*
X133508158Y-137566218D01*
X133552695Y-137661729D01*
X133552698Y-137661734D01*
X133555021Y-137666716D01*
X133590455Y-137717321D01*
X133593892Y-137722229D01*
X133616580Y-137789503D01*
X133599295Y-137858363D01*
X133547526Y-137906948D01*
X133490679Y-137920500D01*
X131339788Y-137920500D01*
X131320077Y-137918949D01*
X131309794Y-137917320D01*
X131309793Y-137917320D01*
X131300000Y-137915769D01*
X131290205Y-137917321D01*
X131280289Y-137917321D01*
X131280289Y-137916946D01*
X131265348Y-137917468D01*
X131116409Y-137904437D01*
X131094780Y-137900624D01*
X130996624Y-137874323D01*
X130927413Y-137855778D01*
X130906778Y-137848267D01*
X130749737Y-137775038D01*
X130730717Y-137764056D01*
X130597622Y-137670862D01*
X130588786Y-137664675D01*
X130571962Y-137650558D01*
X130449442Y-137528038D01*
X130435324Y-137511213D01*
X130414205Y-137481051D01*
X130335944Y-137369283D01*
X130324962Y-137350263D01*
X130293407Y-137282592D01*
X130251733Y-137193222D01*
X130244222Y-137172586D01*
X130242360Y-137165635D01*
X130210263Y-137045851D01*
X130199376Y-137005220D01*
X130195563Y-136983591D01*
X130182532Y-136834652D01*
X130183054Y-136819711D01*
X130182679Y-136819711D01*
X130182679Y-136809795D01*
X130184231Y-136800000D01*
X130182667Y-136790122D01*
X130181051Y-136779923D01*
X130179500Y-136760212D01*
X130179500Y-133545050D01*
X130199502Y-133476929D01*
X130248298Y-133432783D01*
X130251656Y-133431072D01*
X130295784Y-133408588D01*
X130383588Y-133320784D01*
X130388450Y-133311243D01*
X130435459Y-133218981D01*
X130435459Y-133218980D01*
X130439961Y-133210145D01*
X130454500Y-133118349D01*
X130454499Y-132781652D01*
X130439961Y-132689855D01*
X130435195Y-132680500D01*
X130388091Y-132588054D01*
X130383588Y-132579216D01*
X130380804Y-132576432D01*
X130358062Y-132512693D01*
X130374143Y-132443541D01*
X130425057Y-132394061D01*
X130483857Y-132379500D01*
X131516143Y-132379500D01*
X131584264Y-132399502D01*
G37*
%TD.AperFunction*%
%TA.AperFunction,Conductor*%
G36*
X135584264Y-132399502D02*
G01*
X135630757Y-132453158D01*
X135640861Y-132523432D01*
X135619454Y-132576174D01*
X135616412Y-132579216D01*
X135611909Y-132588054D01*
X135564806Y-132680500D01*
X135560039Y-132689855D01*
X135545500Y-132781651D01*
X135545501Y-133118348D01*
X135560039Y-133210145D01*
X135564541Y-133218980D01*
X135564541Y-133218981D01*
X135611551Y-133311243D01*
X135616412Y-133320784D01*
X135704216Y-133408588D01*
X135713056Y-133413092D01*
X135713057Y-133413093D01*
X135806019Y-133460459D01*
X135814855Y-133464961D01*
X135906651Y-133479500D01*
X136199940Y-133479500D01*
X136493348Y-133479499D01*
X136585145Y-133464961D01*
X136593981Y-133460459D01*
X136686943Y-133413093D01*
X136686944Y-133413092D01*
X136695784Y-133408588D01*
X136783588Y-133320784D01*
X136788450Y-133311243D01*
X136835459Y-133218981D01*
X136835459Y-133218980D01*
X136839961Y-133210145D01*
X136841926Y-133197742D01*
X136843096Y-133190352D01*
X136873507Y-133126198D01*
X136892602Y-133108923D01*
X136895436Y-133107186D01*
X136899577Y-133103649D01*
X137032855Y-132989819D01*
X137036611Y-132986611D01*
X137048689Y-132972470D01*
X137108137Y-132933661D01*
X137179132Y-132933153D01*
X137239131Y-132971108D01*
X137269086Y-133035476D01*
X137270500Y-133054300D01*
X137270500Y-135060216D01*
X137268949Y-135079923D01*
X137265769Y-135100004D01*
X137268950Y-135120086D01*
X137270500Y-135139786D01*
X137270500Y-135144936D01*
X137250498Y-135213057D01*
X137196842Y-135259550D01*
X137174022Y-135267429D01*
X137165118Y-135269575D01*
X137138774Y-135275924D01*
X137133316Y-135278406D01*
X137133312Y-135278407D01*
X137057714Y-135312780D01*
X136946916Y-135363157D01*
X136868594Y-135418715D01*
X136787977Y-135475901D01*
X136775014Y-135485096D01*
X136674001Y-135590615D01*
X136641992Y-135624053D01*
X136629272Y-135637340D01*
X136626021Y-135642375D01*
X136586447Y-135703664D01*
X136532692Y-135750042D01*
X136462396Y-135759995D01*
X136397879Y-135730363D01*
X136359623Y-135670555D01*
X136355268Y-135648319D01*
X136347743Y-135575794D01*
X136344851Y-135562400D01*
X136293412Y-135408216D01*
X136287239Y-135395038D01*
X136201937Y-135257193D01*
X136192901Y-135245792D01*
X136078171Y-135131261D01*
X136066760Y-135122249D01*
X135928757Y-135037184D01*
X135915576Y-135031037D01*
X135761290Y-134979862D01*
X135747914Y-134976995D01*
X135653562Y-134967328D01*
X135647145Y-134967000D01*
X135272115Y-134967000D01*
X135256876Y-134971475D01*
X135255671Y-134972865D01*
X135254000Y-134980548D01*
X135254000Y-136528000D01*
X135233998Y-136596121D01*
X135180342Y-136642614D01*
X135128000Y-136654000D01*
X134872000Y-136654000D01*
X134803879Y-136633998D01*
X134757386Y-136580342D01*
X134746000Y-136528000D01*
X134746000Y-134985116D01*
X134741525Y-134969877D01*
X134740135Y-134968672D01*
X134732452Y-134967001D01*
X134352905Y-134967001D01*
X134346383Y-134967339D01*
X134318502Y-134970231D01*
X134248681Y-134957365D01*
X134196899Y-134908794D01*
X134179500Y-134844904D01*
X134179500Y-133545050D01*
X134199502Y-133476929D01*
X134248298Y-133432783D01*
X134251656Y-133431072D01*
X134295784Y-133408588D01*
X134383588Y-133320784D01*
X134388450Y-133311243D01*
X134435459Y-133218981D01*
X134435459Y-133218980D01*
X134439961Y-133210145D01*
X134454500Y-133118349D01*
X134454499Y-132781652D01*
X134439961Y-132689855D01*
X134435195Y-132680500D01*
X134388091Y-132588054D01*
X134383588Y-132579216D01*
X134380804Y-132576432D01*
X134358062Y-132512693D01*
X134374143Y-132443541D01*
X134425057Y-132394061D01*
X134483857Y-132379500D01*
X135516143Y-132379500D01*
X135584264Y-132399502D01*
G37*
%TD.AperFunction*%
%TA.AperFunction,Conductor*%
G36*
X138355004Y-127229247D02*
G01*
X138370699Y-127239734D01*
X138434594Y-127252443D01*
X138439081Y-127253336D01*
X138501991Y-127286243D01*
X138537123Y-127347938D01*
X138540500Y-127376915D01*
X138540500Y-128142811D01*
X138538949Y-128162521D01*
X138535769Y-128182599D01*
X138537321Y-128192396D01*
X138537321Y-128193770D01*
X138538079Y-128200561D01*
X138551279Y-128401948D01*
X138594163Y-128617544D01*
X138595488Y-128621447D01*
X138595489Y-128621451D01*
X138661452Y-128815770D01*
X138664822Y-128825698D01*
X138701709Y-128900498D01*
X138757833Y-129014305D01*
X138762046Y-129022849D01*
X138764340Y-129026282D01*
X138848468Y-129152187D01*
X138884172Y-129205622D01*
X138886886Y-129208716D01*
X138886890Y-129208722D01*
X138934832Y-129263389D01*
X139017238Y-129357355D01*
X139021508Y-129362700D01*
X139022481Y-129363673D01*
X139028308Y-129371693D01*
X139036330Y-129377521D01*
X139043342Y-129384533D01*
X139042878Y-129384997D01*
X139053651Y-129395152D01*
X139088043Y-129437059D01*
X139101765Y-129457596D01*
X139137817Y-129525044D01*
X139147267Y-129547857D01*
X139169469Y-129621047D01*
X139174287Y-129645271D01*
X139179601Y-129699220D01*
X139179165Y-129714020D01*
X139179820Y-129714020D01*
X139179820Y-129723938D01*
X139178269Y-129733731D01*
X139179820Y-129743523D01*
X139181449Y-129753808D01*
X139183000Y-129773519D01*
X139183000Y-130369500D01*
X139162998Y-130437621D01*
X139109342Y-130484114D01*
X139057000Y-130495500D01*
X138943166Y-130495500D01*
X138848445Y-130510502D01*
X138734277Y-130568674D01*
X138643674Y-130659277D01*
X138585502Y-130773445D01*
X138570500Y-130868166D01*
X138570500Y-131231834D01*
X138585502Y-131326555D01*
X138643674Y-131440723D01*
X138734277Y-131531326D01*
X138848445Y-131589498D01*
X138943166Y-131604500D01*
X140181834Y-131604500D01*
X140276555Y-131589498D01*
X140285389Y-131584997D01*
X140294822Y-131581932D01*
X140295742Y-131584763D01*
X140349849Y-131574602D01*
X140415634Y-131601302D01*
X140456540Y-131659330D01*
X140459280Y-131723251D01*
X140460502Y-131723445D01*
X140460043Y-131726346D01*
X140445500Y-131818166D01*
X140445500Y-132032827D01*
X140425498Y-132100948D01*
X140371842Y-132147441D01*
X140301568Y-132157545D01*
X140284345Y-132153823D01*
X140259941Y-132146732D01*
X140247333Y-132144430D01*
X140218916Y-132142193D01*
X140213986Y-132142000D01*
X139834615Y-132142000D01*
X139819376Y-132146475D01*
X139818171Y-132147865D01*
X139816500Y-132155548D01*
X139816500Y-133739884D01*
X139820975Y-133755123D01*
X139822365Y-133756328D01*
X139830048Y-133757999D01*
X140213984Y-133757999D01*
X140218920Y-133757805D01*
X140247336Y-133755570D01*
X140259931Y-133753270D01*
X140405790Y-133710893D01*
X140420221Y-133704648D01*
X140549678Y-133628089D01*
X140562104Y-133618449D01*
X140668449Y-133512104D01*
X140678089Y-133499678D01*
X140754648Y-133370221D01*
X140760893Y-133355790D01*
X140803271Y-133209927D01*
X140804871Y-133201167D01*
X140806480Y-133197969D01*
X140806252Y-133188666D01*
X140806391Y-133186906D01*
X140831694Y-133120571D01*
X140888844Y-133078447D01*
X140959695Y-133073907D01*
X141021754Y-133108394D01*
X141055316Y-133170956D01*
X141058000Y-133196826D01*
X141058000Y-133197712D01*
X141056436Y-133217502D01*
X141056297Y-133218376D01*
X141054710Y-133221718D01*
X141054820Y-133223810D01*
X141054820Y-133227706D01*
X141053269Y-133237500D01*
X141054093Y-133242705D01*
X141054819Y-133251003D01*
X141054819Y-133251019D01*
X141070392Y-133429000D01*
X141071054Y-133436564D01*
X141072478Y-133441877D01*
X141072478Y-133441879D01*
X141120549Y-133621281D01*
X141122772Y-133629579D01*
X141125095Y-133634560D01*
X141125095Y-133634561D01*
X141204895Y-133805694D01*
X141204898Y-133805699D01*
X141207221Y-133810681D01*
X141251673Y-133874164D01*
X141311112Y-133959051D01*
X141321836Y-133974367D01*
X141463133Y-134115664D01*
X141467642Y-134118821D01*
X141467644Y-134118823D01*
X141487844Y-134132967D01*
X141626819Y-134230279D01*
X141631801Y-134232602D01*
X141631806Y-134232605D01*
X141710787Y-134269434D01*
X141807921Y-134314728D01*
X141813229Y-134316150D01*
X141813231Y-134316151D01*
X141995621Y-134365022D01*
X141995623Y-134365022D01*
X142000936Y-134366446D01*
X142006422Y-134366926D01*
X142006428Y-134366927D01*
X142125482Y-134377344D01*
X142191600Y-134403207D01*
X142233240Y-134460711D01*
X142240500Y-134502864D01*
X142240500Y-135152166D01*
X142220498Y-135220287D01*
X142166842Y-135266780D01*
X142150254Y-135272508D01*
X142150274Y-135272567D01*
X142144606Y-135274518D01*
X142138774Y-135275924D01*
X142133316Y-135278406D01*
X142133312Y-135278407D01*
X142057714Y-135312780D01*
X141946916Y-135363157D01*
X141868594Y-135418715D01*
X141787977Y-135475901D01*
X141775014Y-135485096D01*
X141770872Y-135489423D01*
X141770865Y-135489429D01*
X141757367Y-135503529D01*
X141695812Y-135538905D01*
X141624903Y-135535386D01*
X141567152Y-135494089D01*
X141549941Y-135464616D01*
X141493978Y-135329509D01*
X141493976Y-135329505D01*
X141492083Y-135324935D01*
X141385704Y-135151340D01*
X141253477Y-134996523D01*
X141098660Y-134864296D01*
X140925065Y-134757917D01*
X140920495Y-134756024D01*
X140920491Y-134756022D01*
X140741538Y-134681897D01*
X140741536Y-134681896D01*
X140736965Y-134680003D01*
X140668020Y-134663451D01*
X140543805Y-134633629D01*
X140543799Y-134633628D01*
X140538992Y-134632474D01*
X140463757Y-134626553D01*
X140408427Y-134622198D01*
X140403639Y-134621497D01*
X140402171Y-134620982D01*
X140396606Y-134620500D01*
X140391802Y-134620500D01*
X140381917Y-134620112D01*
X140373910Y-134619482D01*
X140350116Y-134617609D01*
X140347680Y-134617321D01*
X140346452Y-134617321D01*
X140345195Y-134617222D01*
X140336022Y-134615769D01*
X140326229Y-134617320D01*
X140326228Y-134617320D01*
X140315945Y-134618949D01*
X140296234Y-134620500D01*
X138155500Y-134620500D01*
X138087379Y-134600498D01*
X138040886Y-134546842D01*
X138029500Y-134494500D01*
X138029500Y-133215871D01*
X138323456Y-133215871D01*
X138364107Y-133355790D01*
X138370352Y-133370221D01*
X138446911Y-133499678D01*
X138456551Y-133512104D01*
X138562896Y-133618449D01*
X138575322Y-133628089D01*
X138704779Y-133704648D01*
X138719210Y-133710893D01*
X138865065Y-133753269D01*
X138877667Y-133755570D01*
X138906084Y-133757807D01*
X138911014Y-133758000D01*
X139290385Y-133758000D01*
X139305624Y-133753525D01*
X139306829Y-133752135D01*
X139308500Y-133744452D01*
X139308500Y-133222115D01*
X139304025Y-133206876D01*
X139302635Y-133205671D01*
X139294952Y-133204000D01*
X138338122Y-133204000D01*
X138324591Y-133207973D01*
X138323456Y-133215871D01*
X138029500Y-133215871D01*
X138029500Y-132678605D01*
X138325061Y-132678605D01*
X138325101Y-132692706D01*
X138332370Y-132696000D01*
X139290385Y-132696000D01*
X139305624Y-132691525D01*
X139306829Y-132690135D01*
X139308500Y-132682452D01*
X139308500Y-132160116D01*
X139304025Y-132144877D01*
X139302635Y-132143672D01*
X139294952Y-132142001D01*
X138911017Y-132142001D01*
X138906080Y-132142195D01*
X138877664Y-132144430D01*
X138865069Y-132146730D01*
X138719210Y-132189107D01*
X138704779Y-132195352D01*
X138575322Y-132271911D01*
X138562896Y-132281551D01*
X138456551Y-132387896D01*
X138446911Y-132400322D01*
X138370352Y-132529779D01*
X138364107Y-132544210D01*
X138325061Y-132678605D01*
X138029500Y-132678605D01*
X138029500Y-127376913D01*
X138049502Y-127308792D01*
X138103158Y-127262299D01*
X138130909Y-127253337D01*
X138199301Y-127239734D01*
X138214996Y-127229247D01*
X138282748Y-127208030D01*
X138355004Y-127229247D01*
G37*
%TD.AperFunction*%
%TA.AperFunction,Conductor*%
G36*
X148479923Y-128181051D02*
G01*
X148490206Y-128182680D01*
X148490207Y-128182680D01*
X148500000Y-128184231D01*
X148509795Y-128182679D01*
X148519711Y-128182679D01*
X148519711Y-128183054D01*
X148534652Y-128182532D01*
X148657543Y-128193284D01*
X148679171Y-128197097D01*
X148821288Y-128235177D01*
X148841919Y-128242687D01*
X148902367Y-128270874D01*
X148975260Y-128304865D01*
X148994280Y-128315847D01*
X149114798Y-128400234D01*
X149131623Y-128414352D01*
X149235648Y-128518377D01*
X149249766Y-128535202D01*
X149334153Y-128655720D01*
X149345135Y-128674740D01*
X149377142Y-128743379D01*
X149405919Y-128805090D01*
X149407312Y-128808078D01*
X149414823Y-128828712D01*
X149449795Y-128959228D01*
X149452903Y-128970827D01*
X149456716Y-128992457D01*
X149467468Y-129115348D01*
X149466946Y-129130289D01*
X149467321Y-129130289D01*
X149467321Y-129140205D01*
X149465769Y-129150000D01*
X149467320Y-129159793D01*
X149467320Y-129159794D01*
X149468949Y-129170077D01*
X149470500Y-129189788D01*
X149470500Y-130775870D01*
X149450498Y-130843991D01*
X149396842Y-130890484D01*
X149319919Y-130899449D01*
X149300067Y-130895500D01*
X148950057Y-130895500D01*
X148599934Y-130895501D01*
X148565509Y-130902348D01*
X148537874Y-130907844D01*
X148537872Y-130907845D01*
X148525699Y-130910266D01*
X148515379Y-130917161D01*
X148515378Y-130917162D01*
X148512909Y-130918812D01*
X148441516Y-130966516D01*
X148385266Y-131050699D01*
X148370500Y-131124933D01*
X148370500Y-131256636D01*
X148350498Y-131324757D01*
X148296842Y-131371250D01*
X148226568Y-131381354D01*
X148213804Y-131378840D01*
X148090002Y-131347743D01*
X148082633Y-131345892D01*
X148075034Y-131345852D01*
X148075033Y-131345852D01*
X148047988Y-131345710D01*
X148008338Y-131345503D01*
X147940324Y-131325145D01*
X147894113Y-131271246D01*
X147882999Y-131219505D01*
X147882999Y-131105331D01*
X147882629Y-131098510D01*
X147877105Y-131047648D01*
X147873479Y-131032396D01*
X147828324Y-130911946D01*
X147819786Y-130896351D01*
X147743285Y-130794276D01*
X147730724Y-130781715D01*
X147628649Y-130705214D01*
X147613054Y-130696676D01*
X147492606Y-130651522D01*
X147477351Y-130647895D01*
X147426486Y-130642369D01*
X147419672Y-130642000D01*
X147268115Y-130642000D01*
X147252876Y-130646475D01*
X147251671Y-130647865D01*
X147250000Y-130655548D01*
X147250000Y-131419500D01*
X147229998Y-131487621D01*
X147176342Y-131534114D01*
X147124000Y-131545500D01*
X146715286Y-131545501D01*
X146699934Y-131545501D01*
X146690193Y-131547439D01*
X146689486Y-131547579D01*
X146664907Y-131550000D01*
X146235116Y-131550000D01*
X146219877Y-131554475D01*
X146218672Y-131555865D01*
X146217001Y-131563548D01*
X146217001Y-131594669D01*
X146217371Y-131601490D01*
X146222895Y-131652352D01*
X146226521Y-131667604D01*
X146271676Y-131788054D01*
X146280214Y-131803649D01*
X146356715Y-131905724D01*
X146369272Y-131918281D01*
X146420065Y-131956348D01*
X146462580Y-132013208D01*
X146470500Y-132057174D01*
X146470501Y-132138119D01*
X146470501Y-132225066D01*
X146479818Y-132271911D01*
X146485266Y-132299301D01*
X146481066Y-132300136D01*
X146486157Y-132347324D01*
X146485172Y-132350680D01*
X146485266Y-132350699D01*
X146470500Y-132424933D01*
X146470501Y-132875066D01*
X146485266Y-132949301D01*
X146492161Y-132959620D01*
X146492162Y-132959622D01*
X146530272Y-133016656D01*
X146541516Y-133033484D01*
X146625699Y-133089734D01*
X146637873Y-133092155D01*
X146642719Y-133094163D01*
X146697999Y-133138712D01*
X146720500Y-133210572D01*
X146720500Y-133560212D01*
X146718949Y-133579922D01*
X146715769Y-133600000D01*
X146717320Y-133609794D01*
X146717320Y-133619708D01*
X146716297Y-133619708D01*
X146716622Y-133634411D01*
X146709039Y-133701715D01*
X146702760Y-133729223D01*
X146673642Y-133812437D01*
X146661400Y-133837858D01*
X146614495Y-133912507D01*
X146596903Y-133934566D01*
X146534566Y-133996903D01*
X146512507Y-134014495D01*
X146437858Y-134061400D01*
X146412437Y-134073642D01*
X146329223Y-134102760D01*
X146301715Y-134109039D01*
X146234411Y-134116622D01*
X146219708Y-134116297D01*
X146219708Y-134117320D01*
X146209794Y-134117320D01*
X146200000Y-134115769D01*
X146179923Y-134118949D01*
X146160212Y-134120500D01*
X145039787Y-134120500D01*
X145020076Y-134118949D01*
X144999999Y-134115769D01*
X144993448Y-134116807D01*
X144986247Y-134117322D01*
X144986246Y-134117322D01*
X144810806Y-134129870D01*
X144767505Y-134132967D01*
X144740889Y-134138757D01*
X144544141Y-134181556D01*
X144544134Y-134181558D01*
X144539744Y-134182513D01*
X144535529Y-134184085D01*
X144535526Y-134184086D01*
X144468354Y-134209140D01*
X144321352Y-134263969D01*
X144116776Y-134375677D01*
X143930179Y-134515361D01*
X143765361Y-134680179D01*
X143625677Y-134866776D01*
X143513969Y-135071352D01*
X143486524Y-135144936D01*
X143437668Y-135275924D01*
X143432513Y-135289744D01*
X143431557Y-135294137D01*
X143431553Y-135294152D01*
X143407773Y-135403467D01*
X143373748Y-135465779D01*
X143311436Y-135499804D01*
X143240620Y-135494739D01*
X143202072Y-135471848D01*
X143190143Y-135461496D01*
X143144304Y-135421719D01*
X143106763Y-135400001D01*
X143062405Y-135374339D01*
X143013456Y-135322914D01*
X142999500Y-135265275D01*
X142999500Y-134459789D01*
X143001051Y-134440078D01*
X143004231Y-134420001D01*
X143002528Y-134409248D01*
X143001584Y-134401887D01*
X142988539Y-134269434D01*
X142987932Y-134263271D01*
X142982737Y-134246143D01*
X142944013Y-134118488D01*
X142944012Y-134118485D01*
X142942216Y-134112565D01*
X142936976Y-134102760D01*
X142870895Y-133979132D01*
X142870894Y-133979131D01*
X142867977Y-133973673D01*
X142864052Y-133968890D01*
X142864047Y-133968883D01*
X142818555Y-133913451D01*
X142790801Y-133848104D01*
X142802783Y-133778126D01*
X142850696Y-133725734D01*
X142919327Y-133707563D01*
X142953633Y-133713284D01*
X142988644Y-133724256D01*
X143001694Y-133726869D01*
X143065521Y-133732734D01*
X143071309Y-133733000D01*
X143127885Y-133733000D01*
X143143124Y-133728525D01*
X143144329Y-133727135D01*
X143146000Y-133719452D01*
X143146000Y-133714884D01*
X143654000Y-133714884D01*
X143658475Y-133730123D01*
X143659865Y-133731328D01*
X143667548Y-133732999D01*
X143728705Y-133732999D01*
X143734454Y-133732736D01*
X143798315Y-133726868D01*
X143811351Y-133724257D01*
X143961243Y-133677285D01*
X143974988Y-133671079D01*
X144108574Y-133590176D01*
X144126415Y-133576186D01*
X144127622Y-133577725D01*
X144181044Y-133548554D01*
X144251859Y-133553619D01*
X144285921Y-133572794D01*
X144298844Y-133583000D01*
X144431880Y-133665004D01*
X144445061Y-133671151D01*
X144593814Y-133720491D01*
X144607190Y-133723358D01*
X144698097Y-133732672D01*
X144704513Y-133733000D01*
X144727885Y-133733000D01*
X144743124Y-133728525D01*
X144744329Y-133727135D01*
X144746000Y-133719452D01*
X144746000Y-133714885D01*
X145254000Y-133714885D01*
X145258475Y-133730124D01*
X145259865Y-133731329D01*
X145267548Y-133733000D01*
X145295438Y-133733000D01*
X145301953Y-133732663D01*
X145394057Y-133723106D01*
X145407456Y-133720212D01*
X145556107Y-133670619D01*
X145569286Y-133664445D01*
X145702173Y-133582212D01*
X145713574Y-133573176D01*
X145823986Y-133462571D01*
X145832998Y-133451160D01*
X145915004Y-133318120D01*
X145921151Y-133304939D01*
X145970491Y-133156186D01*
X145973358Y-133142810D01*
X145982672Y-133051903D01*
X145982929Y-133046874D01*
X145978525Y-133031876D01*
X145977135Y-133030671D01*
X145969452Y-133029000D01*
X145272115Y-133029000D01*
X145256876Y-133033475D01*
X145255671Y-133034865D01*
X145254000Y-133042548D01*
X145254000Y-133714885D01*
X144746000Y-133714885D01*
X144746000Y-133047115D01*
X144741525Y-133031876D01*
X144740135Y-133030671D01*
X144732452Y-133029000D01*
X144441115Y-133029000D01*
X144425876Y-133033474D01*
X144424111Y-133035512D01*
X144364385Y-133073896D01*
X144328886Y-133079000D01*
X143672115Y-133079000D01*
X143656876Y-133083475D01*
X143655671Y-133084865D01*
X143654000Y-133092548D01*
X143654000Y-133714884D01*
X143146000Y-133714884D01*
X143146000Y-133097115D01*
X143141525Y-133081876D01*
X143140135Y-133080671D01*
X143132452Y-133079000D01*
X142435116Y-133079000D01*
X142419877Y-133083475D01*
X142418672Y-133084865D01*
X142417709Y-133089294D01*
X142423132Y-133148315D01*
X142425743Y-133161351D01*
X142472715Y-133311243D01*
X142478921Y-133324988D01*
X142563758Y-133465070D01*
X142560865Y-133466822D01*
X142581583Y-133518608D01*
X142568131Y-133588319D01*
X142519127Y-133639690D01*
X142450128Y-133656413D01*
X142419575Y-133651132D01*
X142362651Y-133633864D01*
X142362647Y-133633863D01*
X142356729Y-133632068D01*
X142218102Y-133618415D01*
X142210754Y-133617472D01*
X142200000Y-133615769D01*
X142199999Y-133615769D01*
X142195105Y-133616544D01*
X142192568Y-133616744D01*
X142166232Y-133616055D01*
X142118152Y-133609725D01*
X142117317Y-133609615D01*
X142085546Y-133601101D01*
X142023823Y-133575534D01*
X141995341Y-133559091D01*
X141942334Y-133518417D01*
X141919083Y-133495166D01*
X141878409Y-133442159D01*
X141861965Y-133413676D01*
X141836398Y-133351952D01*
X141827885Y-133320182D01*
X141821257Y-133269842D01*
X141820179Y-133253390D01*
X141820179Y-133247296D01*
X141821731Y-133237500D01*
X141819779Y-133225172D01*
X141818551Y-133217423D01*
X141817000Y-133197712D01*
X141817000Y-132680500D01*
X141837002Y-132612379D01*
X141890658Y-132565886D01*
X141943000Y-132554500D01*
X142056834Y-132554500D01*
X142151555Y-132539498D01*
X142243723Y-132492536D01*
X142313498Y-132479432D01*
X142379283Y-132506132D01*
X142420398Y-132567191D01*
X142422865Y-132569329D01*
X142430548Y-132571000D01*
X143958885Y-132571000D01*
X143974124Y-132566526D01*
X143975889Y-132564488D01*
X144035615Y-132526104D01*
X144071114Y-132521000D01*
X145964885Y-132521000D01*
X145980124Y-132516525D01*
X145981329Y-132515135D01*
X145983000Y-132507452D01*
X145983000Y-132504562D01*
X145982663Y-132498047D01*
X145973106Y-132405943D01*
X145970212Y-132392544D01*
X145920619Y-132243893D01*
X145914445Y-132230714D01*
X145832212Y-132097827D01*
X145823176Y-132086426D01*
X145712571Y-131976014D01*
X145701160Y-131967002D01*
X145654898Y-131938486D01*
X145607405Y-131885714D01*
X145595981Y-131815642D01*
X145620188Y-131755661D01*
X145669532Y-131689821D01*
X145669534Y-131689817D01*
X145674917Y-131682635D01*
X145680552Y-131667604D01*
X145720358Y-131561419D01*
X145720358Y-131561418D01*
X145723130Y-131554024D01*
X145729500Y-131495389D01*
X145729499Y-131131885D01*
X146217000Y-131131885D01*
X146221475Y-131147124D01*
X146222865Y-131148329D01*
X146230548Y-131150000D01*
X146831885Y-131150000D01*
X146847124Y-131145525D01*
X146848329Y-131144135D01*
X146850000Y-131136452D01*
X146850000Y-130660116D01*
X146845525Y-130644877D01*
X146844135Y-130643672D01*
X146836452Y-130642001D01*
X146680331Y-130642001D01*
X146673510Y-130642371D01*
X146622648Y-130647895D01*
X146607396Y-130651521D01*
X146486946Y-130696676D01*
X146471351Y-130705214D01*
X146369276Y-130781715D01*
X146356715Y-130794276D01*
X146280214Y-130896351D01*
X146271676Y-130911946D01*
X146226522Y-131032394D01*
X146222895Y-131047649D01*
X146217369Y-131098514D01*
X146217000Y-131105328D01*
X146217000Y-131131885D01*
X145729499Y-131131885D01*
X145729499Y-130954612D01*
X145725814Y-130920685D01*
X145723984Y-130903834D01*
X145723983Y-130903830D01*
X145723130Y-130895976D01*
X145683188Y-130789429D01*
X145678068Y-130775770D01*
X145678067Y-130775769D01*
X145674917Y-130767365D01*
X145669537Y-130760186D01*
X145669535Y-130760183D01*
X145597923Y-130664633D01*
X145592544Y-130657456D01*
X145574151Y-130643671D01*
X145489817Y-130580465D01*
X145489814Y-130580463D01*
X145482635Y-130575083D01*
X145465539Y-130568674D01*
X145361419Y-130529642D01*
X145361418Y-130529642D01*
X145354024Y-130526870D01*
X145346174Y-130526017D01*
X145346173Y-130526017D01*
X145298786Y-130520869D01*
X145298785Y-130520869D01*
X145295389Y-130520500D01*
X145226504Y-130520500D01*
X144730500Y-130520501D01*
X144662379Y-130500499D01*
X144615886Y-130446843D01*
X144604500Y-130394501D01*
X144604500Y-128305500D01*
X144624502Y-128237379D01*
X144678158Y-128190886D01*
X144730500Y-128179500D01*
X148460212Y-128179500D01*
X148479923Y-128181051D01*
G37*
%TD.AperFunction*%
%TA.AperFunction,Conductor*%
G36*
X127654839Y-129708742D02*
G01*
X127708161Y-129755617D01*
X127727676Y-129823879D01*
X127719735Y-129867011D01*
X127678379Y-129977890D01*
X127678376Y-129977899D01*
X127676805Y-129982112D01*
X127675848Y-129986513D01*
X127675847Y-129986515D01*
X127635388Y-130172502D01*
X127631819Y-130188907D01*
X127631498Y-130193395D01*
X127621813Y-130328797D01*
X127621168Y-130333322D01*
X127620982Y-130333851D01*
X127620500Y-130339416D01*
X127620500Y-130342663D01*
X127620179Y-130351651D01*
X127617952Y-130382798D01*
X127617891Y-130383645D01*
X127617320Y-130388622D01*
X127617320Y-130390207D01*
X127615769Y-130399999D01*
X127617320Y-130409791D01*
X127618949Y-130420076D01*
X127620500Y-130439787D01*
X127620500Y-132694500D01*
X127600498Y-132762621D01*
X127546842Y-132809114D01*
X127494500Y-132820500D01*
X126839788Y-132820500D01*
X126820077Y-132818949D01*
X126812810Y-132817798D01*
X126800000Y-132815769D01*
X126790275Y-132817309D01*
X126790135Y-132817320D01*
X126788532Y-132817320D01*
X126785360Y-132817696D01*
X126599223Y-132832345D01*
X126523521Y-132850520D01*
X126494113Y-132854000D01*
X125647000Y-132854000D01*
X125578879Y-132833998D01*
X125532386Y-132780342D01*
X125521000Y-132728000D01*
X125521000Y-132472000D01*
X125541002Y-132403879D01*
X125594658Y-132357386D01*
X125647000Y-132346000D01*
X126714885Y-132346000D01*
X126730124Y-132341525D01*
X126731329Y-132340135D01*
X126733000Y-132332452D01*
X126733000Y-132304562D01*
X126732663Y-132298047D01*
X126723106Y-132205943D01*
X126720212Y-132192544D01*
X126670619Y-132043893D01*
X126664445Y-132030714D01*
X126582212Y-131897827D01*
X126573176Y-131886426D01*
X126515971Y-131829321D01*
X126481892Y-131767039D01*
X126479129Y-131734211D01*
X126479220Y-131732273D01*
X126479500Y-131729315D01*
X126479499Y-131070686D01*
X126477611Y-131050699D01*
X126477216Y-131046522D01*
X126477215Y-131046518D01*
X126476493Y-131038873D01*
X126431209Y-130909924D01*
X126350010Y-130799990D01*
X126240076Y-130718791D01*
X126240632Y-130718039D01*
X126195698Y-130674247D01*
X126179500Y-130612444D01*
X126179500Y-130412819D01*
X126181051Y-130393108D01*
X126182368Y-130384795D01*
X126182368Y-130384792D01*
X126183919Y-130375000D01*
X126182452Y-130365739D01*
X126183918Y-130347101D01*
X126185136Y-130339416D01*
X126192064Y-130295671D01*
X126204246Y-130258179D01*
X126231651Y-130204394D01*
X126254823Y-130172502D01*
X126297502Y-130129823D01*
X126329394Y-130106651D01*
X126383179Y-130079246D01*
X126420671Y-130067064D01*
X126472105Y-130058918D01*
X126490739Y-130057452D01*
X126500000Y-130058919D01*
X126509792Y-130057368D01*
X126509795Y-130057368D01*
X126518108Y-130056051D01*
X126537819Y-130054500D01*
X126562182Y-130054500D01*
X126581893Y-130056051D01*
X126583678Y-130056334D01*
X126583680Y-130056334D01*
X126600001Y-130058919D01*
X126600001Y-130058998D01*
X126616001Y-130057739D01*
X126616003Y-130057739D01*
X126732100Y-130048601D01*
X126828238Y-130041035D01*
X126833045Y-130039881D01*
X126833051Y-130039880D01*
X127000359Y-129999712D01*
X127050855Y-129987589D01*
X127064078Y-129982112D01*
X127257797Y-129901871D01*
X127257801Y-129901869D01*
X127262371Y-129899976D01*
X127457577Y-129780353D01*
X127519849Y-129727168D01*
X127584639Y-129698137D01*
X127654839Y-129708742D01*
G37*
%TD.AperFunction*%
%TA.AperFunction,Conductor*%
G36*
X139625004Y-127229247D02*
G01*
X139640699Y-127239734D01*
X139709929Y-127253505D01*
X139709930Y-127253505D01*
X139714933Y-127254500D01*
X139714744Y-127255449D01*
X139775410Y-127279950D01*
X139816416Y-127337906D01*
X139821307Y-127356872D01*
X139821331Y-127357010D01*
X139821810Y-127362481D01*
X139823231Y-127367786D01*
X139823232Y-127367789D01*
X139863765Y-127519060D01*
X139866622Y-127529722D01*
X139868944Y-127534703D01*
X139868945Y-127534704D01*
X139937468Y-127681653D01*
X139937471Y-127681658D01*
X139939794Y-127686640D01*
X139942950Y-127691147D01*
X139942951Y-127691149D01*
X139944973Y-127694036D01*
X140039103Y-127828468D01*
X140161532Y-127950897D01*
X140166040Y-127954054D01*
X140166043Y-127954056D01*
X140173851Y-127959523D01*
X140303360Y-128050206D01*
X140308342Y-128052529D01*
X140308347Y-128052532D01*
X140432457Y-128110405D01*
X140460278Y-128123378D01*
X140465586Y-128124800D01*
X140465588Y-128124801D01*
X140517482Y-128138706D01*
X140627519Y-128168190D01*
X140672602Y-128172134D01*
X140722026Y-128176458D01*
X140729976Y-128177657D01*
X140733851Y-128179018D01*
X140739416Y-128179500D01*
X140751293Y-128179500D01*
X140762276Y-128179980D01*
X140782207Y-128181724D01*
X140789992Y-128182679D01*
X140790204Y-128182679D01*
X140800000Y-128184231D01*
X140809793Y-128182680D01*
X140809794Y-128182680D01*
X140820077Y-128181051D01*
X140839788Y-128179500D01*
X143719500Y-128179500D01*
X143787621Y-128199502D01*
X143834114Y-128253158D01*
X143845500Y-128305500D01*
X143845500Y-130394500D01*
X143825498Y-130462621D01*
X143771842Y-130509114D01*
X143719500Y-130520500D01*
X143223609Y-130520501D01*
X143070686Y-130520501D01*
X143067738Y-130520780D01*
X143067729Y-130520780D01*
X143046522Y-130522784D01*
X143046520Y-130522784D01*
X143038873Y-130523507D01*
X142909924Y-130568791D01*
X142799990Y-130649990D01*
X142718791Y-130759924D01*
X142673507Y-130888873D01*
X142670500Y-130920685D01*
X142670501Y-131429314D01*
X142670780Y-131432262D01*
X142670780Y-131432271D01*
X142672784Y-131453478D01*
X142673507Y-131461127D01*
X142718791Y-131590076D01*
X142799990Y-131700010D01*
X142807561Y-131705602D01*
X142871208Y-131752613D01*
X142914119Y-131809174D01*
X142919638Y-131879956D01*
X142886014Y-131942486D01*
X142844791Y-131967628D01*
X142845677Y-131969591D01*
X142825012Y-131978921D01*
X142691426Y-132059824D01*
X142679557Y-132069131D01*
X142644595Y-132104093D01*
X142582283Y-132138119D01*
X142511468Y-132133054D01*
X142454632Y-132090507D01*
X142429821Y-132023987D01*
X142429500Y-132014998D01*
X142429500Y-131818166D01*
X142414498Y-131723445D01*
X142356326Y-131609277D01*
X142265723Y-131518674D01*
X142151555Y-131460502D01*
X142056834Y-131445500D01*
X140818166Y-131445500D01*
X140723445Y-131460502D01*
X140714611Y-131465003D01*
X140705178Y-131468068D01*
X140704258Y-131465237D01*
X140650151Y-131475398D01*
X140584366Y-131448698D01*
X140543460Y-131390670D01*
X140540720Y-131326749D01*
X140539498Y-131326555D01*
X140540454Y-131320522D01*
X140540454Y-131320520D01*
X140554500Y-131231834D01*
X140554500Y-130868166D01*
X140539498Y-130773445D01*
X140481326Y-130659277D01*
X140390723Y-130568674D01*
X140276555Y-130510502D01*
X140181834Y-130495500D01*
X140068000Y-130495500D01*
X139999879Y-130475498D01*
X139953386Y-130421842D01*
X139942000Y-130369500D01*
X139942000Y-129773519D01*
X139943551Y-129753808D01*
X139945180Y-129743523D01*
X139946731Y-129733731D01*
X139945180Y-129723936D01*
X139945180Y-129722313D01*
X139944781Y-129718943D01*
X139944653Y-129717310D01*
X139930190Y-129533546D01*
X139927138Y-129520831D01*
X139896965Y-129395152D01*
X139883313Y-129338289D01*
X139875911Y-129320418D01*
X139808363Y-129157342D01*
X139808362Y-129157340D01*
X139806469Y-129152770D01*
X139701548Y-128981556D01*
X139580781Y-128840155D01*
X139578670Y-128837478D01*
X139577519Y-128836327D01*
X139571692Y-128828307D01*
X139563671Y-128822479D01*
X139556658Y-128815467D01*
X139556767Y-128815358D01*
X139545660Y-128805090D01*
X139536615Y-128794500D01*
X139481240Y-128729664D01*
X139469624Y-128713676D01*
X139439642Y-128664750D01*
X139404722Y-128607765D01*
X139395752Y-128590160D01*
X139348218Y-128475404D01*
X139342110Y-128456605D01*
X139328989Y-128401948D01*
X139313116Y-128335833D01*
X139310023Y-128316306D01*
X139302240Y-128217419D01*
X139302834Y-128202310D01*
X139302679Y-128202310D01*
X139302679Y-128192394D01*
X139304231Y-128182599D01*
X139301051Y-128162521D01*
X139299500Y-128142811D01*
X139299500Y-127376913D01*
X139319502Y-127308792D01*
X139373158Y-127262299D01*
X139400909Y-127253337D01*
X139469301Y-127239734D01*
X139484996Y-127229247D01*
X139552748Y-127208030D01*
X139625004Y-127229247D01*
G37*
%TD.AperFunction*%
%TA.AperFunction,Conductor*%
G36*
X136179923Y-129681051D02*
G01*
X136190206Y-129682680D01*
X136190207Y-129682680D01*
X136200000Y-129684231D01*
X136209796Y-129682679D01*
X136215888Y-129682679D01*
X136232337Y-129683757D01*
X136253371Y-129686526D01*
X136292386Y-129691663D01*
X136324156Y-129700176D01*
X136394924Y-129729489D01*
X136423411Y-129745936D01*
X136484178Y-129792565D01*
X136507435Y-129815822D01*
X136554064Y-129876589D01*
X136570511Y-129905076D01*
X136599824Y-129975844D01*
X136608337Y-130007614D01*
X136613474Y-130046629D01*
X136616165Y-130067064D01*
X136616243Y-130067660D01*
X136617321Y-130084112D01*
X136617321Y-130090204D01*
X136615769Y-130100000D01*
X136617320Y-130109793D01*
X136617320Y-130109794D01*
X136618949Y-130120077D01*
X136620500Y-130139788D01*
X136620500Y-130394591D01*
X136600498Y-130462712D01*
X136546842Y-130509205D01*
X136493349Y-130518649D01*
X136493349Y-130520500D01*
X135906652Y-130520501D01*
X135814855Y-130535039D01*
X135806020Y-130539541D01*
X135806019Y-130539541D01*
X135713057Y-130586907D01*
X135713056Y-130586908D01*
X135704216Y-130591412D01*
X135616412Y-130679216D01*
X135611908Y-130688056D01*
X135611907Y-130688057D01*
X135567165Y-130775870D01*
X135560039Y-130789855D01*
X135545500Y-130881651D01*
X135545501Y-131218348D01*
X135546276Y-131223241D01*
X135546276Y-131223242D01*
X135547637Y-131231834D01*
X135560039Y-131310145D01*
X135564541Y-131318980D01*
X135564541Y-131318981D01*
X135578253Y-131345892D01*
X135616412Y-131420784D01*
X135619196Y-131423568D01*
X135641938Y-131487307D01*
X135625857Y-131556459D01*
X135574943Y-131605939D01*
X135516143Y-131620500D01*
X134774795Y-131620500D01*
X134706674Y-131600498D01*
X134660181Y-131546842D01*
X134650077Y-131476568D01*
X134659159Y-131444458D01*
X134661830Y-131438286D01*
X134695790Y-131321395D01*
X134695750Y-131307295D01*
X134688480Y-131304000D01*
X133672000Y-131304000D01*
X133603879Y-131283998D01*
X133557386Y-131230342D01*
X133546000Y-131178000D01*
X133546000Y-130777885D01*
X134054000Y-130777885D01*
X134058475Y-130793124D01*
X134059865Y-130794329D01*
X134067548Y-130796000D01*
X134682729Y-130796000D01*
X134696260Y-130792027D01*
X134697395Y-130784129D01*
X134661831Y-130661717D01*
X134655584Y-130647281D01*
X134580633Y-130520545D01*
X134570993Y-130508118D01*
X134466882Y-130404007D01*
X134454455Y-130394367D01*
X134327719Y-130319416D01*
X134313283Y-130313169D01*
X134170458Y-130271674D01*
X134157871Y-130269376D01*
X134130143Y-130267193D01*
X134125216Y-130267000D01*
X134072115Y-130267000D01*
X134056876Y-130271475D01*
X134055671Y-130272865D01*
X134054000Y-130280548D01*
X134054000Y-130777885D01*
X133546000Y-130777885D01*
X133546000Y-130285115D01*
X133541525Y-130269876D01*
X133540135Y-130268671D01*
X133532452Y-130267000D01*
X133474784Y-130267000D01*
X133469852Y-130267194D01*
X133439904Y-130269550D01*
X133370424Y-130254953D01*
X133319865Y-130205110D01*
X133304020Y-130143938D01*
X133304020Y-129805500D01*
X133324022Y-129737379D01*
X133377678Y-129690886D01*
X133430020Y-129679500D01*
X136160212Y-129679500D01*
X136179923Y-129681051D01*
G37*
%TD.AperFunction*%
%TA.AperFunction,Conductor*%
G36*
X151055004Y-127229247D02*
G01*
X151070699Y-127239734D01*
X151134594Y-127252443D01*
X151139081Y-127253336D01*
X151201991Y-127286243D01*
X151237123Y-127347938D01*
X151240500Y-127376915D01*
X151240500Y-128480211D01*
X151238949Y-128499921D01*
X151235769Y-128519999D01*
X151237297Y-128529646D01*
X151237320Y-128529909D01*
X151237320Y-128531094D01*
X151237680Y-128534020D01*
X151252610Y-128704683D01*
X151277275Y-128796733D01*
X151288912Y-128840162D01*
X151300592Y-128883754D01*
X151302914Y-128888735D01*
X151302915Y-128888736D01*
X151376615Y-129046787D01*
X151376618Y-129046792D01*
X151378941Y-129051774D01*
X151382097Y-129056281D01*
X151382098Y-129056283D01*
X151479719Y-129195700D01*
X151485275Y-129203635D01*
X151616365Y-129334725D01*
X151620873Y-129337882D01*
X151620876Y-129337884D01*
X151750517Y-129428659D01*
X151768226Y-129441059D01*
X151773208Y-129443382D01*
X151773213Y-129443385D01*
X151931264Y-129517085D01*
X151936246Y-129519408D01*
X151941554Y-129520830D01*
X151941556Y-129520831D01*
X151971047Y-129528733D01*
X152115317Y-129567390D01*
X152285980Y-129582320D01*
X152288904Y-129582680D01*
X152290090Y-129582680D01*
X152290354Y-129582703D01*
X152300001Y-129584231D01*
X152309799Y-129582679D01*
X152310155Y-129582679D01*
X152329869Y-129584230D01*
X152379331Y-129592064D01*
X152416820Y-129604245D01*
X152470607Y-129631651D01*
X152502499Y-129654823D01*
X152545177Y-129697501D01*
X152568349Y-129729394D01*
X152595754Y-129783180D01*
X152607936Y-129820671D01*
X152613894Y-129858284D01*
X152615770Y-129870131D01*
X152617321Y-129889846D01*
X152617321Y-129890202D01*
X152615769Y-129899999D01*
X152617320Y-129909792D01*
X152617320Y-129909793D01*
X152618949Y-129920076D01*
X152620500Y-129939787D01*
X152620500Y-130789429D01*
X152600498Y-130857550D01*
X152542716Y-130905839D01*
X152537874Y-130907844D01*
X152525699Y-130910266D01*
X152515379Y-130917161D01*
X152515378Y-130917162D01*
X152512909Y-130918812D01*
X152441516Y-130966516D01*
X152385266Y-131050699D01*
X152370500Y-131124933D01*
X152370500Y-131256636D01*
X152350498Y-131324757D01*
X152296842Y-131371250D01*
X152226568Y-131381354D01*
X152213804Y-131378840D01*
X152090002Y-131347743D01*
X152082633Y-131345892D01*
X152075034Y-131345852D01*
X152075033Y-131345852D01*
X152047988Y-131345710D01*
X152008338Y-131345503D01*
X151940324Y-131325145D01*
X151894113Y-131271246D01*
X151882999Y-131219505D01*
X151882999Y-131105331D01*
X151882629Y-131098510D01*
X151877105Y-131047648D01*
X151873479Y-131032396D01*
X151828324Y-130911946D01*
X151819786Y-130896351D01*
X151743285Y-130794276D01*
X151730724Y-130781715D01*
X151628649Y-130705214D01*
X151613054Y-130696676D01*
X151492606Y-130651522D01*
X151477351Y-130647895D01*
X151426486Y-130642369D01*
X151419672Y-130642000D01*
X151268115Y-130642000D01*
X151252876Y-130646475D01*
X151251671Y-130647865D01*
X151250000Y-130655548D01*
X151250000Y-131419500D01*
X151229998Y-131487621D01*
X151176342Y-131534114D01*
X151124001Y-131545500D01*
X151045814Y-131545501D01*
X150976000Y-131545501D01*
X150907880Y-131525499D01*
X150861387Y-131471844D01*
X150850000Y-131419501D01*
X150850000Y-130660116D01*
X150845525Y-130644877D01*
X150844133Y-130643671D01*
X150828716Y-130640317D01*
X150766404Y-130606292D01*
X150732379Y-130543980D01*
X150729500Y-130517197D01*
X150729500Y-127376913D01*
X150749502Y-127308792D01*
X150803158Y-127262299D01*
X150830909Y-127253337D01*
X150899301Y-127239734D01*
X150914996Y-127229247D01*
X150982748Y-127208030D01*
X151055004Y-127229247D01*
G37*
%TD.AperFunction*%
%TA.AperFunction,Conductor*%
G36*
X135617621Y-108274002D02*
G01*
X135664114Y-108327658D01*
X135675500Y-108380000D01*
X135675501Y-109212916D01*
X135675501Y-110025066D01*
X135690266Y-110099301D01*
X135697161Y-110109621D01*
X135697162Y-110109622D01*
X135717524Y-110140095D01*
X135746516Y-110183484D01*
X135830699Y-110239734D01*
X135904933Y-110254500D01*
X136379923Y-110254500D01*
X136855066Y-110254499D01*
X136890818Y-110247388D01*
X136917126Y-110242156D01*
X136917128Y-110242155D01*
X136929301Y-110239734D01*
X136944996Y-110229247D01*
X137012748Y-110208030D01*
X137085004Y-110229247D01*
X137100699Y-110239734D01*
X137174933Y-110254500D01*
X137649923Y-110254500D01*
X138125066Y-110254499D01*
X138160818Y-110247388D01*
X138187126Y-110242156D01*
X138187128Y-110242155D01*
X138199301Y-110239734D01*
X138214996Y-110229247D01*
X138282748Y-110208030D01*
X138355004Y-110229247D01*
X138370699Y-110239734D01*
X138444933Y-110254500D01*
X138919923Y-110254500D01*
X139395066Y-110254499D01*
X139430818Y-110247388D01*
X139457126Y-110242156D01*
X139457128Y-110242155D01*
X139469301Y-110239734D01*
X139484996Y-110229247D01*
X139552748Y-110208030D01*
X139625004Y-110229247D01*
X139640699Y-110239734D01*
X139714933Y-110254500D01*
X140189923Y-110254500D01*
X140665066Y-110254499D01*
X140700818Y-110247388D01*
X140727126Y-110242156D01*
X140727128Y-110242155D01*
X140739301Y-110239734D01*
X140754996Y-110229247D01*
X140822748Y-110208030D01*
X140895004Y-110229247D01*
X140910699Y-110239734D01*
X140958042Y-110249151D01*
X140979081Y-110253336D01*
X141041991Y-110286243D01*
X141077123Y-110347938D01*
X141080500Y-110376915D01*
X141080500Y-111740082D01*
X141060498Y-111808203D01*
X141037330Y-111835030D01*
X141019140Y-111850898D01*
X141010039Y-111858838D01*
X140918950Y-111988444D01*
X140896405Y-112046269D01*
X140868293Y-112118374D01*
X140861406Y-112136037D01*
X140860414Y-112143570D01*
X140860414Y-112143571D01*
X140842497Y-112279669D01*
X140840729Y-112293096D01*
X140845615Y-112337351D01*
X140855360Y-112425613D01*
X140858113Y-112450553D01*
X140860723Y-112457684D01*
X140860723Y-112457686D01*
X140909408Y-112590724D01*
X140912553Y-112599319D01*
X140916789Y-112605622D01*
X140916789Y-112605623D01*
X140969782Y-112684484D01*
X141000908Y-112730805D01*
X141006527Y-112735918D01*
X141006528Y-112735919D01*
X141032651Y-112759689D01*
X141118076Y-112837419D01*
X141257293Y-112913008D01*
X141410522Y-112953207D01*
X141494477Y-112954526D01*
X141561319Y-112955576D01*
X141561322Y-112955576D01*
X141568916Y-112955695D01*
X141723332Y-112920329D01*
X141793742Y-112884917D01*
X141858072Y-112852563D01*
X141858075Y-112852561D01*
X141864855Y-112849151D01*
X141870626Y-112844222D01*
X141870629Y-112844220D01*
X141979536Y-112751204D01*
X141979536Y-112751203D01*
X141985314Y-112746269D01*
X142077755Y-112617624D01*
X142136842Y-112470641D01*
X142159162Y-112313807D01*
X142159307Y-112300000D01*
X142145881Y-112189053D01*
X142157554Y-112119024D01*
X142205235Y-112066422D01*
X142273787Y-112047949D01*
X142341443Y-112069469D01*
X142355767Y-112080723D01*
X142397860Y-112119024D01*
X142418076Y-112137419D01*
X142557293Y-112213008D01*
X142710522Y-112253207D01*
X142794477Y-112254526D01*
X142861319Y-112255576D01*
X142861322Y-112255576D01*
X142868916Y-112255695D01*
X143023332Y-112220329D01*
X143093742Y-112184917D01*
X143158072Y-112152563D01*
X143158075Y-112152561D01*
X143164855Y-112149151D01*
X143170626Y-112144222D01*
X143170629Y-112144220D01*
X143279536Y-112051204D01*
X143279536Y-112051203D01*
X143285314Y-112046269D01*
X143377755Y-111917624D01*
X143436842Y-111770641D01*
X143459162Y-111613807D01*
X143459307Y-111600000D01*
X143440276Y-111442733D01*
X143414386Y-111374218D01*
X143409018Y-111303425D01*
X143442775Y-111240967D01*
X143504941Y-111206675D01*
X143575778Y-111211437D01*
X143605255Y-111229330D01*
X143606266Y-111227907D01*
X143612460Y-111232308D01*
X143618076Y-111237419D01*
X143757293Y-111313008D01*
X143910522Y-111353207D01*
X143994477Y-111354526D01*
X144061319Y-111355576D01*
X144061322Y-111355576D01*
X144068916Y-111355695D01*
X144223332Y-111320329D01*
X144299088Y-111282228D01*
X144358072Y-111252563D01*
X144358075Y-111252561D01*
X144364855Y-111249151D01*
X144370626Y-111244222D01*
X144370629Y-111244220D01*
X144479536Y-111151204D01*
X144479536Y-111151203D01*
X144485314Y-111146269D01*
X144577755Y-111017624D01*
X144636842Y-110870641D01*
X144647541Y-110795463D01*
X144658581Y-110717891D01*
X144658581Y-110717888D01*
X144659162Y-110713807D01*
X144659231Y-110707265D01*
X144659264Y-110704134D01*
X144659264Y-110704128D01*
X144659307Y-110700000D01*
X144656859Y-110679766D01*
X144650086Y-110623798D01*
X144640276Y-110542733D01*
X144590206Y-110410228D01*
X144584838Y-110339436D01*
X144618595Y-110276979D01*
X144680761Y-110242687D01*
X144732653Y-110242112D01*
X144785195Y-110252563D01*
X144794933Y-110254500D01*
X145269923Y-110254500D01*
X145745066Y-110254499D01*
X145780818Y-110247388D01*
X145807126Y-110242156D01*
X145807128Y-110242155D01*
X145819301Y-110239734D01*
X145834996Y-110229247D01*
X145902748Y-110208030D01*
X145975004Y-110229247D01*
X145990699Y-110239734D01*
X146064933Y-110254500D01*
X146539923Y-110254500D01*
X147015066Y-110254499D01*
X147050818Y-110247388D01*
X147077126Y-110242156D01*
X147077128Y-110242155D01*
X147089301Y-110239734D01*
X147104996Y-110229247D01*
X147172748Y-110208030D01*
X147245004Y-110229247D01*
X147260699Y-110239734D01*
X147334933Y-110254500D01*
X147809923Y-110254500D01*
X148285066Y-110254499D01*
X148320818Y-110247388D01*
X148347126Y-110242156D01*
X148347128Y-110242155D01*
X148359301Y-110239734D01*
X148374996Y-110229247D01*
X148442748Y-110208030D01*
X148515004Y-110229247D01*
X148530699Y-110239734D01*
X148604933Y-110254500D01*
X149079923Y-110254500D01*
X149555066Y-110254499D01*
X149590818Y-110247388D01*
X149617126Y-110242156D01*
X149617128Y-110242155D01*
X149629301Y-110239734D01*
X149644996Y-110229247D01*
X149712748Y-110208030D01*
X149785004Y-110229247D01*
X149800699Y-110239734D01*
X149812869Y-110242155D01*
X149812872Y-110242156D01*
X149819079Y-110243390D01*
X149881989Y-110276296D01*
X149917122Y-110337990D01*
X149920500Y-110366969D01*
X149920500Y-114405187D01*
X149900498Y-114473308D01*
X149877330Y-114500135D01*
X149810039Y-114558838D01*
X149718950Y-114688444D01*
X149716190Y-114695524D01*
X149673064Y-114806137D01*
X149661406Y-114836037D01*
X149660414Y-114843570D01*
X149660414Y-114843571D01*
X149644790Y-114962252D01*
X149640729Y-114993096D01*
X149646537Y-115045699D01*
X149655416Y-115126123D01*
X149658113Y-115150553D01*
X149712553Y-115299319D01*
X149800908Y-115430805D01*
X149806527Y-115435918D01*
X149806528Y-115435919D01*
X149817903Y-115446269D01*
X149918076Y-115537419D01*
X150057293Y-115613008D01*
X150210522Y-115653207D01*
X150294477Y-115654526D01*
X150361319Y-115655576D01*
X150361322Y-115655576D01*
X150368916Y-115655695D01*
X150523332Y-115620329D01*
X150593742Y-115584917D01*
X150658072Y-115552563D01*
X150658075Y-115552561D01*
X150664855Y-115549151D01*
X150670626Y-115544222D01*
X150670629Y-115544220D01*
X150779536Y-115451204D01*
X150779536Y-115451203D01*
X150785314Y-115446269D01*
X150877755Y-115317624D01*
X150936842Y-115170641D01*
X150956857Y-115030005D01*
X150958581Y-115017891D01*
X150958581Y-115017888D01*
X150959162Y-115013807D01*
X150959307Y-115000000D01*
X150940276Y-114842733D01*
X150884280Y-114694546D01*
X150794553Y-114563992D01*
X150721681Y-114499065D01*
X150684126Y-114438816D01*
X150679500Y-114404989D01*
X150679500Y-110380499D01*
X150699502Y-110312378D01*
X150753158Y-110265885D01*
X150805500Y-110254499D01*
X150825066Y-110254499D01*
X150860818Y-110247388D01*
X150887126Y-110242156D01*
X150887128Y-110242155D01*
X150899301Y-110239734D01*
X150914996Y-110229247D01*
X150982748Y-110208030D01*
X151055004Y-110229247D01*
X151070699Y-110239734D01*
X151118042Y-110249151D01*
X151139081Y-110253336D01*
X151201991Y-110286243D01*
X151237123Y-110347938D01*
X151240500Y-110376915D01*
X151240500Y-116840212D01*
X151238949Y-116859922D01*
X151235769Y-116880000D01*
X151237321Y-116889796D01*
X151237321Y-116895890D01*
X151236243Y-116912337D01*
X151229940Y-116960212D01*
X151225952Y-116990506D01*
X151217440Y-117022275D01*
X151181132Y-117109927D01*
X151164688Y-117138408D01*
X151106933Y-117213675D01*
X151083675Y-117236933D01*
X151008408Y-117294688D01*
X150979927Y-117311132D01*
X150892275Y-117347440D01*
X150860506Y-117355952D01*
X150782337Y-117366243D01*
X150765888Y-117367321D01*
X150759795Y-117367321D01*
X150750000Y-117365769D01*
X150744147Y-117366696D01*
X150678152Y-117347314D01*
X150662460Y-117335397D01*
X150581951Y-117263667D01*
X150581945Y-117263663D01*
X150576275Y-117258611D01*
X150568889Y-117254700D01*
X150491406Y-117213675D01*
X150436274Y-117184484D01*
X150282633Y-117145892D01*
X150275034Y-117145852D01*
X150275033Y-117145852D01*
X150209181Y-117145507D01*
X150124221Y-117145062D01*
X150116841Y-117146834D01*
X150116839Y-117146834D01*
X149977563Y-117180271D01*
X149977560Y-117180272D01*
X149970184Y-117182043D01*
X149829414Y-117254700D01*
X149823697Y-117259687D01*
X149823690Y-117259692D01*
X149751649Y-117322538D01*
X149687167Y-117352246D01*
X149620603Y-117343997D01*
X149580076Y-117327210D01*
X149551593Y-117310765D01*
X149501178Y-117272080D01*
X149477920Y-117248822D01*
X149439235Y-117198407D01*
X149422791Y-117169927D01*
X149398471Y-117111214D01*
X149389959Y-117079447D01*
X149383757Y-117032341D01*
X149382679Y-117015890D01*
X149382679Y-117009796D01*
X149384231Y-117000000D01*
X149381051Y-116979922D01*
X149379500Y-116960212D01*
X149379500Y-114500766D01*
X149381051Y-114481055D01*
X149382679Y-114470774D01*
X149384231Y-114460978D01*
X149383678Y-114457489D01*
X149382209Y-114438816D01*
X149370972Y-114296043D01*
X149366170Y-114235019D01*
X149313258Y-114014624D01*
X149291142Y-113961230D01*
X149228415Y-113809793D01*
X149228413Y-113809789D01*
X149226520Y-113805219D01*
X149108091Y-113611961D01*
X148960889Y-113439609D01*
X148788537Y-113292407D01*
X148595279Y-113173978D01*
X148590709Y-113172085D01*
X148590705Y-113172083D01*
X148390447Y-113089134D01*
X148390445Y-113089133D01*
X148385874Y-113087240D01*
X148165479Y-113034328D01*
X148087396Y-113028183D01*
X148008611Y-113021983D01*
X148006020Y-113021604D01*
X148005669Y-113021480D01*
X148004465Y-113021376D01*
X148004460Y-113021375D01*
X148003088Y-113021256D01*
X148000104Y-113020998D01*
X147997393Y-113020998D01*
X147996768Y-113020971D01*
X147992324Y-113020701D01*
X147953724Y-113017663D01*
X147953723Y-113017663D01*
X147943009Y-113016820D01*
X147939520Y-113016267D01*
X147919443Y-113019447D01*
X147899732Y-113020998D01*
X147299682Y-113020998D01*
X147231561Y-113000996D01*
X147205114Y-112975358D01*
X147203878Y-112976447D01*
X147198855Y-112970749D01*
X147194553Y-112964490D01*
X147076275Y-112859109D01*
X147068889Y-112855198D01*
X146942988Y-112788537D01*
X146942989Y-112788537D01*
X146936274Y-112784982D01*
X146782633Y-112746390D01*
X146775034Y-112746350D01*
X146775033Y-112746350D01*
X146709181Y-112746005D01*
X146624221Y-112745560D01*
X146616841Y-112747332D01*
X146616839Y-112747332D01*
X146477563Y-112780769D01*
X146477560Y-112780770D01*
X146470184Y-112782541D01*
X146329414Y-112855198D01*
X146210039Y-112959336D01*
X146118950Y-113088942D01*
X146116190Y-113096022D01*
X146070742Y-113212590D01*
X146061406Y-113236535D01*
X146060414Y-113244068D01*
X146060414Y-113244069D01*
X146042688Y-113378716D01*
X146040729Y-113393594D01*
X146058113Y-113551051D01*
X146060723Y-113558182D01*
X146060723Y-113558184D01*
X146109785Y-113692252D01*
X146112553Y-113699817D01*
X146116789Y-113706120D01*
X146116789Y-113706121D01*
X146194559Y-113821854D01*
X146200908Y-113831303D01*
X146206527Y-113836416D01*
X146206528Y-113836417D01*
X146228185Y-113856123D01*
X146318076Y-113937917D01*
X146457293Y-114013506D01*
X146610522Y-114053705D01*
X146694477Y-114055024D01*
X146761319Y-114056074D01*
X146761322Y-114056074D01*
X146768916Y-114056193D01*
X146923332Y-114020827D01*
X147041829Y-113961230D01*
X147058072Y-113953061D01*
X147058075Y-113953059D01*
X147064855Y-113949649D01*
X147070626Y-113944720D01*
X147070629Y-113944718D01*
X147179542Y-113851697D01*
X147179543Y-113851696D01*
X147185314Y-113846767D01*
X147195586Y-113832472D01*
X147251581Y-113788824D01*
X147297909Y-113779998D01*
X147899732Y-113779998D01*
X147919442Y-113781549D01*
X147939520Y-113784729D01*
X147949314Y-113783178D01*
X147959228Y-113783178D01*
X147959228Y-113784199D01*
X147973931Y-113783876D01*
X148076945Y-113795482D01*
X148104455Y-113801761D01*
X148221588Y-113842748D01*
X148247008Y-113854990D01*
X148352085Y-113921014D01*
X148374144Y-113938606D01*
X148461892Y-114026354D01*
X148479484Y-114048413D01*
X148545508Y-114153490D01*
X148557750Y-114178910D01*
X148598737Y-114296043D01*
X148605016Y-114323553D01*
X148616622Y-114426567D01*
X148616299Y-114441270D01*
X148617320Y-114441270D01*
X148617320Y-114451184D01*
X148615769Y-114460978D01*
X148617320Y-114470770D01*
X148618949Y-114481055D01*
X148620500Y-114500766D01*
X148620500Y-116960212D01*
X148618949Y-116979922D01*
X148615769Y-117000000D01*
X148616698Y-117005867D01*
X148617319Y-117012965D01*
X148617319Y-117012969D01*
X148619014Y-117032341D01*
X148633410Y-117196885D01*
X148634834Y-117202198D01*
X148634834Y-117202200D01*
X148679078Y-117367320D01*
X148684562Y-117387788D01*
X148686884Y-117392769D01*
X148686885Y-117392770D01*
X148765761Y-117561921D01*
X148765764Y-117561926D01*
X148768087Y-117566908D01*
X148826262Y-117649990D01*
X148869861Y-117712255D01*
X148881447Y-117728802D01*
X149021198Y-117868553D01*
X149025706Y-117871710D01*
X149025709Y-117871712D01*
X149178584Y-117978756D01*
X149183093Y-117981913D01*
X149188075Y-117984236D01*
X149188080Y-117984239D01*
X149357230Y-118063115D01*
X149362212Y-118065438D01*
X149367520Y-118066860D01*
X149367522Y-118066861D01*
X149391087Y-118073175D01*
X149553115Y-118116590D01*
X149568594Y-118117944D01*
X149634709Y-118143806D01*
X149662188Y-118173183D01*
X149700908Y-118230805D01*
X149818076Y-118337419D01*
X149957293Y-118413008D01*
X150110522Y-118453207D01*
X150194477Y-118454526D01*
X150261319Y-118455576D01*
X150261322Y-118455576D01*
X150268916Y-118455695D01*
X150423332Y-118420329D01*
X150493742Y-118384917D01*
X150558072Y-118352563D01*
X150558075Y-118352561D01*
X150564855Y-118349151D01*
X150570626Y-118344222D01*
X150570629Y-118344220D01*
X150679542Y-118251199D01*
X150679543Y-118251198D01*
X150685314Y-118246269D01*
X150733300Y-118179489D01*
X150789295Y-118135841D01*
X150825737Y-118127403D01*
X150946069Y-118117933D01*
X150950876Y-118116779D01*
X150950882Y-118116778D01*
X151070724Y-118088006D01*
X151137311Y-118072020D01*
X151149766Y-118066861D01*
X151314441Y-117998651D01*
X151314445Y-117998649D01*
X151319015Y-117996756D01*
X151486709Y-117893993D01*
X151636262Y-117766262D01*
X151763993Y-117616709D01*
X151866756Y-117449015D01*
X151874635Y-117429995D01*
X151940126Y-117271884D01*
X151940127Y-117271882D01*
X151942020Y-117267311D01*
X151960243Y-117191405D01*
X151986778Y-117080882D01*
X151986779Y-117080876D01*
X151987933Y-117076069D01*
X151997588Y-116953398D01*
X151998385Y-116947952D01*
X151999018Y-116946149D01*
X151999500Y-116940584D01*
X151999500Y-116934055D01*
X151999888Y-116924170D01*
X152002120Y-116895808D01*
X152002680Y-116891076D01*
X152002680Y-116889794D01*
X152004231Y-116880000D01*
X152001051Y-116859922D01*
X151999500Y-116840212D01*
X151999500Y-110555119D01*
X152019502Y-110486998D01*
X152073158Y-110440505D01*
X152143432Y-110430401D01*
X152186010Y-110444600D01*
X152201940Y-110453322D01*
X152322394Y-110498478D01*
X152337649Y-110502105D01*
X152388514Y-110507631D01*
X152395328Y-110508000D01*
X152617885Y-110508000D01*
X152633124Y-110503525D01*
X152634329Y-110502135D01*
X152636000Y-110494452D01*
X152636000Y-108872000D01*
X152656002Y-108803879D01*
X152709658Y-108757386D01*
X152762000Y-108746000D01*
X153018000Y-108746000D01*
X153086121Y-108766002D01*
X153132614Y-108819658D01*
X153144000Y-108872000D01*
X153144000Y-110489884D01*
X153148475Y-110505123D01*
X153149865Y-110506328D01*
X153157548Y-110507999D01*
X153384669Y-110507999D01*
X153391490Y-110507629D01*
X153442352Y-110502105D01*
X153457603Y-110498479D01*
X153575770Y-110454180D01*
X153646577Y-110448997D01*
X153708946Y-110482918D01*
X153743076Y-110545173D01*
X153746000Y-110572162D01*
X153746000Y-124427838D01*
X153725998Y-124495959D01*
X153672342Y-124542452D01*
X153602068Y-124552556D01*
X153575770Y-124545820D01*
X153457606Y-124501522D01*
X153442351Y-124497895D01*
X153391486Y-124492369D01*
X153384672Y-124492000D01*
X153162115Y-124492000D01*
X153146876Y-124496475D01*
X153145671Y-124497865D01*
X153144000Y-124505548D01*
X153144000Y-127489884D01*
X153148475Y-127505123D01*
X153149865Y-127506328D01*
X153157548Y-127507999D01*
X153384669Y-127507999D01*
X153391490Y-127507629D01*
X153442352Y-127502105D01*
X153457603Y-127498479D01*
X153575770Y-127454180D01*
X153646577Y-127448997D01*
X153708946Y-127482918D01*
X153743076Y-127545173D01*
X153746000Y-127572162D01*
X153746000Y-130849323D01*
X153725998Y-130917444D01*
X153672342Y-130963937D01*
X153602068Y-130974041D01*
X153597553Y-130973231D01*
X153591149Y-130970982D01*
X153585584Y-130970500D01*
X153564789Y-130970500D01*
X153545079Y-130968949D01*
X153534793Y-130967320D01*
X153525000Y-130965769D01*
X153515207Y-130967320D01*
X153505500Y-130967320D01*
X153437379Y-130947318D01*
X153390886Y-130893662D01*
X153379500Y-130841320D01*
X153379500Y-129939789D01*
X153381051Y-129920078D01*
X153382680Y-129909793D01*
X153384231Y-129900001D01*
X153382875Y-129891440D01*
X153382680Y-129889211D01*
X153382680Y-129888593D01*
X153382491Y-129887055D01*
X153382107Y-129882657D01*
X153367162Y-129711831D01*
X153328459Y-129567390D01*
X153319697Y-129534689D01*
X153319696Y-129534687D01*
X153318274Y-129529379D01*
X153314288Y-129520831D01*
X153240772Y-129363175D01*
X153240769Y-129363170D01*
X153238446Y-129358188D01*
X153143690Y-129222863D01*
X153133263Y-129207971D01*
X153133261Y-129207968D01*
X153130104Y-129203460D01*
X152996540Y-129069896D01*
X152992032Y-129066739D01*
X152992029Y-129066737D01*
X152885946Y-128992457D01*
X152841812Y-128961554D01*
X152836830Y-128959231D01*
X152836825Y-128959228D01*
X152675603Y-128884049D01*
X152675601Y-128884048D01*
X152670621Y-128881726D01*
X152665313Y-128880304D01*
X152665311Y-128880303D01*
X152609069Y-128865233D01*
X152488169Y-128832838D01*
X152312934Y-128817508D01*
X152311409Y-128817320D01*
X152310789Y-128817320D01*
X152308560Y-128817125D01*
X152299999Y-128815769D01*
X152290201Y-128817321D01*
X152289844Y-128817321D01*
X152270133Y-128815770D01*
X152226849Y-128808915D01*
X152189360Y-128796733D01*
X152141150Y-128772169D01*
X152109257Y-128748997D01*
X152071003Y-128710743D01*
X152047831Y-128678851D01*
X152036045Y-128655720D01*
X152023266Y-128630640D01*
X152011085Y-128593150D01*
X152010611Y-128590154D01*
X152004230Y-128549867D01*
X152002679Y-128530154D01*
X152002679Y-128529798D01*
X152004231Y-128520001D01*
X152001051Y-128499922D01*
X151999500Y-128480213D01*
X151999500Y-127555119D01*
X152019502Y-127486998D01*
X152073158Y-127440505D01*
X152143432Y-127430401D01*
X152186010Y-127444600D01*
X152201940Y-127453322D01*
X152322394Y-127498478D01*
X152337649Y-127502105D01*
X152388514Y-127507631D01*
X152395328Y-127508000D01*
X152617885Y-127508000D01*
X152633124Y-127503525D01*
X152634329Y-127502135D01*
X152636000Y-127494452D01*
X152636000Y-124510116D01*
X152631525Y-124494877D01*
X152630135Y-124493672D01*
X152622452Y-124492001D01*
X152395331Y-124492001D01*
X152388510Y-124492371D01*
X152337648Y-124497895D01*
X152322396Y-124501521D01*
X152201946Y-124546676D01*
X152186351Y-124555214D01*
X152084276Y-124631715D01*
X152071719Y-124644272D01*
X152033652Y-124695065D01*
X151976792Y-124737580D01*
X151932825Y-124745500D01*
X151179847Y-124745501D01*
X151144934Y-124745501D01*
X151109182Y-124752612D01*
X151082874Y-124757844D01*
X151082872Y-124757845D01*
X151070699Y-124760266D01*
X151055004Y-124770753D01*
X150987252Y-124791970D01*
X150914996Y-124770753D01*
X150899301Y-124760266D01*
X150825067Y-124745500D01*
X150350077Y-124745500D01*
X149874934Y-124745501D01*
X149839182Y-124752612D01*
X149812874Y-124757844D01*
X149812872Y-124757845D01*
X149800699Y-124760266D01*
X149790379Y-124767161D01*
X149788309Y-124768019D01*
X149717719Y-124775607D01*
X149654232Y-124743826D01*
X149618006Y-124682767D01*
X149620542Y-124611816D01*
X149623185Y-124604613D01*
X149623231Y-124604500D01*
X149636842Y-124570641D01*
X149647446Y-124496129D01*
X149658581Y-124417891D01*
X149658581Y-124417888D01*
X149659162Y-124413807D01*
X149659307Y-124400000D01*
X149640276Y-124242733D01*
X149584280Y-124094546D01*
X149526278Y-124010152D01*
X149498855Y-123970251D01*
X149498854Y-123970249D01*
X149494553Y-123963992D01*
X149476427Y-123947842D01*
X149449958Y-123924260D01*
X149376275Y-123858611D01*
X149368889Y-123854700D01*
X149242988Y-123788039D01*
X149242989Y-123788039D01*
X149236274Y-123784484D01*
X149082633Y-123745892D01*
X149075034Y-123745852D01*
X149075033Y-123745852D01*
X149009181Y-123745507D01*
X148924221Y-123745062D01*
X148916841Y-123746834D01*
X148916839Y-123746834D01*
X148777563Y-123780271D01*
X148777560Y-123780272D01*
X148770184Y-123782043D01*
X148629414Y-123854700D01*
X148623695Y-123859689D01*
X148522644Y-123947842D01*
X148458162Y-123977550D01*
X148387854Y-123967681D01*
X148335974Y-123924260D01*
X148298855Y-123870251D01*
X148298854Y-123870249D01*
X148294553Y-123863992D01*
X148288514Y-123858611D01*
X148219960Y-123797533D01*
X148176275Y-123758611D01*
X148168889Y-123754700D01*
X148042988Y-123688039D01*
X148042989Y-123688039D01*
X148036274Y-123684484D01*
X147882633Y-123645892D01*
X147875034Y-123645852D01*
X147875033Y-123645852D01*
X147809181Y-123645507D01*
X147724221Y-123645062D01*
X147716841Y-123646834D01*
X147716839Y-123646834D01*
X147577563Y-123680271D01*
X147577560Y-123680272D01*
X147570184Y-123682043D01*
X147429414Y-123754700D01*
X147310039Y-123858838D01*
X147218950Y-123988444D01*
X147195563Y-124048429D01*
X147177583Y-124094546D01*
X147161406Y-124136037D01*
X147160414Y-124143570D01*
X147160414Y-124143571D01*
X147143022Y-124275680D01*
X147140729Y-124293096D01*
X147147813Y-124357262D01*
X147153601Y-124409682D01*
X147158113Y-124450553D01*
X147160723Y-124457686D01*
X147160724Y-124457689D01*
X147208668Y-124588705D01*
X147213294Y-124659550D01*
X147178884Y-124721651D01*
X147116362Y-124755289D01*
X147065763Y-124755584D01*
X147015067Y-124745500D01*
X146540077Y-124745500D01*
X146064934Y-124745501D01*
X146029182Y-124752612D01*
X146002874Y-124757844D01*
X146002872Y-124757845D01*
X145990699Y-124760266D01*
X145975004Y-124770753D01*
X145907252Y-124791970D01*
X145834996Y-124770753D01*
X145819301Y-124760266D01*
X145745067Y-124745500D01*
X145270077Y-124745500D01*
X144794934Y-124745501D01*
X144759182Y-124752612D01*
X144732874Y-124757844D01*
X144732872Y-124757845D01*
X144720699Y-124760266D01*
X144705004Y-124770753D01*
X144637252Y-124791970D01*
X144564996Y-124770753D01*
X144549301Y-124760266D01*
X144475067Y-124745500D01*
X144000077Y-124745500D01*
X143524934Y-124745501D01*
X143489182Y-124752612D01*
X143462874Y-124757844D01*
X143462872Y-124757845D01*
X143450699Y-124760266D01*
X143435004Y-124770753D01*
X143367252Y-124791970D01*
X143294996Y-124770753D01*
X143279301Y-124760266D01*
X143205067Y-124745500D01*
X142730077Y-124745500D01*
X142254934Y-124745501D01*
X142219182Y-124752612D01*
X142192874Y-124757844D01*
X142192872Y-124757845D01*
X142180699Y-124760266D01*
X142165004Y-124770753D01*
X142097252Y-124791970D01*
X142024996Y-124770753D01*
X142009301Y-124760266D01*
X141935067Y-124745500D01*
X141460077Y-124745500D01*
X140984934Y-124745501D01*
X140949182Y-124752612D01*
X140922874Y-124757844D01*
X140922872Y-124757845D01*
X140910699Y-124760266D01*
X140895004Y-124770753D01*
X140827252Y-124791970D01*
X140754996Y-124770753D01*
X140739301Y-124760266D01*
X140665067Y-124745500D01*
X140190077Y-124745500D01*
X139714934Y-124745501D01*
X139679182Y-124752612D01*
X139652874Y-124757844D01*
X139652872Y-124757845D01*
X139640699Y-124760266D01*
X139625004Y-124770753D01*
X139557252Y-124791970D01*
X139484996Y-124770753D01*
X139469301Y-124760266D01*
X139395067Y-124745500D01*
X139318764Y-124745500D01*
X138515788Y-124745501D01*
X138447667Y-124725499D01*
X138401174Y-124671843D01*
X138391070Y-124601569D01*
X138412575Y-124547230D01*
X138434159Y-124516405D01*
X138451513Y-124491621D01*
X138453836Y-124486639D01*
X138453839Y-124486634D01*
X138521622Y-124341271D01*
X138521622Y-124341270D01*
X138523945Y-124336289D01*
X138533496Y-124300646D01*
X138566880Y-124176053D01*
X138566880Y-124176051D01*
X138568304Y-124170738D01*
X138568784Y-124165254D01*
X138568785Y-124165247D01*
X138576396Y-124078265D01*
X138577624Y-124070117D01*
X138579018Y-124066149D01*
X138579500Y-124060584D01*
X138579500Y-124048271D01*
X138579978Y-124037309D01*
X138581641Y-124018304D01*
X138582680Y-124009840D01*
X138582680Y-124009795D01*
X138584231Y-124000000D01*
X138581051Y-123979922D01*
X138579500Y-123960212D01*
X138579500Y-122994730D01*
X138599502Y-122926609D01*
X138623669Y-122898919D01*
X138679536Y-122851204D01*
X138685314Y-122846269D01*
X138777755Y-122717624D01*
X138836842Y-122570641D01*
X138846238Y-122504619D01*
X138858581Y-122417891D01*
X138858581Y-122417888D01*
X138859162Y-122413807D01*
X138859307Y-122400000D01*
X138840276Y-122242733D01*
X138784280Y-122094546D01*
X138750293Y-122045095D01*
X138698855Y-121970251D01*
X138698854Y-121970249D01*
X138694553Y-121963992D01*
X138576275Y-121858611D01*
X138568889Y-121854700D01*
X138451976Y-121792798D01*
X138436274Y-121784484D01*
X138282633Y-121745892D01*
X138275034Y-121745852D01*
X138275033Y-121745852D01*
X138209181Y-121745507D01*
X138124221Y-121745062D01*
X138116841Y-121746834D01*
X138116839Y-121746834D01*
X137977563Y-121780271D01*
X137977560Y-121780272D01*
X137970184Y-121782043D01*
X137829414Y-121854700D01*
X137710039Y-121958838D01*
X137618950Y-122088444D01*
X137611315Y-122108028D01*
X137564483Y-122228146D01*
X137561406Y-122236037D01*
X137560414Y-122243570D01*
X137560414Y-122243571D01*
X137542036Y-122383172D01*
X137540729Y-122393096D01*
X137545119Y-122432857D01*
X137557183Y-122542127D01*
X137558113Y-122550553D01*
X137560723Y-122557684D01*
X137560723Y-122557686D01*
X137609864Y-122691970D01*
X137612553Y-122699319D01*
X137616789Y-122705622D01*
X137616789Y-122705623D01*
X137668266Y-122782228D01*
X137700908Y-122830805D01*
X137706527Y-122835918D01*
X137706528Y-122835919D01*
X137779299Y-122902135D01*
X137816222Y-122962775D01*
X137820500Y-122995329D01*
X137820500Y-123960212D01*
X137818949Y-123979922D01*
X137815769Y-124000000D01*
X137817321Y-124009797D01*
X137817321Y-124010152D01*
X137815769Y-124029868D01*
X137812829Y-124048429D01*
X137800647Y-124085921D01*
X137787446Y-124111829D01*
X137764275Y-124143720D01*
X137743720Y-124164275D01*
X137711829Y-124187446D01*
X137685921Y-124200647D01*
X137648429Y-124212829D01*
X137629868Y-124215769D01*
X137610152Y-124217321D01*
X137609797Y-124217321D01*
X137600000Y-124215769D01*
X137590207Y-124217320D01*
X137590206Y-124217320D01*
X137579923Y-124218949D01*
X137560212Y-124220500D01*
X137239789Y-124220500D01*
X137220078Y-124218949D01*
X137200001Y-124215769D01*
X137190207Y-124217320D01*
X137189578Y-124217320D01*
X137182255Y-124218187D01*
X137011777Y-124231604D01*
X137006970Y-124232758D01*
X137006964Y-124232759D01*
X136934015Y-124250273D01*
X136828188Y-124275680D01*
X136823621Y-124277572D01*
X136823614Y-124277574D01*
X136658328Y-124346037D01*
X136658324Y-124346039D01*
X136653754Y-124347932D01*
X136492771Y-124446583D01*
X136349202Y-124569202D01*
X136241706Y-124695065D01*
X136236354Y-124701331D01*
X136176904Y-124740140D01*
X136140543Y-124745501D01*
X135904934Y-124745501D01*
X135869182Y-124752612D01*
X135842874Y-124757844D01*
X135842872Y-124757845D01*
X135830699Y-124760266D01*
X135820379Y-124767161D01*
X135820378Y-124767162D01*
X135768766Y-124801649D01*
X135746516Y-124816516D01*
X135690266Y-124900699D01*
X135675500Y-124974933D01*
X135675501Y-127025066D01*
X135679069Y-127043003D01*
X135685969Y-127077695D01*
X135690266Y-127099301D01*
X135746516Y-127183484D01*
X135830699Y-127239734D01*
X135904933Y-127254500D01*
X136379923Y-127254500D01*
X136855066Y-127254499D01*
X136890818Y-127247388D01*
X136917126Y-127242156D01*
X136917128Y-127242155D01*
X136929301Y-127239734D01*
X136944996Y-127229247D01*
X137012748Y-127208030D01*
X137085004Y-127229247D01*
X137100699Y-127239734D01*
X137164594Y-127252443D01*
X137169081Y-127253336D01*
X137231991Y-127286243D01*
X137267123Y-127347938D01*
X137270500Y-127376915D01*
X137270500Y-129195700D01*
X137250498Y-129263821D01*
X137196842Y-129310314D01*
X137126568Y-129320418D01*
X137061988Y-129290924D01*
X137048692Y-129277534D01*
X137036611Y-129263389D01*
X136985396Y-129219647D01*
X136899203Y-129146031D01*
X136899200Y-129146029D01*
X136895436Y-129142814D01*
X136891213Y-129140226D01*
X136891210Y-129140224D01*
X136839427Y-129108492D01*
X136737137Y-129045809D01*
X136608335Y-128992457D01*
X136570186Y-128976655D01*
X136570184Y-128976654D01*
X136565613Y-128974761D01*
X136502295Y-128959560D01*
X136389898Y-128932575D01*
X136389892Y-128932574D01*
X136385085Y-128931420D01*
X136274988Y-128922755D01*
X136268489Y-128921804D01*
X136266149Y-128920982D01*
X136260584Y-128920500D01*
X136251291Y-128920500D01*
X136241406Y-128920112D01*
X136218534Y-128918312D01*
X136210164Y-128917321D01*
X136209797Y-128917321D01*
X136200000Y-128915769D01*
X136190207Y-128917320D01*
X136190206Y-128917320D01*
X136179923Y-128918949D01*
X136160212Y-128920500D01*
X133039784Y-128920500D01*
X133020075Y-128918949D01*
X133009790Y-128917320D01*
X133009788Y-128917320D01*
X132999995Y-128915769D01*
X132983943Y-128918312D01*
X132979928Y-128918948D01*
X132960213Y-128920500D01*
X130605500Y-128920500D01*
X130537379Y-128900498D01*
X130490886Y-128846842D01*
X130479500Y-128794500D01*
X130479500Y-127439788D01*
X130481051Y-127420077D01*
X130482680Y-127409792D01*
X130484231Y-127400000D01*
X130482680Y-127390205D01*
X130482680Y-127390160D01*
X130481642Y-127381706D01*
X130468304Y-127229262D01*
X130423945Y-127063711D01*
X130421136Y-127057686D01*
X130353839Y-126913366D01*
X130353836Y-126913361D01*
X130351513Y-126908379D01*
X130253207Y-126767984D01*
X130132016Y-126646793D01*
X130127508Y-126643636D01*
X130127505Y-126643634D01*
X130005557Y-126558245D01*
X129961229Y-126502788D01*
X129952906Y-126438585D01*
X129957462Y-126403979D01*
X129958000Y-126395772D01*
X129958000Y-126305500D01*
X129978002Y-126237379D01*
X130031658Y-126190886D01*
X130084000Y-126179500D01*
X133360212Y-126179500D01*
X133379922Y-126181051D01*
X133400000Y-126184231D01*
X133409795Y-126182680D01*
X133409840Y-126182680D01*
X133418294Y-126181642D01*
X133570738Y-126168304D01*
X133672029Y-126141163D01*
X133730979Y-126125368D01*
X133730981Y-126125367D01*
X133736289Y-126123945D01*
X133824931Y-126082611D01*
X133886634Y-126053839D01*
X133886639Y-126053836D01*
X133891621Y-126051513D01*
X133970029Y-125996611D01*
X134027505Y-125956366D01*
X134027508Y-125956364D01*
X134032016Y-125953207D01*
X134153207Y-125832016D01*
X134251513Y-125691621D01*
X134253836Y-125686639D01*
X134253839Y-125686634D01*
X134321622Y-125541271D01*
X134321622Y-125541270D01*
X134323945Y-125536289D01*
X134325415Y-125530805D01*
X134366880Y-125376053D01*
X134366880Y-125376051D01*
X134368304Y-125370738D01*
X134368784Y-125365254D01*
X134368785Y-125365247D01*
X134376396Y-125278265D01*
X134377624Y-125270117D01*
X134379018Y-125266149D01*
X134379500Y-125260584D01*
X134379500Y-125248271D01*
X134379978Y-125237309D01*
X134381641Y-125218304D01*
X134382680Y-125209840D01*
X134382680Y-125209795D01*
X134384231Y-125200000D01*
X134381051Y-125179922D01*
X134379500Y-125160212D01*
X134379500Y-124045500D01*
X134399502Y-123977379D01*
X134453158Y-123930886D01*
X134505500Y-123919500D01*
X136310230Y-123919499D01*
X136405066Y-123919499D01*
X136440818Y-123912388D01*
X136467126Y-123907156D01*
X136467128Y-123907155D01*
X136479301Y-123904734D01*
X136489621Y-123897839D01*
X136489622Y-123897838D01*
X136553168Y-123855377D01*
X136563484Y-123848484D01*
X136619734Y-123764301D01*
X136634500Y-123690067D01*
X136634499Y-122739934D01*
X136624959Y-122691970D01*
X136622156Y-122677874D01*
X136622155Y-122677872D01*
X136619734Y-122665699D01*
X136609247Y-122650004D01*
X136588030Y-122582252D01*
X136609247Y-122509995D01*
X136619734Y-122494301D01*
X136634500Y-122420067D01*
X136634499Y-121469934D01*
X136619734Y-121395699D01*
X136609247Y-121380004D01*
X136588030Y-121312252D01*
X136609247Y-121239995D01*
X136619734Y-121224301D01*
X136634500Y-121150067D01*
X136634499Y-120199934D01*
X136619734Y-120125699D01*
X136609247Y-120110004D01*
X136588030Y-120042252D01*
X136609247Y-119969995D01*
X136619734Y-119954301D01*
X136634500Y-119880067D01*
X136634499Y-118929934D01*
X136619734Y-118855699D01*
X136609247Y-118840004D01*
X136588030Y-118772252D01*
X136609247Y-118699995D01*
X136619734Y-118684301D01*
X136634500Y-118610067D01*
X136634499Y-117659934D01*
X136619734Y-117585699D01*
X136609247Y-117570004D01*
X136588030Y-117502252D01*
X136609247Y-117429995D01*
X136619734Y-117414301D01*
X136634500Y-117340067D01*
X136634499Y-116389934D01*
X136619734Y-116315699D01*
X136609247Y-116300004D01*
X136588030Y-116232252D01*
X136609247Y-116159995D01*
X136619734Y-116144301D01*
X136634500Y-116070067D01*
X136634499Y-115119934D01*
X136619734Y-115045699D01*
X136609247Y-115030004D01*
X136588030Y-114962252D01*
X136609247Y-114889995D01*
X136619734Y-114874301D01*
X136634500Y-114800067D01*
X136634499Y-113849934D01*
X136626515Y-113809793D01*
X136622156Y-113787874D01*
X136622155Y-113787872D01*
X136619734Y-113775699D01*
X136609247Y-113760004D01*
X136588030Y-113692252D01*
X136609247Y-113619995D01*
X136619734Y-113604301D01*
X136634500Y-113530067D01*
X136634499Y-112742175D01*
X136654501Y-112674055D01*
X136684934Y-112641350D01*
X136735724Y-112603285D01*
X136748285Y-112590724D01*
X136824786Y-112488649D01*
X136833324Y-112473054D01*
X136878478Y-112352606D01*
X136882105Y-112337351D01*
X136887631Y-112286486D01*
X136888000Y-112279672D01*
X136888000Y-112057115D01*
X136883525Y-112041876D01*
X136882135Y-112040671D01*
X136874452Y-112039000D01*
X133890116Y-112039000D01*
X133874877Y-112043475D01*
X133873672Y-112044865D01*
X133872001Y-112052548D01*
X133872001Y-112279669D01*
X133872371Y-112286490D01*
X133877895Y-112337352D01*
X133881521Y-112352604D01*
X133926676Y-112473054D01*
X133935214Y-112488649D01*
X134011715Y-112590724D01*
X134024272Y-112603281D01*
X134075065Y-112641348D01*
X134117580Y-112698208D01*
X134125500Y-112742175D01*
X134125501Y-113135631D01*
X134125501Y-113530066D01*
X134140266Y-113604301D01*
X134150753Y-113619995D01*
X134171970Y-113687748D01*
X134150753Y-113760004D01*
X134140266Y-113775699D01*
X134125500Y-113849933D01*
X134125501Y-114800066D01*
X134140266Y-114874301D01*
X134150753Y-114889995D01*
X134171970Y-114957748D01*
X134150753Y-115030004D01*
X134140266Y-115045699D01*
X134125500Y-115119933D01*
X134125501Y-116070066D01*
X134140266Y-116144301D01*
X134150753Y-116159995D01*
X134171970Y-116227748D01*
X134150753Y-116300004D01*
X134140266Y-116315699D01*
X134125500Y-116389933D01*
X134125501Y-117340066D01*
X134130922Y-117367320D01*
X134135984Y-117392770D01*
X134140266Y-117414301D01*
X134150753Y-117429995D01*
X134171970Y-117497748D01*
X134150753Y-117570004D01*
X134140266Y-117585699D01*
X134125500Y-117659933D01*
X134125501Y-118610066D01*
X134130918Y-118637301D01*
X134137104Y-118668402D01*
X134140266Y-118684301D01*
X134150753Y-118699995D01*
X134171970Y-118767748D01*
X134150753Y-118840004D01*
X134140266Y-118855699D01*
X134125500Y-118929933D01*
X134125501Y-119880066D01*
X134132612Y-119915818D01*
X134133796Y-119921769D01*
X134140266Y-119954301D01*
X134150753Y-119969995D01*
X134171970Y-120037748D01*
X134150753Y-120110004D01*
X134140266Y-120125699D01*
X134125500Y-120199933D01*
X134125501Y-121150066D01*
X134140266Y-121224301D01*
X134150753Y-121239995D01*
X134171970Y-121307748D01*
X134150753Y-121380004D01*
X134140266Y-121395699D01*
X134125500Y-121469933D01*
X134123496Y-121469534D01*
X134100414Y-121526679D01*
X134042456Y-121567682D01*
X134012594Y-121574007D01*
X133974675Y-121577324D01*
X133859602Y-121608158D01*
X133805138Y-121622751D01*
X133805136Y-121622752D01*
X133799828Y-121624174D01*
X133794848Y-121626496D01*
X133794846Y-121626497D01*
X133640761Y-121698348D01*
X133640756Y-121698351D01*
X133635774Y-121700674D01*
X133569851Y-121746834D01*
X133511005Y-121788039D01*
X133487496Y-121804500D01*
X133359500Y-121932496D01*
X133356343Y-121937005D01*
X133356341Y-121937007D01*
X133316052Y-121994546D01*
X133255674Y-122080774D01*
X133253351Y-122085756D01*
X133253348Y-122085761D01*
X133183273Y-122236037D01*
X133179174Y-122244828D01*
X133132324Y-122419675D01*
X133123997Y-122514866D01*
X133123252Y-122523376D01*
X133122191Y-122530408D01*
X133120982Y-122533851D01*
X133120500Y-122539416D01*
X133120500Y-122549319D01*
X133120021Y-122560300D01*
X133118101Y-122582252D01*
X133117892Y-122584636D01*
X133117320Y-122589294D01*
X133117320Y-122590206D01*
X133115769Y-122600000D01*
X133117320Y-122609792D01*
X133118949Y-122620077D01*
X133120500Y-122639788D01*
X133120500Y-124794500D01*
X133100498Y-124862621D01*
X133046842Y-124909114D01*
X132994500Y-124920500D01*
X129072690Y-124920500D01*
X129004569Y-124900498D01*
X128983595Y-124883595D01*
X128616405Y-124516405D01*
X128582379Y-124454093D01*
X128579500Y-124427310D01*
X128579500Y-124075356D01*
X128577415Y-124059521D01*
X128574681Y-124038749D01*
X128574680Y-124038746D01*
X128573422Y-124029189D01*
X128569349Y-124020454D01*
X128569347Y-124020448D01*
X128535059Y-123946917D01*
X128524398Y-123876726D01*
X128546930Y-123820144D01*
X128597221Y-123750157D01*
X128656308Y-123603174D01*
X128677013Y-123457686D01*
X128678047Y-123450424D01*
X128678047Y-123450421D01*
X128678628Y-123446340D01*
X128678773Y-123432533D01*
X128659742Y-123275266D01*
X128603746Y-123127079D01*
X128606485Y-123126044D01*
X128595284Y-123069714D01*
X128621283Y-123003650D01*
X128678872Y-122962128D01*
X128722761Y-122954970D01*
X128724184Y-122954992D01*
X128761319Y-122955576D01*
X128761322Y-122955576D01*
X128768916Y-122955695D01*
X128923332Y-122920329D01*
X129014991Y-122874230D01*
X129058072Y-122852563D01*
X129058075Y-122852561D01*
X129064855Y-122849151D01*
X129070626Y-122844222D01*
X129070629Y-122844220D01*
X129179536Y-122751204D01*
X129179536Y-122751203D01*
X129185314Y-122746269D01*
X129277755Y-122617624D01*
X129336842Y-122470641D01*
X129343336Y-122425012D01*
X129358581Y-122317891D01*
X129358581Y-122317888D01*
X129359162Y-122313807D01*
X129359307Y-122300000D01*
X129358270Y-122291426D01*
X129341188Y-122150273D01*
X129340276Y-122142733D01*
X129284280Y-121994546D01*
X129263281Y-121963992D01*
X129198855Y-121870251D01*
X129198854Y-121870249D01*
X129194553Y-121863992D01*
X129188514Y-121858611D01*
X129124234Y-121801341D01*
X129076275Y-121758611D01*
X129068889Y-121754700D01*
X128976232Y-121705641D01*
X128936274Y-121684484D01*
X128782633Y-121645892D01*
X128775034Y-121645852D01*
X128775033Y-121645852D01*
X128709181Y-121645507D01*
X128624221Y-121645062D01*
X128616841Y-121646834D01*
X128616839Y-121646834D01*
X128477563Y-121680271D01*
X128477560Y-121680272D01*
X128470184Y-121682043D01*
X128329414Y-121754700D01*
X128210039Y-121858838D01*
X128131737Y-121970251D01*
X128120479Y-121986269D01*
X128064944Y-122030500D01*
X128057893Y-122033131D01*
X128022648Y-122045095D01*
X127951713Y-122048051D01*
X127890441Y-122012188D01*
X127858284Y-121948891D01*
X127862554Y-121886115D01*
X127897797Y-121779861D01*
X127898599Y-121772039D01*
X127902909Y-121729969D01*
X127908500Y-121675400D01*
X127908500Y-120624600D01*
X127897526Y-120518834D01*
X127841550Y-120351054D01*
X127748478Y-120200652D01*
X127700711Y-120152968D01*
X127666632Y-120090685D01*
X127663729Y-120063795D01*
X127663729Y-116612148D01*
X127665011Y-116594217D01*
X127665701Y-116589417D01*
X127666582Y-116583290D01*
X127663316Y-116522350D01*
X127664079Y-116512876D01*
X127663729Y-116512876D01*
X127663729Y-115986155D01*
X127683731Y-115918034D01*
X127700556Y-115897137D01*
X127744134Y-115853483D01*
X127749305Y-115848303D01*
X127842115Y-115697738D01*
X127891399Y-115549151D01*
X127895632Y-115536389D01*
X127895632Y-115536387D01*
X127897797Y-115529861D01*
X127908500Y-115425400D01*
X127908500Y-114374600D01*
X127903705Y-114328384D01*
X127898238Y-114275692D01*
X127898237Y-114275688D01*
X127897526Y-114268834D01*
X127893018Y-114255320D01*
X127843868Y-114108002D01*
X127841550Y-114101054D01*
X127748478Y-113950652D01*
X127623303Y-113825695D01*
X127613573Y-113819697D01*
X127530026Y-113768198D01*
X127482533Y-113715426D01*
X127471109Y-113645354D01*
X127479234Y-113613945D01*
X127536842Y-113470641D01*
X127548879Y-113386063D01*
X127558581Y-113317891D01*
X127558581Y-113317888D01*
X127559162Y-113313807D01*
X127559231Y-113307265D01*
X127559264Y-113304134D01*
X127559264Y-113304128D01*
X127559307Y-113300000D01*
X127558076Y-113289823D01*
X127544370Y-113176564D01*
X127540276Y-113142733D01*
X127484280Y-112994546D01*
X127471841Y-112976447D01*
X127398855Y-112870251D01*
X127398854Y-112870249D01*
X127394553Y-112863992D01*
X127276275Y-112758611D01*
X127268889Y-112754700D01*
X127142988Y-112688039D01*
X127142989Y-112688039D01*
X127136274Y-112684484D01*
X126982633Y-112645892D01*
X126975034Y-112645852D01*
X126975033Y-112645852D01*
X126909181Y-112645507D01*
X126824221Y-112645062D01*
X126816841Y-112646834D01*
X126816839Y-112646834D01*
X126677563Y-112680271D01*
X126677560Y-112680272D01*
X126670184Y-112682043D01*
X126529414Y-112754700D01*
X126410039Y-112858838D01*
X126405672Y-112865051D01*
X126405667Y-112865057D01*
X126404336Y-112866951D01*
X126403013Y-112868005D01*
X126400589Y-112870697D01*
X126400140Y-112870293D01*
X126348802Y-112911183D01*
X126301250Y-112920500D01*
X126239788Y-112920500D01*
X126220077Y-112918949D01*
X126210449Y-112917424D01*
X126200000Y-112915769D01*
X126191988Y-112917038D01*
X126188045Y-112917320D01*
X126187503Y-112917320D01*
X126186607Y-112917423D01*
X125974639Y-112932583D01*
X125888991Y-112951215D01*
X125758256Y-112979654D01*
X125758253Y-112979655D01*
X125753867Y-112980609D01*
X125749665Y-112982176D01*
X125749659Y-112982178D01*
X125546995Y-113057769D01*
X125542176Y-113059566D01*
X125538232Y-113061720D01*
X125538229Y-113061721D01*
X125422385Y-113124977D01*
X125343876Y-113167846D01*
X125163005Y-113303244D01*
X125003244Y-113463005D01*
X124867846Y-113643876D01*
X124759566Y-113842176D01*
X124757992Y-113846396D01*
X124736426Y-113904216D01*
X124693879Y-113961051D01*
X124660120Y-113979064D01*
X124579261Y-114007460D01*
X124508361Y-114011159D01*
X124467509Y-113993342D01*
X124409621Y-113954661D01*
X124409618Y-113954660D01*
X124399301Y-113947766D01*
X124325067Y-113933000D01*
X122612055Y-113933000D01*
X122543934Y-113912998D01*
X122511187Y-113882509D01*
X122400989Y-113735303D01*
X122400989Y-113735302D01*
X122398291Y-113731699D01*
X122218301Y-113551709D01*
X122214697Y-113549011D01*
X122157733Y-113506368D01*
X122115186Y-113449532D01*
X122110122Y-113378716D01*
X122144147Y-113316404D01*
X122206459Y-113282379D01*
X122233242Y-113279500D01*
X123885212Y-113279500D01*
X123904922Y-113281051D01*
X123925000Y-113284231D01*
X123927924Y-113283768D01*
X123938599Y-113282928D01*
X124008838Y-113277400D01*
X124153237Y-113266035D01*
X124158044Y-113264881D01*
X124158050Y-113264880D01*
X124305606Y-113229455D01*
X124375855Y-113212590D01*
X124587371Y-113124977D01*
X124782578Y-113005355D01*
X124786338Y-113002144D01*
X124786343Y-113002140D01*
X124952906Y-112859881D01*
X124956668Y-112856668D01*
X125013431Y-112790207D01*
X125102140Y-112686343D01*
X125102144Y-112686338D01*
X125105355Y-112682578D01*
X125192932Y-112539664D01*
X125245578Y-112492033D01*
X125300364Y-112479499D01*
X125329314Y-112479499D01*
X125332262Y-112479220D01*
X125332271Y-112479220D01*
X125353478Y-112477216D01*
X125353480Y-112477216D01*
X125361127Y-112476493D01*
X125490076Y-112431209D01*
X125600010Y-112350010D01*
X125681209Y-112240076D01*
X125726493Y-112111127D01*
X125729500Y-112079315D01*
X125729499Y-111570686D01*
X125726493Y-111538873D01*
X125717367Y-111512885D01*
X133872000Y-111512885D01*
X133876475Y-111528124D01*
X133877865Y-111529329D01*
X133885548Y-111531000D01*
X135107885Y-111531000D01*
X135123124Y-111526525D01*
X135124329Y-111525135D01*
X135126000Y-111517452D01*
X135126000Y-111512885D01*
X135634000Y-111512885D01*
X135638475Y-111528124D01*
X135639865Y-111529329D01*
X135647548Y-111531000D01*
X136869884Y-111531000D01*
X136885123Y-111526525D01*
X136886328Y-111525135D01*
X136887999Y-111517452D01*
X136887999Y-111290331D01*
X136887629Y-111283510D01*
X136882105Y-111232648D01*
X136878479Y-111217396D01*
X136833324Y-111096946D01*
X136824786Y-111081351D01*
X136748285Y-110979276D01*
X136735724Y-110966715D01*
X136633649Y-110890214D01*
X136618054Y-110881676D01*
X136497606Y-110836522D01*
X136482351Y-110832895D01*
X136431486Y-110827369D01*
X136424672Y-110827000D01*
X135652115Y-110827000D01*
X135636876Y-110831475D01*
X135635671Y-110832865D01*
X135634000Y-110840548D01*
X135634000Y-111512885D01*
X135126000Y-111512885D01*
X135126000Y-110845116D01*
X135121525Y-110829877D01*
X135120135Y-110828672D01*
X135112452Y-110827001D01*
X134335331Y-110827001D01*
X134328510Y-110827371D01*
X134277648Y-110832895D01*
X134262396Y-110836521D01*
X134141946Y-110881676D01*
X134126351Y-110890214D01*
X134024276Y-110966715D01*
X134011715Y-110979276D01*
X133935214Y-111081351D01*
X133926676Y-111096946D01*
X133881522Y-111217394D01*
X133877895Y-111232649D01*
X133872369Y-111283514D01*
X133872000Y-111290328D01*
X133872000Y-111512885D01*
X125717367Y-111512885D01*
X125681209Y-111409924D01*
X125600010Y-111299990D01*
X125490076Y-111218791D01*
X125361127Y-111173507D01*
X125353485Y-111172785D01*
X125353482Y-111172784D01*
X125338579Y-111171376D01*
X125329315Y-111170500D01*
X125000223Y-111170500D01*
X124670686Y-111170501D01*
X124667738Y-111170780D01*
X124667729Y-111170780D01*
X124646522Y-111172784D01*
X124646520Y-111172784D01*
X124638873Y-111173507D01*
X124509924Y-111218791D01*
X124502352Y-111224384D01*
X124502348Y-111224386D01*
X124474860Y-111244690D01*
X124408182Y-111269073D01*
X124338906Y-111253537D01*
X124325140Y-111244690D01*
X124297652Y-111224386D01*
X124297648Y-111224384D01*
X124290076Y-111218791D01*
X124161127Y-111173507D01*
X124153485Y-111172785D01*
X124153482Y-111172784D01*
X124138579Y-111171376D01*
X124129315Y-111170500D01*
X124030652Y-111170500D01*
X123962531Y-111150498D01*
X123931488Y-111120665D01*
X123931024Y-111121054D01*
X123927481Y-111116832D01*
X123924328Y-111112329D01*
X123856593Y-111044594D01*
X123822567Y-110982282D01*
X123827632Y-110911467D01*
X123870179Y-110854631D01*
X123936699Y-110829820D01*
X123945679Y-110829499D01*
X124129314Y-110829499D01*
X124132262Y-110829220D01*
X124132271Y-110829220D01*
X124153478Y-110827216D01*
X124153480Y-110827216D01*
X124161127Y-110826493D01*
X124290076Y-110781209D01*
X124297648Y-110775616D01*
X124297652Y-110775614D01*
X124325140Y-110755310D01*
X124391818Y-110730927D01*
X124461094Y-110746463D01*
X124474860Y-110755310D01*
X124502348Y-110775614D01*
X124502352Y-110775616D01*
X124509924Y-110781209D01*
X124638873Y-110826493D01*
X124646515Y-110827215D01*
X124646518Y-110827216D01*
X124661421Y-110828624D01*
X124670685Y-110829500D01*
X124999777Y-110829500D01*
X125329314Y-110829499D01*
X125332262Y-110829220D01*
X125332271Y-110829220D01*
X125353478Y-110827216D01*
X125353480Y-110827216D01*
X125361127Y-110826493D01*
X125490076Y-110781209D01*
X125594407Y-110704149D01*
X125661085Y-110679766D01*
X125669266Y-110679500D01*
X126500141Y-110679500D01*
X126568262Y-110699502D01*
X126595522Y-110723169D01*
X126596672Y-110724501D01*
X126600908Y-110730805D01*
X126606525Y-110735916D01*
X126711544Y-110831475D01*
X126718076Y-110837419D01*
X126857293Y-110913008D01*
X127010522Y-110953207D01*
X127094477Y-110954526D01*
X127161319Y-110955576D01*
X127161322Y-110955576D01*
X127168916Y-110955695D01*
X127323332Y-110920329D01*
X127408101Y-110877695D01*
X127458072Y-110852563D01*
X127458075Y-110852561D01*
X127464855Y-110849151D01*
X127470626Y-110844222D01*
X127470629Y-110844220D01*
X127579536Y-110751204D01*
X127579536Y-110751203D01*
X127585314Y-110746269D01*
X127677755Y-110617624D01*
X127736842Y-110470641D01*
X127755515Y-110339436D01*
X127758581Y-110317891D01*
X127758581Y-110317888D01*
X127759162Y-110313807D01*
X127759307Y-110300000D01*
X127740276Y-110142733D01*
X127693001Y-110017624D01*
X127686537Y-110000518D01*
X127681169Y-109929725D01*
X127714926Y-109867267D01*
X127777092Y-109832975D01*
X127804403Y-109829980D01*
X128062522Y-109829980D01*
X128130643Y-109849982D01*
X128177136Y-109903638D01*
X128180848Y-109912680D01*
X128209941Y-109992183D01*
X128209943Y-109992187D01*
X128212553Y-109999319D01*
X128216789Y-110005622D01*
X128216789Y-110005623D01*
X128286674Y-110109622D01*
X128300908Y-110130805D01*
X128306527Y-110135918D01*
X128306528Y-110135919D01*
X128356308Y-110181215D01*
X128418076Y-110237419D01*
X128557293Y-110313008D01*
X128710522Y-110353207D01*
X128794477Y-110354526D01*
X128861319Y-110355576D01*
X128861322Y-110355576D01*
X128868916Y-110355695D01*
X129023332Y-110320329D01*
X129135347Y-110263992D01*
X129158072Y-110252563D01*
X129158075Y-110252561D01*
X129164855Y-110249151D01*
X129170626Y-110244222D01*
X129170629Y-110244220D01*
X129279536Y-110151204D01*
X129279536Y-110151203D01*
X129285314Y-110146269D01*
X129377755Y-110017624D01*
X129436842Y-109870641D01*
X129459162Y-109713807D01*
X129459307Y-109700000D01*
X129440276Y-109542733D01*
X129384280Y-109394546D01*
X129335027Y-109322882D01*
X129298855Y-109270251D01*
X129298854Y-109270249D01*
X129294553Y-109263992D01*
X129176275Y-109158611D01*
X129147989Y-109143634D01*
X129091655Y-109113807D01*
X129036274Y-109084484D01*
X128882633Y-109045892D01*
X128875034Y-109045852D01*
X128875033Y-109045852D01*
X128809181Y-109045507D01*
X128724221Y-109045062D01*
X128716841Y-109046834D01*
X128716839Y-109046834D01*
X128633920Y-109066741D01*
X128598699Y-109068680D01*
X128598702Y-109068767D01*
X128544845Y-109070883D01*
X128539898Y-109070980D01*
X124564308Y-109070980D01*
X124544597Y-109069429D01*
X124524520Y-109066249D01*
X124517270Y-109067397D01*
X124512664Y-109067800D01*
X124512660Y-109067800D01*
X124403100Y-109077386D01*
X124332077Y-109083600D01*
X124234737Y-109109682D01*
X124150791Y-109132175D01*
X124150789Y-109132176D01*
X124145481Y-109133598D01*
X124140501Y-109135920D01*
X124140499Y-109135921D01*
X123975383Y-109212916D01*
X123975380Y-109212918D01*
X123970402Y-109215239D01*
X123812159Y-109326041D01*
X123675561Y-109462639D01*
X123672408Y-109467142D01*
X123668865Y-109471364D01*
X123667916Y-109470567D01*
X123617215Y-109511098D01*
X123569454Y-109520501D01*
X123470686Y-109520501D01*
X123467738Y-109520780D01*
X123467729Y-109520780D01*
X123446522Y-109522784D01*
X123446520Y-109522784D01*
X123438873Y-109523507D01*
X123431623Y-109526053D01*
X123347651Y-109555542D01*
X123276751Y-109559241D01*
X123215106Y-109524022D01*
X123182288Y-109461065D01*
X123188995Y-109389663D01*
X123234007Y-109277694D01*
X123234008Y-109277692D01*
X123236842Y-109270641D01*
X123256015Y-109135921D01*
X123258581Y-109117891D01*
X123258581Y-109117888D01*
X123259162Y-109113807D01*
X123259307Y-109100000D01*
X123256571Y-109077386D01*
X123252759Y-109045892D01*
X123240276Y-108942733D01*
X123184280Y-108794546D01*
X123094553Y-108663992D01*
X122976275Y-108558611D01*
X122968889Y-108554700D01*
X122849249Y-108491354D01*
X122798406Y-108441801D01*
X122782424Y-108372627D01*
X122806378Y-108305793D01*
X122862662Y-108262520D01*
X122908208Y-108254000D01*
X135549500Y-108254000D01*
X135617621Y-108274002D01*
G37*
%TD.AperFunction*%
%TA.AperFunction,Conductor*%
G36*
X124666167Y-117706851D02*
G01*
X124783113Y-117745640D01*
X124783115Y-117745640D01*
X124789641Y-117747805D01*
X124796478Y-117748505D01*
X124796480Y-117748506D01*
X124839179Y-117752881D01*
X124894023Y-117758500D01*
X124924950Y-117758500D01*
X126010271Y-117758499D01*
X126078392Y-117778501D01*
X126124885Y-117832157D01*
X126136271Y-117884499D01*
X126136271Y-118463500D01*
X126116269Y-118531621D01*
X126062613Y-118578114D01*
X126010271Y-118589500D01*
X124919276Y-118589501D01*
X124890628Y-118589501D01*
X124887678Y-118589780D01*
X124887673Y-118589780D01*
X124866774Y-118591755D01*
X124866773Y-118591755D01*
X124859125Y-118592478D01*
X124731488Y-118637301D01*
X124701357Y-118659556D01*
X124634682Y-118683938D01*
X124565406Y-118668402D01*
X124515527Y-118617878D01*
X124500500Y-118558204D01*
X124500500Y-117826444D01*
X124520502Y-117758323D01*
X124574158Y-117711830D01*
X124644432Y-117701726D01*
X124666167Y-117706851D01*
G37*
%TD.AperFunction*%
%TA.AperFunction,Conductor*%
G36*
X122361290Y-108274002D02*
G01*
X122407783Y-108327658D01*
X122417887Y-108397932D01*
X122388393Y-108462512D01*
X122350960Y-108491965D01*
X122229414Y-108554700D01*
X122110039Y-108658838D01*
X122018950Y-108788444D01*
X122016190Y-108795524D01*
X121967276Y-108920982D01*
X121961406Y-108936037D01*
X121960414Y-108943570D01*
X121960414Y-108943571D01*
X121952361Y-109004738D01*
X121923638Y-109069665D01*
X121864373Y-109108756D01*
X121793381Y-109109601D01*
X121738344Y-109077386D01*
X121726342Y-109065384D01*
X121720352Y-109061620D01*
X121602679Y-108987680D01*
X121602678Y-108987679D01*
X121596690Y-108983917D01*
X121452160Y-108933344D01*
X121445133Y-108932552D01*
X121445132Y-108932552D01*
X121413222Y-108928957D01*
X121388526Y-108926175D01*
X121376113Y-108924144D01*
X121373629Y-108923609D01*
X121366149Y-108920982D01*
X121360584Y-108920500D01*
X121345245Y-108920500D01*
X121331138Y-108919708D01*
X121319200Y-108918363D01*
X121312225Y-108917577D01*
X121310329Y-108917320D01*
X121309943Y-108917320D01*
X121309428Y-108917262D01*
X121300000Y-108915769D01*
X121279923Y-108918949D01*
X121260212Y-108920500D01*
X120539788Y-108920500D01*
X120520077Y-108918949D01*
X120500000Y-108915769D01*
X120490205Y-108917320D01*
X120490160Y-108917320D01*
X120481706Y-108918358D01*
X120329262Y-108931696D01*
X120227971Y-108958837D01*
X120169021Y-108974632D01*
X120169019Y-108974633D01*
X120163711Y-108976055D01*
X120158730Y-108978378D01*
X120158729Y-108978378D01*
X120013366Y-109046161D01*
X120013361Y-109046164D01*
X120008379Y-109048487D01*
X119976256Y-109070980D01*
X119872495Y-109143634D01*
X119872492Y-109143636D01*
X119867984Y-109146793D01*
X119746793Y-109267984D01*
X119648487Y-109408379D01*
X119646164Y-109413361D01*
X119646161Y-109413366D01*
X119598062Y-109516516D01*
X119576055Y-109563711D01*
X119574633Y-109569019D01*
X119574632Y-109569021D01*
X119540637Y-109695892D01*
X119531696Y-109729262D01*
X119531216Y-109734746D01*
X119531215Y-109734753D01*
X119523604Y-109821735D01*
X119522376Y-109829883D01*
X119520982Y-109833851D01*
X119520500Y-109839416D01*
X119520500Y-109851729D01*
X119520022Y-109862691D01*
X119518359Y-109881696D01*
X119517320Y-109890160D01*
X119517320Y-109890205D01*
X119515769Y-109900000D01*
X119517320Y-109909792D01*
X119518949Y-109920077D01*
X119520500Y-109939788D01*
X119520500Y-112760211D01*
X119518949Y-112779921D01*
X119515769Y-112799999D01*
X119517125Y-112808560D01*
X119517320Y-112810789D01*
X119517320Y-112811407D01*
X119517508Y-112812934D01*
X119532838Y-112988169D01*
X119581726Y-113170621D01*
X119584048Y-113175601D01*
X119584049Y-113175603D01*
X119659228Y-113336825D01*
X119659231Y-113336830D01*
X119661554Y-113341812D01*
X119664711Y-113346320D01*
X119746492Y-113463115D01*
X119769896Y-113496540D01*
X119903460Y-113630104D01*
X119907968Y-113633261D01*
X119907971Y-113633263D01*
X119923128Y-113643876D01*
X120058188Y-113738446D01*
X120063170Y-113740769D01*
X120063175Y-113740772D01*
X120215772Y-113811929D01*
X120229379Y-113818274D01*
X120234687Y-113819696D01*
X120234689Y-113819697D01*
X120297089Y-113836417D01*
X120303830Y-113838223D01*
X120323520Y-113843499D01*
X120384143Y-113880451D01*
X120415164Y-113944311D01*
X120406736Y-114014806D01*
X120395677Y-114035203D01*
X120360266Y-114088199D01*
X120345500Y-114162433D01*
X120345501Y-114570251D01*
X120345501Y-114891320D01*
X120325499Y-114959441D01*
X120271843Y-115005934D01*
X120219501Y-115017320D01*
X120209793Y-115017320D01*
X120200000Y-115015769D01*
X120194923Y-115016573D01*
X119960372Y-115033348D01*
X119955968Y-115034306D01*
X119730029Y-115083456D01*
X119730025Y-115083457D01*
X119725622Y-115084415D01*
X119721405Y-115085988D01*
X119721401Y-115085989D01*
X119529173Y-115157686D01*
X119500528Y-115168370D01*
X119496584Y-115170523D01*
X119496583Y-115170524D01*
X119346970Y-115252219D01*
X119289674Y-115283505D01*
X119097352Y-115427476D01*
X118927476Y-115597352D01*
X118924779Y-115600955D01*
X118924778Y-115600956D01*
X118910276Y-115620329D01*
X118783505Y-115789674D01*
X118668370Y-116000528D01*
X118666799Y-116004740D01*
X118610898Y-116154619D01*
X118584415Y-116225622D01*
X118583457Y-116230025D01*
X118583456Y-116230029D01*
X118567064Y-116305381D01*
X118533348Y-116460372D01*
X118533027Y-116464862D01*
X118520812Y-116635650D01*
X118520665Y-116637507D01*
X118520503Y-116639387D01*
X118519774Y-116639324D01*
X118519562Y-116639948D01*
X118520500Y-116640015D01*
X118516573Y-116694923D01*
X118515769Y-116700000D01*
X118517320Y-116709792D01*
X118518949Y-116720077D01*
X118520500Y-116739788D01*
X118520500Y-117440664D01*
X118500498Y-117508785D01*
X118446842Y-117555278D01*
X118436257Y-117559544D01*
X118421747Y-117564639D01*
X118350848Y-117568337D01*
X118289203Y-117533117D01*
X118256386Y-117470161D01*
X118254000Y-117445756D01*
X118254000Y-108380000D01*
X118274002Y-108311879D01*
X118327658Y-108265386D01*
X118380000Y-108254000D01*
X122293169Y-108254000D01*
X122361290Y-108274002D01*
G37*
%TD.AperFunction*%
%TD*%
M02*
