%TF.GenerationSoftware,KiCad,Pcbnew,(6.0.1-0)*%
%TF.CreationDate,2022-01-30T13:21:24+00:00*%
%TF.ProjectId,ASR33,41535233-332e-46b6-9963-61645f706362,1*%
%TF.SameCoordinates,Original*%
%TF.FileFunction,Paste,Top*%
%TF.FilePolarity,Positive*%
%FSLAX46Y46*%
G04 Gerber Fmt 4.6, Leading zero omitted, Abs format (unit mm)*
G04 Created by KiCad (PCBNEW (6.0.1-0)) date 2022-01-30 13:21:24*
%MOMM*%
%LPD*%
G01*
G04 APERTURE LIST*
G04 Aperture macros list*
%AMRoundRect*
0 Rectangle with rounded corners*
0 $1 Rounding radius*
0 $2 $3 $4 $5 $6 $7 $8 $9 X,Y pos of 4 corners*
0 Add a 4 corners polygon primitive as box body*
4,1,4,$2,$3,$4,$5,$6,$7,$8,$9,$2,$3,0*
0 Add four circle primitives for the rounded corners*
1,1,$1+$1,$2,$3*
1,1,$1+$1,$4,$5*
1,1,$1+$1,$6,$7*
1,1,$1+$1,$8,$9*
0 Add four rect primitives between the rounded corners*
20,1,$1+$1,$2,$3,$4,$5,0*
20,1,$1+$1,$4,$5,$6,$7,0*
20,1,$1+$1,$6,$7,$8,$9,0*
20,1,$1+$1,$8,$9,$2,$3,0*%
G04 Aperture macros list end*
%ADD10RoundRect,0.232500X-0.232500X0.232500X-0.232500X-0.232500X0.232500X-0.232500X0.232500X0.232500X0*%
%ADD11R,0.798000X0.420000*%
%ADD12RoundRect,0.069000X-0.478200X0.075000X-0.478200X-0.075000X0.478200X-0.075000X0.478200X0.075000X0*%
%ADD13RoundRect,0.186000X-0.189000X-0.189000X0.189000X-0.189000X0.189000X0.189000X-0.189000X0.189000X0*%
%ADD14RoundRect,0.048500X-0.287500X-0.071500X0.287500X-0.071500X0.287500X0.071500X-0.287500X0.071500X0*%
%ADD15RoundRect,0.057500X-0.062500X-0.278500X0.062500X-0.278500X0.062500X0.278500X-0.062500X0.278500X0*%
%ADD16R,0.864000X1.920000*%
%ADD17R,1.920000X0.864000*%
%ADD18RoundRect,0.184000X0.272000X-0.200000X0.272000X0.200000X-0.272000X0.200000X-0.272000X-0.200000X0*%
%ADD19RoundRect,0.207000X0.225000X0.249000X-0.225000X0.249000X-0.225000X-0.249000X0.225000X-0.249000X0*%
%ADD20RoundRect,0.184000X-0.272000X0.200000X-0.272000X-0.200000X0.272000X-0.200000X0.272000X0.200000X0*%
%ADD21R,0.480000X0.816000*%
%ADD22RoundRect,0.207000X0.249000X-0.225000X0.249000X0.225000X-0.249000X0.225000X-0.249000X-0.225000X0*%
%ADD23RoundRect,0.121500X0.262500X0.142500X-0.262500X0.142500X-0.262500X-0.142500X0.262500X-0.142500X0*%
%ADD24R,1.920000X0.614400*%
%ADD25R,0.624000X0.384000*%
%ADD26RoundRect,0.120500X-0.167500X0.587500X-0.167500X-0.587500X0.167500X-0.587500X0.167500X0.587500X0*%
%ADD27RoundRect,0.184000X0.200000X0.272000X-0.200000X0.272000X-0.200000X-0.272000X0.200000X-0.272000X0*%
%ADD28RoundRect,0.225000X-0.375000X-0.615000X0.375000X-0.615000X0.375000X0.615000X-0.375000X0.615000X0*%
%ADD29RoundRect,0.184000X-0.200000X-0.272000X0.200000X-0.272000X0.200000X0.272000X-0.200000X0.272000X0*%
%ADD30R,1.056000X0.576000*%
%ADD31RoundRect,0.220875X0.619125X-0.463125X0.619125X0.463125X-0.619125X0.463125X-0.619125X-0.463125X0*%
%ADD32RoundRect,0.250000X0.250000X-0.350000X0.250000X0.350000X-0.250000X0.350000X-0.250000X-0.350000X0*%
%ADD33RoundRect,0.230000X-0.250000X-0.466000X0.250000X-0.466000X0.250000X0.466000X-0.250000X0.466000X0*%
G04 APERTURE END LIST*
D10*
%TO.C,J1*%
X124435000Y-104965000D03*
X122135000Y-106115000D03*
X123285000Y-102665000D03*
X122135000Y-104965000D03*
X122135000Y-102665000D03*
X124435000Y-106115000D03*
X123285000Y-106115000D03*
X122135000Y-103815000D03*
X124435000Y-102665000D03*
X123285000Y-103815000D03*
X124435000Y-103815000D03*
X123285000Y-104965000D03*
D11*
X126860000Y-101200000D03*
X126860000Y-102000000D03*
D12*
X126860000Y-103150000D03*
X126860000Y-104150000D03*
X126860000Y-104650000D03*
X126860000Y-105650000D03*
D11*
X126860000Y-107600000D03*
X126860000Y-106800000D03*
D12*
X126860000Y-106150000D03*
X126860000Y-105150000D03*
X126860000Y-103650000D03*
X126860000Y-102650000D03*
%TD*%
D13*
%TO.C,U2*%
X133250000Y-95150000D03*
X134250000Y-95150000D03*
X134250000Y-94150000D03*
X133250000Y-94150000D03*
D14*
X131850000Y-93650000D03*
X131850000Y-94150000D03*
X131850000Y-94650000D03*
X131850000Y-95150000D03*
X131850000Y-95650000D03*
D15*
X132750000Y-96550000D03*
X133250000Y-96550000D03*
X133750000Y-96550000D03*
X134250000Y-96550000D03*
X134750000Y-96550000D03*
D14*
X135650000Y-95650000D03*
X135650000Y-95150000D03*
X135650000Y-94650000D03*
X135650000Y-94150000D03*
X135650000Y-93650000D03*
D15*
X134750000Y-92750000D03*
X134250000Y-92750000D03*
X133750000Y-92750000D03*
X133250000Y-92750000D03*
X132750000Y-92750000D03*
%TD*%
D10*
%TO.C,U1*%
X148285000Y-91315000D03*
X149435000Y-89015000D03*
X148285000Y-90165000D03*
X148285000Y-92465000D03*
X150585000Y-89015000D03*
X149435000Y-91315000D03*
X149435000Y-90165000D03*
X150585000Y-90165000D03*
X149435000Y-92465000D03*
X150585000Y-91315000D03*
X151735000Y-92465000D03*
X151735000Y-90165000D03*
X151735000Y-91315000D03*
X151735000Y-89015000D03*
X148285000Y-89015000D03*
X150585000Y-92465000D03*
D16*
X157505000Y-83250000D03*
X156235000Y-83250000D03*
X154965000Y-83250000D03*
X153695000Y-83250000D03*
X152425000Y-83250000D03*
X151155000Y-83250000D03*
X149885000Y-83250000D03*
X148615000Y-83250000D03*
X147345000Y-83250000D03*
X146075000Y-83250000D03*
X144805000Y-83250000D03*
X143535000Y-83250000D03*
X142265000Y-83250000D03*
X140995000Y-83250000D03*
D17*
X139995000Y-86035000D03*
X139995000Y-87305000D03*
X139995000Y-88575000D03*
X139995000Y-89845000D03*
X139995000Y-91115000D03*
X139995000Y-92385000D03*
X139995000Y-93655000D03*
X139995000Y-94925000D03*
X139995000Y-96195000D03*
X139995000Y-97465000D03*
D16*
X140995000Y-100250000D03*
X142265000Y-100250000D03*
X143535000Y-100250000D03*
X144805000Y-100250000D03*
X146075000Y-100250000D03*
X147345000Y-100250000D03*
X148615000Y-100250000D03*
X149885000Y-100250000D03*
X151155000Y-100250000D03*
X152425000Y-100250000D03*
X153695000Y-100250000D03*
X154965000Y-100250000D03*
X156235000Y-100250000D03*
X157505000Y-100250000D03*
%TD*%
D18*
%TO.C,R3*%
X124800000Y-84975000D03*
X124800000Y-83325000D03*
%TD*%
D19*
%TO.C,C1*%
X132075000Y-90800000D03*
X130525000Y-90800000D03*
%TD*%
D18*
%TO.C,R5*%
X129100000Y-107625000D03*
X129100000Y-105975000D03*
%TD*%
%TO.C,R4*%
X129100000Y-102825000D03*
X129100000Y-101175000D03*
%TD*%
%TO.C,R6*%
X134300000Y-100025000D03*
X134300000Y-98375000D03*
%TD*%
D20*
%TO.C,R7*%
X132900000Y-98375000D03*
X132900000Y-100025000D03*
%TD*%
D21*
%TO.C,D1*%
X122600000Y-83275000D03*
X122600000Y-85025000D03*
X121600000Y-85025000D03*
X121600000Y-83275000D03*
%TD*%
D18*
%TO.C,R1*%
X123600000Y-84975000D03*
X123600000Y-83325000D03*
%TD*%
%TO.C,R2*%
X126000000Y-84975000D03*
X126000000Y-83325000D03*
%TD*%
D19*
%TO.C,C4*%
X128300000Y-110800000D03*
X126750000Y-110800000D03*
%TD*%
D22*
%TO.C,C2*%
X135700000Y-99975000D03*
X135700000Y-98425000D03*
%TD*%
%TO.C,C3*%
X131500000Y-99975000D03*
X131500000Y-98425000D03*
%TD*%
D23*
%TO.C,U4*%
X145950000Y-110350000D03*
X145950000Y-109400000D03*
X145950000Y-108450000D03*
X143550000Y-108450000D03*
X143550000Y-109400000D03*
X143550000Y-110350000D03*
%TD*%
%TO.C,U3*%
X135200000Y-110350000D03*
X135200000Y-109400000D03*
X135200000Y-108450000D03*
X132800000Y-108450000D03*
X132800000Y-109400000D03*
X132800000Y-110350000D03*
%TD*%
D24*
%TO.C,U5*%
X141750000Y-103330000D03*
X141750000Y-105870000D03*
X148050000Y-105870000D03*
X148050000Y-103330000D03*
%TD*%
D25*
%TO.C,D2*%
X160950000Y-110050000D03*
X160950000Y-109400000D03*
X160950000Y-108750000D03*
X159050000Y-108750000D03*
X159050000Y-109400000D03*
X159050000Y-110050000D03*
%TD*%
D26*
%TO.C,Q1*%
X137750000Y-102662500D03*
X135850000Y-102662500D03*
X136800000Y-104537500D03*
%TD*%
D27*
%TO.C,R9*%
X125325000Y-97250000D03*
X123675000Y-97250000D03*
%TD*%
D25*
%TO.C,D3*%
X150300000Y-108750000D03*
X150300000Y-109400000D03*
X150300000Y-110050000D03*
X152200000Y-110050000D03*
X152200000Y-109400000D03*
X152200000Y-108750000D03*
%TD*%
D28*
%TO.C,D4*%
X122200000Y-110900000D03*
X125000000Y-110900000D03*
%TD*%
D29*
%TO.C,R8*%
X120850000Y-97250000D03*
X122500000Y-97250000D03*
%TD*%
D30*
%TO.C,U6*%
X122000000Y-92200000D03*
D31*
X126520000Y-92352500D03*
D32*
X123400000Y-90750000D03*
X122250000Y-87750000D03*
X124550000Y-87750000D03*
X123400000Y-87750000D03*
X124550000Y-90750000D03*
X122250000Y-90750000D03*
D19*
X122825000Y-95250000D03*
X124375000Y-95250000D03*
D30*
X124700000Y-92200000D03*
X124700000Y-94100000D03*
D33*
X125950000Y-94000000D03*
D30*
X124700000Y-93150000D03*
D33*
X127850000Y-94000000D03*
D31*
X126520000Y-89387500D03*
D33*
X127850000Y-87750000D03*
D30*
X122000000Y-93150000D03*
D33*
X125950000Y-87750000D03*
D30*
X122000000Y-94100000D03*
%TD*%
M02*
