%TF.GenerationSoftware,KiCad,Pcbnew,(6.0.1-0)*%
%TF.CreationDate,2022-01-30T15:52:29+00:00*%
%TF.ProjectId,ASR33,41535233-332e-46b6-9963-61645f706362,1*%
%TF.SameCoordinates,Original*%
%TF.FileFunction,Legend,Bot*%
%TF.FilePolarity,Positive*%
%FSLAX46Y46*%
G04 Gerber Fmt 4.6, Leading zero omitted, Abs format (unit mm)*
G04 Created by KiCad (PCBNEW (6.0.1-0)) date 2022-01-30 15:52:29*
%MOMM*%
%LPD*%
G01*
G04 APERTURE LIST*
%ADD10C,0.150000*%
%ADD11C,0.200000*%
%ADD12C,0.080000*%
%ADD13C,0.120000*%
G04 APERTURE END LIST*
D10*
X130750000Y-109750000D02*
G75*
G03*
X130000000Y-110500000I0J-750000D01*
G01*
X130750000Y-109750000D02*
X135100000Y-109750000D01*
X124000000Y-105000000D02*
G75*
G03*
X123250000Y-104250000I-750000J0D01*
G01*
X140000000Y-112500000D02*
X139969670Y-110300000D01*
X139969671Y-110300000D02*
G75*
G03*
X139469670Y-109780330I-513965J5862D01*
G01*
X124000000Y-105000000D02*
X124000000Y-110500000D01*
X130000000Y-112400000D02*
X130000000Y-110500000D01*
X121702380Y-104059523D02*
X121702380Y-103583333D01*
X122178571Y-103535714D01*
X122130952Y-103583333D01*
X122083333Y-103678571D01*
X122083333Y-103916666D01*
X122130952Y-104011904D01*
X122178571Y-104059523D01*
X122273809Y-104107142D01*
X122511904Y-104107142D01*
X122607142Y-104059523D01*
X122654761Y-104011904D01*
X122702380Y-103916666D01*
X122702380Y-103678571D01*
X122654761Y-103583333D01*
X122607142Y-103535714D01*
X121702380Y-104392857D02*
X122702380Y-104726190D01*
X121702380Y-105059523D01*
X126835714Y-89828571D02*
X126683333Y-90361904D01*
X126530952Y-89980952D01*
X126378571Y-90361904D01*
X126226190Y-89828571D01*
X125997619Y-89828571D02*
X125845238Y-90361904D01*
X125692857Y-89980952D01*
X125540476Y-90361904D01*
X125388095Y-89828571D01*
X125159523Y-89828571D02*
X125007142Y-90361904D01*
X124854761Y-89980952D01*
X124702380Y-90361904D01*
X124550000Y-89828571D01*
X124245238Y-90285714D02*
X124207142Y-90323809D01*
X124245238Y-90361904D01*
X124283333Y-90323809D01*
X124245238Y-90285714D01*
X124245238Y-90361904D01*
X123864285Y-90361904D02*
X123864285Y-89828571D01*
X123864285Y-89904761D02*
X123826190Y-89866666D01*
X123750000Y-89828571D01*
X123635714Y-89828571D01*
X123559523Y-89866666D01*
X123521428Y-89942857D01*
X123521428Y-90361904D01*
X123521428Y-89942857D02*
X123483333Y-89866666D01*
X123407142Y-89828571D01*
X123292857Y-89828571D01*
X123216666Y-89866666D01*
X123178571Y-89942857D01*
X123178571Y-90361904D01*
X122492857Y-90323809D02*
X122569047Y-90361904D01*
X122721428Y-90361904D01*
X122797619Y-90323809D01*
X122835714Y-90247619D01*
X122835714Y-89942857D01*
X122797619Y-89866666D01*
X122721428Y-89828571D01*
X122569047Y-89828571D01*
X122492857Y-89866666D01*
X122454761Y-89942857D01*
X122454761Y-90019047D01*
X122835714Y-90095238D01*
X122111904Y-90285714D02*
X122073809Y-90323809D01*
X122111904Y-90361904D01*
X122150000Y-90323809D01*
X122111904Y-90285714D01*
X122111904Y-90361904D01*
X121388095Y-89828571D02*
X121388095Y-90361904D01*
X121730952Y-89828571D02*
X121730952Y-90247619D01*
X121692857Y-90323809D01*
X121616666Y-90361904D01*
X121502380Y-90361904D01*
X121426190Y-90323809D01*
X121388095Y-90285714D01*
X121007142Y-90361904D02*
X121007142Y-89561904D01*
X120930952Y-90057142D02*
X120702380Y-90361904D01*
X120702380Y-89828571D02*
X121007142Y-90133333D01*
D11*
X126038095Y-111285714D02*
X126038095Y-111952380D01*
X126276190Y-110904761D02*
X126514285Y-111619047D01*
X125895238Y-111619047D01*
X125657142Y-110952380D02*
X125323809Y-111952380D01*
X124990476Y-110952380D01*
X124657142Y-111571428D02*
X123895238Y-111571428D01*
X122990476Y-111285714D02*
X122990476Y-111952380D01*
X123228571Y-110904761D02*
X123466666Y-111619047D01*
X122847619Y-111619047D01*
X122276190Y-110952380D02*
X122180952Y-110952380D01*
X122085714Y-111000000D01*
X122038095Y-111047619D01*
X121990476Y-111142857D01*
X121942857Y-111333333D01*
X121942857Y-111571428D01*
X121990476Y-111761904D01*
X122038095Y-111857142D01*
X122085714Y-111904761D01*
X122180952Y-111952380D01*
X122276190Y-111952380D01*
X122371428Y-111904761D01*
X122419047Y-111857142D01*
X122466666Y-111761904D01*
X122514285Y-111571428D01*
X122514285Y-111333333D01*
X122466666Y-111142857D01*
X122419047Y-111047619D01*
X122371428Y-111000000D01*
X122276190Y-110952380D01*
X121657142Y-110952380D02*
X121323809Y-111952380D01*
X120990476Y-110952380D01*
X134357142Y-111047619D02*
X134309523Y-111000000D01*
X134214285Y-110952380D01*
X133976190Y-110952380D01*
X133880952Y-111000000D01*
X133833333Y-111047619D01*
X133785714Y-111142857D01*
X133785714Y-111238095D01*
X133833333Y-111380952D01*
X134404761Y-111952380D01*
X133785714Y-111952380D01*
X133166666Y-110952380D02*
X133071428Y-110952380D01*
X132976190Y-111000000D01*
X132928571Y-111047619D01*
X132880952Y-111142857D01*
X132833333Y-111333333D01*
X132833333Y-111571428D01*
X132880952Y-111761904D01*
X132928571Y-111857142D01*
X132976190Y-111904761D01*
X133071428Y-111952380D01*
X133166666Y-111952380D01*
X133261904Y-111904761D01*
X133309523Y-111857142D01*
X133357142Y-111761904D01*
X133404761Y-111571428D01*
X133404761Y-111333333D01*
X133357142Y-111142857D01*
X133309523Y-111047619D01*
X133261904Y-111000000D01*
X133166666Y-110952380D01*
X132404761Y-111952380D02*
X132404761Y-111285714D01*
X132404761Y-111380952D02*
X132357142Y-111333333D01*
X132261904Y-111285714D01*
X132119047Y-111285714D01*
X132023809Y-111333333D01*
X131976190Y-111428571D01*
X131976190Y-111952380D01*
X131976190Y-111428571D02*
X131928571Y-111333333D01*
X131833333Y-111285714D01*
X131690476Y-111285714D01*
X131595238Y-111333333D01*
X131547619Y-111428571D01*
X131547619Y-111952380D01*
X131119047Y-111666666D02*
X130642857Y-111666666D01*
X131214285Y-111952380D02*
X130880952Y-110952380D01*
X130547619Y-111952380D01*
X144050000Y-103942500D02*
X143335714Y-103942500D01*
X144192857Y-104371071D02*
X143692857Y-102871071D01*
X143192857Y-104371071D01*
X142764285Y-104299642D02*
X142550000Y-104371071D01*
X142192857Y-104371071D01*
X142050000Y-104299642D01*
X141978571Y-104228214D01*
X141907142Y-104085357D01*
X141907142Y-103942500D01*
X141978571Y-103799642D01*
X142050000Y-103728214D01*
X142192857Y-103656785D01*
X142478571Y-103585357D01*
X142621428Y-103513928D01*
X142692857Y-103442500D01*
X142764285Y-103299642D01*
X142764285Y-103156785D01*
X142692857Y-103013928D01*
X142621428Y-102942500D01*
X142478571Y-102871071D01*
X142121428Y-102871071D01*
X141907142Y-102942500D01*
X140407142Y-104371071D02*
X140907142Y-103656785D01*
X141264285Y-104371071D02*
X141264285Y-102871071D01*
X140692857Y-102871071D01*
X140550000Y-102942500D01*
X140478571Y-103013928D01*
X140407142Y-103156785D01*
X140407142Y-103371071D01*
X140478571Y-103513928D01*
X140550000Y-103585357D01*
X140692857Y-103656785D01*
X141264285Y-103656785D01*
X139907142Y-102871071D02*
X138978571Y-102871071D01*
X139478571Y-103442500D01*
X139264285Y-103442500D01*
X139121428Y-103513928D01*
X139050000Y-103585357D01*
X138978571Y-103728214D01*
X138978571Y-104085357D01*
X139050000Y-104228214D01*
X139121428Y-104299642D01*
X139264285Y-104371071D01*
X139692857Y-104371071D01*
X139835714Y-104299642D01*
X139907142Y-104228214D01*
X138478571Y-102871071D02*
X137550000Y-102871071D01*
X138050000Y-103442500D01*
X137835714Y-103442500D01*
X137692857Y-103513928D01*
X137621428Y-103585357D01*
X137550000Y-103728214D01*
X137550000Y-104085357D01*
X137621428Y-104228214D01*
X137692857Y-104299642D01*
X137835714Y-104371071D01*
X138264285Y-104371071D01*
X138407142Y-104299642D01*
X138478571Y-104228214D01*
X145157142Y-106643214D02*
X145228571Y-106714642D01*
X145442857Y-106786071D01*
X145585714Y-106786071D01*
X145800000Y-106714642D01*
X145942857Y-106571785D01*
X146014285Y-106428928D01*
X146085714Y-106143214D01*
X146085714Y-105928928D01*
X146014285Y-105643214D01*
X145942857Y-105500357D01*
X145800000Y-105357500D01*
X145585714Y-105286071D01*
X145442857Y-105286071D01*
X145228571Y-105357500D01*
X145157142Y-105428928D01*
X144300000Y-106786071D02*
X144442857Y-106714642D01*
X144514285Y-106643214D01*
X144585714Y-106500357D01*
X144585714Y-106071785D01*
X144514285Y-105928928D01*
X144442857Y-105857500D01*
X144300000Y-105786071D01*
X144085714Y-105786071D01*
X143942857Y-105857500D01*
X143871428Y-105928928D01*
X143800000Y-106071785D01*
X143800000Y-106500357D01*
X143871428Y-106643214D01*
X143942857Y-106714642D01*
X144085714Y-106786071D01*
X144300000Y-106786071D01*
X143157142Y-105786071D02*
X143157142Y-106786071D01*
X143157142Y-105928928D02*
X143085714Y-105857500D01*
X142942857Y-105786071D01*
X142728571Y-105786071D01*
X142585714Y-105857500D01*
X142514285Y-106000357D01*
X142514285Y-106786071D01*
X142014285Y-105786071D02*
X141442857Y-105786071D01*
X141800000Y-105286071D02*
X141800000Y-106571785D01*
X141728571Y-106714642D01*
X141585714Y-106786071D01*
X141442857Y-106786071D01*
X140942857Y-106786071D02*
X140942857Y-105786071D01*
X140942857Y-106071785D02*
X140871428Y-105928928D01*
X140800000Y-105857500D01*
X140657142Y-105786071D01*
X140514285Y-105786071D01*
X139800000Y-106786071D02*
X139942857Y-106714642D01*
X140014285Y-106643214D01*
X140085714Y-106500357D01*
X140085714Y-106071785D01*
X140014285Y-105928928D01*
X139942857Y-105857500D01*
X139800000Y-105786071D01*
X139585714Y-105786071D01*
X139442857Y-105857500D01*
X139371428Y-105928928D01*
X139300000Y-106071785D01*
X139300000Y-106500357D01*
X139371428Y-106643214D01*
X139442857Y-106714642D01*
X139585714Y-106786071D01*
X139800000Y-106786071D01*
X138442857Y-106786071D02*
X138585714Y-106714642D01*
X138657142Y-106571785D01*
X138657142Y-105286071D01*
X137657142Y-106786071D02*
X137800000Y-106714642D01*
X137871428Y-106571785D01*
X137871428Y-105286071D01*
X136514285Y-106714642D02*
X136657142Y-106786071D01*
X136942857Y-106786071D01*
X137085714Y-106714642D01*
X137157142Y-106571785D01*
X137157142Y-106000357D01*
X137085714Y-105857500D01*
X136942857Y-105786071D01*
X136657142Y-105786071D01*
X136514285Y-105857500D01*
X136442857Y-106000357D01*
X136442857Y-106143214D01*
X137157142Y-106286071D01*
X135800000Y-106786071D02*
X135800000Y-105786071D01*
X135800000Y-106071785D02*
X135728571Y-105928928D01*
X135657142Y-105857500D01*
X135514285Y-105786071D01*
X135371428Y-105786071D01*
X161476190Y-110952380D02*
X160857142Y-110952380D01*
X161190476Y-111333333D01*
X161047619Y-111333333D01*
X160952380Y-111380952D01*
X160904761Y-111428571D01*
X160857142Y-111523809D01*
X160857142Y-111761904D01*
X160904761Y-111857142D01*
X160952380Y-111904761D01*
X161047619Y-111952380D01*
X161333333Y-111952380D01*
X161428571Y-111904761D01*
X161476190Y-111857142D01*
X160428571Y-111857142D02*
X160380952Y-111904761D01*
X160428571Y-111952380D01*
X160476190Y-111904761D01*
X160428571Y-111857142D01*
X160428571Y-111952380D01*
X160047619Y-110952380D02*
X159428571Y-110952380D01*
X159761904Y-111333333D01*
X159619047Y-111333333D01*
X159523809Y-111380952D01*
X159476190Y-111428571D01*
X159428571Y-111523809D01*
X159428571Y-111761904D01*
X159476190Y-111857142D01*
X159523809Y-111904761D01*
X159619047Y-111952380D01*
X159904761Y-111952380D01*
X160000000Y-111904761D01*
X160047619Y-111857142D01*
X159142857Y-110952380D02*
X158809523Y-111952380D01*
X158476190Y-110952380D01*
X144357142Y-111047619D02*
X144309523Y-111000000D01*
X144214285Y-110952380D01*
X143976190Y-110952380D01*
X143880952Y-111000000D01*
X143833333Y-111047619D01*
X143785714Y-111142857D01*
X143785714Y-111238095D01*
X143833333Y-111380952D01*
X144404761Y-111952380D01*
X143785714Y-111952380D01*
X143166666Y-110952380D02*
X143071428Y-110952380D01*
X142976190Y-111000000D01*
X142928571Y-111047619D01*
X142880952Y-111142857D01*
X142833333Y-111333333D01*
X142833333Y-111571428D01*
X142880952Y-111761904D01*
X142928571Y-111857142D01*
X142976190Y-111904761D01*
X143071428Y-111952380D01*
X143166666Y-111952380D01*
X143261904Y-111904761D01*
X143309523Y-111857142D01*
X143357142Y-111761904D01*
X143404761Y-111571428D01*
X143404761Y-111333333D01*
X143357142Y-111142857D01*
X143309523Y-111047619D01*
X143261904Y-111000000D01*
X143166666Y-110952380D01*
X142404761Y-111952380D02*
X142404761Y-111285714D01*
X142404761Y-111380952D02*
X142357142Y-111333333D01*
X142261904Y-111285714D01*
X142119047Y-111285714D01*
X142023809Y-111333333D01*
X141976190Y-111428571D01*
X141976190Y-111952380D01*
X141976190Y-111428571D02*
X141928571Y-111333333D01*
X141833333Y-111285714D01*
X141690476Y-111285714D01*
X141595238Y-111333333D01*
X141547619Y-111428571D01*
X141547619Y-111952380D01*
X141119047Y-111666666D02*
X140642857Y-111666666D01*
X141214285Y-111952380D02*
X140880952Y-110952380D01*
X140547619Y-111952380D01*
D12*
X123583333Y-105416666D02*
X123583333Y-105654761D01*
X123726190Y-105369047D02*
X123226190Y-105535714D01*
X123726190Y-105702380D01*
X123726190Y-105940476D02*
X123702380Y-105892857D01*
X123654761Y-105869047D01*
X123226190Y-105869047D01*
X123392857Y-106059523D02*
X123392857Y-106250000D01*
X123226190Y-106130952D02*
X123654761Y-106130952D01*
X123702380Y-106154761D01*
X123726190Y-106202380D01*
X123726190Y-106250000D01*
X123702380Y-106607142D02*
X123726190Y-106559523D01*
X123726190Y-106464285D01*
X123702380Y-106416666D01*
X123654761Y-106392857D01*
X123464285Y-106392857D01*
X123416666Y-106416666D01*
X123392857Y-106464285D01*
X123392857Y-106559523D01*
X123416666Y-106607142D01*
X123464285Y-106630952D01*
X123511904Y-106630952D01*
X123559523Y-106392857D01*
X123726190Y-106845238D02*
X123392857Y-106845238D01*
X123488095Y-106845238D02*
X123440476Y-106869047D01*
X123416666Y-106892857D01*
X123392857Y-106940476D01*
X123392857Y-106988095D01*
X123392857Y-107154761D02*
X123726190Y-107154761D01*
X123440476Y-107154761D02*
X123416666Y-107178571D01*
X123392857Y-107226190D01*
X123392857Y-107297619D01*
X123416666Y-107345238D01*
X123464285Y-107369047D01*
X123726190Y-107369047D01*
X123726190Y-107821428D02*
X123464285Y-107821428D01*
X123416666Y-107797619D01*
X123392857Y-107750000D01*
X123392857Y-107654761D01*
X123416666Y-107607142D01*
X123702380Y-107821428D02*
X123726190Y-107773809D01*
X123726190Y-107654761D01*
X123702380Y-107607142D01*
X123654761Y-107583333D01*
X123607142Y-107583333D01*
X123559523Y-107607142D01*
X123535714Y-107654761D01*
X123535714Y-107773809D01*
X123511904Y-107821428D01*
X123392857Y-107988095D02*
X123392857Y-108178571D01*
X123226190Y-108059523D02*
X123654761Y-108059523D01*
X123702380Y-108083333D01*
X123726190Y-108130952D01*
X123726190Y-108178571D01*
X123726190Y-108345238D02*
X123392857Y-108345238D01*
X123226190Y-108345238D02*
X123250000Y-108321428D01*
X123273809Y-108345238D01*
X123250000Y-108369047D01*
X123226190Y-108345238D01*
X123273809Y-108345238D01*
X123392857Y-108535714D02*
X123726190Y-108654761D01*
X123392857Y-108773809D01*
X123702380Y-109154761D02*
X123726190Y-109107142D01*
X123726190Y-109011904D01*
X123702380Y-108964285D01*
X123654761Y-108940476D01*
X123464285Y-108940476D01*
X123416666Y-108964285D01*
X123392857Y-109011904D01*
X123392857Y-109107142D01*
X123416666Y-109154761D01*
X123464285Y-109178571D01*
X123511904Y-109178571D01*
X123559523Y-108940476D01*
X123702380Y-109369047D02*
X123726190Y-109416666D01*
X123726190Y-109511904D01*
X123702380Y-109559523D01*
X123654761Y-109583333D01*
X123630952Y-109583333D01*
X123583333Y-109559523D01*
X123559523Y-109511904D01*
X123559523Y-109440476D01*
X123535714Y-109392857D01*
X123488095Y-109369047D01*
X123464285Y-109369047D01*
X123416666Y-109392857D01*
X123392857Y-109440476D01*
X123392857Y-109511904D01*
X123416666Y-109559523D01*
D11*
X152726190Y-110952380D02*
X152107142Y-110952380D01*
X152440476Y-111333333D01*
X152297619Y-111333333D01*
X152202380Y-111380952D01*
X152154761Y-111428571D01*
X152107142Y-111523809D01*
X152107142Y-111761904D01*
X152154761Y-111857142D01*
X152202380Y-111904761D01*
X152297619Y-111952380D01*
X152583333Y-111952380D01*
X152678571Y-111904761D01*
X152726190Y-111857142D01*
X151678571Y-111857142D02*
X151630952Y-111904761D01*
X151678571Y-111952380D01*
X151726190Y-111904761D01*
X151678571Y-111857142D01*
X151678571Y-111952380D01*
X151297619Y-110952380D02*
X150678571Y-110952380D01*
X151011904Y-111333333D01*
X150869047Y-111333333D01*
X150773809Y-111380952D01*
X150726190Y-111428571D01*
X150678571Y-111523809D01*
X150678571Y-111761904D01*
X150726190Y-111857142D01*
X150773809Y-111904761D01*
X150869047Y-111952380D01*
X151154761Y-111952380D01*
X151250000Y-111904761D01*
X151297619Y-111857142D01*
X150392857Y-110952380D02*
X150059523Y-111952380D01*
X149726190Y-110952380D01*
D13*
%TO.C,JP3*%
X136572936Y-108900000D02*
X138027064Y-108900000D01*
X136572936Y-110720000D02*
X138027064Y-110720000D01*
%TD*%
M02*
