%TF.GenerationSoftware,KiCad,Pcbnew,(6.0.1-0)*%
%TF.CreationDate,2022-01-28T16:09:34+00:00*%
%TF.ProjectId,ASR33,41535233-332e-46b6-9963-61645f706362,1*%
%TF.SameCoordinates,Original*%
%TF.FileFunction,Legend,Top*%
%TF.FilePolarity,Positive*%
%FSLAX46Y46*%
G04 Gerber Fmt 4.6, Leading zero omitted, Abs format (unit mm)*
G04 Created by KiCad (PCBNEW (6.0.1-0)) date 2022-01-28 16:09:34*
%MOMM*%
%LPD*%
G01*
G04 APERTURE LIST*
%ADD10C,0.150000*%
%ADD11C,0.120000*%
G04 APERTURE END LIST*
D10*
X136038095Y-129066666D02*
X136514285Y-129066666D01*
X135942857Y-129352380D02*
X136276190Y-128352380D01*
X136609523Y-129352380D01*
X136895238Y-129304761D02*
X137038095Y-129352380D01*
X137276190Y-129352380D01*
X137371428Y-129304761D01*
X137419047Y-129257142D01*
X137466666Y-129161904D01*
X137466666Y-129066666D01*
X137419047Y-128971428D01*
X137371428Y-128923809D01*
X137276190Y-128876190D01*
X137085714Y-128828571D01*
X136990476Y-128780952D01*
X136942857Y-128733333D01*
X136895238Y-128638095D01*
X136895238Y-128542857D01*
X136942857Y-128447619D01*
X136990476Y-128400000D01*
X137085714Y-128352380D01*
X137323809Y-128352380D01*
X137466666Y-128400000D01*
X138466666Y-129352380D02*
X138133333Y-128876190D01*
X137895238Y-129352380D02*
X137895238Y-128352380D01*
X138276190Y-128352380D01*
X138371428Y-128400000D01*
X138419047Y-128447619D01*
X138466666Y-128542857D01*
X138466666Y-128685714D01*
X138419047Y-128780952D01*
X138371428Y-128828571D01*
X138276190Y-128876190D01*
X137895238Y-128876190D01*
X138800000Y-128352380D02*
X139419047Y-128352380D01*
X139085714Y-128733333D01*
X139228571Y-128733333D01*
X139323809Y-128780952D01*
X139371428Y-128828571D01*
X139419047Y-128923809D01*
X139419047Y-129161904D01*
X139371428Y-129257142D01*
X139323809Y-129304761D01*
X139228571Y-129352380D01*
X138942857Y-129352380D01*
X138847619Y-129304761D01*
X138800000Y-129257142D01*
X139752380Y-128352380D02*
X140371428Y-128352380D01*
X140038095Y-128733333D01*
X140180952Y-128733333D01*
X140276190Y-128780952D01*
X140323809Y-128828571D01*
X140371428Y-128923809D01*
X140371428Y-129161904D01*
X140323809Y-129257142D01*
X140276190Y-129304761D01*
X140180952Y-129352380D01*
X139895238Y-129352380D01*
X139800000Y-129304761D01*
X139752380Y-129257142D01*
X142133333Y-129257142D02*
X142085714Y-129304761D01*
X141942857Y-129352380D01*
X141847619Y-129352380D01*
X141704761Y-129304761D01*
X141609523Y-129209523D01*
X141561904Y-129114285D01*
X141514285Y-128923809D01*
X141514285Y-128780952D01*
X141561904Y-128590476D01*
X141609523Y-128495238D01*
X141704761Y-128400000D01*
X141847619Y-128352380D01*
X141942857Y-128352380D01*
X142085714Y-128400000D01*
X142133333Y-128447619D01*
X142704761Y-129352380D02*
X142609523Y-129304761D01*
X142561904Y-129257142D01*
X142514285Y-129161904D01*
X142514285Y-128876190D01*
X142561904Y-128780952D01*
X142609523Y-128733333D01*
X142704761Y-128685714D01*
X142847619Y-128685714D01*
X142942857Y-128733333D01*
X142990476Y-128780952D01*
X143038095Y-128876190D01*
X143038095Y-129161904D01*
X142990476Y-129257142D01*
X142942857Y-129304761D01*
X142847619Y-129352380D01*
X142704761Y-129352380D01*
X143466666Y-128685714D02*
X143466666Y-129352380D01*
X143466666Y-128780952D02*
X143514285Y-128733333D01*
X143609523Y-128685714D01*
X143752380Y-128685714D01*
X143847619Y-128733333D01*
X143895238Y-128828571D01*
X143895238Y-129352380D01*
X144228571Y-128685714D02*
X144609523Y-128685714D01*
X144371428Y-128352380D02*
X144371428Y-129209523D01*
X144419047Y-129304761D01*
X144514285Y-129352380D01*
X144609523Y-129352380D01*
X144942857Y-129352380D02*
X144942857Y-128685714D01*
X144942857Y-128876190D02*
X144990476Y-128780952D01*
X145038095Y-128733333D01*
X145133333Y-128685714D01*
X145228571Y-128685714D01*
X145704761Y-129352380D02*
X145609523Y-129304761D01*
X145561904Y-129257142D01*
X145514285Y-129161904D01*
X145514285Y-128876190D01*
X145561904Y-128780952D01*
X145609523Y-128733333D01*
X145704761Y-128685714D01*
X145847619Y-128685714D01*
X145942857Y-128733333D01*
X145990476Y-128780952D01*
X146038095Y-128876190D01*
X146038095Y-129161904D01*
X145990476Y-129257142D01*
X145942857Y-129304761D01*
X145847619Y-129352380D01*
X145704761Y-129352380D01*
X146609523Y-129352380D02*
X146514285Y-129304761D01*
X146466666Y-129209523D01*
X146466666Y-128352380D01*
X147133333Y-129352380D02*
X147038095Y-129304761D01*
X146990476Y-129209523D01*
X146990476Y-128352380D01*
X147895238Y-129304761D02*
X147800000Y-129352380D01*
X147609523Y-129352380D01*
X147514285Y-129304761D01*
X147466666Y-129209523D01*
X147466666Y-128828571D01*
X147514285Y-128733333D01*
X147609523Y-128685714D01*
X147800000Y-128685714D01*
X147895238Y-128733333D01*
X147942857Y-128828571D01*
X147942857Y-128923809D01*
X147466666Y-129019047D01*
X148371428Y-129352380D02*
X148371428Y-128685714D01*
X148371428Y-128876190D02*
X148419047Y-128780952D01*
X148466666Y-128733333D01*
X148561904Y-128685714D01*
X148657142Y-128685714D01*
X126142857Y-110785714D02*
X126333333Y-111452380D01*
X126523809Y-110976190D01*
X126714285Y-111452380D01*
X126904761Y-110785714D01*
X127190476Y-110785714D02*
X127380952Y-111452380D01*
X127571428Y-110976190D01*
X127761904Y-111452380D01*
X127952380Y-110785714D01*
X128238095Y-110785714D02*
X128428571Y-111452380D01*
X128619047Y-110976190D01*
X128809523Y-111452380D01*
X129000000Y-110785714D01*
X129380952Y-111357142D02*
X129428571Y-111404761D01*
X129380952Y-111452380D01*
X129333333Y-111404761D01*
X129380952Y-111357142D01*
X129380952Y-111452380D01*
X129857142Y-111452380D02*
X129857142Y-110785714D01*
X129857142Y-110880952D02*
X129904761Y-110833333D01*
X130000000Y-110785714D01*
X130142857Y-110785714D01*
X130238095Y-110833333D01*
X130285714Y-110928571D01*
X130285714Y-111452380D01*
X130285714Y-110928571D02*
X130333333Y-110833333D01*
X130428571Y-110785714D01*
X130571428Y-110785714D01*
X130666666Y-110833333D01*
X130714285Y-110928571D01*
X130714285Y-111452380D01*
X131571428Y-111404761D02*
X131476190Y-111452380D01*
X131285714Y-111452380D01*
X131190476Y-111404761D01*
X131142857Y-111309523D01*
X131142857Y-110928571D01*
X131190476Y-110833333D01*
X131285714Y-110785714D01*
X131476190Y-110785714D01*
X131571428Y-110833333D01*
X131619047Y-110928571D01*
X131619047Y-111023809D01*
X131142857Y-111119047D01*
X132047619Y-111357142D02*
X132095238Y-111404761D01*
X132047619Y-111452380D01*
X132000000Y-111404761D01*
X132047619Y-111357142D01*
X132047619Y-111452380D01*
X132952380Y-110785714D02*
X132952380Y-111452380D01*
X132523809Y-110785714D02*
X132523809Y-111309523D01*
X132571428Y-111404761D01*
X132666666Y-111452380D01*
X132809523Y-111452380D01*
X132904761Y-111404761D01*
X132952380Y-111357142D01*
X133428571Y-111452380D02*
X133428571Y-110452380D01*
X133523809Y-111071428D02*
X133809523Y-111452380D01*
X133809523Y-110785714D02*
X133428571Y-111166666D01*
D11*
%TO.C,R10*%
X130625000Y-136250000D02*
X131225000Y-136250000D01*
X130625000Y-137250000D02*
X131225000Y-137250000D01*
%TO.C,C5*%
X129590000Y-140711252D02*
X129590000Y-139288748D01*
X131410000Y-140711252D02*
X131410000Y-139288748D01*
%TO.C,U2*%
X129310000Y-128410000D02*
X129310000Y-127685000D01*
X129310000Y-124190000D02*
X129310000Y-124915000D01*
X125815000Y-128410000D02*
X125090000Y-128410000D01*
X125090000Y-128410000D02*
X125090000Y-127685000D01*
X128585000Y-128410000D02*
X129310000Y-128410000D01*
X128585000Y-124190000D02*
X129310000Y-124190000D01*
X125682843Y-124500000D02*
G75*
G03*
X125682843Y-124500000I-282843J0D01*
G01*
%TO.C,U1*%
X135535000Y-126620000D02*
X134755000Y-126620000D01*
X135535000Y-108380000D02*
X134755000Y-108380000D01*
X134755000Y-126620000D02*
X134755000Y-125620000D01*
X134755000Y-108380000D02*
X134755000Y-109380000D01*
%TO.C,R3*%
X124300000Y-111300000D02*
X124300000Y-110700000D01*
X123300000Y-111300000D02*
X123300000Y-110700000D01*
%TO.C,C1*%
X123600000Y-124700000D02*
X123600000Y-125300000D01*
X122600000Y-124700000D02*
X122600000Y-125300000D01*
%TO.C,R5*%
X126175000Y-135200000D02*
X125575000Y-135200000D01*
X126175000Y-134200000D02*
X125575000Y-134200000D01*
%TO.C,R4*%
X121425000Y-134200000D02*
X120825000Y-134200000D01*
X121425000Y-135200000D02*
X120825000Y-135200000D01*
%TO.C,R6*%
X124700000Y-130900000D02*
X125300000Y-130900000D01*
X124700000Y-131900000D02*
X125300000Y-131900000D01*
%TO.C,R7*%
X122000000Y-131900000D02*
X122600000Y-131900000D01*
X122000000Y-130900000D02*
X122600000Y-130900000D01*
%TO.C,R1*%
X123100000Y-111300000D02*
X123100000Y-110700000D01*
X122100000Y-111300000D02*
X122100000Y-110700000D01*
%TO.C,R2*%
X125500000Y-111300000D02*
X125500000Y-110700000D01*
X124500000Y-111300000D02*
X124500000Y-110700000D01*
%TO.C,C4*%
X119400000Y-133000000D02*
X120000000Y-133000000D01*
X119400000Y-134000000D02*
X120000000Y-134000000D01*
%TO.C,C2*%
X124700000Y-132100000D02*
X125300000Y-132100000D01*
X124700000Y-133100000D02*
X125300000Y-133100000D01*
%TO.C,C3*%
X122600000Y-132100000D02*
X122000000Y-132100000D01*
X122600000Y-133100000D02*
X122000000Y-133100000D01*
%TO.C,D2*%
X149850000Y-130160000D02*
X151250000Y-130160000D01*
X151250000Y-127840000D02*
X149350000Y-127840000D01*
%TO.C,Q1*%
X145750000Y-134060000D02*
X146400000Y-134060000D01*
X145750000Y-134060000D02*
X145100000Y-134060000D01*
X145750000Y-130940000D02*
X146400000Y-130940000D01*
X145750000Y-130940000D02*
X144075000Y-130940000D01*
%TO.C,C9*%
X134500000Y-128450000D02*
X134500000Y-129050000D01*
X135500000Y-128450000D02*
X135500000Y-129050000D01*
%TO.C,R9*%
X118500000Y-125400000D02*
X118500000Y-124800000D01*
X119500000Y-125400000D02*
X119500000Y-124800000D01*
%TO.C,J3*%
X132400000Y-135000000D02*
X132400000Y-143000000D01*
X147600000Y-135000000D02*
X147600000Y-143000000D01*
X132400000Y-135000000D02*
X147600000Y-135000000D01*
%TO.C,SW1*%
X133750000Y-119550000D02*
X133750000Y-115050000D01*
X127250000Y-115050000D02*
X127250000Y-119550000D01*
X131250000Y-113800000D02*
X129750000Y-113800000D01*
X129750000Y-120800000D02*
X131250000Y-120800000D01*
%TO.C,D3*%
X149850000Y-133660000D02*
X151250000Y-133660000D01*
X151250000Y-131340000D02*
X149350000Y-131340000D01*
%TO.C,J2*%
X147400000Y-135000000D02*
X147400000Y-143000000D01*
X160100000Y-135000000D02*
X160100000Y-143000000D01*
X147400000Y-135000000D02*
X160100000Y-135000000D01*
%TO.C,U6*%
X141400000Y-134350000D02*
X141400000Y-134500000D01*
X141400000Y-134500000D02*
X136600000Y-134500000D01*
X136600000Y-130650000D02*
X136600000Y-130500000D01*
X141400000Y-130500000D02*
X141400000Y-130650000D01*
X136600000Y-134500000D02*
X136600000Y-134350000D01*
X136600000Y-130650000D02*
X134900000Y-130650000D01*
X136600000Y-130500000D02*
X141400000Y-130500000D01*
%TO.C,R8*%
X119500000Y-121700000D02*
X119500000Y-122300000D01*
X118500000Y-121700000D02*
X118500000Y-122300000D01*
%TD*%
M02*
