%TF.GenerationSoftware,KiCad,Pcbnew,(6.0.1-0)*%
%TF.CreationDate,2022-01-29T08:34:54+00:00*%
%TF.ProjectId,ASR33,41535233-332e-46b6-9963-61645f706362,1*%
%TF.SameCoordinates,Original*%
%TF.FileFunction,Legend,Bot*%
%TF.FilePolarity,Positive*%
%FSLAX46Y46*%
G04 Gerber Fmt 4.6, Leading zero omitted, Abs format (unit mm)*
G04 Created by KiCad (PCBNEW (6.0.1-0)) date 2022-01-29 08:34:54*
%MOMM*%
%LPD*%
G01*
G04 APERTURE LIST*
%ADD10C,0.150000*%
%ADD11C,0.200000*%
%ADD12C,0.080000*%
%ADD13C,0.120000*%
G04 APERTURE END LIST*
D10*
X130750000Y-109750000D02*
G75*
G03*
X130000000Y-110500000I0J-750000D01*
G01*
X139219670Y-109780330D02*
X138900000Y-109750000D01*
X130750000Y-109750000D02*
X136100000Y-109750000D01*
X124000000Y-105000000D02*
G75*
G03*
X123250000Y-104250000I-750000J0D01*
G01*
X140000000Y-112500000D02*
X139969670Y-110530330D01*
X139969670Y-110530330D02*
G75*
G03*
X139219670Y-109780330I-750000J0D01*
G01*
X124000000Y-105000000D02*
X124000000Y-110500000D01*
X130000000Y-112400000D02*
X130000000Y-110500000D01*
X121702380Y-104059523D02*
X121702380Y-103583333D01*
X122178571Y-103535714D01*
X122130952Y-103583333D01*
X122083333Y-103678571D01*
X122083333Y-103916666D01*
X122130952Y-104011904D01*
X122178571Y-104059523D01*
X122273809Y-104107142D01*
X122511904Y-104107142D01*
X122607142Y-104059523D01*
X122654761Y-104011904D01*
X122702380Y-103916666D01*
X122702380Y-103678571D01*
X122654761Y-103583333D01*
X122607142Y-103535714D01*
X121702380Y-104392857D02*
X122702380Y-104726190D01*
X121702380Y-105059523D01*
X134357142Y-111047619D02*
X134309523Y-111000000D01*
X134214285Y-110952380D01*
X133976190Y-110952380D01*
X133880952Y-111000000D01*
X133833333Y-111047619D01*
X133785714Y-111142857D01*
X133785714Y-111238095D01*
X133833333Y-111380952D01*
X134404761Y-111952380D01*
X133785714Y-111952380D01*
X133166666Y-110952380D02*
X133071428Y-110952380D01*
X132976190Y-111000000D01*
X132928571Y-111047619D01*
X132880952Y-111142857D01*
X132833333Y-111333333D01*
X132833333Y-111571428D01*
X132880952Y-111761904D01*
X132928571Y-111857142D01*
X132976190Y-111904761D01*
X133071428Y-111952380D01*
X133166666Y-111952380D01*
X133261904Y-111904761D01*
X133309523Y-111857142D01*
X133357142Y-111761904D01*
X133404761Y-111571428D01*
X133404761Y-111333333D01*
X133357142Y-111142857D01*
X133309523Y-111047619D01*
X133261904Y-111000000D01*
X133166666Y-110952380D01*
X132404761Y-111952380D02*
X132404761Y-111285714D01*
X132404761Y-111380952D02*
X132357142Y-111333333D01*
X132261904Y-111285714D01*
X132119047Y-111285714D01*
X132023809Y-111333333D01*
X131976190Y-111428571D01*
X131976190Y-111952380D01*
X131976190Y-111428571D02*
X131928571Y-111333333D01*
X131833333Y-111285714D01*
X131690476Y-111285714D01*
X131595238Y-111333333D01*
X131547619Y-111428571D01*
X131547619Y-111952380D01*
X131119047Y-111666666D02*
X130642857Y-111666666D01*
X131214285Y-111952380D02*
X130880952Y-110952380D01*
X130547619Y-111952380D01*
D11*
X143150000Y-103442500D02*
X142435714Y-103442500D01*
X143292857Y-103871071D02*
X142792857Y-102371071D01*
X142292857Y-103871071D01*
X141864285Y-103799642D02*
X141650000Y-103871071D01*
X141292857Y-103871071D01*
X141150000Y-103799642D01*
X141078571Y-103728214D01*
X141007142Y-103585357D01*
X141007142Y-103442500D01*
X141078571Y-103299642D01*
X141150000Y-103228214D01*
X141292857Y-103156785D01*
X141578571Y-103085357D01*
X141721428Y-103013928D01*
X141792857Y-102942500D01*
X141864285Y-102799642D01*
X141864285Y-102656785D01*
X141792857Y-102513928D01*
X141721428Y-102442500D01*
X141578571Y-102371071D01*
X141221428Y-102371071D01*
X141007142Y-102442500D01*
X139507142Y-103871071D02*
X140007142Y-103156785D01*
X140364285Y-103871071D02*
X140364285Y-102371071D01*
X139792857Y-102371071D01*
X139650000Y-102442500D01*
X139578571Y-102513928D01*
X139507142Y-102656785D01*
X139507142Y-102871071D01*
X139578571Y-103013928D01*
X139650000Y-103085357D01*
X139792857Y-103156785D01*
X140364285Y-103156785D01*
X139007142Y-102371071D02*
X138078571Y-102371071D01*
X138578571Y-102942500D01*
X138364285Y-102942500D01*
X138221428Y-103013928D01*
X138150000Y-103085357D01*
X138078571Y-103228214D01*
X138078571Y-103585357D01*
X138150000Y-103728214D01*
X138221428Y-103799642D01*
X138364285Y-103871071D01*
X138792857Y-103871071D01*
X138935714Y-103799642D01*
X139007142Y-103728214D01*
X137578571Y-102371071D02*
X136650000Y-102371071D01*
X137150000Y-102942500D01*
X136935714Y-102942500D01*
X136792857Y-103013928D01*
X136721428Y-103085357D01*
X136650000Y-103228214D01*
X136650000Y-103585357D01*
X136721428Y-103728214D01*
X136792857Y-103799642D01*
X136935714Y-103871071D01*
X137364285Y-103871071D01*
X137507142Y-103799642D01*
X137578571Y-103728214D01*
X144257142Y-106143214D02*
X144328571Y-106214642D01*
X144542857Y-106286071D01*
X144685714Y-106286071D01*
X144900000Y-106214642D01*
X145042857Y-106071785D01*
X145114285Y-105928928D01*
X145185714Y-105643214D01*
X145185714Y-105428928D01*
X145114285Y-105143214D01*
X145042857Y-105000357D01*
X144900000Y-104857500D01*
X144685714Y-104786071D01*
X144542857Y-104786071D01*
X144328571Y-104857500D01*
X144257142Y-104928928D01*
X143400000Y-106286071D02*
X143542857Y-106214642D01*
X143614285Y-106143214D01*
X143685714Y-106000357D01*
X143685714Y-105571785D01*
X143614285Y-105428928D01*
X143542857Y-105357500D01*
X143400000Y-105286071D01*
X143185714Y-105286071D01*
X143042857Y-105357500D01*
X142971428Y-105428928D01*
X142900000Y-105571785D01*
X142900000Y-106000357D01*
X142971428Y-106143214D01*
X143042857Y-106214642D01*
X143185714Y-106286071D01*
X143400000Y-106286071D01*
X142257142Y-105286071D02*
X142257142Y-106286071D01*
X142257142Y-105428928D02*
X142185714Y-105357500D01*
X142042857Y-105286071D01*
X141828571Y-105286071D01*
X141685714Y-105357500D01*
X141614285Y-105500357D01*
X141614285Y-106286071D01*
X141114285Y-105286071D02*
X140542857Y-105286071D01*
X140900000Y-104786071D02*
X140900000Y-106071785D01*
X140828571Y-106214642D01*
X140685714Y-106286071D01*
X140542857Y-106286071D01*
X140042857Y-106286071D02*
X140042857Y-105286071D01*
X140042857Y-105571785D02*
X139971428Y-105428928D01*
X139900000Y-105357500D01*
X139757142Y-105286071D01*
X139614285Y-105286071D01*
X138900000Y-106286071D02*
X139042857Y-106214642D01*
X139114285Y-106143214D01*
X139185714Y-106000357D01*
X139185714Y-105571785D01*
X139114285Y-105428928D01*
X139042857Y-105357500D01*
X138900000Y-105286071D01*
X138685714Y-105286071D01*
X138542857Y-105357500D01*
X138471428Y-105428928D01*
X138400000Y-105571785D01*
X138400000Y-106000357D01*
X138471428Y-106143214D01*
X138542857Y-106214642D01*
X138685714Y-106286071D01*
X138900000Y-106286071D01*
X137542857Y-106286071D02*
X137685714Y-106214642D01*
X137757142Y-106071785D01*
X137757142Y-104786071D01*
X136757142Y-106286071D02*
X136900000Y-106214642D01*
X136971428Y-106071785D01*
X136971428Y-104786071D01*
X135614285Y-106214642D02*
X135757142Y-106286071D01*
X136042857Y-106286071D01*
X136185714Y-106214642D01*
X136257142Y-106071785D01*
X136257142Y-105500357D01*
X136185714Y-105357500D01*
X136042857Y-105286071D01*
X135757142Y-105286071D01*
X135614285Y-105357500D01*
X135542857Y-105500357D01*
X135542857Y-105643214D01*
X136257142Y-105786071D01*
X134900000Y-106286071D02*
X134900000Y-105286071D01*
X134900000Y-105571785D02*
X134828571Y-105428928D01*
X134757142Y-105357500D01*
X134614285Y-105286071D01*
X134471428Y-105286071D01*
D10*
X161476190Y-110952380D02*
X160857142Y-110952380D01*
X161190476Y-111333333D01*
X161047619Y-111333333D01*
X160952380Y-111380952D01*
X160904761Y-111428571D01*
X160857142Y-111523809D01*
X160857142Y-111761904D01*
X160904761Y-111857142D01*
X160952380Y-111904761D01*
X161047619Y-111952380D01*
X161333333Y-111952380D01*
X161428571Y-111904761D01*
X161476190Y-111857142D01*
X160428571Y-111857142D02*
X160380952Y-111904761D01*
X160428571Y-111952380D01*
X160476190Y-111904761D01*
X160428571Y-111857142D01*
X160428571Y-111952380D01*
X160047619Y-110952380D02*
X159428571Y-110952380D01*
X159761904Y-111333333D01*
X159619047Y-111333333D01*
X159523809Y-111380952D01*
X159476190Y-111428571D01*
X159428571Y-111523809D01*
X159428571Y-111761904D01*
X159476190Y-111857142D01*
X159523809Y-111904761D01*
X159619047Y-111952380D01*
X159904761Y-111952380D01*
X160000000Y-111904761D01*
X160047619Y-111857142D01*
X159142857Y-110952380D02*
X158809523Y-111952380D01*
X158476190Y-110952380D01*
X124619047Y-111952380D02*
X125190476Y-111952380D01*
X124904761Y-111952380D02*
X124904761Y-110952380D01*
X125000000Y-111095238D01*
X125095238Y-111190476D01*
X125190476Y-111238095D01*
X124238095Y-111047619D02*
X124190476Y-111000000D01*
X124095238Y-110952380D01*
X123857142Y-110952380D01*
X123761904Y-111000000D01*
X123714285Y-111047619D01*
X123666666Y-111142857D01*
X123666666Y-111238095D01*
X123714285Y-111380952D01*
X124285714Y-111952380D01*
X123666666Y-111952380D01*
X123380952Y-110952380D02*
X123047619Y-111952380D01*
X122714285Y-110952380D01*
X144357142Y-111047619D02*
X144309523Y-111000000D01*
X144214285Y-110952380D01*
X143976190Y-110952380D01*
X143880952Y-111000000D01*
X143833333Y-111047619D01*
X143785714Y-111142857D01*
X143785714Y-111238095D01*
X143833333Y-111380952D01*
X144404761Y-111952380D01*
X143785714Y-111952380D01*
X143166666Y-110952380D02*
X143071428Y-110952380D01*
X142976190Y-111000000D01*
X142928571Y-111047619D01*
X142880952Y-111142857D01*
X142833333Y-111333333D01*
X142833333Y-111571428D01*
X142880952Y-111761904D01*
X142928571Y-111857142D01*
X142976190Y-111904761D01*
X143071428Y-111952380D01*
X143166666Y-111952380D01*
X143261904Y-111904761D01*
X143309523Y-111857142D01*
X143357142Y-111761904D01*
X143404761Y-111571428D01*
X143404761Y-111333333D01*
X143357142Y-111142857D01*
X143309523Y-111047619D01*
X143261904Y-111000000D01*
X143166666Y-110952380D01*
X142404761Y-111952380D02*
X142404761Y-111285714D01*
X142404761Y-111380952D02*
X142357142Y-111333333D01*
X142261904Y-111285714D01*
X142119047Y-111285714D01*
X142023809Y-111333333D01*
X141976190Y-111428571D01*
X141976190Y-111952380D01*
X141976190Y-111428571D02*
X141928571Y-111333333D01*
X141833333Y-111285714D01*
X141690476Y-111285714D01*
X141595238Y-111333333D01*
X141547619Y-111428571D01*
X141547619Y-111952380D01*
X141119047Y-111666666D02*
X140642857Y-111666666D01*
X141214285Y-111952380D02*
X140880952Y-110952380D01*
X140547619Y-111952380D01*
D12*
X123583333Y-105416666D02*
X123583333Y-105654761D01*
X123726190Y-105369047D02*
X123226190Y-105535714D01*
X123726190Y-105702380D01*
X123726190Y-105940476D02*
X123702380Y-105892857D01*
X123654761Y-105869047D01*
X123226190Y-105869047D01*
X123392857Y-106059523D02*
X123392857Y-106250000D01*
X123226190Y-106130952D02*
X123654761Y-106130952D01*
X123702380Y-106154761D01*
X123726190Y-106202380D01*
X123726190Y-106250000D01*
X123702380Y-106607142D02*
X123726190Y-106559523D01*
X123726190Y-106464285D01*
X123702380Y-106416666D01*
X123654761Y-106392857D01*
X123464285Y-106392857D01*
X123416666Y-106416666D01*
X123392857Y-106464285D01*
X123392857Y-106559523D01*
X123416666Y-106607142D01*
X123464285Y-106630952D01*
X123511904Y-106630952D01*
X123559523Y-106392857D01*
X123726190Y-106845238D02*
X123392857Y-106845238D01*
X123488095Y-106845238D02*
X123440476Y-106869047D01*
X123416666Y-106892857D01*
X123392857Y-106940476D01*
X123392857Y-106988095D01*
X123392857Y-107154761D02*
X123726190Y-107154761D01*
X123440476Y-107154761D02*
X123416666Y-107178571D01*
X123392857Y-107226190D01*
X123392857Y-107297619D01*
X123416666Y-107345238D01*
X123464285Y-107369047D01*
X123726190Y-107369047D01*
X123726190Y-107821428D02*
X123464285Y-107821428D01*
X123416666Y-107797619D01*
X123392857Y-107750000D01*
X123392857Y-107654761D01*
X123416666Y-107607142D01*
X123702380Y-107821428D02*
X123726190Y-107773809D01*
X123726190Y-107654761D01*
X123702380Y-107607142D01*
X123654761Y-107583333D01*
X123607142Y-107583333D01*
X123559523Y-107607142D01*
X123535714Y-107654761D01*
X123535714Y-107773809D01*
X123511904Y-107821428D01*
X123392857Y-107988095D02*
X123392857Y-108178571D01*
X123226190Y-108059523D02*
X123654761Y-108059523D01*
X123702380Y-108083333D01*
X123726190Y-108130952D01*
X123726190Y-108178571D01*
X123726190Y-108345238D02*
X123392857Y-108345238D01*
X123226190Y-108345238D02*
X123250000Y-108321428D01*
X123273809Y-108345238D01*
X123250000Y-108369047D01*
X123226190Y-108345238D01*
X123273809Y-108345238D01*
X123392857Y-108535714D02*
X123726190Y-108654761D01*
X123392857Y-108773809D01*
X123702380Y-109154761D02*
X123726190Y-109107142D01*
X123726190Y-109011904D01*
X123702380Y-108964285D01*
X123654761Y-108940476D01*
X123464285Y-108940476D01*
X123416666Y-108964285D01*
X123392857Y-109011904D01*
X123392857Y-109107142D01*
X123416666Y-109154761D01*
X123464285Y-109178571D01*
X123511904Y-109178571D01*
X123559523Y-108940476D01*
X123702380Y-109369047D02*
X123726190Y-109416666D01*
X123726190Y-109511904D01*
X123702380Y-109559523D01*
X123654761Y-109583333D01*
X123630952Y-109583333D01*
X123583333Y-109559523D01*
X123559523Y-109511904D01*
X123559523Y-109440476D01*
X123535714Y-109392857D01*
X123488095Y-109369047D01*
X123464285Y-109369047D01*
X123416666Y-109392857D01*
X123392857Y-109440476D01*
X123392857Y-109511904D01*
X123416666Y-109559523D01*
D10*
X152726190Y-110952380D02*
X152107142Y-110952380D01*
X152440476Y-111333333D01*
X152297619Y-111333333D01*
X152202380Y-111380952D01*
X152154761Y-111428571D01*
X152107142Y-111523809D01*
X152107142Y-111761904D01*
X152154761Y-111857142D01*
X152202380Y-111904761D01*
X152297619Y-111952380D01*
X152583333Y-111952380D01*
X152678571Y-111904761D01*
X152726190Y-111857142D01*
X151678571Y-111857142D02*
X151630952Y-111904761D01*
X151678571Y-111952380D01*
X151726190Y-111904761D01*
X151678571Y-111857142D01*
X151678571Y-111952380D01*
X151297619Y-110952380D02*
X150678571Y-110952380D01*
X151011904Y-111333333D01*
X150869047Y-111333333D01*
X150773809Y-111380952D01*
X150726190Y-111428571D01*
X150678571Y-111523809D01*
X150678571Y-111761904D01*
X150726190Y-111857142D01*
X150773809Y-111904761D01*
X150869047Y-111952380D01*
X151154761Y-111952380D01*
X151250000Y-111904761D01*
X151297619Y-111857142D01*
X150392857Y-110952380D02*
X150059523Y-111952380D01*
X149726190Y-110952380D01*
D13*
%TO.C,JP1*%
X136100000Y-109450000D02*
X136100000Y-110050000D01*
X136800000Y-110750000D02*
X138200000Y-110750000D01*
X138200000Y-108750000D02*
X136800000Y-108750000D01*
X138900000Y-110050000D02*
X138900000Y-109450000D01*
X138900000Y-109450000D02*
G75*
G03*
X138200000Y-108750000I-699999J1D01*
G01*
X138200000Y-110750000D02*
G75*
G03*
X138900000Y-110050000I1J699999D01*
G01*
X136800000Y-108750000D02*
G75*
G03*
X136100000Y-109450000I-1J-699999D01*
G01*
X136100000Y-110050000D02*
G75*
G03*
X136800000Y-110750000I699999J-1D01*
G01*
%TD*%
M02*
