%TF.GenerationSoftware,KiCad,Pcbnew,(6.0.1-0)*%
%TF.CreationDate,2022-01-28T13:52:13+00:00*%
%TF.ProjectId,ASR33,41535233-332e-46b6-9963-61645f706362,1*%
%TF.SameCoordinates,Original*%
%TF.FileFunction,Soldermask,Bot*%
%TF.FilePolarity,Negative*%
%FSLAX46Y46*%
G04 Gerber Fmt 4.6, Leading zero omitted, Abs format (unit mm)*
G04 Created by KiCad (PCBNEW (6.0.1-0)) date 2022-01-28 13:52:13*
%MOMM*%
%LPD*%
G01*
G04 APERTURE LIST*
G04 Aperture macros list*
%AMRoundRect*
0 Rectangle with rounded corners*
0 $1 Rounding radius*
0 $2 $3 $4 $5 $6 $7 $8 $9 X,Y pos of 4 corners*
0 Add a 4 corners polygon primitive as box body*
4,1,4,$2,$3,$4,$5,$6,$7,$8,$9,$2,$3,0*
0 Add four circle primitives for the rounded corners*
1,1,$1+$1,$2,$3*
1,1,$1+$1,$4,$5*
1,1,$1+$1,$6,$7*
1,1,$1+$1,$8,$9*
0 Add four rect primitives between the rounded corners*
20,1,$1+$1,$2,$3,$4,$5,0*
20,1,$1+$1,$4,$5,$6,$7,0*
20,1,$1+$1,$6,$7,$8,$9,0*
20,1,$1+$1,$8,$9,$2,$3,0*%
G04 Aperture macros list end*
%ADD10C,0.200000*%
%ADD11C,0.450000*%
%ADD12C,1.500000*%
%ADD13C,1.250000*%
%ADD14C,0.350000*%
%ADD15RoundRect,0.250000X-0.600000X-0.675000X0.600000X-0.675000X0.600000X0.675000X-0.600000X0.675000X0*%
%ADD16O,1.700000X1.850000*%
%ADD17C,2.000000*%
G04 APERTURE END LIST*
D10*
X150476190Y-140380952D02*
X149523809Y-140380952D01*
X150285714Y-140666666D02*
X149714285Y-140666666D01*
X150000000Y-139952380D02*
X150000000Y-140380952D01*
X149904761Y-140952380D02*
X150095238Y-140952380D01*
X135452380Y-139714285D02*
X134976190Y-139380952D01*
X135452380Y-139142857D02*
X134452380Y-139142857D01*
X134452380Y-139523809D01*
X134500000Y-139619047D01*
X134547619Y-139666666D01*
X134642857Y-139714285D01*
X134785714Y-139714285D01*
X134880952Y-139666666D01*
X134928571Y-139619047D01*
X134976190Y-139523809D01*
X134976190Y-139142857D01*
X134452380Y-140047619D02*
X135452380Y-140714285D01*
X134452380Y-140714285D02*
X135452380Y-140047619D01*
X134880952Y-141000000D02*
X134880952Y-141952380D01*
X135166666Y-141190476D02*
X135166666Y-141761904D01*
X134452380Y-141476190D02*
X134880952Y-141476190D01*
X135452380Y-141571428D02*
X135452380Y-141380952D01*
X141952380Y-139119047D02*
X141952380Y-139690476D01*
X142952380Y-139404761D02*
X141952380Y-139404761D01*
X141952380Y-139928571D02*
X142952380Y-140595238D01*
X141952380Y-140595238D02*
X142952380Y-139928571D01*
X142285714Y-141738095D02*
X142571428Y-140976190D01*
X142857142Y-141738095D01*
X157952380Y-139166666D02*
X156952380Y-139166666D01*
X156952380Y-139547619D01*
X157000000Y-139642857D01*
X157047619Y-139690476D01*
X157142857Y-139738095D01*
X157285714Y-139738095D01*
X157380952Y-139690476D01*
X157428571Y-139642857D01*
X157476190Y-139547619D01*
X157476190Y-139166666D01*
X156952380Y-140071428D02*
X157952380Y-140309523D01*
X157238095Y-140500000D01*
X157952380Y-140690476D01*
X156952380Y-140928571D01*
X157952380Y-141880952D02*
X157476190Y-141547619D01*
X157952380Y-141309523D02*
X156952380Y-141309523D01*
X156952380Y-141690476D01*
X157000000Y-141785714D01*
X157047619Y-141833333D01*
X157142857Y-141880952D01*
X157285714Y-141880952D01*
X157380952Y-141833333D01*
X157428571Y-141785714D01*
X157476190Y-141690476D01*
X157476190Y-141309523D01*
X137952380Y-139714285D02*
X137476190Y-139380952D01*
X137952380Y-139142857D02*
X136952380Y-139142857D01*
X136952380Y-139523809D01*
X137000000Y-139619047D01*
X137047619Y-139666666D01*
X137142857Y-139714285D01*
X137285714Y-139714285D01*
X137380952Y-139666666D01*
X137428571Y-139619047D01*
X137476190Y-139523809D01*
X137476190Y-139142857D01*
X136952380Y-140047619D02*
X137952380Y-140714285D01*
X136952380Y-140714285D02*
X137952380Y-140047619D01*
X137285714Y-141857142D02*
X137571428Y-141095238D01*
X137857142Y-141857142D01*
X155452380Y-139285714D02*
X154452380Y-139285714D01*
X155166666Y-139619047D01*
X154452380Y-139952380D01*
X155452380Y-139952380D01*
X154452380Y-140285714D02*
X154452380Y-140857142D01*
X155452380Y-140571428D02*
X154452380Y-140571428D01*
X155452380Y-141761904D02*
X154976190Y-141428571D01*
X155452380Y-141190476D02*
X154452380Y-141190476D01*
X154452380Y-141571428D01*
X154500000Y-141666666D01*
X154547619Y-141714285D01*
X154642857Y-141761904D01*
X154785714Y-141761904D01*
X154880952Y-141714285D01*
X154928571Y-141666666D01*
X154976190Y-141571428D01*
X154976190Y-141190476D01*
X144452380Y-139119047D02*
X144452380Y-139690476D01*
X145452380Y-139404761D02*
X144452380Y-139404761D01*
X144452380Y-139928571D02*
X145452380Y-140595238D01*
X144452380Y-140595238D02*
X145452380Y-139928571D01*
X144785714Y-140976190D02*
X145071428Y-141738095D01*
X145357142Y-140976190D01*
X140452380Y-139714285D02*
X139976190Y-139380952D01*
X140452380Y-139142857D02*
X139452380Y-139142857D01*
X139452380Y-139523809D01*
X139500000Y-139619047D01*
X139547619Y-139666666D01*
X139642857Y-139714285D01*
X139785714Y-139714285D01*
X139880952Y-139666666D01*
X139928571Y-139619047D01*
X139976190Y-139523809D01*
X139976190Y-139142857D01*
X139452380Y-140047619D02*
X140452380Y-140714285D01*
X139452380Y-140714285D02*
X140452380Y-140047619D01*
X139785714Y-141095238D02*
X140071428Y-141857142D01*
X140357142Y-141095238D01*
X152952380Y-139761904D02*
X152476190Y-139428571D01*
X152952380Y-139190476D02*
X151952380Y-139190476D01*
X151952380Y-139571428D01*
X152000000Y-139666666D01*
X152047619Y-139714285D01*
X152142857Y-139761904D01*
X152285714Y-139761904D01*
X152380952Y-139714285D01*
X152428571Y-139666666D01*
X152476190Y-139571428D01*
X152476190Y-139190476D01*
X151952380Y-140190476D02*
X152761904Y-140190476D01*
X152857142Y-140238095D01*
X152904761Y-140285714D01*
X152952380Y-140380952D01*
X152952380Y-140571428D01*
X152904761Y-140666666D01*
X152857142Y-140714285D01*
X152761904Y-140761904D01*
X151952380Y-140761904D01*
X152952380Y-141238095D02*
X151952380Y-141238095D01*
X152952380Y-141809523D01*
X151952380Y-141809523D01*
%TO.C,JP1*%
G36*
X139650000Y-131000000D02*
G01*
X139350000Y-131000000D01*
X139350000Y-132500000D01*
X139650000Y-132500000D01*
X139650000Y-131000000D01*
G37*
D11*
%TO.C,Logo1*%
X150000000Y-108900000D02*
X153000000Y-113100000D01*
X148200000Y-109000000D02*
X150000000Y-111000000D01*
X150000000Y-111000000D02*
X151500000Y-111000000D01*
X150000000Y-108900000D02*
X150000000Y-113100000D01*
X150000000Y-111000000D02*
X148200000Y-113100000D01*
X150000000Y-113100000D02*
G75*
G03*
X151500000Y-113100000I750000J0D01*
G01*
%TO.C,U7*%
G36*
X125900000Y-115900000D02*
G01*
X120100000Y-115900000D01*
X120100000Y-110100000D01*
X125900000Y-110100000D01*
X125900000Y-115900000D01*
G37*
%TD*%
D12*
%TO.C,J1*%
X119180000Y-136720000D03*
X127820000Y-136720000D03*
D13*
X119180000Y-140890000D03*
X127820000Y-140890000D03*
%TD*%
D14*
%TO.C,U2*%
X127200000Y-126300000D03*
%TD*%
D15*
%TO.C,J3*%
X135000000Y-136400000D03*
D16*
X137500000Y-136400000D03*
X140000000Y-136400000D03*
X142500000Y-136400000D03*
X145000000Y-136400000D03*
%TD*%
D17*
%TO.C,SW1*%
X128250000Y-120550000D03*
X128250000Y-114050000D03*
X132750000Y-120550000D03*
X132750000Y-114050000D03*
%TD*%
D15*
%TO.C,J2*%
X150000000Y-136400000D03*
D16*
X152500000Y-136400000D03*
X155000000Y-136400000D03*
X157500000Y-136400000D03*
%TD*%
M02*
