%TF.GenerationSoftware,KiCad,Pcbnew,(6.0.1-0)*%
%TF.CreationDate,2022-01-24T11:56:19+00:00*%
%TF.ProjectId,ASR33,41535233-332e-46b6-9963-61645f706362,1*%
%TF.SameCoordinates,Original*%
%TF.FileFunction,Legend,Bot*%
%TF.FilePolarity,Positive*%
%FSLAX46Y46*%
G04 Gerber Fmt 4.6, Leading zero omitted, Abs format (unit mm)*
G04 Created by KiCad (PCBNEW (6.0.1-0)) date 2022-01-24 11:56:19*
%MOMM*%
%LPD*%
G01*
G04 APERTURE LIST*
%ADD10C,0.150000*%
%ADD11C,0.200000*%
G04 APERTURE END LIST*
D10*
X125880952Y-133452380D02*
X125880952Y-134261904D01*
X125833333Y-134357142D01*
X125785714Y-134404761D01*
X125690476Y-134452380D01*
X125500000Y-134452380D01*
X125404761Y-134404761D01*
X125357142Y-134357142D01*
X125309523Y-134261904D01*
X125309523Y-133452380D01*
X124880952Y-134404761D02*
X124738095Y-134452380D01*
X124500000Y-134452380D01*
X124404761Y-134404761D01*
X124357142Y-134357142D01*
X124309523Y-134261904D01*
X124309523Y-134166666D01*
X124357142Y-134071428D01*
X124404761Y-134023809D01*
X124500000Y-133976190D01*
X124690476Y-133928571D01*
X124785714Y-133880952D01*
X124833333Y-133833333D01*
X124880952Y-133738095D01*
X124880952Y-133642857D01*
X124833333Y-133547619D01*
X124785714Y-133500000D01*
X124690476Y-133452380D01*
X124452380Y-133452380D01*
X124309523Y-133500000D01*
X123547619Y-133928571D02*
X123404761Y-133976190D01*
X123357142Y-134023809D01*
X123309523Y-134119047D01*
X123309523Y-134261904D01*
X123357142Y-134357142D01*
X123404761Y-134404761D01*
X123500000Y-134452380D01*
X123880952Y-134452380D01*
X123880952Y-133452380D01*
X123547619Y-133452380D01*
X123452380Y-133500000D01*
X123404761Y-133547619D01*
X123357142Y-133642857D01*
X123357142Y-133738095D01*
X123404761Y-133833333D01*
X123452380Y-133880952D01*
X123547619Y-133928571D01*
X123880952Y-133928571D01*
X122880952Y-134071428D02*
X122119047Y-134071428D01*
X121071428Y-134357142D02*
X121119047Y-134404761D01*
X121261904Y-134452380D01*
X121357142Y-134452380D01*
X121500000Y-134404761D01*
X121595238Y-134309523D01*
X121642857Y-134214285D01*
X121690476Y-134023809D01*
X121690476Y-133880952D01*
X121642857Y-133690476D01*
X121595238Y-133595238D01*
X121500000Y-133500000D01*
X121357142Y-133452380D01*
X121261904Y-133452380D01*
X121119047Y-133500000D01*
X121071428Y-133547619D01*
X158976190Y-134202380D02*
X158976190Y-133202380D01*
X158595238Y-133202380D01*
X158500000Y-133250000D01*
X158452380Y-133297619D01*
X158404761Y-133392857D01*
X158404761Y-133535714D01*
X158452380Y-133630952D01*
X158500000Y-133678571D01*
X158595238Y-133726190D01*
X158976190Y-133726190D01*
X157833333Y-134202380D02*
X157928571Y-134154761D01*
X157976190Y-134107142D01*
X158023809Y-134011904D01*
X158023809Y-133726190D01*
X157976190Y-133630952D01*
X157928571Y-133583333D01*
X157833333Y-133535714D01*
X157690476Y-133535714D01*
X157595238Y-133583333D01*
X157547619Y-133630952D01*
X157500000Y-133726190D01*
X157500000Y-134011904D01*
X157547619Y-134107142D01*
X157595238Y-134154761D01*
X157690476Y-134202380D01*
X157833333Y-134202380D01*
X157166666Y-133535714D02*
X156976190Y-134202380D01*
X156785714Y-133726190D01*
X156595238Y-134202380D01*
X156404761Y-133535714D01*
X155642857Y-134154761D02*
X155738095Y-134202380D01*
X155928571Y-134202380D01*
X156023809Y-134154761D01*
X156071428Y-134059523D01*
X156071428Y-133678571D01*
X156023809Y-133583333D01*
X155928571Y-133535714D01*
X155738095Y-133535714D01*
X155642857Y-133583333D01*
X155595238Y-133678571D01*
X155595238Y-133773809D01*
X156071428Y-133869047D01*
X155166666Y-134202380D02*
X155166666Y-133535714D01*
X155166666Y-133726190D02*
X155119047Y-133630952D01*
X155071428Y-133583333D01*
X154976190Y-133535714D01*
X154880952Y-133535714D01*
X153880952Y-133202380D02*
X153261904Y-133202380D01*
X153595238Y-133583333D01*
X153452380Y-133583333D01*
X153357142Y-133630952D01*
X153309523Y-133678571D01*
X153261904Y-133773809D01*
X153261904Y-134011904D01*
X153309523Y-134107142D01*
X153357142Y-134154761D01*
X153452380Y-134202380D01*
X153738095Y-134202380D01*
X153833333Y-134154761D01*
X153880952Y-134107142D01*
X152833333Y-134107142D02*
X152785714Y-134154761D01*
X152833333Y-134202380D01*
X152880952Y-134154761D01*
X152833333Y-134107142D01*
X152833333Y-134202380D01*
X152452380Y-133202380D02*
X151833333Y-133202380D01*
X152166666Y-133583333D01*
X152023809Y-133583333D01*
X151928571Y-133630952D01*
X151880952Y-133678571D01*
X151833333Y-133773809D01*
X151833333Y-134011904D01*
X151880952Y-134107142D01*
X151928571Y-134154761D01*
X152023809Y-134202380D01*
X152309523Y-134202380D01*
X152404761Y-134154761D01*
X152452380Y-134107142D01*
X151547619Y-133202380D02*
X151214285Y-134202380D01*
X150880952Y-133202380D01*
X146630952Y-133202380D02*
X146059523Y-133202380D01*
X146345238Y-134202380D02*
X146345238Y-133202380D01*
X145345238Y-134154761D02*
X145440476Y-134202380D01*
X145630952Y-134202380D01*
X145726190Y-134154761D01*
X145773809Y-134059523D01*
X145773809Y-133678571D01*
X145726190Y-133583333D01*
X145630952Y-133535714D01*
X145440476Y-133535714D01*
X145345238Y-133583333D01*
X145297619Y-133678571D01*
X145297619Y-133773809D01*
X145773809Y-133869047D01*
X144726190Y-134202380D02*
X144821428Y-134154761D01*
X144869047Y-134059523D01*
X144869047Y-133202380D01*
X143964285Y-134154761D02*
X144059523Y-134202380D01*
X144250000Y-134202380D01*
X144345238Y-134154761D01*
X144392857Y-134059523D01*
X144392857Y-133678571D01*
X144345238Y-133583333D01*
X144250000Y-133535714D01*
X144059523Y-133535714D01*
X143964285Y-133583333D01*
X143916666Y-133678571D01*
X143916666Y-133773809D01*
X144392857Y-133869047D01*
X143630952Y-133535714D02*
X143250000Y-133535714D01*
X143488095Y-133202380D02*
X143488095Y-134059523D01*
X143440476Y-134154761D01*
X143345238Y-134202380D01*
X143250000Y-134202380D01*
X143011904Y-133535714D02*
X142773809Y-134202380D01*
X142535714Y-133535714D02*
X142773809Y-134202380D01*
X142869047Y-134440476D01*
X142916666Y-134488095D01*
X143011904Y-134535714D01*
X142154761Y-133535714D02*
X142154761Y-134535714D01*
X142154761Y-133583333D02*
X142059523Y-133535714D01*
X141869047Y-133535714D01*
X141773809Y-133583333D01*
X141726190Y-133630952D01*
X141678571Y-133726190D01*
X141678571Y-134011904D01*
X141726190Y-134107142D01*
X141773809Y-134154761D01*
X141869047Y-134202380D01*
X142059523Y-134202380D01*
X142154761Y-134154761D01*
X140869047Y-134154761D02*
X140964285Y-134202380D01*
X141154761Y-134202380D01*
X141250000Y-134154761D01*
X141297619Y-134059523D01*
X141297619Y-133678571D01*
X141250000Y-133583333D01*
X141154761Y-133535714D01*
X140964285Y-133535714D01*
X140869047Y-133583333D01*
X140821428Y-133678571D01*
X140821428Y-133773809D01*
X141297619Y-133869047D01*
X139678571Y-133297619D02*
X139630952Y-133250000D01*
X139535714Y-133202380D01*
X139297619Y-133202380D01*
X139202380Y-133250000D01*
X139154761Y-133297619D01*
X139107142Y-133392857D01*
X139107142Y-133488095D01*
X139154761Y-133630952D01*
X139726190Y-134202380D01*
X139107142Y-134202380D01*
X138488095Y-133202380D02*
X138392857Y-133202380D01*
X138297619Y-133250000D01*
X138250000Y-133297619D01*
X138202380Y-133392857D01*
X138154761Y-133583333D01*
X138154761Y-133821428D01*
X138202380Y-134011904D01*
X138250000Y-134107142D01*
X138297619Y-134154761D01*
X138392857Y-134202380D01*
X138488095Y-134202380D01*
X138583333Y-134154761D01*
X138630952Y-134107142D01*
X138678571Y-134011904D01*
X138726190Y-133821428D01*
X138726190Y-133583333D01*
X138678571Y-133392857D01*
X138630952Y-133297619D01*
X138583333Y-133250000D01*
X138488095Y-133202380D01*
X137726190Y-134202380D02*
X137726190Y-133535714D01*
X137726190Y-133630952D02*
X137678571Y-133583333D01*
X137583333Y-133535714D01*
X137440476Y-133535714D01*
X137345238Y-133583333D01*
X137297619Y-133678571D01*
X137297619Y-134202380D01*
X137297619Y-133678571D02*
X137250000Y-133583333D01*
X137154761Y-133535714D01*
X137011904Y-133535714D01*
X136916666Y-133583333D01*
X136869047Y-133678571D01*
X136869047Y-134202380D01*
X136440476Y-133916666D02*
X135964285Y-133916666D01*
X136535714Y-134202380D02*
X136202380Y-133202380D01*
X135869047Y-134202380D01*
D11*
X144450000Y-117542500D02*
X143735714Y-117542500D01*
X144592857Y-117971071D02*
X144092857Y-116471071D01*
X143592857Y-117971071D01*
X143164285Y-117899642D02*
X142950000Y-117971071D01*
X142592857Y-117971071D01*
X142450000Y-117899642D01*
X142378571Y-117828214D01*
X142307142Y-117685357D01*
X142307142Y-117542500D01*
X142378571Y-117399642D01*
X142450000Y-117328214D01*
X142592857Y-117256785D01*
X142878571Y-117185357D01*
X143021428Y-117113928D01*
X143092857Y-117042500D01*
X143164285Y-116899642D01*
X143164285Y-116756785D01*
X143092857Y-116613928D01*
X143021428Y-116542500D01*
X142878571Y-116471071D01*
X142521428Y-116471071D01*
X142307142Y-116542500D01*
X140807142Y-117971071D02*
X141307142Y-117256785D01*
X141664285Y-117971071D02*
X141664285Y-116471071D01*
X141092857Y-116471071D01*
X140950000Y-116542500D01*
X140878571Y-116613928D01*
X140807142Y-116756785D01*
X140807142Y-116971071D01*
X140878571Y-117113928D01*
X140950000Y-117185357D01*
X141092857Y-117256785D01*
X141664285Y-117256785D01*
X140307142Y-116471071D02*
X139378571Y-116471071D01*
X139878571Y-117042500D01*
X139664285Y-117042500D01*
X139521428Y-117113928D01*
X139450000Y-117185357D01*
X139378571Y-117328214D01*
X139378571Y-117685357D01*
X139450000Y-117828214D01*
X139521428Y-117899642D01*
X139664285Y-117971071D01*
X140092857Y-117971071D01*
X140235714Y-117899642D01*
X140307142Y-117828214D01*
X138878571Y-116471071D02*
X137950000Y-116471071D01*
X138450000Y-117042500D01*
X138235714Y-117042500D01*
X138092857Y-117113928D01*
X138021428Y-117185357D01*
X137950000Y-117328214D01*
X137950000Y-117685357D01*
X138021428Y-117828214D01*
X138092857Y-117899642D01*
X138235714Y-117971071D01*
X138664285Y-117971071D01*
X138807142Y-117899642D01*
X138878571Y-117828214D01*
X145557142Y-120243214D02*
X145628571Y-120314642D01*
X145842857Y-120386071D01*
X145985714Y-120386071D01*
X146200000Y-120314642D01*
X146342857Y-120171785D01*
X146414285Y-120028928D01*
X146485714Y-119743214D01*
X146485714Y-119528928D01*
X146414285Y-119243214D01*
X146342857Y-119100357D01*
X146200000Y-118957500D01*
X145985714Y-118886071D01*
X145842857Y-118886071D01*
X145628571Y-118957500D01*
X145557142Y-119028928D01*
X144700000Y-120386071D02*
X144842857Y-120314642D01*
X144914285Y-120243214D01*
X144985714Y-120100357D01*
X144985714Y-119671785D01*
X144914285Y-119528928D01*
X144842857Y-119457500D01*
X144700000Y-119386071D01*
X144485714Y-119386071D01*
X144342857Y-119457500D01*
X144271428Y-119528928D01*
X144200000Y-119671785D01*
X144200000Y-120100357D01*
X144271428Y-120243214D01*
X144342857Y-120314642D01*
X144485714Y-120386071D01*
X144700000Y-120386071D01*
X143557142Y-119386071D02*
X143557142Y-120386071D01*
X143557142Y-119528928D02*
X143485714Y-119457500D01*
X143342857Y-119386071D01*
X143128571Y-119386071D01*
X142985714Y-119457500D01*
X142914285Y-119600357D01*
X142914285Y-120386071D01*
X142414285Y-119386071D02*
X141842857Y-119386071D01*
X142200000Y-118886071D02*
X142200000Y-120171785D01*
X142128571Y-120314642D01*
X141985714Y-120386071D01*
X141842857Y-120386071D01*
X141342857Y-120386071D02*
X141342857Y-119386071D01*
X141342857Y-119671785D02*
X141271428Y-119528928D01*
X141200000Y-119457500D01*
X141057142Y-119386071D01*
X140914285Y-119386071D01*
X140200000Y-120386071D02*
X140342857Y-120314642D01*
X140414285Y-120243214D01*
X140485714Y-120100357D01*
X140485714Y-119671785D01*
X140414285Y-119528928D01*
X140342857Y-119457500D01*
X140200000Y-119386071D01*
X139985714Y-119386071D01*
X139842857Y-119457500D01*
X139771428Y-119528928D01*
X139700000Y-119671785D01*
X139700000Y-120100357D01*
X139771428Y-120243214D01*
X139842857Y-120314642D01*
X139985714Y-120386071D01*
X140200000Y-120386071D01*
X138842857Y-120386071D02*
X138985714Y-120314642D01*
X139057142Y-120171785D01*
X139057142Y-118886071D01*
X138057142Y-120386071D02*
X138200000Y-120314642D01*
X138271428Y-120171785D01*
X138271428Y-118886071D01*
X136914285Y-120314642D02*
X137057142Y-120386071D01*
X137342857Y-120386071D01*
X137485714Y-120314642D01*
X137557142Y-120171785D01*
X137557142Y-119600357D01*
X137485714Y-119457500D01*
X137342857Y-119386071D01*
X137057142Y-119386071D01*
X136914285Y-119457500D01*
X136842857Y-119600357D01*
X136842857Y-119743214D01*
X137557142Y-119886071D01*
X136200000Y-120386071D02*
X136200000Y-119386071D01*
X136200000Y-119671785D02*
X136128571Y-119528928D01*
X136057142Y-119457500D01*
X135914285Y-119386071D01*
X135771428Y-119386071D01*
M02*
