M48
; DRILL file {KiCad (6.0.2-0)} date Thursday, 24 February 2022 at 08:18:17
; FORMAT={-:-/ absolute / inch / decimal}
; #@! TF.CreationDate,2022-02-24T08:18:17+00:00
; #@! TF.GenerationSoftware,Kicad,Pcbnew,(6.0.2-0)
; #@! TF.FileFunction,Plated,1,2,PTH
FMAT,2
INCH
; #@! TA.AperFunction,Plated,PTH,ViaDrill
T1C0.0157
; #@! TA.AperFunction,Plated,PTH,ComponentDrill
T2C0.0236
; #@! TA.AperFunction,Plated,PTH,ComponentDrill
T3C0.0335
; #@! TA.AperFunction,Plated,PTH,ComponentDrill
T4C0.0394
; #@! TA.AperFunction,Plated,PTH,ComponentDrill
T5C0.0433
; #@! TA.AperFunction,Plated,PTH,ComponentDrill
T6C0.0492
%
G90
G05
T1
X4.813Y-3.9272
X4.9803Y-3.9469
X5.0591Y-4.2392
X5.0797Y-4.311
X5.0812Y-4.1796
X5.0817Y-4.1142
X5.1083Y-3.7205
X5.1083Y-4.3996
X5.1772Y-3.7293
X5.2067Y-3.7598
X5.3346Y-3.9469
X5.4331Y-3.7992
X5.502Y-3.7106
X5.502Y-3.8681
X5.502Y-3.9567
X5.5413Y-3.8681
X5.5529Y-3.7429
X5.5662Y-3.8188
X5.7776Y-3.7106
X5.7874Y-3.9764
X5.876Y-4.1043
X5.9449Y-4.2618
X5.9547Y-4.3406
X5.9646Y-3.7992
X6.0039Y-4.1339
X6.0531Y-4.1339
X6.122Y-3.75
X6.122Y-4.2618
X6.1319Y-4.3406
X6.2205Y-4.2618
T2
X4.9524Y-4.0988
X4.9524Y-4.3264
T3
X4.8228Y-4.4646
X4.9213Y-4.4646
X5.1181Y-4.4646
X5.2165Y-4.4646
X5.315Y-4.4646
X5.5118Y-4.4646
X5.6102Y-4.4646
X5.7087Y-4.4646
X5.9055Y-4.4646
X6.0039Y-4.4646
X6.2008Y-4.4646
X6.2992Y-4.4646
X6.3976Y-4.4646
T4
X4.8075Y-4.0425
X4.8075Y-4.3827
T5
X5.2461Y-3.9567
X5.2461Y-4.2126
X5.4232Y-3.9567
X5.4232Y-4.2126
T6
X4.9717Y-4.0425
X4.9717Y-4.3827
T0
M30
