%TF.GenerationSoftware,KiCad,Pcbnew,(6.0.1-0)*%
%TF.CreationDate,2022-01-23T16:01:30+00:00*%
%TF.ProjectId,ASR33,41535233-332e-46b6-9963-61645f706362,6*%
%TF.SameCoordinates,Original*%
%TF.FileFunction,Legend,Top*%
%TF.FilePolarity,Positive*%
%FSLAX46Y46*%
G04 Gerber Fmt 4.6, Leading zero omitted, Abs format (unit mm)*
G04 Created by KiCad (PCBNEW (6.0.1-0)) date 2022-01-23 16:01:30*
%MOMM*%
%LPD*%
G01*
G04 APERTURE LIST*
%ADD10C,0.150000*%
%ADD11C,0.120000*%
G04 APERTURE END LIST*
D10*
X137119047Y-141771428D02*
X137880952Y-141771428D01*
X133309523Y-139452380D02*
X133880952Y-139452380D01*
X133595238Y-140452380D02*
X133595238Y-139452380D01*
X134119047Y-140452380D02*
X134642857Y-139785714D01*
X134119047Y-139785714D02*
X134642857Y-140452380D01*
X130334000Y-119700000D02*
X130334000Y-119128571D01*
X130676857Y-119814285D02*
X129476857Y-119414285D01*
X130676857Y-119014285D01*
X130619714Y-118671428D02*
X130676857Y-118500000D01*
X130676857Y-118214285D01*
X130619714Y-118100000D01*
X130562571Y-118042857D01*
X130448285Y-117985714D01*
X130334000Y-117985714D01*
X130219714Y-118042857D01*
X130162571Y-118100000D01*
X130105428Y-118214285D01*
X130048285Y-118442857D01*
X129991142Y-118557142D01*
X129934000Y-118614285D01*
X129819714Y-118671428D01*
X129705428Y-118671428D01*
X129591142Y-118614285D01*
X129534000Y-118557142D01*
X129476857Y-118442857D01*
X129476857Y-118157142D01*
X129534000Y-117985714D01*
X130676857Y-116785714D02*
X130105428Y-117185714D01*
X130676857Y-117471428D02*
X129476857Y-117471428D01*
X129476857Y-117014285D01*
X129534000Y-116900000D01*
X129591142Y-116842857D01*
X129705428Y-116785714D01*
X129876857Y-116785714D01*
X129991142Y-116842857D01*
X130048285Y-116900000D01*
X130105428Y-117014285D01*
X130105428Y-117471428D01*
X129476857Y-116385714D02*
X129476857Y-115642857D01*
X129934000Y-116042857D01*
X129934000Y-115871428D01*
X129991142Y-115757142D01*
X130048285Y-115700000D01*
X130162571Y-115642857D01*
X130448285Y-115642857D01*
X130562571Y-115700000D01*
X130619714Y-115757142D01*
X130676857Y-115871428D01*
X130676857Y-116214285D01*
X130619714Y-116328571D01*
X130562571Y-116385714D01*
X129476857Y-115242857D02*
X129476857Y-114500000D01*
X129934000Y-114900000D01*
X129934000Y-114728571D01*
X129991142Y-114614285D01*
X130048285Y-114557142D01*
X130162571Y-114500000D01*
X130448285Y-114500000D01*
X130562571Y-114557142D01*
X130619714Y-114614285D01*
X130676857Y-114728571D01*
X130676857Y-115071428D01*
X130619714Y-115185714D01*
X130562571Y-115242857D01*
X132494571Y-120585714D02*
X132551714Y-120642857D01*
X132608857Y-120814285D01*
X132608857Y-120928571D01*
X132551714Y-121100000D01*
X132437428Y-121214285D01*
X132323142Y-121271428D01*
X132094571Y-121328571D01*
X131923142Y-121328571D01*
X131694571Y-121271428D01*
X131580285Y-121214285D01*
X131466000Y-121100000D01*
X131408857Y-120928571D01*
X131408857Y-120814285D01*
X131466000Y-120642857D01*
X131523142Y-120585714D01*
X132608857Y-119900000D02*
X132551714Y-120014285D01*
X132494571Y-120071428D01*
X132380285Y-120128571D01*
X132037428Y-120128571D01*
X131923142Y-120071428D01*
X131866000Y-120014285D01*
X131808857Y-119900000D01*
X131808857Y-119728571D01*
X131866000Y-119614285D01*
X131923142Y-119557142D01*
X132037428Y-119500000D01*
X132380285Y-119500000D01*
X132494571Y-119557142D01*
X132551714Y-119614285D01*
X132608857Y-119728571D01*
X132608857Y-119900000D01*
X131808857Y-118985714D02*
X132608857Y-118985714D01*
X131923142Y-118985714D02*
X131866000Y-118928571D01*
X131808857Y-118814285D01*
X131808857Y-118642857D01*
X131866000Y-118528571D01*
X131980285Y-118471428D01*
X132608857Y-118471428D01*
X131808857Y-118071428D02*
X131808857Y-117614285D01*
X131408857Y-117900000D02*
X132437428Y-117900000D01*
X132551714Y-117842857D01*
X132608857Y-117728571D01*
X132608857Y-117614285D01*
X132608857Y-117214285D02*
X131808857Y-117214285D01*
X132037428Y-117214285D02*
X131923142Y-117157142D01*
X131866000Y-117100000D01*
X131808857Y-116985714D01*
X131808857Y-116871428D01*
X132608857Y-116300000D02*
X132551714Y-116414285D01*
X132494571Y-116471428D01*
X132380285Y-116528571D01*
X132037428Y-116528571D01*
X131923142Y-116471428D01*
X131866000Y-116414285D01*
X131808857Y-116300000D01*
X131808857Y-116128571D01*
X131866000Y-116014285D01*
X131923142Y-115957142D01*
X132037428Y-115900000D01*
X132380285Y-115900000D01*
X132494571Y-115957142D01*
X132551714Y-116014285D01*
X132608857Y-116128571D01*
X132608857Y-116300000D01*
X132608857Y-115214285D02*
X132551714Y-115328571D01*
X132437428Y-115385714D01*
X131408857Y-115385714D01*
X132608857Y-114585714D02*
X132551714Y-114700000D01*
X132437428Y-114757142D01*
X131408857Y-114757142D01*
X132551714Y-113671428D02*
X132608857Y-113785714D01*
X132608857Y-114014285D01*
X132551714Y-114128571D01*
X132437428Y-114185714D01*
X131980285Y-114185714D01*
X131866000Y-114128571D01*
X131808857Y-114014285D01*
X131808857Y-113785714D01*
X131866000Y-113671428D01*
X131980285Y-113614285D01*
X132094571Y-113614285D01*
X132208857Y-114185714D01*
X132608857Y-113100000D02*
X131808857Y-113100000D01*
X132037428Y-113100000D02*
X131923142Y-113042857D01*
X131866000Y-112985714D01*
X131808857Y-112871428D01*
X131808857Y-112757142D01*
X132219047Y-141771428D02*
X132980952Y-141771428D01*
X154780952Y-140404761D02*
X154923809Y-140452380D01*
X155161904Y-140452380D01*
X155257142Y-140404761D01*
X155304761Y-140357142D01*
X155352380Y-140261904D01*
X155352380Y-140166666D01*
X155304761Y-140071428D01*
X155257142Y-140023809D01*
X155161904Y-139976190D01*
X154971428Y-139928571D01*
X154876190Y-139880952D01*
X154828571Y-139833333D01*
X154780952Y-139738095D01*
X154780952Y-139642857D01*
X154828571Y-139547619D01*
X154876190Y-139500000D01*
X154971428Y-139452380D01*
X155209523Y-139452380D01*
X155352380Y-139500000D01*
X155638095Y-139785714D02*
X156019047Y-139785714D01*
X155780952Y-139452380D02*
X155780952Y-140309523D01*
X155828571Y-140404761D01*
X155923809Y-140452380D01*
X156019047Y-140452380D01*
X156780952Y-140452380D02*
X156780952Y-139928571D01*
X156733333Y-139833333D01*
X156638095Y-139785714D01*
X156447619Y-139785714D01*
X156352380Y-139833333D01*
X156780952Y-140404761D02*
X156685714Y-140452380D01*
X156447619Y-140452380D01*
X156352380Y-140404761D01*
X156304761Y-140309523D01*
X156304761Y-140214285D01*
X156352380Y-140119047D01*
X156447619Y-140071428D01*
X156685714Y-140071428D01*
X156780952Y-140023809D01*
X157257142Y-140452380D02*
X157257142Y-139785714D01*
X157257142Y-139976190D02*
X157304761Y-139880952D01*
X157352380Y-139833333D01*
X157447619Y-139785714D01*
X157542857Y-139785714D01*
X157733333Y-139785714D02*
X158114285Y-139785714D01*
X157876190Y-139452380D02*
X157876190Y-140309523D01*
X157923809Y-140404761D01*
X158019047Y-140452380D01*
X158114285Y-140452380D01*
X147952380Y-142176190D02*
X146952380Y-142176190D01*
X146952380Y-141795238D01*
X147000000Y-141700000D01*
X147047619Y-141652380D01*
X147142857Y-141604761D01*
X147285714Y-141604761D01*
X147380952Y-141652380D01*
X147428571Y-141700000D01*
X147476190Y-141795238D01*
X147476190Y-142176190D01*
X147952380Y-141033333D02*
X147904761Y-141128571D01*
X147857142Y-141176190D01*
X147761904Y-141223809D01*
X147476190Y-141223809D01*
X147380952Y-141176190D01*
X147333333Y-141128571D01*
X147285714Y-141033333D01*
X147285714Y-140890476D01*
X147333333Y-140795238D01*
X147380952Y-140747619D01*
X147476190Y-140700000D01*
X147761904Y-140700000D01*
X147857142Y-140747619D01*
X147904761Y-140795238D01*
X147952380Y-140890476D01*
X147952380Y-141033333D01*
X147285714Y-140366666D02*
X147952380Y-140176190D01*
X147476190Y-139985714D01*
X147952380Y-139795238D01*
X147285714Y-139604761D01*
X147904761Y-138842857D02*
X147952380Y-138938095D01*
X147952380Y-139128571D01*
X147904761Y-139223809D01*
X147809523Y-139271428D01*
X147428571Y-139271428D01*
X147333333Y-139223809D01*
X147285714Y-139128571D01*
X147285714Y-138938095D01*
X147333333Y-138842857D01*
X147428571Y-138795238D01*
X147523809Y-138795238D01*
X147619047Y-139271428D01*
X147952380Y-138366666D02*
X147285714Y-138366666D01*
X147476190Y-138366666D02*
X147380952Y-138319047D01*
X147333333Y-138271428D01*
X147285714Y-138176190D01*
X147285714Y-138080952D01*
X138804761Y-140452380D02*
X138471428Y-139976190D01*
X138233333Y-140452380D02*
X138233333Y-139452380D01*
X138614285Y-139452380D01*
X138709523Y-139500000D01*
X138757142Y-139547619D01*
X138804761Y-139642857D01*
X138804761Y-139785714D01*
X138757142Y-139880952D01*
X138709523Y-139928571D01*
X138614285Y-139976190D01*
X138233333Y-139976190D01*
X139138095Y-140452380D02*
X139661904Y-139785714D01*
X139138095Y-139785714D02*
X139661904Y-140452380D01*
X139719047Y-141771428D02*
X140480952Y-141771428D01*
X140100000Y-142152380D02*
X140100000Y-141390476D01*
X118685714Y-132057142D02*
X119352380Y-131866666D01*
X118876190Y-131676190D01*
X119352380Y-131485714D01*
X118685714Y-131295238D01*
X118685714Y-131009523D02*
X119352380Y-130819047D01*
X118876190Y-130628571D01*
X119352380Y-130438095D01*
X118685714Y-130247619D01*
X118685714Y-129961904D02*
X119352380Y-129771428D01*
X118876190Y-129580952D01*
X119352380Y-129390476D01*
X118685714Y-129200000D01*
X119257142Y-128819047D02*
X119304761Y-128771428D01*
X119352380Y-128819047D01*
X119304761Y-128866666D01*
X119257142Y-128819047D01*
X119352380Y-128819047D01*
X119352380Y-128342857D02*
X118685714Y-128342857D01*
X118780952Y-128342857D02*
X118733333Y-128295238D01*
X118685714Y-128200000D01*
X118685714Y-128057142D01*
X118733333Y-127961904D01*
X118828571Y-127914285D01*
X119352380Y-127914285D01*
X118828571Y-127914285D02*
X118733333Y-127866666D01*
X118685714Y-127771428D01*
X118685714Y-127628571D01*
X118733333Y-127533333D01*
X118828571Y-127485714D01*
X119352380Y-127485714D01*
X119304761Y-126628571D02*
X119352380Y-126723809D01*
X119352380Y-126914285D01*
X119304761Y-127009523D01*
X119209523Y-127057142D01*
X118828571Y-127057142D01*
X118733333Y-127009523D01*
X118685714Y-126914285D01*
X118685714Y-126723809D01*
X118733333Y-126628571D01*
X118828571Y-126580952D01*
X118923809Y-126580952D01*
X119019047Y-127057142D01*
X119257142Y-126152380D02*
X119304761Y-126104761D01*
X119352380Y-126152380D01*
X119304761Y-126200000D01*
X119257142Y-126152380D01*
X119352380Y-126152380D01*
X118685714Y-125247619D02*
X119352380Y-125247619D01*
X118685714Y-125676190D02*
X119209523Y-125676190D01*
X119304761Y-125628571D01*
X119352380Y-125533333D01*
X119352380Y-125390476D01*
X119304761Y-125295238D01*
X119257142Y-125247619D01*
X119352380Y-124771428D02*
X118352380Y-124771428D01*
X118971428Y-124676190D02*
X119352380Y-124390476D01*
X118685714Y-124390476D02*
X119066666Y-124771428D01*
X134819047Y-141771428D02*
X135580952Y-141771428D01*
X135200000Y-142152380D02*
X135200000Y-141390476D01*
X150552380Y-142233333D02*
X149552380Y-142233333D01*
X150266666Y-141900000D01*
X149552380Y-141566666D01*
X150552380Y-141566666D01*
X150552380Y-140947619D02*
X150504761Y-141042857D01*
X150457142Y-141090476D01*
X150361904Y-141138095D01*
X150076190Y-141138095D01*
X149980952Y-141090476D01*
X149933333Y-141042857D01*
X149885714Y-140947619D01*
X149885714Y-140804761D01*
X149933333Y-140709523D01*
X149980952Y-140661904D01*
X150076190Y-140614285D01*
X150361904Y-140614285D01*
X150457142Y-140661904D01*
X150504761Y-140709523D01*
X150552380Y-140804761D01*
X150552380Y-140947619D01*
X149885714Y-140328571D02*
X149885714Y-139947619D01*
X149552380Y-140185714D02*
X150409523Y-140185714D01*
X150504761Y-140138095D01*
X150552380Y-140042857D01*
X150552380Y-139947619D01*
X150552380Y-139471428D02*
X150504761Y-139566666D01*
X150457142Y-139614285D01*
X150361904Y-139661904D01*
X150076190Y-139661904D01*
X149980952Y-139614285D01*
X149933333Y-139566666D01*
X149885714Y-139471428D01*
X149885714Y-139328571D01*
X149933333Y-139233333D01*
X149980952Y-139185714D01*
X150076190Y-139138095D01*
X150361904Y-139138095D01*
X150457142Y-139185714D01*
X150504761Y-139233333D01*
X150552380Y-139328571D01*
X150552380Y-139471428D01*
X150552380Y-138709523D02*
X149885714Y-138709523D01*
X150076190Y-138709523D02*
X149980952Y-138661904D01*
X149933333Y-138614285D01*
X149885714Y-138519047D01*
X149885714Y-138423809D01*
X144600000Y-141661904D02*
X144552380Y-141757142D01*
X144552380Y-141900000D01*
X144600000Y-142042857D01*
X144695238Y-142138095D01*
X144790476Y-142185714D01*
X144980952Y-142233333D01*
X145123809Y-142233333D01*
X145314285Y-142185714D01*
X145409523Y-142138095D01*
X145504761Y-142042857D01*
X145552380Y-141900000D01*
X145552380Y-141804761D01*
X145504761Y-141661904D01*
X145457142Y-141614285D01*
X145123809Y-141614285D01*
X145123809Y-141804761D01*
X145552380Y-141185714D02*
X144552380Y-141185714D01*
X145552380Y-140614285D01*
X144552380Y-140614285D01*
X145552380Y-140138095D02*
X144552380Y-140138095D01*
X144552380Y-139900000D01*
X144600000Y-139757142D01*
X144695238Y-139661904D01*
X144790476Y-139614285D01*
X144980952Y-139566666D01*
X145123809Y-139566666D01*
X145314285Y-139614285D01*
X145409523Y-139661904D01*
X145504761Y-139757142D01*
X145552380Y-139900000D01*
X145552380Y-140138095D01*
D11*
%TO.C,U2*%
X125090000Y-128410000D02*
X125090000Y-127685000D01*
X128585000Y-128410000D02*
X129310000Y-128410000D01*
X129310000Y-128410000D02*
X129310000Y-127685000D01*
X125815000Y-128410000D02*
X125090000Y-128410000D01*
X128585000Y-124190000D02*
X129310000Y-124190000D01*
X129310000Y-124190000D02*
X129310000Y-124915000D01*
X125682843Y-124500000D02*
G75*
G03*
X125682843Y-124500000I-282843J0D01*
G01*
%TO.C,U1*%
X135535000Y-108380000D02*
X134755000Y-108380000D01*
X134755000Y-126620000D02*
X134755000Y-125620000D01*
X135535000Y-126620000D02*
X134755000Y-126620000D01*
X134755000Y-108380000D02*
X134755000Y-109380000D01*
%TO.C,R3*%
X123300000Y-111300000D02*
X123300000Y-110700000D01*
X124300000Y-111300000D02*
X124300000Y-110700000D01*
%TO.C,C1*%
X122600000Y-124700000D02*
X122600000Y-125300000D01*
X123600000Y-124700000D02*
X123600000Y-125300000D01*
%TO.C,R5*%
X126175000Y-134200000D02*
X125575000Y-134200000D01*
X126175000Y-135200000D02*
X125575000Y-135200000D01*
%TO.C,R4*%
X121425000Y-135200000D02*
X120825000Y-135200000D01*
X121425000Y-134200000D02*
X120825000Y-134200000D01*
%TO.C,R6*%
X124700000Y-130900000D02*
X125300000Y-130900000D01*
X124700000Y-131900000D02*
X125300000Y-131900000D01*
%TO.C,R7*%
X122000000Y-131900000D02*
X122600000Y-131900000D01*
X122000000Y-130900000D02*
X122600000Y-130900000D01*
%TO.C,R1*%
X122100000Y-111300000D02*
X122100000Y-110700000D01*
X123100000Y-111300000D02*
X123100000Y-110700000D01*
%TO.C,R2*%
X124500000Y-111300000D02*
X124500000Y-110700000D01*
X125500000Y-111300000D02*
X125500000Y-110700000D01*
%TO.C,C4*%
X119400000Y-133000000D02*
X120000000Y-133000000D01*
X119400000Y-134000000D02*
X120000000Y-134000000D01*
%TO.C,C2*%
X124700000Y-133100000D02*
X125300000Y-133100000D01*
X124700000Y-132100000D02*
X125300000Y-132100000D01*
%TO.C,C3*%
X122600000Y-133100000D02*
X122000000Y-133100000D01*
X122600000Y-132100000D02*
X122000000Y-132100000D01*
%TO.C,D2*%
X148500000Y-130840000D02*
X146600000Y-130840000D01*
X147100000Y-133160000D02*
X148500000Y-133160000D01*
%TO.C,R10*%
X118400000Y-122400000D02*
X118400000Y-121800000D01*
X119400000Y-122400000D02*
X119400000Y-121800000D01*
%TO.C,R11*%
X141900000Y-131700000D02*
X141900000Y-132300000D01*
X140900000Y-131700000D02*
X140900000Y-132300000D01*
%TO.C,D3*%
X152700000Y-130840000D02*
X150800000Y-130840000D01*
X151300000Y-133160000D02*
X152700000Y-133160000D01*
%TO.C,J3*%
X142505000Y-135000000D02*
X142505000Y-143000000D01*
X152705000Y-135000000D02*
X152705000Y-143000000D01*
X142505000Y-135000000D02*
X152705000Y-135000000D01*
%TO.C,J2*%
X152450000Y-135000000D02*
X152450000Y-143000000D01*
X160150000Y-135000000D02*
X160150000Y-143000000D01*
X152450000Y-135000000D02*
X160150000Y-135000000D01*
%TO.C,R9*%
X134300000Y-129775000D02*
X134900000Y-129775000D01*
X134300000Y-128775000D02*
X134900000Y-128775000D01*
%TO.C,U5*%
X135300000Y-130840000D02*
X133400000Y-130840000D01*
X133900000Y-133160000D02*
X135300000Y-133160000D01*
%TO.C,R8*%
X119400000Y-118700000D02*
X119400000Y-119300000D01*
X118400000Y-118700000D02*
X118400000Y-119300000D01*
%TO.C,J4*%
X130050000Y-135000000D02*
X142750000Y-135000000D01*
X130050000Y-135000000D02*
X130050000Y-143000000D01*
X142750000Y-135000000D02*
X142750000Y-143000000D01*
%TD*%
M02*
