%TF.GenerationSoftware,KiCad,Pcbnew,(6.0.1-0)*%
%TF.CreationDate,2022-01-28T12:20:31+00:00*%
%TF.ProjectId,ASR33,41535233-332e-46b6-9963-61645f706362,1*%
%TF.SameCoordinates,Original*%
%TF.FileFunction,Legend,Bot*%
%TF.FilePolarity,Positive*%
%FSLAX46Y46*%
G04 Gerber Fmt 4.6, Leading zero omitted, Abs format (unit mm)*
G04 Created by KiCad (PCBNEW (6.0.1-0)) date 2022-01-28 12:20:31*
%MOMM*%
%LPD*%
G01*
G04 APERTURE LIST*
%ADD10C,0.100000*%
%ADD11C,0.200000*%
%ADD12C,0.120000*%
G04 APERTURE END LIST*
D10*
X146088095Y-133561904D02*
X145630952Y-133561904D01*
X145859523Y-134361904D02*
X145859523Y-133561904D01*
X145059523Y-134323809D02*
X145135714Y-134361904D01*
X145288095Y-134361904D01*
X145364285Y-134323809D01*
X145402380Y-134247619D01*
X145402380Y-133942857D01*
X145364285Y-133866666D01*
X145288095Y-133828571D01*
X145135714Y-133828571D01*
X145059523Y-133866666D01*
X145021428Y-133942857D01*
X145021428Y-134019047D01*
X145402380Y-134095238D01*
X144564285Y-134361904D02*
X144640476Y-134323809D01*
X144678571Y-134247619D01*
X144678571Y-133561904D01*
X143954761Y-134323809D02*
X144030952Y-134361904D01*
X144183333Y-134361904D01*
X144259523Y-134323809D01*
X144297619Y-134247619D01*
X144297619Y-133942857D01*
X144259523Y-133866666D01*
X144183333Y-133828571D01*
X144030952Y-133828571D01*
X143954761Y-133866666D01*
X143916666Y-133942857D01*
X143916666Y-134019047D01*
X144297619Y-134095238D01*
X143688095Y-133828571D02*
X143383333Y-133828571D01*
X143573809Y-133561904D02*
X143573809Y-134247619D01*
X143535714Y-134323809D01*
X143459523Y-134361904D01*
X143383333Y-134361904D01*
X143192857Y-133828571D02*
X143002380Y-134361904D01*
X142811904Y-133828571D02*
X143002380Y-134361904D01*
X143078571Y-134552380D01*
X143116666Y-134590476D01*
X143192857Y-134628571D01*
X142507142Y-133828571D02*
X142507142Y-134628571D01*
X142507142Y-133866666D02*
X142430952Y-133828571D01*
X142278571Y-133828571D01*
X142202380Y-133866666D01*
X142164285Y-133904761D01*
X142126190Y-133980952D01*
X142126190Y-134209523D01*
X142164285Y-134285714D01*
X142202380Y-134323809D01*
X142278571Y-134361904D01*
X142430952Y-134361904D01*
X142507142Y-134323809D01*
X141478571Y-134323809D02*
X141554761Y-134361904D01*
X141707142Y-134361904D01*
X141783333Y-134323809D01*
X141821428Y-134247619D01*
X141821428Y-133942857D01*
X141783333Y-133866666D01*
X141707142Y-133828571D01*
X141554761Y-133828571D01*
X141478571Y-133866666D01*
X141440476Y-133942857D01*
X141440476Y-134019047D01*
X141821428Y-134095238D01*
X140259523Y-134666666D02*
X140297619Y-134628571D01*
X140373809Y-134514285D01*
X140411904Y-134438095D01*
X140450000Y-134323809D01*
X140488095Y-134133333D01*
X140488095Y-133980952D01*
X140450000Y-133790476D01*
X140411904Y-133676190D01*
X140373809Y-133600000D01*
X140297619Y-133485714D01*
X140259523Y-133447619D01*
X139992857Y-133638095D02*
X139954761Y-133600000D01*
X139878571Y-133561904D01*
X139688095Y-133561904D01*
X139611904Y-133600000D01*
X139573809Y-133638095D01*
X139535714Y-133714285D01*
X139535714Y-133790476D01*
X139573809Y-133904761D01*
X140030952Y-134361904D01*
X139535714Y-134361904D01*
X139040476Y-133561904D02*
X138964285Y-133561904D01*
X138888095Y-133600000D01*
X138850000Y-133638095D01*
X138811904Y-133714285D01*
X138773809Y-133866666D01*
X138773809Y-134057142D01*
X138811904Y-134209523D01*
X138850000Y-134285714D01*
X138888095Y-134323809D01*
X138964285Y-134361904D01*
X139040476Y-134361904D01*
X139116666Y-134323809D01*
X139154761Y-134285714D01*
X139192857Y-134209523D01*
X139230952Y-134057142D01*
X139230952Y-133866666D01*
X139192857Y-133714285D01*
X139154761Y-133638095D01*
X139116666Y-133600000D01*
X139040476Y-133561904D01*
X138430952Y-134361904D02*
X138430952Y-133828571D01*
X138430952Y-133904761D02*
X138392857Y-133866666D01*
X138316666Y-133828571D01*
X138202380Y-133828571D01*
X138126190Y-133866666D01*
X138088095Y-133942857D01*
X138088095Y-134361904D01*
X138088095Y-133942857D02*
X138050000Y-133866666D01*
X137973809Y-133828571D01*
X137859523Y-133828571D01*
X137783333Y-133866666D01*
X137745238Y-133942857D01*
X137745238Y-134361904D01*
X137402380Y-134133333D02*
X137021428Y-134133333D01*
X137478571Y-134361904D02*
X137211904Y-133561904D01*
X136945238Y-134361904D01*
X136754761Y-134666666D02*
X136716666Y-134628571D01*
X136640476Y-134514285D01*
X136602380Y-134438095D01*
X136564285Y-134323809D01*
X136526190Y-134133333D01*
X136526190Y-133980952D01*
X136564285Y-133790476D01*
X136602380Y-133676190D01*
X136640476Y-133600000D01*
X136716666Y-133485714D01*
X136754761Y-133447619D01*
D11*
X144450000Y-117542500D02*
X143735714Y-117542500D01*
X144592857Y-117971071D02*
X144092857Y-116471071D01*
X143592857Y-117971071D01*
X143164285Y-117899642D02*
X142950000Y-117971071D01*
X142592857Y-117971071D01*
X142450000Y-117899642D01*
X142378571Y-117828214D01*
X142307142Y-117685357D01*
X142307142Y-117542500D01*
X142378571Y-117399642D01*
X142450000Y-117328214D01*
X142592857Y-117256785D01*
X142878571Y-117185357D01*
X143021428Y-117113928D01*
X143092857Y-117042500D01*
X143164285Y-116899642D01*
X143164285Y-116756785D01*
X143092857Y-116613928D01*
X143021428Y-116542500D01*
X142878571Y-116471071D01*
X142521428Y-116471071D01*
X142307142Y-116542500D01*
X140807142Y-117971071D02*
X141307142Y-117256785D01*
X141664285Y-117971071D02*
X141664285Y-116471071D01*
X141092857Y-116471071D01*
X140950000Y-116542500D01*
X140878571Y-116613928D01*
X140807142Y-116756785D01*
X140807142Y-116971071D01*
X140878571Y-117113928D01*
X140950000Y-117185357D01*
X141092857Y-117256785D01*
X141664285Y-117256785D01*
X140307142Y-116471071D02*
X139378571Y-116471071D01*
X139878571Y-117042500D01*
X139664285Y-117042500D01*
X139521428Y-117113928D01*
X139450000Y-117185357D01*
X139378571Y-117328214D01*
X139378571Y-117685357D01*
X139450000Y-117828214D01*
X139521428Y-117899642D01*
X139664285Y-117971071D01*
X140092857Y-117971071D01*
X140235714Y-117899642D01*
X140307142Y-117828214D01*
X138878571Y-116471071D02*
X137950000Y-116471071D01*
X138450000Y-117042500D01*
X138235714Y-117042500D01*
X138092857Y-117113928D01*
X138021428Y-117185357D01*
X137950000Y-117328214D01*
X137950000Y-117685357D01*
X138021428Y-117828214D01*
X138092857Y-117899642D01*
X138235714Y-117971071D01*
X138664285Y-117971071D01*
X138807142Y-117899642D01*
X138878571Y-117828214D01*
X145557142Y-120243214D02*
X145628571Y-120314642D01*
X145842857Y-120386071D01*
X145985714Y-120386071D01*
X146200000Y-120314642D01*
X146342857Y-120171785D01*
X146414285Y-120028928D01*
X146485714Y-119743214D01*
X146485714Y-119528928D01*
X146414285Y-119243214D01*
X146342857Y-119100357D01*
X146200000Y-118957500D01*
X145985714Y-118886071D01*
X145842857Y-118886071D01*
X145628571Y-118957500D01*
X145557142Y-119028928D01*
X144700000Y-120386071D02*
X144842857Y-120314642D01*
X144914285Y-120243214D01*
X144985714Y-120100357D01*
X144985714Y-119671785D01*
X144914285Y-119528928D01*
X144842857Y-119457500D01*
X144700000Y-119386071D01*
X144485714Y-119386071D01*
X144342857Y-119457500D01*
X144271428Y-119528928D01*
X144200000Y-119671785D01*
X144200000Y-120100357D01*
X144271428Y-120243214D01*
X144342857Y-120314642D01*
X144485714Y-120386071D01*
X144700000Y-120386071D01*
X143557142Y-119386071D02*
X143557142Y-120386071D01*
X143557142Y-119528928D02*
X143485714Y-119457500D01*
X143342857Y-119386071D01*
X143128571Y-119386071D01*
X142985714Y-119457500D01*
X142914285Y-119600357D01*
X142914285Y-120386071D01*
X142414285Y-119386071D02*
X141842857Y-119386071D01*
X142200000Y-118886071D02*
X142200000Y-120171785D01*
X142128571Y-120314642D01*
X141985714Y-120386071D01*
X141842857Y-120386071D01*
X141342857Y-120386071D02*
X141342857Y-119386071D01*
X141342857Y-119671785D02*
X141271428Y-119528928D01*
X141200000Y-119457500D01*
X141057142Y-119386071D01*
X140914285Y-119386071D01*
X140200000Y-120386071D02*
X140342857Y-120314642D01*
X140414285Y-120243214D01*
X140485714Y-120100357D01*
X140485714Y-119671785D01*
X140414285Y-119528928D01*
X140342857Y-119457500D01*
X140200000Y-119386071D01*
X139985714Y-119386071D01*
X139842857Y-119457500D01*
X139771428Y-119528928D01*
X139700000Y-119671785D01*
X139700000Y-120100357D01*
X139771428Y-120243214D01*
X139842857Y-120314642D01*
X139985714Y-120386071D01*
X140200000Y-120386071D01*
X138842857Y-120386071D02*
X138985714Y-120314642D01*
X139057142Y-120171785D01*
X139057142Y-118886071D01*
X138057142Y-120386071D02*
X138200000Y-120314642D01*
X138271428Y-120171785D01*
X138271428Y-118886071D01*
X136914285Y-120314642D02*
X137057142Y-120386071D01*
X137342857Y-120386071D01*
X137485714Y-120314642D01*
X137557142Y-120171785D01*
X137557142Y-119600357D01*
X137485714Y-119457500D01*
X137342857Y-119386071D01*
X137057142Y-119386071D01*
X136914285Y-119457500D01*
X136842857Y-119600357D01*
X136842857Y-119743214D01*
X137557142Y-119886071D01*
X136200000Y-120386071D02*
X136200000Y-119386071D01*
X136200000Y-119671785D02*
X136128571Y-119528928D01*
X136057142Y-119457500D01*
X135914285Y-119386071D01*
X135771428Y-119386071D01*
D10*
X158657142Y-134285714D02*
X158695238Y-134323809D01*
X158809523Y-134361904D01*
X158885714Y-134361904D01*
X159000000Y-134323809D01*
X159076190Y-134247619D01*
X159114285Y-134171428D01*
X159152380Y-134019047D01*
X159152380Y-133904761D01*
X159114285Y-133752380D01*
X159076190Y-133676190D01*
X159000000Y-133600000D01*
X158885714Y-133561904D01*
X158809523Y-133561904D01*
X158695238Y-133600000D01*
X158657142Y-133638095D01*
X158200000Y-134361904D02*
X158276190Y-134323809D01*
X158314285Y-134285714D01*
X158352380Y-134209523D01*
X158352380Y-133980952D01*
X158314285Y-133904761D01*
X158276190Y-133866666D01*
X158200000Y-133828571D01*
X158085714Y-133828571D01*
X158009523Y-133866666D01*
X157971428Y-133904761D01*
X157933333Y-133980952D01*
X157933333Y-134209523D01*
X157971428Y-134285714D01*
X158009523Y-134323809D01*
X158085714Y-134361904D01*
X158200000Y-134361904D01*
X157590476Y-133828571D02*
X157590476Y-134361904D01*
X157590476Y-133904761D02*
X157552380Y-133866666D01*
X157476190Y-133828571D01*
X157361904Y-133828571D01*
X157285714Y-133866666D01*
X157247619Y-133942857D01*
X157247619Y-134361904D01*
X156980952Y-133828571D02*
X156676190Y-133828571D01*
X156866666Y-133561904D02*
X156866666Y-134247619D01*
X156828571Y-134323809D01*
X156752380Y-134361904D01*
X156676190Y-134361904D01*
X156409523Y-134361904D02*
X156409523Y-133828571D01*
X156409523Y-133980952D02*
X156371428Y-133904761D01*
X156333333Y-133866666D01*
X156257142Y-133828571D01*
X156180952Y-133828571D01*
X155800000Y-134361904D02*
X155876190Y-134323809D01*
X155914285Y-134285714D01*
X155952380Y-134209523D01*
X155952380Y-133980952D01*
X155914285Y-133904761D01*
X155876190Y-133866666D01*
X155800000Y-133828571D01*
X155685714Y-133828571D01*
X155609523Y-133866666D01*
X155571428Y-133904761D01*
X155533333Y-133980952D01*
X155533333Y-134209523D01*
X155571428Y-134285714D01*
X155609523Y-134323809D01*
X155685714Y-134361904D01*
X155800000Y-134361904D01*
X155076190Y-134361904D02*
X155152380Y-134323809D01*
X155190476Y-134247619D01*
X155190476Y-133561904D01*
X153933333Y-134666666D02*
X153971428Y-134628571D01*
X154047619Y-134514285D01*
X154085714Y-134438095D01*
X154123809Y-134323809D01*
X154161904Y-134133333D01*
X154161904Y-133980952D01*
X154123809Y-133790476D01*
X154085714Y-133676190D01*
X154047619Y-133600000D01*
X153971428Y-133485714D01*
X153933333Y-133447619D01*
X153704761Y-133561904D02*
X153209523Y-133561904D01*
X153476190Y-133866666D01*
X153361904Y-133866666D01*
X153285714Y-133904761D01*
X153247619Y-133942857D01*
X153209523Y-134019047D01*
X153209523Y-134209523D01*
X153247619Y-134285714D01*
X153285714Y-134323809D01*
X153361904Y-134361904D01*
X153590476Y-134361904D01*
X153666666Y-134323809D01*
X153704761Y-134285714D01*
X152866666Y-134285714D02*
X152828571Y-134323809D01*
X152866666Y-134361904D01*
X152904761Y-134323809D01*
X152866666Y-134285714D01*
X152866666Y-134361904D01*
X152561904Y-133561904D02*
X152066666Y-133561904D01*
X152333333Y-133866666D01*
X152219047Y-133866666D01*
X152142857Y-133904761D01*
X152104761Y-133942857D01*
X152066666Y-134019047D01*
X152066666Y-134209523D01*
X152104761Y-134285714D01*
X152142857Y-134323809D01*
X152219047Y-134361904D01*
X152447619Y-134361904D01*
X152523809Y-134323809D01*
X152561904Y-134285714D01*
X151838095Y-133561904D02*
X151571428Y-134361904D01*
X151304761Y-133561904D01*
X151114285Y-134666666D02*
X151076190Y-134628571D01*
X151000000Y-134514285D01*
X150961904Y-134438095D01*
X150923809Y-134323809D01*
X150885714Y-134133333D01*
X150885714Y-133980952D01*
X150923809Y-133790476D01*
X150961904Y-133676190D01*
X151000000Y-133600000D01*
X151076190Y-133485714D01*
X151114285Y-133447619D01*
D12*
%TO.C,JP1*%
X138100000Y-131450000D02*
X138100000Y-132050000D01*
X138800000Y-132750000D02*
X140200000Y-132750000D01*
X140900000Y-132050000D02*
X140900000Y-131450000D01*
X140200000Y-130750000D02*
X138800000Y-130750000D01*
X138800000Y-130750000D02*
G75*
G03*
X138100000Y-131450000I-1J-699999D01*
G01*
X140900000Y-131450000D02*
G75*
G03*
X140200000Y-130750000I-699999J1D01*
G01*
X140200000Y-132750000D02*
G75*
G03*
X140900000Y-132050000I1J699999D01*
G01*
X138100000Y-132050000D02*
G75*
G03*
X138800000Y-132750000I699999J-1D01*
G01*
%TD*%
M02*
