%TF.GenerationSoftware,KiCad,Pcbnew,(6.0.1-0)*%
%TF.CreationDate,2022-01-28T13:52:13+00:00*%
%TF.ProjectId,ASR33,41535233-332e-46b6-9963-61645f706362,1*%
%TF.SameCoordinates,Original*%
%TF.FileFunction,Legend,Bot*%
%TF.FilePolarity,Positive*%
%FSLAX46Y46*%
G04 Gerber Fmt 4.6, Leading zero omitted, Abs format (unit mm)*
G04 Created by KiCad (PCBNEW (6.0.1-0)) date 2022-01-28 13:52:13*
%MOMM*%
%LPD*%
G01*
G04 APERTURE LIST*
%ADD10C,0.150000*%
%ADD11C,0.100000*%
%ADD12C,0.200000*%
%ADD13C,0.120000*%
G04 APERTURE END LIST*
D10*
X150000000Y-131750000D02*
X150000000Y-135250000D01*
X140900000Y-131750000D02*
X150000000Y-131750000D01*
X135000000Y-131750000D02*
X138100000Y-131750000D01*
X135000000Y-134750000D02*
X135000000Y-131750000D01*
D11*
X146088095Y-134061904D02*
X145630952Y-134061904D01*
X145859523Y-134861904D02*
X145859523Y-134061904D01*
X145059523Y-134823809D02*
X145135714Y-134861904D01*
X145288095Y-134861904D01*
X145364285Y-134823809D01*
X145402380Y-134747619D01*
X145402380Y-134442857D01*
X145364285Y-134366666D01*
X145288095Y-134328571D01*
X145135714Y-134328571D01*
X145059523Y-134366666D01*
X145021428Y-134442857D01*
X145021428Y-134519047D01*
X145402380Y-134595238D01*
X144564285Y-134861904D02*
X144640476Y-134823809D01*
X144678571Y-134747619D01*
X144678571Y-134061904D01*
X143954761Y-134823809D02*
X144030952Y-134861904D01*
X144183333Y-134861904D01*
X144259523Y-134823809D01*
X144297619Y-134747619D01*
X144297619Y-134442857D01*
X144259523Y-134366666D01*
X144183333Y-134328571D01*
X144030952Y-134328571D01*
X143954761Y-134366666D01*
X143916666Y-134442857D01*
X143916666Y-134519047D01*
X144297619Y-134595238D01*
X143688095Y-134328571D02*
X143383333Y-134328571D01*
X143573809Y-134061904D02*
X143573809Y-134747619D01*
X143535714Y-134823809D01*
X143459523Y-134861904D01*
X143383333Y-134861904D01*
X143192857Y-134328571D02*
X143002380Y-134861904D01*
X142811904Y-134328571D02*
X143002380Y-134861904D01*
X143078571Y-135052380D01*
X143116666Y-135090476D01*
X143192857Y-135128571D01*
X142507142Y-134328571D02*
X142507142Y-135128571D01*
X142507142Y-134366666D02*
X142430952Y-134328571D01*
X142278571Y-134328571D01*
X142202380Y-134366666D01*
X142164285Y-134404761D01*
X142126190Y-134480952D01*
X142126190Y-134709523D01*
X142164285Y-134785714D01*
X142202380Y-134823809D01*
X142278571Y-134861904D01*
X142430952Y-134861904D01*
X142507142Y-134823809D01*
X141478571Y-134823809D02*
X141554761Y-134861904D01*
X141707142Y-134861904D01*
X141783333Y-134823809D01*
X141821428Y-134747619D01*
X141821428Y-134442857D01*
X141783333Y-134366666D01*
X141707142Y-134328571D01*
X141554761Y-134328571D01*
X141478571Y-134366666D01*
X141440476Y-134442857D01*
X141440476Y-134519047D01*
X141821428Y-134595238D01*
X140259523Y-135166666D02*
X140297619Y-135128571D01*
X140373809Y-135014285D01*
X140411904Y-134938095D01*
X140450000Y-134823809D01*
X140488095Y-134633333D01*
X140488095Y-134480952D01*
X140450000Y-134290476D01*
X140411904Y-134176190D01*
X140373809Y-134100000D01*
X140297619Y-133985714D01*
X140259523Y-133947619D01*
X139992857Y-134138095D02*
X139954761Y-134100000D01*
X139878571Y-134061904D01*
X139688095Y-134061904D01*
X139611904Y-134100000D01*
X139573809Y-134138095D01*
X139535714Y-134214285D01*
X139535714Y-134290476D01*
X139573809Y-134404761D01*
X140030952Y-134861904D01*
X139535714Y-134861904D01*
X139040476Y-134061904D02*
X138964285Y-134061904D01*
X138888095Y-134100000D01*
X138850000Y-134138095D01*
X138811904Y-134214285D01*
X138773809Y-134366666D01*
X138773809Y-134557142D01*
X138811904Y-134709523D01*
X138850000Y-134785714D01*
X138888095Y-134823809D01*
X138964285Y-134861904D01*
X139040476Y-134861904D01*
X139116666Y-134823809D01*
X139154761Y-134785714D01*
X139192857Y-134709523D01*
X139230952Y-134557142D01*
X139230952Y-134366666D01*
X139192857Y-134214285D01*
X139154761Y-134138095D01*
X139116666Y-134100000D01*
X139040476Y-134061904D01*
X138430952Y-134861904D02*
X138430952Y-134328571D01*
X138430952Y-134404761D02*
X138392857Y-134366666D01*
X138316666Y-134328571D01*
X138202380Y-134328571D01*
X138126190Y-134366666D01*
X138088095Y-134442857D01*
X138088095Y-134861904D01*
X138088095Y-134442857D02*
X138050000Y-134366666D01*
X137973809Y-134328571D01*
X137859523Y-134328571D01*
X137783333Y-134366666D01*
X137745238Y-134442857D01*
X137745238Y-134861904D01*
X137402380Y-134633333D02*
X137021428Y-134633333D01*
X137478571Y-134861904D02*
X137211904Y-134061904D01*
X136945238Y-134861904D01*
X136754761Y-135166666D02*
X136716666Y-135128571D01*
X136640476Y-135014285D01*
X136602380Y-134938095D01*
X136564285Y-134823809D01*
X136526190Y-134633333D01*
X136526190Y-134480952D01*
X136564285Y-134290476D01*
X136602380Y-134176190D01*
X136640476Y-134100000D01*
X136716666Y-133985714D01*
X136754761Y-133947619D01*
D12*
X144450000Y-117542500D02*
X143735714Y-117542500D01*
X144592857Y-117971071D02*
X144092857Y-116471071D01*
X143592857Y-117971071D01*
X143164285Y-117899642D02*
X142950000Y-117971071D01*
X142592857Y-117971071D01*
X142450000Y-117899642D01*
X142378571Y-117828214D01*
X142307142Y-117685357D01*
X142307142Y-117542500D01*
X142378571Y-117399642D01*
X142450000Y-117328214D01*
X142592857Y-117256785D01*
X142878571Y-117185357D01*
X143021428Y-117113928D01*
X143092857Y-117042500D01*
X143164285Y-116899642D01*
X143164285Y-116756785D01*
X143092857Y-116613928D01*
X143021428Y-116542500D01*
X142878571Y-116471071D01*
X142521428Y-116471071D01*
X142307142Y-116542500D01*
X140807142Y-117971071D02*
X141307142Y-117256785D01*
X141664285Y-117971071D02*
X141664285Y-116471071D01*
X141092857Y-116471071D01*
X140950000Y-116542500D01*
X140878571Y-116613928D01*
X140807142Y-116756785D01*
X140807142Y-116971071D01*
X140878571Y-117113928D01*
X140950000Y-117185357D01*
X141092857Y-117256785D01*
X141664285Y-117256785D01*
X140307142Y-116471071D02*
X139378571Y-116471071D01*
X139878571Y-117042500D01*
X139664285Y-117042500D01*
X139521428Y-117113928D01*
X139450000Y-117185357D01*
X139378571Y-117328214D01*
X139378571Y-117685357D01*
X139450000Y-117828214D01*
X139521428Y-117899642D01*
X139664285Y-117971071D01*
X140092857Y-117971071D01*
X140235714Y-117899642D01*
X140307142Y-117828214D01*
X138878571Y-116471071D02*
X137950000Y-116471071D01*
X138450000Y-117042500D01*
X138235714Y-117042500D01*
X138092857Y-117113928D01*
X138021428Y-117185357D01*
X137950000Y-117328214D01*
X137950000Y-117685357D01*
X138021428Y-117828214D01*
X138092857Y-117899642D01*
X138235714Y-117971071D01*
X138664285Y-117971071D01*
X138807142Y-117899642D01*
X138878571Y-117828214D01*
X145557142Y-120243214D02*
X145628571Y-120314642D01*
X145842857Y-120386071D01*
X145985714Y-120386071D01*
X146200000Y-120314642D01*
X146342857Y-120171785D01*
X146414285Y-120028928D01*
X146485714Y-119743214D01*
X146485714Y-119528928D01*
X146414285Y-119243214D01*
X146342857Y-119100357D01*
X146200000Y-118957500D01*
X145985714Y-118886071D01*
X145842857Y-118886071D01*
X145628571Y-118957500D01*
X145557142Y-119028928D01*
X144700000Y-120386071D02*
X144842857Y-120314642D01*
X144914285Y-120243214D01*
X144985714Y-120100357D01*
X144985714Y-119671785D01*
X144914285Y-119528928D01*
X144842857Y-119457500D01*
X144700000Y-119386071D01*
X144485714Y-119386071D01*
X144342857Y-119457500D01*
X144271428Y-119528928D01*
X144200000Y-119671785D01*
X144200000Y-120100357D01*
X144271428Y-120243214D01*
X144342857Y-120314642D01*
X144485714Y-120386071D01*
X144700000Y-120386071D01*
X143557142Y-119386071D02*
X143557142Y-120386071D01*
X143557142Y-119528928D02*
X143485714Y-119457500D01*
X143342857Y-119386071D01*
X143128571Y-119386071D01*
X142985714Y-119457500D01*
X142914285Y-119600357D01*
X142914285Y-120386071D01*
X142414285Y-119386071D02*
X141842857Y-119386071D01*
X142200000Y-118886071D02*
X142200000Y-120171785D01*
X142128571Y-120314642D01*
X141985714Y-120386071D01*
X141842857Y-120386071D01*
X141342857Y-120386071D02*
X141342857Y-119386071D01*
X141342857Y-119671785D02*
X141271428Y-119528928D01*
X141200000Y-119457500D01*
X141057142Y-119386071D01*
X140914285Y-119386071D01*
X140200000Y-120386071D02*
X140342857Y-120314642D01*
X140414285Y-120243214D01*
X140485714Y-120100357D01*
X140485714Y-119671785D01*
X140414285Y-119528928D01*
X140342857Y-119457500D01*
X140200000Y-119386071D01*
X139985714Y-119386071D01*
X139842857Y-119457500D01*
X139771428Y-119528928D01*
X139700000Y-119671785D01*
X139700000Y-120100357D01*
X139771428Y-120243214D01*
X139842857Y-120314642D01*
X139985714Y-120386071D01*
X140200000Y-120386071D01*
X138842857Y-120386071D02*
X138985714Y-120314642D01*
X139057142Y-120171785D01*
X139057142Y-118886071D01*
X138057142Y-120386071D02*
X138200000Y-120314642D01*
X138271428Y-120171785D01*
X138271428Y-118886071D01*
X136914285Y-120314642D02*
X137057142Y-120386071D01*
X137342857Y-120386071D01*
X137485714Y-120314642D01*
X137557142Y-120171785D01*
X137557142Y-119600357D01*
X137485714Y-119457500D01*
X137342857Y-119386071D01*
X137057142Y-119386071D01*
X136914285Y-119457500D01*
X136842857Y-119600357D01*
X136842857Y-119743214D01*
X137557142Y-119886071D01*
X136200000Y-120386071D02*
X136200000Y-119386071D01*
X136200000Y-119671785D02*
X136128571Y-119528928D01*
X136057142Y-119457500D01*
X135914285Y-119386071D01*
X135771428Y-119386071D01*
D11*
X158657142Y-134785714D02*
X158695238Y-134823809D01*
X158809523Y-134861904D01*
X158885714Y-134861904D01*
X159000000Y-134823809D01*
X159076190Y-134747619D01*
X159114285Y-134671428D01*
X159152380Y-134519047D01*
X159152380Y-134404761D01*
X159114285Y-134252380D01*
X159076190Y-134176190D01*
X159000000Y-134100000D01*
X158885714Y-134061904D01*
X158809523Y-134061904D01*
X158695238Y-134100000D01*
X158657142Y-134138095D01*
X158200000Y-134861904D02*
X158276190Y-134823809D01*
X158314285Y-134785714D01*
X158352380Y-134709523D01*
X158352380Y-134480952D01*
X158314285Y-134404761D01*
X158276190Y-134366666D01*
X158200000Y-134328571D01*
X158085714Y-134328571D01*
X158009523Y-134366666D01*
X157971428Y-134404761D01*
X157933333Y-134480952D01*
X157933333Y-134709523D01*
X157971428Y-134785714D01*
X158009523Y-134823809D01*
X158085714Y-134861904D01*
X158200000Y-134861904D01*
X157590476Y-134328571D02*
X157590476Y-134861904D01*
X157590476Y-134404761D02*
X157552380Y-134366666D01*
X157476190Y-134328571D01*
X157361904Y-134328571D01*
X157285714Y-134366666D01*
X157247619Y-134442857D01*
X157247619Y-134861904D01*
X156980952Y-134328571D02*
X156676190Y-134328571D01*
X156866666Y-134061904D02*
X156866666Y-134747619D01*
X156828571Y-134823809D01*
X156752380Y-134861904D01*
X156676190Y-134861904D01*
X156409523Y-134861904D02*
X156409523Y-134328571D01*
X156409523Y-134480952D02*
X156371428Y-134404761D01*
X156333333Y-134366666D01*
X156257142Y-134328571D01*
X156180952Y-134328571D01*
X155800000Y-134861904D02*
X155876190Y-134823809D01*
X155914285Y-134785714D01*
X155952380Y-134709523D01*
X155952380Y-134480952D01*
X155914285Y-134404761D01*
X155876190Y-134366666D01*
X155800000Y-134328571D01*
X155685714Y-134328571D01*
X155609523Y-134366666D01*
X155571428Y-134404761D01*
X155533333Y-134480952D01*
X155533333Y-134709523D01*
X155571428Y-134785714D01*
X155609523Y-134823809D01*
X155685714Y-134861904D01*
X155800000Y-134861904D01*
X155076190Y-134861904D02*
X155152380Y-134823809D01*
X155190476Y-134747619D01*
X155190476Y-134061904D01*
X153933333Y-135166666D02*
X153971428Y-135128571D01*
X154047619Y-135014285D01*
X154085714Y-134938095D01*
X154123809Y-134823809D01*
X154161904Y-134633333D01*
X154161904Y-134480952D01*
X154123809Y-134290476D01*
X154085714Y-134176190D01*
X154047619Y-134100000D01*
X153971428Y-133985714D01*
X153933333Y-133947619D01*
X153704761Y-134061904D02*
X153209523Y-134061904D01*
X153476190Y-134366666D01*
X153361904Y-134366666D01*
X153285714Y-134404761D01*
X153247619Y-134442857D01*
X153209523Y-134519047D01*
X153209523Y-134709523D01*
X153247619Y-134785714D01*
X153285714Y-134823809D01*
X153361904Y-134861904D01*
X153590476Y-134861904D01*
X153666666Y-134823809D01*
X153704761Y-134785714D01*
X152866666Y-134785714D02*
X152828571Y-134823809D01*
X152866666Y-134861904D01*
X152904761Y-134823809D01*
X152866666Y-134785714D01*
X152866666Y-134861904D01*
X152561904Y-134061904D02*
X152066666Y-134061904D01*
X152333333Y-134366666D01*
X152219047Y-134366666D01*
X152142857Y-134404761D01*
X152104761Y-134442857D01*
X152066666Y-134519047D01*
X152066666Y-134709523D01*
X152104761Y-134785714D01*
X152142857Y-134823809D01*
X152219047Y-134861904D01*
X152447619Y-134861904D01*
X152523809Y-134823809D01*
X152561904Y-134785714D01*
X151838095Y-134061904D02*
X151571428Y-134861904D01*
X151304761Y-134061904D01*
X151114285Y-135166666D02*
X151076190Y-135128571D01*
X151000000Y-135014285D01*
X150961904Y-134938095D01*
X150923809Y-134823809D01*
X150885714Y-134633333D01*
X150885714Y-134480952D01*
X150923809Y-134290476D01*
X150961904Y-134176190D01*
X151000000Y-134100000D01*
X151076190Y-133985714D01*
X151114285Y-133947619D01*
D13*
%TO.C,JP1*%
X138100000Y-131450000D02*
X138100000Y-132050000D01*
X138800000Y-132750000D02*
X140200000Y-132750000D01*
X140900000Y-132050000D02*
X140900000Y-131450000D01*
X140200000Y-130750000D02*
X138800000Y-130750000D01*
X138800000Y-130750000D02*
G75*
G03*
X138100000Y-131450000I-1J-699999D01*
G01*
X140900000Y-131450000D02*
G75*
G03*
X140200000Y-130750000I-699999J1D01*
G01*
X140200000Y-132750000D02*
G75*
G03*
X140900000Y-132050000I1J699999D01*
G01*
X138100000Y-132050000D02*
G75*
G03*
X138800000Y-132750000I699999J-1D01*
G01*
%TD*%
M02*
