%TF.GenerationSoftware,KiCad,Pcbnew,(6.0.5-0)*%
%TF.CreationDate,2022-06-23T08:48:37+01:00*%
%TF.ProjectId,ASR33,41535233-332e-46b6-9963-61645f706362,1*%
%TF.SameCoordinates,Original*%
%TF.FileFunction,Soldermask,Top*%
%TF.FilePolarity,Negative*%
%FSLAX46Y46*%
G04 Gerber Fmt 4.6, Leading zero omitted, Abs format (unit mm)*
G04 Created by KiCad (PCBNEW (6.0.5-0)) date 2022-06-23 08:48:37*
%MOMM*%
%LPD*%
G01*
G04 APERTURE LIST*
G04 Aperture macros list*
%AMRoundRect*
0 Rectangle with rounded corners*
0 $1 Rounding radius*
0 $2 $3 $4 $5 $6 $7 $8 $9 X,Y pos of 4 corners*
0 Add a 4 corners polygon primitive as box body*
4,1,4,$2,$3,$4,$5,$6,$7,$8,$9,$2,$3,0*
0 Add four circle primitives for the rounded corners*
1,1,$1+$1,$2,$3*
1,1,$1+$1,$4,$5*
1,1,$1+$1,$6,$7*
1,1,$1+$1,$8,$9*
0 Add four rect primitives between the rounded corners*
20,1,$1+$1,$2,$3,$4,$5,0*
20,1,$1+$1,$4,$5,$6,$7,0*
20,1,$1+$1,$6,$7,$8,$9,0*
20,1,$1+$1,$8,$9,$2,$3,0*%
%AMOutline5P*
0 Free polygon, 5 corners , with rotation*
0 The origin of the aperture is its center*
0 number of corners: always 5*
0 $1 to $10 corner X, Y*
0 $11 Rotation angle, in degrees counterclockwise*
0 create outline with 5 corners*
4,1,5,$1,$2,$3,$4,$5,$6,$7,$8,$9,$10,$1,$2,$11*%
%AMOutline6P*
0 Free polygon, 6 corners , with rotation*
0 The origin of the aperture is its center*
0 number of corners: always 6*
0 $1 to $12 corner X, Y*
0 $13 Rotation angle, in degrees counterclockwise*
0 create outline with 6 corners*
4,1,6,$1,$2,$3,$4,$5,$6,$7,$8,$9,$10,$11,$12,$1,$2,$13*%
%AMOutline7P*
0 Free polygon, 7 corners , with rotation*
0 The origin of the aperture is its center*
0 number of corners: always 7*
0 $1 to $14 corner X, Y*
0 $15 Rotation angle, in degrees counterclockwise*
0 create outline with 7 corners*
4,1,7,$1,$2,$3,$4,$5,$6,$7,$8,$9,$10,$11,$12,$13,$14,$1,$2,$15*%
%AMOutline8P*
0 Free polygon, 8 corners , with rotation*
0 The origin of the aperture is its center*
0 number of corners: always 8*
0 $1 to $16 corner X, Y*
0 $17 Rotation angle, in degrees counterclockwise*
0 create outline with 8 corners*
4,1,8,$1,$2,$3,$4,$5,$6,$7,$8,$9,$10,$11,$12,$13,$14,$15,$16,$1,$2,$17*%
G04 Aperture macros list end*
%ADD10RoundRect,0.250000X0.625000X-0.375000X0.625000X0.375000X-0.625000X0.375000X-0.625000X-0.375000X0*%
%ADD11R,1.140000X0.600000*%
%ADD12RoundRect,0.075000X-0.495000X0.075000X-0.495000X-0.075000X0.495000X-0.075000X0.495000X0.075000X0*%
%ADD13C,0.800000*%
%ADD14C,1.250000*%
%ADD15C,1.500000*%
%ADD16R,5.490000X5.000000*%
%ADD17RoundRect,0.137500X-0.262500X-0.137500X0.262500X-0.137500X0.262500X0.137500X-0.262500X0.137500X0*%
%ADD18RoundRect,0.200000X-0.200000X-0.275000X0.200000X-0.275000X0.200000X0.275000X-0.200000X0.275000X0*%
%ADD19RoundRect,0.200000X0.275000X-0.200000X0.275000X0.200000X-0.275000X0.200000X-0.275000X-0.200000X0*%
%ADD20RoundRect,0.062500X-0.062500X0.287500X-0.062500X-0.287500X0.062500X-0.287500X0.062500X0.287500X0*%
%ADD21RoundRect,0.062500X-0.287500X0.062500X-0.287500X-0.062500X0.287500X-0.062500X0.287500X0.062500X0*%
%ADD22Outline5P,-1.000000X0.750000X-0.750000X1.000000X1.000000X1.000000X1.000000X-1.000000X-1.000000X-1.000000X270.000000*%
%ADD23R,0.640000X2.000000*%
%ADD24RoundRect,0.225000X-0.225000X-0.250000X0.225000X-0.250000X0.225000X0.250000X-0.225000X0.250000X0*%
%ADD25RoundRect,0.256250X-0.443750X0.256250X-0.443750X-0.256250X0.443750X-0.256250X0.443750X0.256250X0*%
%ADD26RoundRect,0.247500X-0.627500X0.315000X-0.627500X-0.315000X0.627500X-0.315000X0.627500X0.315000X0*%
%ADD27RoundRect,0.250000X-0.600000X-0.675000X0.600000X-0.675000X0.600000X0.675000X-0.600000X0.675000X0*%
%ADD28O,1.700000X1.850000*%
%ADD29RoundRect,0.200000X-0.275000X0.200000X-0.275000X-0.200000X0.275000X-0.200000X0.275000X0.200000X0*%
%ADD30R,0.400000X0.800000*%
%ADD31R,0.800000X0.400000*%
%ADD32R,1.450000X1.450000*%
%ADD33Outline5P,-0.725000X0.130500X-0.130500X0.725000X0.725000X0.725000X0.725000X-0.725000X-0.725000X-0.725000X270.000000*%
%ADD34R,0.700000X0.700000*%
%ADD35R,0.650000X0.400000*%
%ADD36R,0.850000X0.500000*%
%ADD37RoundRect,0.150000X0.150000X-0.587500X0.150000X0.587500X-0.150000X0.587500X-0.150000X-0.587500X0*%
%ADD38RoundRect,0.225000X0.250000X-0.225000X0.250000X0.225000X-0.250000X0.225000X-0.250000X-0.225000X0*%
%ADD39R,0.600000X1.100000*%
%ADD40R,1.425000X3.700000*%
%ADD41RoundRect,0.249375X-0.463125X-0.625625X0.463125X-0.625625X0.463125X0.625625X-0.463125X0.625625X0*%
%ADD42RoundRect,0.250000X-0.475000X0.250000X-0.475000X-0.250000X0.475000X-0.250000X0.475000X0.250000X0*%
%ADD43RoundRect,0.200000X0.200000X0.275000X-0.200000X0.275000X-0.200000X-0.275000X0.200000X-0.275000X0*%
%ADD44C,2.000000*%
%ADD45RoundRect,0.225000X-0.250000X0.225000X-0.250000X-0.225000X0.250000X-0.225000X0.250000X0.225000X0*%
G04 APERTURE END LIST*
%TO.C,JP1*%
G36*
X145850000Y-105450000D02*
G01*
X144150000Y-105450000D01*
X144150000Y-105050000D01*
X145850000Y-105050000D01*
X145850000Y-105450000D01*
G37*
%TD*%
D10*
%TO.C,D4*%
X130750000Y-107150000D03*
X130750000Y-104350000D03*
%TD*%
D11*
%TO.C,J1*%
X126860000Y-103800000D03*
X126860000Y-104600000D03*
D12*
X126860000Y-105750000D03*
X126860000Y-106750000D03*
X126860000Y-107250000D03*
X126860000Y-108250000D03*
D11*
X126860000Y-110200000D03*
X126860000Y-109400000D03*
D12*
X126860000Y-108750000D03*
X126860000Y-107750000D03*
X126860000Y-106250000D03*
X126860000Y-105250000D03*
D13*
X125790000Y-109890000D03*
D14*
X122110000Y-111320000D03*
D15*
X126280000Y-111320000D03*
X126280000Y-102680000D03*
D13*
X125790000Y-104110000D03*
D14*
X122110000Y-102680000D03*
D16*
X122745000Y-107000000D03*
%TD*%
D17*
%TO.C,U4*%
X143800000Y-109300000D03*
X143800000Y-110250000D03*
X143800000Y-111200000D03*
X146200000Y-111200000D03*
X146200000Y-110250000D03*
X146200000Y-109300000D03*
%TD*%
D18*
%TO.C,R6*%
X144175000Y-99750000D03*
X145825000Y-99750000D03*
%TD*%
D19*
%TO.C,R1*%
X142000000Y-96075000D03*
X142000000Y-94425000D03*
%TD*%
D20*
%TO.C,U2*%
X139000000Y-94600000D03*
X138500000Y-94600000D03*
X138000000Y-94600000D03*
X137500000Y-94600000D03*
X137000000Y-94600000D03*
D21*
X136100000Y-95500000D03*
X136100000Y-96000000D03*
X136100000Y-96500000D03*
X136100000Y-97000000D03*
X136100000Y-97500000D03*
D20*
X137000000Y-98400000D03*
X137500000Y-98400000D03*
X138000000Y-98400000D03*
X138500000Y-98400000D03*
X139000000Y-98400000D03*
D21*
X139900000Y-97500000D03*
X139900000Y-97000000D03*
X139900000Y-96500000D03*
X139900000Y-96000000D03*
X139900000Y-95500000D03*
D22*
X138000000Y-96500000D03*
%TD*%
D23*
%TO.C,U5*%
X139730000Y-110650000D03*
X142270000Y-110650000D03*
X142270000Y-104350000D03*
X139730000Y-104350000D03*
%TD*%
D24*
%TO.C,C4*%
X129475000Y-103000000D03*
X131025000Y-103000000D03*
%TD*%
D25*
%TO.C,JP1*%
X145000000Y-104337500D03*
D26*
X145000000Y-103787500D03*
X145000000Y-106712500D03*
D25*
X145000000Y-106162500D03*
%TD*%
D19*
%TO.C,R12*%
X120750000Y-98825000D03*
X120750000Y-97175000D03*
%TD*%
D27*
%TO.C,J5*%
X130000000Y-113400000D03*
D28*
X132500000Y-113400000D03*
X135000000Y-113400000D03*
%TD*%
D24*
%TO.C,C3*%
X133225000Y-94750000D03*
X134775000Y-94750000D03*
%TD*%
D17*
%TO.C,U3*%
X134050000Y-109300000D03*
X134050000Y-110250000D03*
X134050000Y-111200000D03*
X136450000Y-111200000D03*
X136450000Y-110250000D03*
X136450000Y-109300000D03*
%TD*%
D19*
%TO.C,R8*%
X128250000Y-110325000D03*
X128250000Y-108675000D03*
%TD*%
D29*
%TO.C,R11*%
X120750000Y-94175000D03*
X120750000Y-95825000D03*
%TD*%
D19*
%TO.C,R7*%
X128250000Y-105325000D03*
X128250000Y-103675000D03*
%TD*%
%TO.C,R2*%
X131250000Y-101825000D03*
X131250000Y-100175000D03*
%TD*%
D30*
%TO.C,U1*%
X157056750Y-94350000D03*
X156256750Y-94350000D03*
X155456750Y-94350000D03*
X154656750Y-94350000D03*
X153856750Y-94350000D03*
X153056750Y-94350000D03*
X152256750Y-94350000D03*
X151456750Y-94350000D03*
X150656750Y-94350000D03*
X149856750Y-94350000D03*
X149056750Y-94350000D03*
D31*
X148156750Y-95450000D03*
X148156750Y-96250000D03*
X148156750Y-97050000D03*
X148156750Y-97850000D03*
X148156750Y-98650000D03*
X148156750Y-99450000D03*
X148156750Y-100250000D03*
X148156750Y-101050000D03*
X148156750Y-101850000D03*
X148156750Y-102650000D03*
X148156750Y-103450000D03*
X148156750Y-104250000D03*
X148156750Y-105050000D03*
D30*
X149056750Y-106150000D03*
X149856750Y-106150000D03*
X150656750Y-106150000D03*
X151456750Y-106150000D03*
X152256750Y-106150000D03*
X153056750Y-106150000D03*
X153856750Y-106150000D03*
X154656750Y-106150000D03*
X155456750Y-106150000D03*
X156256750Y-106150000D03*
X157056750Y-106150000D03*
D31*
X157956750Y-105050000D03*
X157956750Y-104250000D03*
X157956750Y-103450000D03*
X157956750Y-102650000D03*
X157956750Y-101850000D03*
X157956750Y-101050000D03*
X157956750Y-100250000D03*
X157956750Y-99450000D03*
X157956750Y-98650000D03*
X157956750Y-97850000D03*
X157956750Y-97050000D03*
X157956750Y-96250000D03*
X157956750Y-95450000D03*
D32*
X153056750Y-98275000D03*
X151081750Y-100250000D03*
X155031750Y-102225000D03*
X155031750Y-100250000D03*
X153056750Y-100250000D03*
X151081750Y-98275000D03*
D33*
X155031750Y-98275000D03*
D32*
X153056750Y-102225000D03*
X151081750Y-102225000D03*
D34*
X158006750Y-106200000D03*
X148106750Y-106200000D03*
X148106750Y-94300000D03*
X158006750Y-94300000D03*
%TD*%
D35*
%TO.C,D2*%
X154800000Y-109600000D03*
X154800000Y-110250000D03*
X154800000Y-110900000D03*
X156700000Y-110900000D03*
X156700000Y-110250000D03*
X156700000Y-109600000D03*
%TD*%
D24*
%TO.C,C2*%
X133225000Y-98500000D03*
X134775000Y-98500000D03*
%TD*%
D18*
%TO.C,R4*%
X144175000Y-97250000D03*
X145825000Y-97250000D03*
%TD*%
D36*
%TO.C,D1*%
X145875000Y-96000000D03*
X144125000Y-96000000D03*
X144125000Y-95000000D03*
X145875000Y-95000000D03*
%TD*%
D18*
%TO.C,R9*%
X133175000Y-97250000D03*
X134825000Y-97250000D03*
%TD*%
D19*
%TO.C,R3*%
X131250000Y-99075000D03*
X131250000Y-97425000D03*
%TD*%
D37*
%TO.C,Q1*%
X130800000Y-110937500D03*
X132700000Y-110937500D03*
X131750000Y-109062500D03*
%TD*%
D38*
%TO.C,U6*%
X122200000Y-98025000D03*
D39*
X125250000Y-95650000D03*
D40*
X126700000Y-97050000D03*
D38*
X122200000Y-96475000D03*
D41*
X125097500Y-100170000D03*
D39*
X125250000Y-98350000D03*
X123350000Y-98350000D03*
X124300000Y-98350000D03*
D42*
X123450000Y-99600000D03*
X129700000Y-101500000D03*
X123450000Y-101500000D03*
D39*
X124300000Y-95650000D03*
D41*
X128062500Y-100170000D03*
D40*
X129700000Y-97050000D03*
D42*
X129700000Y-99600000D03*
D39*
X123350000Y-95650000D03*
%TD*%
D27*
%TO.C,J6*%
X140000000Y-113400000D03*
D28*
X142500000Y-113400000D03*
X145000000Y-113400000D03*
%TD*%
D18*
%TO.C,R5*%
X144175000Y-98500000D03*
X145825000Y-98500000D03*
%TD*%
D43*
%TO.C,R10*%
X134825000Y-96000000D03*
X133175000Y-96000000D03*
%TD*%
D27*
%TO.C,J2*%
X122500000Y-113400000D03*
D28*
X125000000Y-113400000D03*
%TD*%
D44*
%TO.C,SW1*%
X133250000Y-100500000D03*
X133250000Y-107000000D03*
X137750000Y-107000000D03*
X137750000Y-100500000D03*
%TD*%
D27*
%TO.C,J3*%
X157500000Y-113400000D03*
D28*
X160000000Y-113400000D03*
X162500000Y-113400000D03*
%TD*%
D35*
%TO.C,D3*%
X150300000Y-109600000D03*
X150300000Y-110250000D03*
X150300000Y-110900000D03*
X152200000Y-110900000D03*
X152200000Y-110250000D03*
X152200000Y-109600000D03*
%TD*%
D27*
%TO.C,J4*%
X150000000Y-113400000D03*
D28*
X152500000Y-113400000D03*
%TD*%
D45*
%TO.C,C1*%
X142000000Y-97975000D03*
X142000000Y-99525000D03*
%TD*%
M02*
