M48
; DRILL file {KiCad (6.0.1-0)} date Sunday, 23 January 2022 at 16:01:31
; FORMAT={-:-/ absolute / inch / decimal}
; #@! TF.CreationDate,2022-01-23T16:01:31+00:00
; #@! TF.GenerationSoftware,Kicad,Pcbnew,(6.0.1-0)
; #@! TF.FileFunction,Plated,1,2,PTH
FMAT,2
INCH
; #@! TA.AperFunction,Plated,PTH,ComponentDrill
T1C0.0098
; #@! TA.AperFunction,Plated,PTH,ViaDrill
T2C0.0157
; #@! TA.AperFunction,Plated,PTH,ComponentDrill
T3C0.0236
; #@! TA.AperFunction,Plated,PTH,ComponentDrill
T4C0.0335
; #@! TA.AperFunction,Plated,PTH,ComponentDrill
T5C0.0394
; #@! TA.AperFunction,Plated,PTH,ComponentDrill
T6C0.0492
%
G90
G05
T1
X5.0079Y-4.9724
T2
X4.689Y-4.4764
X4.8031Y-4.9961
X4.8268Y-4.2953
X4.8464Y-5.1373
X4.8976Y-4.9252
X4.9173Y-5.1378
X4.9449Y-4.6457
X4.9724Y-4.8543
X4.9961Y-4.4606
X5.0Y-5.1614
X5.0039Y-4.3425
X5.0401Y-4.8595
X5.0669Y-4.815
X5.0709Y-4.3189
X5.0906Y-5.0551
X5.1614Y-5.0079
X5.1811Y-4.9606
X5.2323Y-5.2874
X5.2638Y-5.1339
X5.3929Y-4.8465
X5.4528Y-5.2362
X5.4606Y-5.1024
X5.5197Y-5.0276
X5.5669Y-5.0276
X5.5709Y-4.4213
X5.5787Y-5.1024
X5.6024Y-5.2559
X5.622Y-4.3937
X5.6693Y-4.3583
X5.7244Y-4.5866
X5.7756Y-4.4646
X5.8189Y-4.8937
X5.8543Y-5.311
X5.8661Y-4.8976
X5.8976Y-5.1142
X5.9173Y-4.5276
X5.9449Y-5.2559
X5.9646Y-4.5787
X5.9724Y-5.1142
T3
X4.7484Y-5.402
X4.976Y-5.402
T4
X5.2224Y-5.3701
X5.3209Y-5.3701
X5.4193Y-5.3701
X5.5177Y-5.3701
X5.7128Y-5.3701
X5.8112Y-5.3701
X5.9096Y-5.3701
X6.1043Y-5.3701
X6.2028Y-5.3701
T5
X4.6921Y-5.5469
X5.0323Y-5.5469
T6
X4.6921Y-5.3827
X5.0323Y-5.3827
T0
M30
