%TF.GenerationSoftware,KiCad,Pcbnew,(6.0.2-0)*%
%TF.CreationDate,2022-02-23T09:01:42+00:00*%
%TF.ProjectId,ASR33,41535233-332e-46b6-9963-61645f706362,1*%
%TF.SameCoordinates,Original*%
%TF.FileFunction,Legend,Top*%
%TF.FilePolarity,Positive*%
%FSLAX46Y46*%
G04 Gerber Fmt 4.6, Leading zero omitted, Abs format (unit mm)*
G04 Created by KiCad (PCBNEW (6.0.2-0)) date 2022-02-23 09:01:42*
%MOMM*%
%LPD*%
G01*
G04 APERTURE LIST*
%ADD10C,0.200000*%
%ADD11C,0.120000*%
G04 APERTURE END LIST*
D10*
X162047619Y-116285714D02*
X163047619Y-116285714D01*
X162333333Y-116619047D01*
X163047619Y-116952380D01*
X162047619Y-116952380D01*
X163047619Y-117285714D02*
X163047619Y-117857142D01*
X162047619Y-117571428D02*
X163047619Y-117571428D01*
X162047619Y-118761904D02*
X162523809Y-118428571D01*
X162047619Y-118190476D02*
X163047619Y-118190476D01*
X163047619Y-118571428D01*
X163000000Y-118666666D01*
X162952380Y-118714285D01*
X162857142Y-118761904D01*
X162714285Y-118761904D01*
X162619047Y-118714285D01*
X162571428Y-118666666D01*
X162523809Y-118571428D01*
X162523809Y-118190476D01*
X122619047Y-117023809D02*
X122619047Y-117976190D01*
X122333333Y-117214285D02*
X122333333Y-117785714D01*
X123047619Y-117500000D02*
X122619047Y-117500000D01*
X122047619Y-117595238D02*
X122047619Y-117404761D01*
X152047619Y-116761904D02*
X152523809Y-116428571D01*
X152047619Y-116190476D02*
X153047619Y-116190476D01*
X153047619Y-116571428D01*
X153000000Y-116666666D01*
X152952380Y-116714285D01*
X152857142Y-116761904D01*
X152714285Y-116761904D01*
X152619047Y-116714285D01*
X152571428Y-116666666D01*
X152523809Y-116571428D01*
X152523809Y-116190476D01*
X153047619Y-117190476D02*
X152238095Y-117190476D01*
X152142857Y-117238095D01*
X152095238Y-117285714D01*
X152047619Y-117380952D01*
X152047619Y-117571428D01*
X152095238Y-117666666D01*
X152142857Y-117714285D01*
X152238095Y-117761904D01*
X153047619Y-117761904D01*
X152047619Y-118238095D02*
X153047619Y-118238095D01*
X152047619Y-118809523D01*
X153047619Y-118809523D01*
X157619047Y-117023809D02*
X157619047Y-117976190D01*
X157333333Y-117214285D02*
X157333333Y-117785714D01*
X158047619Y-117500000D02*
X157619047Y-117500000D01*
X157047619Y-117595238D02*
X157047619Y-117404761D01*
X130547619Y-116119047D02*
X130547619Y-116690476D01*
X129547619Y-116404761D02*
X130547619Y-116404761D01*
X130547619Y-116928571D02*
X129547619Y-117595238D01*
X130547619Y-117595238D02*
X129547619Y-116928571D01*
X130119047Y-117880952D02*
X130119047Y-118833333D01*
X129833333Y-118071428D02*
X129833333Y-118642857D01*
X130547619Y-118357142D02*
X130119047Y-118357142D01*
X129547619Y-118452380D02*
X129547619Y-118261904D01*
X133047619Y-116119047D02*
X133047619Y-116690476D01*
X132047619Y-116404761D02*
X133047619Y-116404761D01*
X133047619Y-116928571D02*
X132047619Y-117595238D01*
X133047619Y-117595238D02*
X132047619Y-116928571D01*
X132428571Y-118738095D02*
X132428571Y-117976190D01*
X132238095Y-118166666D02*
X132428571Y-117976190D01*
X132619047Y-118166666D01*
X159547619Y-116166666D02*
X160547619Y-116166666D01*
X160547619Y-116547619D01*
X160500000Y-116642857D01*
X160452380Y-116690476D01*
X160357142Y-116738095D01*
X160214285Y-116738095D01*
X160119047Y-116690476D01*
X160071428Y-116642857D01*
X160023809Y-116547619D01*
X160023809Y-116166666D01*
X160547619Y-117071428D02*
X159547619Y-117309523D01*
X160261904Y-117500000D01*
X159547619Y-117690476D01*
X160547619Y-117928571D01*
X159547619Y-118880952D02*
X160023809Y-118547619D01*
X159547619Y-118309523D02*
X160547619Y-118309523D01*
X160547619Y-118690476D01*
X160500000Y-118785714D01*
X160452380Y-118833333D01*
X160357142Y-118880952D01*
X160214285Y-118880952D01*
X160119047Y-118833333D01*
X160071428Y-118785714D01*
X160023809Y-118690476D01*
X160023809Y-118309523D01*
X135547619Y-116119047D02*
X135547619Y-116690476D01*
X134547619Y-116404761D02*
X135547619Y-116404761D01*
X135547619Y-116928571D02*
X134547619Y-117595238D01*
X135547619Y-117595238D02*
X134547619Y-116928571D01*
X134928571Y-117976190D02*
X134928571Y-118738095D01*
X134738095Y-118547619D02*
X134928571Y-118738095D01*
X135119047Y-118547619D01*
X150119047Y-117023809D02*
X150119047Y-117976190D01*
X149833333Y-117214285D02*
X149833333Y-117785714D01*
X150547619Y-117500000D02*
X150119047Y-117500000D01*
X149547619Y-117595238D02*
X149547619Y-117404761D01*
X142047619Y-116714285D02*
X142523809Y-116380952D01*
X142047619Y-116142857D02*
X143047619Y-116142857D01*
X143047619Y-116523809D01*
X143000000Y-116619047D01*
X142952380Y-116666666D01*
X142857142Y-116714285D01*
X142714285Y-116714285D01*
X142619047Y-116666666D01*
X142571428Y-116619047D01*
X142523809Y-116523809D01*
X142523809Y-116142857D01*
X143047619Y-117047619D02*
X142047619Y-117714285D01*
X143047619Y-117714285D02*
X142047619Y-117047619D01*
X142428571Y-118857142D02*
X142428571Y-118095238D01*
X142238095Y-118285714D02*
X142428571Y-118095238D01*
X142619047Y-118285714D01*
X139547619Y-116714285D02*
X140023809Y-116380952D01*
X139547619Y-116142857D02*
X140547619Y-116142857D01*
X140547619Y-116523809D01*
X140500000Y-116619047D01*
X140452380Y-116666666D01*
X140357142Y-116714285D01*
X140214285Y-116714285D01*
X140119047Y-116666666D01*
X140071428Y-116619047D01*
X140023809Y-116523809D01*
X140023809Y-116142857D01*
X140547619Y-117047619D02*
X139547619Y-117714285D01*
X140547619Y-117714285D02*
X139547619Y-117047619D01*
X140119047Y-118000000D02*
X140119047Y-118952380D01*
X139833333Y-118190476D02*
X139833333Y-118761904D01*
X140547619Y-118476190D02*
X140119047Y-118476190D01*
X139547619Y-118571428D02*
X139547619Y-118380952D01*
X144547619Y-116714285D02*
X145023809Y-116380952D01*
X144547619Y-116142857D02*
X145547619Y-116142857D01*
X145547619Y-116523809D01*
X145500000Y-116619047D01*
X145452380Y-116666666D01*
X145357142Y-116714285D01*
X145214285Y-116714285D01*
X145119047Y-116666666D01*
X145071428Y-116619047D01*
X145023809Y-116523809D01*
X145023809Y-116142857D01*
X145547619Y-117047619D02*
X144547619Y-117714285D01*
X145547619Y-117714285D02*
X144547619Y-117047619D01*
X144928571Y-118095238D02*
X144928571Y-118857142D01*
X144738095Y-118666666D02*
X144928571Y-118857142D01*
X145119047Y-118666666D01*
X124547619Y-116738095D02*
X125547619Y-116738095D01*
X125547619Y-116976190D01*
X125500000Y-117119047D01*
X125404761Y-117214285D01*
X125309523Y-117261904D01*
X125119047Y-117309523D01*
X124976190Y-117309523D01*
X124785714Y-117261904D01*
X124690476Y-117214285D01*
X124595238Y-117119047D01*
X124547619Y-116976190D01*
X124547619Y-116738095D01*
X124642857Y-118309523D02*
X124595238Y-118261904D01*
X124547619Y-118119047D01*
X124547619Y-118023809D01*
X124595238Y-117880952D01*
X124690476Y-117785714D01*
X124785714Y-117738095D01*
X124976190Y-117690476D01*
X125119047Y-117690476D01*
X125309523Y-117738095D01*
X125404761Y-117785714D01*
X125500000Y-117880952D01*
X125547619Y-118023809D01*
X125547619Y-118119047D01*
X125500000Y-118261904D01*
X125452380Y-118309523D01*
D11*
%TO.C,U6*%
X122750000Y-96325000D02*
X125850000Y-96325000D01*
X126025000Y-99375000D02*
X126025000Y-100975000D01*
%TO.C,U5*%
X139150000Y-109900000D02*
X139150000Y-111600000D01*
X139000000Y-105100000D02*
X139150000Y-105100000D01*
X139000000Y-109900000D02*
X139000000Y-105100000D01*
X143000000Y-105100000D02*
X143000000Y-109900000D01*
X143000000Y-109900000D02*
X142850000Y-109900000D01*
X142850000Y-105100000D02*
X143000000Y-105100000D01*
X139150000Y-109900000D02*
X139000000Y-109900000D01*
%TO.C,U4*%
X143400000Y-108875000D02*
X144225000Y-108875000D01*
%TO.C,U3*%
X133650000Y-108875000D02*
X134475000Y-108875000D01*
%TO.C,U2*%
X140110000Y-97885000D02*
X140110000Y-98610000D01*
X135890000Y-95115000D02*
X135890000Y-94390000D01*
X135890000Y-97885000D02*
X135890000Y-98610000D01*
X135890000Y-94390000D02*
X136615000Y-94390000D01*
X140110000Y-98610000D02*
X139385000Y-98610000D01*
X135890000Y-98610000D02*
X136615000Y-98610000D01*
X140082843Y-94700000D02*
G75*
G03*
X140082843Y-94700000I-282843J0D01*
G01*
%TO.C,SW1*%
X136250000Y-100250000D02*
X134750000Y-100250000D01*
X134750000Y-107250000D02*
X136250000Y-107250000D01*
X132250000Y-101500000D02*
X132250000Y-106000000D01*
X138750000Y-106000000D02*
X138750000Y-101500000D01*
%TO.C,R12*%
X120250000Y-98300000D02*
X120250000Y-97700000D01*
X121250000Y-98300000D02*
X121250000Y-97700000D01*
%TO.C,R11*%
X121250000Y-94700000D02*
X121250000Y-95300000D01*
X120250000Y-94700000D02*
X120250000Y-95300000D01*
%TO.C,R10*%
X134300000Y-96500000D02*
X133700000Y-96500000D01*
X134300000Y-95500000D02*
X133700000Y-95500000D01*
%TO.C,R9*%
X133700000Y-96750000D02*
X134300000Y-96750000D01*
X133700000Y-97750000D02*
X134300000Y-97750000D01*
%TO.C,R8*%
X127750000Y-109800000D02*
X127750000Y-109200000D01*
X128750000Y-109800000D02*
X128750000Y-109200000D01*
%TO.C,R7*%
X127750000Y-104800000D02*
X127750000Y-104200000D01*
X128750000Y-104800000D02*
X128750000Y-104200000D01*
%TO.C,R6*%
X144700000Y-99250000D02*
X145300000Y-99250000D01*
X144700000Y-100250000D02*
X145300000Y-100250000D01*
%TO.C,R5*%
X144700000Y-98000000D02*
X145300000Y-98000000D01*
X144700000Y-99000000D02*
X145300000Y-99000000D01*
%TO.C,R4*%
X144700000Y-96750000D02*
X145300000Y-96750000D01*
X144700000Y-97750000D02*
X145300000Y-97750000D01*
%TO.C,R3*%
X130750000Y-98550000D02*
X130750000Y-97950000D01*
X131750000Y-98550000D02*
X131750000Y-97950000D01*
%TO.C,R2*%
X130750000Y-101300000D02*
X130750000Y-100700000D01*
X131750000Y-101300000D02*
X131750000Y-100700000D01*
%TO.C,R1*%
X141500000Y-95550000D02*
X141500000Y-94950000D01*
X142500000Y-95550000D02*
X142500000Y-94950000D01*
%TO.C,Q1*%
X130190000Y-110000000D02*
X130190000Y-109350000D01*
X133310000Y-110000000D02*
X133310000Y-109350000D01*
X130190000Y-110000000D02*
X130190000Y-111675000D01*
X133310000Y-110000000D02*
X133310000Y-110650000D01*
%TO.C,D4*%
X129615000Y-108035000D02*
X131885000Y-108035000D01*
X131885000Y-108035000D02*
X131885000Y-104150000D01*
X129615000Y-104150000D02*
X129615000Y-108035000D01*
%TO.C,D3*%
X150550000Y-111410000D02*
X151950000Y-111410000D01*
X151950000Y-109090000D02*
X150050000Y-109090000D01*
%TO.C,D2*%
X155050000Y-111410000D02*
X156450000Y-111410000D01*
X156450000Y-109090000D02*
X154550000Y-109090000D01*
%TO.C,D1*%
X146100000Y-95500000D02*
X145000000Y-95500000D01*
X145000000Y-95500000D02*
X145000000Y-96500000D01*
%TO.C,C4*%
X129950000Y-103500000D02*
X130550000Y-103500000D01*
X129950000Y-102500000D02*
X130550000Y-102500000D01*
%TO.C,C3*%
X133700000Y-95250000D02*
X134300000Y-95250000D01*
X133700000Y-94250000D02*
X134300000Y-94250000D01*
%TO.C,C2*%
X133700000Y-99000000D02*
X134300000Y-99000000D01*
X133700000Y-98000000D02*
X134300000Y-98000000D01*
%TO.C,C1*%
X141500000Y-98450000D02*
X141500000Y-99050000D01*
X142500000Y-98450000D02*
X142500000Y-99050000D01*
%TO.C,J5*%
X127400000Y-112000000D02*
X127400000Y-120000000D01*
X127400000Y-112000000D02*
X137600000Y-112000000D01*
X137600000Y-112000000D02*
X137600000Y-120000000D01*
%TO.C,J6*%
X137400000Y-112000000D02*
X147600000Y-112000000D01*
X147600000Y-112000000D02*
X147600000Y-120000000D01*
X137400000Y-112000000D02*
X137400000Y-120000000D01*
%TO.C,J2*%
X119900000Y-112000000D02*
X127600000Y-112000000D01*
X119900000Y-112000000D02*
X119900000Y-120000000D01*
X127600000Y-112000000D02*
X127600000Y-120000000D01*
%TO.C,J3*%
X154900000Y-112000000D02*
X154900000Y-120000000D01*
X165100000Y-112000000D02*
X165100000Y-120000000D01*
X154900000Y-112000000D02*
X165100000Y-112000000D01*
%TO.C,J4*%
X155100000Y-112000000D02*
X155100000Y-120000000D01*
X147400000Y-112000000D02*
X155100000Y-112000000D01*
X147400000Y-112000000D02*
X147400000Y-120000000D01*
%TD*%
M02*
