%TF.GenerationSoftware,KiCad,Pcbnew,(6.0.1-0)*%
%TF.CreationDate,2022-01-24T08:29:12+00:00*%
%TF.ProjectId,ASR33,41535233-332e-46b6-9963-61645f706362,1*%
%TF.SameCoordinates,Original*%
%TF.FileFunction,Legend,Top*%
%TF.FilePolarity,Positive*%
%FSLAX46Y46*%
G04 Gerber Fmt 4.6, Leading zero omitted, Abs format (unit mm)*
G04 Created by KiCad (PCBNEW (6.0.1-0)) date 2022-01-24 08:29:12*
%MOMM*%
%LPD*%
G01*
G04 APERTURE LIST*
%ADD10C,0.150000*%
%ADD11C,0.120000*%
G04 APERTURE END LIST*
D10*
X136392857Y-140047619D02*
X136440476Y-140000000D01*
X136535714Y-139952380D01*
X136773809Y-139952380D01*
X136869047Y-140000000D01*
X136916666Y-140047619D01*
X136964285Y-140142857D01*
X136964285Y-140238095D01*
X136916666Y-140380952D01*
X136345238Y-140952380D01*
X136964285Y-140952380D01*
X137583333Y-139952380D02*
X137678571Y-139952380D01*
X137773809Y-140000000D01*
X137821428Y-140047619D01*
X137869047Y-140142857D01*
X137916666Y-140333333D01*
X137916666Y-140571428D01*
X137869047Y-140761904D01*
X137821428Y-140857142D01*
X137773809Y-140904761D01*
X137678571Y-140952380D01*
X137583333Y-140952380D01*
X137488095Y-140904761D01*
X137440476Y-140857142D01*
X137392857Y-140761904D01*
X137345238Y-140571428D01*
X137345238Y-140333333D01*
X137392857Y-140142857D01*
X137440476Y-140047619D01*
X137488095Y-140000000D01*
X137583333Y-139952380D01*
X138297619Y-140047619D02*
X138345238Y-140000000D01*
X138440476Y-139952380D01*
X138678571Y-139952380D01*
X138773809Y-140000000D01*
X138821428Y-140047619D01*
X138869047Y-140142857D01*
X138869047Y-140238095D01*
X138821428Y-140380952D01*
X138250000Y-140952380D01*
X138869047Y-140952380D01*
X139250000Y-140047619D02*
X139297619Y-140000000D01*
X139392857Y-139952380D01*
X139630952Y-139952380D01*
X139726190Y-140000000D01*
X139773809Y-140047619D01*
X139821428Y-140142857D01*
X139821428Y-140238095D01*
X139773809Y-140380952D01*
X139202380Y-140952380D01*
X139821428Y-140952380D01*
X140250000Y-140571428D02*
X141011904Y-140571428D01*
X141678571Y-139952380D02*
X141773809Y-139952380D01*
X141869047Y-140000000D01*
X141916666Y-140047619D01*
X141964285Y-140142857D01*
X142011904Y-140333333D01*
X142011904Y-140571428D01*
X141964285Y-140761904D01*
X141916666Y-140857142D01*
X141869047Y-140904761D01*
X141773809Y-140952380D01*
X141678571Y-140952380D01*
X141583333Y-140904761D01*
X141535714Y-140857142D01*
X141488095Y-140761904D01*
X141440476Y-140571428D01*
X141440476Y-140333333D01*
X141488095Y-140142857D01*
X141535714Y-140047619D01*
X141583333Y-140000000D01*
X141678571Y-139952380D01*
X142964285Y-140952380D02*
X142392857Y-140952380D01*
X142678571Y-140952380D02*
X142678571Y-139952380D01*
X142583333Y-140095238D01*
X142488095Y-140190476D01*
X142392857Y-140238095D01*
X143392857Y-140571428D02*
X144154761Y-140571428D01*
X144583333Y-140047619D02*
X144630952Y-140000000D01*
X144726190Y-139952380D01*
X144964285Y-139952380D01*
X145059523Y-140000000D01*
X145107142Y-140047619D01*
X145154761Y-140142857D01*
X145154761Y-140238095D01*
X145107142Y-140380952D01*
X144535714Y-140952380D01*
X145154761Y-140952380D01*
X146011904Y-140285714D02*
X146011904Y-140952380D01*
X145773809Y-139904761D02*
X145535714Y-140619047D01*
X146154761Y-140619047D01*
X130334000Y-119700000D02*
X130334000Y-119128571D01*
X130676857Y-119814285D02*
X129476857Y-119414285D01*
X130676857Y-119014285D01*
X130619714Y-118671428D02*
X130676857Y-118500000D01*
X130676857Y-118214285D01*
X130619714Y-118100000D01*
X130562571Y-118042857D01*
X130448285Y-117985714D01*
X130334000Y-117985714D01*
X130219714Y-118042857D01*
X130162571Y-118100000D01*
X130105428Y-118214285D01*
X130048285Y-118442857D01*
X129991142Y-118557142D01*
X129934000Y-118614285D01*
X129819714Y-118671428D01*
X129705428Y-118671428D01*
X129591142Y-118614285D01*
X129534000Y-118557142D01*
X129476857Y-118442857D01*
X129476857Y-118157142D01*
X129534000Y-117985714D01*
X130676857Y-116785714D02*
X130105428Y-117185714D01*
X130676857Y-117471428D02*
X129476857Y-117471428D01*
X129476857Y-117014285D01*
X129534000Y-116900000D01*
X129591142Y-116842857D01*
X129705428Y-116785714D01*
X129876857Y-116785714D01*
X129991142Y-116842857D01*
X130048285Y-116900000D01*
X130105428Y-117014285D01*
X130105428Y-117471428D01*
X129476857Y-116385714D02*
X129476857Y-115642857D01*
X129934000Y-116042857D01*
X129934000Y-115871428D01*
X129991142Y-115757142D01*
X130048285Y-115700000D01*
X130162571Y-115642857D01*
X130448285Y-115642857D01*
X130562571Y-115700000D01*
X130619714Y-115757142D01*
X130676857Y-115871428D01*
X130676857Y-116214285D01*
X130619714Y-116328571D01*
X130562571Y-116385714D01*
X129476857Y-115242857D02*
X129476857Y-114500000D01*
X129934000Y-114900000D01*
X129934000Y-114728571D01*
X129991142Y-114614285D01*
X130048285Y-114557142D01*
X130162571Y-114500000D01*
X130448285Y-114500000D01*
X130562571Y-114557142D01*
X130619714Y-114614285D01*
X130676857Y-114728571D01*
X130676857Y-115071428D01*
X130619714Y-115185714D01*
X130562571Y-115242857D01*
X132494571Y-120585714D02*
X132551714Y-120642857D01*
X132608857Y-120814285D01*
X132608857Y-120928571D01*
X132551714Y-121100000D01*
X132437428Y-121214285D01*
X132323142Y-121271428D01*
X132094571Y-121328571D01*
X131923142Y-121328571D01*
X131694571Y-121271428D01*
X131580285Y-121214285D01*
X131466000Y-121100000D01*
X131408857Y-120928571D01*
X131408857Y-120814285D01*
X131466000Y-120642857D01*
X131523142Y-120585714D01*
X132608857Y-119900000D02*
X132551714Y-120014285D01*
X132494571Y-120071428D01*
X132380285Y-120128571D01*
X132037428Y-120128571D01*
X131923142Y-120071428D01*
X131866000Y-120014285D01*
X131808857Y-119900000D01*
X131808857Y-119728571D01*
X131866000Y-119614285D01*
X131923142Y-119557142D01*
X132037428Y-119500000D01*
X132380285Y-119500000D01*
X132494571Y-119557142D01*
X132551714Y-119614285D01*
X132608857Y-119728571D01*
X132608857Y-119900000D01*
X131808857Y-118985714D02*
X132608857Y-118985714D01*
X131923142Y-118985714D02*
X131866000Y-118928571D01*
X131808857Y-118814285D01*
X131808857Y-118642857D01*
X131866000Y-118528571D01*
X131980285Y-118471428D01*
X132608857Y-118471428D01*
X131808857Y-118071428D02*
X131808857Y-117614285D01*
X131408857Y-117900000D02*
X132437428Y-117900000D01*
X132551714Y-117842857D01*
X132608857Y-117728571D01*
X132608857Y-117614285D01*
X132608857Y-117214285D02*
X131808857Y-117214285D01*
X132037428Y-117214285D02*
X131923142Y-117157142D01*
X131866000Y-117100000D01*
X131808857Y-116985714D01*
X131808857Y-116871428D01*
X132608857Y-116300000D02*
X132551714Y-116414285D01*
X132494571Y-116471428D01*
X132380285Y-116528571D01*
X132037428Y-116528571D01*
X131923142Y-116471428D01*
X131866000Y-116414285D01*
X131808857Y-116300000D01*
X131808857Y-116128571D01*
X131866000Y-116014285D01*
X131923142Y-115957142D01*
X132037428Y-115900000D01*
X132380285Y-115900000D01*
X132494571Y-115957142D01*
X132551714Y-116014285D01*
X132608857Y-116128571D01*
X132608857Y-116300000D01*
X132608857Y-115214285D02*
X132551714Y-115328571D01*
X132437428Y-115385714D01*
X131408857Y-115385714D01*
X132608857Y-114585714D02*
X132551714Y-114700000D01*
X132437428Y-114757142D01*
X131408857Y-114757142D01*
X132551714Y-113671428D02*
X132608857Y-113785714D01*
X132608857Y-114014285D01*
X132551714Y-114128571D01*
X132437428Y-114185714D01*
X131980285Y-114185714D01*
X131866000Y-114128571D01*
X131808857Y-114014285D01*
X131808857Y-113785714D01*
X131866000Y-113671428D01*
X131980285Y-113614285D01*
X132094571Y-113614285D01*
X132208857Y-114185714D01*
X132608857Y-113100000D02*
X131808857Y-113100000D01*
X132037428Y-113100000D02*
X131923142Y-113042857D01*
X131866000Y-112985714D01*
X131808857Y-112871428D01*
X131808857Y-112757142D01*
X118685714Y-132057142D02*
X119352380Y-131866666D01*
X118876190Y-131676190D01*
X119352380Y-131485714D01*
X118685714Y-131295238D01*
X118685714Y-131009523D02*
X119352380Y-130819047D01*
X118876190Y-130628571D01*
X119352380Y-130438095D01*
X118685714Y-130247619D01*
X118685714Y-129961904D02*
X119352380Y-129771428D01*
X118876190Y-129580952D01*
X119352380Y-129390476D01*
X118685714Y-129200000D01*
X119257142Y-128819047D02*
X119304761Y-128771428D01*
X119352380Y-128819047D01*
X119304761Y-128866666D01*
X119257142Y-128819047D01*
X119352380Y-128819047D01*
X119352380Y-128342857D02*
X118685714Y-128342857D01*
X118780952Y-128342857D02*
X118733333Y-128295238D01*
X118685714Y-128200000D01*
X118685714Y-128057142D01*
X118733333Y-127961904D01*
X118828571Y-127914285D01*
X119352380Y-127914285D01*
X118828571Y-127914285D02*
X118733333Y-127866666D01*
X118685714Y-127771428D01*
X118685714Y-127628571D01*
X118733333Y-127533333D01*
X118828571Y-127485714D01*
X119352380Y-127485714D01*
X119304761Y-126628571D02*
X119352380Y-126723809D01*
X119352380Y-126914285D01*
X119304761Y-127009523D01*
X119209523Y-127057142D01*
X118828571Y-127057142D01*
X118733333Y-127009523D01*
X118685714Y-126914285D01*
X118685714Y-126723809D01*
X118733333Y-126628571D01*
X118828571Y-126580952D01*
X118923809Y-126580952D01*
X119019047Y-127057142D01*
X119257142Y-126152380D02*
X119304761Y-126104761D01*
X119352380Y-126152380D01*
X119304761Y-126200000D01*
X119257142Y-126152380D01*
X119352380Y-126152380D01*
X118685714Y-125247619D02*
X119352380Y-125247619D01*
X118685714Y-125676190D02*
X119209523Y-125676190D01*
X119304761Y-125628571D01*
X119352380Y-125533333D01*
X119352380Y-125390476D01*
X119304761Y-125295238D01*
X119257142Y-125247619D01*
X119352380Y-124771428D02*
X118352380Y-124771428D01*
X118971428Y-124676190D02*
X119352380Y-124390476D01*
X118685714Y-124390476D02*
X119066666Y-124771428D01*
D11*
%TO.C,J3*%
X132400000Y-135000000D02*
X132400000Y-143000000D01*
X132400000Y-135000000D02*
X150100000Y-135000000D01*
X150100000Y-135000000D02*
X150100000Y-143000000D01*
%TO.C,C5*%
X145500000Y-132300000D02*
X145500000Y-131700000D01*
X144500000Y-132300000D02*
X144500000Y-131700000D01*
%TO.C,J2*%
X160100000Y-135000000D02*
X160100000Y-143000000D01*
X149900000Y-135000000D02*
X160100000Y-135000000D01*
X149900000Y-135000000D02*
X149900000Y-143000000D01*
%TO.C,Q1*%
X140500000Y-133560000D02*
X139850000Y-133560000D01*
X140500000Y-130440000D02*
X138825000Y-130440000D01*
X140500000Y-133560000D02*
X141150000Y-133560000D01*
X140500000Y-130440000D02*
X141150000Y-130440000D01*
%TO.C,U2*%
X125090000Y-128410000D02*
X125090000Y-127685000D01*
X128585000Y-128410000D02*
X129310000Y-128410000D01*
X129310000Y-128410000D02*
X129310000Y-127685000D01*
X125815000Y-128410000D02*
X125090000Y-128410000D01*
X128585000Y-124190000D02*
X129310000Y-124190000D01*
X129310000Y-124190000D02*
X129310000Y-124915000D01*
X125682843Y-124500000D02*
G75*
G03*
X125682843Y-124500000I-282843J0D01*
G01*
%TO.C,U1*%
X135535000Y-108380000D02*
X134755000Y-108380000D01*
X134755000Y-126620000D02*
X134755000Y-125620000D01*
X135535000Y-126620000D02*
X134755000Y-126620000D01*
X134755000Y-108380000D02*
X134755000Y-109380000D01*
%TO.C,R3*%
X123300000Y-111300000D02*
X123300000Y-110700000D01*
X124300000Y-111300000D02*
X124300000Y-110700000D01*
%TO.C,C1*%
X122600000Y-124700000D02*
X122600000Y-125300000D01*
X123600000Y-124700000D02*
X123600000Y-125300000D01*
%TO.C,R5*%
X126175000Y-134200000D02*
X125575000Y-134200000D01*
X126175000Y-135200000D02*
X125575000Y-135200000D01*
%TO.C,R4*%
X121425000Y-135200000D02*
X120825000Y-135200000D01*
X121425000Y-134200000D02*
X120825000Y-134200000D01*
%TO.C,R6*%
X124700000Y-130900000D02*
X125300000Y-130900000D01*
X124700000Y-131900000D02*
X125300000Y-131900000D01*
%TO.C,R7*%
X122000000Y-131900000D02*
X122600000Y-131900000D01*
X122000000Y-130900000D02*
X122600000Y-130900000D01*
%TO.C,R1*%
X122100000Y-111300000D02*
X122100000Y-110700000D01*
X123100000Y-111300000D02*
X123100000Y-110700000D01*
%TO.C,R2*%
X124500000Y-111300000D02*
X124500000Y-110700000D01*
X125500000Y-111300000D02*
X125500000Y-110700000D01*
%TO.C,C4*%
X119400000Y-133000000D02*
X120000000Y-133000000D01*
X119400000Y-134000000D02*
X120000000Y-134000000D01*
%TO.C,C2*%
X124700000Y-133100000D02*
X125300000Y-133100000D01*
X124700000Y-132100000D02*
X125300000Y-132100000D01*
%TO.C,C3*%
X122600000Y-133100000D02*
X122000000Y-133100000D01*
X122600000Y-132100000D02*
X122000000Y-132100000D01*
%TO.C,D2*%
X152700000Y-130840000D02*
X150800000Y-130840000D01*
X151300000Y-133160000D02*
X152700000Y-133160000D01*
%TO.C,R10*%
X118400000Y-122400000D02*
X118400000Y-121800000D01*
X119400000Y-122400000D02*
X119400000Y-121800000D01*
%TO.C,R9*%
X142900000Y-132300000D02*
X142900000Y-131700000D01*
X143900000Y-132300000D02*
X143900000Y-131700000D01*
%TO.C,D3*%
X148700000Y-130840000D02*
X146800000Y-130840000D01*
X147300000Y-133160000D02*
X148700000Y-133160000D01*
%TO.C,R8*%
X119400000Y-118700000D02*
X119400000Y-119300000D01*
X118400000Y-118700000D02*
X118400000Y-119300000D01*
%TD*%
M02*
