%TF.GenerationSoftware,KiCad,Pcbnew,(6.0.2-0)*%
%TF.CreationDate,2022-02-23T11:01:25+00:00*%
%TF.ProjectId,ASR33,41535233-332e-46b6-9963-61645f706362,1*%
%TF.SameCoordinates,Original*%
%TF.FileFunction,Copper,L1,Top*%
%TF.FilePolarity,Positive*%
%FSLAX46Y46*%
G04 Gerber Fmt 4.6, Leading zero omitted, Abs format (unit mm)*
G04 Created by KiCad (PCBNEW (6.0.2-0)) date 2022-02-23 11:01:25*
%MOMM*%
%LPD*%
G01*
G04 APERTURE LIST*
G04 Aperture macros list*
%AMRoundRect*
0 Rectangle with rounded corners*
0 $1 Rounding radius*
0 $2 $3 $4 $5 $6 $7 $8 $9 X,Y pos of 4 corners*
0 Add a 4 corners polygon primitive as box body*
4,1,4,$2,$3,$4,$5,$6,$7,$8,$9,$2,$3,0*
0 Add four circle primitives for the rounded corners*
1,1,$1+$1,$2,$3*
1,1,$1+$1,$4,$5*
1,1,$1+$1,$6,$7*
1,1,$1+$1,$8,$9*
0 Add four rect primitives between the rounded corners*
20,1,$1+$1,$2,$3,$4,$5,0*
20,1,$1+$1,$4,$5,$6,$7,0*
20,1,$1+$1,$6,$7,$8,$9,0*
20,1,$1+$1,$8,$9,$2,$3,0*%
%AMOutline5P*
0 Free polygon, 5 corners , with rotation*
0 The origin of the aperture is its center*
0 number of corners: always 5*
0 $1 to $10 corner X, Y*
0 $11 Rotation angle, in degrees counterclockwise*
0 create outline with 5 corners*
4,1,5,$1,$2,$3,$4,$5,$6,$7,$8,$9,$10,$1,$2,$11*%
%AMOutline6P*
0 Free polygon, 6 corners , with rotation*
0 The origin of the aperture is its center*
0 number of corners: always 6*
0 $1 to $12 corner X, Y*
0 $13 Rotation angle, in degrees counterclockwise*
0 create outline with 6 corners*
4,1,6,$1,$2,$3,$4,$5,$6,$7,$8,$9,$10,$11,$12,$1,$2,$13*%
%AMOutline7P*
0 Free polygon, 7 corners , with rotation*
0 The origin of the aperture is its center*
0 number of corners: always 7*
0 $1 to $14 corner X, Y*
0 $15 Rotation angle, in degrees counterclockwise*
0 create outline with 7 corners*
4,1,7,$1,$2,$3,$4,$5,$6,$7,$8,$9,$10,$11,$12,$13,$14,$1,$2,$15*%
%AMOutline8P*
0 Free polygon, 8 corners , with rotation*
0 The origin of the aperture is its center*
0 number of corners: always 8*
0 $1 to $16 corner X, Y*
0 $17 Rotation angle, in degrees counterclockwise*
0 create outline with 8 corners*
4,1,8,$1,$2,$3,$4,$5,$6,$7,$8,$9,$10,$11,$12,$13,$14,$15,$16,$1,$2,$17*%
%AMFreePoly0*
4,1,136,3.383385,4.221938,3.559722,4.168447,3.722236,4.081581,3.864680,3.964680,3.981581,3.822236,4.068447,3.659722,4.121938,3.483385,4.125213,3.450138,4.182769,3.539508,4.186818,3.554319,4.232803,3.599839,4.295387,3.616268,4.357802,3.599205,4.403322,3.553220,4.419751,3.490636,4.402688,3.428221,4.402685,3.428218,4.172864,3.069999,4.056927,2.918726,3.981581,2.777764,
3.864680,2.635320,3.750000,2.541204,3.750000,0.022998,4.066621,-0.229499,4.408387,-0.546611,4.440740,-0.602647,4.440740,-0.667351,4.408387,-0.723387,4.352351,-0.755740,4.287647,-0.755740,4.231611,-0.723387,4.223834,-0.709917,3.889556,-0.400914,3.520256,-0.109781,3.483169,-0.085000,2.500000,-0.085000,2.500000,-1.185000,3.750000,-1.185000,3.750000,-2.745000,-3.750000,-2.745000,
-3.750000,-1.185000,-2.500000,-1.185000,-2.500000,-0.085000,-3.483168,-0.085000,-3.520257,-0.109782,-3.889557,-0.400914,-4.223835,-0.709917,-4.231612,-0.723388,-4.287648,-0.755741,-4.352352,-0.755741,-4.408388,-0.723388,-4.440741,-0.667352,-4.440741,-0.602648,-4.408388,-0.546612,-4.066622,-0.229500,-3.750000,0.022998,-3.750000,2.541204,-3.864680,2.635320,-3.981581,2.777764,-4.057059,2.918973,
-4.182136,3.083248,-4.410822,3.442198,-4.427688,3.504666,-4.411060,3.567198,-4.365394,3.613038,-4.302926,3.629904,-4.240394,3.613276,-4.194554,3.567610,-4.190552,3.552787,-4.125171,3.450557,-4.121938,3.483385,-4.068447,3.659722,-3.981581,3.822236,-3.864680,3.964680,-3.722236,4.081581,-3.559722,4.168447,-3.383385,4.221938,-3.200000,4.240000,-3.137500,4.223253,-3.091747,4.177500,
-3.075000,4.115000,-3.091747,4.052500,-3.137500,4.006747,-3.200000,3.990000,-3.211471,3.993074,-3.354511,3.976957,-3.501274,3.925602,-3.632930,3.842877,-3.742877,3.732930,-3.825602,3.601274,-3.876957,3.454511,-3.894366,3.300000,-3.876957,3.145489,-3.839657,3.038894,-3.713800,2.875371,-3.594054,2.745000,-2.998152,2.745000,-3.015000,3.045000,-2.998253,3.107500,-2.952500,3.153253,
-2.890000,3.170000,-2.827500,3.153253,-2.781747,3.107500,-2.765000,3.045000,-2.768849,3.030634,-2.752213,2.745000,2.752213,2.745000,2.768849,3.030634,2.765000,3.045000,2.781747,3.107500,2.827500,3.153253,2.890000,3.170000,2.952500,3.153253,2.998253,3.107500,3.015000,3.045000,2.998152,2.745000,3.594234,2.745000,3.703871,2.863608,3.839648,3.038866,3.876957,3.145489,
3.894366,3.300000,3.876957,3.454511,3.825602,3.601274,3.742877,3.732930,3.632930,3.842877,3.501274,3.925602,3.354511,3.976957,3.211471,3.993074,3.200000,3.990000,3.137500,4.006747,3.091747,4.052500,3.075000,4.115000,3.091747,4.177500,3.137500,4.223253,3.200000,4.240000,3.383385,4.221938,3.383385,4.221938,$1*%
%AMFreePoly1*
4,1,24,1.812500,0.558253,1.858253,0.512500,1.875000,0.450000,1.860584,0.322050,1.818057,0.200517,1.749553,0.091493,1.658507,0.000447,1.549483,-0.068057,1.427950,-0.110584,1.300000,-0.125000,-1.300000,-0.125000,-1.300000,0.125000,1.300000,0.125000,1.309502,0.122454,1.401682,0.137054,1.493411,0.183792,1.566208,0.256589,1.612946,0.348318,1.627546,0.440498,1.625000,0.450000,
1.641747,0.512500,1.687500,0.558253,1.750000,0.575000,1.812500,0.558253,1.812500,0.558253,$1*%
%AMFreePoly2*
4,1,43,1.102950,0.110584,1.224483,0.068057,1.333507,-0.000447,1.424553,-0.091493,1.493057,-0.200517,1.535584,-0.322050,1.550000,-0.450000,1.533253,-0.512500,1.487500,-0.558253,1.425000,-0.575000,1.362500,-0.558253,1.316747,-0.512500,1.300000,-0.450000,1.302546,-0.440498,1.287946,-0.348318,1.241208,-0.256589,1.168411,-0.183792,1.076682,-0.137054,0.984502,-0.122454,0.975000,-0.125000,
-0.975000,-0.125000,-0.984502,-0.122454,-1.076682,-0.137054,-1.168411,-0.183792,-1.241208,-0.256589,-1.287946,-0.348318,-1.302546,-0.440498,-1.300000,-0.450000,-1.316747,-0.512500,-1.362500,-0.558253,-1.425000,-0.575000,-1.487500,-0.558253,-1.533253,-0.512500,-1.550000,-0.450000,-1.535584,-0.322050,-1.493057,-0.200517,-1.424553,-0.091493,-1.333507,-0.000447,-1.224483,0.068057,-1.102950,0.110584,
-0.975000,0.125000,0.975000,0.125000,1.102950,0.110584,1.102950,0.110584,$1*%
%AMFreePoly3*
4,1,37,1.095671,1.230970,1.176777,1.176777,1.230970,1.095671,1.250000,1.000000,1.234611,0.804457,1.188821,0.613729,1.113759,0.432512,1.011272,0.265269,0.883885,0.116117,0.734733,-0.011271,0.567490,-0.113758,0.386273,-0.188820,0.195545,-0.234610,0.000002,-0.250000,-0.095669,-0.230970,-0.176775,-0.176777,-0.230968,-0.095671,-0.249998,0.000000,-0.230968,0.095671,-0.176775,0.176777,
-0.095669,0.230970,0.000002,0.250000,0.012204,0.247573,0.147027,0.260852,0.288403,0.303738,0.418695,0.373381,0.532897,0.467104,0.626620,0.581306,0.696263,0.711599,0.739148,0.852974,0.752427,0.987798,0.750000,1.000000,0.769030,1.095671,0.823223,1.176777,0.904329,1.230970,1.000000,1.250000,1.095671,1.230970,1.095671,1.230970,$1*%
%AMFreePoly4*
4,1,72,4.686563,7.086550,4.817878,7.046716,4.938899,6.982029,5.044975,6.894975,5.132029,6.788899,5.196716,6.667878,5.236550,6.536563,5.250000,6.400000,5.250000,1.600000,5.230970,1.504329,5.176777,1.423223,5.112500,1.380275,5.112500,0.250000,6.600000,0.250000,6.695671,0.230970,6.776777,0.176777,6.830970,0.095671,6.850000,0.000000,6.830970,-0.095671,6.776777,-0.176777,
6.695671,-0.230970,6.600000,-0.250000,0.000000,-0.250000,-0.095671,-0.230970,-0.176777,-0.176777,-0.230970,-0.095671,-0.250000,0.000000,-0.230970,0.095671,-0.176777,0.176777,-0.095671,0.230970,0.000000,0.250000,4.612500,0.250000,4.612500,1.600000,4.631530,1.695671,4.685723,1.776777,4.750000,1.819725,4.750000,6.400000,4.751388,6.406978,4.742582,6.462574,4.713820,6.519022,
4.669022,6.563820,4.612574,6.592582,4.556978,6.601388,4.550000,6.600000,1.550000,6.600000,1.543022,6.601388,1.487426,6.592582,1.430978,6.563820,1.386180,6.519022,1.357418,6.462574,1.348612,6.406978,1.350000,6.400000,1.350000,5.900000,1.330970,5.804329,1.276777,5.723223,1.195671,5.669030,1.100000,5.650000,1.004329,5.669030,0.923223,5.723223,0.869030,5.804329,
0.850000,5.900000,0.850000,6.400000,0.863450,6.536563,0.903284,6.667878,0.967971,6.788899,1.055025,6.894975,1.161101,6.982029,1.282122,7.046716,1.413437,7.086550,1.550000,7.100000,4.550000,7.100000,4.686563,7.086550,4.686563,7.086550,$1*%
G04 Aperture macros list end*
%TA.AperFunction,SMDPad,CuDef*%
%ADD10R,1.140000X0.600000*%
%TD*%
%TA.AperFunction,SMDPad,CuDef*%
%ADD11RoundRect,0.075000X-0.495000X0.075000X-0.495000X-0.075000X0.495000X-0.075000X0.495000X0.075000X0*%
%TD*%
%TA.AperFunction,ComponentPad*%
%ADD12C,1.500000*%
%TD*%
%TA.AperFunction,ComponentPad*%
%ADD13C,0.600000*%
%TD*%
%TA.AperFunction,ComponentPad*%
%ADD14C,1.250000*%
%TD*%
%TA.AperFunction,SMDPad,CuDef*%
%ADD15R,5.490000X5.000000*%
%TD*%
%TA.AperFunction,SMDPad,CuDef*%
%ADD16FreePoly0,270.000000*%
%TD*%
%TA.AperFunction,SMDPad,CuDef*%
%ADD17RoundRect,0.137500X-0.262500X-0.137500X0.262500X-0.137500X0.262500X0.137500X-0.262500X0.137500X0*%
%TD*%
%TA.AperFunction,SMDPad,CuDef*%
%ADD18RoundRect,0.200000X-0.200000X-0.275000X0.200000X-0.275000X0.200000X0.275000X-0.200000X0.275000X0*%
%TD*%
%TA.AperFunction,SMDPad,CuDef*%
%ADD19RoundRect,0.200000X0.275000X-0.200000X0.275000X0.200000X-0.275000X0.200000X-0.275000X-0.200000X0*%
%TD*%
%TA.AperFunction,SMDPad,CuDef*%
%ADD20RoundRect,0.062500X-0.062500X0.287500X-0.062500X-0.287500X0.062500X-0.287500X0.062500X0.287500X0*%
%TD*%
%TA.AperFunction,SMDPad,CuDef*%
%ADD21RoundRect,0.062500X-0.287500X0.062500X-0.287500X-0.062500X0.287500X-0.062500X0.287500X0.062500X0*%
%TD*%
%TA.AperFunction,SMDPad,CuDef*%
%ADD22Outline5P,-1.000000X0.750000X-0.750000X1.000000X1.000000X1.000000X1.000000X-1.000000X-1.000000X-1.000000X270.000000*%
%TD*%
%TA.AperFunction,SMDPad,CuDef*%
%ADD23R,0.640000X2.000000*%
%TD*%
%TA.AperFunction,SMDPad,CuDef*%
%ADD24RoundRect,0.225000X-0.225000X-0.250000X0.225000X-0.250000X0.225000X0.250000X-0.225000X0.250000X0*%
%TD*%
%TA.AperFunction,SMDPad,CuDef*%
%ADD25RoundRect,0.247500X-0.627500X0.315000X-0.627500X-0.315000X0.627500X-0.315000X0.627500X0.315000X0*%
%TD*%
%TA.AperFunction,SMDPad,CuDef*%
%ADD26RoundRect,0.256250X-0.443750X0.256250X-0.443750X-0.256250X0.443750X-0.256250X0.443750X0.256250X0*%
%TD*%
%TA.AperFunction,ComponentPad*%
%ADD27RoundRect,0.250000X-0.600000X-0.675000X0.600000X-0.675000X0.600000X0.675000X-0.600000X0.675000X0*%
%TD*%
%TA.AperFunction,ComponentPad*%
%ADD28O,1.700000X1.850000*%
%TD*%
%TA.AperFunction,SMDPad,CuDef*%
%ADD29RoundRect,0.200000X-0.275000X0.200000X-0.275000X-0.200000X0.275000X-0.200000X0.275000X0.200000X0*%
%TD*%
%TA.AperFunction,SMDPad,CuDef*%
%ADD30R,0.400000X0.800000*%
%TD*%
%TA.AperFunction,SMDPad,CuDef*%
%ADD31R,0.800000X0.400000*%
%TD*%
%TA.AperFunction,SMDPad,CuDef*%
%ADD32Outline5P,-0.725000X0.130500X-0.130500X0.725000X0.725000X0.725000X0.725000X-0.725000X-0.725000X-0.725000X270.000000*%
%TD*%
%TA.AperFunction,SMDPad,CuDef*%
%ADD33R,1.450000X1.450000*%
%TD*%
%TA.AperFunction,SMDPad,CuDef*%
%ADD34R,0.700000X0.700000*%
%TD*%
%TA.AperFunction,SMDPad,CuDef*%
%ADD35R,0.650000X0.400000*%
%TD*%
%TA.AperFunction,SMDPad,CuDef*%
%ADD36R,0.850000X0.500000*%
%TD*%
%TA.AperFunction,SMDPad,CuDef*%
%ADD37RoundRect,0.250000X0.625000X-0.375000X0.625000X0.375000X-0.625000X0.375000X-0.625000X-0.375000X0*%
%TD*%
%TA.AperFunction,SMDPad,CuDef*%
%ADD38RoundRect,0.150000X0.150000X-0.587500X0.150000X0.587500X-0.150000X0.587500X-0.150000X-0.587500X0*%
%TD*%
%TA.AperFunction,SMDPad,CuDef*%
%ADD39R,0.600000X1.100000*%
%TD*%
%TA.AperFunction,SMDPad,CuDef*%
%ADD40FreePoly1,0.000000*%
%TD*%
%TA.AperFunction,SMDPad,CuDef*%
%ADD41FreePoly2,0.000000*%
%TD*%
%TA.AperFunction,SMDPad,CuDef*%
%ADD42R,2.000000X0.500000*%
%TD*%
%TA.AperFunction,SMDPad,CuDef*%
%ADD43R,1.425000X3.700000*%
%TD*%
%TA.AperFunction,SMDPad,CuDef*%
%ADD44RoundRect,0.225000X0.250000X-0.225000X0.250000X0.225000X-0.250000X0.225000X-0.250000X-0.225000X0*%
%TD*%
%TA.AperFunction,SMDPad,CuDef*%
%ADD45RoundRect,0.249375X-0.463125X-0.625625X0.463125X-0.625625X0.463125X0.625625X-0.463125X0.625625X0*%
%TD*%
%TA.AperFunction,SMDPad,CuDef*%
%ADD46R,0.500000X2.000000*%
%TD*%
%TA.AperFunction,SMDPad,CuDef*%
%ADD47RoundRect,0.250000X-0.475000X0.250000X-0.475000X-0.250000X0.475000X-0.250000X0.475000X0.250000X0*%
%TD*%
%TA.AperFunction,SMDPad,CuDef*%
%ADD48FreePoly3,0.000000*%
%TD*%
%TA.AperFunction,SMDPad,CuDef*%
%ADD49FreePoly4,0.000000*%
%TD*%
%TA.AperFunction,SMDPad,CuDef*%
%ADD50R,0.500000X4.000000*%
%TD*%
%TA.AperFunction,SMDPad,CuDef*%
%ADD51RoundRect,0.200000X0.200000X0.275000X-0.200000X0.275000X-0.200000X-0.275000X0.200000X-0.275000X0*%
%TD*%
%TA.AperFunction,ComponentPad*%
%ADD52C,2.000000*%
%TD*%
%TA.AperFunction,SMDPad,CuDef*%
%ADD53RoundRect,0.225000X-0.250000X0.225000X-0.250000X-0.225000X0.250000X-0.225000X0.250000X0.225000X0*%
%TD*%
%TA.AperFunction,ViaPad*%
%ADD54C,0.800000*%
%TD*%
%TA.AperFunction,Conductor*%
%ADD55C,0.250000*%
%TD*%
%TA.AperFunction,Conductor*%
%ADD56C,0.200000*%
%TD*%
%TA.AperFunction,Conductor*%
%ADD57C,0.500000*%
%TD*%
G04 APERTURE END LIST*
%TO.C,JP1*%
G36*
X145200000Y-105750000D02*
G01*
X144800000Y-105750000D01*
X144800000Y-104750000D01*
X145200000Y-104750000D01*
X145200000Y-105750000D01*
G37*
%TD*%
D10*
%TO.P,J1,A1,GND*%
%TO.N,GND*%
X126860000Y-103800000D03*
%TO.P,J1,A4,VBUS*%
%TO.N,VBUS*%
X126860000Y-104600000D03*
D11*
%TO.P,J1,A5,CC1*%
%TO.N,Net-(J1-PadA5)*%
X126860000Y-105750000D03*
%TO.P,J1,A6,D+*%
%TO.N,Net-(C3-Pad1)*%
X126860000Y-106750000D03*
%TO.P,J1,A7,D-*%
%TO.N,Net-(C2-Pad1)*%
X126860000Y-107250000D03*
%TO.P,J1,A8,SBU1*%
%TO.N,unconnected-(J1-PadA8)*%
X126860000Y-108250000D03*
D10*
%TO.P,J1,A9,VBUS*%
%TO.N,VBUS*%
X126860000Y-109400000D03*
%TO.P,J1,A12,GND*%
%TO.N,GND*%
X126860000Y-110200000D03*
%TO.P,J1,B1,GND*%
X126860000Y-110200000D03*
%TO.P,J1,B4,VBUS*%
%TO.N,VBUS*%
X126860000Y-109400000D03*
D11*
%TO.P,J1,B5,CC2*%
%TO.N,Net-(J1-PadB5)*%
X126860000Y-108750000D03*
%TO.P,J1,B6,D+*%
%TO.N,Net-(C3-Pad1)*%
X126860000Y-107750000D03*
%TO.P,J1,B7,D-*%
%TO.N,Net-(C2-Pad1)*%
X126860000Y-106250000D03*
%TO.P,J1,B8,SBU2*%
%TO.N,unconnected-(J1-PadB8)*%
X126860000Y-105250000D03*
D10*
%TO.P,J1,B9,VBUS*%
%TO.N,VBUS*%
X126860000Y-104600000D03*
%TO.P,J1,B12,GND*%
%TO.N,GND*%
X126860000Y-103800000D03*
D12*
%TO.P,J1,S1,SHIELD*%
X126280000Y-111320000D03*
X126280000Y-102680000D03*
D13*
X125790000Y-109890000D03*
X125790000Y-104110000D03*
D14*
X122110000Y-102680000D03*
X122110000Y-111320000D03*
D15*
X122745000Y-107000000D03*
D16*
X122745000Y-107000000D03*
%TD*%
D17*
%TO.P,U4,1,GND*%
%TO.N,GND*%
X143800000Y-109300000D03*
%TO.P,U4,2,IOUT*%
%TO.N,Net-(J6-Pad3)*%
X143800000Y-110250000D03*
%TO.P,U4,3,IOUT*%
X143800000Y-111200000D03*
%TO.P,U4,4,VS*%
%TO.N,DC*%
X146200000Y-111200000D03*
%TO.P,U4,5,IOUT*%
%TO.N,Net-(J6-Pad3)*%
X146200000Y-110250000D03*
%TO.P,U4,6,REXT*%
%TO.N,unconnected-(U4-Pad6)*%
X146200000Y-109300000D03*
%TD*%
D18*
%TO.P,R6,1*%
%TO.N,Net-(D1-Pad4)*%
X144175000Y-99750000D03*
%TO.P,R6,2*%
%TO.N,B*%
X145825000Y-99750000D03*
%TD*%
D19*
%TO.P,R1,1*%
%TO.N,EN*%
X142000000Y-96075000D03*
%TO.P,R1,2*%
%TO.N,+3V3*%
X142000000Y-94425000D03*
%TD*%
D20*
%TO.P,U2,1,RXD*%
%TO.N,O*%
X139000000Y-94600000D03*
%TO.P,U2,2,~{RI}*%
%TO.N,GND*%
X138500000Y-94600000D03*
%TO.P,U2,3,GND*%
X138000000Y-94600000D03*
%TO.P,U2,4,~{DSR}*%
X137500000Y-94600000D03*
%TO.P,U2,5,~{DCD}*%
X137000000Y-94600000D03*
D21*
%TO.P,U2,6,~{CTS}*%
X136100000Y-95500000D03*
%TO.P,U2,7,CBUS2*%
%TO.N,unconnected-(U2-Pad7)*%
X136100000Y-96000000D03*
%TO.P,U2,8,USBDP*%
%TO.N,D+*%
X136100000Y-96500000D03*
%TO.P,U2,9,USBDM*%
%TO.N,D-*%
X136100000Y-97000000D03*
%TO.P,U2,10,3V3OUT*%
%TO.N,+3V3*%
X136100000Y-97500000D03*
D20*
%TO.P,U2,11,~{RESET}*%
X137000000Y-98400000D03*
%TO.P,U2,12,VCC*%
X137500000Y-98400000D03*
%TO.P,U2,13,GND*%
%TO.N,GND*%
X138000000Y-98400000D03*
%TO.P,U2,14,CBUS1*%
%TO.N,unconnected-(U2-Pad14)*%
X138500000Y-98400000D03*
%TO.P,U2,15,CBUS0*%
%TO.N,unconnected-(U2-Pad15)*%
X139000000Y-98400000D03*
D21*
%TO.P,U2,16,CBUS3*%
%TO.N,Net-(R2-Pad2)*%
X139900000Y-97500000D03*
%TO.P,U2,17,TXD*%
%TO.N,I*%
X139900000Y-97000000D03*
%TO.P,U2,18,~{DTR}*%
%TO.N,GPIO0*%
X139900000Y-96500000D03*
%TO.P,U2,19,~{RTS}*%
%TO.N,EN*%
X139900000Y-96000000D03*
%TO.P,U2,20,VCCIO*%
%TO.N,+3V3*%
X139900000Y-95500000D03*
D22*
%TO.P,U2,21,GND*%
%TO.N,GND*%
X138000000Y-96500000D03*
%TD*%
D23*
%TO.P,U5,1*%
%TO.N,Net-(J6-Pad2)*%
X139730000Y-110650000D03*
%TO.P,U5,2*%
%TO.N,Net-(J6-Pad1)*%
X142270000Y-110650000D03*
%TO.P,U5,3*%
%TO.N,GND*%
X142270000Y-104350000D03*
%TO.P,U5,4*%
%TO.N,RX20MA*%
X139730000Y-104350000D03*
%TD*%
D24*
%TO.P,C4,1*%
%TO.N,GND*%
X129475000Y-103000000D03*
%TO.P,C4,2*%
%TO.N,VBUS*%
X131025000Y-103000000D03*
%TD*%
D25*
%TO.P,JP1,1,A*%
%TO.N,GND*%
X145000000Y-103787500D03*
D26*
X145000000Y-104337500D03*
D25*
%TO.P,JP1,2,B*%
%TO.N,Net-(J6-Pad1)*%
X145000000Y-106712500D03*
D26*
X145000000Y-106162500D03*
%TD*%
D19*
%TO.P,R12,1*%
%TO.N,GND*%
X120750000Y-98825000D03*
%TO.P,R12,2*%
%TO.N,Net-(R11-Pad2)*%
X120750000Y-97175000D03*
%TD*%
D27*
%TO.P,J5,1,Pin_1*%
%TO.N,GND*%
X130000000Y-113400000D03*
D28*
%TO.P,J5,2,Pin_2*%
%TO.N,Net-(J5-Pad2)*%
X132500000Y-113400000D03*
%TO.P,J5,3,Pin_3*%
%TO.N,Net-(J5-Pad3)*%
X135000000Y-113400000D03*
%TD*%
D24*
%TO.P,C3,1*%
%TO.N,Net-(C3-Pad1)*%
X133225000Y-94750000D03*
%TO.P,C3,2*%
%TO.N,GND*%
X134775000Y-94750000D03*
%TD*%
D17*
%TO.P,U3,1,GND*%
%TO.N,GND*%
X134050000Y-109300000D03*
%TO.P,U3,2,IOUT*%
%TO.N,Net-(J5-Pad3)*%
X134050000Y-110250000D03*
%TO.P,U3,3,IOUT*%
X134050000Y-111200000D03*
%TO.P,U3,4,VS*%
%TO.N,DC*%
X136450000Y-111200000D03*
%TO.P,U3,5,IOUT*%
%TO.N,Net-(J5-Pad3)*%
X136450000Y-110250000D03*
%TO.P,U3,6,REXT*%
%TO.N,unconnected-(U3-Pad6)*%
X136450000Y-109300000D03*
%TD*%
D19*
%TO.P,R8,1*%
%TO.N,GND*%
X128250000Y-110325000D03*
%TO.P,R8,2*%
%TO.N,Net-(J1-PadB5)*%
X128250000Y-108675000D03*
%TD*%
D29*
%TO.P,R11,1*%
%TO.N,+3V3*%
X120750000Y-94175000D03*
%TO.P,R11,2*%
%TO.N,Net-(R11-Pad2)*%
X120750000Y-95825000D03*
%TD*%
D19*
%TO.P,R7,1*%
%TO.N,Net-(J1-PadA5)*%
X128250000Y-105325000D03*
%TO.P,R7,2*%
%TO.N,GND*%
X128250000Y-103675000D03*
%TD*%
%TO.P,R2,1*%
%TO.N,VBUS*%
X131250000Y-101825000D03*
%TO.P,R2,2*%
%TO.N,Net-(R2-Pad2)*%
X131250000Y-100175000D03*
%TD*%
D30*
%TO.P,U1,1,GND*%
%TO.N,GND*%
X157056750Y-94350000D03*
%TO.P,U1,2,GND*%
X156256750Y-94350000D03*
%TO.P,U1,3,3V3*%
%TO.N,+3V3*%
X155456750Y-94350000D03*
%TO.P,U1,4,I36*%
%TO.N,unconnected-(U1-Pad4)*%
X154656750Y-94350000D03*
%TO.P,U1,5,I37*%
%TO.N,unconnected-(U1-Pad5)*%
X153856750Y-94350000D03*
%TO.P,U1,6,I38*%
%TO.N,unconnected-(U1-Pad6)*%
X153056750Y-94350000D03*
%TO.P,U1,7,I39*%
%TO.N,unconnected-(U1-Pad7)*%
X152256750Y-94350000D03*
%TO.P,U1,8,EN*%
%TO.N,EN*%
X151456750Y-94350000D03*
%TO.P,U1,9,I34*%
%TO.N,unconnected-(U1-Pad9)*%
X150656750Y-94350000D03*
%TO.P,U1,10,I35*%
%TO.N,unconnected-(U1-Pad10)*%
X149856750Y-94350000D03*
%TO.P,U1,11,GND*%
%TO.N,GND*%
X149056750Y-94350000D03*
D31*
%TO.P,U1,12,IO32*%
%TO.N,R*%
X148156750Y-95450000D03*
%TO.P,U1,13,IO33*%
%TO.N,G*%
X148156750Y-96250000D03*
%TO.P,U1,14,GND*%
%TO.N,GND*%
X148156750Y-97050000D03*
%TO.P,U1,15,IO25*%
%TO.N,B*%
X148156750Y-97850000D03*
%TO.P,U1,16,IO26*%
%TO.N,RX20MA*%
X148156750Y-98650000D03*
%TO.P,U1,17,IO27*%
%TO.N,TX20MA*%
X148156750Y-99450000D03*
%TO.P,U1,18,IO14*%
%TO.N,unconnected-(U1-Pad18)*%
X148156750Y-100250000D03*
%TO.P,U1,19,IO12*%
%TO.N,unconnected-(U1-Pad19)*%
X148156750Y-101050000D03*
%TO.P,U1,20,IO13*%
%TO.N,unconnected-(U1-Pad20)*%
X148156750Y-101850000D03*
%TO.P,U1,21,IO15*%
%TO.N,unconnected-(U1-Pad21)*%
X148156750Y-102650000D03*
%TO.P,U1,22,IO2*%
%TO.N,unconnected-(U1-Pad22)*%
X148156750Y-103450000D03*
%TO.P,U1,23,IO0*%
%TO.N,GPIO0*%
X148156750Y-104250000D03*
%TO.P,U1,24,IO4*%
%TO.N,unconnected-(U1-Pad24)*%
X148156750Y-105050000D03*
D30*
%TO.P,U1,25,NC*%
%TO.N,unconnected-(U1-Pad25)*%
X149056750Y-106150000D03*
%TO.P,U1,26,IO20*%
%TO.N,BUTTON*%
X149856750Y-106150000D03*
%TO.P,U1,27,IO7*%
%TO.N,unconnected-(U1-Pad27)*%
X150656750Y-106150000D03*
%TO.P,U1,28,IO8*%
%TO.N,unconnected-(U1-Pad28)*%
X151456750Y-106150000D03*
%TO.P,U1,29,IO5*%
%TO.N,unconnected-(U1-Pad29)*%
X152256750Y-106150000D03*
%TO.P,U1,30,RXD0*%
%TO.N,I*%
X153056750Y-106150000D03*
%TO.P,U1,31,TXD0*%
%TO.N,O*%
X153856750Y-106150000D03*
%TO.P,U1,32,NC*%
%TO.N,unconnected-(U1-Pad32)*%
X154656750Y-106150000D03*
%TO.P,U1,33,IO19*%
%TO.N,RUN*%
X155456750Y-106150000D03*
%TO.P,U1,34,IO22*%
%TO.N,MTR*%
X156256750Y-106150000D03*
%TO.P,U1,35,IO21*%
%TO.N,PWR*%
X157056750Y-106150000D03*
D31*
%TO.P,U1,36,GND*%
%TO.N,GND*%
X157956750Y-105050000D03*
%TO.P,U1,37,GND*%
X157956750Y-104250000D03*
%TO.P,U1,38,GND*%
X157956750Y-103450000D03*
%TO.P,U1,39,GND*%
X157956750Y-102650000D03*
%TO.P,U1,40,GND*%
X157956750Y-101850000D03*
%TO.P,U1,41,GND*%
X157956750Y-101050000D03*
%TO.P,U1,42,GND*%
X157956750Y-100250000D03*
%TO.P,U1,43,GND*%
X157956750Y-99450000D03*
%TO.P,U1,44,GND*%
X157956750Y-98650000D03*
%TO.P,U1,45,GND*%
X157956750Y-97850000D03*
%TO.P,U1,46,GND*%
X157956750Y-97050000D03*
%TO.P,U1,47,GND*%
X157956750Y-96250000D03*
%TO.P,U1,48,GND*%
X157956750Y-95450000D03*
D32*
%TO.P,U1,49,GND*%
X155031750Y-98275000D03*
D33*
X155031750Y-102225000D03*
X155031750Y-100250000D03*
X151081750Y-102225000D03*
X151081750Y-100250000D03*
X153056750Y-102225000D03*
X151081750Y-98275000D03*
X153056750Y-98275000D03*
X153056750Y-100250000D03*
D34*
%TO.P,U1,50,GND*%
X158006750Y-106200000D03*
%TO.P,U1,51,GND*%
X148106750Y-106200000D03*
%TO.P,U1,52,GND*%
X148106750Y-94300000D03*
%TO.P,U1,53,GND*%
X158006750Y-94300000D03*
%TD*%
D35*
%TO.P,D2,1,A1*%
%TO.N,GND*%
X154800000Y-109600000D03*
%TO.P,D2,2,K2*%
%TO.N,+3V3*%
X154800000Y-110250000D03*
%TO.P,D2,3,K1A2*%
%TO.N,MTR*%
X154800000Y-110900000D03*
%TO.P,D2,4,A3*%
%TO.N,GND*%
X156700000Y-110900000D03*
%TO.P,D2,5,K4*%
%TO.N,+3V3*%
X156700000Y-110250000D03*
%TO.P,D2,6,K3A4*%
%TO.N,PWR*%
X156700000Y-109600000D03*
%TD*%
D24*
%TO.P,C2,1*%
%TO.N,Net-(C2-Pad1)*%
X133225000Y-98500000D03*
%TO.P,C2,2*%
%TO.N,GND*%
X134775000Y-98500000D03*
%TD*%
D18*
%TO.P,R4,1*%
%TO.N,Net-(D1-Pad2)*%
X144175000Y-97250000D03*
%TO.P,R4,2*%
%TO.N,R*%
X145825000Y-97250000D03*
%TD*%
D36*
%TO.P,D1,1,A*%
%TO.N,+3V3*%
X145875000Y-96000000D03*
%TO.P,D1,2,RK*%
%TO.N,Net-(D1-Pad2)*%
X144125000Y-96000000D03*
%TO.P,D1,3,GK*%
%TO.N,Net-(D1-Pad3)*%
X144125000Y-95000000D03*
%TO.P,D1,4,BK*%
%TO.N,Net-(D1-Pad4)*%
X145875000Y-95000000D03*
%TD*%
D37*
%TO.P,D4,1,K*%
%TO.N,DC*%
X130750000Y-107150000D03*
%TO.P,D4,2,A*%
%TO.N,VBUS*%
X130750000Y-104350000D03*
%TD*%
D18*
%TO.P,R9,1*%
%TO.N,Net-(C2-Pad1)*%
X133175000Y-97250000D03*
%TO.P,R9,2*%
%TO.N,D-*%
X134825000Y-97250000D03*
%TD*%
D19*
%TO.P,R3,1*%
%TO.N,Net-(R2-Pad2)*%
X131250000Y-99075000D03*
%TO.P,R3,2*%
%TO.N,GND*%
X131250000Y-97425000D03*
%TD*%
D38*
%TO.P,Q1,1,G*%
%TO.N,TX20MA*%
X130800000Y-110937500D03*
%TO.P,Q1,2,S*%
%TO.N,GND*%
X132700000Y-110937500D03*
%TO.P,Q1,3,D*%
%TO.N,Net-(J5-Pad2)*%
X131750000Y-109062500D03*
%TD*%
D39*
%TO.P,U6,*%
%TO.N,*%
X125250000Y-98350000D03*
D40*
X123500000Y-96550000D03*
D41*
X123825000Y-97450000D03*
D42*
X126200000Y-98350000D03*
D43*
X126700000Y-97050000D03*
D44*
X122200000Y-96475000D03*
D39*
X125250000Y-95650000D03*
D44*
X122200000Y-98025000D03*
D45*
X125097500Y-100170000D03*
D46*
X125250000Y-99300000D03*
D39*
%TO.P,U6,1,SHDN*%
%TO.N,DC*%
X123350000Y-98350000D03*
D47*
%TO.P,U6,2,VIN*%
X123450000Y-99600000D03*
D39*
X124300000Y-98350000D03*
D48*
X123240000Y-99550000D03*
D45*
%TO.P,U6,3,GND*%
%TO.N,GND*%
X128062500Y-100170000D03*
D47*
X123450000Y-101500000D03*
X129700000Y-101500000D03*
D39*
X124300000Y-95650000D03*
D49*
X123200000Y-101500000D03*
D47*
%TO.P,U6,4,VOUT*%
%TO.N,+3V3*%
X129700000Y-99600000D03*
D43*
X129700000Y-97050000D03*
D50*
X129700000Y-97800000D03*
D39*
%TO.P,U6,5,FB*%
%TO.N,Net-(R11-Pad2)*%
X123350000Y-95650000D03*
%TD*%
D27*
%TO.P,J6,1,Pin_1*%
%TO.N,Net-(J6-Pad1)*%
X140000000Y-113400000D03*
D28*
%TO.P,J6,2,Pin_2*%
%TO.N,Net-(J6-Pad2)*%
X142500000Y-113400000D03*
%TO.P,J6,3,Pin_3*%
%TO.N,Net-(J6-Pad3)*%
X145000000Y-113400000D03*
%TD*%
D18*
%TO.P,R5,1*%
%TO.N,Net-(D1-Pad3)*%
X144175000Y-98500000D03*
%TO.P,R5,2*%
%TO.N,G*%
X145825000Y-98500000D03*
%TD*%
D51*
%TO.P,R10,1*%
%TO.N,D+*%
X134825000Y-96000000D03*
%TO.P,R10,2*%
%TO.N,Net-(C3-Pad1)*%
X133175000Y-96000000D03*
%TD*%
D27*
%TO.P,J2,1,Pin_1*%
%TO.N,GND*%
X122500000Y-113400000D03*
D28*
%TO.P,J2,2,Pin_2*%
%TO.N,DC*%
X125000000Y-113400000D03*
%TD*%
D52*
%TO.P,SW1,1,1*%
%TO.N,GND*%
X133250000Y-107000000D03*
X133250000Y-100500000D03*
%TO.P,SW1,2,2*%
%TO.N,BUTTON*%
X137750000Y-107000000D03*
X137750000Y-100500000D03*
%TD*%
D27*
%TO.P,J3,1,Pin_1*%
%TO.N,GND*%
X157500000Y-113400000D03*
D28*
%TO.P,J3,2,Pin_2*%
%TO.N,PWR*%
X160000000Y-113400000D03*
%TO.P,J3,3,Pin_3*%
%TO.N,MTR*%
X162500000Y-113400000D03*
%TD*%
D35*
%TO.P,D3,1,A1*%
%TO.N,GND*%
X150300000Y-109600000D03*
%TO.P,D3,2,K2*%
%TO.N,+3V3*%
X150300000Y-110250000D03*
%TO.P,D3,3,K1A2*%
%TO.N,BUTTON*%
X150300000Y-110900000D03*
%TO.P,D3,4,A3*%
%TO.N,GND*%
X152200000Y-110900000D03*
%TO.P,D3,5,K4*%
%TO.N,+3V3*%
X152200000Y-110250000D03*
%TO.P,D3,6,K3A4*%
%TO.N,RUN*%
X152200000Y-109600000D03*
%TD*%
D27*
%TO.P,J4,1,Pin_1*%
%TO.N,GND*%
X150000000Y-113400000D03*
D28*
%TO.P,J4,2,Pin_2*%
%TO.N,RUN*%
X152500000Y-113400000D03*
%TD*%
D53*
%TO.P,C1,1*%
%TO.N,+3V3*%
X142000000Y-97975000D03*
%TO.P,C1,2*%
%TO.N,GND*%
X142000000Y-99525000D03*
%TD*%
D54*
%TO.N,EN*%
X151500000Y-96500000D03*
%TO.N,GND*%
X151000000Y-108250000D03*
X126500000Y-100250000D03*
X138000000Y-96500000D03*
X155500000Y-108250000D03*
X158000000Y-108250000D03*
%TO.N,+3V3*%
X155500000Y-95250000D03*
X146750000Y-94250000D03*
X151250000Y-110250000D03*
X135500000Y-100250000D03*
X155750000Y-110250000D03*
X129750000Y-94500000D03*
%TO.N,VBUS*%
X129023574Y-109500000D03*
X129076070Y-104500000D03*
%TO.N,O*%
X153750000Y-105000000D03*
X139750000Y-94250000D03*
%TO.N,I*%
X152500000Y-105000000D03*
X140750000Y-98250000D03*
%TO.N,EN*%
X141044720Y-95070653D03*
%TO.N,GPIO0*%
X141382745Y-96997539D03*
X149250000Y-104250000D03*
%TO.N,TX20MA*%
X129750000Y-111750000D03*
X147000000Y-101000000D03*
%TO.N,Net-(C2-Pad1)*%
X129062701Y-106162701D03*
X131500000Y-94724500D03*
%TO.N,Net-(R2-Pad2)*%
X139750000Y-100500000D03*
X139750000Y-98250000D03*
%TO.N,Net-(C3-Pad1)*%
X128500000Y-107675500D03*
X132250000Y-95500000D03*
%TO.N,DC*%
X122250000Y-99750000D03*
%TD*%
D55*
%TO.N,EN*%
X151456750Y-94350000D02*
X151456750Y-96456750D01*
X151500000Y-96500000D02*
G75*
G02*
X151456750Y-96456750I1J43251D01*
G01*
D56*
%TO.N,D+*%
X136100000Y-96500000D02*
X136032106Y-96500000D01*
X134825000Y-96000000D02*
G75*
G03*
X136032106Y-96500000I1207107J1207108D01*
G01*
D57*
%TO.N,GND*%
X128062500Y-100170000D02*
X126580000Y-100170000D01*
D55*
X138500000Y-96000000D02*
X138000000Y-96500000D01*
X134775000Y-94750000D02*
X135350000Y-94750000D01*
X138000000Y-94600000D02*
X138000000Y-96500000D01*
X138000000Y-98400000D02*
X138000000Y-96500000D01*
X129700000Y-101500000D02*
X129700000Y-102775000D01*
X126860000Y-103800000D02*
X128125000Y-103800000D01*
X137500000Y-94600000D02*
X137500000Y-96000000D01*
X126860000Y-110200000D02*
X128125000Y-110200000D01*
X137000000Y-94600000D02*
X137000000Y-95500000D01*
X136100000Y-95500000D02*
X137000000Y-95500000D01*
D57*
X126580000Y-100170000D02*
X126500000Y-100250000D01*
D55*
X138500000Y-94600000D02*
X138500000Y-96000000D01*
X137000000Y-95500000D02*
X138000000Y-96500000D01*
X134775000Y-98500000D02*
X134775000Y-98975000D01*
X129700000Y-102775000D02*
X129475000Y-103000000D01*
X136100000Y-95500000D02*
G75*
G03*
X135350000Y-94750000I-750000J0D01*
G01*
X128250000Y-103675000D02*
G75*
G02*
X128125000Y-103800000I-125001J1D01*
G01*
X128250000Y-110325000D02*
G75*
G03*
X128125000Y-110200000I-125001J-1D01*
G01*
X133250000Y-100500000D02*
G75*
G03*
X134775000Y-98975000I1J1524999D01*
G01*
D56*
%TO.N,D-*%
X136100000Y-97000000D02*
X135428553Y-97000000D01*
X134825000Y-97250000D02*
G75*
G02*
X135428553Y-97000000I603555J-603556D01*
G01*
D55*
%TO.N,+3V3*%
X155500000Y-94393250D02*
X155456750Y-94350000D01*
X135500000Y-99900000D02*
X135500000Y-100250000D01*
X146624511Y-94425489D02*
X146624511Y-94375489D01*
X129250000Y-94000000D02*
X120925000Y-94000000D01*
X137000000Y-98400000D02*
X137500000Y-98400000D01*
X142000000Y-94425000D02*
X142825000Y-94425000D01*
X137777192Y-99074520D02*
X140824520Y-99074520D01*
X142825000Y-94425000D02*
X146624022Y-94425000D01*
X151250000Y-110250000D02*
X152200000Y-110250000D01*
X146624511Y-94375489D02*
X146750000Y-94250000D01*
X141789380Y-98483482D02*
X141462675Y-98810187D01*
X155500000Y-95250000D02*
X155500000Y-94393250D01*
X140545387Y-94545387D02*
X140118656Y-94972118D01*
X146624022Y-94425000D02*
X146624511Y-94425489D01*
X140551407Y-94539366D02*
X140545387Y-94545387D01*
X146624511Y-95425489D02*
X146050000Y-96000000D01*
X129700000Y-94550000D02*
X129750000Y-94500000D01*
X146050000Y-96000000D02*
X145875000Y-96000000D01*
X142799520Y-94486514D02*
X142799520Y-97175480D01*
X146624511Y-94425489D02*
X146624511Y-95425489D01*
X137500000Y-98797328D02*
X137500000Y-98400000D01*
X155750000Y-110250000D02*
X156700000Y-110250000D01*
X150300000Y-110250000D02*
X151250000Y-110250000D01*
X141577513Y-94250000D02*
X141250000Y-94250000D01*
X136825000Y-98575000D02*
X137000000Y-98400000D01*
X154800000Y-110250000D02*
X155750000Y-110250000D01*
X129700000Y-97050000D02*
X129700000Y-94550000D01*
X135500000Y-99900000D02*
G75*
G02*
X136825000Y-98575000I1325002J-2D01*
G01*
X142000000Y-97975000D02*
G75*
G03*
X142799520Y-97175480I0J799520D01*
G01*
X140551407Y-94539366D02*
G75*
G02*
X141250000Y-94250000I698593J-698597D01*
G01*
X141577513Y-94250000D02*
G75*
G02*
X142000000Y-94425000I1J-597483D01*
G01*
X142799521Y-94486514D02*
G75*
G02*
X142825001Y-94425001I86993J0D01*
G01*
X120750000Y-94175000D02*
G75*
G02*
X120925000Y-94000000I174999J1D01*
G01*
X139900001Y-95500000D02*
G75*
G02*
X140118657Y-94972119I746537J0D01*
G01*
X141789380Y-98483482D02*
G75*
G03*
X142000000Y-97975000I-508481J508481D01*
G01*
X137500000Y-98797328D02*
G75*
G03*
X137777192Y-99074520I277193J1D01*
G01*
X129250000Y-94000000D02*
G75*
G02*
X129750000Y-94500000I-1J-500001D01*
G01*
X140824520Y-99074520D02*
G75*
G03*
X141462675Y-98810187I-1J902488D01*
G01*
X137000000Y-98400000D02*
G75*
G03*
X136100000Y-97500000I-900000J0D01*
G01*
%TO.N,VBUS*%
X129008811Y-104556954D02*
X129019116Y-104556954D01*
X131025000Y-104075000D02*
X130750000Y-104350000D01*
X126860000Y-109400000D02*
X128923574Y-109400000D01*
X131025000Y-103000000D02*
X131025000Y-104075000D01*
X129019116Y-104556954D02*
X129076070Y-104500000D01*
X126860000Y-104600000D02*
X128923574Y-104600000D01*
X129076310Y-104499760D02*
X129076070Y-104500000D01*
X131250000Y-102775000D02*
X131025000Y-103000000D01*
X130629789Y-104499760D02*
X129076310Y-104499760D01*
X131250000Y-101825000D02*
X131250000Y-102775000D01*
X129008810Y-104556953D02*
G75*
G02*
X128923574Y-104599999I-88171J68677D01*
G01*
X129023574Y-109500000D02*
G75*
G03*
X128923574Y-109400000I-99999J1D01*
G01*
X130629789Y-104499759D02*
G75*
G03*
X130750000Y-104350000I-35907J151948D01*
G01*
%TO.N,MTR*%
X154225000Y-110900000D02*
X154800000Y-110900000D01*
X156256750Y-106150000D02*
X156256750Y-106743250D01*
X155500000Y-107500000D02*
X155000000Y-107500000D01*
X154800000Y-110900000D02*
X154800000Y-112787493D01*
X154000000Y-108500000D02*
X154000000Y-110675000D01*
X156762507Y-114750000D02*
X161150000Y-114750000D01*
X155500000Y-107500000D02*
G75*
G03*
X156256750Y-106743250I0J756750D01*
G01*
X154225000Y-110900000D02*
G75*
G02*
X154000000Y-110675000I0J225000D01*
G01*
X162500000Y-113400000D02*
G75*
G02*
X161150000Y-114750000I-1350001J1D01*
G01*
X156762507Y-114750000D02*
G75*
G02*
X154800000Y-112787493I0J1962507D01*
G01*
X154000000Y-108500000D02*
G75*
G02*
X155000000Y-107500000I999999J1D01*
G01*
%TO.N,PWR*%
X158250000Y-110575000D02*
X158250000Y-111750000D01*
X159900000Y-113400000D02*
X160000000Y-113400000D01*
X158250000Y-111750000D02*
X158750000Y-112250000D01*
X156700000Y-109600000D02*
X157275000Y-109600000D01*
X157056750Y-106150000D02*
X157056750Y-106693250D01*
X156700000Y-107050000D02*
X156700000Y-109600000D01*
X157000000Y-106750000D02*
G75*
G03*
X157056750Y-106693250I-1J56751D01*
G01*
X156700000Y-107050000D02*
G75*
G02*
X157000000Y-106750000I300000J0D01*
G01*
X158250000Y-110575000D02*
G75*
G03*
X157275000Y-109600000I-975000J0D01*
G01*
X159900000Y-113400000D02*
G75*
G02*
X158750000Y-112250000I-1J1149999D01*
G01*
%TO.N,RUN*%
X152200000Y-109600000D02*
X152775000Y-109600000D01*
X155250000Y-107000000D02*
X154000000Y-107000000D01*
X152200000Y-109600000D02*
X152200000Y-108800000D01*
X152849511Y-109674511D02*
X152849511Y-113050489D01*
X152775000Y-109600000D02*
X152849511Y-109674511D01*
X155456750Y-106150000D02*
X155456750Y-106793250D01*
X155250000Y-107000000D02*
G75*
G03*
X155456750Y-106793250I-1J206751D01*
G01*
X154000000Y-107000000D02*
G75*
G03*
X152200000Y-108800000I1J-1800001D01*
G01*
X152500000Y-113400000D02*
G75*
G03*
X152849511Y-113050489I1J349510D01*
G01*
%TO.N,RX20MA*%
X146720153Y-99637574D02*
X147390222Y-98967507D01*
X145217777Y-101250000D02*
X142830000Y-101250000D01*
X145770892Y-101020892D02*
X146413229Y-100378555D01*
X139730000Y-104350000D02*
G75*
G02*
X142830000Y-101250000I3100000J0D01*
G01*
X147390222Y-98967507D02*
G75*
G02*
X148156750Y-98650000I766526J-766522D01*
G01*
X146720153Y-99637574D02*
G75*
G03*
X146549520Y-100049520I411950J-411947D01*
G01*
X146549520Y-100049520D02*
G75*
G02*
X146413229Y-100378555I-465329J2D01*
G01*
X145217777Y-101249999D02*
G75*
G03*
X145770891Y-101020891I2J782217D01*
G01*
%TO.N,O*%
X139400000Y-94600000D02*
X139750000Y-94250000D01*
X153750000Y-106043250D02*
X153856750Y-106150000D01*
X139000000Y-94600000D02*
X139400000Y-94600000D01*
X153750000Y-105000000D02*
X153750000Y-106043250D01*
%TO.N,I*%
X140750000Y-97452672D02*
X140750000Y-98250000D01*
X153056750Y-106150000D02*
X153056750Y-105556750D01*
X140297328Y-97000000D02*
X140750000Y-97452672D01*
X139900000Y-97000000D02*
X140297328Y-97000000D01*
X152500000Y-105000000D02*
G75*
G02*
X153056750Y-105556750I1J-556749D01*
G01*
%TO.N,Net-(J1-PadA5)*%
X126860000Y-105750000D02*
X127825000Y-105750000D01*
X128250000Y-105325000D02*
G75*
G02*
X127825000Y-105750000I-425001J1D01*
G01*
%TO.N,EN*%
X140750000Y-96000000D02*
X141044720Y-95705280D01*
X140750000Y-96000000D02*
X141925000Y-96000000D01*
X139900000Y-96000000D02*
X140750000Y-96000000D01*
X141044720Y-95705280D02*
X141044720Y-95070653D01*
X141925000Y-96000000D02*
X142000000Y-96075000D01*
%TO.N,Net-(J1-PadB5)*%
X126860000Y-108750000D02*
X128175000Y-108750000D01*
X128250000Y-108675000D02*
G75*
G02*
X128175000Y-108750000I-75000J0D01*
G01*
%TO.N,GPIO0*%
X139900000Y-96500000D02*
X140885206Y-96500000D01*
X140885206Y-96500000D02*
X141382745Y-96997539D01*
X149250000Y-104250000D02*
X148156750Y-104250000D01*
%TO.N,Net-(D1-Pad2)*%
X144125000Y-97200000D02*
X144175000Y-97250000D01*
X144125000Y-96000000D02*
X144125000Y-97200000D01*
%TO.N,TX20MA*%
X147000000Y-101000000D02*
X147000000Y-100606750D01*
X130562500Y-110937500D02*
X129750000Y-111750000D01*
X130800000Y-110937500D02*
X130562500Y-110937500D01*
X148156750Y-99450000D02*
G75*
G03*
X147000000Y-100606750I-1J-1156749D01*
G01*
%TO.N,Net-(C2-Pad1)*%
X126224994Y-106250000D02*
X126860000Y-106250000D01*
X128444327Y-106249909D02*
X128531535Y-106162701D01*
X132274020Y-93950480D02*
X133700480Y-93950480D01*
X128531535Y-106162701D02*
X129062701Y-106162701D01*
X126860000Y-106250000D02*
X128425500Y-106250000D01*
X133175000Y-97250000D02*
X133175000Y-98450000D01*
X126860000Y-107250000D02*
X126224994Y-107250000D01*
X134000000Y-94250000D02*
X134000000Y-96425000D01*
X125965480Y-106990486D02*
X125965480Y-106509514D01*
X133175000Y-98450000D02*
X133225000Y-98500000D01*
X125965480Y-106990486D02*
G75*
G03*
X126224994Y-107250000I259514J0D01*
G01*
X132274020Y-93950480D02*
G75*
G03*
X131500000Y-94724500I-1J-774019D01*
G01*
X128444327Y-106249908D02*
G75*
G02*
X128425500Y-106249999I-9679J54878D01*
G01*
X134000000Y-94250000D02*
G75*
G03*
X133700480Y-93950480I-299519J1D01*
G01*
X126224994Y-106250000D02*
G75*
G03*
X125965480Y-106509514I0J-259514D01*
G01*
X133175000Y-97250000D02*
G75*
G03*
X134000000Y-96425000I0J825000D01*
G01*
%TO.N,Net-(D1-Pad3)*%
X143950000Y-95000000D02*
X143375489Y-95574511D01*
X143375489Y-97700489D02*
X144175000Y-98500000D01*
X143375489Y-95574511D02*
X143375489Y-97700489D01*
X144125000Y-95000000D02*
X143950000Y-95000000D01*
%TO.N,R*%
X145907728Y-97250000D02*
X147390222Y-95767507D01*
X145907728Y-97250000D02*
X145825000Y-97250000D01*
X147390222Y-95767507D02*
G75*
G02*
X148156750Y-95450000I766526J-766522D01*
G01*
%TO.N,G*%
X147384789Y-96569757D02*
X147049451Y-96905095D01*
X146787500Y-97537500D02*
G75*
G02*
X145825000Y-98500000I-962501J1D01*
G01*
X146787501Y-97537500D02*
G75*
G02*
X147049452Y-96905096I894352J1D01*
G01*
X148156750Y-96250000D02*
G75*
G03*
X147384789Y-96569757I-2J-1091712D01*
G01*
%TO.N,B*%
X147419706Y-98155293D02*
X145825000Y-99750000D01*
X147419706Y-98155293D02*
G75*
G02*
X148156750Y-97850000I737044J-737047D01*
G01*
%TO.N,Net-(R2-Pad2)*%
X131945891Y-101304109D02*
X131556331Y-100914550D01*
X138250000Y-102000000D02*
X133272367Y-102000000D01*
X131250000Y-99075000D02*
X131250000Y-100175000D01*
X132195891Y-101554109D02*
X131945891Y-101304109D01*
X139900000Y-98100000D02*
X139750000Y-98250000D01*
X139900000Y-97500000D02*
X139900000Y-98100000D01*
X132195891Y-101554109D02*
G75*
G03*
X133272367Y-102000000I1076474J1076471D01*
G01*
X138250000Y-102000000D02*
G75*
G03*
X139750000Y-100500000I-1J1500001D01*
G01*
X131250000Y-100175000D02*
G75*
G03*
X131556331Y-100914550I1045887J2D01*
G01*
%TO.N,Net-(D1-Pad4)*%
X144899520Y-95800480D02*
X144899520Y-99025480D01*
X144899520Y-99025480D02*
X144175000Y-99750000D01*
X145875000Y-95000000D02*
X145700000Y-95000000D01*
X145700000Y-95000000D02*
X144899520Y-95800480D01*
%TO.N,Net-(C3-Pad1)*%
X126860000Y-106750000D02*
X127495006Y-106750000D01*
X133225000Y-95950000D02*
X133175000Y-96000000D01*
X127754520Y-107009514D02*
X127754520Y-107490486D01*
X133225000Y-94750000D02*
X133225000Y-95950000D01*
X133175000Y-96000000D02*
X132750000Y-96000000D01*
X126860000Y-107750000D02*
X128425500Y-107750000D01*
X132750000Y-96000000D02*
X132250000Y-95500000D01*
X128500000Y-107675500D02*
G75*
G02*
X128425500Y-107750000I-74502J2D01*
G01*
X127495006Y-107750000D02*
G75*
G03*
X127754520Y-107490486I0J259514D01*
G01*
X127754520Y-107009514D02*
G75*
G03*
X127495006Y-106750000I-259514J0D01*
G01*
%TO.N,Net-(J5-Pad2)*%
X131750000Y-109062500D02*
X131750000Y-112650000D01*
X132500000Y-113400000D02*
G75*
G02*
X131750000Y-112650000I0J750000D01*
G01*
%TO.N,Net-(J6-Pad1)*%
X145000000Y-106712500D02*
X143287500Y-106712500D01*
X142270000Y-110650000D02*
X142270000Y-107730000D01*
X140200000Y-113400000D02*
X140000000Y-113400000D01*
X142270000Y-110650000D02*
X142270000Y-111330000D01*
X142270000Y-111330000D02*
X140200000Y-113400000D01*
X142270000Y-107730000D02*
G75*
G02*
X143287500Y-106712500I1017501J-1D01*
G01*
%TO.N,Net-(J6-Pad2)*%
X138825480Y-114312973D02*
X138825480Y-111554520D01*
X141250480Y-114649520D02*
X139162027Y-114649520D01*
X139730000Y-110650000D02*
G75*
G03*
X138825480Y-111554520I1J-904521D01*
G01*
X141250480Y-114649520D02*
G75*
G03*
X142500000Y-113400000I0J1249520D01*
G01*
X138825480Y-114312973D02*
G75*
G03*
X139162027Y-114649520I336546J-1D01*
G01*
%TO.N,BUTTON*%
X147250000Y-107000000D02*
X149006750Y-107000000D01*
X141500000Y-106000000D02*
X141500000Y-103500000D01*
X150300000Y-110900000D02*
X149600000Y-110900000D01*
X146250000Y-103500000D02*
X146250000Y-106000000D01*
X142250000Y-102750000D02*
X145500000Y-102750000D01*
X137750000Y-107000000D02*
X140500000Y-107000000D01*
X149500000Y-107493250D02*
X149500000Y-111000000D01*
X149856750Y-106150000D02*
G75*
G02*
X149006750Y-107000000I-849999J-1D01*
G01*
X146250000Y-103500000D02*
G75*
G03*
X145500000Y-102750000I-750000J0D01*
G01*
X149500000Y-107493250D02*
G75*
G03*
X149006750Y-107000000I-493251J-1D01*
G01*
X142250000Y-102750000D02*
G75*
G03*
X141500000Y-103500000I0J-750000D01*
G01*
X147250000Y-107000000D02*
G75*
G02*
X146250000Y-106000000I-1J999999D01*
G01*
X141500000Y-106000000D02*
G75*
G02*
X140500000Y-107000000I-999999J-1D01*
G01*
X149500000Y-111000000D02*
G75*
G02*
X149600000Y-110900000I99999J1D01*
G01*
%TO.N,Net-(R11-Pad2)*%
X120750000Y-95825000D02*
X120750000Y-97175000D01*
X120874520Y-95700480D02*
X123299520Y-95700480D01*
X120750000Y-95825000D02*
X120874520Y-95700480D01*
X123350000Y-95650000D02*
G75*
G02*
X123299520Y-95700480I-50479J-1D01*
G01*
%TO.N,Net-(J5-Pad3)*%
X134050000Y-111200000D02*
X134050000Y-112450000D01*
X134050000Y-111200000D02*
X134050000Y-110250000D01*
X136450000Y-110250000D02*
X134050000Y-110250000D01*
X135000000Y-113400000D02*
G75*
G02*
X134050000Y-112450000I2J950002D01*
G01*
D57*
%TO.N,DC*%
X122250000Y-99750000D02*
X123300000Y-99750000D01*
X130750000Y-107150000D02*
X130750000Y-108135669D01*
X125096760Y-113400000D02*
X125000000Y-113400000D01*
D55*
X144750000Y-115250000D02*
X136500000Y-115250000D01*
X124300000Y-98350000D02*
X123350000Y-98350000D01*
X136500000Y-115250000D02*
X126850000Y-115250000D01*
D57*
X129984280Y-109984280D02*
X127609280Y-112359280D01*
D55*
X136450000Y-111200000D02*
X136450000Y-115200000D01*
X146200000Y-111200000D02*
X146200000Y-113800000D01*
X125000000Y-113400000D02*
G75*
G03*
X126850000Y-115250000I1849998J-2D01*
G01*
D57*
X125096760Y-113400000D02*
G75*
G03*
X127609280Y-112359280I1J3553236D01*
G01*
X123450000Y-99600000D02*
G75*
G02*
X123300000Y-99750000I-150000J0D01*
G01*
X129984280Y-109984280D02*
G75*
G03*
X130750000Y-108135669I-1848609J1848611D01*
G01*
D55*
X136500000Y-115250000D02*
G75*
G02*
X136450000Y-115200000I1J50001D01*
G01*
X144750000Y-115250000D02*
G75*
G03*
X146200000Y-113800000I1J1449999D01*
G01*
%TO.N,Net-(J6-Pad3)*%
X143800000Y-111200000D02*
X143800000Y-112200000D01*
X143800000Y-110250000D02*
X146200000Y-110250000D01*
X143800000Y-111200000D02*
X143800000Y-110250000D01*
X145000000Y-113400000D02*
G75*
G02*
X143800000Y-112200000I0J1200000D01*
G01*
%TD*%
%TA.AperFunction,Conductor*%
%TO.N,GND*%
G36*
X121604854Y-98591002D02*
G01*
X121612298Y-98596174D01*
X121710179Y-98669532D01*
X121710182Y-98669534D01*
X121717365Y-98674917D01*
X121725769Y-98678067D01*
X121725770Y-98678068D01*
X121838581Y-98720358D01*
X121838582Y-98720358D01*
X121845976Y-98723130D01*
X121853826Y-98723983D01*
X121853827Y-98723983D01*
X121901205Y-98729130D01*
X121904611Y-98729500D01*
X122199956Y-98729500D01*
X122495388Y-98729499D01*
X122498782Y-98729130D01*
X122498788Y-98729130D01*
X122546166Y-98723984D01*
X122546170Y-98723983D01*
X122554024Y-98723130D01*
X122679271Y-98676178D01*
X122750079Y-98670995D01*
X122812447Y-98704917D01*
X122846576Y-98767172D01*
X122849500Y-98794160D01*
X122849500Y-98827278D01*
X122829498Y-98895399D01*
X122778771Y-98939354D01*
X122779027Y-98939837D01*
X122776936Y-98940944D01*
X122775842Y-98941892D01*
X122772930Y-98943065D01*
X122770697Y-98944247D01*
X122761816Y-98947366D01*
X122754246Y-98952958D01*
X122754243Y-98952959D01*
X122674958Y-99011521D01*
X122652850Y-99027850D01*
X122647258Y-99035421D01*
X122610507Y-99085177D01*
X122553945Y-99128088D01*
X122478461Y-99132521D01*
X122340004Y-99097743D01*
X122340000Y-99097743D01*
X122332633Y-99095892D01*
X122325034Y-99095852D01*
X122325033Y-99095852D01*
X122259181Y-99095507D01*
X122174221Y-99095062D01*
X122166841Y-99096834D01*
X122166839Y-99096834D01*
X122027563Y-99130271D01*
X122027560Y-99130272D01*
X122020184Y-99132043D01*
X121984039Y-99150699D01*
X121915373Y-99186140D01*
X121845666Y-99199609D01*
X121779742Y-99173254D01*
X121736687Y-99109672D01*
X121728525Y-99081876D01*
X121727135Y-99080671D01*
X121719452Y-99079000D01*
X121022115Y-99079000D01*
X121006876Y-99083475D01*
X121005671Y-99084865D01*
X121004000Y-99092548D01*
X121004000Y-99714884D01*
X121008475Y-99730123D01*
X121009865Y-99731328D01*
X121017548Y-99732999D01*
X121078705Y-99732999D01*
X121084454Y-99732736D01*
X121148315Y-99726868D01*
X121161351Y-99724257D01*
X121311243Y-99677285D01*
X121324988Y-99671079D01*
X121400467Y-99625367D01*
X121469097Y-99607188D01*
X121536661Y-99628998D01*
X121581707Y-99683874D01*
X121591732Y-99734462D01*
X121591720Y-99735565D01*
X121590729Y-99743096D01*
X121596693Y-99797115D01*
X121606454Y-99885524D01*
X121608113Y-99900553D01*
X121610723Y-99907684D01*
X121610723Y-99907686D01*
X121658242Y-100037538D01*
X121662553Y-100049319D01*
X121666789Y-100055622D01*
X121666789Y-100055623D01*
X121679547Y-100074608D01*
X121750908Y-100180805D01*
X121756527Y-100185918D01*
X121756528Y-100185919D01*
X121843522Y-100265077D01*
X121868076Y-100287419D01*
X122007293Y-100363008D01*
X122160522Y-100403207D01*
X122244477Y-100404526D01*
X122311319Y-100405576D01*
X122311322Y-100405576D01*
X122318916Y-100405695D01*
X122473332Y-100370329D01*
X122493408Y-100360232D01*
X122539546Y-100351816D01*
X122557628Y-100329344D01*
X122572950Y-100320227D01*
X122608069Y-100302565D01*
X122608075Y-100302561D01*
X122614855Y-100299151D01*
X122628591Y-100287419D01*
X122631789Y-100284688D01*
X122696579Y-100255658D01*
X122713619Y-100254500D01*
X122745648Y-100254500D01*
X122787395Y-100261617D01*
X122807201Y-100268572D01*
X122864847Y-100310014D01*
X122890936Y-100376043D01*
X122877186Y-100445696D01*
X122827962Y-100496857D01*
X122805330Y-100506979D01*
X122669439Y-100552316D01*
X122642891Y-100553283D01*
X122636058Y-100564850D01*
X122616326Y-100579940D01*
X122511843Y-100644597D01*
X122500652Y-100651522D01*
X122375695Y-100776697D01*
X122371855Y-100782927D01*
X122371854Y-100782928D01*
X122296253Y-100905576D01*
X122282885Y-100927262D01*
X122261049Y-100993096D01*
X122233103Y-101077352D01*
X122227203Y-101095139D01*
X122226503Y-101101975D01*
X122226502Y-101101978D01*
X122223205Y-101134155D01*
X122216500Y-101199600D01*
X122216500Y-101420557D01*
X122196498Y-101488678D01*
X122142842Y-101535171D01*
X122088850Y-101546546D01*
X122026506Y-101545730D01*
X122015027Y-101546633D01*
X121821199Y-101579938D01*
X121810079Y-101582918D01*
X121625557Y-101650992D01*
X121615179Y-101655942D01*
X121524146Y-101710101D01*
X121514547Y-101720436D01*
X121518033Y-101728823D01*
X123058603Y-103269393D01*
X123070983Y-103276153D01*
X123077563Y-103271227D01*
X123146662Y-103147840D01*
X123151336Y-103137343D01*
X123214557Y-102951101D01*
X123217245Y-102939905D01*
X123245762Y-102743224D01*
X123246392Y-102735843D01*
X123247757Y-102683704D01*
X123247515Y-102676318D01*
X123244732Y-102646027D01*
X123258418Y-102576362D01*
X123307596Y-102525156D01*
X123370204Y-102508500D01*
X123975400Y-102508500D01*
X123978646Y-102508163D01*
X123978650Y-102508163D01*
X124074308Y-102498238D01*
X124074312Y-102498237D01*
X124081166Y-102497526D01*
X124087702Y-102495345D01*
X124087704Y-102495345D01*
X124232239Y-102447124D01*
X124248946Y-102441550D01*
X124399348Y-102348478D01*
X124404521Y-102343296D01*
X124447032Y-102300711D01*
X124509315Y-102266632D01*
X124536205Y-102263729D01*
X124924956Y-102263729D01*
X124993077Y-102283731D01*
X125039570Y-102337387D01*
X125049674Y-102407661D01*
X125046663Y-102422341D01*
X125037804Y-102455404D01*
X125035901Y-102466196D01*
X125017674Y-102674525D01*
X125017674Y-102685475D01*
X125035901Y-102893804D01*
X125037804Y-102904599D01*
X125091928Y-103106595D01*
X125095674Y-103116887D01*
X125184054Y-103306417D01*
X125189534Y-103315907D01*
X125218411Y-103357149D01*
X125228886Y-103365523D01*
X125242333Y-103358455D01*
X126190905Y-102409884D01*
X126253217Y-102375859D01*
X126324033Y-102380924D01*
X126369095Y-102409885D01*
X126898401Y-102939191D01*
X126921859Y-102952000D01*
X126988000Y-102952000D01*
X127056121Y-102972002D01*
X127102614Y-103025658D01*
X127114000Y-103078000D01*
X127114000Y-103136674D01*
X127121530Y-103162319D01*
X127374833Y-103415622D01*
X127389253Y-103421000D01*
X127977885Y-103421000D01*
X127993124Y-103416525D01*
X127994329Y-103415135D01*
X127996000Y-103407452D01*
X127996000Y-102785116D01*
X127991525Y-102769877D01*
X127990135Y-102768672D01*
X127982452Y-102767001D01*
X127921295Y-102767001D01*
X127915546Y-102767264D01*
X127851685Y-102773132D01*
X127838649Y-102775743D01*
X127705457Y-102817482D01*
X127634472Y-102818766D01*
X127574061Y-102781469D01*
X127543405Y-102717432D01*
X127542431Y-102690982D01*
X127542326Y-102690982D01*
X127542326Y-102688143D01*
X127542257Y-102686270D01*
X127542326Y-102685481D01*
X127542326Y-102674525D01*
X127524099Y-102466196D01*
X127522196Y-102455404D01*
X127513337Y-102422341D01*
X127515027Y-102351364D01*
X127554821Y-102292568D01*
X127620085Y-102264620D01*
X127635044Y-102263729D01*
X127987852Y-102263729D01*
X128005783Y-102265011D01*
X128016710Y-102266582D01*
X128059637Y-102264281D01*
X128077650Y-102263316D01*
X128087124Y-102264079D01*
X128087124Y-102263729D01*
X128465625Y-102263729D01*
X128533746Y-102283731D01*
X128580239Y-102337387D01*
X128590343Y-102407661D01*
X128579819Y-102442980D01*
X128578850Y-102445057D01*
X128529509Y-102593814D01*
X128526642Y-102607190D01*
X128517328Y-102698097D01*
X128517000Y-102704514D01*
X128517000Y-102727885D01*
X128521475Y-102743124D01*
X128522865Y-102744329D01*
X128530548Y-102746000D01*
X129603000Y-102746000D01*
X129671121Y-102766002D01*
X129717614Y-102819658D01*
X129729000Y-102872000D01*
X129729000Y-103128000D01*
X129708998Y-103196121D01*
X129655342Y-103242614D01*
X129603000Y-103254000D01*
X128522115Y-103254000D01*
X128506876Y-103258475D01*
X128505671Y-103259865D01*
X128504000Y-103267548D01*
X128504000Y-103402885D01*
X128508475Y-103418124D01*
X128509865Y-103419329D01*
X128517548Y-103421000D01*
X129147000Y-103421000D01*
X129215121Y-103441002D01*
X129261614Y-103494658D01*
X129273000Y-103547000D01*
X129273000Y-103719829D01*
X129252998Y-103787950D01*
X129199342Y-103834443D01*
X129146340Y-103845827D01*
X129075074Y-103845454D01*
X129000291Y-103845062D01*
X128992911Y-103846834D01*
X128992909Y-103846834D01*
X128853633Y-103880271D01*
X128853630Y-103880272D01*
X128846254Y-103882043D01*
X128839509Y-103885524D01*
X128839510Y-103885524D01*
X128782467Y-103914966D01*
X128724677Y-103929000D01*
X127996115Y-103929000D01*
X127980876Y-103933475D01*
X127979671Y-103934865D01*
X127975339Y-103954781D01*
X127941315Y-104017094D01*
X127879003Y-104051120D01*
X127852218Y-104054000D01*
X127510210Y-104054000D01*
X127485629Y-104051579D01*
X127461135Y-104046707D01*
X127455067Y-104045500D01*
X126860097Y-104045500D01*
X126264934Y-104045501D01*
X126242314Y-104050000D01*
X126234375Y-104051579D01*
X126209796Y-104054000D01*
X125790322Y-104054000D01*
X125790159Y-104053952D01*
X125787593Y-104055341D01*
X125783672Y-104059865D01*
X125782001Y-104067548D01*
X125782001Y-104144669D01*
X125782371Y-104151490D01*
X125787895Y-104202352D01*
X125791521Y-104217604D01*
X125836676Y-104338054D01*
X125845214Y-104353649D01*
X125921715Y-104455724D01*
X125934272Y-104468281D01*
X125985065Y-104506348D01*
X126027580Y-104563208D01*
X126035500Y-104607175D01*
X126035501Y-104769339D01*
X126035501Y-104925066D01*
X126044391Y-104969764D01*
X126050266Y-104999301D01*
X126047847Y-104999782D01*
X126053596Y-105053294D01*
X126048197Y-105070298D01*
X126048589Y-105070412D01*
X126045890Y-105079671D01*
X126041818Y-105088404D01*
X126035500Y-105136392D01*
X126035500Y-105363608D01*
X126041818Y-105411596D01*
X126058211Y-105446752D01*
X126068872Y-105516942D01*
X126058212Y-105553246D01*
X126041818Y-105588404D01*
X126035500Y-105636392D01*
X126035500Y-105809415D01*
X126015498Y-105877536D01*
X125961842Y-105924029D01*
X125953679Y-105927313D01*
X125952663Y-105927802D01*
X125945982Y-105930140D01*
X125939990Y-105933905D01*
X125850385Y-105990208D01*
X125824055Y-106006752D01*
X125722232Y-106108575D01*
X125718465Y-106114570D01*
X125657539Y-106211533D01*
X125645620Y-106230502D01*
X125598060Y-106366420D01*
X125597268Y-106373447D01*
X125597268Y-106373448D01*
X125592195Y-106418476D01*
X125590164Y-106430890D01*
X125589088Y-106435888D01*
X125586462Y-106443365D01*
X125585980Y-106448930D01*
X125585980Y-106466555D01*
X125585188Y-106480663D01*
X125583948Y-106491668D01*
X125583188Y-106497273D01*
X125581249Y-106509514D01*
X125582800Y-106519307D01*
X125582800Y-106519308D01*
X125584429Y-106529591D01*
X125585980Y-106549302D01*
X125585980Y-106950698D01*
X125584429Y-106970408D01*
X125581249Y-106990486D01*
X125583189Y-107002732D01*
X125583948Y-107008334D01*
X125596845Y-107122798D01*
X125598060Y-107133580D01*
X125645620Y-107269498D01*
X125649385Y-107275490D01*
X125716551Y-107382383D01*
X125722232Y-107391425D01*
X125824055Y-107493248D01*
X125830050Y-107497015D01*
X125897674Y-107539506D01*
X125945982Y-107569860D01*
X125952662Y-107572197D01*
X125959036Y-107575267D01*
X125958295Y-107576806D01*
X126008805Y-107613032D01*
X126034969Y-107679032D01*
X126035500Y-107690585D01*
X126035500Y-107863608D01*
X126041818Y-107911596D01*
X126058211Y-107946752D01*
X126068872Y-108016942D01*
X126058212Y-108053246D01*
X126041818Y-108088404D01*
X126040560Y-108097960D01*
X126036776Y-108126703D01*
X126035500Y-108136392D01*
X126035500Y-108363608D01*
X126041818Y-108411596D01*
X126058211Y-108446752D01*
X126068872Y-108516942D01*
X126058212Y-108553246D01*
X126041818Y-108588404D01*
X126035500Y-108636392D01*
X126035500Y-108863608D01*
X126036038Y-108867694D01*
X126038717Y-108888039D01*
X126041818Y-108911596D01*
X126045890Y-108920329D01*
X126048589Y-108929588D01*
X126045999Y-108930343D01*
X126054455Y-108986031D01*
X126050647Y-109000129D01*
X126050266Y-109000699D01*
X126049633Y-109003882D01*
X126049631Y-109003889D01*
X126041827Y-109043124D01*
X126035500Y-109074933D01*
X126035500Y-109392826D01*
X126015499Y-109460944D01*
X125985066Y-109493651D01*
X125934273Y-109531718D01*
X125921715Y-109544276D01*
X125845214Y-109646351D01*
X125836676Y-109661946D01*
X125791522Y-109782394D01*
X125787895Y-109797649D01*
X125782369Y-109848514D01*
X125782000Y-109855328D01*
X125782000Y-109927885D01*
X125786475Y-109943125D01*
X125790473Y-109946590D01*
X125798716Y-109946000D01*
X126209790Y-109946000D01*
X126234371Y-109948421D01*
X126258037Y-109953128D01*
X126264933Y-109954500D01*
X126859903Y-109954500D01*
X127455066Y-109954499D01*
X127485625Y-109948421D01*
X127510204Y-109946000D01*
X127852294Y-109946000D01*
X127920415Y-109966002D01*
X127966908Y-110019658D01*
X127973190Y-110036503D01*
X127982474Y-110068124D01*
X127983865Y-110069329D01*
X127991548Y-110071000D01*
X128378000Y-110071000D01*
X128446121Y-110091002D01*
X128492614Y-110144658D01*
X128504000Y-110197000D01*
X128504000Y-110453000D01*
X128483998Y-110521121D01*
X128430342Y-110567614D01*
X128378000Y-110579000D01*
X127392764Y-110579000D01*
X127374993Y-110584218D01*
X127126812Y-110832399D01*
X127114000Y-110855861D01*
X127114000Y-110922000D01*
X127093998Y-110990121D01*
X127040342Y-111036614D01*
X126988000Y-111048000D01*
X126929326Y-111048000D01*
X126903679Y-111055531D01*
X126369095Y-111590115D01*
X126306783Y-111624141D01*
X126235968Y-111619076D01*
X126190905Y-111590116D01*
X125241611Y-110640822D01*
X125229838Y-110634394D01*
X125217824Y-110643689D01*
X125189534Y-110684093D01*
X125184054Y-110693583D01*
X125095674Y-110883113D01*
X125091928Y-110893405D01*
X125037804Y-111095401D01*
X125035901Y-111106196D01*
X125017674Y-111314525D01*
X125017674Y-111325475D01*
X125035901Y-111533804D01*
X125037804Y-111544599D01*
X125091928Y-111746595D01*
X125095674Y-111756887D01*
X125184056Y-111946421D01*
X125189530Y-111955901D01*
X125240941Y-112029323D01*
X125263629Y-112096597D01*
X125246344Y-112165457D01*
X125194575Y-112214042D01*
X125119649Y-112226290D01*
X125060142Y-112217662D01*
X125060136Y-112217662D01*
X125054200Y-112216801D01*
X124843667Y-112226545D01*
X124837843Y-112227949D01*
X124837840Y-112227949D01*
X124644607Y-112274518D01*
X124644605Y-112274519D01*
X124638774Y-112275924D01*
X124633316Y-112278406D01*
X124633312Y-112278407D01*
X124555431Y-112313818D01*
X124446916Y-112363157D01*
X124324489Y-112450001D01*
X124285431Y-112477707D01*
X124275014Y-112485096D01*
X124129272Y-112637340D01*
X124126021Y-112642375D01*
X124086447Y-112703664D01*
X124032692Y-112750042D01*
X123962396Y-112759995D01*
X123897879Y-112730363D01*
X123859623Y-112670555D01*
X123855268Y-112648319D01*
X123847743Y-112575794D01*
X123844851Y-112562400D01*
X123793412Y-112408216D01*
X123787239Y-112395038D01*
X123701937Y-112257193D01*
X123692901Y-112245792D01*
X123578171Y-112131261D01*
X123566760Y-112122249D01*
X123428757Y-112037184D01*
X123415576Y-112031037D01*
X123261290Y-111979862D01*
X123247913Y-111976995D01*
X123242793Y-111976470D01*
X123177065Y-111949630D01*
X123136283Y-111891515D01*
X123133393Y-111820577D01*
X123145700Y-111789558D01*
X123146663Y-111787838D01*
X123151336Y-111777343D01*
X123214557Y-111591101D01*
X123217245Y-111579905D01*
X123245762Y-111383224D01*
X123246392Y-111375843D01*
X123247757Y-111323704D01*
X123247514Y-111316305D01*
X123229330Y-111118397D01*
X123227233Y-111107083D01*
X123173846Y-110917789D01*
X123169724Y-110907050D01*
X123082736Y-110730656D01*
X123081577Y-110728765D01*
X123072732Y-110722126D01*
X123060312Y-110728898D01*
X121549264Y-112239946D01*
X121486952Y-112273972D01*
X121416137Y-112268907D01*
X121371074Y-112239946D01*
X121354890Y-112223762D01*
X121340946Y-112216148D01*
X121339141Y-112216277D01*
X121332489Y-112220556D01*
X121306261Y-112246829D01*
X121297249Y-112258240D01*
X121212184Y-112396243D01*
X121206037Y-112409424D01*
X121154862Y-112563710D01*
X121151995Y-112577086D01*
X121142328Y-112671438D01*
X121142000Y-112677855D01*
X121142000Y-113127885D01*
X121146475Y-113143124D01*
X121147865Y-113144329D01*
X121155548Y-113146000D01*
X122227885Y-113146000D01*
X122243124Y-113141525D01*
X122244329Y-113140135D01*
X122246000Y-113132452D01*
X122246000Y-112053000D01*
X122266002Y-111984879D01*
X122319658Y-111938386D01*
X122372000Y-111927000D01*
X122628000Y-111927000D01*
X122696121Y-111947002D01*
X122742614Y-112000658D01*
X122754000Y-112053000D01*
X122754000Y-114814884D01*
X122758475Y-114830123D01*
X122759865Y-114831328D01*
X122767548Y-114832999D01*
X123147095Y-114832999D01*
X123153614Y-114832662D01*
X123249206Y-114822743D01*
X123262600Y-114819851D01*
X123416784Y-114768412D01*
X123429962Y-114762239D01*
X123567807Y-114676937D01*
X123579208Y-114667901D01*
X123693739Y-114553171D01*
X123702751Y-114541760D01*
X123787816Y-114403757D01*
X123793963Y-114390576D01*
X123845138Y-114236290D01*
X123848005Y-114222914D01*
X123854869Y-114155919D01*
X123881710Y-114090192D01*
X123939824Y-114049410D01*
X124010762Y-114046520D01*
X124072001Y-114082442D01*
X124079299Y-114090928D01*
X124122008Y-114145299D01*
X124196514Y-114240149D01*
X124201044Y-114244080D01*
X124201045Y-114244081D01*
X124351165Y-114374350D01*
X124351170Y-114374354D01*
X124355696Y-114378281D01*
X124538126Y-114483819D01*
X124737222Y-114552957D01*
X124743155Y-114553817D01*
X124743158Y-114553818D01*
X124815760Y-114564344D01*
X124902477Y-114576918D01*
X124967021Y-114606486D01*
X124992222Y-114636426D01*
X125011803Y-114668816D01*
X125014155Y-114671818D01*
X125014157Y-114671821D01*
X125050689Y-114718450D01*
X125178144Y-114881135D01*
X125368865Y-115071856D01*
X125581184Y-115238197D01*
X125812006Y-115377733D01*
X125815486Y-115379299D01*
X126054487Y-115486865D01*
X126054493Y-115486867D01*
X126057963Y-115488429D01*
X126315471Y-115568672D01*
X126580773Y-115617290D01*
X126584565Y-115617519D01*
X126584570Y-115617520D01*
X126722334Y-115625853D01*
X126843299Y-115633170D01*
X126850000Y-115634231D01*
X126870078Y-115631051D01*
X126889788Y-115629500D01*
X136460210Y-115629500D01*
X136479925Y-115631052D01*
X136499992Y-115634231D01*
X136509785Y-115632680D01*
X136509787Y-115632680D01*
X136520072Y-115631051D01*
X136539781Y-115629500D01*
X144710212Y-115629500D01*
X144729922Y-115631051D01*
X144750000Y-115634231D01*
X144758670Y-115632858D01*
X144761386Y-115632680D01*
X144762644Y-115632680D01*
X144764427Y-115632481D01*
X144871651Y-115625453D01*
X144985195Y-115618011D01*
X144985199Y-115618010D01*
X144989310Y-115617741D01*
X144993350Y-115616937D01*
X144993353Y-115616937D01*
X145220480Y-115571759D01*
X145220486Y-115571757D01*
X145224525Y-115570954D01*
X145228429Y-115569629D01*
X145228432Y-115569628D01*
X145447716Y-115495191D01*
X145447717Y-115495190D01*
X145451622Y-115493865D01*
X145553412Y-115443668D01*
X145663009Y-115389621D01*
X145663014Y-115389618D01*
X145666713Y-115387794D01*
X145713846Y-115356301D01*
X145862688Y-115256848D01*
X145862693Y-115256844D01*
X145866119Y-115254555D01*
X145869213Y-115251841D01*
X145869219Y-115251837D01*
X146043339Y-115099137D01*
X146046428Y-115096428D01*
X146074306Y-115064639D01*
X146201837Y-114919219D01*
X146201841Y-114919213D01*
X146204555Y-114916119D01*
X146226128Y-114883834D01*
X146335500Y-114720146D01*
X146337794Y-114716713D01*
X146342475Y-114707222D01*
X146419519Y-114550990D01*
X146443865Y-114501622D01*
X146465013Y-114439323D01*
X146519628Y-114278432D01*
X146519629Y-114278429D01*
X146520954Y-114274525D01*
X146522291Y-114267806D01*
X146551274Y-114122095D01*
X148642001Y-114122095D01*
X148642338Y-114128614D01*
X148652257Y-114224206D01*
X148655149Y-114237600D01*
X148706588Y-114391784D01*
X148712761Y-114404962D01*
X148798063Y-114542807D01*
X148807099Y-114554208D01*
X148921829Y-114668739D01*
X148933240Y-114677751D01*
X149071243Y-114762816D01*
X149084424Y-114768963D01*
X149238710Y-114820138D01*
X149252086Y-114823005D01*
X149346438Y-114832672D01*
X149352854Y-114833000D01*
X149727885Y-114833000D01*
X149743124Y-114828525D01*
X149744329Y-114827135D01*
X149746000Y-114819452D01*
X149746000Y-113672115D01*
X149741525Y-113656876D01*
X149740135Y-113655671D01*
X149732452Y-113654000D01*
X148660116Y-113654000D01*
X148644877Y-113658475D01*
X148643672Y-113659865D01*
X148642001Y-113667548D01*
X148642001Y-114122095D01*
X146551274Y-114122095D01*
X146566937Y-114043353D01*
X146566937Y-114043350D01*
X146567741Y-114039310D01*
X146571023Y-113989248D01*
X146577372Y-113892381D01*
X146579232Y-113864003D01*
X146579241Y-113863885D01*
X146579244Y-113863820D01*
X146579317Y-113862703D01*
X146579322Y-113862642D01*
X146579339Y-113862593D01*
X146579431Y-113861384D01*
X146579504Y-113860542D01*
X146580023Y-113860587D01*
X146580239Y-113859952D01*
X146579500Y-113859904D01*
X146581844Y-113824142D01*
X146582480Y-113814430D01*
X146582680Y-113812644D01*
X146582680Y-113811386D01*
X146582858Y-113808670D01*
X146584231Y-113800000D01*
X146581051Y-113779922D01*
X146579500Y-113760212D01*
X146579500Y-113127885D01*
X148642000Y-113127885D01*
X148646475Y-113143124D01*
X148647865Y-113144329D01*
X148655548Y-113146000D01*
X149727885Y-113146000D01*
X149743124Y-113141525D01*
X149744329Y-113140135D01*
X149746000Y-113132452D01*
X149746000Y-111985116D01*
X149741525Y-111969877D01*
X149740135Y-111968672D01*
X149732452Y-111967001D01*
X149352905Y-111967001D01*
X149346386Y-111967338D01*
X149250794Y-111977257D01*
X149237400Y-111980149D01*
X149083216Y-112031588D01*
X149070038Y-112037761D01*
X148932193Y-112123063D01*
X148920792Y-112132099D01*
X148806261Y-112246829D01*
X148797249Y-112258240D01*
X148712184Y-112396243D01*
X148706037Y-112409424D01*
X148654862Y-112563710D01*
X148651995Y-112577086D01*
X148642328Y-112671438D01*
X148642000Y-112677855D01*
X148642000Y-113127885D01*
X146579500Y-113127885D01*
X146579500Y-111795050D01*
X146599502Y-111726929D01*
X146648298Y-111682783D01*
X146695784Y-111658588D01*
X146783588Y-111570784D01*
X146788688Y-111560776D01*
X146835459Y-111468981D01*
X146835459Y-111468980D01*
X146839961Y-111460145D01*
X146854500Y-111368349D01*
X146854499Y-111031652D01*
X146839961Y-110939855D01*
X146832230Y-110924681D01*
X146788093Y-110838057D01*
X146788091Y-110838054D01*
X146783588Y-110829216D01*
X146768467Y-110814095D01*
X146734441Y-110751783D01*
X146739506Y-110680968D01*
X146768467Y-110635905D01*
X146783588Y-110620784D01*
X146795377Y-110597648D01*
X146835459Y-110518981D01*
X146835459Y-110518980D01*
X146839961Y-110510145D01*
X146854500Y-110418349D01*
X146854499Y-110081652D01*
X146839961Y-109989855D01*
X146835459Y-109981019D01*
X146788093Y-109888057D01*
X146788092Y-109888056D01*
X146783588Y-109879216D01*
X146768467Y-109864095D01*
X146734441Y-109801783D01*
X146739506Y-109730968D01*
X146768467Y-109685905D01*
X146783588Y-109670784D01*
X146789441Y-109659298D01*
X146835459Y-109568981D01*
X146835459Y-109568980D01*
X146839961Y-109560145D01*
X146854500Y-109468349D01*
X146854499Y-109131652D01*
X146839961Y-109039855D01*
X146833862Y-109027885D01*
X146788093Y-108938057D01*
X146788092Y-108938056D01*
X146783588Y-108929216D01*
X146695784Y-108841412D01*
X146686944Y-108836908D01*
X146686943Y-108836907D01*
X146593981Y-108789541D01*
X146593980Y-108789541D01*
X146585145Y-108785039D01*
X146493349Y-108770500D01*
X146200060Y-108770500D01*
X145906652Y-108770501D01*
X145814855Y-108785039D01*
X145806020Y-108789541D01*
X145806019Y-108789541D01*
X145713057Y-108836907D01*
X145713056Y-108836908D01*
X145704216Y-108841412D01*
X145616412Y-108929216D01*
X145611908Y-108938056D01*
X145611907Y-108938057D01*
X145566138Y-109027885D01*
X145560039Y-109039855D01*
X145545500Y-109131651D01*
X145545501Y-109468348D01*
X145546276Y-109473239D01*
X145546276Y-109473242D01*
X145549508Y-109493651D01*
X145560039Y-109560145D01*
X145564541Y-109568980D01*
X145564541Y-109568981D01*
X145578253Y-109595892D01*
X145616412Y-109670784D01*
X145619196Y-109673568D01*
X145641938Y-109737307D01*
X145625857Y-109806459D01*
X145574943Y-109855939D01*
X145516143Y-109870500D01*
X144774795Y-109870500D01*
X144706674Y-109850498D01*
X144660181Y-109796842D01*
X144650077Y-109726568D01*
X144659159Y-109694458D01*
X144661830Y-109688286D01*
X144695790Y-109571395D01*
X144695750Y-109557295D01*
X144688480Y-109554000D01*
X143672000Y-109554000D01*
X143603879Y-109533998D01*
X143557386Y-109480342D01*
X143546000Y-109428000D01*
X143546000Y-109027885D01*
X144054000Y-109027885D01*
X144058475Y-109043124D01*
X144059865Y-109044329D01*
X144067548Y-109046000D01*
X144682729Y-109046000D01*
X144696260Y-109042027D01*
X144697395Y-109034129D01*
X144661831Y-108911717D01*
X144655584Y-108897281D01*
X144580633Y-108770545D01*
X144570993Y-108758118D01*
X144466882Y-108654007D01*
X144454455Y-108644367D01*
X144327719Y-108569416D01*
X144313283Y-108563169D01*
X144170458Y-108521674D01*
X144157871Y-108519376D01*
X144130143Y-108517193D01*
X144125216Y-108517000D01*
X144072115Y-108517000D01*
X144056876Y-108521475D01*
X144055671Y-108522865D01*
X144054000Y-108530548D01*
X144054000Y-109027885D01*
X143546000Y-109027885D01*
X143546000Y-108535115D01*
X143541525Y-108519876D01*
X143540135Y-108518671D01*
X143532452Y-108517000D01*
X143474784Y-108517000D01*
X143469857Y-108517193D01*
X143442129Y-108519376D01*
X143429542Y-108521674D01*
X143286717Y-108563169D01*
X143272281Y-108569416D01*
X143145545Y-108644367D01*
X143133118Y-108654007D01*
X143029007Y-108758118D01*
X143019367Y-108770545D01*
X142944416Y-108897281D01*
X142938169Y-108911717D01*
X142896497Y-109055153D01*
X142858284Y-109114989D01*
X142793788Y-109144666D01*
X142723485Y-109134763D01*
X142669697Y-109088423D01*
X142649500Y-109020000D01*
X142649500Y-107769788D01*
X142651051Y-107750077D01*
X142652680Y-107739792D01*
X142654231Y-107730000D01*
X142652680Y-107720206D01*
X142652680Y-107710292D01*
X142653703Y-107710292D01*
X142653378Y-107695589D01*
X142663907Y-107602137D01*
X142670186Y-107574629D01*
X142707992Y-107466585D01*
X142720234Y-107441163D01*
X142748340Y-107396433D01*
X142781142Y-107344230D01*
X142798733Y-107322173D01*
X142879673Y-107241233D01*
X142901731Y-107223641D01*
X142918353Y-107213197D01*
X142998664Y-107162734D01*
X143024085Y-107150492D01*
X143070900Y-107134111D01*
X143103230Y-107122798D01*
X143132129Y-107112686D01*
X143159637Y-107106407D01*
X143253089Y-107095878D01*
X143267792Y-107096203D01*
X143267792Y-107095180D01*
X143277706Y-107095180D01*
X143287500Y-107096731D01*
X143307578Y-107093551D01*
X143327288Y-107092000D01*
X143773194Y-107092000D01*
X143841315Y-107112002D01*
X143887808Y-107165658D01*
X143891176Y-107173770D01*
X143927645Y-107271051D01*
X143933027Y-107278233D01*
X143933028Y-107278234D01*
X143973484Y-107332214D01*
X144013882Y-107386118D01*
X144021058Y-107391496D01*
X144115969Y-107462627D01*
X144128949Y-107472355D01*
X144137357Y-107475507D01*
X144256199Y-107520059D01*
X144256201Y-107520059D01*
X144263594Y-107522831D01*
X144271442Y-107523684D01*
X144271444Y-107523684D01*
X144321577Y-107529130D01*
X144324983Y-107529500D01*
X144999901Y-107529500D01*
X145675016Y-107529499D01*
X145678411Y-107529130D01*
X145678416Y-107529130D01*
X145728548Y-107523685D01*
X145728552Y-107523684D01*
X145736406Y-107522831D01*
X145871051Y-107472355D01*
X145884032Y-107462627D01*
X145978942Y-107391496D01*
X145986118Y-107386118D01*
X146026516Y-107332214D01*
X146066972Y-107278234D01*
X146066973Y-107278233D01*
X146072355Y-107271051D01*
X146092729Y-107216704D01*
X146120059Y-107143801D01*
X146120059Y-107143799D01*
X146122831Y-107136406D01*
X146123764Y-107127823D01*
X146125402Y-107112741D01*
X146152645Y-107047179D01*
X146211009Y-107006754D01*
X146281963Y-107004300D01*
X146332492Y-107030538D01*
X146436643Y-107119491D01*
X146621783Y-107232945D01*
X146626353Y-107234838D01*
X146626357Y-107234840D01*
X146787966Y-107301780D01*
X146822393Y-107316040D01*
X146873572Y-107328327D01*
X147028719Y-107365575D01*
X147028725Y-107365576D01*
X147033532Y-107366730D01*
X147179548Y-107378222D01*
X147183039Y-107378733D01*
X147183851Y-107379018D01*
X147186630Y-107379259D01*
X147186632Y-107379259D01*
X147186689Y-107379264D01*
X147189416Y-107379500D01*
X147192128Y-107379500D01*
X147194857Y-107379618D01*
X147194855Y-107379658D01*
X147200720Y-107379888D01*
X147213033Y-107380857D01*
X147244165Y-107383307D01*
X147250000Y-107384231D01*
X147270078Y-107381051D01*
X147289788Y-107379500D01*
X148966961Y-107379500D01*
X148986671Y-107381051D01*
X149000915Y-107383307D01*
X149006749Y-107384231D01*
X149006557Y-107385444D01*
X149067547Y-107408690D01*
X149109687Y-107465829D01*
X149114567Y-107493441D01*
X149115769Y-107493251D01*
X149118949Y-107513328D01*
X149120500Y-107533039D01*
X149120500Y-110960216D01*
X149118949Y-110979923D01*
X149115769Y-111000004D01*
X149120379Y-111029106D01*
X149120500Y-111030114D01*
X149120500Y-111031524D01*
X149125843Y-111063624D01*
X149125970Y-111064405D01*
X149128109Y-111077910D01*
X149132064Y-111102876D01*
X149134576Y-111118738D01*
X149135229Y-111120020D01*
X149135996Y-111124626D01*
X149140939Y-111133787D01*
X149163679Y-111175932D01*
X149165055Y-111178557D01*
X149180884Y-111209620D01*
X149189153Y-111225848D01*
X149192323Y-111229018D01*
X149195990Y-111235814D01*
X149203636Y-111242882D01*
X149203637Y-111242883D01*
X149235576Y-111272407D01*
X149239141Y-111275835D01*
X149274158Y-111310851D01*
X149280383Y-111314023D01*
X149281120Y-111314507D01*
X149288765Y-111321574D01*
X149326043Y-111338054D01*
X149334258Y-111341686D01*
X149340513Y-111344660D01*
X149372431Y-111360923D01*
X149372435Y-111360924D01*
X149381270Y-111365426D01*
X149389882Y-111366790D01*
X149393050Y-111368001D01*
X149394794Y-111368449D01*
X149404317Y-111372659D01*
X149449807Y-111376599D01*
X149458627Y-111377678D01*
X149500004Y-111384231D01*
X149509797Y-111382680D01*
X149514570Y-111382680D01*
X149517806Y-111382820D01*
X149519810Y-111382662D01*
X149530187Y-111383561D01*
X149570591Y-111373524D01*
X149581221Y-111371367D01*
X149618738Y-111365424D01*
X149627576Y-111360921D01*
X149637005Y-111357857D01*
X149637067Y-111358049D01*
X149642696Y-111355613D01*
X149652801Y-111353103D01*
X149662629Y-111346757D01*
X149684382Y-111332713D01*
X149695520Y-111326301D01*
X149713704Y-111317035D01*
X149720536Y-111313554D01*
X149790311Y-111300447D01*
X149847744Y-111321055D01*
X149875699Y-111339734D01*
X149949933Y-111354500D01*
X150299943Y-111354500D01*
X150650066Y-111354499D01*
X150685818Y-111347388D01*
X150712126Y-111342156D01*
X150712128Y-111342155D01*
X150724301Y-111339734D01*
X150734621Y-111332839D01*
X150734622Y-111332838D01*
X150798168Y-111290377D01*
X150808484Y-111283484D01*
X150864734Y-111199301D01*
X150879500Y-111125067D01*
X150879500Y-110992802D01*
X150899502Y-110924681D01*
X150953158Y-110878188D01*
X151023432Y-110868084D01*
X151037473Y-110870926D01*
X151153171Y-110901279D01*
X151153175Y-110901280D01*
X151160522Y-110903207D01*
X151242981Y-110904502D01*
X151310778Y-110925571D01*
X151356422Y-110979950D01*
X151367001Y-111030486D01*
X151367001Y-111144669D01*
X151367371Y-111151490D01*
X151372895Y-111202352D01*
X151376521Y-111217604D01*
X151421676Y-111338054D01*
X151430214Y-111353649D01*
X151506715Y-111455724D01*
X151519276Y-111468285D01*
X151621351Y-111544786D01*
X151636946Y-111553324D01*
X151757394Y-111598478D01*
X151772649Y-111602105D01*
X151823514Y-111607631D01*
X151830328Y-111608000D01*
X151981885Y-111608000D01*
X151997124Y-111603525D01*
X151998329Y-111602135D01*
X152000000Y-111594452D01*
X152000000Y-110830500D01*
X152020002Y-110762379D01*
X152073658Y-110715886D01*
X152125999Y-110704500D01*
X152212548Y-110704499D01*
X152274000Y-110704499D01*
X152342120Y-110724501D01*
X152388613Y-110778156D01*
X152400000Y-110830499D01*
X152400000Y-111589884D01*
X152404475Y-111605124D01*
X152426523Y-111624229D01*
X152464907Y-111683955D01*
X152470011Y-111719453D01*
X152470011Y-112100394D01*
X152450009Y-112168515D01*
X152396353Y-112215008D01*
X152355517Y-112224887D01*
X152355593Y-112225423D01*
X152350026Y-112226215D01*
X152349845Y-112226259D01*
X152349818Y-112226260D01*
X152343667Y-112226545D01*
X152224476Y-112255270D01*
X152144607Y-112274518D01*
X152144605Y-112274519D01*
X152138774Y-112275924D01*
X152133316Y-112278406D01*
X152133312Y-112278407D01*
X152055431Y-112313818D01*
X151946916Y-112363157D01*
X151824489Y-112450001D01*
X151785431Y-112477707D01*
X151775014Y-112485096D01*
X151629272Y-112637340D01*
X151626021Y-112642375D01*
X151586447Y-112703664D01*
X151532692Y-112750042D01*
X151462396Y-112759995D01*
X151397879Y-112730363D01*
X151359623Y-112670555D01*
X151355268Y-112648319D01*
X151347743Y-112575794D01*
X151344851Y-112562400D01*
X151293412Y-112408216D01*
X151287239Y-112395038D01*
X151201937Y-112257193D01*
X151192901Y-112245792D01*
X151078171Y-112131261D01*
X151066760Y-112122249D01*
X150928757Y-112037184D01*
X150915576Y-112031037D01*
X150761290Y-111979862D01*
X150747914Y-111976995D01*
X150653562Y-111967328D01*
X150647145Y-111967000D01*
X150272115Y-111967000D01*
X150256876Y-111971475D01*
X150255671Y-111972865D01*
X150254000Y-111980548D01*
X150254000Y-114814884D01*
X150258475Y-114830123D01*
X150259865Y-114831328D01*
X150267548Y-114832999D01*
X150647095Y-114832999D01*
X150653614Y-114832662D01*
X150749206Y-114822743D01*
X150762600Y-114819851D01*
X150916784Y-114768412D01*
X150929962Y-114762239D01*
X151067807Y-114676937D01*
X151079208Y-114667901D01*
X151193739Y-114553171D01*
X151202751Y-114541760D01*
X151287816Y-114403757D01*
X151293963Y-114390576D01*
X151345138Y-114236290D01*
X151348005Y-114222914D01*
X151354869Y-114155919D01*
X151381710Y-114090192D01*
X151439824Y-114049410D01*
X151510762Y-114046520D01*
X151572001Y-114082442D01*
X151579299Y-114090928D01*
X151622008Y-114145299D01*
X151696514Y-114240149D01*
X151701044Y-114244080D01*
X151701045Y-114244081D01*
X151851165Y-114374350D01*
X151851170Y-114374354D01*
X151855696Y-114378281D01*
X152038126Y-114483819D01*
X152237222Y-114552957D01*
X152243155Y-114553817D01*
X152243158Y-114553818D01*
X152439860Y-114582338D01*
X152439863Y-114582338D01*
X152445800Y-114583199D01*
X152656333Y-114573455D01*
X152662157Y-114572051D01*
X152662160Y-114572051D01*
X152855393Y-114525482D01*
X152855395Y-114525481D01*
X152861226Y-114524076D01*
X152866684Y-114521594D01*
X152866688Y-114521593D01*
X153003763Y-114459268D01*
X153053084Y-114436843D01*
X153224986Y-114314904D01*
X153342613Y-114192029D01*
X153366583Y-114166990D01*
X153370728Y-114162660D01*
X153400164Y-114117071D01*
X153481800Y-113990640D01*
X153481801Y-113990637D01*
X153485052Y-113985603D01*
X153563834Y-113790122D01*
X153596476Y-113622974D01*
X153603361Y-113587717D01*
X153603361Y-113587714D01*
X153604229Y-113583271D01*
X153604500Y-113577730D01*
X153604500Y-113272341D01*
X153589507Y-113115194D01*
X153576339Y-113070307D01*
X153531868Y-112918722D01*
X153530177Y-112912958D01*
X153479415Y-112814397D01*
X153436422Y-112730921D01*
X153436420Y-112730918D01*
X153433676Y-112725590D01*
X153364355Y-112637340D01*
X153307192Y-112564568D01*
X153307188Y-112564564D01*
X153303486Y-112559851D01*
X153272430Y-112532902D01*
X153234090Y-112473149D01*
X153229011Y-112437737D01*
X153229011Y-109728431D01*
X153231560Y-109704484D01*
X153231639Y-109702818D01*
X153233831Y-109692635D01*
X153232607Y-109682293D01*
X153232607Y-109682290D01*
X153229885Y-109659298D01*
X153229534Y-109653357D01*
X153229439Y-109653365D01*
X153229011Y-109648185D01*
X153229011Y-109642987D01*
X153225840Y-109623935D01*
X153225003Y-109618058D01*
X153220204Y-109577508D01*
X153220203Y-109577506D01*
X153218980Y-109567170D01*
X153215019Y-109558921D01*
X153213515Y-109549885D01*
X153208567Y-109540714D01*
X153189163Y-109504751D01*
X153186468Y-109499462D01*
X153167723Y-109460426D01*
X153164291Y-109453279D01*
X153160697Y-109449003D01*
X153158757Y-109447063D01*
X153157004Y-109445152D01*
X153156955Y-109445062D01*
X153157078Y-109444950D01*
X153156606Y-109444415D01*
X153153521Y-109438697D01*
X153113924Y-109402094D01*
X153110359Y-109398665D01*
X153081478Y-109369784D01*
X153066336Y-109351036D01*
X153065221Y-109349811D01*
X153059571Y-109341060D01*
X153051393Y-109334613D01*
X153051391Y-109334611D01*
X153033200Y-109320271D01*
X153028759Y-109316325D01*
X153028697Y-109316398D01*
X153024733Y-109313039D01*
X153021056Y-109309362D01*
X153005308Y-109298108D01*
X153000638Y-109294602D01*
X152960353Y-109262844D01*
X152951719Y-109259812D01*
X152944266Y-109254486D01*
X152895150Y-109239797D01*
X152889508Y-109237964D01*
X152848633Y-109223610D01*
X152848632Y-109223610D01*
X152841149Y-109220982D01*
X152835584Y-109220500D01*
X152832876Y-109220500D01*
X152830242Y-109220386D01*
X152830144Y-109220357D01*
X152830151Y-109220193D01*
X152829447Y-109220149D01*
X152823222Y-109218287D01*
X152769365Y-109220403D01*
X152764418Y-109220500D01*
X152752668Y-109220500D01*
X152682666Y-109199265D01*
X152635497Y-109167747D01*
X152589970Y-109113271D01*
X152579500Y-109062983D01*
X152579500Y-108839788D01*
X152581051Y-108820077D01*
X152582680Y-108809794D01*
X152582680Y-108809793D01*
X152584231Y-108800000D01*
X152582679Y-108790205D01*
X152582679Y-108780289D01*
X152582834Y-108780289D01*
X152582240Y-108765180D01*
X152596211Y-108587670D01*
X152599304Y-108568142D01*
X152602879Y-108553250D01*
X152646711Y-108370678D01*
X152652819Y-108351879D01*
X152654209Y-108348524D01*
X152730532Y-108164264D01*
X152739506Y-108146653D01*
X152845614Y-107973502D01*
X152857229Y-107957514D01*
X152989117Y-107803093D01*
X153003095Y-107789115D01*
X153157514Y-107657229D01*
X153173502Y-107645614D01*
X153346653Y-107539506D01*
X153364264Y-107530532D01*
X153551884Y-107452817D01*
X153570678Y-107446711D01*
X153768143Y-107399304D01*
X153787668Y-107396211D01*
X153849873Y-107391315D01*
X153919352Y-107405911D01*
X153969912Y-107455753D01*
X153985499Y-107525017D01*
X153961164Y-107591713D01*
X153955579Y-107598747D01*
X153880509Y-107686643D01*
X153767055Y-107871783D01*
X153765162Y-107876353D01*
X153765160Y-107876357D01*
X153701784Y-108029362D01*
X153683960Y-108072393D01*
X153682805Y-108077205D01*
X153636358Y-108270671D01*
X153633270Y-108283532D01*
X153621779Y-108429544D01*
X153621267Y-108433039D01*
X153620982Y-108433851D01*
X153620500Y-108439416D01*
X153620500Y-108442128D01*
X153620382Y-108444857D01*
X153620342Y-108444855D01*
X153620112Y-108450720D01*
X153616693Y-108494165D01*
X153615769Y-108500000D01*
X153617320Y-108509792D01*
X153618949Y-108520077D01*
X153620500Y-108539788D01*
X153620500Y-110635212D01*
X153618949Y-110654922D01*
X153615769Y-110675000D01*
X153617320Y-110684793D01*
X153617320Y-110684796D01*
X153618465Y-110692024D01*
X153619223Y-110697618D01*
X153631927Y-110810365D01*
X153676918Y-110938942D01*
X153680683Y-110944934D01*
X153745444Y-111048000D01*
X153749392Y-111054284D01*
X153845716Y-111150608D01*
X153851710Y-111154375D01*
X153851711Y-111154375D01*
X153952340Y-111217604D01*
X153961058Y-111223082D01*
X154089635Y-111268073D01*
X154109619Y-111270325D01*
X154131840Y-111272829D01*
X154144247Y-111274859D01*
X154151380Y-111276395D01*
X154158851Y-111279018D01*
X154164416Y-111279500D01*
X154183973Y-111279500D01*
X154198070Y-111280291D01*
X154200771Y-111280595D01*
X154202366Y-111280775D01*
X154207976Y-111281535D01*
X154215204Y-111282680D01*
X154215207Y-111282680D01*
X154225000Y-111284231D01*
X154234793Y-111282680D01*
X154244711Y-111282680D01*
X154244711Y-111285063D01*
X154301376Y-111292385D01*
X154320672Y-111302965D01*
X154364505Y-111332254D01*
X154410030Y-111386730D01*
X154420500Y-111437017D01*
X154420500Y-112747705D01*
X154418949Y-112767415D01*
X154415769Y-112787493D01*
X154416497Y-112792090D01*
X154417017Y-112800692D01*
X154417017Y-112800693D01*
X154431252Y-113036022D01*
X154433326Y-113070307D01*
X154484398Y-113348996D01*
X154568690Y-113619498D01*
X154570252Y-113622968D01*
X154570254Y-113622974D01*
X154600675Y-113690567D01*
X154684972Y-113877867D01*
X154686941Y-113881124D01*
X154686943Y-113881128D01*
X154829576Y-114117071D01*
X154831550Y-114120336D01*
X154833902Y-114123338D01*
X154833904Y-114123341D01*
X154872003Y-114171971D01*
X155006285Y-114343370D01*
X155206630Y-114543715D01*
X155286752Y-114606486D01*
X155422842Y-114713105D01*
X155429664Y-114718450D01*
X155432926Y-114720422D01*
X155432929Y-114720424D01*
X155668872Y-114863057D01*
X155668876Y-114863059D01*
X155672133Y-114865028D01*
X155778030Y-114912688D01*
X155927026Y-114979746D01*
X155927032Y-114979748D01*
X155930502Y-114981310D01*
X155934138Y-114982443D01*
X156194843Y-115063682D01*
X156201004Y-115065602D01*
X156479693Y-115116674D01*
X156483485Y-115116903D01*
X156483490Y-115116904D01*
X156603061Y-115124136D01*
X156757910Y-115133503D01*
X156762507Y-115134231D01*
X156782585Y-115131051D01*
X156802295Y-115129500D01*
X161110212Y-115129500D01*
X161129922Y-115131051D01*
X161150000Y-115134231D01*
X161153603Y-115133660D01*
X161163476Y-115132954D01*
X161163477Y-115132954D01*
X161392274Y-115116590D01*
X161396762Y-115116269D01*
X161502170Y-115093339D01*
X161634104Y-115064639D01*
X161634110Y-115064637D01*
X161638501Y-115063682D01*
X161642716Y-115062110D01*
X161642719Y-115062109D01*
X161856311Y-114982443D01*
X161870296Y-114977227D01*
X162087427Y-114858664D01*
X162181249Y-114788430D01*
X162281872Y-114713105D01*
X162281879Y-114713099D01*
X162285475Y-114710407D01*
X162376562Y-114619320D01*
X162438874Y-114585294D01*
X162459831Y-114582550D01*
X162588827Y-114576579D01*
X162656333Y-114573455D01*
X162662157Y-114572051D01*
X162662160Y-114572051D01*
X162855393Y-114525482D01*
X162855395Y-114525481D01*
X162861226Y-114524076D01*
X162866684Y-114521594D01*
X162866688Y-114521593D01*
X163003763Y-114459268D01*
X163053084Y-114436843D01*
X163224986Y-114314904D01*
X163342613Y-114192029D01*
X163366583Y-114166990D01*
X163370728Y-114162660D01*
X163400164Y-114117071D01*
X163481800Y-113990640D01*
X163481801Y-113990637D01*
X163485052Y-113985603D01*
X163563834Y-113790122D01*
X163596476Y-113622974D01*
X163603361Y-113587717D01*
X163603361Y-113587714D01*
X163604229Y-113583271D01*
X163604500Y-113577730D01*
X163604500Y-113272341D01*
X163589507Y-113115194D01*
X163576339Y-113070307D01*
X163531868Y-112918722D01*
X163530177Y-112912958D01*
X163479415Y-112814397D01*
X163436422Y-112730921D01*
X163436420Y-112730918D01*
X163433676Y-112725590D01*
X163364355Y-112637340D01*
X163307192Y-112564568D01*
X163307188Y-112564564D01*
X163303486Y-112559851D01*
X163275303Y-112535395D01*
X163205895Y-112475165D01*
X163167554Y-112415411D01*
X163167605Y-112344415D01*
X163206032Y-112284716D01*
X163270634Y-112255270D01*
X163288476Y-112254000D01*
X164620000Y-112254000D01*
X164688121Y-112274002D01*
X164734614Y-112327658D01*
X164746000Y-112380000D01*
X164746000Y-119620000D01*
X164725998Y-119688121D01*
X164672342Y-119734614D01*
X164620000Y-119746000D01*
X120380000Y-119746000D01*
X120311879Y-119725998D01*
X120265386Y-119672342D01*
X120254000Y-119620000D01*
X120254000Y-114122095D01*
X121142001Y-114122095D01*
X121142338Y-114128614D01*
X121152257Y-114224206D01*
X121155149Y-114237600D01*
X121206588Y-114391784D01*
X121212761Y-114404962D01*
X121298063Y-114542807D01*
X121307099Y-114554208D01*
X121421829Y-114668739D01*
X121433240Y-114677751D01*
X121571243Y-114762816D01*
X121584424Y-114768963D01*
X121738710Y-114820138D01*
X121752086Y-114823005D01*
X121846438Y-114832672D01*
X121852854Y-114833000D01*
X122227885Y-114833000D01*
X122243124Y-114828525D01*
X122244329Y-114827135D01*
X122246000Y-114819452D01*
X122246000Y-113672115D01*
X122241525Y-113656876D01*
X122240135Y-113655671D01*
X122232452Y-113654000D01*
X121160116Y-113654000D01*
X121144877Y-113658475D01*
X121143672Y-113659865D01*
X121142001Y-113667548D01*
X121142001Y-114122095D01*
X120254000Y-114122095D01*
X120254000Y-111295980D01*
X120972914Y-111295980D01*
X120985777Y-111492233D01*
X120987577Y-111503601D01*
X121035991Y-111694228D01*
X121039829Y-111705066D01*
X121122173Y-111883685D01*
X121127922Y-111893642D01*
X121137850Y-111907690D01*
X121148439Y-111916078D01*
X121161740Y-111909050D01*
X121737978Y-111332812D01*
X121745592Y-111318868D01*
X121745461Y-111317035D01*
X121741210Y-111310420D01*
X121160031Y-110729241D01*
X121147651Y-110722481D01*
X121141685Y-110726947D01*
X121061452Y-110879445D01*
X121057047Y-110890079D01*
X120998724Y-111077910D01*
X120996332Y-111089164D01*
X120973215Y-111284479D01*
X120972914Y-111295980D01*
X120254000Y-111295980D01*
X120254000Y-110360436D01*
X121514547Y-110360436D01*
X121518033Y-110368823D01*
X122097188Y-110947978D01*
X122111132Y-110955592D01*
X122112965Y-110955461D01*
X122119580Y-110951210D01*
X122698407Y-110372383D01*
X122705167Y-110360003D01*
X122699137Y-110351948D01*
X122631459Y-110309246D01*
X122621211Y-110304025D01*
X122533134Y-110268886D01*
X125594477Y-110268886D01*
X125601546Y-110282335D01*
X125729188Y-110409977D01*
X125731721Y-110411360D01*
X125781923Y-110461562D01*
X125783076Y-110463865D01*
X126267189Y-110947979D01*
X126281132Y-110955592D01*
X126282966Y-110955461D01*
X126289579Y-110951210D01*
X126593192Y-110647597D01*
X126606000Y-110624141D01*
X126606000Y-110472115D01*
X126601525Y-110456876D01*
X126600135Y-110455671D01*
X126592452Y-110454000D01*
X125868000Y-110454000D01*
X125799879Y-110433998D01*
X125753386Y-110380342D01*
X125742000Y-110328000D01*
X125742000Y-110200939D01*
X125737525Y-110185700D01*
X125737414Y-110185604D01*
X125733606Y-110186738D01*
X125653585Y-110224054D01*
X125644093Y-110229533D01*
X125602851Y-110258411D01*
X125594477Y-110268886D01*
X122533134Y-110268886D01*
X122438531Y-110231143D01*
X122427504Y-110227876D01*
X122234605Y-110189506D01*
X122223159Y-110188303D01*
X122026507Y-110185730D01*
X122015027Y-110186633D01*
X121821199Y-110219938D01*
X121810079Y-110222918D01*
X121625557Y-110290992D01*
X121615179Y-110295942D01*
X121524146Y-110350101D01*
X121514547Y-110360436D01*
X120254000Y-110360436D01*
X120254000Y-103639319D01*
X121515041Y-103639319D01*
X121524923Y-103651809D01*
X121562259Y-103676756D01*
X121572371Y-103682247D01*
X121753081Y-103759885D01*
X121764014Y-103763437D01*
X121955844Y-103806845D01*
X121967253Y-103808347D01*
X122163783Y-103816068D01*
X122175265Y-103815466D01*
X122369905Y-103787245D01*
X122381101Y-103784557D01*
X122541343Y-103730162D01*
X125594394Y-103730162D01*
X125603690Y-103742176D01*
X125644093Y-103770467D01*
X125653581Y-103775945D01*
X125725582Y-103809519D01*
X125739523Y-103811637D01*
X125742000Y-103807849D01*
X125742000Y-103672000D01*
X125762002Y-103603879D01*
X125815658Y-103557386D01*
X125868000Y-103546000D01*
X126587885Y-103546000D01*
X126603124Y-103541525D01*
X126604329Y-103540135D01*
X126606000Y-103532452D01*
X126606000Y-103383326D01*
X126598470Y-103357681D01*
X126292811Y-103052021D01*
X126278868Y-103044408D01*
X126277034Y-103044539D01*
X126270420Y-103048790D01*
X125786021Y-103533190D01*
X125784639Y-103535721D01*
X125734437Y-103585923D01*
X125732136Y-103587075D01*
X125600824Y-103718387D01*
X125594394Y-103730162D01*
X122541343Y-103730162D01*
X122567343Y-103721336D01*
X122577840Y-103716662D01*
X122696401Y-103650266D01*
X122706264Y-103640189D01*
X122703309Y-103632519D01*
X122122812Y-103052022D01*
X122108868Y-103044408D01*
X122107035Y-103044539D01*
X122100420Y-103048790D01*
X121521237Y-103627973D01*
X121515041Y-103639319D01*
X120254000Y-103639319D01*
X120254000Y-102655980D01*
X120972914Y-102655980D01*
X120985777Y-102852233D01*
X120987577Y-102863601D01*
X121035991Y-103054228D01*
X121039829Y-103065066D01*
X121122173Y-103243685D01*
X121127922Y-103253642D01*
X121137850Y-103267690D01*
X121148439Y-103276078D01*
X121161740Y-103269050D01*
X121737978Y-102692812D01*
X121745592Y-102678868D01*
X121745461Y-102677035D01*
X121741210Y-102670420D01*
X121160031Y-102089241D01*
X121147651Y-102082481D01*
X121141685Y-102086947D01*
X121061452Y-102239445D01*
X121057047Y-102250079D01*
X120998724Y-102437910D01*
X120996332Y-102449164D01*
X120973215Y-102644479D01*
X120972914Y-102655980D01*
X120254000Y-102655980D01*
X120254000Y-99856001D01*
X120274002Y-99787880D01*
X120327658Y-99741387D01*
X120391529Y-99730530D01*
X120415519Y-99732734D01*
X120421309Y-99733000D01*
X120477885Y-99733000D01*
X120493124Y-99728525D01*
X120494329Y-99727135D01*
X120496000Y-99719452D01*
X120496000Y-98697000D01*
X120516002Y-98628879D01*
X120569658Y-98582386D01*
X120622000Y-98571000D01*
X121536733Y-98571000D01*
X121604854Y-98591002D01*
G37*
%TD.AperFunction*%
%TA.AperFunction,Conductor*%
G36*
X143072281Y-97937045D02*
G01*
X143111074Y-97972904D01*
X143114641Y-97976335D01*
X143483595Y-98345289D01*
X143517621Y-98407601D01*
X143520500Y-98434384D01*
X143520501Y-98635714D01*
X143520501Y-98829314D01*
X143520780Y-98832262D01*
X143520780Y-98832271D01*
X143522727Y-98852876D01*
X143523507Y-98861127D01*
X143568791Y-98990076D01*
X143575371Y-98998984D01*
X143613155Y-99050141D01*
X143637538Y-99116819D01*
X143622001Y-99186095D01*
X143613155Y-99199859D01*
X143577355Y-99248329D01*
X143568791Y-99259924D01*
X143523507Y-99388873D01*
X143520500Y-99420685D01*
X143520501Y-100079314D01*
X143523507Y-100111127D01*
X143568791Y-100240076D01*
X143649990Y-100350010D01*
X143759924Y-100431209D01*
X143888873Y-100476493D01*
X143896515Y-100477215D01*
X143896518Y-100477216D01*
X143910370Y-100478525D01*
X143920685Y-100479500D01*
X144174828Y-100479500D01*
X144429314Y-100479499D01*
X144432262Y-100479220D01*
X144432271Y-100479220D01*
X144453478Y-100477216D01*
X144453480Y-100477216D01*
X144461127Y-100476493D01*
X144590076Y-100431209D01*
X144700010Y-100350010D01*
X144781209Y-100240076D01*
X144826493Y-100111127D01*
X144829500Y-100079315D01*
X144829499Y-99684385D01*
X144849501Y-99616265D01*
X144866404Y-99595290D01*
X144955405Y-99506289D01*
X145017717Y-99472263D01*
X145088532Y-99477328D01*
X145145368Y-99519875D01*
X145170179Y-99586395D01*
X145170500Y-99595384D01*
X145170501Y-99845062D01*
X145170501Y-100079314D01*
X145173507Y-100111127D01*
X145218791Y-100240076D01*
X145299990Y-100350010D01*
X145409924Y-100431209D01*
X145451177Y-100445696D01*
X145527328Y-100472439D01*
X145584973Y-100513882D01*
X145611061Y-100579912D01*
X145597310Y-100649564D01*
X145574674Y-100680416D01*
X145530682Y-100724408D01*
X145515648Y-100737249D01*
X145499199Y-100749200D01*
X145493369Y-100757225D01*
X145489065Y-100761529D01*
X145476673Y-100772397D01*
X145433757Y-100805328D01*
X145432297Y-100806448D01*
X145403813Y-100822893D01*
X145371079Y-100836452D01*
X145337335Y-100850429D01*
X145305563Y-100858942D01*
X145250114Y-100866242D01*
X145233668Y-100867320D01*
X145227570Y-100867320D01*
X145217778Y-100865769D01*
X145207973Y-100867322D01*
X145197701Y-100868949D01*
X145177990Y-100870500D01*
X142869788Y-100870500D01*
X142850077Y-100868949D01*
X142830000Y-100865769D01*
X142825103Y-100866545D01*
X142748076Y-100870329D01*
X142491627Y-100882927D01*
X142491622Y-100882927D01*
X142488538Y-100883079D01*
X142336875Y-100905576D01*
X142153431Y-100932787D01*
X142153427Y-100932788D01*
X142150365Y-100933242D01*
X142147366Y-100933993D01*
X142147362Y-100933994D01*
X141995587Y-100972012D01*
X141818736Y-101016311D01*
X141815839Y-101017348D01*
X141815831Y-101017350D01*
X141717413Y-101052565D01*
X141496847Y-101131485D01*
X141316258Y-101216897D01*
X141191009Y-101276135D01*
X141187797Y-101277654D01*
X141185155Y-101279237D01*
X141185156Y-101279237D01*
X140897212Y-101451824D01*
X140897203Y-101451830D01*
X140894562Y-101453413D01*
X140892077Y-101455256D01*
X140624104Y-101653999D01*
X140619967Y-101657067D01*
X140366655Y-101886655D01*
X140137067Y-102139967D01*
X140135223Y-102142453D01*
X140135220Y-102142457D01*
X139957072Y-102382662D01*
X139933413Y-102414562D01*
X139931830Y-102417203D01*
X139931824Y-102417212D01*
X139794708Y-102645976D01*
X139757654Y-102707797D01*
X139756340Y-102710575D01*
X139756338Y-102710579D01*
X139727668Y-102771198D01*
X139611485Y-103016847D01*
X139611082Y-103017974D01*
X139566742Y-103072999D01*
X139494879Y-103095501D01*
X139384934Y-103095501D01*
X139349182Y-103102612D01*
X139322874Y-103107844D01*
X139322872Y-103107845D01*
X139310699Y-103110266D01*
X139300379Y-103117161D01*
X139300378Y-103117162D01*
X139239985Y-103157516D01*
X139226516Y-103166516D01*
X139219623Y-103176832D01*
X139187483Y-103224933D01*
X139170266Y-103250699D01*
X139155500Y-103324933D01*
X139155501Y-105375066D01*
X139156957Y-105382384D01*
X139167248Y-105434125D01*
X139170266Y-105449301D01*
X139177161Y-105459620D01*
X139177162Y-105459622D01*
X139209384Y-105507844D01*
X139226516Y-105533484D01*
X139310699Y-105589734D01*
X139384933Y-105604500D01*
X139729944Y-105604500D01*
X140075066Y-105604499D01*
X140110818Y-105597388D01*
X140137126Y-105592156D01*
X140137128Y-105592155D01*
X140149301Y-105589734D01*
X140159621Y-105582839D01*
X140159622Y-105582838D01*
X140223168Y-105540377D01*
X140233484Y-105533484D01*
X140289734Y-105449301D01*
X140304500Y-105375067D01*
X140304499Y-103374336D01*
X140314090Y-103326118D01*
X140321348Y-103308595D01*
X140376208Y-103176152D01*
X140382337Y-103163425D01*
X140382949Y-103162319D01*
X140523065Y-102908799D01*
X140530582Y-102896836D01*
X140678657Y-102688143D01*
X140698931Y-102659568D01*
X140707740Y-102648522D01*
X140842437Y-102497797D01*
X140901602Y-102431591D01*
X140911592Y-102421601D01*
X140927191Y-102407661D01*
X141128524Y-102227739D01*
X141139570Y-102218930D01*
X141158118Y-102205770D01*
X141342327Y-102075067D01*
X141376836Y-102050582D01*
X141388799Y-102043065D01*
X141522213Y-101969329D01*
X141643429Y-101902335D01*
X141656152Y-101896208D01*
X141818981Y-101828762D01*
X141924937Y-101784874D01*
X141938274Y-101780207D01*
X142217833Y-101699668D01*
X142231608Y-101696524D01*
X142375017Y-101672157D01*
X142518430Y-101647790D01*
X142532462Y-101646209D01*
X142706205Y-101636452D01*
X142794490Y-101631494D01*
X142817945Y-101632679D01*
X142820203Y-101632679D01*
X142830000Y-101634231D01*
X142839793Y-101632680D01*
X142839794Y-101632680D01*
X142850077Y-101631051D01*
X142869788Y-101629500D01*
X145177988Y-101629500D01*
X145197698Y-101631051D01*
X145217776Y-101634231D01*
X145227568Y-101632680D01*
X145227705Y-101632680D01*
X145237018Y-101631577D01*
X145332032Y-101624099D01*
X145400072Y-101618744D01*
X145404879Y-101617590D01*
X145404885Y-101617589D01*
X145517390Y-101590579D01*
X145577879Y-101576057D01*
X145582452Y-101574163D01*
X145742245Y-101507975D01*
X145742249Y-101507973D01*
X145746819Y-101506080D01*
X145902732Y-101410536D01*
X145984272Y-101340894D01*
X145989756Y-101336810D01*
X145992124Y-101335673D01*
X145996400Y-101332078D01*
X146003463Y-101325015D01*
X146010727Y-101318300D01*
X146027101Y-101304315D01*
X146034475Y-101298501D01*
X146034565Y-101298411D01*
X146042585Y-101292584D01*
X146048411Y-101284565D01*
X146048414Y-101284562D01*
X146054536Y-101276135D01*
X146067377Y-101261101D01*
X146170256Y-101158222D01*
X146232568Y-101124196D01*
X146303383Y-101129261D01*
X146360219Y-101171808D01*
X146377677Y-101204016D01*
X146409942Y-101292185D01*
X146412553Y-101299319D01*
X146416789Y-101305622D01*
X146416789Y-101305623D01*
X146494022Y-101420557D01*
X146500908Y-101430805D01*
X146506527Y-101435918D01*
X146506528Y-101435919D01*
X146585717Y-101507975D01*
X146618076Y-101537419D01*
X146757293Y-101613008D01*
X146910522Y-101653207D01*
X146994477Y-101654526D01*
X147061319Y-101655576D01*
X147061322Y-101655576D01*
X147068916Y-101655695D01*
X147223332Y-101620329D01*
X147230118Y-101616916D01*
X147230121Y-101616915D01*
X147319637Y-101571894D01*
X147389481Y-101559156D01*
X147455125Y-101586200D01*
X147495726Y-101644442D01*
X147502250Y-101684459D01*
X147502251Y-101884584D01*
X147502251Y-102075066D01*
X147506150Y-102094669D01*
X147513777Y-102133014D01*
X147517016Y-102149301D01*
X147523911Y-102159621D01*
X147523912Y-102159622D01*
X147537527Y-102179998D01*
X147558742Y-102247751D01*
X147537527Y-102320002D01*
X147523911Y-102340379D01*
X147523910Y-102340382D01*
X147517016Y-102350699D01*
X147502250Y-102424933D01*
X147502251Y-102875066D01*
X147517016Y-102949301D01*
X147523911Y-102959621D01*
X147523912Y-102959622D01*
X147537527Y-102979998D01*
X147558742Y-103047751D01*
X147537527Y-103120002D01*
X147523911Y-103140379D01*
X147523910Y-103140382D01*
X147517016Y-103150699D01*
X147502250Y-103224933D01*
X147502251Y-103675066D01*
X147506150Y-103694669D01*
X147511796Y-103723054D01*
X147517016Y-103749301D01*
X147523911Y-103759621D01*
X147523912Y-103759622D01*
X147537527Y-103779998D01*
X147558742Y-103847751D01*
X147537527Y-103920002D01*
X147523911Y-103940379D01*
X147523910Y-103940382D01*
X147517016Y-103950699D01*
X147502250Y-104024933D01*
X147502251Y-104475066D01*
X147517016Y-104549301D01*
X147523911Y-104559621D01*
X147523912Y-104559622D01*
X147537527Y-104579998D01*
X147558742Y-104647751D01*
X147537527Y-104720002D01*
X147523911Y-104740379D01*
X147523910Y-104740382D01*
X147517016Y-104750699D01*
X147502250Y-104824933D01*
X147502251Y-105275066D01*
X147505656Y-105292185D01*
X147509411Y-105311065D01*
X147503082Y-105381779D01*
X147461396Y-105436471D01*
X147401025Y-105481716D01*
X147388465Y-105494276D01*
X147311964Y-105596351D01*
X147303426Y-105611946D01*
X147258272Y-105732394D01*
X147254645Y-105747649D01*
X147249119Y-105798514D01*
X147248750Y-105805328D01*
X147248750Y-105927885D01*
X147253225Y-105943124D01*
X147254615Y-105944329D01*
X147262298Y-105946000D01*
X148234750Y-105946000D01*
X148302871Y-105966002D01*
X148349364Y-106019658D01*
X148360750Y-106072000D01*
X148360750Y-106328000D01*
X148340748Y-106396121D01*
X148287092Y-106442614D01*
X148234750Y-106454000D01*
X147266866Y-106454000D01*
X147251627Y-106458475D01*
X147250422Y-106459865D01*
X147248751Y-106467548D01*
X147248751Y-106475240D01*
X147228749Y-106543361D01*
X147175093Y-106589854D01*
X147104819Y-106599958D01*
X147081135Y-106594169D01*
X147026545Y-106575067D01*
X146994174Y-106563740D01*
X146968756Y-106551499D01*
X146921950Y-106522089D01*
X146875143Y-106492679D01*
X146853083Y-106475086D01*
X146774914Y-106396917D01*
X146757321Y-106374857D01*
X146751659Y-106365845D01*
X146698501Y-106281244D01*
X146686260Y-106255824D01*
X146649747Y-106151476D01*
X146643468Y-106123968D01*
X146633378Y-106034411D01*
X146633703Y-106019708D01*
X146632680Y-106019708D01*
X146632680Y-106009794D01*
X146634231Y-106000000D01*
X146631051Y-105979922D01*
X146629500Y-105960212D01*
X146629500Y-103539788D01*
X146631051Y-103520077D01*
X146632680Y-103509791D01*
X146634231Y-103500000D01*
X146633302Y-103494133D01*
X146632389Y-103483688D01*
X146624610Y-103394786D01*
X146616590Y-103303115D01*
X146613604Y-103291972D01*
X146566861Y-103117522D01*
X146566860Y-103117520D01*
X146565438Y-103112212D01*
X146558209Y-103096709D01*
X146484239Y-102938080D01*
X146484236Y-102938075D01*
X146481913Y-102933093D01*
X146464902Y-102908799D01*
X146371712Y-102775709D01*
X146371710Y-102775706D01*
X146368553Y-102771198D01*
X146228802Y-102631447D01*
X146066908Y-102518087D01*
X146061926Y-102515764D01*
X146061921Y-102515761D01*
X145892770Y-102436885D01*
X145892769Y-102436884D01*
X145887788Y-102434562D01*
X145882480Y-102433140D01*
X145882478Y-102433139D01*
X145803872Y-102412077D01*
X145696885Y-102383410D01*
X145573789Y-102372640D01*
X145568677Y-102371870D01*
X145566149Y-102370982D01*
X145560584Y-102370500D01*
X145554831Y-102370500D01*
X145543848Y-102370020D01*
X145512980Y-102367319D01*
X145512965Y-102367319D01*
X145505867Y-102366698D01*
X145500000Y-102365769D01*
X145479923Y-102368949D01*
X145460212Y-102370500D01*
X142289788Y-102370500D01*
X142270077Y-102368949D01*
X142250000Y-102365769D01*
X142244133Y-102366698D01*
X142237035Y-102367319D01*
X142237031Y-102367319D01*
X142158295Y-102374208D01*
X142053115Y-102383410D01*
X142047802Y-102384834D01*
X142047800Y-102384834D01*
X141867522Y-102433139D01*
X141867520Y-102433140D01*
X141862212Y-102434562D01*
X141857232Y-102436884D01*
X141857230Y-102436885D01*
X141688080Y-102515761D01*
X141688075Y-102515764D01*
X141683093Y-102518087D01*
X141678586Y-102521243D01*
X141678584Y-102521244D01*
X141525709Y-102628288D01*
X141525706Y-102628290D01*
X141521198Y-102631447D01*
X141381447Y-102771198D01*
X141378290Y-102775706D01*
X141378288Y-102775709D01*
X141285098Y-102908799D01*
X141268087Y-102933093D01*
X141265764Y-102938075D01*
X141265761Y-102938080D01*
X141191791Y-103096709D01*
X141184562Y-103112212D01*
X141183140Y-103117520D01*
X141183139Y-103117522D01*
X141171858Y-103159623D01*
X141133410Y-103303115D01*
X141124681Y-103402885D01*
X141122640Y-103426211D01*
X141121870Y-103431323D01*
X141120982Y-103433851D01*
X141120500Y-103439416D01*
X141120500Y-103445169D01*
X141120020Y-103456152D01*
X141117319Y-103487020D01*
X141117319Y-103487031D01*
X141116698Y-103494133D01*
X141115769Y-103500000D01*
X141117320Y-103509791D01*
X141118949Y-103520077D01*
X141120500Y-103539788D01*
X141120500Y-105960212D01*
X141118949Y-105979922D01*
X141115769Y-106000000D01*
X141117320Y-106009794D01*
X141117320Y-106019708D01*
X141116297Y-106019708D01*
X141116622Y-106034411D01*
X141106532Y-106123968D01*
X141100253Y-106151476D01*
X141063740Y-106255824D01*
X141051499Y-106281244D01*
X140998342Y-106365845D01*
X140992679Y-106374857D01*
X140975086Y-106396917D01*
X140896917Y-106475086D01*
X140874857Y-106492679D01*
X140828051Y-106522089D01*
X140781244Y-106551499D01*
X140755824Y-106563740D01*
X140651476Y-106600253D01*
X140623968Y-106606532D01*
X140534411Y-106616622D01*
X140519708Y-106616297D01*
X140519708Y-106617320D01*
X140509794Y-106617320D01*
X140500000Y-106615769D01*
X140482549Y-106618533D01*
X140479923Y-106618949D01*
X140460212Y-106620500D01*
X139037495Y-106620500D01*
X138969374Y-106600498D01*
X138923300Y-106547750D01*
X138842905Y-106375341D01*
X138842902Y-106375336D01*
X138840579Y-106370354D01*
X138837422Y-106365845D01*
X138717833Y-106195054D01*
X138717831Y-106195051D01*
X138714674Y-106190543D01*
X138559457Y-106035326D01*
X138554949Y-106032169D01*
X138554946Y-106032167D01*
X138384155Y-105912578D01*
X138384153Y-105912577D01*
X138379646Y-105909421D01*
X138374664Y-105907098D01*
X138374659Y-105907095D01*
X138256795Y-105852135D01*
X138180703Y-105816653D01*
X137968674Y-105759839D01*
X137750000Y-105740708D01*
X137531326Y-105759839D01*
X137319297Y-105816653D01*
X137243205Y-105852135D01*
X137125341Y-105907095D01*
X137125336Y-105907098D01*
X137120354Y-105909421D01*
X137115847Y-105912577D01*
X137115845Y-105912578D01*
X136945054Y-106032167D01*
X136945051Y-106032169D01*
X136940543Y-106035326D01*
X136785326Y-106190543D01*
X136782169Y-106195051D01*
X136782167Y-106195054D01*
X136662578Y-106365845D01*
X136659421Y-106370354D01*
X136657098Y-106375336D01*
X136657095Y-106375341D01*
X136618330Y-106458475D01*
X136566653Y-106569297D01*
X136509839Y-106781326D01*
X136490708Y-107000000D01*
X136509839Y-107218674D01*
X136566653Y-107430703D01*
X136605181Y-107513328D01*
X136657095Y-107624659D01*
X136657098Y-107624664D01*
X136659421Y-107629646D01*
X136662577Y-107634153D01*
X136662578Y-107634155D01*
X136775592Y-107795555D01*
X136785326Y-107809457D01*
X136940543Y-107964674D01*
X136945051Y-107967831D01*
X136945054Y-107967833D01*
X137113103Y-108085502D01*
X137120354Y-108090579D01*
X137125336Y-108092902D01*
X137125341Y-108092905D01*
X137217050Y-108135669D01*
X137319297Y-108183347D01*
X137531326Y-108240161D01*
X137750000Y-108259292D01*
X137968674Y-108240161D01*
X138180703Y-108183347D01*
X138282950Y-108135669D01*
X138374659Y-108092905D01*
X138374664Y-108092902D01*
X138379646Y-108090579D01*
X138386897Y-108085502D01*
X138554946Y-107967833D01*
X138554949Y-107967831D01*
X138559457Y-107964674D01*
X138714674Y-107809457D01*
X138724409Y-107795555D01*
X138837422Y-107634155D01*
X138837423Y-107634153D01*
X138840579Y-107629646D01*
X138842902Y-107624664D01*
X138842905Y-107624659D01*
X138923300Y-107452250D01*
X138970217Y-107398965D01*
X139037495Y-107379500D01*
X140460212Y-107379500D01*
X140479922Y-107381051D01*
X140500000Y-107384231D01*
X140505835Y-107383307D01*
X140716468Y-107366730D01*
X140721275Y-107365576D01*
X140721281Y-107365575D01*
X140876428Y-107328327D01*
X140927607Y-107316040D01*
X140962034Y-107301780D01*
X141123643Y-107234840D01*
X141123647Y-107234838D01*
X141128217Y-107232945D01*
X141313357Y-107119491D01*
X141478471Y-106978471D01*
X141619491Y-106813357D01*
X141732945Y-106628217D01*
X141736142Y-106620500D01*
X141814146Y-106432180D01*
X141814147Y-106432178D01*
X141816040Y-106427607D01*
X141838671Y-106333342D01*
X141865575Y-106221281D01*
X141865576Y-106221275D01*
X141866730Y-106216468D01*
X141878222Y-106070452D01*
X141878733Y-106066961D01*
X141879018Y-106066149D01*
X141879500Y-106060584D01*
X141879500Y-106057872D01*
X141879618Y-106055143D01*
X141879658Y-106055145D01*
X141879888Y-106049280D01*
X141882219Y-106019658D01*
X141883307Y-106005835D01*
X141884231Y-106000000D01*
X141882680Y-105990207D01*
X141882680Y-105984000D01*
X141902682Y-105915879D01*
X141956338Y-105869386D01*
X141980785Y-105864068D01*
X141980502Y-105863104D01*
X142013124Y-105853525D01*
X142014329Y-105852135D01*
X142016000Y-105844452D01*
X142016000Y-105839884D01*
X142524000Y-105839884D01*
X142528475Y-105855123D01*
X142529865Y-105856328D01*
X142537548Y-105857999D01*
X142634669Y-105857999D01*
X142641490Y-105857629D01*
X142692352Y-105852105D01*
X142707604Y-105848479D01*
X142828054Y-105803324D01*
X142843649Y-105794786D01*
X142945724Y-105718285D01*
X142958285Y-105705724D01*
X143034786Y-105603649D01*
X143043324Y-105588054D01*
X143088478Y-105467606D01*
X143092105Y-105452351D01*
X143097631Y-105401486D01*
X143098000Y-105394672D01*
X143098000Y-104622115D01*
X143093525Y-104606876D01*
X143092135Y-104605671D01*
X143084452Y-104604000D01*
X142542115Y-104604000D01*
X142526876Y-104608475D01*
X142525671Y-104609865D01*
X142524000Y-104617548D01*
X142524000Y-105839884D01*
X142016000Y-105839884D01*
X142016000Y-104222000D01*
X142036002Y-104153879D01*
X142089658Y-104107386D01*
X142142000Y-104096000D01*
X143079884Y-104096000D01*
X143095123Y-104091525D01*
X143096328Y-104090135D01*
X143097999Y-104082452D01*
X143097999Y-103305331D01*
X143097629Y-103298507D01*
X143094436Y-103269104D01*
X143106966Y-103199222D01*
X143155288Y-103147208D01*
X143219699Y-103129500D01*
X143515725Y-103129500D01*
X143583846Y-103149502D01*
X143630339Y-103203158D01*
X143640443Y-103273432D01*
X143635318Y-103295169D01*
X143629824Y-103311731D01*
X143626960Y-103325090D01*
X143617328Y-103419105D01*
X143617000Y-103425522D01*
X143617000Y-103515385D01*
X143621475Y-103530624D01*
X143622865Y-103531829D01*
X143630548Y-103533500D01*
X144727885Y-103533500D01*
X144743124Y-103529025D01*
X144744329Y-103527635D01*
X144746000Y-103519952D01*
X144746000Y-103403000D01*
X144766002Y-103334879D01*
X144819658Y-103288386D01*
X144872000Y-103277000D01*
X145128000Y-103277000D01*
X145196121Y-103297002D01*
X145242614Y-103350658D01*
X145254000Y-103403000D01*
X145254000Y-103976500D01*
X145233998Y-104044621D01*
X145180342Y-104091114D01*
X145128000Y-104102500D01*
X144852914Y-104102500D01*
X144784793Y-104082498D01*
X144771120Y-104066718D01*
X144769486Y-104068604D01*
X144740135Y-104043171D01*
X144732452Y-104041500D01*
X143635115Y-104041500D01*
X143619876Y-104045975D01*
X143618671Y-104047365D01*
X143617000Y-104055048D01*
X143617000Y-104149430D01*
X143617337Y-104155946D01*
X143627219Y-104251190D01*
X143630112Y-104264586D01*
X143681367Y-104418216D01*
X143687541Y-104431395D01*
X143773144Y-104569728D01*
X143792000Y-104636031D01*
X143792000Y-104641266D01*
X143792337Y-104647781D01*
X143802346Y-104744241D01*
X143805240Y-104757641D01*
X143857141Y-104913209D01*
X143863309Y-104926377D01*
X143949381Y-105065466D01*
X143958417Y-105076867D01*
X144074179Y-105192428D01*
X144077089Y-105194726D01*
X144078562Y-105196803D01*
X144079359Y-105197599D01*
X144079223Y-105197735D01*
X144118153Y-105252641D01*
X144125000Y-105293610D01*
X144125000Y-105589857D01*
X144109521Y-105650365D01*
X144109027Y-105651267D01*
X144103641Y-105658454D01*
X144100490Y-105666859D01*
X144100488Y-105666863D01*
X144065813Y-105759360D01*
X144052285Y-105795446D01*
X144051432Y-105803294D01*
X144051432Y-105803296D01*
X144046961Y-105844452D01*
X144045500Y-105857904D01*
X144045500Y-105956872D01*
X144025498Y-106024993D01*
X144014950Y-106038082D01*
X144013882Y-106038882D01*
X144008504Y-106046058D01*
X143936934Y-106141555D01*
X143927645Y-106153949D01*
X143906058Y-106211533D01*
X143891176Y-106251230D01*
X143848534Y-106307994D01*
X143781973Y-106332694D01*
X143773194Y-106333000D01*
X143327288Y-106333000D01*
X143307577Y-106331449D01*
X143287500Y-106328269D01*
X143282342Y-106329086D01*
X143068285Y-106345933D01*
X143063478Y-106347087D01*
X143063472Y-106347088D01*
X142966564Y-106370354D01*
X142854468Y-106397266D01*
X142849897Y-106399159D01*
X142849895Y-106399160D01*
X142655888Y-106479520D01*
X142655884Y-106479522D01*
X142651314Y-106481415D01*
X142463825Y-106596309D01*
X142296617Y-106739117D01*
X142153809Y-106906325D01*
X142038915Y-107093814D01*
X142037022Y-107098384D01*
X142037020Y-107098388D01*
X141968984Y-107262643D01*
X141954766Y-107296968D01*
X141936826Y-107371695D01*
X141904588Y-107505972D01*
X141904587Y-107505978D01*
X141903433Y-107510785D01*
X141899588Y-107559640D01*
X141891694Y-107659938D01*
X141891220Y-107663172D01*
X141890982Y-107663851D01*
X141890500Y-107669416D01*
X141890500Y-107672128D01*
X141890382Y-107674857D01*
X141890316Y-107674854D01*
X141890112Y-107680039D01*
X141886586Y-107724842D01*
X141885769Y-107730000D01*
X141887320Y-107739792D01*
X141888949Y-107750077D01*
X141890500Y-107769788D01*
X141890500Y-109316324D01*
X141870498Y-109384445D01*
X141834503Y-109421088D01*
X141766516Y-109466516D01*
X141710266Y-109550699D01*
X141695500Y-109624933D01*
X141695501Y-110475067D01*
X141695501Y-111315615D01*
X141675499Y-111383736D01*
X141658596Y-111404710D01*
X140858932Y-112204374D01*
X140796620Y-112238400D01*
X140725609Y-112233260D01*
X140709448Y-112227202D01*
X140647756Y-112220500D01*
X139352244Y-112220500D01*
X139344590Y-112221331D01*
X139274710Y-112208806D01*
X139222692Y-112160487D01*
X139204980Y-112096069D01*
X139204980Y-112022237D01*
X139224982Y-111954116D01*
X139278638Y-111907623D01*
X139355560Y-111898658D01*
X139378862Y-111903293D01*
X139378868Y-111903294D01*
X139384933Y-111904500D01*
X139729944Y-111904500D01*
X140075066Y-111904499D01*
X140113589Y-111896837D01*
X140137126Y-111892156D01*
X140137128Y-111892155D01*
X140149301Y-111889734D01*
X140159621Y-111882839D01*
X140159622Y-111882838D01*
X140223168Y-111840377D01*
X140233484Y-111833484D01*
X140289734Y-111749301D01*
X140304500Y-111675067D01*
X140304499Y-109624934D01*
X140294519Y-109574757D01*
X140292156Y-109562874D01*
X140292155Y-109562872D01*
X140289734Y-109550699D01*
X140233484Y-109466516D01*
X140149301Y-109410266D01*
X140075067Y-109395500D01*
X139730056Y-109395500D01*
X139384934Y-109395501D01*
X139351781Y-109402095D01*
X139322874Y-109407844D01*
X139322872Y-109407845D01*
X139310699Y-109410266D01*
X139300379Y-109417161D01*
X139300378Y-109417162D01*
X139258791Y-109444950D01*
X139226516Y-109466516D01*
X139170266Y-109550699D01*
X139155500Y-109624933D01*
X139155500Y-110330077D01*
X139135498Y-110398198D01*
X139095335Y-110437509D01*
X138977165Y-110509924D01*
X138977154Y-110509932D01*
X138972939Y-110512515D01*
X138819254Y-110643774D01*
X138687995Y-110797459D01*
X138582393Y-110969785D01*
X138580500Y-110974355D01*
X138580498Y-110974359D01*
X138507128Y-111151490D01*
X138505049Y-111156509D01*
X138457867Y-111353034D01*
X138449438Y-111460145D01*
X138447726Y-111481893D01*
X138447003Y-111486830D01*
X138446462Y-111488371D01*
X138445980Y-111493936D01*
X138445980Y-111499124D01*
X138445592Y-111509011D01*
X138443150Y-111540037D01*
X138442801Y-111542986D01*
X138442801Y-111544475D01*
X138442762Y-111544970D01*
X138441249Y-111554520D01*
X138442800Y-111564313D01*
X138442800Y-111564314D01*
X138444429Y-111574597D01*
X138445980Y-111594308D01*
X138445980Y-114273184D01*
X138444429Y-114292894D01*
X138441249Y-114312972D01*
X138442801Y-114322767D01*
X138444016Y-114330438D01*
X138444961Y-114337800D01*
X138456340Y-114453342D01*
X138458136Y-114459262D01*
X138458137Y-114459268D01*
X138483754Y-114543715D01*
X138497284Y-114588318D01*
X138500199Y-114593772D01*
X138500200Y-114593774D01*
X138549017Y-114685104D01*
X138563489Y-114754610D01*
X138538085Y-114820906D01*
X138480872Y-114862944D01*
X138437895Y-114870500D01*
X136955500Y-114870500D01*
X136887379Y-114850498D01*
X136840886Y-114796842D01*
X136829500Y-114744500D01*
X136829500Y-111795050D01*
X136849502Y-111726929D01*
X136898298Y-111682783D01*
X136945784Y-111658588D01*
X137033588Y-111570784D01*
X137038688Y-111560776D01*
X137085459Y-111468981D01*
X137085459Y-111468980D01*
X137089961Y-111460145D01*
X137104500Y-111368349D01*
X137104499Y-111031652D01*
X137089961Y-110939855D01*
X137082230Y-110924681D01*
X137038093Y-110838057D01*
X137038091Y-110838054D01*
X137033588Y-110829216D01*
X137018467Y-110814095D01*
X136984441Y-110751783D01*
X136989506Y-110680968D01*
X137018467Y-110635905D01*
X137033588Y-110620784D01*
X137045377Y-110597648D01*
X137085459Y-110518981D01*
X137085459Y-110518980D01*
X137089961Y-110510145D01*
X137104500Y-110418349D01*
X137104499Y-110081652D01*
X137089961Y-109989855D01*
X137085459Y-109981019D01*
X137038093Y-109888057D01*
X137038092Y-109888056D01*
X137033588Y-109879216D01*
X137018467Y-109864095D01*
X136984441Y-109801783D01*
X136989506Y-109730968D01*
X137018467Y-109685905D01*
X137033588Y-109670784D01*
X137039441Y-109659298D01*
X137085459Y-109568981D01*
X137085459Y-109568980D01*
X137089961Y-109560145D01*
X137104500Y-109468349D01*
X137104499Y-109131652D01*
X137089961Y-109039855D01*
X137083862Y-109027885D01*
X137038093Y-108938057D01*
X137038092Y-108938056D01*
X137033588Y-108929216D01*
X136945784Y-108841412D01*
X136936944Y-108836908D01*
X136936943Y-108836907D01*
X136843981Y-108789541D01*
X136843980Y-108789541D01*
X136835145Y-108785039D01*
X136743349Y-108770500D01*
X136450060Y-108770500D01*
X136156652Y-108770501D01*
X136064855Y-108785039D01*
X136056020Y-108789541D01*
X136056019Y-108789541D01*
X135963057Y-108836907D01*
X135963056Y-108836908D01*
X135954216Y-108841412D01*
X135866412Y-108929216D01*
X135861908Y-108938056D01*
X135861907Y-108938057D01*
X135816138Y-109027885D01*
X135810039Y-109039855D01*
X135795500Y-109131651D01*
X135795501Y-109468348D01*
X135796276Y-109473239D01*
X135796276Y-109473242D01*
X135799508Y-109493651D01*
X135810039Y-109560145D01*
X135814541Y-109568980D01*
X135814541Y-109568981D01*
X135828253Y-109595892D01*
X135866412Y-109670784D01*
X135869196Y-109673568D01*
X135891938Y-109737307D01*
X135875857Y-109806459D01*
X135824943Y-109855939D01*
X135766143Y-109870500D01*
X135024795Y-109870500D01*
X134956674Y-109850498D01*
X134910181Y-109796842D01*
X134900077Y-109726568D01*
X134909159Y-109694458D01*
X134911830Y-109688286D01*
X134945790Y-109571395D01*
X134945750Y-109557295D01*
X134938480Y-109554000D01*
X133167271Y-109554000D01*
X133153740Y-109557973D01*
X133149155Y-109589864D01*
X133148160Y-109589721D01*
X133145273Y-109629288D01*
X133102645Y-109686063D01*
X133036089Y-109710779D01*
X132992126Y-109706084D01*
X132971395Y-109700061D01*
X132957294Y-109700101D01*
X132954000Y-109707370D01*
X132954000Y-111065500D01*
X132933998Y-111133621D01*
X132880342Y-111180114D01*
X132828000Y-111191500D01*
X132572000Y-111191500D01*
X132503879Y-111171498D01*
X132457386Y-111117842D01*
X132446000Y-111065500D01*
X132446000Y-109713122D01*
X132442027Y-109699592D01*
X132412569Y-109695357D01*
X132347988Y-109665864D01*
X132309604Y-109606138D01*
X132304500Y-109570639D01*
X132304500Y-108443166D01*
X132302712Y-108431878D01*
X132311808Y-108361469D01*
X132357528Y-108307153D01*
X132425355Y-108286177D01*
X132492994Y-108304731D01*
X132559045Y-108345207D01*
X132567837Y-108349687D01*
X132777988Y-108436734D01*
X132787373Y-108439783D01*
X133008554Y-108492885D01*
X133018301Y-108494428D01*
X133231965Y-108511244D01*
X133298306Y-108536529D01*
X133340446Y-108593668D01*
X133345005Y-108664518D01*
X133311174Y-108725951D01*
X133279007Y-108758118D01*
X133269367Y-108770545D01*
X133194416Y-108897281D01*
X133188169Y-108911717D01*
X133154210Y-109028605D01*
X133154250Y-109042705D01*
X133161520Y-109046000D01*
X133777885Y-109046000D01*
X133793124Y-109041525D01*
X133794329Y-109040135D01*
X133796000Y-109032452D01*
X133796000Y-109027885D01*
X134304000Y-109027885D01*
X134308475Y-109043124D01*
X134309865Y-109044329D01*
X134317548Y-109046000D01*
X134932729Y-109046000D01*
X134946260Y-109042027D01*
X134947395Y-109034129D01*
X134911831Y-108911717D01*
X134905584Y-108897281D01*
X134830633Y-108770545D01*
X134820993Y-108758118D01*
X134716882Y-108654007D01*
X134704455Y-108644367D01*
X134577719Y-108569416D01*
X134563283Y-108563169D01*
X134420458Y-108521674D01*
X134407871Y-108519376D01*
X134380143Y-108517193D01*
X134375216Y-108517000D01*
X134322115Y-108517000D01*
X134306876Y-108521475D01*
X134305671Y-108522865D01*
X134304000Y-108530548D01*
X134304000Y-109027885D01*
X133796000Y-109027885D01*
X133796000Y-108535114D01*
X133794108Y-108528670D01*
X133794110Y-108457674D01*
X133832495Y-108397948D01*
X133866787Y-108376766D01*
X133932163Y-108349687D01*
X133940958Y-108345205D01*
X134108445Y-108242568D01*
X134117907Y-108232110D01*
X134114124Y-108223334D01*
X132891922Y-107001132D01*
X133614408Y-107001132D01*
X133614539Y-107002965D01*
X133618790Y-107009580D01*
X134470290Y-107861080D01*
X134482670Y-107867840D01*
X134490320Y-107862113D01*
X134595205Y-107690958D01*
X134599687Y-107682163D01*
X134686734Y-107472012D01*
X134689783Y-107462627D01*
X134742885Y-107241446D01*
X134744428Y-107231699D01*
X134762275Y-107004930D01*
X134762275Y-106995070D01*
X134744428Y-106768301D01*
X134742885Y-106758554D01*
X134689783Y-106537373D01*
X134686734Y-106527988D01*
X134599687Y-106317837D01*
X134595205Y-106309042D01*
X134492568Y-106141555D01*
X134482110Y-106132093D01*
X134473334Y-106135876D01*
X133622022Y-106987188D01*
X133614408Y-107001132D01*
X132891922Y-107001132D01*
X132029710Y-106138920D01*
X132017330Y-106132160D01*
X132009680Y-106137887D01*
X131904795Y-106309042D01*
X131900315Y-106317833D01*
X131892769Y-106336051D01*
X131848220Y-106391331D01*
X131780857Y-106413752D01*
X131712065Y-106396193D01*
X131700795Y-106388658D01*
X131626946Y-106333311D01*
X131626943Y-106333309D01*
X131619764Y-106327929D01*
X131514837Y-106288594D01*
X131491843Y-106279974D01*
X131491841Y-106279974D01*
X131484448Y-106277202D01*
X131476598Y-106276349D01*
X131476597Y-106276349D01*
X131426153Y-106270869D01*
X131426152Y-106270869D01*
X131422756Y-106270500D01*
X130077244Y-106270500D01*
X130073848Y-106270869D01*
X130073847Y-106270869D01*
X130023403Y-106276349D01*
X130023402Y-106276349D01*
X130015552Y-106277202D01*
X130008159Y-106279974D01*
X130008157Y-106279974D01*
X129985163Y-106288594D01*
X129907168Y-106317833D01*
X129889074Y-106324616D01*
X129818267Y-106329799D01*
X129755898Y-106295878D01*
X129721769Y-106233622D01*
X129720102Y-106188880D01*
X129721282Y-106180589D01*
X129721863Y-106176508D01*
X129722008Y-106162701D01*
X129702977Y-106005434D01*
X129646981Y-105857247D01*
X129606615Y-105798514D01*
X129585568Y-105767890D01*
X132382093Y-105767890D01*
X132385876Y-105776666D01*
X133237188Y-106627978D01*
X133251132Y-106635592D01*
X133252965Y-106635461D01*
X133259580Y-106631210D01*
X134111080Y-105779710D01*
X134117840Y-105767330D01*
X134112113Y-105759680D01*
X133940958Y-105654795D01*
X133932163Y-105650313D01*
X133722012Y-105563266D01*
X133712627Y-105560217D01*
X133491446Y-105507115D01*
X133481699Y-105505572D01*
X133254930Y-105487725D01*
X133245070Y-105487725D01*
X133018301Y-105505572D01*
X133008554Y-105507115D01*
X132787373Y-105560217D01*
X132777988Y-105563266D01*
X132567837Y-105650313D01*
X132559042Y-105654795D01*
X132391555Y-105757432D01*
X132382093Y-105767890D01*
X129585568Y-105767890D01*
X129561556Y-105732952D01*
X129561555Y-105732950D01*
X129557254Y-105726693D01*
X129438976Y-105621312D01*
X129298975Y-105547185D01*
X129145334Y-105508593D01*
X129137735Y-105508553D01*
X129137734Y-105508553D01*
X129120749Y-105508464D01*
X129104839Y-105508381D01*
X129036825Y-105488023D01*
X128990614Y-105434125D01*
X128979500Y-105382384D01*
X128979499Y-105281091D01*
X128999500Y-105212970D01*
X129053156Y-105166477D01*
X129107477Y-105155106D01*
X129137388Y-105155576D01*
X129137391Y-105155576D01*
X129144986Y-105155695D01*
X129299402Y-105120329D01*
X129369812Y-105084917D01*
X129434142Y-105052563D01*
X129434145Y-105052561D01*
X129440925Y-105049151D01*
X129446698Y-105044220D01*
X129446703Y-105044217D01*
X129519591Y-104981965D01*
X129584380Y-104952934D01*
X129654581Y-104963539D01*
X129702244Y-105002208D01*
X129764596Y-105085404D01*
X129771776Y-105090785D01*
X129873054Y-105166689D01*
X129873057Y-105166691D01*
X129880236Y-105172071D01*
X129948333Y-105197599D01*
X130008157Y-105220026D01*
X130008159Y-105220026D01*
X130015552Y-105222798D01*
X130023402Y-105223651D01*
X130023403Y-105223651D01*
X130073847Y-105229131D01*
X130077244Y-105229500D01*
X131422756Y-105229500D01*
X131426153Y-105229131D01*
X131476597Y-105223651D01*
X131476598Y-105223651D01*
X131484448Y-105222798D01*
X131491841Y-105220026D01*
X131491843Y-105220026D01*
X131551667Y-105197599D01*
X131619764Y-105172071D01*
X131626943Y-105166691D01*
X131626946Y-105166689D01*
X131728224Y-105090785D01*
X131735404Y-105085404D01*
X131766272Y-105044217D01*
X131816689Y-104976946D01*
X131816691Y-104976943D01*
X131822071Y-104969764D01*
X131859347Y-104870329D01*
X131870026Y-104841843D01*
X131870026Y-104841841D01*
X131872798Y-104834448D01*
X131875962Y-104805328D01*
X131879131Y-104776153D01*
X131879131Y-104776152D01*
X131879500Y-104772756D01*
X131879500Y-103927244D01*
X131878166Y-103914966D01*
X131873651Y-103873403D01*
X131873651Y-103873402D01*
X131872798Y-103865552D01*
X131822071Y-103730236D01*
X131816691Y-103723057D01*
X131816689Y-103723054D01*
X131740785Y-103621776D01*
X131735404Y-103614596D01*
X131725132Y-103606898D01*
X131722835Y-103603826D01*
X131721874Y-103602865D01*
X131722013Y-103602726D01*
X131682616Y-103550042D01*
X131677587Y-103479224D01*
X131682712Y-103461841D01*
X131685231Y-103455123D01*
X131707849Y-103394786D01*
X131720358Y-103361419D01*
X131720358Y-103361418D01*
X131723130Y-103354024D01*
X131728065Y-103308603D01*
X131729131Y-103298786D01*
X131729131Y-103298785D01*
X131729500Y-103295389D01*
X131729499Y-102704612D01*
X131729130Y-102701212D01*
X131723984Y-102653834D01*
X131723983Y-102653830D01*
X131723130Y-102645976D01*
X131697141Y-102576649D01*
X131691959Y-102505842D01*
X131725881Y-102443473D01*
X131740265Y-102431070D01*
X131842436Y-102355605D01*
X131842439Y-102355602D01*
X131850010Y-102350010D01*
X131931209Y-102240076D01*
X131976493Y-102111127D01*
X131977043Y-102105304D01*
X132010801Y-102043745D01*
X132073174Y-102009833D01*
X132143981Y-102015025D01*
X132169736Y-102028235D01*
X132319393Y-102128233D01*
X132323092Y-102130057D01*
X132323097Y-102130060D01*
X132368301Y-102152352D01*
X132542992Y-102238500D01*
X132546897Y-102239825D01*
X132546898Y-102239826D01*
X132775164Y-102317312D01*
X132775167Y-102317313D01*
X132779071Y-102318638D01*
X132783110Y-102319441D01*
X132783116Y-102319443D01*
X132936789Y-102350010D01*
X133023591Y-102367276D01*
X133027699Y-102367545D01*
X133027705Y-102367546D01*
X133174340Y-102377156D01*
X133265367Y-102383122D01*
X133272368Y-102384231D01*
X133282161Y-102382680D01*
X133282162Y-102382680D01*
X133292445Y-102381051D01*
X133312156Y-102379500D01*
X138210212Y-102379500D01*
X138229923Y-102381051D01*
X138240206Y-102382680D01*
X138240207Y-102382680D01*
X138250000Y-102384231D01*
X138257518Y-102383040D01*
X138263026Y-102382679D01*
X138263133Y-102382679D01*
X138263286Y-102382662D01*
X138491736Y-102367689D01*
X138491740Y-102367688D01*
X138495851Y-102367419D01*
X138499891Y-102366615D01*
X138499894Y-102366615D01*
X138733444Y-102320159D01*
X138733450Y-102320157D01*
X138737494Y-102319353D01*
X138741400Y-102318027D01*
X138741404Y-102318026D01*
X138966897Y-102241481D01*
X138966899Y-102241480D01*
X138970797Y-102240157D01*
X138977856Y-102236676D01*
X139188062Y-102133014D01*
X139188067Y-102133011D01*
X139191766Y-102131187D01*
X139396622Y-101994307D01*
X139581859Y-101831859D01*
X139744307Y-101646622D01*
X139881187Y-101441766D01*
X139884071Y-101435919D01*
X139988335Y-101224492D01*
X139988336Y-101224490D01*
X139990157Y-101220797D01*
X139991481Y-101216897D01*
X140018157Y-101138314D01*
X140058995Y-101080238D01*
X140080855Y-101066252D01*
X140108068Y-101052565D01*
X140108071Y-101052563D01*
X140114855Y-101049151D01*
X140120626Y-101044222D01*
X140120629Y-101044220D01*
X140229536Y-100951204D01*
X140229536Y-100951203D01*
X140235314Y-100946269D01*
X140327755Y-100817624D01*
X140386842Y-100670641D01*
X140403544Y-100553283D01*
X140408581Y-100517891D01*
X140408581Y-100517888D01*
X140409162Y-100513807D01*
X140409235Y-100506876D01*
X140409264Y-100504134D01*
X140409264Y-100504128D01*
X140409307Y-100500000D01*
X140408645Y-100494525D01*
X140401360Y-100434330D01*
X140390276Y-100342733D01*
X140334280Y-100194546D01*
X140255084Y-100079315D01*
X140248855Y-100070251D01*
X140248854Y-100070249D01*
X140244553Y-100063992D01*
X140126275Y-99958611D01*
X140118889Y-99954700D01*
X140004354Y-99894057D01*
X139986274Y-99884484D01*
X139832633Y-99845892D01*
X139825034Y-99845852D01*
X139825033Y-99845852D01*
X139759181Y-99845507D01*
X139674221Y-99845062D01*
X139666841Y-99846834D01*
X139666839Y-99846834D01*
X139527563Y-99880271D01*
X139527560Y-99880272D01*
X139520184Y-99882043D01*
X139379414Y-99954700D01*
X139260039Y-100058838D01*
X139176509Y-100177689D01*
X139120976Y-100221919D01*
X139050344Y-100229105D01*
X138987039Y-100196964D01*
X138951717Y-100137849D01*
X138934774Y-100074619D01*
X138934770Y-100074608D01*
X138933347Y-100069297D01*
X138884090Y-99963664D01*
X138842905Y-99875341D01*
X138842902Y-99875336D01*
X138840579Y-99870354D01*
X138823423Y-99845852D01*
X138788123Y-99795438D01*
X141017000Y-99795438D01*
X141017337Y-99801953D01*
X141026894Y-99894057D01*
X141029788Y-99907456D01*
X141079381Y-100056107D01*
X141085555Y-100069286D01*
X141167788Y-100202173D01*
X141176824Y-100213574D01*
X141287429Y-100323986D01*
X141298840Y-100332998D01*
X141431880Y-100415004D01*
X141445061Y-100421151D01*
X141593814Y-100470491D01*
X141607190Y-100473358D01*
X141698097Y-100482672D01*
X141704513Y-100483000D01*
X141727885Y-100483000D01*
X141743124Y-100478525D01*
X141744329Y-100477135D01*
X141746000Y-100469452D01*
X141746000Y-100464885D01*
X142254000Y-100464885D01*
X142258475Y-100480124D01*
X142259865Y-100481329D01*
X142267548Y-100483000D01*
X142295438Y-100483000D01*
X142301953Y-100482663D01*
X142394057Y-100473106D01*
X142407456Y-100470212D01*
X142556107Y-100420619D01*
X142569286Y-100414445D01*
X142702173Y-100332212D01*
X142713574Y-100323176D01*
X142823986Y-100212571D01*
X142832998Y-100201160D01*
X142915004Y-100068120D01*
X142921151Y-100054939D01*
X142970491Y-99906186D01*
X142973358Y-99892810D01*
X142982672Y-99801903D01*
X142982929Y-99796874D01*
X142978525Y-99781876D01*
X142977135Y-99780671D01*
X142969452Y-99779000D01*
X142272115Y-99779000D01*
X142256876Y-99783475D01*
X142255671Y-99784865D01*
X142254000Y-99792548D01*
X142254000Y-100464885D01*
X141746000Y-100464885D01*
X141746000Y-99797115D01*
X141741525Y-99781876D01*
X141740135Y-99780671D01*
X141732452Y-99779000D01*
X141035115Y-99779000D01*
X141019876Y-99783475D01*
X141018671Y-99784865D01*
X141017000Y-99792548D01*
X141017000Y-99795438D01*
X138788123Y-99795438D01*
X138717833Y-99695054D01*
X138717831Y-99695051D01*
X138714674Y-99690543D01*
X138693246Y-99669115D01*
X138659220Y-99606803D01*
X138664285Y-99535988D01*
X138706832Y-99479152D01*
X138773352Y-99454341D01*
X138782341Y-99454020D01*
X140784732Y-99454020D01*
X140804443Y-99455571D01*
X140814726Y-99457200D01*
X140814727Y-99457200D01*
X140824520Y-99458751D01*
X140834145Y-99457226D01*
X140834487Y-99457199D01*
X140836026Y-99457199D01*
X140839079Y-99456838D01*
X141025688Y-99442152D01*
X141221901Y-99395045D01*
X141226472Y-99393152D01*
X141226474Y-99393151D01*
X141403756Y-99319718D01*
X141403760Y-99319716D01*
X141408330Y-99317823D01*
X141412554Y-99315235D01*
X141412559Y-99315232D01*
X141454439Y-99289568D01*
X141520274Y-99271000D01*
X142964885Y-99271000D01*
X142980124Y-99266525D01*
X142981329Y-99265135D01*
X142983000Y-99257452D01*
X142983000Y-99254562D01*
X142982663Y-99248047D01*
X142973106Y-99155943D01*
X142970212Y-99142544D01*
X142920619Y-98993893D01*
X142914445Y-98980714D01*
X142832212Y-98847827D01*
X142823176Y-98836426D01*
X142712571Y-98726014D01*
X142701160Y-98717002D01*
X142654898Y-98688486D01*
X142607405Y-98635714D01*
X142595981Y-98565642D01*
X142620188Y-98505661D01*
X142669532Y-98439821D01*
X142669534Y-98439818D01*
X142674917Y-98432635D01*
X142705633Y-98350699D01*
X142720358Y-98311419D01*
X142720358Y-98311418D01*
X142723130Y-98304024D01*
X142725696Y-98280409D01*
X142729131Y-98248786D01*
X142729131Y-98248785D01*
X142729500Y-98245389D01*
X142729500Y-98161030D01*
X142749502Y-98092909D01*
X142773669Y-98065219D01*
X142832515Y-98014959D01*
X142836271Y-98011751D01*
X142866519Y-97976335D01*
X142890942Y-97947740D01*
X142950393Y-97908931D01*
X143021388Y-97908425D01*
X143072281Y-97937045D01*
G37*
%TD.AperFunction*%
%TA.AperFunction,Conductor*%
G36*
X129023224Y-111762973D02*
G01*
X129080060Y-111805520D01*
X129104431Y-111867202D01*
X129108113Y-111900553D01*
X129110725Y-111907690D01*
X129111515Y-111911058D01*
X129107597Y-111981947D01*
X129065977Y-112039464D01*
X129055147Y-112046976D01*
X128932193Y-112123063D01*
X128920792Y-112132099D01*
X128806261Y-112246829D01*
X128797249Y-112258240D01*
X128712184Y-112396243D01*
X128706037Y-112409424D01*
X128654862Y-112563710D01*
X128651995Y-112577086D01*
X128642328Y-112671438D01*
X128642000Y-112677855D01*
X128642000Y-113127885D01*
X128646475Y-113143124D01*
X128647865Y-113144329D01*
X128655548Y-113146000D01*
X130128000Y-113146000D01*
X130196121Y-113166002D01*
X130242614Y-113219658D01*
X130254000Y-113272000D01*
X130254000Y-113528000D01*
X130233998Y-113596121D01*
X130180342Y-113642614D01*
X130128000Y-113654000D01*
X128660116Y-113654000D01*
X128644877Y-113658475D01*
X128643672Y-113659865D01*
X128642001Y-113667548D01*
X128642001Y-114122095D01*
X128642338Y-114128614D01*
X128652257Y-114224206D01*
X128655149Y-114237600D01*
X128706588Y-114391784D01*
X128712761Y-114404962D01*
X128798063Y-114542807D01*
X128807099Y-114554208D01*
X128908394Y-114655327D01*
X128942473Y-114717610D01*
X128937470Y-114788430D01*
X128894973Y-114845303D01*
X128828474Y-114870171D01*
X128819376Y-114870500D01*
X126889788Y-114870500D01*
X126870077Y-114868949D01*
X126869244Y-114868817D01*
X126850000Y-114865769D01*
X126840207Y-114867320D01*
X126830788Y-114867320D01*
X126815005Y-114867997D01*
X126684506Y-114858664D01*
X126649718Y-114856176D01*
X126631923Y-114853618D01*
X126537143Y-114833000D01*
X126444517Y-114812850D01*
X126427269Y-114807785D01*
X126247573Y-114740761D01*
X126231221Y-114733294D01*
X126062895Y-114641382D01*
X126047771Y-114631662D01*
X125894238Y-114516728D01*
X125880652Y-114504955D01*
X125795342Y-114419645D01*
X125761316Y-114357333D01*
X125766381Y-114286518D01*
X125793419Y-114243420D01*
X125866578Y-114166996D01*
X125866583Y-114166990D01*
X125870728Y-114162660D01*
X125900164Y-114117071D01*
X125981800Y-113990640D01*
X125981801Y-113990637D01*
X125985052Y-113985603D01*
X126027157Y-113881128D01*
X126039691Y-113850029D01*
X126083707Y-113794323D01*
X126129282Y-113774115D01*
X126147981Y-113769970D01*
X126150606Y-113769142D01*
X126150611Y-113769141D01*
X126483283Y-113664250D01*
X126483291Y-113664247D01*
X126485911Y-113663421D01*
X126813269Y-113527825D01*
X127127563Y-113364214D01*
X127426402Y-113173833D01*
X127428570Y-113172169D01*
X127428582Y-113172161D01*
X127705318Y-112959812D01*
X127707510Y-112958130D01*
X127709538Y-112956272D01*
X127709546Y-112956265D01*
X127943682Y-112741718D01*
X127955728Y-112731972D01*
X127960771Y-112728382D01*
X127969684Y-112719684D01*
X127986250Y-112697580D01*
X127997981Y-112684050D01*
X128890097Y-111791934D01*
X128952409Y-111757908D01*
X129023224Y-111762973D01*
G37*
%TD.AperFunction*%
%TA.AperFunction,Conductor*%
G36*
X157447114Y-110008288D02*
G01*
X157519977Y-110033784D01*
X157545398Y-110046026D01*
X157634269Y-110101867D01*
X157656328Y-110119459D01*
X157730541Y-110193672D01*
X157748133Y-110215731D01*
X157803974Y-110304602D01*
X157816216Y-110330021D01*
X157844678Y-110411360D01*
X157850880Y-110429085D01*
X157857159Y-110456595D01*
X157866622Y-110540589D01*
X157866299Y-110555292D01*
X157867320Y-110555292D01*
X157867320Y-110565206D01*
X157865769Y-110575000D01*
X157867320Y-110584792D01*
X157868949Y-110595077D01*
X157870500Y-110614788D01*
X157870500Y-111696080D01*
X157867951Y-111720028D01*
X157867872Y-111721693D01*
X157865680Y-111731876D01*
X157866904Y-111742217D01*
X157869627Y-111765223D01*
X157869977Y-111771154D01*
X157870072Y-111771146D01*
X157870500Y-111776324D01*
X157870500Y-111781524D01*
X157871354Y-111786653D01*
X157871354Y-111786656D01*
X157873669Y-111800565D01*
X157874506Y-111806443D01*
X157876920Y-111826838D01*
X157865063Y-111896837D01*
X157817244Y-111949315D01*
X157787291Y-111962544D01*
X157756876Y-111971475D01*
X157755671Y-111972865D01*
X157754000Y-111980548D01*
X157754000Y-113528000D01*
X157733998Y-113596121D01*
X157680342Y-113642614D01*
X157628000Y-113654000D01*
X156160116Y-113654000D01*
X156144877Y-113658475D01*
X156143672Y-113659865D01*
X156142001Y-113667548D01*
X156142001Y-114035343D01*
X156121999Y-114103464D01*
X156068343Y-114149957D01*
X155998069Y-114160061D01*
X155955616Y-114145930D01*
X155914575Y-114123520D01*
X155899455Y-114113803D01*
X155873770Y-114094575D01*
X155733069Y-113989248D01*
X155719483Y-113977475D01*
X155572525Y-113830517D01*
X155560752Y-113816931D01*
X155466157Y-113690567D01*
X155436195Y-113650542D01*
X155426478Y-113635422D01*
X155415798Y-113615862D01*
X155326871Y-113453007D01*
X155319404Y-113436656D01*
X155308918Y-113408540D01*
X155265580Y-113292346D01*
X155246773Y-113241923D01*
X155241708Y-113224674D01*
X155220653Y-113127885D01*
X156142000Y-113127885D01*
X156146475Y-113143124D01*
X156147865Y-113144329D01*
X156155548Y-113146000D01*
X157227885Y-113146000D01*
X157243124Y-113141525D01*
X157244329Y-113140135D01*
X157246000Y-113132452D01*
X157246000Y-111985116D01*
X157241525Y-111969877D01*
X157240135Y-111968672D01*
X157232452Y-111967001D01*
X156852905Y-111967001D01*
X156846386Y-111967338D01*
X156750794Y-111977257D01*
X156737400Y-111980149D01*
X156583216Y-112031588D01*
X156570038Y-112037761D01*
X156432193Y-112123063D01*
X156420792Y-112132099D01*
X156306261Y-112246829D01*
X156297249Y-112258240D01*
X156212184Y-112396243D01*
X156206037Y-112409424D01*
X156154862Y-112563710D01*
X156151995Y-112577086D01*
X156142328Y-112671438D01*
X156142000Y-112677855D01*
X156142000Y-113127885D01*
X155220653Y-113127885D01*
X155197528Y-113021581D01*
X155194970Y-113003787D01*
X155183748Y-112846885D01*
X155182003Y-112822488D01*
X155182680Y-112806706D01*
X155182680Y-112797286D01*
X155184231Y-112787493D01*
X155181051Y-112767415D01*
X155179500Y-112747705D01*
X155179500Y-111437017D01*
X155199502Y-111368896D01*
X155235498Y-111332252D01*
X155240035Y-111329221D01*
X155308484Y-111283484D01*
X155364734Y-111199301D01*
X155379500Y-111125067D01*
X155379500Y-110992802D01*
X155399502Y-110924681D01*
X155453158Y-110878188D01*
X155523432Y-110868084D01*
X155537473Y-110870926D01*
X155653171Y-110901279D01*
X155653175Y-110901280D01*
X155660522Y-110903207D01*
X155742981Y-110904502D01*
X155810778Y-110925571D01*
X155856422Y-110979950D01*
X155867001Y-111030486D01*
X155867001Y-111144669D01*
X155867371Y-111151490D01*
X155872895Y-111202352D01*
X155876521Y-111217604D01*
X155921676Y-111338054D01*
X155930214Y-111353649D01*
X156006715Y-111455724D01*
X156019276Y-111468285D01*
X156121351Y-111544786D01*
X156136946Y-111553324D01*
X156257394Y-111598478D01*
X156272649Y-111602105D01*
X156323514Y-111607631D01*
X156330328Y-111608000D01*
X156481885Y-111608000D01*
X156497124Y-111603525D01*
X156498329Y-111602135D01*
X156500000Y-111594452D01*
X156500000Y-111589884D01*
X156900000Y-111589884D01*
X156904475Y-111605123D01*
X156905865Y-111606328D01*
X156913548Y-111607999D01*
X157069669Y-111607999D01*
X157076490Y-111607629D01*
X157127352Y-111602105D01*
X157142604Y-111598479D01*
X157263054Y-111553324D01*
X157278649Y-111544786D01*
X157380724Y-111468285D01*
X157393285Y-111455724D01*
X157469786Y-111353649D01*
X157478324Y-111338054D01*
X157523478Y-111217606D01*
X157527105Y-111202351D01*
X157532631Y-111151486D01*
X157533000Y-111144672D01*
X157533000Y-111118115D01*
X157528525Y-111102876D01*
X157527135Y-111101671D01*
X157519452Y-111100000D01*
X156918115Y-111100000D01*
X156902876Y-111104475D01*
X156901671Y-111105865D01*
X156900000Y-111113548D01*
X156900000Y-111589884D01*
X156500000Y-111589884D01*
X156500000Y-110830500D01*
X156520002Y-110762379D01*
X156573658Y-110715886D01*
X156626000Y-110704500D01*
X157034714Y-110704499D01*
X157050066Y-110704499D01*
X157060513Y-110702421D01*
X157085093Y-110700000D01*
X157514884Y-110700000D01*
X157530123Y-110695525D01*
X157531328Y-110694135D01*
X157532999Y-110686452D01*
X157532999Y-110655331D01*
X157532629Y-110648510D01*
X157527105Y-110597648D01*
X157523479Y-110582396D01*
X157478324Y-110461946D01*
X157469786Y-110446351D01*
X157393285Y-110344276D01*
X157380728Y-110331719D01*
X157329935Y-110293652D01*
X157287420Y-110236792D01*
X157279500Y-110192827D01*
X157279499Y-110127219D01*
X157299500Y-110059098D01*
X157353155Y-110012604D01*
X157423429Y-110002499D01*
X157447114Y-110008288D01*
G37*
%TD.AperFunction*%
%TA.AperFunction,Conductor*%
G36*
X152726752Y-106769223D02*
G01*
X152757449Y-106789734D01*
X152755735Y-106792299D01*
X152795962Y-106824718D01*
X152818381Y-106892082D01*
X152800821Y-106960872D01*
X152764037Y-107000272D01*
X152762895Y-107001060D01*
X152759640Y-107003028D01*
X152696998Y-107052105D01*
X152571417Y-107150492D01*
X152552083Y-107165639D01*
X152365639Y-107352083D01*
X152363289Y-107355083D01*
X152363286Y-107355086D01*
X152223869Y-107533039D01*
X152203028Y-107559640D01*
X152183639Y-107591713D01*
X152076004Y-107769764D01*
X152066621Y-107785285D01*
X152024595Y-107878663D01*
X151963292Y-108014873D01*
X151958407Y-108025726D01*
X151879964Y-108277458D01*
X151832436Y-108536810D01*
X151832207Y-108540602D01*
X151832206Y-108540607D01*
X151817346Y-108786284D01*
X151817322Y-108786505D01*
X151817322Y-108786683D01*
X151816978Y-108792370D01*
X151815769Y-108800000D01*
X151817321Y-108809796D01*
X151818949Y-108820077D01*
X151820500Y-108839788D01*
X151820500Y-109062983D01*
X151800498Y-109131104D01*
X151764503Y-109167747D01*
X151691516Y-109216516D01*
X151635266Y-109300699D01*
X151620500Y-109374933D01*
X151620500Y-109506636D01*
X151600498Y-109574757D01*
X151546842Y-109621250D01*
X151476568Y-109631354D01*
X151463804Y-109628840D01*
X151444289Y-109623938D01*
X151332633Y-109595892D01*
X151325034Y-109595852D01*
X151325033Y-109595852D01*
X151297988Y-109595710D01*
X151258338Y-109595503D01*
X151190324Y-109575145D01*
X151144113Y-109521246D01*
X151132999Y-109469505D01*
X151132999Y-109355331D01*
X151132629Y-109348510D01*
X151127105Y-109297648D01*
X151123479Y-109282396D01*
X151078324Y-109161946D01*
X151069786Y-109146351D01*
X150993285Y-109044276D01*
X150980724Y-109031715D01*
X150878649Y-108955214D01*
X150863054Y-108946676D01*
X150742606Y-108901522D01*
X150727351Y-108897895D01*
X150676486Y-108892369D01*
X150669672Y-108892000D01*
X150518115Y-108892000D01*
X150502876Y-108896475D01*
X150501671Y-108897865D01*
X150500000Y-108905548D01*
X150500000Y-109669500D01*
X150479998Y-109737621D01*
X150426342Y-109784114D01*
X150374001Y-109795500D01*
X150300001Y-109795500D01*
X150226000Y-109795501D01*
X150157880Y-109775499D01*
X150111387Y-109721844D01*
X150100000Y-109669501D01*
X150100000Y-108910116D01*
X150095525Y-108894877D01*
X150094135Y-108893672D01*
X150086452Y-108892001D01*
X150005500Y-108892001D01*
X149937379Y-108871999D01*
X149890886Y-108818343D01*
X149879500Y-108766001D01*
X149879500Y-107533037D01*
X149881051Y-107513326D01*
X149881399Y-107511131D01*
X149884231Y-107493249D01*
X149882888Y-107484767D01*
X149882681Y-107482665D01*
X149882681Y-107482289D01*
X149882524Y-107481067D01*
X149873683Y-107391315D01*
X149866872Y-107322161D01*
X149860690Y-107301780D01*
X149820957Y-107170800D01*
X149820323Y-107099806D01*
X149859701Y-107038412D01*
X149875063Y-107025292D01*
X149875065Y-107025290D01*
X149878827Y-107022077D01*
X149882040Y-107018315D01*
X149882045Y-107018310D01*
X149980904Y-106902560D01*
X150004513Y-106874917D01*
X150013812Y-106859743D01*
X150014129Y-106859226D01*
X150066777Y-106811595D01*
X150096981Y-106801483D01*
X150111557Y-106798584D01*
X150156051Y-106789734D01*
X150166371Y-106782839D01*
X150166372Y-106782838D01*
X150186748Y-106769223D01*
X150254501Y-106748008D01*
X150326752Y-106769223D01*
X150347129Y-106782839D01*
X150347132Y-106782840D01*
X150357449Y-106789734D01*
X150431683Y-106804500D01*
X150656713Y-106804500D01*
X150881816Y-106804499D01*
X150918941Y-106797115D01*
X150943876Y-106792156D01*
X150943878Y-106792155D01*
X150956051Y-106789734D01*
X150966371Y-106782839D01*
X150966372Y-106782838D01*
X150986748Y-106769223D01*
X151054501Y-106748008D01*
X151126752Y-106769223D01*
X151147129Y-106782839D01*
X151147132Y-106782840D01*
X151157449Y-106789734D01*
X151231683Y-106804500D01*
X151456713Y-106804500D01*
X151681816Y-106804499D01*
X151718941Y-106797115D01*
X151743876Y-106792156D01*
X151743878Y-106792155D01*
X151756051Y-106789734D01*
X151766371Y-106782839D01*
X151766372Y-106782838D01*
X151786748Y-106769223D01*
X151854501Y-106748008D01*
X151926752Y-106769223D01*
X151947129Y-106782839D01*
X151947132Y-106782840D01*
X151957449Y-106789734D01*
X152031683Y-106804500D01*
X152256713Y-106804500D01*
X152481816Y-106804499D01*
X152518941Y-106797115D01*
X152543876Y-106792156D01*
X152543878Y-106792155D01*
X152556051Y-106789734D01*
X152566371Y-106782839D01*
X152566372Y-106782838D01*
X152586748Y-106769223D01*
X152654501Y-106748008D01*
X152726752Y-106769223D01*
G37*
%TD.AperFunction*%
%TA.AperFunction,Conductor*%
G36*
X156258363Y-107689262D02*
G01*
X156306947Y-107741031D01*
X156320500Y-107797878D01*
X156320500Y-109062983D01*
X156300498Y-109131104D01*
X156264503Y-109167747D01*
X156191516Y-109216516D01*
X156135266Y-109300699D01*
X156120500Y-109374933D01*
X156120500Y-109506636D01*
X156100498Y-109574757D01*
X156046842Y-109621250D01*
X155976568Y-109631354D01*
X155963804Y-109628840D01*
X155944289Y-109623938D01*
X155832633Y-109595892D01*
X155825034Y-109595852D01*
X155825033Y-109595852D01*
X155797988Y-109595710D01*
X155758338Y-109595503D01*
X155690324Y-109575145D01*
X155644113Y-109521246D01*
X155632999Y-109469505D01*
X155632999Y-109355331D01*
X155632629Y-109348510D01*
X155627105Y-109297648D01*
X155623479Y-109282396D01*
X155578324Y-109161946D01*
X155569786Y-109146351D01*
X155493285Y-109044276D01*
X155480724Y-109031715D01*
X155378649Y-108955214D01*
X155363054Y-108946676D01*
X155242606Y-108901522D01*
X155227351Y-108897895D01*
X155176486Y-108892369D01*
X155169672Y-108892000D01*
X155018115Y-108892000D01*
X155002876Y-108896475D01*
X155001671Y-108897865D01*
X155000000Y-108905548D01*
X155000000Y-109669500D01*
X154979998Y-109737621D01*
X154926342Y-109784114D01*
X154874001Y-109795500D01*
X154800001Y-109795500D01*
X154726000Y-109795501D01*
X154657880Y-109775499D01*
X154611387Y-109721844D01*
X154600000Y-109669501D01*
X154600000Y-108910116D01*
X154595525Y-108894877D01*
X154594135Y-108893672D01*
X154586452Y-108892001D01*
X154505500Y-108892001D01*
X154437379Y-108871999D01*
X154390886Y-108818343D01*
X154379500Y-108766001D01*
X154379500Y-108539788D01*
X154381051Y-108520077D01*
X154382680Y-108509792D01*
X154384231Y-108500000D01*
X154382680Y-108490206D01*
X154382680Y-108480292D01*
X154383703Y-108480292D01*
X154383378Y-108465589D01*
X154393468Y-108376032D01*
X154399747Y-108348524D01*
X154436260Y-108244176D01*
X154448501Y-108218756D01*
X154507321Y-108125143D01*
X154524914Y-108103083D01*
X154603083Y-108024914D01*
X154625143Y-108007321D01*
X154636795Y-108000000D01*
X154693016Y-107964674D01*
X154718756Y-107948501D01*
X154744176Y-107936260D01*
X154848524Y-107899747D01*
X154876032Y-107893468D01*
X154965589Y-107883378D01*
X154980292Y-107883703D01*
X154980292Y-107882680D01*
X154990206Y-107882680D01*
X155000000Y-107884231D01*
X155020078Y-107881051D01*
X155039788Y-107879500D01*
X155460212Y-107879500D01*
X155479922Y-107881051D01*
X155500000Y-107884231D01*
X155505515Y-107883358D01*
X155698061Y-107866512D01*
X155703374Y-107865088D01*
X155703376Y-107865088D01*
X155884795Y-107816477D01*
X155884797Y-107816476D01*
X155890105Y-107815054D01*
X155911782Y-107804946D01*
X156065308Y-107733356D01*
X156065313Y-107733353D01*
X156070295Y-107731030D01*
X156122230Y-107694665D01*
X156189503Y-107671977D01*
X156258363Y-107689262D01*
G37*
%TD.AperFunction*%
%TA.AperFunction,Conductor*%
G36*
X148953331Y-94066002D02*
G01*
X148999824Y-94119658D01*
X149006106Y-94136503D01*
X149009224Y-94147124D01*
X149010615Y-94148329D01*
X149018298Y-94150000D01*
X149130750Y-94150000D01*
X149198871Y-94170002D01*
X149245364Y-94223658D01*
X149256750Y-94276000D01*
X149256750Y-95239884D01*
X149261225Y-95255123D01*
X149262615Y-95256328D01*
X149270298Y-95257999D01*
X149301419Y-95257999D01*
X149308240Y-95257629D01*
X149359102Y-95252105D01*
X149374354Y-95248479D01*
X149494804Y-95203324D01*
X149510399Y-95194786D01*
X149612474Y-95118285D01*
X149625031Y-95105728D01*
X149663098Y-95054935D01*
X149719958Y-95012420D01*
X149763925Y-95004500D01*
X150061691Y-95004499D01*
X150081816Y-95004499D01*
X150117568Y-94997388D01*
X150143876Y-94992156D01*
X150143878Y-94992155D01*
X150156051Y-94989734D01*
X150166371Y-94982839D01*
X150166372Y-94982838D01*
X150186748Y-94969223D01*
X150254501Y-94948008D01*
X150326752Y-94969223D01*
X150347129Y-94982839D01*
X150347132Y-94982840D01*
X150357449Y-94989734D01*
X150431683Y-95004500D01*
X150656713Y-95004500D01*
X150881816Y-95004499D01*
X150926673Y-94995577D01*
X150997386Y-95001907D01*
X151053452Y-95045463D01*
X151077250Y-95119157D01*
X151077250Y-95942918D01*
X151057248Y-96011039D01*
X151034080Y-96037866D01*
X151010039Y-96058838D01*
X150918950Y-96188444D01*
X150916190Y-96195524D01*
X150883944Y-96278231D01*
X150861406Y-96336037D01*
X150860414Y-96343570D01*
X150860414Y-96343571D01*
X150842227Y-96481719D01*
X150840729Y-96493096D01*
X150844609Y-96528240D01*
X150856229Y-96633484D01*
X150858113Y-96650553D01*
X150860723Y-96657684D01*
X150860723Y-96657686D01*
X150909665Y-96791426D01*
X150912553Y-96799319D01*
X150916788Y-96805622D01*
X150916792Y-96805629D01*
X150943735Y-96845724D01*
X150965128Y-96913421D01*
X150946524Y-96981937D01*
X150893831Y-97029518D01*
X150839154Y-97042000D01*
X150312081Y-97042001D01*
X150305260Y-97042371D01*
X150254398Y-97047895D01*
X150239146Y-97051521D01*
X150118696Y-97096676D01*
X150103101Y-97105214D01*
X150001026Y-97181715D01*
X149988465Y-97194276D01*
X149911964Y-97296351D01*
X149903426Y-97311946D01*
X149858272Y-97432394D01*
X149854645Y-97447649D01*
X149849119Y-97498514D01*
X149848750Y-97505328D01*
X149848750Y-98002885D01*
X149853225Y-98018124D01*
X149854615Y-98019329D01*
X149862298Y-98021000D01*
X152784635Y-98021000D01*
X152799874Y-98016525D01*
X152801079Y-98015135D01*
X152802750Y-98007452D01*
X152802750Y-98002885D01*
X153310750Y-98002885D01*
X153315225Y-98018124D01*
X153316615Y-98019329D01*
X153324298Y-98021000D01*
X154759635Y-98021000D01*
X154774874Y-98016525D01*
X154776079Y-98015135D01*
X154777750Y-98007452D01*
X154777750Y-98002885D01*
X155285750Y-98002885D01*
X155290225Y-98018124D01*
X155291615Y-98019329D01*
X155299298Y-98021000D01*
X156236259Y-98021000D01*
X156250128Y-98016928D01*
X156251066Y-98010771D01*
X156250615Y-98009075D01*
X156201277Y-97890257D01*
X156192877Y-97875824D01*
X156147821Y-97817843D01*
X156142626Y-97811956D01*
X155962555Y-97631885D01*
X157048750Y-97631885D01*
X157053225Y-97647124D01*
X157054615Y-97648329D01*
X157062298Y-97650000D01*
X157738635Y-97650000D01*
X157753874Y-97645525D01*
X157755079Y-97644135D01*
X157756750Y-97636452D01*
X157756750Y-97268115D01*
X157752275Y-97252876D01*
X157750885Y-97251671D01*
X157743202Y-97250000D01*
X157066866Y-97250000D01*
X157051627Y-97254475D01*
X157050422Y-97255865D01*
X157048751Y-97263548D01*
X157048751Y-97294669D01*
X157049121Y-97301490D01*
X157054645Y-97352352D01*
X157058271Y-97367603D01*
X157072579Y-97405770D01*
X157077762Y-97476577D01*
X157072579Y-97494230D01*
X157058272Y-97532394D01*
X157054645Y-97547649D01*
X157049119Y-97598514D01*
X157048750Y-97605328D01*
X157048750Y-97631885D01*
X155962555Y-97631885D01*
X155494834Y-97164164D01*
X155488860Y-97158899D01*
X155430174Y-97113418D01*
X155415702Y-97105024D01*
X155296794Y-97055892D01*
X155296223Y-97055741D01*
X155289431Y-97056842D01*
X155285750Y-97069808D01*
X155285750Y-98002885D01*
X154777750Y-98002885D01*
X154777750Y-97060115D01*
X154773275Y-97044876D01*
X154771885Y-97043671D01*
X154764202Y-97042000D01*
X154262081Y-97042001D01*
X154255260Y-97042371D01*
X154204398Y-97047895D01*
X154189144Y-97051522D01*
X154088479Y-97089259D01*
X154017672Y-97094442D01*
X154000021Y-97089259D01*
X153899359Y-97051522D01*
X153884101Y-97047895D01*
X153833236Y-97042369D01*
X153826422Y-97042000D01*
X153328865Y-97042000D01*
X153313626Y-97046475D01*
X153312421Y-97047865D01*
X153310750Y-97055548D01*
X153310750Y-98002885D01*
X152802750Y-98002885D01*
X152802750Y-97060116D01*
X152798275Y-97044877D01*
X152796885Y-97043672D01*
X152789202Y-97042001D01*
X152287081Y-97042001D01*
X152280260Y-97042371D01*
X152229398Y-97047895D01*
X152214140Y-97051522D01*
X152186361Y-97061936D01*
X152115554Y-97067119D01*
X152053186Y-97033197D01*
X152019057Y-96970941D01*
X152024004Y-96900117D01*
X152039808Y-96870433D01*
X152067507Y-96831885D01*
X157048750Y-96831885D01*
X157053225Y-96847124D01*
X157054615Y-96848329D01*
X157062298Y-96850000D01*
X157738635Y-96850000D01*
X157753874Y-96845525D01*
X157755079Y-96844135D01*
X157756750Y-96836452D01*
X157756750Y-96468115D01*
X157752275Y-96452876D01*
X157750885Y-96451671D01*
X157743202Y-96450000D01*
X157066866Y-96450000D01*
X157051627Y-96454475D01*
X157050422Y-96455865D01*
X157048751Y-96463548D01*
X157048751Y-96494669D01*
X157049121Y-96501490D01*
X157054645Y-96552352D01*
X157058271Y-96567603D01*
X157072579Y-96605770D01*
X157077762Y-96676577D01*
X157072579Y-96694230D01*
X157058272Y-96732394D01*
X157054645Y-96747649D01*
X157049119Y-96798514D01*
X157048750Y-96805328D01*
X157048750Y-96831885D01*
X152067507Y-96831885D01*
X152077755Y-96817624D01*
X152136842Y-96670641D01*
X152146137Y-96605327D01*
X152158581Y-96517891D01*
X152158581Y-96517888D01*
X152159162Y-96513807D01*
X152159307Y-96500000D01*
X152140276Y-96342733D01*
X152084280Y-96194546D01*
X152050899Y-96145976D01*
X151998855Y-96070251D01*
X151998854Y-96070249D01*
X151994553Y-96063992D01*
X151958993Y-96032309D01*
X151958517Y-96031885D01*
X157048750Y-96031885D01*
X157053225Y-96047124D01*
X157054615Y-96048329D01*
X157062298Y-96050000D01*
X157738635Y-96050000D01*
X157753874Y-96045525D01*
X157755079Y-96044135D01*
X157756750Y-96036452D01*
X157756750Y-95668115D01*
X157752275Y-95652876D01*
X157750885Y-95651671D01*
X157743202Y-95650000D01*
X157066866Y-95650000D01*
X157051627Y-95654475D01*
X157050422Y-95655865D01*
X157048751Y-95663548D01*
X157048751Y-95694669D01*
X157049121Y-95701490D01*
X157054645Y-95752352D01*
X157058271Y-95767603D01*
X157072579Y-95805770D01*
X157077762Y-95876577D01*
X157072579Y-95894230D01*
X157058272Y-95932394D01*
X157054645Y-95947649D01*
X157049119Y-95998514D01*
X157048750Y-96005328D01*
X157048750Y-96031885D01*
X151958517Y-96031885D01*
X151878431Y-95960532D01*
X151840876Y-95900282D01*
X151836250Y-95866455D01*
X151836250Y-95119157D01*
X151856252Y-95051036D01*
X151909908Y-95004543D01*
X151986830Y-94995578D01*
X152031683Y-95004500D01*
X152256713Y-95004500D01*
X152481816Y-95004499D01*
X152517568Y-94997388D01*
X152543876Y-94992156D01*
X152543878Y-94992155D01*
X152556051Y-94989734D01*
X152566371Y-94982839D01*
X152566372Y-94982838D01*
X152586748Y-94969223D01*
X152654501Y-94948008D01*
X152726752Y-94969223D01*
X152747129Y-94982839D01*
X152747132Y-94982840D01*
X152757449Y-94989734D01*
X152831683Y-95004500D01*
X153056713Y-95004500D01*
X153281816Y-95004499D01*
X153317568Y-94997388D01*
X153343876Y-94992156D01*
X153343878Y-94992155D01*
X153356051Y-94989734D01*
X153366371Y-94982839D01*
X153366372Y-94982838D01*
X153386748Y-94969223D01*
X153454501Y-94948008D01*
X153526752Y-94969223D01*
X153547129Y-94982839D01*
X153547132Y-94982840D01*
X153557449Y-94989734D01*
X153631683Y-95004500D01*
X153856713Y-95004500D01*
X154081816Y-95004499D01*
X154117568Y-94997388D01*
X154143876Y-94992156D01*
X154143878Y-94992155D01*
X154156051Y-94989734D01*
X154166371Y-94982839D01*
X154166372Y-94982838D01*
X154186748Y-94969223D01*
X154254501Y-94948008D01*
X154326752Y-94969223D01*
X154347129Y-94982839D01*
X154347132Y-94982840D01*
X154357449Y-94989734D01*
X154431683Y-95004500D01*
X154449139Y-95004500D01*
X154728466Y-95004499D01*
X154796585Y-95024501D01*
X154843078Y-95078156D01*
X154853387Y-95146945D01*
X154841889Y-95234286D01*
X154840729Y-95243096D01*
X154848071Y-95309594D01*
X154856758Y-95388277D01*
X154858113Y-95400553D01*
X154860723Y-95407684D01*
X154860723Y-95407686D01*
X154898262Y-95510266D01*
X154912553Y-95549319D01*
X154916789Y-95555622D01*
X154916789Y-95555623D01*
X154994686Y-95671545D01*
X155000908Y-95680805D01*
X155006527Y-95685918D01*
X155006528Y-95685919D01*
X155080108Y-95752871D01*
X155118076Y-95787419D01*
X155257293Y-95863008D01*
X155410522Y-95903207D01*
X155494477Y-95904526D01*
X155561319Y-95905576D01*
X155561322Y-95905576D01*
X155568916Y-95905695D01*
X155723332Y-95870329D01*
X155796591Y-95833484D01*
X155858072Y-95802563D01*
X155858075Y-95802561D01*
X155864855Y-95799151D01*
X155870626Y-95794222D01*
X155870629Y-95794220D01*
X155979536Y-95701204D01*
X155979536Y-95701203D01*
X155985314Y-95696269D01*
X156077755Y-95567624D01*
X156136842Y-95420641D01*
X156146995Y-95349301D01*
X156158581Y-95267891D01*
X156158581Y-95267888D01*
X156159162Y-95263807D01*
X156159231Y-95257265D01*
X156159264Y-95254134D01*
X156159264Y-95254128D01*
X156159307Y-95250000D01*
X156158766Y-95245525D01*
X156158083Y-95239884D01*
X156456750Y-95239884D01*
X156461225Y-95255123D01*
X156462615Y-95256328D01*
X156470298Y-95257999D01*
X156501419Y-95257999D01*
X156508240Y-95257629D01*
X156559102Y-95252105D01*
X156574353Y-95248479D01*
X156612520Y-95234171D01*
X156683327Y-95228988D01*
X156700980Y-95234171D01*
X156739144Y-95248478D01*
X156754399Y-95252105D01*
X156805264Y-95257631D01*
X156812078Y-95258000D01*
X156838635Y-95258000D01*
X156853874Y-95253525D01*
X156855079Y-95252135D01*
X156856750Y-95244452D01*
X156856750Y-95231885D01*
X157256750Y-95231885D01*
X157261225Y-95247124D01*
X157262615Y-95248329D01*
X157270298Y-95250000D01*
X157738635Y-95250000D01*
X157753874Y-95245525D01*
X157755079Y-95244135D01*
X157756750Y-95236452D01*
X157756750Y-95212197D01*
X157752750Y-95184377D01*
X157752750Y-94572115D01*
X157748275Y-94556876D01*
X157746885Y-94555671D01*
X157739202Y-94554000D01*
X157274865Y-94554000D01*
X157259626Y-94558475D01*
X157258421Y-94559865D01*
X157256750Y-94567548D01*
X157256750Y-95231885D01*
X156856750Y-95231885D01*
X156856750Y-94568115D01*
X156852275Y-94552876D01*
X156850885Y-94551671D01*
X156843202Y-94550000D01*
X156474865Y-94550000D01*
X156459626Y-94554475D01*
X156458421Y-94555865D01*
X156456750Y-94563548D01*
X156456750Y-95239884D01*
X156158083Y-95239884D01*
X156153556Y-95202474D01*
X156140276Y-95092733D01*
X156084280Y-94944546D01*
X156078908Y-94936729D01*
X156078535Y-94935528D01*
X156076459Y-94931557D01*
X156077184Y-94931178D01*
X156056750Y-94865366D01*
X156056750Y-94276000D01*
X156076752Y-94207879D01*
X156130408Y-94161386D01*
X156182750Y-94150000D01*
X157090635Y-94150000D01*
X157105874Y-94145525D01*
X157108042Y-94143024D01*
X157140867Y-94082906D01*
X157203179Y-94048880D01*
X157229964Y-94046000D01*
X158134750Y-94046000D01*
X158202871Y-94066002D01*
X158249364Y-94119658D01*
X158260750Y-94172000D01*
X158260750Y-95078460D01*
X158240748Y-95146581D01*
X158187092Y-95193074D01*
X158170247Y-95199356D01*
X158159626Y-95202474D01*
X158158421Y-95203865D01*
X158156750Y-95211548D01*
X158156750Y-105283885D01*
X158161225Y-105299124D01*
X158163726Y-105301292D01*
X158223844Y-105334117D01*
X158257870Y-105396429D01*
X158260750Y-105423214D01*
X158260750Y-107039884D01*
X158265225Y-107055123D01*
X158266615Y-107056328D01*
X158274298Y-107057999D01*
X158370000Y-107057999D01*
X158438121Y-107078001D01*
X158484614Y-107131657D01*
X158496000Y-107183999D01*
X158496000Y-109577453D01*
X158475998Y-109645574D01*
X158422342Y-109692067D01*
X158352068Y-109702171D01*
X158287488Y-109672677D01*
X158274189Y-109659284D01*
X158238945Y-109618019D01*
X158235737Y-109614263D01*
X158192703Y-109577508D01*
X158077376Y-109479008D01*
X158077372Y-109479005D01*
X158073617Y-109475798D01*
X157891831Y-109364400D01*
X157887261Y-109362507D01*
X157887257Y-109362505D01*
X157699431Y-109284705D01*
X157699429Y-109284704D01*
X157694858Y-109282811D01*
X157592204Y-109258166D01*
X157492359Y-109234195D01*
X157492353Y-109234194D01*
X157487546Y-109233040D01*
X157395675Y-109225810D01*
X157346028Y-109221902D01*
X157342153Y-109221335D01*
X157341149Y-109220982D01*
X157335584Y-109220500D01*
X157332876Y-109220500D01*
X157330143Y-109220382D01*
X157330143Y-109220381D01*
X157323287Y-109220112D01*
X157315586Y-109219506D01*
X157281814Y-109216848D01*
X157275000Y-109215769D01*
X157265207Y-109217320D01*
X157255289Y-109217320D01*
X157255289Y-109214937D01*
X157198624Y-109207615D01*
X157179328Y-109197035D01*
X157135495Y-109167746D01*
X157089970Y-109113270D01*
X157079500Y-109062983D01*
X157079500Y-107216704D01*
X157099502Y-107148583D01*
X157157280Y-107100296D01*
X157167161Y-107096203D01*
X157220009Y-107074312D01*
X157226563Y-107069283D01*
X157226568Y-107069280D01*
X157291902Y-107019147D01*
X157358122Y-106993546D01*
X157412836Y-107001127D01*
X157539144Y-107048478D01*
X157554399Y-107052105D01*
X157605264Y-107057631D01*
X157612078Y-107058000D01*
X157734635Y-107058000D01*
X157749874Y-107053525D01*
X157751079Y-107052135D01*
X157752750Y-107044452D01*
X157752750Y-105320388D01*
X157755629Y-105293605D01*
X157756750Y-105288452D01*
X157756750Y-105268115D01*
X157752275Y-105252876D01*
X157750885Y-105251671D01*
X157743202Y-105250000D01*
X157066866Y-105250000D01*
X157051627Y-105254475D01*
X157050422Y-105255865D01*
X157048751Y-105263548D01*
X157048751Y-105294669D01*
X157049120Y-105301488D01*
X157055030Y-105355895D01*
X157042501Y-105425777D01*
X156994180Y-105477792D01*
X156929768Y-105495501D01*
X156831684Y-105495501D01*
X156795932Y-105502612D01*
X156769624Y-105507844D01*
X156769622Y-105507845D01*
X156757449Y-105510266D01*
X156747129Y-105517161D01*
X156747128Y-105517162D01*
X156726752Y-105530777D01*
X156658999Y-105551992D01*
X156586748Y-105530777D01*
X156566371Y-105517161D01*
X156566368Y-105517160D01*
X156556051Y-105510266D01*
X156481817Y-105495500D01*
X156256787Y-105495500D01*
X156031684Y-105495501D01*
X155995932Y-105502612D01*
X155969624Y-105507844D01*
X155969622Y-105507845D01*
X155957449Y-105510266D01*
X155947129Y-105517161D01*
X155947128Y-105517162D01*
X155926752Y-105530777D01*
X155858999Y-105551992D01*
X155786748Y-105530777D01*
X155766371Y-105517161D01*
X155766368Y-105517160D01*
X155756051Y-105510266D01*
X155681817Y-105495500D01*
X155456787Y-105495500D01*
X155231684Y-105495501D01*
X155195932Y-105502612D01*
X155169624Y-105507844D01*
X155169622Y-105507845D01*
X155157449Y-105510266D01*
X155147129Y-105517161D01*
X155147128Y-105517162D01*
X155126752Y-105530777D01*
X155058999Y-105551992D01*
X154986748Y-105530777D01*
X154966371Y-105517161D01*
X154966368Y-105517160D01*
X154956051Y-105510266D01*
X154881817Y-105495500D01*
X154712846Y-105495500D01*
X154441979Y-105495501D01*
X154373858Y-105475499D01*
X154327365Y-105421844D01*
X154317261Y-105351570D01*
X154328512Y-105317928D01*
X154327755Y-105317624D01*
X154347351Y-105268877D01*
X154386842Y-105170641D01*
X154399994Y-105078228D01*
X154408581Y-105017891D01*
X154408581Y-105017888D01*
X154409162Y-105013807D01*
X154409307Y-105000000D01*
X154390276Y-104842733D01*
X154386177Y-104831885D01*
X157048750Y-104831885D01*
X157053225Y-104847124D01*
X157054615Y-104848329D01*
X157062298Y-104850000D01*
X157738635Y-104850000D01*
X157753874Y-104845525D01*
X157755079Y-104844135D01*
X157756750Y-104836452D01*
X157756750Y-104468115D01*
X157752275Y-104452876D01*
X157750885Y-104451671D01*
X157743202Y-104450000D01*
X157066866Y-104450000D01*
X157051627Y-104454475D01*
X157050422Y-104455865D01*
X157048751Y-104463548D01*
X157048751Y-104494669D01*
X157049121Y-104501490D01*
X157054645Y-104552352D01*
X157058271Y-104567603D01*
X157072579Y-104605770D01*
X157077762Y-104676577D01*
X157072579Y-104694230D01*
X157058272Y-104732394D01*
X157054645Y-104747649D01*
X157049119Y-104798514D01*
X157048750Y-104805328D01*
X157048750Y-104831885D01*
X154386177Y-104831885D01*
X154334280Y-104694546D01*
X154315016Y-104666516D01*
X154248855Y-104570251D01*
X154248854Y-104570249D01*
X154244553Y-104563992D01*
X154231489Y-104552352D01*
X154151558Y-104481137D01*
X154126275Y-104458611D01*
X154118889Y-104454700D01*
X153992988Y-104388039D01*
X153992989Y-104388039D01*
X153986274Y-104384484D01*
X153832633Y-104345892D01*
X153825034Y-104345852D01*
X153825033Y-104345852D01*
X153759181Y-104345507D01*
X153674221Y-104345062D01*
X153666841Y-104346834D01*
X153666839Y-104346834D01*
X153527563Y-104380271D01*
X153527560Y-104380272D01*
X153520184Y-104382043D01*
X153379414Y-104454700D01*
X153260039Y-104558838D01*
X153255672Y-104565052D01*
X153255669Y-104565055D01*
X153228265Y-104604047D01*
X153172731Y-104648279D01*
X153102099Y-104655465D01*
X153038794Y-104623324D01*
X153021338Y-104602965D01*
X152994553Y-104563992D01*
X152981489Y-104552352D01*
X152901558Y-104481137D01*
X152876275Y-104458611D01*
X152868889Y-104454700D01*
X152742988Y-104388039D01*
X152742989Y-104388039D01*
X152736274Y-104384484D01*
X152582633Y-104345892D01*
X152575034Y-104345852D01*
X152575033Y-104345852D01*
X152509181Y-104345507D01*
X152424221Y-104345062D01*
X152416841Y-104346834D01*
X152416839Y-104346834D01*
X152277563Y-104380271D01*
X152277560Y-104380272D01*
X152270184Y-104382043D01*
X152129414Y-104454700D01*
X152010039Y-104558838D01*
X151918950Y-104688444D01*
X151897196Y-104744241D01*
X151874782Y-104801730D01*
X151861406Y-104836037D01*
X151860414Y-104843570D01*
X151860414Y-104843571D01*
X151843801Y-104969764D01*
X151840729Y-104993096D01*
X151847375Y-105053294D01*
X151857005Y-105140514D01*
X151858113Y-105150553D01*
X151860723Y-105157684D01*
X151860723Y-105157686D01*
X151905900Y-105281138D01*
X151912553Y-105299319D01*
X151916788Y-105305622D01*
X151916792Y-105305629D01*
X151941607Y-105342557D01*
X151963000Y-105410254D01*
X151944396Y-105478770D01*
X151891704Y-105526351D01*
X151821651Y-105537891D01*
X151777941Y-105521654D01*
X151777835Y-105521910D01*
X151770910Y-105519042D01*
X151767024Y-105517598D01*
X151766370Y-105517161D01*
X151756051Y-105510266D01*
X151681817Y-105495500D01*
X151456787Y-105495500D01*
X151231684Y-105495501D01*
X151195932Y-105502612D01*
X151169624Y-105507844D01*
X151169622Y-105507845D01*
X151157449Y-105510266D01*
X151147129Y-105517161D01*
X151147128Y-105517162D01*
X151126752Y-105530777D01*
X151058999Y-105551992D01*
X150986748Y-105530777D01*
X150966371Y-105517161D01*
X150966368Y-105517160D01*
X150956051Y-105510266D01*
X150881817Y-105495500D01*
X150656787Y-105495500D01*
X150431684Y-105495501D01*
X150395932Y-105502612D01*
X150369624Y-105507844D01*
X150369622Y-105507845D01*
X150357449Y-105510266D01*
X150347129Y-105517161D01*
X150347128Y-105517162D01*
X150326752Y-105530777D01*
X150258999Y-105551992D01*
X150186748Y-105530777D01*
X150166371Y-105517161D01*
X150166368Y-105517160D01*
X150156051Y-105510266D01*
X150081817Y-105495500D01*
X149856787Y-105495500D01*
X149631684Y-105495501D01*
X149595932Y-105502612D01*
X149569624Y-105507844D01*
X149569622Y-105507845D01*
X149557449Y-105510266D01*
X149547129Y-105517161D01*
X149547128Y-105517162D01*
X149526752Y-105530777D01*
X149458999Y-105551992D01*
X149386748Y-105530777D01*
X149366371Y-105517161D01*
X149366368Y-105517160D01*
X149356051Y-105510266D01*
X149281817Y-105495500D01*
X149252636Y-105495500D01*
X148920933Y-105495501D01*
X148852814Y-105475499D01*
X148806321Y-105421844D01*
X148797355Y-105344921D01*
X148811250Y-105275067D01*
X148811249Y-104968351D01*
X148831251Y-104900232D01*
X148884906Y-104853739D01*
X148955180Y-104843634D01*
X148997369Y-104857620D01*
X149000619Y-104859385D01*
X149000624Y-104859387D01*
X149007293Y-104863008D01*
X149160522Y-104903207D01*
X149244477Y-104904526D01*
X149311319Y-104905576D01*
X149311322Y-104905576D01*
X149318916Y-104905695D01*
X149473332Y-104870329D01*
X149575658Y-104818865D01*
X149608072Y-104802563D01*
X149608075Y-104802561D01*
X149614855Y-104799151D01*
X149620626Y-104794222D01*
X149620629Y-104794220D01*
X149729536Y-104701204D01*
X149729536Y-104701203D01*
X149735314Y-104696269D01*
X149827755Y-104567624D01*
X149886842Y-104420641D01*
X149897598Y-104345062D01*
X149908581Y-104267891D01*
X149908581Y-104267888D01*
X149909162Y-104263807D01*
X149909307Y-104250000D01*
X149890276Y-104092733D01*
X149867283Y-104031885D01*
X157048750Y-104031885D01*
X157053225Y-104047124D01*
X157054615Y-104048329D01*
X157062298Y-104050000D01*
X157738635Y-104050000D01*
X157753874Y-104045525D01*
X157755079Y-104044135D01*
X157756750Y-104036452D01*
X157756750Y-103668115D01*
X157752275Y-103652876D01*
X157750885Y-103651671D01*
X157743202Y-103650000D01*
X157066866Y-103650000D01*
X157051627Y-103654475D01*
X157050422Y-103655865D01*
X157048751Y-103663548D01*
X157048751Y-103694669D01*
X157049121Y-103701490D01*
X157054645Y-103752352D01*
X157058271Y-103767603D01*
X157072579Y-103805770D01*
X157077762Y-103876577D01*
X157072579Y-103894230D01*
X157058272Y-103932394D01*
X157054645Y-103947649D01*
X157049119Y-103998514D01*
X157048750Y-104005328D01*
X157048750Y-104031885D01*
X149867283Y-104031885D01*
X149834280Y-103944546D01*
X149799699Y-103894230D01*
X149748855Y-103820251D01*
X149748854Y-103820249D01*
X149744553Y-103813992D01*
X149626275Y-103708611D01*
X149618889Y-103704700D01*
X149531613Y-103658490D01*
X149486274Y-103634484D01*
X149332633Y-103595892D01*
X149325034Y-103595852D01*
X149325033Y-103595852D01*
X149259181Y-103595507D01*
X149174221Y-103595062D01*
X149166841Y-103596834D01*
X149166839Y-103596834D01*
X149027563Y-103630271D01*
X149027560Y-103630272D01*
X149020184Y-103632043D01*
X149013440Y-103635524D01*
X149013437Y-103635525D01*
X148995041Y-103645020D01*
X148925333Y-103658490D01*
X148859410Y-103632135D01*
X148818200Y-103574323D01*
X148811250Y-103533055D01*
X148811249Y-103231123D01*
X148811249Y-103224934D01*
X148803914Y-103188054D01*
X148798906Y-103162874D01*
X148798905Y-103162872D01*
X148796484Y-103150699D01*
X148785481Y-103134231D01*
X148775973Y-103120002D01*
X148754758Y-103052249D01*
X148771665Y-102994669D01*
X149848751Y-102994669D01*
X149849121Y-103001490D01*
X149854645Y-103052352D01*
X149858271Y-103067604D01*
X149903426Y-103188054D01*
X149911964Y-103203649D01*
X149988465Y-103305724D01*
X150001026Y-103318285D01*
X150103101Y-103394786D01*
X150118696Y-103403324D01*
X150239144Y-103448478D01*
X150254399Y-103452105D01*
X150305264Y-103457631D01*
X150312078Y-103458000D01*
X150809635Y-103458000D01*
X150824874Y-103453525D01*
X150826079Y-103452135D01*
X150827750Y-103444452D01*
X150827750Y-103439884D01*
X151335750Y-103439884D01*
X151340225Y-103455123D01*
X151341615Y-103456328D01*
X151349298Y-103457999D01*
X151851419Y-103457999D01*
X151858240Y-103457629D01*
X151909102Y-103452105D01*
X151924356Y-103448478D01*
X152025021Y-103410741D01*
X152095828Y-103405558D01*
X152113479Y-103410741D01*
X152214141Y-103448478D01*
X152229399Y-103452105D01*
X152280264Y-103457631D01*
X152287078Y-103458000D01*
X152784635Y-103458000D01*
X152799874Y-103453525D01*
X152801079Y-103452135D01*
X152802750Y-103444452D01*
X152802750Y-103439884D01*
X153310750Y-103439884D01*
X153315225Y-103455123D01*
X153316615Y-103456328D01*
X153324298Y-103457999D01*
X153826419Y-103457999D01*
X153833240Y-103457629D01*
X153884102Y-103452105D01*
X153899356Y-103448478D01*
X154000021Y-103410741D01*
X154070828Y-103405558D01*
X154088479Y-103410741D01*
X154189141Y-103448478D01*
X154204399Y-103452105D01*
X154255264Y-103457631D01*
X154262078Y-103458000D01*
X154759635Y-103458000D01*
X154774874Y-103453525D01*
X154776079Y-103452135D01*
X154777750Y-103444452D01*
X154777750Y-103439884D01*
X155285750Y-103439884D01*
X155290225Y-103455123D01*
X155291615Y-103456328D01*
X155299298Y-103457999D01*
X155801419Y-103457999D01*
X155808240Y-103457629D01*
X155859102Y-103452105D01*
X155874354Y-103448479D01*
X155994804Y-103403324D01*
X156010399Y-103394786D01*
X156112474Y-103318285D01*
X156125035Y-103305724D01*
X156180374Y-103231885D01*
X157048750Y-103231885D01*
X157053225Y-103247124D01*
X157054615Y-103248329D01*
X157062298Y-103250000D01*
X157738635Y-103250000D01*
X157753874Y-103245525D01*
X157755079Y-103244135D01*
X157756750Y-103236452D01*
X157756750Y-102868115D01*
X157752275Y-102852876D01*
X157750885Y-102851671D01*
X157743202Y-102850000D01*
X157066866Y-102850000D01*
X157051627Y-102854475D01*
X157050422Y-102855865D01*
X157048751Y-102863548D01*
X157048751Y-102894669D01*
X157049121Y-102901490D01*
X157054645Y-102952352D01*
X157058271Y-102967603D01*
X157072579Y-103005770D01*
X157077762Y-103076577D01*
X157072579Y-103094230D01*
X157058272Y-103132394D01*
X157054645Y-103147649D01*
X157049119Y-103198514D01*
X157048750Y-103205328D01*
X157048750Y-103231885D01*
X156180374Y-103231885D01*
X156201536Y-103203649D01*
X156210074Y-103188054D01*
X156255228Y-103067606D01*
X156258855Y-103052351D01*
X156264381Y-103001486D01*
X156264750Y-102994672D01*
X156264750Y-102497115D01*
X156260275Y-102481876D01*
X156258885Y-102480671D01*
X156251202Y-102479000D01*
X155303865Y-102479000D01*
X155288626Y-102483475D01*
X155287421Y-102484865D01*
X155285750Y-102492548D01*
X155285750Y-103439884D01*
X154777750Y-103439884D01*
X154777750Y-102497115D01*
X154773275Y-102481876D01*
X154771885Y-102480671D01*
X154764202Y-102479000D01*
X153328865Y-102479000D01*
X153313626Y-102483475D01*
X153312421Y-102484865D01*
X153310750Y-102492548D01*
X153310750Y-103439884D01*
X152802750Y-103439884D01*
X152802750Y-102497115D01*
X152798275Y-102481876D01*
X152796885Y-102480671D01*
X152789202Y-102479000D01*
X151353865Y-102479000D01*
X151338626Y-102483475D01*
X151337421Y-102484865D01*
X151335750Y-102492548D01*
X151335750Y-103439884D01*
X150827750Y-103439884D01*
X150827750Y-102497115D01*
X150823275Y-102481876D01*
X150821885Y-102480671D01*
X150814202Y-102479000D01*
X149866866Y-102479000D01*
X149851627Y-102483475D01*
X149850422Y-102484865D01*
X149848751Y-102492548D01*
X149848751Y-102994669D01*
X148771665Y-102994669D01*
X148775973Y-102979998D01*
X148789589Y-102959621D01*
X148789590Y-102959618D01*
X148796484Y-102949301D01*
X148811250Y-102875067D01*
X148811249Y-102431885D01*
X157048750Y-102431885D01*
X157053225Y-102447124D01*
X157054615Y-102448329D01*
X157062298Y-102450000D01*
X157738635Y-102450000D01*
X157753874Y-102445525D01*
X157755079Y-102444135D01*
X157756750Y-102436452D01*
X157756750Y-102068115D01*
X157752275Y-102052876D01*
X157750885Y-102051671D01*
X157743202Y-102050000D01*
X157066866Y-102050000D01*
X157051627Y-102054475D01*
X157050422Y-102055865D01*
X157048751Y-102063548D01*
X157048751Y-102094669D01*
X157049121Y-102101490D01*
X157054645Y-102152352D01*
X157058271Y-102167603D01*
X157072579Y-102205770D01*
X157077762Y-102276577D01*
X157072579Y-102294230D01*
X157058272Y-102332394D01*
X157054645Y-102347649D01*
X157049119Y-102398514D01*
X157048750Y-102405328D01*
X157048750Y-102431885D01*
X148811249Y-102431885D01*
X148811249Y-102424934D01*
X148804138Y-102389182D01*
X148798906Y-102362874D01*
X148798905Y-102362872D01*
X148796484Y-102350699D01*
X148775973Y-102320002D01*
X148754758Y-102252249D01*
X148775973Y-102179998D01*
X148789589Y-102159621D01*
X148789590Y-102159618D01*
X148796484Y-102149301D01*
X148811250Y-102075067D01*
X148811250Y-101952885D01*
X149848750Y-101952885D01*
X149853225Y-101968124D01*
X149854615Y-101969329D01*
X149862298Y-101971000D01*
X150809635Y-101971000D01*
X150824874Y-101966525D01*
X150826079Y-101965135D01*
X150827750Y-101957452D01*
X150827750Y-101952885D01*
X151335750Y-101952885D01*
X151340225Y-101968124D01*
X151341615Y-101969329D01*
X151349298Y-101971000D01*
X152784635Y-101971000D01*
X152799874Y-101966525D01*
X152801079Y-101965135D01*
X152802750Y-101957452D01*
X152802750Y-101952885D01*
X153310750Y-101952885D01*
X153315225Y-101968124D01*
X153316615Y-101969329D01*
X153324298Y-101971000D01*
X154759635Y-101971000D01*
X154774874Y-101966525D01*
X154776079Y-101965135D01*
X154777750Y-101957452D01*
X154777750Y-101952885D01*
X155285750Y-101952885D01*
X155290225Y-101968124D01*
X155291615Y-101969329D01*
X155299298Y-101971000D01*
X156246634Y-101971000D01*
X156261873Y-101966525D01*
X156263078Y-101965135D01*
X156264749Y-101957452D01*
X156264749Y-101631885D01*
X157048750Y-101631885D01*
X157053225Y-101647124D01*
X157054615Y-101648329D01*
X157062298Y-101650000D01*
X157738635Y-101650000D01*
X157753874Y-101645525D01*
X157755079Y-101644135D01*
X157756750Y-101636452D01*
X157756750Y-101268115D01*
X157752275Y-101252876D01*
X157750885Y-101251671D01*
X157743202Y-101250000D01*
X157066866Y-101250000D01*
X157051627Y-101254475D01*
X157050422Y-101255865D01*
X157048751Y-101263548D01*
X157048751Y-101294669D01*
X157049121Y-101301490D01*
X157054645Y-101352352D01*
X157058271Y-101367603D01*
X157072579Y-101405770D01*
X157077762Y-101476577D01*
X157072579Y-101494230D01*
X157058272Y-101532394D01*
X157054645Y-101547649D01*
X157049119Y-101598514D01*
X157048750Y-101605328D01*
X157048750Y-101631885D01*
X156264749Y-101631885D01*
X156264749Y-101455331D01*
X156264379Y-101448510D01*
X156258855Y-101397648D01*
X156255228Y-101382394D01*
X156217491Y-101281729D01*
X156212308Y-101210922D01*
X156217491Y-101193271D01*
X156255228Y-101092609D01*
X156258855Y-101077351D01*
X156264381Y-101026486D01*
X156264750Y-101019672D01*
X156264750Y-100831885D01*
X157048750Y-100831885D01*
X157053225Y-100847124D01*
X157054615Y-100848329D01*
X157062298Y-100850000D01*
X157738635Y-100850000D01*
X157753874Y-100845525D01*
X157755079Y-100844135D01*
X157756750Y-100836452D01*
X157756750Y-100468115D01*
X157752275Y-100452876D01*
X157750885Y-100451671D01*
X157743202Y-100450000D01*
X157066866Y-100450000D01*
X157051627Y-100454475D01*
X157050422Y-100455865D01*
X157048751Y-100463548D01*
X157048751Y-100494669D01*
X157049121Y-100501490D01*
X157054645Y-100552352D01*
X157058271Y-100567603D01*
X157072579Y-100605770D01*
X157077762Y-100676577D01*
X157072579Y-100694230D01*
X157058272Y-100732394D01*
X157054645Y-100747649D01*
X157049119Y-100798514D01*
X157048750Y-100805328D01*
X157048750Y-100831885D01*
X156264750Y-100831885D01*
X156264750Y-100522115D01*
X156260275Y-100506876D01*
X156258885Y-100505671D01*
X156251202Y-100504000D01*
X155303865Y-100504000D01*
X155288626Y-100508475D01*
X155287421Y-100509865D01*
X155285750Y-100517548D01*
X155285750Y-101952885D01*
X154777750Y-101952885D01*
X154777750Y-100522115D01*
X154773275Y-100506876D01*
X154771885Y-100505671D01*
X154764202Y-100504000D01*
X153328865Y-100504000D01*
X153313626Y-100508475D01*
X153312421Y-100509865D01*
X153310750Y-100517548D01*
X153310750Y-101952885D01*
X152802750Y-101952885D01*
X152802750Y-100522115D01*
X152798275Y-100506876D01*
X152796885Y-100505671D01*
X152789202Y-100504000D01*
X151353865Y-100504000D01*
X151338626Y-100508475D01*
X151337421Y-100509865D01*
X151335750Y-100517548D01*
X151335750Y-101952885D01*
X150827750Y-101952885D01*
X150827750Y-100522115D01*
X150823275Y-100506876D01*
X150821885Y-100505671D01*
X150814202Y-100504000D01*
X149866866Y-100504000D01*
X149851627Y-100508475D01*
X149850422Y-100509865D01*
X149848751Y-100517548D01*
X149848751Y-101019669D01*
X149849121Y-101026490D01*
X149854645Y-101077352D01*
X149858272Y-101092606D01*
X149896009Y-101193271D01*
X149901192Y-101264078D01*
X149896009Y-101281729D01*
X149858272Y-101382391D01*
X149854645Y-101397649D01*
X149849119Y-101448514D01*
X149848750Y-101455328D01*
X149848750Y-101952885D01*
X148811250Y-101952885D01*
X148811249Y-101624934D01*
X148802300Y-101579938D01*
X148798906Y-101562874D01*
X148798905Y-101562872D01*
X148796484Y-101550699D01*
X148788355Y-101538532D01*
X148775973Y-101520002D01*
X148754758Y-101452249D01*
X148775973Y-101379998D01*
X148789589Y-101359621D01*
X148789590Y-101359618D01*
X148796484Y-101349301D01*
X148811250Y-101275067D01*
X148811249Y-100824934D01*
X148796484Y-100750699D01*
X148786844Y-100736271D01*
X148775973Y-100720002D01*
X148754758Y-100652249D01*
X148775973Y-100579998D01*
X148789589Y-100559621D01*
X148789590Y-100559618D01*
X148796484Y-100549301D01*
X148811250Y-100475067D01*
X148811249Y-100031885D01*
X157048750Y-100031885D01*
X157053225Y-100047124D01*
X157054615Y-100048329D01*
X157062298Y-100050000D01*
X157738635Y-100050000D01*
X157753874Y-100045525D01*
X157755079Y-100044135D01*
X157756750Y-100036452D01*
X157756750Y-99668115D01*
X157752275Y-99652876D01*
X157750885Y-99651671D01*
X157743202Y-99650000D01*
X157066866Y-99650000D01*
X157051627Y-99654475D01*
X157050422Y-99655865D01*
X157048751Y-99663548D01*
X157048751Y-99694669D01*
X157049121Y-99701490D01*
X157054645Y-99752352D01*
X157058271Y-99767603D01*
X157072579Y-99805770D01*
X157077762Y-99876577D01*
X157072579Y-99894230D01*
X157058272Y-99932394D01*
X157054645Y-99947649D01*
X157049119Y-99998514D01*
X157048750Y-100005328D01*
X157048750Y-100031885D01*
X148811249Y-100031885D01*
X148811249Y-100024934D01*
X148801891Y-99977885D01*
X149848750Y-99977885D01*
X149853225Y-99993124D01*
X149854615Y-99994329D01*
X149862298Y-99996000D01*
X150809635Y-99996000D01*
X150824874Y-99991525D01*
X150826079Y-99990135D01*
X150827750Y-99982452D01*
X150827750Y-99977885D01*
X151335750Y-99977885D01*
X151340225Y-99993124D01*
X151341615Y-99994329D01*
X151349298Y-99996000D01*
X152784635Y-99996000D01*
X152799874Y-99991525D01*
X152801079Y-99990135D01*
X152802750Y-99982452D01*
X152802750Y-99977885D01*
X153310750Y-99977885D01*
X153315225Y-99993124D01*
X153316615Y-99994329D01*
X153324298Y-99996000D01*
X154759635Y-99996000D01*
X154774874Y-99991525D01*
X154776079Y-99990135D01*
X154777750Y-99982452D01*
X154777750Y-99977885D01*
X155285750Y-99977885D01*
X155290225Y-99993124D01*
X155291615Y-99994329D01*
X155299298Y-99996000D01*
X156246634Y-99996000D01*
X156261873Y-99991525D01*
X156263078Y-99990135D01*
X156264749Y-99982452D01*
X156264749Y-99480331D01*
X156264379Y-99473510D01*
X156258855Y-99422648D01*
X156255228Y-99407394D01*
X156217491Y-99306729D01*
X156212308Y-99235922D01*
X156213493Y-99231885D01*
X157048750Y-99231885D01*
X157053225Y-99247124D01*
X157054615Y-99248329D01*
X157062298Y-99250000D01*
X157738635Y-99250000D01*
X157753874Y-99245525D01*
X157755079Y-99244135D01*
X157756750Y-99236452D01*
X157756750Y-98868115D01*
X157752275Y-98852876D01*
X157750885Y-98851671D01*
X157743202Y-98850000D01*
X157066866Y-98850000D01*
X157051627Y-98854475D01*
X157050422Y-98855865D01*
X157048751Y-98863548D01*
X157048751Y-98894669D01*
X157049121Y-98901490D01*
X157054645Y-98952352D01*
X157058271Y-98967603D01*
X157072579Y-99005770D01*
X157077762Y-99076577D01*
X157072579Y-99094230D01*
X157058272Y-99132394D01*
X157054645Y-99147649D01*
X157049119Y-99198514D01*
X157048750Y-99205328D01*
X157048750Y-99231885D01*
X156213493Y-99231885D01*
X156217491Y-99218271D01*
X156255228Y-99117609D01*
X156258855Y-99102351D01*
X156264381Y-99051486D01*
X156264750Y-99044673D01*
X156264749Y-98547115D01*
X156260274Y-98531876D01*
X156258884Y-98530671D01*
X156251201Y-98529000D01*
X155303865Y-98529000D01*
X155288626Y-98533475D01*
X155287421Y-98534865D01*
X155285750Y-98542548D01*
X155285750Y-99977885D01*
X154777750Y-99977885D01*
X154777750Y-98547115D01*
X154773275Y-98531876D01*
X154771885Y-98530671D01*
X154764202Y-98529000D01*
X153328865Y-98529000D01*
X153313626Y-98533475D01*
X153312421Y-98534865D01*
X153310750Y-98542548D01*
X153310750Y-99977885D01*
X152802750Y-99977885D01*
X152802750Y-98547115D01*
X152798275Y-98531876D01*
X152796885Y-98530671D01*
X152789202Y-98529000D01*
X151353865Y-98529000D01*
X151338626Y-98533475D01*
X151337421Y-98534865D01*
X151335750Y-98542548D01*
X151335750Y-99977885D01*
X150827750Y-99977885D01*
X150827750Y-98547115D01*
X150823275Y-98531876D01*
X150821885Y-98530671D01*
X150814202Y-98529000D01*
X149866866Y-98529000D01*
X149851627Y-98533475D01*
X149850422Y-98534865D01*
X149848751Y-98542548D01*
X149848751Y-99044669D01*
X149849121Y-99051490D01*
X149854645Y-99102352D01*
X149858272Y-99117606D01*
X149896009Y-99218271D01*
X149901192Y-99289078D01*
X149896009Y-99306729D01*
X149858272Y-99407391D01*
X149854645Y-99422649D01*
X149849119Y-99473514D01*
X149848750Y-99480328D01*
X149848750Y-99977885D01*
X148801891Y-99977885D01*
X148796484Y-99950699D01*
X148788296Y-99938444D01*
X148775973Y-99920002D01*
X148754758Y-99852249D01*
X148775973Y-99779998D01*
X148789589Y-99759621D01*
X148789590Y-99759618D01*
X148796484Y-99749301D01*
X148811250Y-99675067D01*
X148811249Y-99224934D01*
X148801150Y-99174158D01*
X148798906Y-99162874D01*
X148798905Y-99162872D01*
X148796484Y-99150699D01*
X148786345Y-99135524D01*
X148775973Y-99120002D01*
X148754758Y-99052249D01*
X148775973Y-98979998D01*
X148789589Y-98959621D01*
X148789590Y-98959618D01*
X148796484Y-98949301D01*
X148811250Y-98875067D01*
X148811249Y-98431885D01*
X157048750Y-98431885D01*
X157053225Y-98447124D01*
X157054615Y-98448329D01*
X157062298Y-98450000D01*
X157738635Y-98450000D01*
X157753874Y-98445525D01*
X157755079Y-98444135D01*
X157756750Y-98436452D01*
X157756750Y-98068115D01*
X157752275Y-98052876D01*
X157750885Y-98051671D01*
X157743202Y-98050000D01*
X157066866Y-98050000D01*
X157051627Y-98054475D01*
X157050422Y-98055865D01*
X157048751Y-98063548D01*
X157048751Y-98094669D01*
X157049121Y-98101490D01*
X157054645Y-98152352D01*
X157058271Y-98167603D01*
X157072579Y-98205770D01*
X157077762Y-98276577D01*
X157072579Y-98294230D01*
X157058272Y-98332394D01*
X157054645Y-98347649D01*
X157049119Y-98398514D01*
X157048750Y-98405328D01*
X157048750Y-98431885D01*
X148811249Y-98431885D01*
X148811249Y-98424934D01*
X148796484Y-98350699D01*
X148775973Y-98320002D01*
X148754758Y-98252249D01*
X148775973Y-98179998D01*
X148789589Y-98159621D01*
X148789590Y-98159618D01*
X148796484Y-98149301D01*
X148811250Y-98075067D01*
X148811249Y-97757175D01*
X148831251Y-97689056D01*
X148861684Y-97656350D01*
X148912474Y-97618285D01*
X148925035Y-97605724D01*
X149001536Y-97503649D01*
X149010074Y-97488054D01*
X149055228Y-97367606D01*
X149058855Y-97352351D01*
X149064381Y-97301486D01*
X149064750Y-97294672D01*
X149064750Y-97268115D01*
X149060275Y-97252876D01*
X149058885Y-97251671D01*
X149051202Y-97250000D01*
X148082750Y-97250000D01*
X148014629Y-97229998D01*
X147968136Y-97176342D01*
X147956750Y-97124000D01*
X147956750Y-96976000D01*
X147976752Y-96907879D01*
X148030408Y-96861386D01*
X148082750Y-96850000D01*
X149046634Y-96850000D01*
X149061873Y-96845525D01*
X149063078Y-96844135D01*
X149064749Y-96836452D01*
X149064749Y-96805331D01*
X149064379Y-96798510D01*
X149058855Y-96747648D01*
X149055229Y-96732396D01*
X149010074Y-96611946D01*
X149001536Y-96596351D01*
X148925035Y-96494276D01*
X148912478Y-96481719D01*
X148861685Y-96443652D01*
X148819170Y-96386792D01*
X148811250Y-96342825D01*
X148811249Y-96031123D01*
X148811249Y-96024934D01*
X148796484Y-95950699D01*
X148787611Y-95937419D01*
X148775973Y-95920002D01*
X148754758Y-95852249D01*
X148775973Y-95779998D01*
X148789589Y-95759621D01*
X148789590Y-95759618D01*
X148796484Y-95749301D01*
X148811250Y-95675067D01*
X148811249Y-95349712D01*
X148831251Y-95281593D01*
X148842024Y-95267201D01*
X148855079Y-95252135D01*
X148856750Y-95244452D01*
X148856750Y-94572115D01*
X148852275Y-94556876D01*
X148850885Y-94555671D01*
X148843202Y-94554000D01*
X147978750Y-94554000D01*
X147910629Y-94533998D01*
X147864136Y-94480342D01*
X147852750Y-94428000D01*
X147852750Y-94172000D01*
X147872752Y-94103879D01*
X147926408Y-94057386D01*
X147978750Y-94046000D01*
X148885210Y-94046000D01*
X148953331Y-94066002D01*
G37*
%TD.AperFunction*%
%TA.AperFunction,Conductor*%
G36*
X131377127Y-93774002D02*
G01*
X131423620Y-93827658D01*
X131433724Y-93897932D01*
X131404230Y-93962512D01*
X131398101Y-93969095D01*
X131386997Y-93980199D01*
X131350431Y-94032421D01*
X131330099Y-94061458D01*
X131272479Y-94105992D01*
X131270184Y-94106543D01*
X131263443Y-94110022D01*
X131263441Y-94110023D01*
X131244774Y-94119658D01*
X131129414Y-94179200D01*
X131010039Y-94283338D01*
X130918950Y-94412944D01*
X130909995Y-94435912D01*
X130864863Y-94551671D01*
X130861406Y-94560537D01*
X130860414Y-94568070D01*
X130860414Y-94568071D01*
X130843537Y-94696269D01*
X130840729Y-94717596D01*
X130843313Y-94741000D01*
X130857224Y-94867000D01*
X130858113Y-94875053D01*
X130860723Y-94882184D01*
X130860723Y-94882186D01*
X130909881Y-95016516D01*
X130912553Y-95023819D01*
X130916789Y-95030122D01*
X130916789Y-95030123D01*
X130979283Y-95123123D01*
X131000908Y-95155305D01*
X131006527Y-95160418D01*
X131006528Y-95160419D01*
X131112460Y-95256809D01*
X131118076Y-95261919D01*
X131257293Y-95337508D01*
X131410522Y-95377707D01*
X131455710Y-95378417D01*
X131467493Y-95378602D01*
X131535291Y-95399671D01*
X131580936Y-95454050D01*
X131588940Y-95493294D01*
X131590729Y-95493096D01*
X131603729Y-95610842D01*
X131608113Y-95650553D01*
X131610723Y-95657684D01*
X131610723Y-95657686D01*
X131655483Y-95779998D01*
X131662553Y-95799319D01*
X131666789Y-95805622D01*
X131666789Y-95805623D01*
X131743649Y-95920002D01*
X131750908Y-95930805D01*
X131756527Y-95935918D01*
X131756528Y-95935919D01*
X131847683Y-96018863D01*
X131868076Y-96037419D01*
X132007293Y-96113008D01*
X132160522Y-96153207D01*
X132257138Y-96154725D01*
X132318772Y-96155693D01*
X132386570Y-96176762D01*
X132405888Y-96192582D01*
X132443522Y-96230216D01*
X132458664Y-96248964D01*
X132459779Y-96250189D01*
X132465429Y-96258940D01*
X132473607Y-96265387D01*
X132473608Y-96265388D01*
X132475386Y-96266789D01*
X132477174Y-96269307D01*
X132480617Y-96273090D01*
X132480158Y-96273507D01*
X132516500Y-96324669D01*
X132521113Y-96345985D01*
X132521139Y-96345979D01*
X132522784Y-96353478D01*
X132523507Y-96361127D01*
X132568791Y-96490076D01*
X132574389Y-96497655D01*
X132613155Y-96550141D01*
X132637538Y-96616819D01*
X132622001Y-96686095D01*
X132613155Y-96699859D01*
X132577595Y-96748005D01*
X132568791Y-96759924D01*
X132523507Y-96888873D01*
X132522785Y-96896515D01*
X132522784Y-96896518D01*
X132521761Y-96907344D01*
X132520500Y-96920685D01*
X132520501Y-97579314D01*
X132523507Y-97611127D01*
X132568791Y-97740076D01*
X132574384Y-97747648D01*
X132574386Y-97747652D01*
X132619368Y-97808551D01*
X132643751Y-97875229D01*
X132628215Y-97944505D01*
X132618843Y-97958977D01*
X132580465Y-98010183D01*
X132580463Y-98010186D01*
X132575083Y-98017365D01*
X132571933Y-98025769D01*
X132571932Y-98025770D01*
X132543547Y-98101490D01*
X132526870Y-98145976D01*
X132526017Y-98153826D01*
X132526017Y-98153827D01*
X132524520Y-98167603D01*
X132520500Y-98204611D01*
X132520501Y-98795388D01*
X132520870Y-98798782D01*
X132520870Y-98798788D01*
X132524959Y-98836426D01*
X132526870Y-98854024D01*
X132560249Y-98943065D01*
X132571680Y-98973556D01*
X132575083Y-98982635D01*
X132580465Y-98989816D01*
X132584778Y-98997694D01*
X132581565Y-98999453D01*
X132600329Y-99049668D01*
X132585279Y-99119051D01*
X132540490Y-99166164D01*
X132391555Y-99257432D01*
X132382093Y-99267890D01*
X132385876Y-99276666D01*
X133520115Y-100410905D01*
X133554141Y-100473217D01*
X133549076Y-100544032D01*
X133520115Y-100589095D01*
X133339095Y-100770115D01*
X133276783Y-100804141D01*
X133205968Y-100799076D01*
X133160905Y-100770115D01*
X132029710Y-99638920D01*
X131997170Y-99621151D01*
X131946969Y-99570948D01*
X131931878Y-99501573D01*
X131938675Y-99468815D01*
X131940056Y-99464885D01*
X131976493Y-99361127D01*
X131979500Y-99329315D01*
X131979499Y-98820686D01*
X131976493Y-98788873D01*
X131931209Y-98659924D01*
X131850010Y-98549990D01*
X131789994Y-98505661D01*
X131778792Y-98497387D01*
X131735881Y-98440826D01*
X131730362Y-98370044D01*
X131763986Y-98307514D01*
X131805209Y-98282372D01*
X131804323Y-98280409D01*
X131824988Y-98271079D01*
X131958574Y-98190176D01*
X131970443Y-98180869D01*
X132080869Y-98070443D01*
X132090176Y-98058574D01*
X132171079Y-97924988D01*
X132177285Y-97911243D01*
X132224256Y-97761356D01*
X132226869Y-97748306D01*
X132231913Y-97693414D01*
X132228525Y-97681876D01*
X132227135Y-97680671D01*
X132219452Y-97679000D01*
X131122000Y-97679000D01*
X131053879Y-97658998D01*
X131007386Y-97605342D01*
X130996000Y-97553000D01*
X130996000Y-97152885D01*
X131504000Y-97152885D01*
X131508475Y-97168124D01*
X131509865Y-97169329D01*
X131517548Y-97171000D01*
X132214884Y-97171000D01*
X132230123Y-97166525D01*
X132231328Y-97165135D01*
X132232291Y-97160706D01*
X132226868Y-97101685D01*
X132224257Y-97088649D01*
X132177285Y-96938757D01*
X132171079Y-96925012D01*
X132090176Y-96791426D01*
X132080869Y-96779557D01*
X131970443Y-96669131D01*
X131958574Y-96659824D01*
X131824988Y-96578921D01*
X131811243Y-96572715D01*
X131661356Y-96525744D01*
X131648306Y-96523131D01*
X131584479Y-96517266D01*
X131578691Y-96517000D01*
X131522115Y-96517000D01*
X131506876Y-96521475D01*
X131505671Y-96522865D01*
X131504000Y-96530548D01*
X131504000Y-97152885D01*
X130996000Y-97152885D01*
X130996000Y-96535116D01*
X130991525Y-96519877D01*
X130990135Y-96518672D01*
X130982452Y-96517001D01*
X130921295Y-96517001D01*
X130915546Y-96517264D01*
X130851685Y-96523132D01*
X130838650Y-96525742D01*
X130830681Y-96528240D01*
X130759696Y-96529526D01*
X130699284Y-96492230D01*
X130668627Y-96428194D01*
X130666999Y-96408007D01*
X130666999Y-95174934D01*
X130656694Y-95123123D01*
X130654656Y-95112874D01*
X130654655Y-95112872D01*
X130652234Y-95100699D01*
X130641384Y-95084460D01*
X130602877Y-95026832D01*
X130595984Y-95016516D01*
X130511801Y-94960266D01*
X130437567Y-94945500D01*
X130438130Y-94942671D01*
X130383764Y-94920786D01*
X130342692Y-94862876D01*
X130339448Y-94791953D01*
X130344932Y-94774895D01*
X130359640Y-94738307D01*
X130386842Y-94670641D01*
X130403033Y-94556876D01*
X130408581Y-94517891D01*
X130408581Y-94517888D01*
X130409162Y-94513807D01*
X130409307Y-94500000D01*
X130408472Y-94493095D01*
X130403814Y-94454611D01*
X130390276Y-94342733D01*
X130334280Y-94194546D01*
X130304181Y-94150752D01*
X130248855Y-94070251D01*
X130248854Y-94070249D01*
X130244553Y-94063992D01*
X130237139Y-94057386D01*
X130143634Y-93974077D01*
X130106079Y-93913826D01*
X130107058Y-93842837D01*
X130146263Y-93783646D01*
X130211244Y-93755047D01*
X130227453Y-93754000D01*
X131309006Y-93754000D01*
X131377127Y-93774002D01*
G37*
%TD.AperFunction*%
%TA.AperFunction,Conductor*%
G36*
X126841677Y-99120502D02*
G01*
X126888170Y-99174158D01*
X126898274Y-99244432D01*
X126893149Y-99266167D01*
X126859249Y-99368374D01*
X126852195Y-99389641D01*
X126851495Y-99396478D01*
X126851494Y-99396480D01*
X126848341Y-99427251D01*
X126841500Y-99494023D01*
X126841501Y-100111127D01*
X126841501Y-100610271D01*
X126821499Y-100678392D01*
X126767843Y-100724885D01*
X126715501Y-100736271D01*
X126136500Y-100736271D01*
X126068379Y-100716269D01*
X126021886Y-100662613D01*
X126010500Y-100610271D01*
X126010499Y-99493594D01*
X126010499Y-99490628D01*
X126009776Y-99482971D01*
X126008245Y-99466774D01*
X126008245Y-99466773D01*
X126007522Y-99459125D01*
X125962699Y-99331488D01*
X125940444Y-99301357D01*
X125916062Y-99234682D01*
X125931598Y-99165406D01*
X125982122Y-99115527D01*
X126041796Y-99100500D01*
X126773556Y-99100500D01*
X126841677Y-99120502D01*
G37*
%TD.AperFunction*%
%TA.AperFunction,Conductor*%
G36*
X134971121Y-98266002D02*
G01*
X135017614Y-98319658D01*
X135029000Y-98372000D01*
X135029000Y-99464885D01*
X135033475Y-99480124D01*
X135034867Y-99481330D01*
X135042409Y-99482971D01*
X135104722Y-99516996D01*
X135138747Y-99579308D01*
X135138746Y-99632872D01*
X135133540Y-99656804D01*
X135133244Y-99660937D01*
X135103785Y-99725434D01*
X135091395Y-99737866D01*
X135010039Y-99808838D01*
X134918950Y-99938444D01*
X134916191Y-99945520D01*
X134916188Y-99945526D01*
X134902227Y-99981336D01*
X134858847Y-100037538D01*
X134791968Y-100061365D01*
X134722824Y-100045252D01*
X134673368Y-99994315D01*
X134668425Y-99983785D01*
X134599687Y-99817837D01*
X134595210Y-99809052D01*
X134492827Y-99641978D01*
X134474289Y-99573444D01*
X134495745Y-99505768D01*
X134505035Y-99493631D01*
X134519329Y-99477135D01*
X134521000Y-99469452D01*
X134521000Y-98372000D01*
X134541002Y-98303879D01*
X134594658Y-98257386D01*
X134647000Y-98246000D01*
X134903000Y-98246000D01*
X134971121Y-98266002D01*
G37*
%TD.AperFunction*%
%TA.AperFunction,Conductor*%
G36*
X136459571Y-93774002D02*
G01*
X136506064Y-93827658D01*
X136516168Y-93897932D01*
X136491413Y-93956704D01*
X136444196Y-94018239D01*
X136436008Y-94032421D01*
X136384844Y-94155941D01*
X136380606Y-94171758D01*
X136367538Y-94271019D01*
X136367000Y-94279228D01*
X136367000Y-94741000D01*
X136346998Y-94809121D01*
X136293342Y-94855614D01*
X136241000Y-94867000D01*
X135786245Y-94867000D01*
X135776435Y-94871338D01*
X135773025Y-94876508D01*
X135773000Y-94876671D01*
X135773000Y-94878000D01*
X135772593Y-94879386D01*
X135771608Y-94885957D01*
X135770703Y-94885821D01*
X135752998Y-94946121D01*
X135699342Y-94992614D01*
X135647000Y-95004000D01*
X134647000Y-95004000D01*
X134578879Y-94983998D01*
X134532386Y-94930342D01*
X134521000Y-94878000D01*
X134521000Y-94622000D01*
X134541002Y-94553879D01*
X134594658Y-94507386D01*
X134647000Y-94496000D01*
X135714885Y-94496000D01*
X135730124Y-94491525D01*
X135731329Y-94490135D01*
X135733000Y-94482452D01*
X135733000Y-94454562D01*
X135732663Y-94448047D01*
X135723106Y-94355943D01*
X135720212Y-94342544D01*
X135670619Y-94193893D01*
X135664445Y-94180714D01*
X135582212Y-94047827D01*
X135573172Y-94036421D01*
X135505806Y-93969173D01*
X135471726Y-93906891D01*
X135476729Y-93836071D01*
X135519226Y-93779198D01*
X135585724Y-93754329D01*
X135594823Y-93754000D01*
X136391450Y-93754000D01*
X136459571Y-93774002D01*
G37*
%TD.AperFunction*%
%TD*%
M02*
